<?xml version="1.0" encoding="us-ascii" standalone="no"?><svg xmlns="http://www.w3.org/2000/svg" xmlns:xlink="http://www.w3.org/1999/xlink" contentStyleType="text/css" height="272px" preserveAspectRatio="none" style="width:706px;height:272px;background:#FFFFFF;" version="1.1" viewBox="0 0 706 272" width="706px" zoomAndPan="magnify"><defs/><g><!--cluster Platform--><g id="cluster_Platform"><path d="M8.5,6 L72.5,6 A3.75,3.75 0 0 1 75,8.5 L82,28.4883 L696.5,28.4883 A2.5,2.5 0 0 1 699,30.9883 L699,263.48 A2.5,2.5 0 0 1 696.5,265.98 L8.5,265.98 A2.5,2.5 0 0 1 6,263.48 L6,8.5 A2.5,2.5 0 0 1 8.5,6 " fill="none" style="stroke:#000000;stroke-width:1.5;"/><line style="stroke:#000000;stroke-width:1.5;" x1="6" x2="82" y1="28.4883" y2="28.4883"/><text fill="#000000" font-family="sans-serif" font-size="14" font-weight="bold" lengthAdjust="spacing" textLength="63" x="10" y="21.5352">Platform</text></g><!--cluster Application--><g id="cluster_Application"><rect fill="none" height="192.98" rx="2.5" ry="2.5" style="stroke:#181818;stroke-width:1.0;" width="487" x="30" y="49"/><path d="M122,49 L122,58.4883 L112,68.4883 L30,68.4883 " fill="none" style="stroke:#181818;stroke-width:1.0;"/><text fill="#000000" font-family="sans-serif" font-size="14" font-weight="bold" lengthAdjust="spacing" textLength="82" x="33" y="63.5352">Application</text></g><!--entity externalservice1--><g id="elem_externalservice1"><rect fill="#FFE4B5" height="36.4883" rx="2.5" ry="2.5" style="stroke:#181818;stroke-width:0.5;" width="151" x="532.5" y="184.99"/><text fill="#000000" font-family="sans-serif" font-size="14" lengthAdjust="spacing" textLength="131" x="542.5" y="208.5252">External Service #1</text></g><!--entity frontend--><g id="elem_frontend"><rect fill="#D3D3D3" height="36.4883" rx="2.5" ry="2.5" style="stroke:#181818;stroke-width:0.5;" width="83" x="46.5" y="84"/><text fill="#000000" font-family="sans-serif" font-size="14" lengthAdjust="spacing" textLength="63" x="56.5" y="107.5352">Frontend</text></g><!--entity backendservice1--><g id="elem_backendservice1"><rect fill="#87CEEB" height="36.4883" rx="2.5" ry="2.5" style="stroke:#181818;stroke-width:2.0;" width="151" x="164.5" y="84"/><text fill="#000000" font-family="sans-serif" font-size="14" lengthAdjust="spacing" textLength="131" x="174.5" y="107.5352">Backend Service #1</text></g><!--entity backendservice2--><g id="elem_backendservice2"><rect fill="#ADD8E6" height="36.4883" rx="2.5" ry="2.5" style="stroke:#181818;stroke-width:0.5;" width="151" x="350.5" y="84"/><text fill="#000000" font-family="sans-serif" font-size="14" lengthAdjust="spacing" textLength="131" x="360.5" y="107.5352">Backend Service #2</text></g><!--entity backendservice1database--><g id="elem_backendservice1database"><path d="M199,190.49 C199,180.49 240,180.49 240,180.49 C240,180.49 281,180.49 281,190.49 L281,215.9783 C281,225.9783 240,225.9783 240,225.9783 C240,225.9783 199,225.9783 199,215.9783 L199,190.49 " fill="#F1F1F1" style="stroke:#181818;stroke-width:0.5;"/><path d="M199,190.49 C199,200.49 240,200.49 240,200.49 C240,200.49 281,200.49 281,190.49 " fill="none" style="stroke:#181818;stroke-width:0.5;"/><text fill="#000000" font-family="sans-serif" font-size="14" lengthAdjust="spacing" textLength="62" x="209" y="218.0252">database</text></g><!--link frontend to backendservice1--><g id="link_frontend_backendservice1"><path d="M129.86,102.25 C141.33,102.25 146.81,102.25 158.28,102.25 " fill="none" id="frontend-to-backendservice1" style="stroke:#181818;stroke-width:1.0;"/><polygon fill="#181818" points="164.28,102.25,155.28,98.25,159.28,102.25,155.28,106.25,164.28,102.25" style="stroke:#181818;stroke-width:1.0;"/></g><!--link backendservice1 to backendservice1database--><g id="link_backendservice1_backendservice1database"><path d="M240,120.94 C240,137.52 240,156.34 240,174.19 " fill="none" id="backendservice1-to-backendservice1database" style="stroke:#181818;stroke-width:1.0;"/><polygon fill="#181818" points="240,180.19,244,171.19,240,175.19,236,171.19,240,180.19" style="stroke:#181818;stroke-width:1.0;"/></g><!--link backendservice1 to backendservice2--><g id="link_backendservice1_backendservice2"><path d="M315.93,102.25 C327.39,102.25 332.86,102.25 344.32,102.25 " fill="none" id="backendservice1-to-backendservice2" style="stroke:#181818;stroke-width:1.0;"/><polygon fill="#181818" points="350.32,102.25,341.32,98.25,345.32,102.25,341.32,106.25,350.32,102.25" style="stroke:#181818;stroke-width:1.0;"/></g><!--link backendservice1 to externalservice1--><g id="link_backendservice1_externalservice1"><path d="M305.79,120.94 C372.57,138.91 469.566,165.0013 536.366,182.9713 " fill="none" id="backendservice1-to-externalservice1" style="stroke:#181818;stroke-width:1.0;"/><polygon fill="#181818" points="542.16,184.53,534.5081,178.3293,537.3317,183.2311,532.4299,186.0547,542.16,184.53" style="stroke:#181818;stroke-width:1.0;"/></g></g></svg>