<?xml version="1.0" encoding="us-ascii" standalone="no"?><svg xmlns="http://www.w3.org/2000/svg" xmlns:xlink="http://www.w3.org/1999/xlink" contentStyleType="text/css" height="222px" preserveAspectRatio="none" style="width:883px;height:222px;background:#FFFFFF;" version="1.1" viewBox="0 0 883 222" width="883px" zoomAndPan="magnify"><defs/><g><!--entity platform__application__frontend--><g id="elem_platform__application__frontend"><rect fill="#D3D3D3" height="36.2969" rx="2.5" ry="2.5" style="stroke:#181818;stroke-width:0.5;" width="83" x="7" y="47"/><text fill="#000000" font-family="sans-serif" font-size="14" lengthAdjust="spacing" textLength="63" x="17" y="69.9951">Frontend</text></g><!--entity platform__application__backend_service_1--><g id="elem_platform__application__backend_service_1"><rect fill="#87CEEB" height="36.2969" rx="2.5" ry="2.5" style="stroke:#181818;stroke-width:2.0;" width="160" x="151" y="47"/><text fill="#000000" font-family="sans-serif" font-size="14" lengthAdjust="spacing" textLength="140" x="161" y="69.9951">Backend Service #1</text></g><!--entity platform__application__backend_service_2--><g id="elem_platform__application__backend_service_2"><rect fill="#ADD8E6" height="36.2969" rx="2.5" ry="2.5" style="stroke:#181818;stroke-width:0.5;" width="160" x="394" y="9"/><text fill="#000000" font-family="sans-serif" font-size="14" lengthAdjust="spacing" textLength="140" x="404" y="31.9951">Backend Service #2</text></g><g id="elem_GMN5"><path d="M647,6 L647,22.36 L554.04,26.71 L647,30.36 L647,46.2656 A0,0 0 0 0 647,46.2656 L844,46.2656 A0,0 0 0 0 844,46.2656 L844,16 L834,6 L647,6 A0,0 0 0 0 647,6 " fill="#FEFFDD" style="stroke:#181818;stroke-width:0.5;"/><path d="M834,6 L834,16 L844,16 L834,6 " fill="#FEFFDD" style="stroke:#181818;stroke-width:0.5;"/><text fill="#000000" font-family="sans-serif" font-size="13" font-weight="bold" lengthAdjust="spacing" textLength="121" x="653" y="23.0669">HTTP Endpoints:</text><text fill="#000000" font-family="monospace" font-size="13" lengthAdjust="spacing" textLength="176" x="653" y="38.1997">GET&#160;/bookings/{userId}</text></g><!--entity platform__external_service_1--><g id="elem_platform__external_service_1"><rect fill="#FFE4B5" height="36.2969" rx="2.5" ry="2.5" style="stroke:#181818;stroke-width:0.5;" width="154" x="397" y="82"/><text fill="#000000" font-family="sans-serif" font-size="14" lengthAdjust="spacing" textLength="134" x="407" y="104.9951">External Service #1</text></g><g id="elem_GMN9"><path d="M615,81 L615,96.52 L551.15,100.28 L615,104.52 L615,121.2656 A0,0 0 0 0 615,121.2656 L876,121.2656 A0,0 0 0 0 876,121.2656 L876,91 L866,81 L615,81 A0,0 0 0 0 615,81 " fill="#FEFFDD" style="stroke:#181818;stroke-width:0.5;"/><path d="M866,81 L866,91 L876,91 L866,81 " fill="#FEFFDD" style="stroke:#181818;stroke-width:0.5;"/><text fill="#000000" font-family="sans-serif" font-size="13" font-weight="bold" lengthAdjust="spacing" textLength="121" x="621" y="98.0669">HTTP Endpoints:</text><text fill="#000000" font-family="monospace" font-size="13" lengthAdjust="spacing" textLength="240" x="621" y="113.1997">GET&#160;/invoices/{userId}/{state}</text></g><!--link platform__application__frontend to platform__application__backend_service_1--><g id="link_platform__application__frontend_platform__application__backend_service_1"><path d="M90.01,65 C107.99,65 123.8,65 144.8,65 " fill="none" id="platform__application__frontend-to-platform__application__backend_service_1" style="stroke:#181818;stroke-width:1.0;"/><polygon fill="#181818" points="150.8,65,141.8,61,145.8,65,141.8,69,150.8,65" style="stroke:#181818;stroke-width:1.0;"/></g><!--link platform__application__backend_service_1 to platform__external_service_1--><g id="link_platform__application__backend_service_1_platform__external_service_1"><path d="M293.24,83 C308.7,86.92 325.36,90.6 341,93 C359.03,95.77 372.6099,97.1449 391.0099,98.2049 " fill="none" id="platform__application__backend_service_1-to-platform__external_service_1" style="stroke:#181818;stroke-width:1.0;"/><polygon fill="#181818" points="397,98.55,388.245,94.039,392.0083,98.2624,387.7848,102.0258,397,98.55" style="stroke:#181818;stroke-width:1.0;"/><text fill="#000000" font-family="sans-serif" font-size="13" lengthAdjust="spacing" textLength="21" x="342" y="89.0669">JWT</text></g><!--link platform__application__backend_service_1 to platform__application__backend_service_2--><g id="link_platform__application__backend_service_1_platform__application__backend_service_2"><path d="M311.25,52.5 C337.72,48.33 361.2933,44.6152 387.7833,40.4352 " fill="none" id="platform__application__backend_service_1-to-platform__application__backend_service_2" style="stroke:#181818;stroke-width:1.0;"/><polygon fill="#181818" points="393.71,39.5,384.1965,36.9517,388.7711,40.2793,385.4435,44.8539,393.71,39.5" style="stroke:#181818;stroke-width:1.0;"/><text fill="#000000" font-family="sans-serif" font-size="13" lengthAdjust="spacing" textLength="21" x="342" y="41.0669">JWT</text></g><rect fill="none" height="62.8906" id="_legend" rx="7.5" ry="7.5" style="stroke:#FFFFFF;stroke-width:1.0;" width="159" x="12" y="139.2656"/><text fill="#000000" font-family="sans-serif" font-size="14" lengthAdjust="spacing" textLength="36" x="21" y="159.2607">Color</text><text fill="#000000" font-family="sans-serif" font-size="14" lengthAdjust="spacing" textLength="91" x="65" y="159.2607">Belongs to ...</text><rect fill="#ADD8E6" height="16.2969" style="stroke:none;stroke-width:1.0;" width="44" x="17" y="162.5625"/><text fill="#000000" font-family="sans-serif" font-size="14" lengthAdjust="spacing" textLength="4" x="17" y="175.5576">&#160;</text><text fill="#000000" font-family="sans-serif" font-size="14" lengthAdjust="spacing" textLength="101" x="65" y="175.5576">our application</text><rect fill="#FFE4B5" height="16.2969" style="stroke:none;stroke-width:1.0;" width="44" x="17" y="178.8594"/><text fill="#000000" font-family="sans-serif" font-size="14" lengthAdjust="spacing" textLength="4" x="17" y="191.8545">&#160;</text><text fill="#000000" font-family="sans-serif" font-size="14" lengthAdjust="spacing" textLength="98" x="65" y="191.8545">same platform</text><line style="stroke:#000000;stroke-width:1.0;" x1="17" x2="166" y1="146.2656" y2="146.2656"/><line style="stroke:#000000;stroke-width:1.0;" x1="17" x2="166" y1="162.5625" y2="162.5625"/><line style="stroke:#000000;stroke-width:1.0;" x1="17" x2="166" y1="178.8594" y2="178.8594"/><line style="stroke:#000000;stroke-width:1.0;" x1="17" x2="166" y1="195.1563" y2="195.1563"/><line style="stroke:#000000;stroke-width:1.0;" x1="17" x2="17" y1="146.2656" y2="195.1563"/><line style="stroke:#000000;stroke-width:1.0;" x1="61" x2="61" y1="146.2656" y2="195.1563"/><line style="stroke:#000000;stroke-width:1.0;" x1="166" x2="166" y1="146.2656" y2="195.1563"/></g></svg>