<?xml version="1.0" encoding="us-ascii" standalone="no"?><svg xmlns="http://www.w3.org/2000/svg" xmlns:xlink="http://www.w3.org/1999/xlink" contentStyleType="text/css" height="128px" preserveAspectRatio="none" style="width:732px;height:128px;background:#FFFFFF;" version="1.1" viewBox="0 0 732 128" width="732px" zoomAndPan="magnify"><defs/><g><!--entity platform__application__frontend--><g id="elem_platform__application__frontend"><rect fill="#D3D3D3" height="36.2969" rx="2.5" ry="2.5" style="stroke:#181818;stroke-width:0.5;" width="83" x="7" y="47"/><text fill="#000000" font-family="sans-serif" font-size="14" lengthAdjust="spacing" textLength="63" x="17" y="69.9951">Frontend</text></g><!--entity platform__application__backend_service_1--><g id="elem_platform__application__backend_service_1"><rect fill="#87CEEB" height="36.2969" rx="2.5" ry="2.5" style="stroke:#181818;stroke-width:2.0;" width="160" x="151" y="47"/><text fill="#000000" font-family="sans-serif" font-size="14" lengthAdjust="spacing" textLength="140" x="161" y="69.9951">Backend Service #1</text></g><!--entity platform__application__backend_service_2--><g id="elem_platform__application__backend_service_2"><rect fill="#ADD8E6" height="36.2969" rx="2.5" ry="2.5" style="stroke:#181818;stroke-width:0.5;" width="160" x="380" y="9"/><text fill="#000000" font-family="sans-serif" font-size="14" lengthAdjust="spacing" textLength="140" x="390" y="31.9951">Backend Service #2</text></g><g id="elem_GMN5"><path d="M601,6 L601,22.3 L540.15,26.61 L601,30.3 L601,46.2656 A0,0 0 0 0 601,46.2656 L725,46.2656 A0,0 0 0 0 725,46.2656 L725,16 L715,6 L601,6 A0,0 0 0 0 601,6 " fill="#FEFFDD" style="stroke:#181818;stroke-width:0.5;"/><path d="M715,6 L715,16 L725,16 L715,6 " fill="#FEFFDD" style="stroke:#181818;stroke-width:0.5;"/><text fill="#000000" font-family="sans-serif" font-size="13" lengthAdjust="spacing" textLength="103" x="607" y="23.0669">HTTP Endpoints:</text><text fill="#000000" font-family="sans-serif" font-size="13" lengthAdjust="spacing" textLength="85" x="607" y="38.1997">GET /bar/{id}</text></g><!--entity platform__external_service_1--><g id="elem_platform__external_service_1"><rect fill="#FFE4B5" height="36.2969" rx="2.5" ry="2.5" style="stroke:#181818;stroke-width:0.5;" width="154" x="383" y="82"/><text fill="#000000" font-family="sans-serif" font-size="14" lengthAdjust="spacing" textLength="134" x="393" y="104.9951">External Service #1</text></g><g id="elem_GMN9"><path d="M601,81 L601,96.7 L537.28,100.38 L601,104.7 L601,121.2656 A0,0 0 0 0 601,121.2656 L725,121.2656 A0,0 0 0 0 725,121.2656 L725,91 L715,81 L601,81 A0,0 0 0 0 601,81 " fill="#FEFFDD" style="stroke:#181818;stroke-width:0.5;"/><path d="M715,81 L715,91 L725,91 L715,81 " fill="#FEFFDD" style="stroke:#181818;stroke-width:0.5;"/><text fill="#000000" font-family="sans-serif" font-size="13" lengthAdjust="spacing" textLength="103" x="607" y="98.0669">HTTP Endpoints:</text><text fill="#000000" font-family="sans-serif" font-size="13" lengthAdjust="spacing" textLength="84" x="607" y="113.1997">GET /foo/{id}</text></g><!--link platform__application__frontend to platform__application__backend_service_1--><g id="link_platform__application__frontend_platform__application__backend_service_1"><path d="M90.01,65 C107.99,65 123.8,65 144.8,65 " fill="none" id="platform__application__frontend-to-platform__application__backend_service_1" style="stroke:#181818;stroke-width:1.0;"/><polygon fill="#181818" points="150.8,65,141.8,61,145.8,65,141.8,69,150.8,65" style="stroke:#181818;stroke-width:1.0;"/></g><!--link platform__application__backend_service_1 to platform__external_service_1--><g id="link_platform__application__backend_service_1_platform__external_service_1"><path d="M293.54,83 C308.92,86.89 325.46,90.57 341,93 C354.48,95.11 362.9365,96.1552 376.9265,97.1952 " fill="none" id="platform__application__backend_service_1-to-platform__external_service_1" style="stroke:#181818;stroke-width:1.0;"/><polygon fill="#181818" points="382.91,97.64,374.2313,92.9838,377.9238,97.2693,373.6382,100.9618,382.91,97.64" style="stroke:#181818;stroke-width:1.0;"/><text fill="#000000" font-family="sans-serif" font-size="13" lengthAdjust="spacing" textLength="7" x="342" y="89.0669">?</text></g><!--link platform__application__backend_service_1 to platform__application__backend_service_2--><g id="link_platform__application__backend_service_1_platform__application__backend_service_2"><path d="M311.07,51.76 C333.34,48.04 351.6324,44.9711 373.9024,41.2411 " fill="none" id="platform__application__backend_service_1-to-platform__application__backend_service_2" style="stroke:#181818;stroke-width:1.0;"/><polygon fill="#181818" points="379.82,40.25,370.2829,37.7917,374.8887,41.0759,371.6044,45.6817,379.82,40.25" style="stroke:#181818;stroke-width:1.0;"/><text fill="#000000" font-family="sans-serif" font-size="13" lengthAdjust="spacing" textLength="7" x="342" y="42.0669">?</text></g></g></svg>