<?xml version="1.0" encoding="us-ascii" standalone="no"?><svg xmlns="http://www.w3.org/2000/svg" xmlns:xlink="http://www.w3.org/1999/xlink" contentStyleType="text/css" height="128px" preserveAspectRatio="none" style="width:883px;height:128px;background:#FFFFFF;" version="1.1" viewBox="0 0 883 128" width="883px" zoomAndPan="magnify"><defs/><g><!--entity frontend--><g id="elem_frontend"><rect fill="#D3D3D3" height="36.2969" rx="2.5" ry="2.5" style="stroke:#181818;stroke-width:0.5;" width="83" x="7" y="47"/><text fill="#000000" font-family="sans-serif" font-size="14" lengthAdjust="spacing" textLength="63" x="17" y="69.9951">Frontend</text></g><!--entity backend_service_1--><g id="elem_backend_service_1"><rect fill="#87CEEB" height="36.2969" rx="2.5" ry="2.5" style="stroke:#181818;stroke-width:2.0;" width="160" x="151" y="47"/><text fill="#000000" font-family="sans-serif" font-size="14" lengthAdjust="spacing" textLength="140" x="161" y="69.9951">Backend Service #1</text></g><!--entity external_service_1--><g id="elem_external_service_1"><rect fill="#FFE4B5" height="36.2969" rx="2.5" ry="2.5" style="stroke:#181818;stroke-width:0.5;" width="154" x="397" y="9"/><text fill="#000000" font-family="sans-serif" font-size="14" lengthAdjust="spacing" textLength="134" x="407" y="31.9951">External Service #1</text></g><!--entity backend_service_2--><g id="elem_backend_service_2"><rect fill="#ADD8E6" height="36.2969" rx="2.5" ry="2.5" style="stroke:#181818;stroke-width:0.5;" width="160" x="394" y="82"/><text fill="#000000" font-family="sans-serif" font-size="14" lengthAdjust="spacing" textLength="140" x="404" y="104.9951">Backend Service #2</text></g><g id="elem_GMN6"><path d="M615,6 L615,22.48 L551.15,26.72 L615,30.48 L615,46.2656 A0,0 0 0 0 615,46.2656 L876,46.2656 A0,0 0 0 0 876,46.2656 L876,16 L866,6 L615,6 A0,0 0 0 0 615,6 " fill="#FEFFDD" style="stroke:#181818;stroke-width:0.5;"/><path d="M866,6 L866,16 L876,16 L866,6 " fill="#FEFFDD" style="stroke:#181818;stroke-width:0.5;"/><text fill="#000000" font-family="sans-serif" font-size="13" font-weight="bold" lengthAdjust="spacing" textLength="121" x="621" y="23.0669">HTTP Endpoints:</text><text fill="#000000" font-family="monospace" font-size="13" lengthAdjust="spacing" textLength="240" x="621" y="38.1997">GET&#160;/invoices/{userId}/{state}</text></g><g id="elem_GMN9"><path d="M647,81 L647,96.64 L554.04,100.29 L647,104.64 L647,121.2656 A0,0 0 0 0 647,121.2656 L844,121.2656 A0,0 0 0 0 844,121.2656 L844,91 L834,81 L647,81 A0,0 0 0 0 647,81 " fill="#FEFFDD" style="stroke:#181818;stroke-width:0.5;"/><path d="M834,81 L834,91 L844,91 L834,81 " fill="#FEFFDD" style="stroke:#181818;stroke-width:0.5;"/><text fill="#000000" font-family="sans-serif" font-size="13" font-weight="bold" lengthAdjust="spacing" textLength="121" x="653" y="98.0669">HTTP Endpoints:</text><text fill="#000000" font-family="monospace" font-size="13" lengthAdjust="spacing" textLength="176" x="653" y="113.1997">GET&#160;/bookings/{userId}</text></g><!--link frontend to backend_service_1--><g id="link_frontend_backend_service_1"><path d="M90.01,65 C107.99,65 123.8,65 144.8,65 " fill="none" id="frontend-to-backend_service_1" style="stroke:#181818;stroke-width:1.0;"/><polygon fill="#181818" points="150.8,65,141.8,61,145.8,65,141.8,69,150.8,65" style="stroke:#181818;stroke-width:1.0;"/></g><!--link backend_service_1 to external_service_1--><g id="link_backend_service_1_external_service_1"><path d="M311.25,52.5 C338.82,48.16 363.7531,44.2235 391.0531,39.9235 " fill="none" id="backend_service_1-to-external_service_1" style="stroke:#181818;stroke-width:1.0;"/><polygon fill="#181818" points="396.98,38.99,387.4672,36.439,392.0409,39.768,388.712,44.3416,396.98,38.99" style="stroke:#181818;stroke-width:1.0;"/><text fill="#000000" font-family="sans-serif" font-size="13" lengthAdjust="spacing" textLength="21" x="342" y="41.0669">JWT</text></g><!--link backend_service_1 to backend_service_2--><g id="link_backend_service_1_backend_service_2"><path d="M293.24,83 C308.7,86.92 325.36,90.6 341,93 C358.01,95.61 370.4012,96.9232 387.8712,97.9932 " fill="none" id="backend_service_1-to-backend_service_2" style="stroke:#181818;stroke-width:1.0;"/><polygon fill="#181818" points="393.86,98.36,385.1214,93.8173,388.8694,98.0543,384.6323,101.8023,393.86,98.36" style="stroke:#181818;stroke-width:1.0;"/><text fill="#000000" font-family="sans-serif" font-size="13" lengthAdjust="spacing" textLength="21" x="342" y="89.0669">JWT</text></g></g></svg>