<?xml version="1.0" encoding="us-ascii" standalone="no"?><svg xmlns="http://www.w3.org/2000/svg" xmlns:xlink="http://www.w3.org/1999/xlink" contentStyleType="text/css" height="253px" preserveAspectRatio="none" style="width:922px;height:253px;background:#FFFFFF;" version="1.1" viewBox="0 0 922 253" width="922px" zoomAndPan="magnify"><defs/><g><!--entity platform__application__backend_service_1--><g id="elem_platform__application__backend_service_1"><rect fill="#D3D3D3" height="36.2969" rx="2.5" ry="2.5" style="stroke:#181818;stroke-width:0.5;" width="160" x="7" y="60.5"/><text fill="#000000" font-family="sans-serif" font-size="14" lengthAdjust="spacing" textLength="140" x="17" y="83.4951">Backend Service #1</text></g><!--entity platform__application__backend_service_2--><g id="elem_platform__application__backend_service_2"><rect fill="#87CEEB" height="36.2969" rx="2.5" ry="2.5" style="stroke:#181818;stroke-width:2.0;" width="160" x="228" y="60.5"/><text fill="#000000" font-family="sans-serif" font-size="14" lengthAdjust="spacing" textLength="140" x="238" y="83.4951">Backend Service #2</text></g><!--entity platform__external_service_2--><g id="elem_platform__external_service_2"><rect fill="#FFE4B5" height="36.2969" rx="2.5" ry="2.5" style="stroke:#181818;stroke-width:0.5;" width="154" x="519" y="18.5"/><text fill="#000000" font-family="sans-serif" font-size="14" lengthAdjust="spacing" textLength="134" x="529" y="41.4951">External Service #2</text></g><g id="elem_GMN5"><path d="M734,6 L734,30.69 L673.05,35.49 L734,38.69 L734,61.3984 A0,0 0 0 0 734,61.3984 L915,61.3984 A0,0 0 0 0 915,61.3984 L915,16 L905,6 L734,6 A0,0 0 0 0 734,6 " fill="#FEFFDD" style="stroke:#181818;stroke-width:0.5;"/><path d="M905,6 L905,16 L915,16 L905,6 " fill="#FEFFDD" style="stroke:#181818;stroke-width:0.5;"/><text fill="#000000" font-family="sans-serif" font-size="13" font-weight="bold" lengthAdjust="spacing" textLength="121" x="740" y="23.0669">HTTP Endpoints:</text><text fill="#000000" font-family="monospace" font-size="13" lengthAdjust="spacing" textLength="88" x="740" y="38.1997">POST&#160;/users</text><text fill="#000000" font-family="monospace" font-size="13" lengthAdjust="spacing" textLength="160" x="740" y="53.3325">GET&#160;&#160;/users/{userId}</text></g><!--entity other_project__external_service_3--><g id="elem_other_project__external_service_3"><rect fill="#F08080" height="36.2969" rx="2.5" ry="2.5" style="stroke:#181818;stroke-width:0.5;" width="154" x="519" y="95.5"/><text fill="#000000" font-family="sans-serif" font-size="14" lengthAdjust="spacing" textLength="134" x="529" y="118.4951">External Service #3</text></g><g id="elem_GMN9"><path d="M753.5,96.5 L753.5,111.57 L673.05,114.51 L753.5,119.57 L753.5,136.7656 A0,0 0 0 0 753.5,136.7656 L895.5,136.7656 A0,0 0 0 0 895.5,136.7656 L895.5,106.5 L885.5,96.5 L753.5,96.5 A0,0 0 0 0 753.5,96.5 " fill="#FEFFDD" style="stroke:#181818;stroke-width:0.5;"/><path d="M885.5,96.5 L885.5,106.5 L895.5,106.5 L885.5,96.5 " fill="#FEFFDD" style="stroke:#181818;stroke-width:0.5;"/><text fill="#000000" font-family="sans-serif" font-size="13" font-weight="bold" lengthAdjust="spacing" textLength="121" x="759.5" y="113.5669">HTTP Endpoints:</text><text fill="#000000" font-family="monospace" font-size="13" lengthAdjust="spacing" textLength="104" x="759.5" y="128.6997">GET&#160;/bookings</text></g><!--link platform__application__backend_service_1 to platform__application__backend_service_2--><g id="link_platform__application__backend_service_1_platform__application__backend_service_2"><path d="M167.06,78.5 C186.79,78.5 201.95,78.5 221.68,78.5 " fill="none" id="platform__application__backend_service_1-to-platform__application__backend_service_2" style="stroke:#181818;stroke-width:1.0;"/><polygon fill="#181818" points="227.68,78.5,218.68,74.5,222.68,78.5,218.68,82.5,227.68,78.5" style="stroke:#181818;stroke-width:1.0;"/></g><!--link platform__application__backend_service_2 to platform__external_service_2--><g id="link_platform__application__backend_service_2_platform__external_service_2"><path d="M388.29,66.86 C428.95,60.88 472.3236,54.5114 512.5836,48.6014 " fill="none" id="platform__application__backend_service_2-to-platform__external_service_2" style="stroke:#181818;stroke-width:1.0;"/><polygon fill="#181818" points="518.52,47.73,509.0345,45.0796,513.573,48.4562,510.1964,52.9947,518.52,47.73" style="stroke:#181818;stroke-width:1.0;"/><text fill="#000000" font-family="sans-serif" font-size="13" lengthAdjust="spacing" textLength="21" x="443" y="49.5669">JWT</text></g><!--link platform__application__backend_service_2 to other_project__external_service_3--><g id="link_platform__application__backend_service_2_other_project__external_service_3"><path d="M369.64,96.5 C385.27,100.47 402.15,104.18 418,106.5 C450.86,111.32 481.5015,113.1762 512.8815,113.8762 " fill="none" id="platform__application__backend_service_2-to-other_project__external_service_3" style="stroke:#181818;stroke-width:1.0;"/><polygon fill="#181818" points="518.88,114.01,509.9714,109.8103,513.8812,113.8985,509.793,117.8083,518.88,114.01" style="stroke:#181818;stroke-width:1.0;"/><text fill="#000000" font-family="sans-serif" font-size="13" lengthAdjust="spacing" textLength="69" x="419" y="102.5669">Basic-Auth</text></g><rect fill="none" height="79.1875" id="_legend" rx="7.5" ry="7.5" style="stroke:#FFFFFF;stroke-width:1.0;" width="159" x="12" y="154.7656"/><text fill="#000000" font-family="sans-serif" font-size="14" lengthAdjust="spacing" textLength="36" x="21" y="174.7607">Color</text><text fill="#000000" font-family="sans-serif" font-size="14" lengthAdjust="spacing" textLength="91" x="65" y="174.7607">Belongs to ...</text><rect fill="#ADD8E6" height="16.2969" style="stroke:none;stroke-width:1.0;" width="44" x="17" y="178.0625"/><text fill="#000000" font-family="sans-serif" font-size="14" lengthAdjust="spacing" textLength="4" x="17" y="191.0576">&#160;</text><text fill="#000000" font-family="sans-serif" font-size="14" lengthAdjust="spacing" textLength="101" x="65" y="191.0576">our application</text><rect fill="#FFE4B5" height="16.2969" style="stroke:none;stroke-width:1.0;" width="44" x="17" y="194.3594"/><text fill="#000000" font-family="sans-serif" font-size="14" lengthAdjust="spacing" textLength="4" x="17" y="207.3545">&#160;</text><text fill="#000000" font-family="sans-serif" font-size="14" lengthAdjust="spacing" textLength="98" x="65" y="207.3545">same platform</text><rect fill="#F08080" height="16.2969" style="stroke:none;stroke-width:1.0;" width="44" x="17" y="210.6563"/><text fill="#000000" font-family="sans-serif" font-size="14" lengthAdjust="spacing" textLength="4" x="17" y="223.6514">&#160;</text><text fill="#000000" font-family="sans-serif" font-size="14" lengthAdjust="spacing" textLength="89" x="65" y="223.6514">other project</text><line style="stroke:#000000;stroke-width:1.0;" x1="17" x2="166" y1="161.7656" y2="161.7656"/><line style="stroke:#000000;stroke-width:1.0;" x1="17" x2="166" y1="178.0625" y2="178.0625"/><line style="stroke:#000000;stroke-width:1.0;" x1="17" x2="166" y1="194.3594" y2="194.3594"/><line style="stroke:#000000;stroke-width:1.0;" x1="17" x2="166" y1="210.6563" y2="210.6563"/><line style="stroke:#000000;stroke-width:1.0;" x1="17" x2="166" y1="226.9531" y2="226.9531"/><line style="stroke:#000000;stroke-width:1.0;" x1="17" x2="17" y1="161.7656" y2="226.9531"/><line style="stroke:#000000;stroke-width:1.0;" x1="61" x2="61" y1="161.7656" y2="226.9531"/><line style="stroke:#000000;stroke-width:1.0;" x1="166" x2="166" y1="161.7656" y2="226.9531"/></g></svg>