<?xml version="1.0" encoding="us-ascii" standalone="no"?><svg xmlns="http://www.w3.org/2000/svg" xmlns:xlink="http://www.w3.org/1999/xlink" contentStyleType="text/css" height="260px" preserveAspectRatio="none" style="width:1134px;height:260px;background:#FFFFFF;" version="1.1" viewBox="0 0 1134 260" width="1134px" zoomAndPan="magnify"><defs/><g><!--entity platform__application__frontend--><g id="elem_platform__application__frontend"><rect fill="#87CEEB" height="72.5938" rx="5" ry="5" style="stroke:#181818;stroke-width:4.0;" width="166" x="14" y="16"/><text fill="#000000" font-family="sans-serif" font-size="28" lengthAdjust="spacing" textLength="126" x="34" y="61.9902">Frontend</text></g><!--entity platform__application__order_service--><g id="elem_platform__application__order_service"><rect fill="#ADD8E6" height="72.5938" rx="5" ry="5" style="stroke:#181818;stroke-width:1.0;" width="226" x="346" y="16"/><text fill="#000000" font-family="sans-serif" font-size="28" lengthAdjust="spacing" textLength="186" x="366" y="61.9902">Order Service</text></g><g id="elem_GMN4"><path d="M694,12 L694,44 L572.46,52 L694,60 L694,92.5313 A0,0 0 0 0 694,92.5313 L1120,92.5313 A0,0 0 0 0 1120,92.5313 L1120,32 L1100,12 L694,12 A0,0 0 0 0 694,12 " fill="#FEFFDD" style="stroke:#181818;stroke-width:1.0;"/><path d="M1100,12 L1100,32 L1120,32 L1100,12 " fill="#FEFFDD" style="stroke:#181818;stroke-width:1.0;"/><text fill="#000000" font-family="sans-serif" font-size="26" font-weight="bold" lengthAdjust="spacing" textLength="242" x="706" y="46.1338">HTTP Endpoints:</text><text fill="#000000" font-family="monospace" font-size="26" lengthAdjust="spacing" textLength="384" x="706" y="76.3994">DELETE&#160;/orders/{orderId}</text></g><!--link platform__application__frontend to platform__application__order_service--><g id="link_platform__application__frontend_platform__application__order_service"><path d="M180.24,52 C229.12,52 280.06,52 333.56,52 " fill="none" id="platform__application__frontend-to-platform__application__order_service" style="stroke:#181818;stroke-width:2.0;"/><polygon fill="#181818" points="345.56,52,327.56,44,335.56,52,327.56,60,345.56,52" style="stroke:#181818;stroke-width:2.0;"/><text fill="#000000" font-family="sans-serif" font-size="26" lengthAdjust="spacing" textLength="42" x="242" y="44.1338">JWT</text></g><rect fill="none" height="93.1875" id="_legend" rx="15" ry="15" style="stroke:#FFFFFF;stroke-width:2.0;" width="346" x="24" y="128.5313"/><text fill="#000000" font-family="sans-serif" font-size="28" lengthAdjust="spacing" textLength="72" x="42" y="168.5215">Color</text><text fill="#000000" font-family="sans-serif" font-size="28" lengthAdjust="spacing" textLength="182" x="130" y="168.5215">Belongs to ...</text><rect fill="#ADD8E6" height="32.5938" style="stroke:none;stroke-width:2.0;" width="88" x="34" y="175.125"/><text fill="#000000" font-family="sans-serif" font-size="28" lengthAdjust="spacing" textLength="8" x="34" y="201.1152">&#160;</text><text fill="#000000" font-family="sans-serif" font-size="28" lengthAdjust="spacing" textLength="230" x="130" y="201.1152">our components</text><line style="stroke:#000000;stroke-width:2.0;" x1="34" x2="360" y1="142.5313" y2="142.5313"/><line style="stroke:#000000;stroke-width:2.0;" x1="34" x2="360" y1="175.125" y2="175.125"/><line style="stroke:#000000;stroke-width:2.0;" x1="34" x2="360" y1="207.7188" y2="207.7188"/><line style="stroke:#000000;stroke-width:2.0;" x1="34" x2="34" y1="142.5313" y2="207.7188"/><line style="stroke:#000000;stroke-width:2.0;" x1="122" x2="122" y1="142.5313" y2="207.7188"/><line style="stroke:#000000;stroke-width:2.0;" x1="360" x2="360" y1="142.5313" y2="207.7188"/></g></svg>