<?xml version="1.0" encoding="us-ascii" standalone="no"?><svg xmlns="http://www.w3.org/2000/svg" xmlns:xlink="http://www.w3.org/1999/xlink" contentStyleType="text/css" height="312px" preserveAspectRatio="none" style="width:1066px;height:312px;background:#FFFFFF;" version="1.1" viewBox="0 0 1066 312" width="1066px" zoomAndPan="magnify"><defs/><g><!--entity application__team__frontend--><g id="elem_application__team__frontend"><rect fill="#ADD8E6" height="36.2969" rx="2.5" ry="2.5" style="stroke:#181818;stroke-width:0.5;" width="83" x="7" y="98.5"/><text fill="#000000" font-family="sans-serif" font-size="14" lengthAdjust="spacing" textLength="63" x="17" y="121.4951">Frontend</text></g><!--entity application__team__order_service--><g id="elem_application__team__order_service"><rect fill="#87CEEB" height="36.2969" rx="2.5" ry="2.5" style="stroke:#181818;stroke-width:2.0;" width="113" x="151" y="98.5"/><text fill="#000000" font-family="sans-serif" font-size="14" lengthAdjust="spacing" textLength="93" x="161" y="121.4951">Order Service</text></g><!--entity application__team__inventory_service--><g id="elem_application__team__inventory_service"><rect fill="#ADD8E6" height="36.2969" rx="2.5" ry="2.5" style="stroke:#181818;stroke-width:0.5;" width="137" x="353.5" y="21.5"/><text fill="#000000" font-family="sans-serif" font-size="14" lengthAdjust="spacing" textLength="117" x="363.5" y="44.4951">Inventory Service</text></g><g id="elem_GMN5"><path d="M658,6 L658,31.84 L490.86,38.44 L658,39.84 L658,61.3984 A0,0 0 0 0 658,61.3984 L959,61.3984 A0,0 0 0 0 959,61.3984 L959,16 L949,6 L658,6 A0,0 0 0 0 658,6 " fill="#FEFFDD" style="stroke:#181818;stroke-width:0.5;"/><path d="M949,6 L949,16 L959,16 L949,6 " fill="#FEFFDD" style="stroke:#181818;stroke-width:0.5;"/><text fill="#000000" font-family="sans-serif" font-size="13" font-weight="bold" lengthAdjust="spacing" textLength="121" x="664" y="23.0669">HTTP Endpoints:</text><text fill="#000000" font-family="monospace" font-size="13" lengthAdjust="spacing" textLength="216" x="664" y="38.1997">GET&#160;&#160;/inventory/{productId}</text><text fill="#000000" font-family="monospace" font-size="13" lengthAdjust="spacing" textLength="280" x="664" y="53.3325">POST&#160;/inventory/{productId}/reserve</text></g><!--entity application__notification_service--><g id="elem_application__notification_service"><rect fill="#FFE4B5" height="36.2969" rx="2.5" ry="2.5" style="stroke:#181818;stroke-width:0.5;" width="150" x="347" y="98.5"/><text fill="#000000" font-family="sans-serif" font-size="14" lengthAdjust="spacing" textLength="130" x="357" y="121.4951">Notification Service</text></g><!--entity application__payment_service--><g id="elem_application__payment_service"><rect fill="#FFE4B5" height="36.2969" rx="2.5" ry="2.5" style="stroke:#181818;stroke-width:0.5;" width="134" x="355" y="171.5"/><text fill="#000000" font-family="sans-serif" font-size="14" lengthAdjust="spacing" textLength="114" x="365" y="194.4951">Payment Service</text></g><g id="elem_GMN10"><path d="M558,96.5 L558,112.5 L497.14,116.5 L558,120.5 L558,136.7656 A0,0 0 0 0 558,136.7656 L1059,136.7656 A0,0 0 0 0 1059,136.7656 L1059,106.5 L1049,96.5 L558,96.5 A0,0 0 0 0 558,96.5 " fill="#FEFFDD" style="stroke:#181818;stroke-width:0.5;"/><path d="M1049,96.5 L1049,106.5 L1059,106.5 L1049,96.5 " fill="#FEFFDD" style="stroke:#181818;stroke-width:0.5;"/><text fill="#000000" font-family="sans-serif" font-size="13" font-weight="bold" lengthAdjust="spacing" textLength="121" x="564" y="113.5669">HTTP Endpoints:</text><text fill="#000000" font-family="monospace" font-size="13" lengthAdjust="spacing" textLength="480" x="564" y="128.6997">POST&#160;/notifications/customer/{customerId}/order-confirmation</text></g><g id="elem_GMN13"><path d="M737.5,171.5 L737.5,187.14 L489.1,189.84 L737.5,195.14 L737.5,211.7656 A0,0 0 0 0 737.5,211.7656 L879.5,211.7656 A0,0 0 0 0 879.5,211.7656 L879.5,181.5 L869.5,171.5 L737.5,171.5 A0,0 0 0 0 737.5,171.5 " fill="#FEFFDD" style="stroke:#181818;stroke-width:0.5;"/><path d="M869.5,171.5 L869.5,181.5 L879.5,181.5 L869.5,171.5 " fill="#FEFFDD" style="stroke:#181818;stroke-width:0.5;"/><text fill="#000000" font-family="sans-serif" font-size="13" font-weight="bold" lengthAdjust="spacing" textLength="121" x="743.5" y="188.5669">HTTP Endpoints:</text><text fill="#000000" font-family="monospace" font-size="13" lengthAdjust="spacing" textLength="112" x="743.5" y="203.6997">POST&#160;/payments</text></g><!--link application__team__frontend to application__team__order_service--><g id="link_application__team__frontend_application__team__order_service"><path d="M90.34,116.5 C108.78,116.5 124.86,116.5 144.79,116.5 " fill="none" id="application__team__frontend-to-application__team__order_service" style="stroke:#181818;stroke-width:1.0;"/><polygon fill="#181818" points="150.79,116.5,141.79,112.5,145.79,116.5,141.79,120.5,150.79,116.5" style="stroke:#181818;stroke-width:1.0;"/></g><!--link application__team__order_service to application__notification_service--><g id="link_application__team__order_service_application__notification_service"><path d="M264.05,116.5 C289.39,116.5 313.74,116.5 340.97,116.5 " fill="none" id="application__team__order_service-to-application__notification_service" style="stroke:#181818;stroke-width:1.0;"/><polygon fill="#181818" points="346.97,116.5,337.97,112.5,341.97,116.5,337.97,120.5,346.97,116.5" style="stroke:#181818;stroke-width:1.0;"/><text fill="#000000" font-family="sans-serif" font-size="13" lengthAdjust="spacing" textLength="21" x="295" y="112.5669">JWT</text></g><!--link application__team__order_service to application__team__inventory_service--><g id="link_application__team__order_service_application__team__inventory_service"><path d="M258.32,98.45 C292.3,86.13 331.4891,71.9346 365.4791,59.6146 " fill="none" id="application__team__order_service-to-application__team__inventory_service" style="stroke:#181818;stroke-width:1.0;"/><polygon fill="#181818" points="371.12,57.57,361.2956,56.8763,366.4193,59.2738,364.0217,64.3975,371.12,57.57" style="stroke:#181818;stroke-width:1.0;"/><text fill="#000000" font-family="sans-serif" font-size="13" lengthAdjust="spacing" textLength="21" x="295" y="74.5669">JWT</text></g><!--link application__team__order_service to application__payment_service--><g id="link_application__team__order_service_application__payment_service"><path d="M261.03,134.54 C293.72,145.78 329.9455,158.2207 362.6655,169.4607 " fill="none" id="application__team__order_service-to-application__payment_service" style="stroke:#181818;stroke-width:1.0;"/><polygon fill="#181818" points="368.34,171.41,361.1278,164.703,363.6112,169.7856,358.5287,172.269,368.34,171.41" style="stroke:#181818;stroke-width:1.0;"/><text fill="#000000" font-family="sans-serif" font-size="13" lengthAdjust="spacing" textLength="21" x="295" y="142.5669">JWT</text></g><rect fill="none" height="62.8906" id="_legend" rx="7.5" ry="7.5" style="stroke:#FFFFFF;stroke-width:1.0;" width="174" x="12" y="229.7656"/><text fill="#000000" font-family="sans-serif" font-size="14" lengthAdjust="spacing" textLength="36" x="21" y="249.7607">Color</text><text fill="#000000" font-family="sans-serif" font-size="14" lengthAdjust="spacing" textLength="91" x="65" y="249.7607">Belongs to ...</text><rect fill="#ADD8E6" height="16.2969" style="stroke:none;stroke-width:1.0;" width="44" x="17" y="253.0625"/><text fill="#000000" font-family="sans-serif" font-size="14" lengthAdjust="spacing" textLength="4" x="17" y="266.0576">&#160;</text><text fill="#000000" font-family="sans-serif" font-size="14" lengthAdjust="spacing" textLength="115" x="65" y="266.0576">our components</text><rect fill="#FFE4B5" height="16.2969" style="stroke:none;stroke-width:1.0;" width="44" x="17" y="269.3594"/><text fill="#000000" font-family="sans-serif" font-size="14" lengthAdjust="spacing" textLength="4" x="17" y="282.3545">&#160;</text><text fill="#000000" font-family="sans-serif" font-size="14" lengthAdjust="spacing" textLength="116" x="65" y="282.3545">same application</text><line style="stroke:#000000;stroke-width:1.0;" x1="17" x2="181" y1="236.7656" y2="236.7656"/><line style="stroke:#000000;stroke-width:1.0;" x1="17" x2="181" y1="253.0625" y2="253.0625"/><line style="stroke:#000000;stroke-width:1.0;" x1="17" x2="181" y1="269.3594" y2="269.3594"/><line style="stroke:#000000;stroke-width:1.0;" x1="17" x2="181" y1="285.6563" y2="285.6563"/><line style="stroke:#000000;stroke-width:1.0;" x1="17" x2="17" y1="236.7656" y2="285.6563"/><line style="stroke:#000000;stroke-width:1.0;" x1="61" x2="61" y1="236.7656" y2="285.6563"/><line style="stroke:#000000;stroke-width:1.0;" x1="181" x2="181" y1="236.7656" y2="285.6563"/></g></svg>