<?xml version="1.0" encoding="us-ascii" standalone="no"?><svg xmlns="http://www.w3.org/2000/svg" xmlns:xlink="http://www.w3.org/1999/xlink" contentStyleType="text/css" height="474px" preserveAspectRatio="none" style="width:1706px;height:474px;background:#FFFFFF;" version="1.1" viewBox="0 0 1706 474" width="1706px" zoomAndPan="magnify"><defs/><g><!--entity platform__application__frontend--><g id="elem_platform__application__frontend"><rect fill="#D3D3D3" height="72.5938" rx="5" ry="5" style="stroke:#181818;stroke-width:1.0;" width="166" x="14" y="121"/><text fill="#000000" font-family="sans-serif" font-size="28" lengthAdjust="spacing" textLength="126" x="34" y="166.9902">Frontend</text></g><!--entity platform__application__order_service--><g id="elem_platform__application__order_service"><rect fill="#87CEEB" height="72.5938" rx="5" ry="5" style="stroke:#181818;stroke-width:4.0;" width="226" x="302" y="121"/><text fill="#000000" font-family="sans-serif" font-size="28" lengthAdjust="spacing" textLength="186" x="322" y="166.9902">Order Service</text></g><!--entity platform__application__inventory_service--><g id="elem_platform__application__inventory_service"><rect fill="#ADD8E6" height="72.5938" rx="5" ry="5" style="stroke:#181818;stroke-width:1.0;" width="274" x="694" y="37"/><text fill="#000000" font-family="sans-serif" font-size="28" lengthAdjust="spacing" textLength="234" x="714" y="82.9902">Inventory Service</text></g><g id="elem_GMN5"><path d="M1090,12 L1090,62.24 L968.3,71.54 L1090,78.24 L1090,122.7969 A0,0 0 0 0 1090,122.7969 L1692,122.7969 A0,0 0 0 0 1692,122.7969 L1692,32 L1672,12 L1090,12 A0,0 0 0 0 1090,12 " fill="#FEFFDD" style="stroke:#181818;stroke-width:1.0;"/><path d="M1672,12 L1672,32 L1692,32 L1672,12 " fill="#FEFFDD" style="stroke:#181818;stroke-width:1.0;"/><text fill="#000000" font-family="sans-serif" font-size="26" font-weight="bold" lengthAdjust="spacing" textLength="242" x="1102" y="46.1338">HTTP Endpoints:</text><text fill="#000000" font-family="monospace" font-size="26" lengthAdjust="spacing" textLength="432" x="1102" y="76.3994">GET&#160;&#160;/inventory/{productId}</text><text fill="#000000" font-family="monospace" font-size="26" lengthAdjust="spacing" textLength="560" x="1102" y="106.665">POST&#160;/inventory/{productId}/reserve</text></g><!--entity platform__payment_service--><g id="elem_platform__payment_service"><rect fill="#FFE4B5" height="72.5938" rx="5" ry="5" style="stroke:#181818;stroke-width:1.0;" width="268" x="697" y="191"/><text fill="#000000" font-family="sans-serif" font-size="28" lengthAdjust="spacing" textLength="228" x="717" y="236.9902">Payment Service</text></g><g id="elem_GMN9"><path d="M1249,193 L1249,223.48 L965.46,228.42 L1249,239.48 L1249,273.5313 A0,0 0 0 0 1249,273.5313 L1533,273.5313 A0,0 0 0 0 1533,273.5313 L1533,213 L1513,193 L1249,193 A0,0 0 0 0 1249,193 " fill="#FEFFDD" style="stroke:#181818;stroke-width:1.0;"/><path d="M1513,193 L1513,213 L1533,213 L1513,193 " fill="#FEFFDD" style="stroke:#181818;stroke-width:1.0;"/><text fill="#000000" font-family="sans-serif" font-size="26" font-weight="bold" lengthAdjust="spacing" textLength="242" x="1261" y="227.1338">HTTP Endpoints:</text><text fill="#000000" font-family="monospace" font-size="26" lengthAdjust="spacing" textLength="224" x="1261" y="257.3994">POST&#160;/payments</text></g><!--link platform__application__frontend to platform__application__order_service--><g id="link_platform__application__frontend_platform__application__order_service"><path d="M180.68,157 C217.56,157 249.72,157 289.58,157 " fill="none" id="platform__application__frontend-to-platform__application__order_service" style="stroke:#181818;stroke-width:2.0;"/><polygon fill="#181818" points="301.58,157,283.58,149,291.58,157,283.58,165,301.58,157" style="stroke:#181818;stroke-width:2.0;"/></g><!--link platform__application__order_service to platform__application__inventory_service--><g id="link_platform__application__order_service_platform__application__inventory_service"><path d="M528.5,134.26 C579.5,123.88 628.6017,113.8564 682.1817,102.9364 " fill="none" id="platform__application__order_service-to-platform__application__inventory_service" style="stroke:#181818;stroke-width:2.0;"/><polygon fill="#181818" points="693.94,100.54,674.705,96.2958,684.1414,102.537,677.9002,111.9735,693.94,100.54" style="stroke:#181818;stroke-width:2.0;"/><text fill="#000000" font-family="sans-serif" font-size="26" lengthAdjust="spacing" textLength="42" x="590" y="107.1338">JWT</text></g><!--link platform__application__order_service to platform__payment_service--><g id="link_platform__application__order_service_platform__payment_service"><path d="M512.62,193.12 C536.9,200.96 563.14,208.28 588,213 C623,219.64 649.3404,222.7001 684.9404,224.7801 " fill="none" id="platform__application__order_service-to-platform__payment_service" style="stroke:#181818;stroke-width:2.0;"/><polygon fill="#181818" points="696.92,225.48,679.4173,216.4437,686.937,224.8967,678.484,232.4165,696.92,225.48" style="stroke:#181818;stroke-width:2.0;"/><text fill="#000000" font-family="sans-serif" font-size="26" lengthAdjust="spacing" textLength="42" x="590" y="205.1338">JWT</text></g><rect fill="none" height="125.7813" id="_legend" rx="15" ry="15" style="stroke:#FFFFFF;stroke-width:2.0;" width="348" x="24" y="309.5313"/><text fill="#000000" font-family="sans-serif" font-size="28" lengthAdjust="spacing" textLength="72" x="42" y="349.5215">Color</text><text fill="#000000" font-family="sans-serif" font-size="28" lengthAdjust="spacing" textLength="182" x="130" y="349.5215">Belongs to ...</text><rect fill="#ADD8E6" height="32.5938" style="stroke:none;stroke-width:2.0;" width="88" x="34" y="356.125"/><text fill="#000000" font-family="sans-serif" font-size="28" lengthAdjust="spacing" textLength="8" x="34" y="382.1152">&#160;</text><text fill="#000000" font-family="sans-serif" font-size="28" lengthAdjust="spacing" textLength="230" x="130" y="382.1152">our components</text><rect fill="#FFE4B5" height="32.5938" style="stroke:none;stroke-width:2.0;" width="88" x="34" y="388.7188"/><text fill="#000000" font-family="sans-serif" font-size="28" lengthAdjust="spacing" textLength="8" x="34" y="414.709">&#160;</text><text fill="#000000" font-family="sans-serif" font-size="28" lengthAdjust="spacing" textLength="232" x="130" y="414.709">same application</text><line style="stroke:#000000;stroke-width:2.0;" x1="34" x2="362" y1="323.5313" y2="323.5313"/><line style="stroke:#000000;stroke-width:2.0;" x1="34" x2="362" y1="356.125" y2="356.125"/><line style="stroke:#000000;stroke-width:2.0;" x1="34" x2="362" y1="388.7188" y2="388.7188"/><line style="stroke:#000000;stroke-width:2.0;" x1="34" x2="362" y1="421.3125" y2="421.3125"/><line style="stroke:#000000;stroke-width:2.0;" x1="34" x2="34" y1="323.5313" y2="421.3125"/><line style="stroke:#000000;stroke-width:2.0;" x1="122" x2="122" y1="323.5313" y2="421.3125"/><line style="stroke:#000000;stroke-width:2.0;" x1="362" x2="362" y1="323.5313" y2="421.3125"/></g></svg>