<?xml version="1.0" encoding="us-ascii" standalone="no"?><svg xmlns="http://www.w3.org/2000/svg" xmlns:xlink="http://www.w3.org/1999/xlink" contentStyleType="text/css" height="175px" preserveAspectRatio="none" style="width:1141px;height:175px;background:#FFFFFF;" version="1.1" viewBox="0 0 1141 175" width="1141px" zoomAndPan="magnify"><defs/><g><!--entity frontend--><g id="elem_frontend"><rect fill="#D3D3D3" height="36.2969" rx="2.5" ry="2.5" style="stroke:#181818;stroke-width:0.5;" width="83" x="7" y="86.5"/><text fill="#000000" font-family="sans-serif" font-size="14" lengthAdjust="spacing" textLength="63" x="17" y="109.4951">Frontend</text></g><!--entity backend_service_1--><g id="elem_backend_service_1"><rect fill="#87CEEB" height="36.2969" rx="2.5" ry="2.5" style="stroke:#181818;stroke-width:2.0;" width="160" x="151" y="86.5"/><text fill="#000000" font-family="sans-serif" font-size="14" lengthAdjust="spacing" textLength="140" x="161" y="109.4951">Backend Service #1</text></g><!--entity external_service_1--><g id="elem_external_service_1"><rect fill="#FFE4B5" height="36.2969" rx="2.5" ry="2.5" style="stroke:#181818;stroke-width:0.5;" width="154" x="636.5" y="42.5"/><text fill="#000000" font-family="sans-serif" font-size="14" lengthAdjust="spacing" textLength="134" x="646.5" y="65.4951">External Service #1</text></g><!--entity backend_service_2--><g id="elem_backend_service_2"><rect fill="#ADD8E6" height="36.2969" rx="2.5" ry="2.5" style="stroke:#181818;stroke-width:0.5;" width="160" x="394" y="130.5"/><text fill="#000000" font-family="sans-serif" font-size="14" lengthAdjust="spacing" textLength="140" x="404" y="153.4951">Backend Service #2</text></g><!--entity backend_service_1_database--><g id="elem_backend_service_1_database"><path d="M189,16 C189,6 231,6 231,6 C231,6 273,6 273,16 L273,41.2969 C273,51.2969 231,51.2969 231,51.2969 C231,51.2969 189,51.2969 189,41.2969 L189,16 " fill="#F1F1F1" style="stroke:#181818;stroke-width:0.5;"/><path d="M189,16 C189,26 231,26 231,26 C231,26 273,26 273,16 " fill="none" style="stroke:#181818;stroke-width:0.5;"/><text fill="#000000" font-family="sans-serif" font-size="14" lengthAdjust="spacing" textLength="64" x="199" y="42.9951">database</text></g><g id="elem_GMN7"><path d="M873,40.5 L873,56.5 L790.55,60.5 L873,64.5 L873,80.7656 A0,0 0 0 0 873,80.7656 L1134,80.7656 A0,0 0 0 0 1134,80.7656 L1134,50.5 L1124,40.5 L873,40.5 A0,0 0 0 0 873,40.5 " fill="#FEFFDD" style="stroke:#181818;stroke-width:0.5;"/><path d="M1124,40.5 L1124,50.5 L1134,50.5 L1124,40.5 " fill="#FEFFDD" style="stroke:#181818;stroke-width:0.5;"/><text fill="#000000" font-family="sans-serif" font-size="13" font-weight="bold" lengthAdjust="spacing" textLength="121" x="879" y="57.5669">HTTP Endpoints:</text><text fill="#000000" font-family="monospace" font-size="13" lengthAdjust="spacing" textLength="240" x="879" y="72.6997">GET&#160;/invoices/{userId}/{state}</text></g><g id="elem_GMN10"><path d="M615,128.5 L615,144.5 L554.08,148.5 L615,152.5 L615,168.7656 A0,0 0 0 0 615,168.7656 L812,168.7656 A0,0 0 0 0 812,168.7656 L812,138.5 L802,128.5 L615,128.5 A0,0 0 0 0 615,128.5 " fill="#FEFFDD" style="stroke:#181818;stroke-width:0.5;"/><path d="M802,128.5 L802,138.5 L812,138.5 L802,128.5 " fill="#FEFFDD" style="stroke:#181818;stroke-width:0.5;"/><text fill="#000000" font-family="sans-serif" font-size="13" font-weight="bold" lengthAdjust="spacing" textLength="121" x="621" y="145.5669">HTTP Endpoints:</text><text fill="#000000" font-family="monospace" font-size="13" lengthAdjust="spacing" textLength="176" x="621" y="160.6997">GET&#160;/bookings/{userId}</text></g><!--link frontend to backend_service_1--><g id="link_frontend_backend_service_1"><path d="M90.01,104.5 C107.99,104.5 123.8,104.5 144.8,104.5 " fill="none" id="frontend-to-backend_service_1" style="stroke:#181818;stroke-width:1.0;"/><polygon fill="#181818" points="150.8,104.5,141.8,100.5,145.8,104.5,141.8,108.5,150.8,104.5" style="stroke:#181818;stroke-width:1.0;"/></g><!--link backend_service_1 to external_service_1--><g id="link_backend_service_1_external_service_1"><path d="M311.08,97.26 C401.12,89.01 541.245,76.1771 630.145,68.0371 " fill="none" id="backend_service_1-to-external_service_1" style="stroke:#181818;stroke-width:1.0;"/><polygon fill="#181818" points="636.12,67.49,626.7928,64.3273,631.1408,67.9459,627.5222,72.294,636.12,67.49" style="stroke:#181818;stroke-width:1.0;"/><text fill="#000000" font-family="sans-serif" font-size="13" lengthAdjust="spacing" textLength="21" x="463.5" y="70.5669">JWT</text></g><!--link backend_service_1 to backend_service_2--><g id="link_backend_service_1_backend_service_2"><path d="M311.25,118.97 C337.72,123.8 361.3173,128.1137 387.8073,132.9437 " fill="none" id="backend_service_1-to-backend_service_2" style="stroke:#181818;stroke-width:1.0;"/><polygon fill="#181818" points="393.71,134.02,385.5735,128.4705,388.7911,133.1231,384.1385,136.3407,393.71,134.02" style="stroke:#181818;stroke-width:1.0;"/><text fill="#000000" font-family="sans-serif" font-size="13" lengthAdjust="spacing" textLength="21" x="342" y="120.5669">JWT</text></g><!--reverse link backend_service_1_database to backend_service_1--><g id="link_backend_service_1_database_backend_service_1"><path d="M231,57.11 C231,68.87 231,74.63 231,86.39 " fill="none" id="backend_service_1_database-backto-backend_service_1" style="stroke:#181818;stroke-width:1.0;"/><polygon fill="#181818" points="231,51.11,227,60.11,231,56.11,235,60.11,231,51.11" style="stroke:#181818;stroke-width:1.0;"/></g></g></svg>