<?xml version="1.0" encoding="us-ascii" standalone="no"?><svg xmlns="http://www.w3.org/2000/svg" xmlns:xlink="http://www.w3.org/1999/xlink" contentStyleType="text/css" height="292px" preserveAspectRatio="none" style="width:1002px;height:292px;background:#FFFFFF;" version="1.1" viewBox="0 0 1002 292" width="1002px" zoomAndPan="magnify"><defs/><g><!--cluster Platform--><g id="cluster_Platform"><path d="M8.5,6 L75.5,6 A3.75,3.75 0 0 1 78,8.5 L85,28.2969 L992.5,28.2969 A2.5,2.5 0 0 1 995,30.7969 L995,282.5 A2.5,2.5 0 0 1 992.5,285 L8.5,285 A2.5,2.5 0 0 1 6,282.5 L6,8.5 A2.5,2.5 0 0 1 8.5,6 " fill="none" style="stroke:#000000;stroke-width:1.5;"/><line style="stroke:#000000;stroke-width:1.5;" x1="6" x2="85" y1="28.2969" y2="28.2969"/><text fill="#000000" font-family="sans-serif" font-size="14" font-weight="bold" lengthAdjust="spacing" textLength="66" x="10" y="20.9951">Platform</text></g><!--cluster Application--><g id="cluster_Application"><rect fill="none" height="168" rx="2.5" ry="2.5" style="stroke:#181818;stroke-width:1.0;" width="765" x="30" y="93"/><path d="M127,93 L127,102.2969 L117,112.2969 L30,112.2969 " fill="none" style="stroke:#181818;stroke-width:1.0;"/><text fill="#000000" font-family="sans-serif" font-size="14" font-weight="bold" lengthAdjust="spacing" textLength="87" x="33" y="106.9951">Application</text></g><!--entity platform__external_service_1--><g id="elem_platform__external_service_1"><rect fill="#FFE4B5" height="36.2969" rx="2.5" ry="2.5" style="stroke:#181818;stroke-width:0.5;" width="154" x="640" y="41"/><text fill="#000000" font-family="sans-serif" font-size="14" lengthAdjust="spacing" textLength="134" x="650" y="63.9951">External Service #1</text></g><g id="elem_GMN12"><path d="M855,41 L855,56.38 L794.27,59.77 L855,64.38 L855,81.2656 A0,0 0 0 0 855,81.2656 L979,81.2656 A0,0 0 0 0 979,81.2656 L979,51 L969,41 L855,41 A0,0 0 0 0 855,41 " fill="#FEFFDD" style="stroke:#181818;stroke-width:0.5;"/><path d="M969,41 L969,51 L979,51 L969,41 " fill="#FEFFDD" style="stroke:#181818;stroke-width:0.5;"/><text fill="#000000" font-family="sans-serif" font-size="13" lengthAdjust="spacing" textLength="103" x="861" y="58.0669">HTTP Endpoints:</text><text fill="#000000" font-family="sans-serif" font-size="13" lengthAdjust="spacing" textLength="84" x="861" y="73.1997">GET /foo/{id}</text></g><!--entity platform__application__frontend--><g id="elem_platform__application__frontend"><rect fill="#D3D3D3" height="36.2969" rx="2.5" ry="2.5" style="stroke:#181818;stroke-width:0.5;" width="83" x="46" y="128"/><text fill="#000000" font-family="sans-serif" font-size="14" lengthAdjust="spacing" textLength="63" x="56" y="150.9951">Frontend</text></g><!--entity platform__application__backend_service_1--><g id="elem_platform__application__backend_service_1"><rect fill="#87CEEB" height="36.2969" rx="2.5" ry="2.5" style="stroke:#181818;stroke-width:2.0;" width="160" x="190" y="128"/><text fill="#000000" font-family="sans-serif" font-size="14" lengthAdjust="spacing" textLength="140" x="200" y="150.9951">Backend Service #1</text></g><!--entity platform__application__backend_service_1_database--><g id="elem_platform__application__backend_service_1_database"><path d="M228,209.5 C228,199.5 270,199.5 270,199.5 C270,199.5 312,199.5 312,209.5 L312,234.7969 C312,244.7969 270,244.7969 270,244.7969 C270,244.7969 228,244.7969 228,234.7969 L228,209.5 " fill="#F1F1F1" style="stroke:#181818;stroke-width:0.5;"/><path d="M228,209.5 C228,219.5 270,219.5 270,219.5 C270,219.5 312,219.5 312,209.5 " fill="none" style="stroke:#181818;stroke-width:0.5;"/><text fill="#000000" font-family="sans-serif" font-size="14" lengthAdjust="spacing" textLength="64" x="238" y="236.4951">database</text></g><!--entity platform__application__backend_service_2--><g id="elem_platform__application__backend_service_2"><rect fill="#ADD8E6" height="36.2969" rx="2.5" ry="2.5" style="stroke:#181818;stroke-width:0.5;" width="160" x="419" y="130"/><text fill="#000000" font-family="sans-serif" font-size="14" lengthAdjust="spacing" textLength="140" x="429" y="152.9951">Backend Service #2</text></g><g id="elem_GMN8"><path d="M655,128 L655,144 L579.2,148 L655,152 L655,168.2656 A0,0 0 0 0 655,168.2656 L779,168.2656 A0,0 0 0 0 779,168.2656 L779,138 L769,128 L655,128 A0,0 0 0 0 655,128 " fill="#FEFFDD" style="stroke:#181818;stroke-width:0.5;"/><path d="M769,128 L769,138 L779,138 L769,128 " fill="#FEFFDD" style="stroke:#181818;stroke-width:0.5;"/><text fill="#000000" font-family="sans-serif" font-size="13" lengthAdjust="spacing" textLength="103" x="661" y="145.0669">HTTP Endpoints:</text><text fill="#000000" font-family="sans-serif" font-size="13" lengthAdjust="spacing" textLength="85" x="661" y="160.1997">GET /bar/{id}</text></g><!--link platform__application__frontend to platform__application__backend_service_1--><g id="link_platform__application__frontend_platform__application__backend_service_1"><path d="M129.01,146 C146.99,146 162.8,146 183.8,146 " fill="none" id="platform__application__frontend-to-platform__application__backend_service_1" style="stroke:#181818;stroke-width:1.0;"/><polygon fill="#181818" points="189.8,146,180.8,142,184.8,146,180.8,150,189.8,146" style="stroke:#181818;stroke-width:1.0;"/></g><!--link platform__application__backend_service_1 to platform__external_service_1--><g id="link_platform__application__backend_service_1_platform__external_service_1"><path d="M346.14,127.99 C369.44,122.6 395.23,116.85 419,112 C493.8,96.74 573.7838,82.679 633.8938,72.529 " fill="none" id="platform__application__backend_service_1-to-platform__external_service_1" style="stroke:#181818;stroke-width:1.0;"/><polygon fill="#181818" points="639.81,71.53,630.2696,69.0843,634.8798,72.3625,631.6016,76.9727,639.81,71.53" style="stroke:#181818;stroke-width:1.0;"/><text fill="#000000" font-family="sans-serif" font-size="13" lengthAdjust="spacing" textLength="7" x="495.5" y="79.0669">?</text></g><!--reverse link platform__application__backend_service_1_database to platform__application__backend_service_1--><g id="link_platform__application__backend_service_1_database_platform__application__backend_service_1"><path d="M270,193.44 C270,181.75 270,176.06 270,164.37 " fill="none" id="platform__application__backend_service_1_database-backto-platform__application__backend_service_1" style="stroke:#181818;stroke-width:1.0;"/><polygon fill="#181818" points="270,199.44,274,190.44,270,194.44,266,190.44,270,199.44" style="stroke:#181818;stroke-width:1.0;"/></g><!--link platform__application__backend_service_1 to platform__application__backend_service_2--><g id="link_platform__application__backend_service_1_platform__application__backend_service_2"><path d="M350.14,152.49 C360.19,153.11 370.33,153.65 380,154 C392.61,154.46 399.9733,154.558 412.9933,154.128 " fill="none" id="platform__application__backend_service_1-to-platform__application__backend_service_2" style="stroke:#181818;stroke-width:1.0;"/><polygon fill="#181818" points="418.99,153.93,409.8629,150.2293,413.9927,154.095,410.1269,158.2249,418.99,153.93" style="stroke:#181818;stroke-width:1.0;"/><text fill="#000000" font-family="sans-serif" font-size="13" lengthAdjust="spacing" textLength="7" x="381" y="150.0669">?</text></g></g></svg>