<?xml version="1.0" encoding="us-ascii" standalone="no"?><svg xmlns="http://www.w3.org/2000/svg" xmlns:xlink="http://www.w3.org/1999/xlink" contentStyleType="text/css" height="292px" preserveAspectRatio="none" style="width:1198px;height:292px;background:#FFFFFF;" version="1.1" viewBox="0 0 1198 292" width="1198px" zoomAndPan="magnify"><defs/><g><!--cluster Platform--><g id="cluster_Platform"><path d="M8.5,6 L75.5,6 A3.75,3.75 0 0 1 78,8.5 L85,28.2969 L1188.5,28.2969 A2.5,2.5 0 0 1 1191,30.7969 L1191,282.5 A2.5,2.5 0 0 1 1188.5,285 L8.5,285 A2.5,2.5 0 0 1 6,282.5 L6,8.5 A2.5,2.5 0 0 1 8.5,6 " fill="none" style="stroke:#000000;stroke-width:1.5;"/><line style="stroke:#000000;stroke-width:1.5;" x1="6" x2="85" y1="28.2969" y2="28.2969"/><text fill="#000000" font-family="sans-serif" font-size="14" font-weight="bold" lengthAdjust="spacing" textLength="66" x="10" y="20.9951">Platform</text></g><!--cluster Application--><g id="cluster_Application"><rect fill="none" height="168" rx="2.5" ry="2.5" style="stroke:#181818;stroke-width:1.0;" width="837" x="30" y="93"/><path d="M127,93 L127,102.2969 L117,112.2969 L30,112.2969 " fill="none" style="stroke:#181818;stroke-width:1.0;"/><text fill="#000000" font-family="sans-serif" font-size="14" font-weight="bold" lengthAdjust="spacing" textLength="87" x="33" y="106.9951">Application</text></g><!--entity platform__external_service_1--><g id="elem_platform__external_service_1"><rect fill="#FFE4B5" height="36.2969" rx="2.5" ry="2.5" style="stroke:#181818;stroke-width:0.5;" width="154" x="675.5" y="41"/><text fill="#000000" font-family="sans-serif" font-size="14" lengthAdjust="spacing" textLength="134" x="685.5" y="63.9951">External Service #1</text></g><g id="elem_GMN12"><path d="M914,41 L914,56.11 L829.69,59.53 L914,64.11 L914,81.2656 A0,0 0 0 0 914,81.2656 L1175,81.2656 A0,0 0 0 0 1175,81.2656 L1175,51 L1165,41 L914,41 A0,0 0 0 0 914,41 " fill="#FEFFDD" style="stroke:#181818;stroke-width:0.5;"/><path d="M1165,41 L1165,51 L1175,51 L1165,41 " fill="#FEFFDD" style="stroke:#181818;stroke-width:0.5;"/><text fill="#000000" font-family="sans-serif" font-size="13" font-weight="bold" lengthAdjust="spacing" textLength="121" x="920" y="58.0669">HTTP Endpoints:</text><text fill="#000000" font-family="monospace" font-size="13" lengthAdjust="spacing" textLength="240" x="920" y="73.1997">GET&#160;/invoices/{userId}/{state}</text></g><!--entity platform__application__frontend--><g id="elem_platform__application__frontend"><rect fill="#D3D3D3" height="36.2969" rx="2.5" ry="2.5" style="stroke:#181818;stroke-width:0.5;" width="83" x="46" y="128"/><text fill="#000000" font-family="sans-serif" font-size="14" lengthAdjust="spacing" textLength="63" x="56" y="150.9951">Frontend</text></g><!--entity platform__application__backend_service_1--><g id="elem_platform__application__backend_service_1"><rect fill="#87CEEB" height="36.2969" rx="2.5" ry="2.5" style="stroke:#181818;stroke-width:2.0;" width="160" x="190" y="128"/><text fill="#000000" font-family="sans-serif" font-size="14" lengthAdjust="spacing" textLength="140" x="200" y="150.9951">Backend Service #1</text></g><!--entity platform__application__backend_service_2--><g id="elem_platform__application__backend_service_2"><rect fill="#ADD8E6" height="36.2969" rx="2.5" ry="2.5" style="stroke:#181818;stroke-width:0.5;" width="160" x="433" y="130"/><text fill="#000000" font-family="sans-serif" font-size="14" lengthAdjust="spacing" textLength="140" x="443" y="152.9951">Backend Service #2</text></g><!--entity platform__application__backend_service_1_database--><g id="elem_platform__application__backend_service_1_database"><path d="M228,209.5 C228,199.5 270,199.5 270,199.5 C270,199.5 312,199.5 312,209.5 L312,234.7969 C312,244.7969 270,244.7969 270,244.7969 C270,244.7969 228,244.7969 228,234.7969 L228,209.5 " fill="#F1F1F1" style="stroke:#181818;stroke-width:0.5;"/><path d="M228,209.5 C228,219.5 270,219.5 270,219.5 C270,219.5 312,219.5 312,209.5 " fill="none" style="stroke:#181818;stroke-width:0.5;"/><text fill="#000000" font-family="sans-serif" font-size="14" lengthAdjust="spacing" textLength="64" x="238" y="236.4951">database</text></g><g id="elem_GMN8"><path d="M654,128 L654,144 L593.08,148 L654,152 L654,168.2656 A0,0 0 0 0 654,168.2656 L851,168.2656 A0,0 0 0 0 851,168.2656 L851,138 L841,128 L654,128 A0,0 0 0 0 654,128 " fill="#FEFFDD" style="stroke:#181818;stroke-width:0.5;"/><path d="M841,128 L841,138 L851,138 L841,128 " fill="#FEFFDD" style="stroke:#181818;stroke-width:0.5;"/><text fill="#000000" font-family="sans-serif" font-size="13" font-weight="bold" lengthAdjust="spacing" textLength="121" x="660" y="145.0669">HTTP Endpoints:</text><text fill="#000000" font-family="monospace" font-size="13" lengthAdjust="spacing" textLength="176" x="660" y="160.1997">GET&#160;/bookings/{userId}</text></g><!--link platform__application__frontend to platform__application__backend_service_1--><g id="link_platform__application__frontend_platform__application__backend_service_1"><path d="M129.01,146 C146.99,146 162.8,146 183.8,146 " fill="none" id="platform__application__frontend-to-platform__application__backend_service_1" style="stroke:#181818;stroke-width:1.0;"/><polygon fill="#181818" points="189.8,146,180.8,142,184.8,146,180.8,150,189.8,146" style="stroke:#181818;stroke-width:1.0;"/></g><!--link platform__application__backend_service_1 to platform__application__backend_service_2--><g id="link_platform__application__backend_service_1_platform__application__backend_service_2"><path d="M350.14,152.49 C360.19,153.11 370.33,153.65 380,154 C397.08,154.63 409.4043,154.6076 426.7943,153.9476 " fill="none" id="platform__application__backend_service_1-to-platform__application__backend_service_2" style="stroke:#181818;stroke-width:1.0;"/><polygon fill="#181818" points="432.79,153.72,423.6448,150.0642,427.7936,153.9096,423.9482,158.0585,432.79,153.72" style="stroke:#181818;stroke-width:1.0;"/><text fill="#000000" font-family="sans-serif" font-size="13" lengthAdjust="spacing" textLength="21" x="381" y="150.0669">JWT</text></g><!--reverse link platform__application__backend_service_1_database to platform__application__backend_service_1--><g id="link_platform__application__backend_service_1_database_platform__application__backend_service_1"><path d="M270,193.44 C270,181.75 270,176.06 270,164.37 " fill="none" id="platform__application__backend_service_1_database-backto-platform__application__backend_service_1" style="stroke:#181818;stroke-width:1.0;"/><polygon fill="#181818" points="270,199.44,274,190.44,270,194.44,266,190.44,270,199.44" style="stroke:#181818;stroke-width:1.0;"/></g><!--link platform__application__backend_service_1 to platform__external_service_1--><g id="link_platform__application__backend_service_1_platform__external_service_1"><path d="M350.38,128.65 C376.64,123.09 406.03,117.07 433,112 C515.63,96.46 604.8532,81.8646 669.4732,71.6746 " fill="none" id="platform__application__backend_service_1-to-platform__external_service_1" style="stroke:#181818;stroke-width:1.0;"/><polygon fill="#181818" points="675.4,70.74,665.8868,68.1907,670.461,71.5188,667.1329,76.0931,675.4,70.74" style="stroke:#181818;stroke-width:1.0;"/><text fill="#000000" font-family="sans-serif" font-size="13" lengthAdjust="spacing" textLength="21" x="502.5" y="81.0669">JWT</text></g></g></svg>