<?xml version="1.0" encoding="us-ascii" standalone="no"?><svg xmlns="http://www.w3.org/2000/svg" xmlns:xlink="http://www.w3.org/1999/xlink" contentStyleType="text/css" height="292px" preserveAspectRatio="none" style="width:990px;height:292px;background:#FFFFFF;" version="1.1" viewBox="0 0 990 292" width="990px" zoomAndPan="magnify"><defs/><g><!--cluster Platform--><g id="cluster_Platform"><path d="M8.5,6 L75.5,6 A3.75,3.75 0 0 1 78,8.5 L85,28.2969 L980.5,28.2969 A2.5,2.5 0 0 1 983,30.7969 L983,282.5 A2.5,2.5 0 0 1 980.5,285 L8.5,285 A2.5,2.5 0 0 1 6,282.5 L6,8.5 A2.5,2.5 0 0 1 8.5,6 " fill="none" style="stroke:#000000;stroke-width:1.5;"/><line style="stroke:#000000;stroke-width:1.5;" x1="6" x2="85" y1="28.2969" y2="28.2969"/><text fill="#000000" font-family="sans-serif" font-size="14" font-weight="bold" lengthAdjust="spacing" textLength="66" x="10" y="20.9951">Platform</text></g><!--cluster Application--><g id="cluster_Application"><rect fill="none" height="168" rx="2.5" ry="2.5" style="stroke:#181818;stroke-width:1.0;" width="754" x="30" y="93"/><path d="M127,93 L127,102.2969 L117,112.2969 L30,112.2969 " fill="none" style="stroke:#181818;stroke-width:1.0;"/><text fill="#000000" font-family="sans-serif" font-size="14" font-weight="bold" lengthAdjust="spacing" textLength="87" x="33" y="106.9951">Application</text></g><!--entity platform__external_service_1--><g id="elem_platform__external_service_1"><rect fill="#FFE4B5" height="36.2969" rx="2.5" ry="2.5" style="stroke:#181818;stroke-width:0.5;" width="154" x="629" y="41"/><text fill="#000000" font-family="sans-serif" font-size="14" lengthAdjust="spacing" textLength="134" x="639" y="63.9951">External Service #1</text></g><g id="elem_GMN12"><path d="M843,41 L843,56.38 L783.17,59.77 L843,64.38 L843,81.2656 A0,0 0 0 0 843,81.2656 L967,81.2656 A0,0 0 0 0 967,81.2656 L967,51 L957,41 L843,41 A0,0 0 0 0 843,41 " fill="#FEFFDD" style="stroke:#181818;stroke-width:0.5;"/><path d="M957,41 L957,51 L967,51 L957,41 " fill="#FEFFDD" style="stroke:#181818;stroke-width:0.5;"/><text fill="#000000" font-family="sans-serif" font-size="13" lengthAdjust="spacing" textLength="103" x="849" y="58.0669">HTTP Endpoints:</text><text fill="#000000" font-family="sans-serif" font-size="13" lengthAdjust="spacing" textLength="84" x="849" y="73.1997">GET /foo/{id}</text></g><!--entity platform__application__frontend--><g id="elem_platform__application__frontend"><rect fill="#D3D3D3" height="36.2969" rx="2.5" ry="2.5" style="stroke:#181818;stroke-width:0.5;" width="83" x="46" y="128"/><text fill="#000000" font-family="sans-serif" font-size="14" lengthAdjust="spacing" textLength="63" x="56" y="150.9951">Frontend</text></g><!--entity platform__application__backend_service_1--><g id="elem_platform__application__backend_service_1"><rect fill="#87CEEB" height="36.2969" rx="2.5" ry="2.5" style="stroke:#181818;stroke-width:2.0;" width="160" x="189" y="128"/><text fill="#000000" font-family="sans-serif" font-size="14" lengthAdjust="spacing" textLength="140" x="199" y="150.9951">Backend Service #1</text></g><!--entity platform__application__backend_service_1_database--><g id="elem_platform__application__backend_service_1_database"><path d="M227,209.5 C227,199.5 269,199.5 269,199.5 C269,199.5 311,199.5 311,209.5 L311,234.7969 C311,244.7969 269,244.7969 269,244.7969 C269,244.7969 227,244.7969 227,234.7969 L227,209.5 " fill="#F1F1F1" style="stroke:#181818;stroke-width:0.5;"/><path d="M227,209.5 C227,219.5 269,219.5 269,219.5 C269,219.5 311,219.5 311,209.5 " fill="none" style="stroke:#181818;stroke-width:0.5;"/><text fill="#000000" font-family="sans-serif" font-size="14" lengthAdjust="spacing" textLength="64" x="237" y="236.4951">database</text></g><!--entity platform__application__backend_service_2--><g id="elem_platform__application__backend_service_2"><rect fill="#ADD8E6" height="36.2969" rx="2.5" ry="2.5" style="stroke:#181818;stroke-width:0.5;" width="160" x="409" y="129"/><text fill="#000000" font-family="sans-serif" font-size="14" lengthAdjust="spacing" textLength="140" x="419" y="151.9951">Backend Service #2</text></g><g id="elem_GMN8"><path d="M644,128 L644,143.72 L569.14,147.37 L644,151.72 L644,168.2656 A0,0 0 0 0 644,168.2656 L768,168.2656 A0,0 0 0 0 768,168.2656 L768,138 L758,128 L644,128 A0,0 0 0 0 644,128 " fill="#FEFFDD" style="stroke:#181818;stroke-width:0.5;"/><path d="M758,128 L758,138 L768,138 L758,128 " fill="#FEFFDD" style="stroke:#181818;stroke-width:0.5;"/><text fill="#000000" font-family="sans-serif" font-size="13" lengthAdjust="spacing" textLength="103" x="650" y="145.0669">HTTP Endpoints:</text><text fill="#000000" font-family="sans-serif" font-size="13" lengthAdjust="spacing" textLength="85" x="650" y="160.1997">GET /bar/{id}</text></g><!--link platform__application__frontend to platform__application__backend_service_1--><g id="link_platform__application__frontend_platform__application__backend_service_1"><path d="M129.23,146 C146.92,146 162.27,146 182.87,146 " fill="none" id="platform__application__frontend-to-platform__application__backend_service_1" style="stroke:#181818;stroke-width:1.0;"/><polygon fill="#181818" points="188.87,146,179.87,142,183.87,146,179.87,150,188.87,146" style="stroke:#181818;stroke-width:1.0;"/></g><!--link platform__application__backend_service_1 to platform__external_service_1--><g id="link_platform__application__backend_service_1_platform__external_service_1"><path d="M337.64,127.92 C360.25,122.16 385.64,115.99 409,111 C483.37,95.13 563.0767,81.4261 623.0467,71.7461 " fill="none" id="platform__application__backend_service_1-to-platform__external_service_1" style="stroke:#181818;stroke-width:1.0;"/><polygon fill="#181818" points="628.97,70.79,619.4476,68.2753,624.0339,71.5868,620.7224,76.1731,628.97,70.79" style="stroke:#181818;stroke-width:1.0;"/></g><!--reverse link platform__application__backend_service_1_database to platform__application__backend_service_1--><g id="link_platform__application__backend_service_1_database_platform__application__backend_service_1"><path d="M269,193.44 C269,181.75 269,176.06 269,164.37 " fill="none" id="platform__application__backend_service_1_database-backto-platform__application__backend_service_1" style="stroke:#181818;stroke-width:1.0;"/><polygon fill="#181818" points="269,199.44,273,190.44,269,194.44,265,190.44,269,199.44" style="stroke:#181818;stroke-width:1.0;"/></g><!--link platform__application__backend_service_1 to platform__application__backend_service_2--><g id="link_platform__application__backend_service_1_platform__application__backend_service_2"><path d="M349.01,146.36 C368.51,146.45 383.3901,146.5223 402.8901,146.6123 " fill="none" id="platform__application__backend_service_1-to-platform__application__backend_service_2" style="stroke:#181818;stroke-width:1.0;"/><polygon fill="#181818" points="408.89,146.64,399.9086,142.5985,403.8901,146.6169,399.8716,150.5984,408.89,146.64" style="stroke:#181818;stroke-width:1.0;"/></g></g></svg>