<?xml version="1.0" encoding="us-ascii" standalone="no"?><svg xmlns="http://www.w3.org/2000/svg" xmlns:xlink="http://www.w3.org/1999/xlink" contentStyleType="text/css" height="343px" preserveAspectRatio="none" style="width:1227px;height:343px;background:#FFFFFF;" version="1.1" viewBox="0 0 1227 343" width="1227px" zoomAndPan="magnify"><defs/><g><!--cluster Platform--><g id="cluster_Platform"><path d="M8.5,6 L75.5,6 A3.75,3.75 0 0 1 78,8.5 L85,28.2969 L1217.5,28.2969 A2.5,2.5 0 0 1 1220,30.7969 L1220,282.5 A2.5,2.5 0 0 1 1217.5,285 L8.5,285 A2.5,2.5 0 0 1 6,282.5 L6,8.5 A2.5,2.5 0 0 1 8.5,6 " fill="none" style="stroke:#000000;stroke-width:1.5;"/><line style="stroke:#000000;stroke-width:1.5;" x1="6" x2="85" y1="28.2969" y2="28.2969"/><text fill="#000000" font-family="sans-serif" font-size="14" font-weight="bold" lengthAdjust="spacing" textLength="66" x="10" y="20.9951">Platform</text></g><!--cluster Application--><g id="cluster_Application"><rect fill="none" height="168" rx="2.5" ry="2.5" style="stroke:#181818;stroke-width:1.0;" width="866" x="30" y="93"/><path d="M127,93 L127,102.2969 L117,112.2969 L30,112.2969 " fill="none" style="stroke:#181818;stroke-width:1.0;"/><text fill="#000000" font-family="sans-serif" font-size="14" font-weight="bold" lengthAdjust="spacing" textLength="87" x="33" y="106.9951">Application</text></g><!--entity platform__external_service_1--><g id="elem_platform__external_service_1"><rect fill="#FFE4B5" height="36.2969" rx="2.5" ry="2.5" style="stroke:#181818;stroke-width:0.5;" width="154" x="704.5" y="41"/><text fill="#000000" font-family="sans-serif" font-size="14" lengthAdjust="spacing" textLength="134" x="714.5" y="63.9951">External Service #1</text></g><g id="elem_GMN13"><path d="M943,41 L943,56.11 L858.69,59.53 L943,64.11 L943,81.2656 A0,0 0 0 0 943,81.2656 L1204,81.2656 A0,0 0 0 0 1204,81.2656 L1204,51 L1194,41 L943,41 A0,0 0 0 0 943,41 " fill="#FEFFDD" style="stroke:#181818;stroke-width:0.5;"/><path d="M1194,41 L1194,51 L1204,51 L1194,41 " fill="#FEFFDD" style="stroke:#181818;stroke-width:0.5;"/><text fill="#000000" font-family="sans-serif" font-size="13" font-weight="bold" lengthAdjust="spacing" textLength="121" x="949" y="58.0669">HTTP Endpoints:</text><text fill="#000000" font-family="monospace" font-size="13" lengthAdjust="spacing" textLength="240" x="949" y="73.1997">GET&#160;/invoices/{userId}/{state}</text></g><!--entity platform__application__frontend--><g id="elem_platform__application__frontend"><rect fill="#D3D3D3" height="36.2969" rx="2.5" ry="2.5" style="stroke:#181818;stroke-width:0.5;" width="83" x="46" y="128"/><text fill="#000000" font-family="sans-serif" font-size="14" lengthAdjust="spacing" textLength="63" x="56" y="150.9951">Frontend</text></g><!--entity platform__application__backend_service_1--><g id="elem_platform__application__backend_service_1"><rect fill="#87CEEB" height="36.2969" rx="2.5" ry="2.5" style="stroke:#181818;stroke-width:2.0;" width="160" x="219" y="128"/><text fill="#000000" font-family="sans-serif" font-size="14" lengthAdjust="spacing" textLength="140" x="229" y="150.9951">Backend Service #1</text></g><!--entity platform__application__backend_service_2--><g id="elem_platform__application__backend_service_2"><rect fill="#ADD8E6" height="36.2969" rx="2.5" ry="2.5" style="stroke:#181818;stroke-width:0.5;" width="160" x="462" y="130"/><text fill="#000000" font-family="sans-serif" font-size="14" lengthAdjust="spacing" textLength="140" x="472" y="152.9951">Backend Service #2</text></g><!--entity platform__application__backend_service_1_database--><g id="elem_platform__application__backend_service_1_database"><path d="M257,209.5 C257,199.5 299,199.5 299,199.5 C299,199.5 341,199.5 341,209.5 L341,234.7969 C341,244.7969 299,244.7969 299,244.7969 C299,244.7969 257,244.7969 257,234.7969 L257,209.5 " fill="#F1F1F1" style="stroke:#181818;stroke-width:0.5;"/><path d="M257,209.5 C257,219.5 299,219.5 299,219.5 C299,219.5 341,219.5 341,209.5 " fill="none" style="stroke:#181818;stroke-width:0.5;"/><text fill="#000000" font-family="sans-serif" font-size="14" lengthAdjust="spacing" textLength="64" x="267" y="236.4951">database</text></g><g id="elem_GMN8"><path d="M683,128 L683,144 L622.08,148 L683,152 L683,168.2656 A0,0 0 0 0 683,168.2656 L880,168.2656 A0,0 0 0 0 880,168.2656 L880,138 L870,128 L683,128 A0,0 0 0 0 683,128 " fill="#FEFFDD" style="stroke:#181818;stroke-width:0.5;"/><path d="M870,128 L870,138 L880,138 L870,128 " fill="#FEFFDD" style="stroke:#181818;stroke-width:0.5;"/><text fill="#000000" font-family="sans-serif" font-size="13" font-weight="bold" lengthAdjust="spacing" textLength="121" x="689" y="145.0669">HTTP Endpoints:</text><text fill="#000000" font-family="monospace" font-size="13" lengthAdjust="spacing" textLength="176" x="689" y="160.1997">GET&#160;/bookings/{userId}</text></g><!--entity external_service_x--><g id="elem_external_service_x"><rect fill="#D3D3D3" height="36.2969" rx="2.5" ry="2.5" style="stroke:#181818;stroke-width:0.5;" width="141" x="17" y="301"/><text fill="#000000" font-family="sans-serif" font-size="14" lengthAdjust="spacing" textLength="121" x="27" y="323.9951">external-service-x</text></g><!--link platform__application__frontend to platform__application__backend_service_1--><g id="link_platform__application__frontend_platform__application__backend_service_1"><path d="M129.39,146 C154.75,146 182.2,146 212.6,146 " fill="none" id="platform__application__frontend-to-platform__application__backend_service_1" style="stroke:#181818;stroke-width:1.0;"/><polygon fill="#181818" points="218.6,146,209.6,142,213.6,146,209.6,150,218.6,146" style="stroke:#181818;stroke-width:1.0;"/></g><!--link external_service_x to platform__application__backend_service_1--><g id="link_external_service_x_platform__application__backend_service_1"><path d="M112.79,300.87 C126.67,289.99 144.05,275.49 158,261 C188.77,229.04 184.24,209.56 219,182 C227.86,174.98 232.9022,171.5793 243.2422,166.6093 " fill="none" id="external_service_x-to-platform__application__backend_service_1" style="stroke:#181818;stroke-width:1.0;"/><polygon fill="#181818" points="248.65,164.01,238.8055,164.3037,244.1435,166.1761,242.2712,171.5141,248.65,164.01" style="stroke:#181818;stroke-width:1.0;"/></g><!--link platform__application__backend_service_1 to platform__application__backend_service_2--><g id="link_platform__application__backend_service_1_platform__application__backend_service_2"><path d="M379.14,152.49 C389.19,153.11 399.33,153.65 409,154 C426.08,154.63 438.4043,154.6076 455.7943,153.9476 " fill="none" id="platform__application__backend_service_1-to-platform__application__backend_service_2" style="stroke:#181818;stroke-width:1.0;"/><polygon fill="#181818" points="461.79,153.72,452.6448,150.0642,456.7936,153.9096,452.9482,158.0585,461.79,153.72" style="stroke:#181818;stroke-width:1.0;"/><text fill="#000000" font-family="sans-serif" font-size="13" lengthAdjust="spacing" textLength="21" x="410" y="150.0669">JWT</text></g><!--reverse link platform__application__backend_service_1_database to platform__application__backend_service_1--><g id="link_platform__application__backend_service_1_database_platform__application__backend_service_1"><path d="M299,193.44 C299,181.75 299,176.06 299,164.37 " fill="none" id="platform__application__backend_service_1_database-backto-platform__application__backend_service_1" style="stroke:#181818;stroke-width:1.0;"/><polygon fill="#181818" points="299,199.44,303,190.44,299,194.44,295,190.44,299,199.44" style="stroke:#181818;stroke-width:1.0;"/></g><!--link platform__application__backend_service_1 to platform__external_service_1--><g id="link_platform__application__backend_service_1_platform__external_service_1"><path d="M379.38,128.65 C405.64,123.09 435.03,117.07 462,112 C544.63,96.46 633.8532,81.8646 698.4732,71.6746 " fill="none" id="platform__application__backend_service_1-to-platform__external_service_1" style="stroke:#181818;stroke-width:1.0;"/><polygon fill="#181818" points="704.4,70.74,694.8868,68.1907,699.461,71.5188,696.1329,76.0931,704.4,70.74" style="stroke:#181818;stroke-width:1.0;"/><text fill="#000000" font-family="sans-serif" font-size="13" lengthAdjust="spacing" textLength="21" x="531.5" y="81.0669">JWT</text></g></g></svg>