<?xml version="1.0" encoding="us-ascii" standalone="no"?><svg xmlns="http://www.w3.org/2000/svg" xmlns:xlink="http://www.w3.org/1999/xlink" contentStyleType="text/css" height="473px" preserveAspectRatio="none" style="width:1076px;height:473px;background:#FFFFFF;" version="1.1" viewBox="0 0 1076 473" width="1076px" zoomAndPan="magnify"><defs/><g><!--cluster Application--><g id="cluster_Application"><path d="M8.5,6 L96.5,6 A3.75,3.75 0 0 1 99,8.5 L106,28.2969 L1050.5,28.2969 A2.5,2.5 0 0 1 1053,30.7969 L1053,238.5 A2.5,2.5 0 0 1 1050.5,241 L8.5,241 A2.5,2.5 0 0 1 6,238.5 L6,8.5 A2.5,2.5 0 0 1 8.5,6 " fill="none" style="stroke:#000000;stroke-width:1.5;"/><line style="stroke:#000000;stroke-width:1.5;" x1="6" x2="106" y1="28.2969" y2="28.2969"/><text fill="#000000" font-family="sans-serif" font-size="14" font-weight="bold" lengthAdjust="spacing" textLength="87" x="10" y="20.9951">Application</text></g><!--cluster Our Team--><g id="cluster_Our Team"><rect fill="none" height="168" rx="2.5" ry="2.5" style="stroke:#181818;stroke-width:1.0;" width="343" x="30" y="49"/><path d="M117,49 L117,58.2969 L107,68.2969 L30,68.2969 " fill="none" style="stroke:#181818;stroke-width:1.0;"/><text fill="#000000" font-family="sans-serif" font-size="14" font-weight="bold" lengthAdjust="spacing" textLength="77" x="33" y="62.9951">Our Team</text></g><!--cluster 3rd Party--><g id="cluster_3rd Party"><path d="M540.5,265 L614.5,265 A3.75,3.75 0 0 1 617,267.5 L624,287.2969 L1066.5,287.2969 A2.5,2.5 0 0 1 1069,289.7969 L1069,353.5 A2.5,2.5 0 0 1 1066.5,356 L540.5,356 A2.5,2.5 0 0 1 538,353.5 L538,267.5 A2.5,2.5 0 0 1 540.5,265 " fill="none" style="stroke:#000000;stroke-width:1.5;"/><line style="stroke:#000000;stroke-width:1.5;" x1="538" x2="624" y1="287.2969" y2="287.2969"/><text fill="#000000" font-family="sans-serif" font-size="14" font-weight="bold" lengthAdjust="spacing" textLength="73" x="542" y="279.9951">3rd Party</text></g><!--entity application__notification_service--><g id="elem_application__notification_service"><rect fill="#FFE4B5" height="36.2969" rx="2.5" ry="2.5" style="stroke:#181818;stroke-width:0.5;" width="150" x="555.5" y="84"/><text fill="#000000" font-family="sans-serif" font-size="14" lengthAdjust="spacing" textLength="130" x="565.5" y="106.9951">Notification Service</text></g><g id="elem_GMN8"><path d="M784,82 L784,98 L705.63,102 L784,106 L784,122.2656 A0,0 0 0 0 784,122.2656 L1037,122.2656 A0,0 0 0 0 1037,122.2656 L1037,92 L1027,82 L784,82 A0,0 0 0 0 784,82 " fill="#FEFFDD" style="stroke:#181818;stroke-width:0.5;"/><path d="M1027,82 L1027,92 L1037,92 L1027,82 " fill="#FEFFDD" style="stroke:#181818;stroke-width:0.5;"/><text fill="#000000" font-family="sans-serif" font-size="13" font-weight="bold" lengthAdjust="spacing" textLength="121" x="790" y="99.0669">HTTP Endpoints:</text><text fill="#000000" font-family="monospace" font-size="13" lengthAdjust="spacing" textLength="232" x="790" y="114.1997">POST&#160;/notifications/low-stock</text></g><!--entity application__team__order_service--><g id="elem_application__team__order_service"><rect fill="#D3D3D3" height="36.2969" rx="2.5" ry="2.5" style="stroke:#181818;stroke-width:0.5;" width="113" x="46" y="84"/><text fill="#000000" font-family="sans-serif" font-size="14" lengthAdjust="spacing" textLength="93" x="56" y="106.9951">Order Service</text></g><!--entity application__team__inventory_service--><g id="elem_application__team__inventory_service"><rect fill="#87CEEB" height="36.2969" rx="2.5" ry="2.5" style="stroke:#181818;stroke-width:2.0;" width="137" x="220" y="84"/><text fill="#000000" font-family="sans-serif" font-size="14" lengthAdjust="spacing" textLength="117" x="230" y="106.9951">Inventory Service</text></g><!--entity application__team__inventory_database--><g id="elem_application__team__inventory_database"><path d="M246.5,165.5 C246.5,155.5 288.5,155.5 288.5,155.5 C288.5,155.5 330.5,155.5 330.5,165.5 L330.5,190.7969 C330.5,200.7969 288.5,200.7969 288.5,200.7969 C288.5,200.7969 246.5,200.7969 246.5,190.7969 L246.5,165.5 " fill="#F1F1F1" style="stroke:#181818;stroke-width:0.5;"/><path d="M246.5,165.5 C246.5,175.5 288.5,175.5 288.5,175.5 C288.5,175.5 330.5,175.5 330.5,165.5 " fill="none" style="stroke:#181818;stroke-width:0.5;"/><text fill="#000000" font-family="sans-serif" font-size="14" lengthAdjust="spacing" textLength="64" x="256.5" y="192.4951">database</text></g><!--entity third_party__warehouse_service--><g id="elem_third_party__warehouse_service"><rect fill="#F08080" height="36.2969" rx="2.5" ry="2.5" style="stroke:#181818;stroke-width:0.5;" width="153" x="554" y="301"/><text fill="#000000" font-family="sans-serif" font-size="14" lengthAdjust="spacing" textLength="133" x="564" y="323.9951">Warehouse Service</text></g><g id="elem_GMN13"><path d="M768,300 L768,315.49 L707.1,319.27 L768,323.49 L768,340.2656 A0,0 0 0 0 768,340.2656 L1053,340.2656 A0,0 0 0 0 1053,340.2656 L1053,310 L1043,300 L768,300 A0,0 0 0 0 768,300 " fill="#FEFFDD" style="stroke:#181818;stroke-width:0.5;"/><path d="M1043,300 L1043,310 L1053,310 L1043,300 " fill="#FEFFDD" style="stroke:#181818;stroke-width:0.5;"/><text fill="#000000" font-family="sans-serif" font-size="13" font-weight="bold" lengthAdjust="spacing" textLength="121" x="774" y="317.0669">HTTP Endpoints:</text><text fill="#000000" font-family="monospace" font-size="13" lengthAdjust="spacing" textLength="264" x="774" y="332.1997">GET&#160;/warehouses/stock/{productId}</text></g><!--link application__team__order_service to application__team__inventory_service--><g id="link_application__team__order_service_application__team__inventory_service"><path d="M159.21,102 C178.35,102 193.99,102 213.97,102 " fill="none" id="application__team__order_service-to-application__team__inventory_service" style="stroke:#181818;stroke-width:1.0;"/><polygon fill="#181818" points="219.97,102,210.97,98,214.97,102,210.97,106,219.97,102" style="stroke:#181818;stroke-width:1.0;"/></g><!--reverse link application__team__inventory_database to application__team__inventory_service--><g id="link_application__team__inventory_database_application__team__inventory_service"><path d="M288.5,149.44 C288.5,137.75 288.5,132.06 288.5,120.37 " fill="none" id="application__team__inventory_database-backto-application__team__inventory_service" style="stroke:#181818;stroke-width:1.0;"/><polygon fill="#181818" points="288.5,155.44,292.5,146.44,288.5,150.44,284.5,146.44,288.5,155.44" style="stroke:#181818;stroke-width:1.0;"/></g><!--link application__team__inventory_service to application__notification_service--><g id="link_application__team__inventory_service_application__notification_service"><path d="M357.08,102 C414.31,102 490.22,102 549.26,102 " fill="none" id="application__team__inventory_service-to-application__notification_service" style="stroke:#181818;stroke-width:1.0;"/><polygon fill="#181818" points="555.26,102,546.26,98,550.26,102,546.26,106,555.26,102" style="stroke:#181818;stroke-width:1.0;"/><text fill="#000000" font-family="sans-serif" font-size="13" lengthAdjust="spacing" textLength="21" x="445" y="98.0669">JWT</text></g><!--link application__team__inventory_service to third_party__warehouse_service--><g id="link_application__team__inventory_service_third_party__warehouse_service"><path d="M357.06,118.31 C366.33,123.24 374.78,129.65 381,138 C393.53,154.81 379.34,213.39 389,232 C397.29,247.96 404.14,249.53 420,258 C461.77,280.31 506.8457,294.0221 548.0357,303.5921 " fill="none" id="application__team__inventory_service-to-third_party__warehouse_service" style="stroke:#181818;stroke-width:1.0;"/><polygon fill="#181818" points="553.88,304.95,546.0187,299.017,549.0097,303.8184,544.2083,306.8094,553.88,304.95" style="stroke:#181818;stroke-width:1.0;"/><text fill="#000000" font-family="sans-serif" font-size="13" lengthAdjust="spacing" textLength="69" x="421" y="254.0669">Basic-Auth</text></g><rect fill="none" height="79.1875" id="_legend" rx="7.5" ry="7.5" style="stroke:#FFFFFF;stroke-width:1.0;" width="174" x="12" y="374"/><text fill="#000000" font-family="sans-serif" font-size="14" lengthAdjust="spacing" textLength="36" x="21" y="393.9951">Color</text><text fill="#000000" font-family="sans-serif" font-size="14" lengthAdjust="spacing" textLength="91" x="65" y="393.9951">Belongs to ...</text><rect fill="#ADD8E6" height="16.2969" style="stroke:none;stroke-width:1.0;" width="44" x="17" y="397.2969"/><text fill="#000000" font-family="sans-serif" font-size="14" lengthAdjust="spacing" textLength="4" x="17" y="410.292">&#160;</text><text fill="#000000" font-family="sans-serif" font-size="14" lengthAdjust="spacing" textLength="115" x="65" y="410.292">our components</text><rect fill="#FFE4B5" height="16.2969" style="stroke:none;stroke-width:1.0;" width="44" x="17" y="413.5938"/><text fill="#000000" font-family="sans-serif" font-size="14" lengthAdjust="spacing" textLength="4" x="17" y="426.5889">&#160;</text><text fill="#000000" font-family="sans-serif" font-size="14" lengthAdjust="spacing" textLength="116" x="65" y="426.5889">same application</text><rect fill="#F08080" height="16.2969" style="stroke:none;stroke-width:1.0;" width="44" x="17" y="429.8906"/><text fill="#000000" font-family="sans-serif" font-size="14" lengthAdjust="spacing" textLength="4" x="17" y="442.8857">&#160;</text><text fill="#000000" font-family="sans-serif" font-size="14" lengthAdjust="spacing" textLength="61" x="65" y="442.8857">3rd party</text><line style="stroke:#000000;stroke-width:1.0;" x1="17" x2="181" y1="381" y2="381"/><line style="stroke:#000000;stroke-width:1.0;" x1="17" x2="181" y1="397.2969" y2="397.2969"/><line style="stroke:#000000;stroke-width:1.0;" x1="17" x2="181" y1="413.5938" y2="413.5938"/><line style="stroke:#000000;stroke-width:1.0;" x1="17" x2="181" y1="429.8906" y2="429.8906"/><line style="stroke:#000000;stroke-width:1.0;" x1="17" x2="181" y1="446.1875" y2="446.1875"/><line style="stroke:#000000;stroke-width:1.0;" x1="17" x2="17" y1="381" y2="446.1875"/><line style="stroke:#000000;stroke-width:1.0;" x1="61" x2="61" y1="381" y2="446.1875"/><line style="stroke:#000000;stroke-width:1.0;" x1="181" x2="181" y1="381" y2="446.1875"/></g></svg>