<?xml version="1.0" encoding="us-ascii" standalone="no"?><svg xmlns="http://www.w3.org/2000/svg" xmlns:xlink="http://www.w3.org/1999/xlink" contentStyleType="text/css" height="946px" preserveAspectRatio="none" style="width:2152px;height:946px;background:#FFFFFF;" version="1.1" viewBox="0 0 2152 946" width="2152px" zoomAndPan="magnify"><defs/><g><!--cluster Platform--><g id="cluster_Platform"><path d="M17,12 L151,12 A7.5,7.5 0 0 1 156,17 L170,56.5938 L2101,56.5938 A5,5 0 0 1 2106,61.5938 L2106,477 A5,5 0 0 1 2101,482 L17,482 A5,5 0 0 1 12,477 L12,17 A5,5 0 0 1 17,12 " fill="none" style="stroke:#000000;stroke-width:3.0;"/><line style="stroke:#000000;stroke-width:3.0;" x1="12" x2="170" y1="56.5938" y2="56.5938"/><text fill="#000000" font-family="sans-serif" font-size="28" font-weight="bold" lengthAdjust="spacing" textLength="132" x="20" y="41.9902">Platform</text></g><!--cluster Application--><g id="cluster_Application"><rect fill="none" height="336" rx="5" ry="5" style="stroke:#181818;stroke-width:2.0;" width="686" x="60" y="98"/><path d="M254,98 L254,116.5938 L234,136.5938 L60,136.5938 " fill="none" style="stroke:#181818;stroke-width:2.0;"/><text fill="#000000" font-family="sans-serif" font-size="28" font-weight="bold" lengthAdjust="spacing" textLength="174" x="66" y="125.9902">Application</text></g><!--cluster Other Project--><g id="cluster_Other Project"><path d="M1081,530 L1295,530 A7.5,7.5 0 0 1 1300,535 L1314,574.5938 L2133,574.5938 A5,5 0 0 1 2138,579.5938 L2138,707 A5,5 0 0 1 2133,712 L1081,712 A5,5 0 0 1 1076,707 L1076,535 A5,5 0 0 1 1081,530 " fill="none" style="stroke:#000000;stroke-width:3.0;"/><line style="stroke:#000000;stroke-width:3.0;" x1="1076" x2="1314" y1="574.5938" y2="574.5938"/><text fill="#000000" font-family="sans-serif" font-size="28" font-weight="bold" lengthAdjust="spacing" textLength="212" x="1084" y="559.9902">Other Project</text></g><!--entity platform__notification_service--><g id="elem_platform__notification_service"><rect fill="#FFE4B5" height="72.5938" rx="5" ry="5" style="stroke:#181818;stroke-width:1.0;" width="300" x="1111" y="168"/><text fill="#000000" font-family="sans-serif" font-size="28" lengthAdjust="spacing" textLength="260" x="1131" y="213.9902">Notification Service</text></g><g id="elem_GMN8"><path d="M1568,164 L1568,196 L1411.26,204 L1568,212 L1568,244.5313 A0,0 0 0 0 1568,244.5313 L2074,244.5313 A0,0 0 0 0 2074,244.5313 L2074,184 L2054,164 L1568,164 A0,0 0 0 0 1568,164 " fill="#FEFFDD" style="stroke:#181818;stroke-width:1.0;"/><path d="M2054,164 L2054,184 L2074,184 L2054,164 " fill="#FEFFDD" style="stroke:#181818;stroke-width:1.0;"/><text fill="#000000" font-family="sans-serif" font-size="26" font-weight="bold" lengthAdjust="spacing" textLength="242" x="1580" y="198.1338">HTTP Endpoints:</text><text fill="#000000" font-family="monospace" font-size="26" lengthAdjust="spacing" textLength="464" x="1580" y="228.3994">POST&#160;/notifications/low-stock</text></g><!--entity platform__application__order_service--><g id="elem_platform__application__order_service"><rect fill="#D3D3D3" height="72.5938" rx="5" ry="5" style="stroke:#181818;stroke-width:1.0;" width="226" x="92" y="168"/><text fill="#000000" font-family="sans-serif" font-size="28" lengthAdjust="spacing" textLength="186" x="112" y="213.9902">Order Service</text></g><!--entity platform__application__inventory_service--><g id="elem_platform__application__inventory_service"><rect fill="#87CEEB" height="72.5938" rx="5" ry="5" style="stroke:#181818;stroke-width:4.0;" width="274" x="440" y="168"/><text fill="#000000" font-family="sans-serif" font-size="28" lengthAdjust="spacing" textLength="234" x="460" y="213.9902">Inventory Service</text></g><!--entity platform__application__inventory_database--><g id="elem_platform__application__inventory_database"><path d="M493,331 C493,311 577,311 577,311 C577,311 661,311 661,331 L661,381.5938 C661,401.5938 577,401.5938 577,401.5938 C577,401.5938 493,401.5938 493,381.5938 L493,331 " fill="#F1F1F1" style="stroke:#181818;stroke-width:1.0;"/><path d="M493,331 C493,351 577,351 577,351 C577,351 661,351 661,331 " fill="none" style="stroke:#181818;stroke-width:1.0;"/><text fill="#000000" font-family="sans-serif" font-size="28" lengthAdjust="spacing" textLength="128" x="513" y="384.9902">database</text></g><!--entity other_project__warehouse_service--><g id="elem_other_project__warehouse_service"><rect fill="#F08080" height="72.5938" rx="5" ry="5" style="stroke:#181818;stroke-width:1.0;" width="306" x="1108" y="602"/><text fill="#000000" font-family="sans-serif" font-size="28" lengthAdjust="spacing" textLength="266" x="1128" y="647.9902">Warehouse Service</text></g><g id="elem_GMN13"><path d="M1536,600 L1536,630.98 L1414.2,638.54 L1536,646.98 L1536,680.5313 A0,0 0 0 0 1536,680.5313 L2106,680.5313 A0,0 0 0 0 2106,680.5313 L2106,620 L2086,600 L1536,600 A0,0 0 0 0 1536,600 " fill="#FEFFDD" style="stroke:#181818;stroke-width:1.0;"/><path d="M2086,600 L2086,620 L2106,620 L2086,600 " fill="#FEFFDD" style="stroke:#181818;stroke-width:1.0;"/><text fill="#000000" font-family="sans-serif" font-size="26" font-weight="bold" lengthAdjust="spacing" textLength="242" x="1548" y="634.1338">HTTP Endpoints:</text><text fill="#000000" font-family="monospace" font-size="26" lengthAdjust="spacing" textLength="528" x="1548" y="664.3994">GET&#160;/warehouses/stock/{productId}</text></g><!--link platform__application__order_service to platform__application__inventory_service--><g id="link_platform__application__order_service_platform__application__inventory_service"><path d="M318.42,204 C356.7,204 387.98,204 427.94,204 " fill="none" id="platform__application__order_service-to-platform__application__inventory_service" style="stroke:#181818;stroke-width:2.0;"/><polygon fill="#181818" points="439.94,204,421.94,196,429.94,204,421.94,212,439.94,204" style="stroke:#181818;stroke-width:2.0;"/></g><!--reverse link platform__application__inventory_database to platform__application__inventory_service--><g id="link_platform__application__inventory_database_platform__application__inventory_service"><path d="M577,298.88 C577,275.5 577,264.12 577,240.74 " fill="none" id="platform__application__inventory_database-backto-platform__application__inventory_service" style="stroke:#181818;stroke-width:2.0;"/><polygon fill="#181818" points="577,310.88,585,292.88,577,300.88,569,292.88,577,310.88" style="stroke:#181818;stroke-width:2.0;"/></g><!--link platform__application__inventory_service to platform__notification_service--><g id="link_platform__application__inventory_service_platform__notification_service"><path d="M714.16,204 C828.62,204 980.44,204 1098.52,204 " fill="none" id="platform__application__inventory_service-to-platform__notification_service" style="stroke:#181818;stroke-width:2.0;"/><polygon fill="#181818" points="1110.52,204,1092.52,196,1100.52,204,1092.52,212,1110.52,204" style="stroke:#181818;stroke-width:2.0;"/><text fill="#000000" font-family="sans-serif" font-size="26" lengthAdjust="spacing" textLength="42" x="890" y="196.1338">JWT</text></g><!--link platform__application__inventory_service to other_project__warehouse_service--><g id="link_platform__application__inventory_service_other_project__warehouse_service"><path d="M714.12,236.62 C732.66,246.48 749.56,259.3 762,276 C787.06,309.62 758.68,426.78 778,464 C794.58,495.92 808.28,499.06 840,516 C923.54,560.62 1013.6913,588.0443 1096.0713,607.1843 " fill="none" id="platform__application__inventory_service-to-other_project__warehouse_service" style="stroke:#181818;stroke-width:2.0;"/><polygon fill="#181818" points="1107.76,609.9,1092.0375,598.034,1098.0194,607.6369,1088.4165,613.6189,1107.76,609.9" style="stroke:#181818;stroke-width:2.0;"/><text fill="#000000" font-family="sans-serif" font-size="26" lengthAdjust="spacing" textLength="138" x="842" y="508.1338">Basic-Auth</text></g><rect fill="none" height="158.375" id="_legend" rx="15" ry="15" style="stroke:#FFFFFF;stroke-width:2.0;" width="348" x="24" y="748"/><text fill="#000000" font-family="sans-serif" font-size="28" lengthAdjust="spacing" textLength="72" x="42" y="787.9902">Color</text><text fill="#000000" font-family="sans-serif" font-size="28" lengthAdjust="spacing" textLength="182" x="130" y="787.9902">Belongs to ...</text><rect fill="#ADD8E6" height="32.5938" style="stroke:none;stroke-width:2.0;" width="88" x="34" y="794.5938"/><text fill="#000000" font-family="sans-serif" font-size="28" lengthAdjust="spacing" textLength="8" x="34" y="820.584">&#160;</text><text fill="#000000" font-family="sans-serif" font-size="28" lengthAdjust="spacing" textLength="230" x="130" y="820.584">our components</text><rect fill="#FFE4B5" height="32.5938" style="stroke:none;stroke-width:2.0;" width="88" x="34" y="827.1875"/><text fill="#000000" font-family="sans-serif" font-size="28" lengthAdjust="spacing" textLength="8" x="34" y="853.1777">&#160;</text><text fill="#000000" font-family="sans-serif" font-size="28" lengthAdjust="spacing" textLength="232" x="130" y="853.1777">same application</text><rect fill="#F08080" height="32.5938" style="stroke:none;stroke-width:2.0;" width="88" x="34" y="859.7813"/><text fill="#000000" font-family="sans-serif" font-size="28" lengthAdjust="spacing" textLength="8" x="34" y="885.7715">&#160;</text><text fill="#000000" font-family="sans-serif" font-size="28" lengthAdjust="spacing" textLength="122" x="130" y="885.7715">3rd party</text><line style="stroke:#000000;stroke-width:2.0;" x1="34" x2="362" y1="762" y2="762"/><line style="stroke:#000000;stroke-width:2.0;" x1="34" x2="362" y1="794.5938" y2="794.5938"/><line style="stroke:#000000;stroke-width:2.0;" x1="34" x2="362" y1="827.1875" y2="827.1875"/><line style="stroke:#000000;stroke-width:2.0;" x1="34" x2="362" y1="859.7813" y2="859.7813"/><line style="stroke:#000000;stroke-width:2.0;" x1="34" x2="362" y1="892.375" y2="892.375"/><line style="stroke:#000000;stroke-width:2.0;" x1="34" x2="34" y1="762" y2="892.375"/><line style="stroke:#000000;stroke-width:2.0;" x1="122" x2="122" y1="762" y2="892.375"/><line style="stroke:#000000;stroke-width:2.0;" x1="362" x2="362" y1="762" y2="892.375"/></g></svg>