<?xml version="1.0" encoding="us-ascii" standalone="no"?><svg xmlns="http://www.w3.org/2000/svg" xmlns:xlink="http://www.w3.org/1999/xlink" contentStyleType="text/css" height="456px" preserveAspectRatio="none" style="width:1472px;height:456px;background:#FFFFFF;" version="1.1" viewBox="0 0 1472 456" width="1472px" zoomAndPan="magnify"><defs/><g><!--cluster Platform--><g id="cluster_Platform"><path d="M8.5,6 L75.5,6 A3.75,3.75 0 0 1 78,8.5 L85,28.2969 L1462.5,28.2969 A2.5,2.5 0 0 1 1465,30.7969 L1465,353.5 A2.5,2.5 0 0 1 1462.5,356 L8.5,356 A2.5,2.5 0 0 1 6,353.5 L6,8.5 A2.5,2.5 0 0 1 8.5,6 " fill="none" style="stroke:#000000;stroke-width:1.5;"/><line style="stroke:#000000;stroke-width:1.5;" x1="6" x2="85" y1="28.2969" y2="28.2969"/><text fill="#000000" font-family="sans-serif" font-size="14" font-weight="bold" lengthAdjust="spacing" textLength="66" x="10" y="20.9951">Platform</text></g><!--cluster Application--><g id="cluster_Application"><rect fill="none" height="168" rx="2.5" ry="2.5" style="stroke:#181818;stroke-width:1.0;" width="871" x="30" y="164"/><path d="M127,164 L127,173.2969 L117,183.2969 L30,183.2969 " fill="none" style="stroke:#181818;stroke-width:1.0;"/><text fill="#000000" font-family="sans-serif" font-size="14" font-weight="bold" lengthAdjust="spacing" textLength="87" x="33" y="177.9951">Application</text></g><!--entity platform__notification_service--><g id="elem_platform__notification_service"><rect fill="#FFE4B5" height="36.2969" rx="2.5" ry="2.5" style="stroke:#181818;stroke-width:0.5;" width="150" x="659.5" y="112"/><text fill="#000000" font-family="sans-serif" font-size="14" lengthAdjust="spacing" textLength="130" x="669.5" y="134.9951">Notification Service</text></g><!--entity platform__payment_service--><g id="elem_platform__payment_service"><rect fill="#FFE4B5" height="36.2969" rx="2.5" ry="2.5" style="stroke:#181818;stroke-width:0.5;" width="134" x="667.5" y="41"/><text fill="#000000" font-family="sans-serif" font-size="14" lengthAdjust="spacing" textLength="114" x="677.5" y="63.9951">Payment Service</text></g><g id="elem_GMN13"><path d="M948,116 L948,128.76 L809.73,130.96 L948,136.76 L948,156.2656 A0,0 0 0 0 948,156.2656 L1449,156.2656 A0,0 0 0 0 1449,156.2656 L1449,126 L1439,116 L948,116 A0,0 0 0 0 948,116 " fill="#FEFFDD" style="stroke:#181818;stroke-width:0.5;"/><path d="M1439,116 L1439,126 L1449,126 L1439,116 " fill="#FEFFDD" style="stroke:#181818;stroke-width:0.5;"/><text fill="#000000" font-family="sans-serif" font-size="13" font-weight="bold" lengthAdjust="spacing" textLength="121" x="954" y="133.0669">HTTP Endpoints:</text><text fill="#000000" font-family="monospace" font-size="13" lengthAdjust="spacing" textLength="480" x="954" y="148.1997">POST&#160;/notifications/customer/{customerId}/order-confirmation</text></g><g id="elem_GMN16"><path d="M1127.5,41 L1127.5,56.7 L801.69,59.29 L1127.5,64.7 L1127.5,81.2656 A0,0 0 0 0 1127.5,81.2656 L1269.5,81.2656 A0,0 0 0 0 1269.5,81.2656 L1269.5,51 L1259.5,41 L1127.5,41 A0,0 0 0 0 1127.5,41 " fill="#FEFFDD" style="stroke:#181818;stroke-width:0.5;"/><path d="M1259.5,41 L1259.5,51 L1269.5,51 L1259.5,41 " fill="#FEFFDD" style="stroke:#181818;stroke-width:0.5;"/><text fill="#000000" font-family="sans-serif" font-size="13" font-weight="bold" lengthAdjust="spacing" textLength="121" x="1133.5" y="58.0669">HTTP Endpoints:</text><text fill="#000000" font-family="monospace" font-size="13" lengthAdjust="spacing" textLength="112" x="1133.5" y="73.1997">POST&#160;/payments</text></g><!--entity platform__application__frontend--><g id="elem_platform__application__frontend"><rect fill="#D3D3D3" height="36.2969" rx="2.5" ry="2.5" style="stroke:#181818;stroke-width:0.5;" width="83" x="46" y="199"/><text fill="#000000" font-family="sans-serif" font-size="14" lengthAdjust="spacing" textLength="63" x="56" y="221.9951">Frontend</text></g><!--entity platform__application__order_service--><g id="elem_platform__application__order_service"><rect fill="#87CEEB" height="36.2969" rx="2.5" ry="2.5" style="stroke:#181818;stroke-width:2.0;" width="113" x="190" y="199"/><text fill="#000000" font-family="sans-serif" font-size="14" lengthAdjust="spacing" textLength="93" x="200" y="221.9951">Order Service</text></g><!--entity platform__application__order_database--><g id="elem_platform__application__order_database"><path d="M204.5,280.5 C204.5,270.5 246.5,270.5 246.5,270.5 C246.5,270.5 288.5,270.5 288.5,280.5 L288.5,305.7969 C288.5,315.7969 246.5,315.7969 246.5,315.7969 C246.5,315.7969 204.5,315.7969 204.5,305.7969 L204.5,280.5 " fill="#F1F1F1" style="stroke:#181818;stroke-width:0.5;"/><path d="M204.5,280.5 C204.5,290.5 246.5,290.5 246.5,290.5 C246.5,290.5 288.5,290.5 288.5,280.5 " fill="none" style="stroke:#181818;stroke-width:0.5;"/><text fill="#000000" font-family="sans-serif" font-size="14" lengthAdjust="spacing" textLength="64" x="214.5" y="307.4951">database</text></g><!--entity platform__application__inventory_service--><g id="elem_platform__application__inventory_service"><rect fill="#ADD8E6" height="36.2969" rx="2.5" ry="2.5" style="stroke:#181818;stroke-width:0.5;" width="137" x="386" y="216"/><text fill="#000000" font-family="sans-serif" font-size="14" lengthAdjust="spacing" textLength="117" x="396" y="238.9951">Inventory Service</text></g><g id="elem_GMN8"><path d="M584,206.5 L584,230 L523.15,234 L584,238 L584,261.8984 A0,0 0 0 0 584,261.8984 L885,261.8984 A0,0 0 0 0 885,261.8984 L885,216.5 L875,206.5 L584,206.5 A0,0 0 0 0 584,206.5 " fill="#FEFFDD" style="stroke:#181818;stroke-width:0.5;"/><path d="M875,206.5 L875,216.5 L885,216.5 L875,206.5 " fill="#FEFFDD" style="stroke:#181818;stroke-width:0.5;"/><text fill="#000000" font-family="sans-serif" font-size="13" font-weight="bold" lengthAdjust="spacing" textLength="121" x="590" y="223.5669">HTTP Endpoints:</text><text fill="#000000" font-family="monospace" font-size="13" lengthAdjust="spacing" textLength="216" x="590" y="238.6997">GET&#160;&#160;/inventory/{productId}</text><text fill="#000000" font-family="monospace" font-size="13" lengthAdjust="spacing" textLength="280" x="590" y="253.8325">POST&#160;/inventory/{productId}/reserve</text></g><!--link platform__application__frontend to platform__application__order_service--><g id="link_platform__application__frontend_platform__application__order_service"><path d="M129.34,217 C147.78,217 163.86,217 183.79,217 " fill="none" id="platform__application__frontend-to-platform__application__order_service" style="stroke:#181818;stroke-width:1.0;"/><polygon fill="#181818" points="189.79,217,180.79,213,184.79,217,180.79,221,189.79,217" style="stroke:#181818;stroke-width:1.0;"/></g><!--reverse link platform__application__order_database to platform__application__order_service--><g id="link_platform__application__order_database_platform__application__order_service"><path d="M246.5,264.44 C246.5,252.75 246.5,247.06 246.5,235.37 " fill="none" id="platform__application__order_database-backto-platform__application__order_service" style="stroke:#181818;stroke-width:1.0;"/><polygon fill="#181818" points="246.5,270.44,250.5,261.44,246.5,265.44,242.5,261.44,246.5,270.44" style="stroke:#181818;stroke-width:1.0;"/></g><!--link platform__application__order_service to platform__notification_service--><g id="link_platform__application__order_service_platform__notification_service"><path d="M303.25,207.02 C391.01,191.31 555.5539,161.8575 653.5139,144.3175 " fill="none" id="platform__application__order_service-to-platform__notification_service" style="stroke:#181818;stroke-width:1.0;"/><polygon fill="#181818" points="659.42,143.26,649.8559,140.9089,654.4983,144.1412,651.2659,148.7836,659.42,143.26" style="stroke:#181818;stroke-width:1.0;"/><text fill="#000000" font-family="sans-serif" font-size="13" lengthAdjust="spacing" textLength="21" x="444" y="164.0669">JWT</text></g><!--link platform__application__order_service to platform__application__inventory_service--><g id="link_platform__application__order_service_platform__application__inventory_service"><path d="M303.44,228.11 C313.25,229.69 323.4,231.08 333,232 C350.08,233.63 362.581,234.3088 379.841,234.6288 " fill="none" id="platform__application__order_service-to-platform__application__inventory_service" style="stroke:#181818;stroke-width:1.0;"/><polygon fill="#181818" points="385.84,234.74,376.9157,230.5739,380.8409,234.6473,376.7674,238.5725,385.84,234.74" style="stroke:#181818;stroke-width:1.0;"/><text fill="#000000" font-family="sans-serif" font-size="13" lengthAdjust="spacing" textLength="21" x="334" y="228.0669">JWT</text></g><!--link platform__application__order_service to platform__payment_service--><g id="link_platform__application__order_service_platform__payment_service"><path d="M276.22,198.93 C303.55,182.39 346.3,158.25 386,143 C480.74,106.62 590.3039,83.5071 661.3739,70.7871 " fill="none" id="platform__application__order_service-to-platform__payment_service" style="stroke:#181818;stroke-width:1.0;"/><polygon fill="#181818" points="667.28,69.73,657.7161,67.3782,662.3582,70.6109,659.1255,75.253,667.28,69.73" style="stroke:#181818;stroke-width:1.0;"/><text fill="#000000" font-family="sans-serif" font-size="13" lengthAdjust="spacing" textLength="21" x="444" y="97.0669">JWT</text></g><rect fill="none" height="62.8906" id="_legend" rx="7.5" ry="7.5" style="stroke:#FFFFFF;stroke-width:1.0;" width="159" x="12" y="374"/><text fill="#000000" font-family="sans-serif" font-size="14" lengthAdjust="spacing" textLength="36" x="21" y="393.9951">Color</text><text fill="#000000" font-family="sans-serif" font-size="14" lengthAdjust="spacing" textLength="91" x="65" y="393.9951">Belongs to ...</text><rect fill="#ADD8E6" height="16.2969" style="stroke:none;stroke-width:1.0;" width="44" x="17" y="397.2969"/><text fill="#000000" font-family="sans-serif" font-size="14" lengthAdjust="spacing" textLength="4" x="17" y="410.292">&#160;</text><text fill="#000000" font-family="sans-serif" font-size="14" lengthAdjust="spacing" textLength="101" x="65" y="410.292">our application</text><rect fill="#FFE4B5" height="16.2969" style="stroke:none;stroke-width:1.0;" width="44" x="17" y="413.5938"/><text fill="#000000" font-family="sans-serif" font-size="14" lengthAdjust="spacing" textLength="4" x="17" y="426.5889">&#160;</text><text fill="#000000" font-family="sans-serif" font-size="14" lengthAdjust="spacing" textLength="98" x="65" y="426.5889">same platform</text><line style="stroke:#000000;stroke-width:1.0;" x1="17" x2="166" y1="381" y2="381"/><line style="stroke:#000000;stroke-width:1.0;" x1="17" x2="166" y1="397.2969" y2="397.2969"/><line style="stroke:#000000;stroke-width:1.0;" x1="17" x2="166" y1="413.5938" y2="413.5938"/><line style="stroke:#000000;stroke-width:1.0;" x1="17" x2="166" y1="429.8906" y2="429.8906"/><line style="stroke:#000000;stroke-width:1.0;" x1="17" x2="17" y1="381" y2="429.8906"/><line style="stroke:#000000;stroke-width:1.0;" x1="61" x2="61" y1="381" y2="429.8906"/><line style="stroke:#000000;stroke-width:1.0;" x1="166" x2="166" y1="381" y2="429.8906"/></g></svg>