<?xml version="1.0" encoding="us-ascii" standalone="no"?><svg xmlns="http://www.w3.org/2000/svg" xmlns:xlink="http://www.w3.org/1999/xlink" contentStyleType="text/css" height="396px" preserveAspectRatio="none" style="width:1121px;height:396px;background:#FFFFFF;" version="1.1" viewBox="0 0 1121 396" width="1121px" zoomAndPan="magnify"><defs/><g><!--cluster Platform--><g id="cluster_Platform"><path d="M8.5,6 L75.5,6 A3.75,3.75 0 0 1 78,8.5 L85,28.2969 L922.5,28.2969 A2.5,2.5 0 0 1 925,30.7969 L925,238.5 A2.5,2.5 0 0 1 922.5,241 L8.5,241 A2.5,2.5 0 0 1 6,238.5 L6,8.5 A2.5,2.5 0 0 1 8.5,6 " fill="none" style="stroke:#000000;stroke-width:1.5;"/><line style="stroke:#000000;stroke-width:1.5;" x1="6" x2="85" y1="28.2969" y2="28.2969"/><text fill="#000000" font-family="sans-serif" font-size="14" font-weight="bold" lengthAdjust="spacing" textLength="66" x="10" y="20.9951">Platform</text></g><!--cluster Application--><g id="cluster_Application"><rect fill="none" height="168" rx="2.5" ry="2.5" style="stroke:#181818;stroke-width:1.0;" width="871" x="30" y="49"/><path d="M127,49 L127,58.2969 L117,68.2969 L30,68.2969 " fill="none" style="stroke:#181818;stroke-width:1.0;"/><text fill="#000000" font-family="sans-serif" font-size="14" font-weight="bold" lengthAdjust="spacing" textLength="87" x="33" y="62.9951">Application</text></g><!--entity platform__application__frontend--><g id="elem_platform__application__frontend"><rect fill="#D3D3D3" height="36.2969" rx="2.5" ry="2.5" style="stroke:#181818;stroke-width:0.5;" width="83" x="46" y="84"/><text fill="#000000" font-family="sans-serif" font-size="14" lengthAdjust="spacing" textLength="63" x="56" y="106.9951">Frontend</text></g><!--entity platform__application__order_service--><g id="elem_platform__application__order_service"><rect fill="#87CEEB" height="36.2969" rx="2.5" ry="2.5" style="stroke:#181818;stroke-width:2.0;" width="113" x="190" y="84"/><text fill="#000000" font-family="sans-serif" font-size="14" lengthAdjust="spacing" textLength="93" x="200" y="106.9951">Order Service</text></g><!--entity platform__application__order_database--><g id="elem_platform__application__order_database"><path d="M204.5,165.5 C204.5,155.5 246.5,155.5 246.5,155.5 C246.5,155.5 288.5,155.5 288.5,165.5 L288.5,190.7969 C288.5,200.7969 246.5,200.7969 246.5,200.7969 C246.5,200.7969 204.5,200.7969 204.5,190.7969 L204.5,165.5 " fill="#F1F1F1" style="stroke:#181818;stroke-width:0.5;"/><path d="M204.5,165.5 C204.5,175.5 246.5,175.5 246.5,175.5 C246.5,175.5 288.5,175.5 288.5,165.5 " fill="none" style="stroke:#181818;stroke-width:0.5;"/><text fill="#000000" font-family="sans-serif" font-size="14" lengthAdjust="spacing" textLength="64" x="214.5" y="192.4951">database</text></g><!--entity platform__application__inventory_service--><g id="elem_platform__application__inventory_service"><rect fill="#ADD8E6" height="36.2969" rx="2.5" ry="2.5" style="stroke:#181818;stroke-width:0.5;" width="137" x="386" y="88"/><text fill="#000000" font-family="sans-serif" font-size="14" lengthAdjust="spacing" textLength="117" x="396" y="110.9951">Inventory Service</text></g><g id="elem_GMN8"><path d="M584,84.5 L584,104.77 L523.15,107.46 L584,112.77 L584,139.8984 A0,0 0 0 0 584,139.8984 L885,139.8984 A0,0 0 0 0 885,139.8984 L885,94.5 L875,84.5 L584,84.5 A0,0 0 0 0 584,84.5 " fill="#FEFFDD" style="stroke:#181818;stroke-width:0.5;"/><path d="M875,84.5 L875,94.5 L885,94.5 L875,84.5 " fill="#FEFFDD" style="stroke:#181818;stroke-width:0.5;"/><text fill="#000000" font-family="sans-serif" font-size="13" font-weight="bold" lengthAdjust="spacing" textLength="121" x="590" y="101.5669">HTTP Endpoints:</text><text fill="#000000" font-family="monospace" font-size="13" lengthAdjust="spacing" textLength="216" x="590" y="116.6997">GET&#160;&#160;/inventory/{productId}</text><text fill="#000000" font-family="monospace" font-size="13" lengthAdjust="spacing" textLength="280" x="590" y="131.8325">POST&#160;/inventory/{productId}/reserve</text></g><!--entity payment_service--><g id="elem_payment_service"><rect fill="#FFE4B5" height="36.2969" rx="2.5" ry="2.5" style="stroke:#181818;stroke-width:0.5;" width="134" x="667.5" y="257"/><text fill="#000000" font-family="sans-serif" font-size="14" lengthAdjust="spacing" textLength="114" x="677.5" y="279.9951">payment-service</text></g><g id="elem_GMN12"><path d="M972,255 L972,271 L801.63,275 L972,279 L972,295.2656 A0,0 0 0 0 972,295.2656 L1114,295.2656 A0,0 0 0 0 1114,295.2656 L1114,265 L1104,255 L972,255 A0,0 0 0 0 972,255 " fill="#FEFFDD" style="stroke:#181818;stroke-width:0.5;"/><path d="M1104,255 L1104,265 L1114,265 L1104,255 " fill="#FEFFDD" style="stroke:#181818;stroke-width:0.5;"/><text fill="#000000" font-family="sans-serif" font-size="13" font-weight="bold" lengthAdjust="spacing" textLength="121" x="978" y="272.0669">HTTP Endpoints:</text><text fill="#000000" font-family="monospace" font-size="13" lengthAdjust="spacing" textLength="112" x="978" y="287.1997">POST&#160;/payments</text></g><!--link platform__application__frontend to platform__application__order_service--><g id="link_platform__application__frontend_platform__application__order_service"><path d="M129.34,102 C147.78,102 163.86,102 183.79,102 " fill="none" id="platform__application__frontend-to-platform__application__order_service" style="stroke:#181818;stroke-width:1.0;"/><polygon fill="#181818" points="189.79,102,180.79,98,184.79,102,180.79,106,189.79,102" style="stroke:#181818;stroke-width:1.0;"/></g><!--reverse link platform__application__order_database to platform__application__order_service--><g id="link_platform__application__order_database_platform__application__order_service"><path d="M246.5,149.44 C246.5,137.75 246.5,132.06 246.5,120.37 " fill="none" id="platform__application__order_database-backto-platform__application__order_service" style="stroke:#181818;stroke-width:1.0;"/><polygon fill="#181818" points="246.5,155.44,250.5,146.44,246.5,150.44,242.5,146.44,246.5,155.44" style="stroke:#181818;stroke-width:1.0;"/></g><!--link platform__application__order_service to payment_service--><g id="link_platform__application__order_service_payment_service"><path d="M290.29,120.07 C317.53,131.38 353.65,146.03 386,158 C487.49,195.56 601.7161,232.9992 670.8461,255.1492 " fill="none" id="platform__application__order_service-to-payment_service" style="stroke:#181818;stroke-width:1.0;"/><polygon fill="#181818" points="676.56,256.98,669.2097,250.4246,671.7984,255.4543,666.7687,258.0431,676.56,256.98" style="stroke:#181818;stroke-width:1.0;"/><text fill="#000000" font-family="sans-serif" font-size="13" lengthAdjust="spacing" textLength="21" x="444" y="154.0669">JWT</text></g><!--link platform__application__order_service to platform__application__inventory_service--><g id="link_platform__application__order_service_platform__application__inventory_service"><path d="M303.25,103.08 C328.75,103.58 353.1811,104.0536 379.9711,104.5736 " fill="none" id="platform__application__order_service-to-platform__application__inventory_service" style="stroke:#181818;stroke-width:1.0;"/><polygon fill="#181818" points="385.97,104.69,377.0493,100.5161,380.9709,104.593,376.8941,108.5146,385.97,104.69" style="stroke:#181818;stroke-width:1.0;"/><text fill="#000000" font-family="sans-serif" font-size="13" lengthAdjust="spacing" textLength="21" x="334" y="100.0669">JWT</text></g><rect fill="none" height="62.8906" id="_legend" rx="7.5" ry="7.5" style="stroke:#FFFFFF;stroke-width:1.0;" width="159" x="12" y="313.2656"/><text fill="#000000" font-family="sans-serif" font-size="14" lengthAdjust="spacing" textLength="36" x="21" y="333.2607">Color</text><text fill="#000000" font-family="sans-serif" font-size="14" lengthAdjust="spacing" textLength="91" x="65" y="333.2607">Belongs to ...</text><rect fill="#ADD8E6" height="16.2969" style="stroke:none;stroke-width:1.0;" width="44" x="17" y="336.5625"/><text fill="#000000" font-family="sans-serif" font-size="14" lengthAdjust="spacing" textLength="4" x="17" y="349.5576">&#160;</text><text fill="#000000" font-family="sans-serif" font-size="14" lengthAdjust="spacing" textLength="101" x="65" y="349.5576">our application</text><rect fill="#FFE4B5" height="16.2969" style="stroke:none;stroke-width:1.0;" width="44" x="17" y="352.8594"/><text fill="#000000" font-family="sans-serif" font-size="14" lengthAdjust="spacing" textLength="4" x="17" y="365.8545">&#160;</text><text fill="#000000" font-family="sans-serif" font-size="14" lengthAdjust="spacing" textLength="98" x="65" y="365.8545">same platform</text><line style="stroke:#000000;stroke-width:1.0;" x1="17" x2="166" y1="320.2656" y2="320.2656"/><line style="stroke:#000000;stroke-width:1.0;" x1="17" x2="166" y1="336.5625" y2="336.5625"/><line style="stroke:#000000;stroke-width:1.0;" x1="17" x2="166" y1="352.8594" y2="352.8594"/><line style="stroke:#000000;stroke-width:1.0;" x1="17" x2="166" y1="369.1563" y2="369.1563"/><line style="stroke:#000000;stroke-width:1.0;" x1="17" x2="17" y1="320.2656" y2="369.1563"/><line style="stroke:#000000;stroke-width:1.0;" x1="61" x2="61" y1="320.2656" y2="369.1563"/><line style="stroke:#000000;stroke-width:1.0;" x1="166" x2="166" y1="320.2656" y2="369.1563"/></g></svg>