<?xml version="1.0" encoding="us-ascii" standalone="no"?><svg xmlns="http://www.w3.org/2000/svg" xmlns:xlink="http://www.w3.org/1999/xlink" contentStyleType="text/css" height="211px" preserveAspectRatio="none" style="width:639px;height:211px;background:#FFFFFF;" version="1.1" viewBox="0 0 639 211" width="639px" zoomAndPan="magnify"><defs/><g><!--cluster Platform--><g id="cluster_Platform"><path d="M8.5,6 L75.5,6 A3.75,3.75 0 0 1 78,8.5 L85,28.2969 L629.5,28.2969 A2.5,2.5 0 0 1 632,30.7969 L632,90.5 A2.5,2.5 0 0 1 629.5,93 L8.5,93 A2.5,2.5 0 0 1 6,90.5 L6,8.5 A2.5,2.5 0 0 1 8.5,6 " fill="none" style="stroke:#000000;stroke-width:1.5;"/><line style="stroke:#000000;stroke-width:1.5;" x1="6" x2="85" y1="28.2969" y2="28.2969"/><text fill="#000000" font-family="sans-serif" font-size="14" font-weight="bold" lengthAdjust="spacing" textLength="66" x="10" y="20.9951">Platform</text></g><!--cluster Other Project--><g id="cluster_Other Project"><path d="M448.5,117 L555.5,117 A3.75,3.75 0 0 1 558,119.5 L565,139.2969 L629.5,139.2969 A2.5,2.5 0 0 1 632,141.7969 L632,201.5 A2.5,2.5 0 0 1 629.5,204 L448.5,204 A2.5,2.5 0 0 1 446,201.5 L446,119.5 A2.5,2.5 0 0 1 448.5,117 " fill="none" style="stroke:#000000;stroke-width:1.5;"/><line style="stroke:#000000;stroke-width:1.5;" x1="446" x2="565" y1="139.2969" y2="139.2969"/><text fill="#000000" font-family="sans-serif" font-size="14" font-weight="bold" lengthAdjust="spacing" textLength="106" x="450" y="131.9951">Other Project</text></g><!--entity platform__application__backend_service_1--><g id="elem_platform__application__backend_service_1"><rect fill="#D3D3D3" height="36.2969" rx="2.5" ry="2.5" style="stroke:#181818;stroke-width:0.5;" width="160" x="22" y="41"/><text fill="#000000" font-family="sans-serif" font-size="14" lengthAdjust="spacing" textLength="140" x="32" y="63.9951">Backend Service #1</text></g><!--entity platform__application__backend_service_2--><g id="elem_platform__application__backend_service_2"><rect fill="#87CEEB" height="36.2969" rx="2.5" ry="2.5" style="stroke:#181818;stroke-width:2.0;" width="160" x="242" y="41"/><text fill="#000000" font-family="sans-serif" font-size="14" lengthAdjust="spacing" textLength="140" x="252" y="63.9951">Backend Service #2</text></g><!--entity platform__external_service_2--><g id="elem_platform__external_service_2"><rect fill="#FFE4B5" height="36.2969" rx="2.5" ry="2.5" style="stroke:#181818;stroke-width:0.5;" width="154" x="462" y="41"/><text fill="#000000" font-family="sans-serif" font-size="14" lengthAdjust="spacing" textLength="134" x="472" y="63.9951">External Service #2</text></g><!--entity other_project__external_service_3--><g id="elem_other_project__external_service_3"><rect fill="#F08080" height="36.2969" rx="2.5" ry="2.5" style="stroke:#181818;stroke-width:0.5;" width="154" x="462" y="152"/><text fill="#000000" font-family="sans-serif" font-size="14" lengthAdjust="spacing" textLength="134" x="472" y="174.9951">External Service #3</text></g><!--link platform__application__backend_service_1 to platform__application__backend_service_2--><g id="link_platform__application__backend_service_1_platform__application__backend_service_2"><path d="M182.01,59 C201.51,59 216.39,59 235.89,59 " fill="none" id="platform__application__backend_service_1-to-platform__application__backend_service_2" style="stroke:#181818;stroke-width:1.0;"/><polygon fill="#181818" points="241.89,59,232.89,55,236.89,59,232.89,63,241.89,59" style="stroke:#181818;stroke-width:1.0;"/></g><!--link platform__application__backend_service_2 to platform__external_service_2--><g id="link_platform__application__backend_service_2_platform__external_service_2"><path d="M402.14,59 C421.66,59 436.52,59 455.89,59 " fill="none" id="platform__application__backend_service_2-to-platform__external_service_2" style="stroke:#181818;stroke-width:1.0;"/><polygon fill="#181818" points="461.89,59,452.89,55,456.89,59,452.89,63,461.89,59" style="stroke:#181818;stroke-width:1.0;"/></g><!--link platform__application__backend_service_2 to other_project__external_service_3--><g id="link_platform__application__backend_service_2_other_project__external_service_3"><path d="M358.02,77.08 C398,97.72 457.6888,128.5371 497.6588,149.1771 " fill="none" id="platform__application__backend_service_2-to-other_project__external_service_3" style="stroke:#181818;stroke-width:1.0;"/><polygon fill="#181818" points="502.99,151.93,496.8286,144.2465,498.5474,149.6359,493.158,151.3547,502.99,151.93" style="stroke:#181818;stroke-width:1.0;"/></g></g></svg>