<?xml version="1.0" encoding="us-ascii" standalone="no"?><svg xmlns="http://www.w3.org/2000/svg" xmlns:xlink="http://www.w3.org/1999/xlink" contentStyleType="text/css" height="244px" preserveAspectRatio="none" style="width:396px;height:244px;background:#FFFFFF;" version="1.1" viewBox="0 0 396 244" width="396px" zoomAndPan="magnify"><defs/><g><!--cluster Platform--><g id="cluster_Platform"><path d="M8.5,6 L75.5,6 A3.75,3.75 0 0 1 78,8.5 L85,28.2969 L386.5,28.2969 A2.5,2.5 0 0 1 389,30.7969 L389,157.5 A2.5,2.5 0 0 1 386.5,160 L8.5,160 A2.5,2.5 0 0 1 6,157.5 L6,8.5 A2.5,2.5 0 0 1 8.5,6 " fill="none" style="stroke:#000000;stroke-width:1.5;"/><line style="stroke:#000000;stroke-width:1.5;" x1="6" x2="85" y1="28.2969" y2="28.2969"/><text fill="#000000" font-family="sans-serif" font-size="14" font-weight="bold" lengthAdjust="spacing" textLength="66" x="10" y="20.9951">Platform</text></g><!--cluster Application--><g id="cluster_Application"><rect fill="none" height="87" rx="2.5" ry="2.5" style="stroke:#181818;stroke-width:1.0;" width="335" x="30" y="49"/><path d="M127,49 L127,58.2969 L117,68.2969 L30,68.2969 " fill="none" style="stroke:#181818;stroke-width:1.0;"/><text fill="#000000" font-family="sans-serif" font-size="14" font-weight="bold" lengthAdjust="spacing" textLength="87" x="33" y="62.9951">Application</text></g><!--entity platform__application__frontend--><g id="elem_platform__application__frontend"><rect fill="#87CEEB" height="36.2969" rx="2.5" ry="2.5" style="stroke:#181818;stroke-width:2.0;" width="83" x="46" y="84"/><text fill="#000000" font-family="sans-serif" font-size="14" lengthAdjust="spacing" textLength="63" x="56" y="106.9951">Frontend</text></g><!--entity platform__application__backend_service_1--><g id="elem_platform__application__backend_service_1"><rect fill="#ADD8E6" height="36.2969" rx="2.5" ry="2.5" style="stroke:#181818;stroke-width:0.5;" width="160" x="189" y="84"/><text fill="#000000" font-family="sans-serif" font-size="14" lengthAdjust="spacing" textLength="140" x="199" y="106.9951">Backend Service #1</text></g><!--link platform__application__frontend to platform__application__backend_service_1--><g id="link_platform__application__frontend_platform__application__backend_service_1"><path d="M129.23,102 C146.92,102 162.27,102 182.87,102 " fill="none" id="platform__application__frontend-to-platform__application__backend_service_1" style="stroke:#181818;stroke-width:1.0;"/><polygon fill="#181818" points="188.87,102,179.87,98,183.87,102,179.87,106,188.87,102" style="stroke:#181818;stroke-width:1.0;"/></g><rect fill="none" height="46.5938" id="_legend" rx="7.5" ry="7.5" style="stroke:#FFFFFF;stroke-width:1.0;" width="159" x="12" y="178"/><text fill="#000000" font-family="sans-serif" font-size="14" lengthAdjust="spacing" textLength="36" x="21" y="197.9951">Color</text><text fill="#000000" font-family="sans-serif" font-size="14" lengthAdjust="spacing" textLength="91" x="65" y="197.9951">Belongs to ...</text><rect fill="#ADD8E6" height="16.2969" style="stroke:none;stroke-width:1.0;" width="44" x="17" y="201.2969"/><text fill="#000000" font-family="sans-serif" font-size="14" lengthAdjust="spacing" textLength="4" x="17" y="214.292">&#160;</text><text fill="#000000" font-family="sans-serif" font-size="14" lengthAdjust="spacing" textLength="101" x="65" y="214.292">our application</text><line style="stroke:#000000;stroke-width:1.0;" x1="17" x2="166" y1="185" y2="185"/><line style="stroke:#000000;stroke-width:1.0;" x1="17" x2="166" y1="201.2969" y2="201.2969"/><line style="stroke:#000000;stroke-width:1.0;" x1="17" x2="166" y1="217.5938" y2="217.5938"/><line style="stroke:#000000;stroke-width:1.0;" x1="17" x2="17" y1="185" y2="217.5938"/><line style="stroke:#000000;stroke-width:1.0;" x1="61" x2="61" y1="185" y2="217.5938"/><line style="stroke:#000000;stroke-width:1.0;" x1="166" x2="166" y1="185" y2="217.5938"/></g></svg>