<?xml version="1.0" encoding="us-ascii" standalone="no"?><svg xmlns="http://www.w3.org/2000/svg" xmlns:xlink="http://www.w3.org/1999/xlink" contentStyleType="text/css" height="488px" preserveAspectRatio="none" style="width:698px;height:488px;background:#FFFFFF;" version="1.1" viewBox="0 0 698 488" width="698px" zoomAndPan="magnify"><defs/><g><!--cluster Platform--><g id="cluster_Platform"><path d="M17,12 L151,12 A7.5,7.5 0 0 1 156,17 L170,56.5938 L679,56.5938 A5,5 0 0 1 684,61.5938 L684,315 A5,5 0 0 1 679,320 L17,320 A5,5 0 0 1 12,315 L12,17 A5,5 0 0 1 17,12 " fill="none" style="stroke:#000000;stroke-width:3.0;"/><line style="stroke:#000000;stroke-width:3.0;" x1="12" x2="170" y1="56.5938" y2="56.5938"/><text fill="#000000" font-family="sans-serif" font-size="28" font-weight="bold" lengthAdjust="spacing" textLength="132" x="20" y="41.9902">Platform</text></g><!--cluster Application--><g id="cluster_Application"><rect fill="none" height="174" rx="5" ry="5" style="stroke:#181818;stroke-width:2.0;" width="576" x="60" y="98"/><path d="M254,98 L254,116.5938 L234,136.5938 L60,136.5938 " fill="none" style="stroke:#181818;stroke-width:2.0;"/><text fill="#000000" font-family="sans-serif" font-size="28" font-weight="bold" lengthAdjust="spacing" textLength="174" x="66" y="125.9902">Application</text></g><!--entity platform__application__frontend--><g id="elem_platform__application__frontend"><rect fill="#87CEEB" height="72.5938" rx="5" ry="5" style="stroke:#181818;stroke-width:4.0;" width="166" x="92" y="168"/><text fill="#000000" font-family="sans-serif" font-size="28" lengthAdjust="spacing" textLength="126" x="112" y="213.9902">Frontend</text></g><!--entity platform__application__order_service--><g id="elem_platform__application__order_service"><rect fill="#ADD8E6" height="72.5938" rx="5" ry="5" style="stroke:#181818;stroke-width:1.0;" width="226" x="378" y="168"/><text fill="#000000" font-family="sans-serif" font-size="28" lengthAdjust="spacing" textLength="186" x="398" y="213.9902">Order Service</text></g><!--link platform__application__frontend to platform__application__order_service--><g id="link_platform__application__frontend_platform__application__order_service"><path d="M258.16,204 C294.64,204 326.26,204 365.72,204 " fill="none" id="platform__application__frontend-to-platform__application__order_service" style="stroke:#181818;stroke-width:2.0;"/><polygon fill="#181818" points="377.72,204,359.72,196,367.72,204,359.72,212,377.72,204" style="stroke:#181818;stroke-width:2.0;"/></g><rect fill="none" height="93.1875" id="_legend" rx="15" ry="15" style="stroke:#FFFFFF;stroke-width:2.0;" width="318" x="24" y="356"/><text fill="#000000" font-family="sans-serif" font-size="28" lengthAdjust="spacing" textLength="72" x="42" y="395.9902">Color</text><text fill="#000000" font-family="sans-serif" font-size="28" lengthAdjust="spacing" textLength="182" x="130" y="395.9902">Belongs to ...</text><rect fill="#ADD8E6" height="32.5938" style="stroke:none;stroke-width:2.0;" width="88" x="34" y="402.5938"/><text fill="#000000" font-family="sans-serif" font-size="28" lengthAdjust="spacing" textLength="8" x="34" y="428.584">&#160;</text><text fill="#000000" font-family="sans-serif" font-size="28" lengthAdjust="spacing" textLength="202" x="130" y="428.584">our application</text><line style="stroke:#000000;stroke-width:2.0;" x1="34" x2="332" y1="370" y2="370"/><line style="stroke:#000000;stroke-width:2.0;" x1="34" x2="332" y1="402.5938" y2="402.5938"/><line style="stroke:#000000;stroke-width:2.0;" x1="34" x2="332" y1="435.1875" y2="435.1875"/><line style="stroke:#000000;stroke-width:2.0;" x1="34" x2="34" y1="370" y2="435.1875"/><line style="stroke:#000000;stroke-width:2.0;" x1="122" x2="122" y1="370" y2="435.1875"/><line style="stroke:#000000;stroke-width:2.0;" x1="332" x2="332" y1="370" y2="435.1875"/></g></svg>