<?xml version="1.0" encoding="us-ascii" standalone="no"?><svg xmlns="http://www.w3.org/2000/svg" xmlns:xlink="http://www.w3.org/1999/xlink" contentStyleType="text/css" height="469px" preserveAspectRatio="none" style="width:653px;height:469px;background:#FFFFFF;" version="1.1" viewBox="0 0 653 469" width="653px" zoomAndPan="magnify"><defs/><g><!--cluster Platform--><g id="cluster_Platform"><path d="M8.5,6 L75.5,6 A3.75,3.75 0 0 1 78,8.5 L85,28.2969 L642,28.2969 A2.5,2.5 0 0 1 644.5,30.7969 L644.5,238.5 A2.5,2.5 0 0 1 642,241 L8.5,241 A2.5,2.5 0 0 1 6,238.5 L6,8.5 A2.5,2.5 0 0 1 8.5,6 " fill="none" style="stroke:#000000;stroke-width:1.5;"/><line style="stroke:#000000;stroke-width:1.5;" x1="6" x2="85" y1="28.2969" y2="28.2969"/><text fill="#000000" font-family="sans-serif" font-size="14" font-weight="bold" lengthAdjust="spacing" textLength="66" x="10" y="20.9951">Platform</text></g><!--cluster Application--><g id="cluster_Application"><rect fill="none" height="168" rx="2.5" ry="2.5" style="stroke:#181818;stroke-width:1.0;" width="342" x="30" y="49"/><path d="M127,49 L127,58.2969 L117,68.2969 L30,68.2969 " fill="none" style="stroke:#181818;stroke-width:1.0;"/><text fill="#000000" font-family="sans-serif" font-size="14" font-weight="bold" lengthAdjust="spacing" textLength="87" x="33" y="62.9951">Application</text></g><!--cluster Other Project--><g id="cluster_Other Project"><path d="M463.5,265 L570.5,265 A3.75,3.75 0 0 1 573,267.5 L580,287.2969 L643.5,287.2969 A2.5,2.5 0 0 1 646,289.7969 L646,349.5 A2.5,2.5 0 0 1 643.5,352 L463.5,352 A2.5,2.5 0 0 1 461,349.5 L461,267.5 A2.5,2.5 0 0 1 463.5,265 " fill="none" style="stroke:#000000;stroke-width:1.5;"/><line style="stroke:#000000;stroke-width:1.5;" x1="461" x2="580" y1="287.2969" y2="287.2969"/><text fill="#000000" font-family="sans-serif" font-size="14" font-weight="bold" lengthAdjust="spacing" textLength="106" x="465" y="279.9951">Other Project</text></g><!--entity platform__notification_service--><g id="elem_platform__notification_service"><rect fill="#FFE4B5" height="36.2969" rx="2.5" ry="2.5" style="stroke:#181818;stroke-width:0.5;" width="150" x="478.5" y="84"/><text fill="#000000" font-family="sans-serif" font-size="14" lengthAdjust="spacing" textLength="130" x="488.5" y="106.9951">Notification Service</text></g><!--entity platform__application__order_service--><g id="elem_platform__application__order_service"><rect fill="#D3D3D3" height="36.2969" rx="2.5" ry="2.5" style="stroke:#181818;stroke-width:0.5;" width="113" x="46" y="84"/><text fill="#000000" font-family="sans-serif" font-size="14" lengthAdjust="spacing" textLength="93" x="56" y="106.9951">Order Service</text></g><!--entity platform__application__inventory_service--><g id="elem_platform__application__inventory_service"><rect fill="#87CEEB" height="36.2969" rx="2.5" ry="2.5" style="stroke:#181818;stroke-width:2.0;" width="137" x="219" y="84"/><text fill="#000000" font-family="sans-serif" font-size="14" lengthAdjust="spacing" textLength="117" x="229" y="106.9951">Inventory Service</text></g><!--entity platform__application__inventory_database--><g id="elem_platform__application__inventory_database"><path d="M245.5,165.5 C245.5,155.5 287.5,155.5 287.5,155.5 C287.5,155.5 329.5,155.5 329.5,165.5 L329.5,190.7969 C329.5,200.7969 287.5,200.7969 287.5,200.7969 C287.5,200.7969 245.5,200.7969 245.5,190.7969 L245.5,165.5 " fill="#F1F1F1" style="stroke:#181818;stroke-width:0.5;"/><path d="M245.5,165.5 C245.5,175.5 287.5,175.5 287.5,175.5 C287.5,175.5 329.5,175.5 329.5,165.5 " fill="none" style="stroke:#181818;stroke-width:0.5;"/><text fill="#000000" font-family="sans-serif" font-size="14" lengthAdjust="spacing" textLength="64" x="255.5" y="192.4951">database</text></g><!--entity other_project__warehouse_service--><g id="elem_other_project__warehouse_service"><rect fill="#F08080" height="36.2969" rx="2.5" ry="2.5" style="stroke:#181818;stroke-width:0.5;" width="153" x="477" y="300"/><text fill="#000000" font-family="sans-serif" font-size="14" lengthAdjust="spacing" textLength="133" x="487" y="322.9951">Warehouse Service</text></g><!--link platform__application__order_service to platform__application__inventory_service--><g id="link_platform__application__order_service_platform__application__inventory_service"><path d="M159.4,102 C178.11,102 193.17,102 212.69,102 " fill="none" id="platform__application__order_service-to-platform__application__inventory_service" style="stroke:#181818;stroke-width:1.0;"/><polygon fill="#181818" points="218.69,102,209.69,98,213.69,102,209.69,106,218.69,102" style="stroke:#181818;stroke-width:1.0;"/></g><!--reverse link platform__application__inventory_database to platform__application__inventory_service--><g id="link_platform__application__inventory_database_platform__application__inventory_service"><path d="M287.5,149.44 C287.5,137.75 287.5,132.06 287.5,120.37 " fill="none" id="platform__application__inventory_database-backto-platform__application__inventory_service" style="stroke:#181818;stroke-width:1.0;"/><polygon fill="#181818" points="287.5,155.44,291.5,146.44,287.5,150.44,283.5,146.44,287.5,155.44" style="stroke:#181818;stroke-width:1.0;"/></g><!--link platform__application__inventory_service to platform__notification_service--><g id="link_platform__application__inventory_service_platform__notification_service"><path d="M356.14,102 C393.42,102 433.76,102 472.06,102 " fill="none" id="platform__application__inventory_service-to-platform__notification_service" style="stroke:#181818;stroke-width:1.0;"/><polygon fill="#181818" points="478.06,102,469.06,98,473.06,102,469.06,106,478.06,102" style="stroke:#181818;stroke-width:1.0;"/></g><!--link platform__application__inventory_service to other_project__warehouse_service--><g id="link_platform__application__inventory_service_other_project__warehouse_service"><path d="M353.21,120.2 C362.94,124.91 372.29,130.75 380,138 C407.53,163.87 392.22,185.65 416,215 C445.34,251.22 484.892,278.6515 515.072,296.8515 " fill="none" id="platform__application__inventory_service-to-other_project__warehouse_service" style="stroke:#181818;stroke-width:1.0;"/><polygon fill="#181818" points="520.21,299.95,514.5686,291.8769,515.9283,297.3679,510.4373,298.7276,520.21,299.95" style="stroke:#181818;stroke-width:1.0;"/></g><rect fill="none" height="79.1875" id="_legend" rx="7.5" ry="7.5" style="stroke:#FFFFFF;stroke-width:1.0;" width="174" x="12" y="370"/><text fill="#000000" font-family="sans-serif" font-size="14" lengthAdjust="spacing" textLength="36" x="21" y="389.9951">Color</text><text fill="#000000" font-family="sans-serif" font-size="14" lengthAdjust="spacing" textLength="91" x="65" y="389.9951">Belongs to ...</text><rect fill="#ADD8E6" height="16.2969" style="stroke:none;stroke-width:1.0;" width="44" x="17" y="393.2969"/><text fill="#000000" font-family="sans-serif" font-size="14" lengthAdjust="spacing" textLength="4" x="17" y="406.292">&#160;</text><text fill="#000000" font-family="sans-serif" font-size="14" lengthAdjust="spacing" textLength="115" x="65" y="406.292">our components</text><rect fill="#FFE4B5" height="16.2969" style="stroke:none;stroke-width:1.0;" width="44" x="17" y="409.5938"/><text fill="#000000" font-family="sans-serif" font-size="14" lengthAdjust="spacing" textLength="4" x="17" y="422.5889">&#160;</text><text fill="#000000" font-family="sans-serif" font-size="14" lengthAdjust="spacing" textLength="116" x="65" y="422.5889">same application</text><rect fill="#F08080" height="16.2969" style="stroke:none;stroke-width:1.0;" width="44" x="17" y="425.8906"/><text fill="#000000" font-family="sans-serif" font-size="14" lengthAdjust="spacing" textLength="4" x="17" y="438.8857">&#160;</text><text fill="#000000" font-family="sans-serif" font-size="14" lengthAdjust="spacing" textLength="61" x="65" y="438.8857">3rd party</text><line style="stroke:#000000;stroke-width:1.0;" x1="17" x2="181" y1="377" y2="377"/><line style="stroke:#000000;stroke-width:1.0;" x1="17" x2="181" y1="393.2969" y2="393.2969"/><line style="stroke:#000000;stroke-width:1.0;" x1="17" x2="181" y1="409.5938" y2="409.5938"/><line style="stroke:#000000;stroke-width:1.0;" x1="17" x2="181" y1="425.8906" y2="425.8906"/><line style="stroke:#000000;stroke-width:1.0;" x1="17" x2="181" y1="442.1875" y2="442.1875"/><line style="stroke:#000000;stroke-width:1.0;" x1="17" x2="17" y1="377" y2="442.1875"/><line style="stroke:#000000;stroke-width:1.0;" x1="61" x2="61" y1="377" y2="442.1875"/><line style="stroke:#000000;stroke-width:1.0;" x1="181" x2="181" y1="377" y2="442.1875"/></g></svg>