<?xml version="1.0" encoding="us-ascii" standalone="no"?><svg xmlns="http://www.w3.org/2000/svg" xmlns:xlink="http://www.w3.org/1999/xlink" contentStyleType="text/css" height="155px" preserveAspectRatio="none" style="width:867px;height:155px;background:#FFFFFF;" version="1.1" viewBox="0 0 867 155" width="867px" zoomAndPan="magnify"><defs/><g><!--entity frontend--><g id="elem_frontend"><rect fill="#ADD8E6" height="36.2969" rx="2.5" ry="2.5" style="stroke:#181818;stroke-width:0.5;" width="83" x="7" y="85"/><text fill="#000000" font-family="sans-serif" font-size="14" lengthAdjust="spacing" textLength="63" x="17" y="107.9951">Frontend</text></g><!--entity backend_service_2--><g id="elem_backend_service_2"><rect fill="#ADD8E6" height="36.2969" rx="2.5" ry="2.5" style="stroke:#181818;stroke-width:0.5;" width="160" x="416" y="42"/><text fill="#000000" font-family="sans-serif" font-size="14" lengthAdjust="spacing" textLength="140" x="426" y="64.9951">Backend Service #2</text></g><!--entity backend_service_1--><g id="elem_backend_service_1"><rect fill="#ADD8E6" height="36.2969" rx="2.5" ry="2.5" style="stroke:#181818;stroke-width:0.5;" width="160" x="173" y="85"/><text fill="#000000" font-family="sans-serif" font-size="14" lengthAdjust="spacing" textLength="140" x="183" y="107.9951">Backend Service #1</text></g><!--entity external_service_2--><g id="elem_external_service_2"><rect fill="#FFE4B5" height="36.2969" rx="2.5" ry="2.5" style="stroke:#181818;stroke-width:0.5;" width="154" x="707" y="7"/><text fill="#000000" font-family="sans-serif" font-size="14" lengthAdjust="spacing" textLength="134" x="717" y="29.9951">External Service #2</text></g><!--entity external_service_3--><g id="elem_external_service_3"><rect fill="#F08080" height="36.2969" rx="2.5" ry="2.5" style="stroke:#181818;stroke-width:0.5;" width="154" x="707" y="78"/><text fill="#000000" font-family="sans-serif" font-size="14" lengthAdjust="spacing" textLength="134" x="717" y="100.9951">External Service #3</text></g><!--entity external_service_1--><g id="elem_external_service_1"><rect fill="#FFE4B5" height="36.2969" rx="2.5" ry="2.5" style="stroke:#181818;stroke-width:0.5;" width="154" x="419" y="113"/><text fill="#000000" font-family="sans-serif" font-size="14" lengthAdjust="spacing" textLength="134" x="429" y="135.9951">External Service #1</text></g><!--link frontend to backend_service_1--><g id="link_frontend_backend_service_1"><path d="M90.48,103 C114.17,103 138.78,103 166.98,103 " fill="none" id="frontend-to-backend_service_1" style="stroke:#181818;stroke-width:1.0;"/><polygon fill="#181818" points="172.98,103,163.98,99,167.98,103,163.98,107,172.98,103" style="stroke:#181818;stroke-width:1.0;"/><text fill="#000000" font-family="sans-serif" font-size="13" lengthAdjust="spacing" textLength="21" x="121" y="99.0669">JWT</text></g><!--link backend_service_2 to external_service_2--><g id="link_backend_service_2_external_service_2"><path d="M576.29,50.3 C616.95,45.32 660.3045,40.0193 700.5645,35.0893 " fill="none" id="backend_service_2-to-external_service_2" style="stroke:#181818;stroke-width:1.0;"/><polygon fill="#181818" points="706.52,34.36,697.1005,31.4836,701.5571,34.9677,698.0729,39.4243,706.52,34.36" style="stroke:#181818;stroke-width:1.0;"/><text fill="#000000" font-family="sans-serif" font-size="13" lengthAdjust="spacing" textLength="21" x="631" y="35.0669">JWT</text></g><!--link backend_service_2 to external_service_3--><g id="link_backend_service_2_external_service_3"><path d="M576.29,69.98 C616.95,75.1 660.3068,80.5618 700.5668,85.6218 " fill="none" id="backend_service_2-to-external_service_3" style="stroke:#181818;stroke-width:1.0;"/><polygon fill="#181818" points="706.52,86.37,698.0891,81.2789,701.559,85.7465,697.0914,89.2165,706.52,86.37" style="stroke:#181818;stroke-width:1.0;"/><text fill="#000000" font-family="sans-serif" font-size="13" lengthAdjust="spacing" textLength="69" x="607" y="71.0669">Basic-Auth</text></g><!--link backend_service_1 to external_service_1--><g id="link_backend_service_1_external_service_1"><path d="M326.97,121.03 C338.94,123.42 351.27,125.54 363,127 C380.97,129.23 394.4337,130.2603 412.7337,130.9003 " fill="none" id="backend_service_1-to-external_service_1" style="stroke:#181818;stroke-width:1.0;"/><polygon fill="#181818" points="418.73,131.11,409.8753,126.7979,413.7331,130.9352,409.5957,134.793,418.73,131.11" style="stroke:#181818;stroke-width:1.0;"/><text fill="#000000" font-family="sans-serif" font-size="13" lengthAdjust="spacing" textLength="21" x="364" y="123.0669">JWT</text></g><!--link backend_service_1 to backend_service_2--><g id="link_backend_service_1_backend_service_2"><path d="M333.25,88.86 C359.72,84.14 383.313,79.9225 409.803,75.2025 " fill="none" id="backend_service_1-to-backend_service_2" style="stroke:#181818;stroke-width:1.0;"/><polygon fill="#181818" points="415.71,74.15,406.1479,71.7908,410.7875,75.0271,407.5512,79.6667,415.71,74.15" style="stroke:#181818;stroke-width:1.0;"/><text fill="#000000" font-family="sans-serif" font-size="13" lengthAdjust="spacing" textLength="21" x="364" y="77.0669">JWT</text></g></g></svg>