<?xml version="1.0" encoding="us-ascii" standalone="no"?><svg xmlns="http://www.w3.org/2000/svg" xmlns:xlink="http://www.w3.org/1999/xlink" contentStyleType="text/css" height="265px" preserveAspectRatio="none" style="width:796px;height:265px;background:#FFFFFF;" version="1.1" viewBox="0 0 796 265" width="796px" zoomAndPan="magnify"><defs/><g><!--entity platform__application__order_service--><g id="elem_platform__application__order_service"><rect fill="#ADD8E6" height="36.2969" rx="2.5" ry="2.5" style="stroke:#181818;stroke-width:0.5;" width="113" x="173" y="85"/><text fill="#000000" font-family="sans-serif" font-size="14" lengthAdjust="spacing" textLength="93" x="183" y="107.9951">Order Service</text></g><!--entity platform__application__frontend--><g id="elem_platform__application__frontend"><rect fill="#ADD8E6" height="36.2969" rx="2.5" ry="2.5" style="stroke:#181818;stroke-width:0.5;" width="83" x="7" y="85"/><text fill="#000000" font-family="sans-serif" font-size="14" lengthAdjust="spacing" textLength="63" x="17" y="107.9951">Frontend</text></g><!--entity platform__application__inventory_service--><g id="elem_platform__application__inventory_service"><rect fill="#ADD8E6" height="36.2969" rx="2.5" ry="2.5" style="stroke:#181818;stroke-width:0.5;" width="137" x="369" y="42"/><text fill="#000000" font-family="sans-serif" font-size="14" lengthAdjust="spacing" textLength="117" x="379" y="64.9951">Inventory Service</text></g><!--entity platform__payment_service--><g id="elem_platform__payment_service"><rect fill="#FFE4B5" height="36.2969" rx="2.5" ry="2.5" style="stroke:#181818;stroke-width:0.5;" width="134" x="370.5" y="113"/><text fill="#000000" font-family="sans-serif" font-size="14" lengthAdjust="spacing" textLength="114" x="380.5" y="135.9951">Payment Service</text></g><!--entity platform__notification_service--><g id="elem_platform__notification_service"><rect fill="#FFE4B5" height="36.2969" rx="2.5" ry="2.5" style="stroke:#181818;stroke-width:0.5;" width="150" x="638.5" y="7"/><text fill="#000000" font-family="sans-serif" font-size="14" lengthAdjust="spacing" textLength="130" x="648.5" y="29.9951">Notification Service</text></g><!--entity other_project__warehouse_service--><g id="elem_other_project__warehouse_service"><rect fill="#F08080" height="36.2969" rx="2.5" ry="2.5" style="stroke:#181818;stroke-width:0.5;" width="153" x="637" y="78"/><text fill="#000000" font-family="sans-serif" font-size="14" lengthAdjust="spacing" textLength="133" x="647" y="100.9951">Warehouse Service</text></g><!--link platform__application__order_service to platform__application__inventory_service--><g id="link_platform__application__order_service_platform__application__inventory_service"><path d="M286.25,91.36 C311.75,86.04 336.3065,80.9156 363.0965,75.3256 " fill="none" id="platform__application__order_service-to-platform__application__inventory_service" style="stroke:#181818;stroke-width:1.0;"/><polygon fill="#181818" points="368.97,74.1,359.3427,72.0227,364.0754,75.1213,360.9768,79.854,368.97,74.1" style="stroke:#181818;stroke-width:1.0;"/><text fill="#000000" font-family="sans-serif" font-size="13" lengthAdjust="spacing" textLength="21" x="317" y="78.0669">JWT</text></g><!--link platform__application__order_service to platform__payment_service--><g id="link_platform__application__order_service_platform__payment_service"><path d="M286.19,120.71 C296.03,123.24 306.25,125.49 316,127 C333.48,129.7 346.5534,130.8567 364.2534,131.4567 " fill="none" id="platform__application__order_service-to-platform__payment_service" style="stroke:#181818;stroke-width:1.0;"/><polygon fill="#181818" points="370.25,131.66,361.3907,127.3574,365.2529,131.4906,361.1197,135.3528,370.25,131.66" style="stroke:#181818;stroke-width:1.0;"/><text fill="#000000" font-family="sans-serif" font-size="13" lengthAdjust="spacing" textLength="21" x="317" y="123.0669">JWT</text></g><!--link platform__application__frontend to platform__application__order_service--><g id="link_platform__application__frontend_platform__application__order_service"><path d="M90.12,103 C114.56,103 140.03,103 166.78,103 " fill="none" id="platform__application__frontend-to-platform__application__order_service" style="stroke:#181818;stroke-width:1.0;"/><polygon fill="#181818" points="172.78,103,163.78,99,167.78,103,163.78,107,172.78,103" style="stroke:#181818;stroke-width:1.0;"/><text fill="#000000" font-family="sans-serif" font-size="13" lengthAdjust="spacing" textLength="21" x="121" y="99.0669">JWT</text></g><!--link platform__application__inventory_service to platform__notification_service--><g id="link_platform__application__inventory_service_platform__notification_service"><path d="M506.23,51.35 C546.32,46.23 591.2084,40.4904 632.3784,35.2304 " fill="none" id="platform__application__inventory_service-to-platform__notification_service" style="stroke:#181818;stroke-width:1.0;"/><polygon fill="#181818" points="638.33,34.47,628.8956,31.6428,633.3703,35.1037,629.9095,39.5783,638.33,34.47" style="stroke:#181818;stroke-width:1.0;"/><text fill="#000000" font-family="sans-serif" font-size="13" lengthAdjust="spacing" textLength="21" x="561" y="36.0669">JWT</text></g><!--link platform__application__inventory_service to other_project__warehouse_service--><g id="link_platform__application__inventory_service_other_project__warehouse_service"><path d="M506.23,68.9 C545.85,74.1 590.0111,79.9089 630.9111,85.2789 " fill="none" id="platform__application__inventory_service-to-other_project__warehouse_service" style="stroke:#181818;stroke-width:1.0;"/><polygon fill="#181818" points="636.86,86.06,628.4573,80.9224,631.9025,85.4091,627.4159,88.8544,636.86,86.06" style="stroke:#181818;stroke-width:1.0;"/><text fill="#000000" font-family="sans-serif" font-size="13" lengthAdjust="spacing" textLength="69" x="537" y="70.0669">Basic-Auth</text></g><rect fill="none" height="79.1875" id="_legend" rx="7.5" ry="7.5" style="stroke:#FFFFFF;stroke-width:1.0;" width="159" x="12" y="166.2969"/><text fill="#000000" font-family="sans-serif" font-size="14" lengthAdjust="spacing" textLength="36" x="21" y="186.292">Color</text><text fill="#000000" font-family="sans-serif" font-size="14" lengthAdjust="spacing" textLength="91" x="65" y="186.292">Belongs to ...</text><rect fill="#ADD8E6" height="16.2969" style="stroke:none;stroke-width:1.0;" width="44" x="17" y="189.5938"/><text fill="#000000" font-family="sans-serif" font-size="14" lengthAdjust="spacing" textLength="4" x="17" y="202.5889">&#160;</text><text fill="#000000" font-family="sans-serif" font-size="14" lengthAdjust="spacing" textLength="101" x="65" y="202.5889">our application</text><rect fill="#FFE4B5" height="16.2969" style="stroke:none;stroke-width:1.0;" width="44" x="17" y="205.8906"/><text fill="#000000" font-family="sans-serif" font-size="14" lengthAdjust="spacing" textLength="4" x="17" y="218.8857">&#160;</text><text fill="#000000" font-family="sans-serif" font-size="14" lengthAdjust="spacing" textLength="98" x="65" y="218.8857">same platform</text><rect fill="#F08080" height="16.2969" style="stroke:none;stroke-width:1.0;" width="44" x="17" y="222.1875"/><text fill="#000000" font-family="sans-serif" font-size="14" lengthAdjust="spacing" textLength="4" x="17" y="235.1826">&#160;</text><text fill="#000000" font-family="sans-serif" font-size="14" lengthAdjust="spacing" textLength="89" x="65" y="235.1826">other project</text><line style="stroke:#000000;stroke-width:1.0;" x1="17" x2="166" y1="173.2969" y2="173.2969"/><line style="stroke:#000000;stroke-width:1.0;" x1="17" x2="166" y1="189.5938" y2="189.5938"/><line style="stroke:#000000;stroke-width:1.0;" x1="17" x2="166" y1="205.8906" y2="205.8906"/><line style="stroke:#000000;stroke-width:1.0;" x1="17" x2="166" y1="222.1875" y2="222.1875"/><line style="stroke:#000000;stroke-width:1.0;" x1="17" x2="166" y1="238.4844" y2="238.4844"/><line style="stroke:#000000;stroke-width:1.0;" x1="17" x2="17" y1="173.2969" y2="238.4844"/><line style="stroke:#000000;stroke-width:1.0;" x1="61" x2="61" y1="173.2969" y2="238.4844"/><line style="stroke:#000000;stroke-width:1.0;" x1="166" x2="166" y1="173.2969" y2="238.4844"/></g></svg>