<?xml version="1.0" encoding="us-ascii" standalone="no"?><svg xmlns="http://www.w3.org/2000/svg" xmlns:xlink="http://www.w3.org/1999/xlink" contentStyleType="text/css" height="254px" preserveAspectRatio="none" style="width:624px;height:254px;background:#FFFFFF;" version="1.1" viewBox="0 0 624 254" width="624px" zoomAndPan="magnify"><defs/><g><!--cluster Platform--><g id="cluster_Platform"><path d="M8.5,6 L75.5,6 A3.75,3.75 0 0 1 78,8.5 L85,28.2969 L414.5,28.2969 A2.5,2.5 0 0 1 417,30.7969 L417,244.5 A2.5,2.5 0 0 1 414.5,247 L8.5,247 A2.5,2.5 0 0 1 6,244.5 L6,8.5 A2.5,2.5 0 0 1 8.5,6 " fill="none" style="stroke:#000000;stroke-width:1.5;"/><line style="stroke:#000000;stroke-width:1.5;" x1="6" x2="85" y1="28.2969" y2="28.2969"/><text fill="#000000" font-family="sans-serif" font-size="14" font-weight="bold" lengthAdjust="spacing" textLength="66" x="10" y="20.9951">Platform</text></g><!--cluster Application--><g id="cluster_Application"><rect fill="none" height="87" rx="2.5" ry="2.5" style="stroke:#181818;stroke-width:1.0;" width="363" x="30" y="49"/><path d="M127,49 L127,58.2969 L117,68.2969 L30,68.2969 " fill="none" style="stroke:#181818;stroke-width:1.0;"/><text fill="#000000" font-family="sans-serif" font-size="14" font-weight="bold" lengthAdjust="spacing" textLength="87" x="33" y="62.9951">Application</text></g><!--cluster Other Project--><g id="cluster_Other Project"><path d="M443.5,160 L550.5,160 A3.75,3.75 0 0 1 553,162.5 L560,182.2969 L614.5,182.2969 A2.5,2.5 0 0 1 617,184.7969 L617,244.5 A2.5,2.5 0 0 1 614.5,247 L443.5,247 A2.5,2.5 0 0 1 441,244.5 L441,162.5 A2.5,2.5 0 0 1 443.5,160 " fill="none" style="stroke:#000000;stroke-width:1.5;"/><line style="stroke:#000000;stroke-width:1.5;" x1="441" x2="560" y1="182.2969" y2="182.2969"/><text fill="#000000" font-family="sans-serif" font-size="14" font-weight="bold" lengthAdjust="spacing" textLength="106" x="445" y="174.9951">Other Project</text></g><!--entity externalservice2--><g id="elem_externalservice2"><rect fill="#FFE4B5" height="36.2969" rx="2.5" ry="2.5" style="stroke:#181818;stroke-width:0.5;" width="143" x="231.5" y="195"/><text fill="#000000" font-family="sans-serif" font-size="14" lengthAdjust="spacing" textLength="123" x="241.5" y="217.9951">external-service-2</text></g><!--entity backendservice1--><g id="elem_backendservice1"><rect fill="#D3D3D3" height="36.2969" rx="2.5" ry="2.5" style="stroke:#181818;stroke-width:0.5;" width="148" x="46" y="84"/><text fill="#000000" font-family="sans-serif" font-size="14" lengthAdjust="spacing" textLength="128" x="56" y="106.9951">backend-service-1</text></g><!--entity backendservice2--><g id="elem_backendservice2"><rect fill="#ADD8E6" height="36.2969" rx="2.5" ry="2.5" style="stroke:#181818;stroke-width:0.5;" width="148" x="229" y="84"/><text fill="#000000" font-family="sans-serif" font-size="14" lengthAdjust="spacing" textLength="128" x="239" y="106.9951">backend-service-2</text></g><!--entity externalservice3--><g id="elem_externalservice3"><rect fill="#F08080" height="36.2969" rx="2.5" ry="2.5" style="stroke:#181818;stroke-width:0.5;" width="143" x="457.5" y="195"/><text fill="#000000" font-family="sans-serif" font-size="14" lengthAdjust="spacing" textLength="123" x="467.5" y="217.9951">external-service-3</text></g><!--link backendservice1 to backendservice2--><g id="link_backendservice1_backendservice2"><path d="M194.34,102 C205.8,102 211.26,102 222.72,102 " fill="none" id="backendservice1-to-backendservice2" style="stroke:#181818;stroke-width:1.0;"/><polygon fill="#181818" points="228.72,102,219.72,98,223.72,102,219.72,106,228.72,102" style="stroke:#181818;stroke-width:1.0;"/></g><!--link backendservice2 to externalservice2--><g id="link_backendservice2_externalservice2"><path d="M303,120.03 C303,140.39 303,168.27 303,188.73 " fill="none" id="backendservice2-to-externalservice2" style="stroke:#181818;stroke-width:1.0;"/><polygon fill="#181818" points="303,194.73,307,185.73,303,189.73,299,185.73,303,194.73" style="stroke:#181818;stroke-width:1.0;"/></g><!--link backendservice2 to externalservice3--><g id="link_backendservice2_externalservice3"><path d="M345.08,120.07 C366.76,129.12 393.52,140.69 417,152 C445.22,165.59 471.3454,179.6555 493.6954,192.0755 " fill="none" id="backendservice2-to-externalservice3" style="stroke:#181818;stroke-width:1.0;"/><polygon fill="#181818" points="498.94,194.99,493.0161,187.1219,494.5695,192.5613,489.1301,194.1147,498.94,194.99" style="stroke:#181818;stroke-width:1.0;"/></g></g></svg>