<?xml version="1.0" encoding="us-ascii" standalone="no"?><svg xmlns="http://www.w3.org/2000/svg" xmlns:xlink="http://www.w3.org/1999/xlink" contentStyleType="text/css" height="272px" preserveAspectRatio="none" style="width:690px;height:272px;background:#FFFFFF;" version="1.1" viewBox="0 0 690 272" width="690px" zoomAndPan="magnify"><defs/><g><!--cluster Platform--><g id="cluster_Platform"><path d="M8.5,6 L75.5,6 A3.75,3.75 0 0 1 78,8.5 L85,28.2969 L680.5,28.2969 A2.5,2.5 0 0 1 683,30.7969 L683,262.5 A2.5,2.5 0 0 1 680.5,265 L8.5,265 A2.5,2.5 0 0 1 6,262.5 L6,8.5 A2.5,2.5 0 0 1 8.5,6 " fill="none" style="stroke:#000000;stroke-width:1.5;"/><line style="stroke:#000000;stroke-width:1.5;" x1="6" x2="85" y1="28.2969" y2="28.2969"/><text fill="#000000" font-family="sans-serif" font-size="14" font-weight="bold" lengthAdjust="spacing" textLength="66" x="10" y="20.9951">Platform</text></g><!--cluster Application--><g id="cluster_Application"><rect fill="none" height="192" rx="2.5" ry="2.5" style="stroke:#181818;stroke-width:1.0;" width="477" x="30" y="49"/><path d="M127,49 L127,58.2969 L117,68.2969 L30,68.2969 " fill="none" style="stroke:#181818;stroke-width:1.0;"/><text fill="#000000" font-family="sans-serif" font-size="14" font-weight="bold" lengthAdjust="spacing" textLength="87" x="33" y="62.9951">Application</text></g><!--entity externalservice1--><g id="elem_externalservice1"><rect fill="#FFE4B5" height="36.2969" rx="2.5" ry="2.5" style="stroke:#181818;stroke-width:0.5;" width="143" x="523.5" y="184.5"/><text fill="#000000" font-family="sans-serif" font-size="14" lengthAdjust="spacing" textLength="123" x="533.5" y="207.4951">external-service-1</text></g><!--entity frontend--><g id="elem_frontend"><rect fill="#D3D3D3" height="36.2969" rx="2.5" ry="2.5" style="stroke:#181818;stroke-width:0.5;" width="79" x="45.5" y="84"/><text fill="#000000" font-family="sans-serif" font-size="14" lengthAdjust="spacing" textLength="59" x="55.5" y="106.9951">frontend</text></g><!--entity backendservice1--><g id="elem_backendservice1"><rect fill="#ADD8E6" height="36.2969" rx="2.5" ry="2.5" style="stroke:#181818;stroke-width:0.5;" width="148" x="160" y="84"/><text fill="#000000" font-family="sans-serif" font-size="14" lengthAdjust="spacing" textLength="128" x="170" y="106.9951">backend-service-1</text></g><!--entity backendservice2--><g id="elem_backendservice2"><rect fill="#ADD8E6" height="36.2969" rx="2.5" ry="2.5" style="stroke:#181818;stroke-width:0.5;" width="148" x="343" y="84"/><text fill="#000000" font-family="sans-serif" font-size="14" lengthAdjust="spacing" textLength="128" x="353" y="106.9951">backend-service-2</text></g><!--entity backendservice1database--><g id="elem_backendservice1database"><path d="M192,190 C192,180 234,180 234,180 C234,180 276,180 276,190 L276,215.2969 C276,225.2969 234,225.2969 234,225.2969 C234,225.2969 192,225.2969 192,215.2969 L192,190 " fill="#F1F1F1" style="stroke:#181818;stroke-width:0.5;"/><path d="M192,190 C192,200 234,200 234,200 C234,200 276,200 276,190 " fill="none" style="stroke:#181818;stroke-width:0.5;"/><text fill="#000000" font-family="sans-serif" font-size="14" lengthAdjust="spacing" textLength="64" x="202" y="216.9951">database</text></g><!--link frontend to backendservice1--><g id="link_frontend_backendservice1"><path d="M124.58,102 C136.26,102 141.94,102 153.63,102 " fill="none" id="frontend-to-backendservice1" style="stroke:#181818;stroke-width:1.0;"/><polygon fill="#181818" points="159.63,102,150.63,98,154.63,102,150.63,106,159.63,102" style="stroke:#181818;stroke-width:1.0;"/></g><!--link backendservice1 to backendservice1database--><g id="link_backendservice1_backendservice1database"><path d="M234,120.16 C234,136.69 234,155.78 234,173.72 " fill="none" id="backendservice1-to-backendservice1database" style="stroke:#181818;stroke-width:1.0;"/><polygon fill="#181818" points="234,179.72,238,170.72,234,174.72,230,170.72,234,179.72" style="stroke:#181818;stroke-width:1.0;"/></g><!--link backendservice1 to backendservice2--><g id="link_backendservice1_backendservice2"><path d="M308.34,102 C319.8,102 325.26,102 336.72,102 " fill="none" id="backendservice1-to-backendservice2" style="stroke:#181818;stroke-width:1.0;"/><polygon fill="#181818" points="342.72,102,333.72,98,337.72,102,333.72,106,342.72,102" style="stroke:#181818;stroke-width:1.0;"/></g><!--link backendservice1 to externalservice1--><g id="link_backendservice1_externalservice1"><path d="M296.47,120.04 C362.66,138.11 460.7715,164.8809 526.9015,182.9209 " fill="none" id="backendservice1-to-externalservice1" style="stroke:#181818;stroke-width:1.0;"/><polygon fill="#181818" points="532.69,184.5,525.06,178.2724,527.8663,183.1841,522.9546,185.9904,532.69,184.5" style="stroke:#181818;stroke-width:1.0;"/></g></g></svg>