<?xml version="1.0" encoding="us-ascii" standalone="no"?><svg xmlns="http://www.w3.org/2000/svg" xmlns:xlink="http://www.w3.org/1999/xlink" contentStyleType="text/css" height="254px" preserveAspectRatio="none" style="width:658px;height:254px;background:#FFFFFF;" version="1.1" viewBox="0 0 658 254" width="658px" zoomAndPan="magnify"><defs/><g><!--cluster Platform--><g id="cluster_Platform"><path d="M8.5,6 L75.5,6 A3.75,3.75 0 0 1 78,8.5 L85,28.2969 L438.5,28.2969 A2.5,2.5 0 0 1 441,30.7969 L441,244.5 A2.5,2.5 0 0 1 438.5,247 L8.5,247 A2.5,2.5 0 0 1 6,244.5 L6,8.5 A2.5,2.5 0 0 1 8.5,6 " fill="none" style="stroke:#000000;stroke-width:1.5;"/><line style="stroke:#000000;stroke-width:1.5;" x1="6" x2="85" y1="28.2969" y2="28.2969"/><text fill="#000000" font-family="sans-serif" font-size="14" font-weight="bold" lengthAdjust="spacing" textLength="66" x="10" y="20.9951">Platform</text></g><!--cluster Application--><g id="cluster_Application"><rect fill="none" height="87" rx="2.5" ry="2.5" style="stroke:#181818;stroke-width:1.0;" width="387" x="30" y="49"/><path d="M127,49 L127,58.2969 L117,68.2969 L30,68.2969 " fill="none" style="stroke:#181818;stroke-width:1.0;"/><text fill="#000000" font-family="sans-serif" font-size="14" font-weight="bold" lengthAdjust="spacing" textLength="87" x="33" y="62.9951">Application</text></g><!--cluster Other Project--><g id="cluster_Other Project"><path d="M467.5,160 L574.5,160 A3.75,3.75 0 0 1 577,162.5 L584,182.2969 L648.5,182.2969 A2.5,2.5 0 0 1 651,184.7969 L651,244.5 A2.5,2.5 0 0 1 648.5,247 L467.5,247 A2.5,2.5 0 0 1 465,244.5 L465,162.5 A2.5,2.5 0 0 1 467.5,160 " fill="none" style="stroke:#000000;stroke-width:1.5;"/><line style="stroke:#000000;stroke-width:1.5;" x1="465" x2="584" y1="182.2969" y2="182.2969"/><text fill="#000000" font-family="sans-serif" font-size="14" font-weight="bold" lengthAdjust="spacing" textLength="106" x="469" y="174.9951">Other Project</text></g><!--entity externalservice2--><g id="elem_externalservice2"><rect fill="#FFE4B5" height="36.2969" rx="2.5" ry="2.5" style="stroke:#181818;stroke-width:0.5;" width="154" x="244" y="195"/><text fill="#000000" font-family="sans-serif" font-size="14" lengthAdjust="spacing" textLength="134" x="254" y="217.9951">External Service #2</text></g><!--entity backendservice1--><g id="elem_backendservice1"><rect fill="#D3D3D3" height="36.2969" rx="2.5" ry="2.5" style="stroke:#181818;stroke-width:0.5;" width="160" x="46" y="84"/><text fill="#000000" font-family="sans-serif" font-size="14" lengthAdjust="spacing" textLength="140" x="56" y="106.9951">Backend Service #1</text></g><!--entity backendservice2--><g id="elem_backendservice2"><rect fill="#87CEEB" height="36.2969" rx="2.5" ry="2.5" style="stroke:#181818;stroke-width:2.0;" width="160" x="241" y="84"/><text fill="#000000" font-family="sans-serif" font-size="14" lengthAdjust="spacing" textLength="140" x="251" y="106.9951">Backend Service #2</text></g><!--entity externalservice3--><g id="elem_externalservice3"><rect fill="#F08080" height="36.2969" rx="2.5" ry="2.5" style="stroke:#181818;stroke-width:0.5;" width="154" x="481" y="195"/><text fill="#000000" font-family="sans-serif" font-size="14" lengthAdjust="spacing" textLength="134" x="491" y="217.9951">External Service #3</text></g><!--link backendservice1 to backendservice2--><g id="link_backendservice1_backendservice2"><path d="M206.36,102 C217.86,102 223.35,102 234.84,102 " fill="none" id="backendservice1-to-backendservice2" style="stroke:#181818;stroke-width:1.0;"/><polygon fill="#181818" points="240.84,102,231.84,98,235.84,102,231.84,106,240.84,102" style="stroke:#181818;stroke-width:1.0;"/></g><!--link backendservice2 to externalservice2--><g id="link_backendservice2_externalservice2"><path d="M321,120.03 C321,140.39 321,168.27 321,188.73 " fill="none" id="backendservice2-to-externalservice2" style="stroke:#181818;stroke-width:1.0;"/><polygon fill="#181818" points="321,194.73,325,185.73,321,189.73,317,185.73,321,194.73" style="stroke:#181818;stroke-width:1.0;"/></g><!--link backendservice2 to externalservice3--><g id="link_backendservice2_externalservice3"><path d="M365.28,120.02 C388.1,129.06 416.26,140.63 441,152 C470.45,165.54 497.9337,179.7006 521.2837,192.1306 " fill="none" id="backendservice2-to-externalservice3" style="stroke:#181818;stroke-width:1.0;"/><polygon fill="#181818" points="526.58,194.95,520.5151,187.19,522.1664,192.6005,516.7559,194.2518,526.58,194.95" style="stroke:#181818;stroke-width:1.0;"/></g></g></svg>