<?xml version="1.0" encoding="us-ascii" standalone="no"?><svg xmlns="http://www.w3.org/2000/svg" xmlns:xlink="http://www.w3.org/1999/xlink" contentStyleType="text/css" height="329px" preserveAspectRatio="none" style="width:895px;height:329px;background:#FFFFFF;" version="1.1" viewBox="0 0 895 329" width="895px" zoomAndPan="magnify"><defs/><g><!--entity platform__application__backend_service_1--><g id="elem_platform__application__backend_service_1"><rect fill="#ADD8E6" height="36.2969" rx="2.5" ry="2.5" style="stroke:#181818;stroke-width:0.5;" width="160" x="201" y="149"/><text fill="#000000" font-family="sans-serif" font-size="14" lengthAdjust="spacing" textLength="140" x="211" y="171.9951">Backend Service #1</text></g><!--entity platform__application__frontend--><g id="elem_platform__application__frontend"><rect fill="#ADD8E6" height="36.2969" rx="2.5" ry="2.5" style="stroke:#181818;stroke-width:0.5;" width="83" x="21" y="149"/><text fill="#000000" font-family="sans-serif" font-size="14" lengthAdjust="spacing" textLength="63" x="31" y="171.9951">Frontend</text></g><!--entity platform__application__backend_service_2--><g id="elem_platform__application__backend_service_2"><rect fill="#ADD8E6" height="36.2969" rx="2.5" ry="2.5" style="stroke:#181818;stroke-width:0.5;" width="160" x="444" y="106"/><text fill="#000000" font-family="sans-serif" font-size="14" lengthAdjust="spacing" textLength="140" x="454" y="128.9951">Backend Service #2</text></g><!--entity order_service--><g id="elem_order_service"><rect fill="#ADD8E6" height="36.2969" rx="2.5" ry="2.5" style="stroke:#181818;stroke-width:0.5;" width="111" x="7" y="43"/><text fill="#000000" font-family="sans-serif" font-size="14" lengthAdjust="spacing" textLength="91" x="17" y="65.9951">order-service</text></g><!--entity platform__external_service_1--><g id="elem_platform__external_service_1"><rect fill="#FFE4B5" height="36.2969" rx="2.5" ry="2.5" style="stroke:#181818;stroke-width:0.5;" width="154" x="447" y="177"/><text fill="#000000" font-family="sans-serif" font-size="14" lengthAdjust="spacing" textLength="134" x="457" y="199.9951">External Service #1</text></g><!--entity platform__external_service_2--><g id="elem_platform__external_service_2"><rect fill="#FFE4B5" height="36.2969" rx="2.5" ry="2.5" style="stroke:#181818;stroke-width:0.5;" width="154" x="735" y="71"/><text fill="#000000" font-family="sans-serif" font-size="14" lengthAdjust="spacing" textLength="134" x="745" y="93.9951">External Service #2</text></g><!--entity other_project__external_service_3--><g id="elem_other_project__external_service_3"><rect fill="#F08080" height="36.2969" rx="2.5" ry="2.5" style="stroke:#181818;stroke-width:0.5;" width="154" x="735" y="142"/><text fill="#000000" font-family="sans-serif" font-size="14" lengthAdjust="spacing" textLength="134" x="745" y="164.9951">External Service #3</text></g><!--entity payment_service--><g id="elem_payment_service"><rect fill="#FFE4B5" height="36.2969" rx="2.5" ry="2.5" style="stroke:#181818;stroke-width:0.5;" width="134" x="214" y="7"/><text fill="#000000" font-family="sans-serif" font-size="14" lengthAdjust="spacing" textLength="114" x="224" y="29.9951">payment-service</text></g><!--entity inventory_service--><g id="elem_inventory_service"><rect fill="#ADD8E6" height="36.2969" rx="2.5" ry="2.5" style="stroke:#181818;stroke-width:0.5;" width="137" x="212.5" y="78"/><text fill="#000000" font-family="sans-serif" font-size="14" lengthAdjust="spacing" textLength="117" x="222.5" y="100.9951">inventory-service</text></g><!--link platform__application__backend_service_1 to platform__external_service_1--><g id="link_platform__application__backend_service_1_platform__external_service_1"><path d="M361.22,184.44 C378.12,188.16 391,191 391,191 C391,191 411.6428,191.6281 440.9828,192.5181 " fill="none" id="platform__application__backend_service_1-to-platform__external_service_1" style="stroke:#181818;stroke-width:1.0;"/><polygon fill="#181818" points="446.98,192.7,438.1054,188.429,441.9823,192.5484,437.8629,196.4253,446.98,192.7" style="stroke:#181818;stroke-width:1.0;"/><text fill="#000000" font-family="sans-serif" font-size="13" lengthAdjust="spacing" textLength="21" x="392" y="187.0669">JWT</text></g><!--link platform__application__backend_service_1 to platform__application__backend_service_2--><g id="link_platform__application__backend_service_1_platform__application__backend_service_2"><path d="M361.25,152.86 C387.72,148.14 411.313,143.9225 437.803,139.2025 " fill="none" id="platform__application__backend_service_1-to-platform__application__backend_service_2" style="stroke:#181818;stroke-width:1.0;"/><polygon fill="#181818" points="443.71,138.15,434.1479,135.7908,438.7875,139.0271,435.5512,143.6667,443.71,138.15" style="stroke:#181818;stroke-width:1.0;"/><text fill="#000000" font-family="sans-serif" font-size="13" lengthAdjust="spacing" textLength="21" x="392" y="140.0669">JWT</text></g><!--link platform__application__frontend to platform__application__backend_service_1--><g id="link_platform__application__frontend_platform__application__backend_service_1"><path d="M104.22,167 C131.41,167 162.07,167 194.88,167 " fill="none" id="platform__application__frontend-to-platform__application__backend_service_1" style="stroke:#181818;stroke-width:1.0;"/><polygon fill="#181818" points="200.88,167,191.88,163,195.88,167,191.88,171,200.88,167" style="stroke:#181818;stroke-width:1.0;"/><text fill="#000000" font-family="sans-serif" font-size="13" lengthAdjust="spacing" textLength="21" x="149" y="163.0669">JWT</text></g><!--link platform__application__backend_service_2 to platform__external_service_2--><g id="link_platform__application__backend_service_2_platform__external_service_2"><path d="M604.29,114.3 C644.95,109.32 688.3045,104.0193 728.5645,99.0893 " fill="none" id="platform__application__backend_service_2-to-platform__external_service_2" style="stroke:#181818;stroke-width:1.0;"/><polygon fill="#181818" points="734.52,98.36,725.1005,95.4836,729.5571,98.9677,726.0729,103.4243,734.52,98.36" style="stroke:#181818;stroke-width:1.0;"/><text fill="#000000" font-family="sans-serif" font-size="13" lengthAdjust="spacing" textLength="21" x="659" y="99.0669">JWT</text></g><!--link platform__application__backend_service_2 to other_project__external_service_3--><g id="link_platform__application__backend_service_2_other_project__external_service_3"><path d="M604.29,133.98 C644.95,139.1 688.3068,144.5618 728.5668,149.6218 " fill="none" id="platform__application__backend_service_2-to-other_project__external_service_3" style="stroke:#181818;stroke-width:1.0;"/><polygon fill="#181818" points="734.52,150.37,726.0891,145.2789,729.559,149.7465,725.0914,153.2165,734.52,150.37" style="stroke:#181818;stroke-width:1.0;"/><text fill="#000000" font-family="sans-serif" font-size="13" lengthAdjust="spacing" textLength="69" x="635" y="135.0669">Basic-Auth</text></g><!--link order_service to payment_service--><g id="link_order_service_payment_service"><path d="M118.13,51.92 C147.19,47.08 177.2311,42.0833 207.8711,36.9933 " fill="none" id="order_service-to-payment_service" style="stroke:#181818;stroke-width:1.0;"/><polygon fill="#181818" points="213.79,36.01,204.2562,33.539,208.8576,36.8294,205.5672,41.4308,213.79,36.01" style="stroke:#181818;stroke-width:1.0;"/><text fill="#000000" font-family="sans-serif" font-size="13" lengthAdjust="spacing" textLength="21" x="149" y="41.0669">JWT</text></g><!--link order_service to inventory_service--><g id="link_order_service_inventory_service"><path d="M118.45,76.61 C134.59,81.19 148,85 148,85 C148,85 174.0008,87.161 206.4708,89.871 " fill="none" id="order_service-to-inventory_service" style="stroke:#181818;stroke-width:1.0;"/><polygon fill="#181818" points="212.45,90.37,203.8139,85.6353,207.4673,89.9541,203.1485,93.6076,212.45,90.37" style="stroke:#181818;stroke-width:1.0;"/><text fill="#000000" font-family="sans-serif" font-size="13" lengthAdjust="spacing" textLength="21" x="149" y="81.0669">JWT</text></g><rect fill="none" height="79.1875" id="_legend" rx="7.5" ry="7.5" style="stroke:#FFFFFF;stroke-width:1.0;" width="159" x="12" y="230.2969"/><text fill="#000000" font-family="sans-serif" font-size="14" lengthAdjust="spacing" textLength="36" x="21" y="250.292">Color</text><text fill="#000000" font-family="sans-serif" font-size="14" lengthAdjust="spacing" textLength="91" x="65" y="250.292">Belongs to ...</text><rect fill="#ADD8E6" height="16.2969" style="stroke:none;stroke-width:1.0;" width="44" x="17" y="253.5938"/><text fill="#000000" font-family="sans-serif" font-size="14" lengthAdjust="spacing" textLength="4" x="17" y="266.5889">&#160;</text><text fill="#000000" font-family="sans-serif" font-size="14" lengthAdjust="spacing" textLength="101" x="65" y="266.5889">our application</text><rect fill="#FFE4B5" height="16.2969" style="stroke:none;stroke-width:1.0;" width="44" x="17" y="269.8906"/><text fill="#000000" font-family="sans-serif" font-size="14" lengthAdjust="spacing" textLength="4" x="17" y="282.8857">&#160;</text><text fill="#000000" font-family="sans-serif" font-size="14" lengthAdjust="spacing" textLength="98" x="65" y="282.8857">same platform</text><rect fill="#F08080" height="16.2969" style="stroke:none;stroke-width:1.0;" width="44" x="17" y="286.1875"/><text fill="#000000" font-family="sans-serif" font-size="14" lengthAdjust="spacing" textLength="4" x="17" y="299.1826">&#160;</text><text fill="#000000" font-family="sans-serif" font-size="14" lengthAdjust="spacing" textLength="89" x="65" y="299.1826">other project</text><line style="stroke:#000000;stroke-width:1.0;" x1="17" x2="166" y1="237.2969" y2="237.2969"/><line style="stroke:#000000;stroke-width:1.0;" x1="17" x2="166" y1="253.5938" y2="253.5938"/><line style="stroke:#000000;stroke-width:1.0;" x1="17" x2="166" y1="269.8906" y2="269.8906"/><line style="stroke:#000000;stroke-width:1.0;" x1="17" x2="166" y1="286.1875" y2="286.1875"/><line style="stroke:#000000;stroke-width:1.0;" x1="17" x2="166" y1="302.4844" y2="302.4844"/><line style="stroke:#000000;stroke-width:1.0;" x1="17" x2="17" y1="237.2969" y2="302.4844"/><line style="stroke:#000000;stroke-width:1.0;" x1="61" x2="61" y1="237.2969" y2="302.4844"/><line style="stroke:#000000;stroke-width:1.0;" x1="166" x2="166" y1="237.2969" y2="302.4844"/></g></svg>