<?xml version="1.0" encoding="us-ascii" standalone="no"?><svg xmlns="http://www.w3.org/2000/svg" xmlns:xlink="http://www.w3.org/1999/xlink" contentStyleType="text/css" height="996px" preserveAspectRatio="none" style="width:838px;height:996px;background:#FFFFFF;" version="1.1" viewBox="0 0 838 996" width="838px" zoomAndPan="magnify"><defs/><g><!--entity platform__application__order_service--><g id="elem_platform__application__order_service"><rect fill="#ADD8E6" height="72.5938" rx="5" ry="5" style="stroke:#181818;stroke-width:1.0;" width="226" x="407" y="240"/><text fill="#000000" font-family="sans-serif" font-size="28" lengthAdjust="spacing" textLength="186" x="427" y="285.9902">Order Service</text></g><!--entity platform__application__frontend--><g id="elem_platform__application__frontend"><rect fill="#ADD8E6" height="72.5938" rx="5" ry="5" style="stroke:#181818;stroke-width:1.0;" width="166" x="437" y="14"/><text fill="#000000" font-family="sans-serif" font-size="28" lengthAdjust="spacing" textLength="126" x="457" y="59.9902">Frontend</text></g><!--entity platform__application__inventory_service--><g id="elem_platform__application__inventory_service"><rect fill="#ADD8E6" height="72.5938" rx="5" ry="5" style="stroke:#181818;stroke-width:1.0;" width="274" x="213" y="466"/><text fill="#000000" font-family="sans-serif" font-size="28" lengthAdjust="spacing" textLength="234" x="233" y="511.9902">Inventory Service</text></g><!--entity platform__payment_service--><g id="elem_platform__payment_service"><rect fill="#FFE4B5" height="72.5938" rx="5" ry="5" style="stroke:#181818;stroke-width:1.0;" width="268" x="558" y="466"/><text fill="#000000" font-family="sans-serif" font-size="28" lengthAdjust="spacing" textLength="228" x="578" y="511.9902">Payment Service</text></g><!--entity platform__notification_service--><g id="elem_platform__notification_service"><rect fill="#FFE4B5" height="72.5938" rx="5" ry="5" style="stroke:#181818;stroke-width:1.0;" width="300" x="14" y="692"/><text fill="#000000" font-family="sans-serif" font-size="28" lengthAdjust="spacing" textLength="260" x="34" y="737.9902">Notification Service</text></g><!--entity other_project__warehouse_service--><g id="elem_other_project__warehouse_service"><rect fill="#F08080" height="72.5938" rx="5" ry="5" style="stroke:#181818;stroke-width:1.0;" width="306" x="385" y="692"/><text fill="#000000" font-family="sans-serif" font-size="28" lengthAdjust="spacing" textLength="266" x="405" y="737.9902">Warehouse Service</text></g><!--link platform__application__order_service to platform__application__inventory_service--><g id="link_platform__application__order_service_platform__application__inventory_service"><path d="M493.44,312.68 C461.5,354.4 415.5135,414.4308 383.6735,456.0308 " fill="none" id="platform__application__order_service-to-platform__application__inventory_service" style="stroke:#181818;stroke-width:2.0;"/><polygon fill="#181818" points="376.38,465.56,393.673,456.1286,382.4579,457.619,380.9674,446.4039,376.38,465.56" style="stroke:#181818;stroke-width:2.0;"/><text fill="#000000" font-family="sans-serif" font-size="26" lengthAdjust="spacing" textLength="42" x="448" y="398.1338">JWT</text></g><!--link platform__application__order_service to platform__payment_service--><g id="link_platform__application__order_service_platform__payment_service"><path d="M546.88,312.68 C579.18,354.4 625.7291,414.475 657.9691,456.075 " fill="none" id="platform__application__order_service-to-platform__payment_service" style="stroke:#181818;stroke-width:2.0;"/><polygon fill="#181818" points="665.32,465.56,660.617,446.432,659.1943,457.6558,647.9704,456.2331,665.32,465.56" style="stroke:#181818;stroke-width:2.0;"/><text fill="#000000" font-family="sans-serif" font-size="26" lengthAdjust="spacing" textLength="42" x="620" y="398.1338">JWT</text></g><!--link platform__application__frontend to platform__application__order_service--><g id="link_platform__application__frontend_platform__application__order_service"><path d="M520,86.68 C520,128.4 520,185.96 520,227.56 " fill="none" id="platform__application__frontend-to-platform__application__order_service" style="stroke:#181818;stroke-width:2.0;"/><polygon fill="#181818" points="520,239.56,528,221.56,520,229.56,512,221.56,520,239.56" style="stroke:#181818;stroke-width:2.0;"/><text fill="#000000" font-family="sans-serif" font-size="26" lengthAdjust="spacing" textLength="42" x="522" y="172.1338">JWT</text></g><!--link platform__application__inventory_service to platform__notification_service--><g id="link_platform__application__inventory_service_platform__notification_service"><path d="M320.94,538.68 C286,580.4 235.4274,640.7624 200.5674,682.3624 " fill="none" id="platform__application__inventory_service-to-platform__notification_service" style="stroke:#181818;stroke-width:2.0;"/><polygon fill="#181818" points="192.86,691.56,210.5528,682.9019,199.2828,683.8953,198.2894,672.6253,192.86,691.56" style="stroke:#181818;stroke-width:2.0;"/><text fill="#000000" font-family="sans-serif" font-size="26" lengthAdjust="spacing" textLength="42" x="272" y="624.1338">JWT</text></g><!--link platform__application__inventory_service to other_project__warehouse_service--><g id="link_platform__application__inventory_service_other_project__warehouse_service"><path d="M379.38,538.68 C414.7,580.4 465.8436,640.8037 501.0836,682.4037 " fill="none" id="platform__application__inventory_service-to-other_project__warehouse_service" style="stroke:#181818;stroke-width:2.0;"/><polygon fill="#181818" points="508.84,691.56,503.3095,672.6546,502.3763,683.9298,491.1012,682.9965,508.84,691.56" style="stroke:#181818;stroke-width:2.0;"/><text fill="#000000" font-family="sans-serif" font-size="26" lengthAdjust="spacing" textLength="138" x="458" y="624.1338">Basic-Auth</text></g><rect fill="none" height="158.375" id="_legend" rx="15" ry="15" style="stroke:#FFFFFF;stroke-width:2.0;" width="318" x="24" y="798.5938"/><text fill="#000000" font-family="sans-serif" font-size="28" lengthAdjust="spacing" textLength="72" x="42" y="838.584">Color</text><text fill="#000000" font-family="sans-serif" font-size="28" lengthAdjust="spacing" textLength="182" x="130" y="838.584">Belongs to ...</text><rect fill="#ADD8E6" height="32.5938" style="stroke:none;stroke-width:2.0;" width="88" x="34" y="845.1875"/><text fill="#000000" font-family="sans-serif" font-size="28" lengthAdjust="spacing" textLength="8" x="34" y="871.1777">&#160;</text><text fill="#000000" font-family="sans-serif" font-size="28" lengthAdjust="spacing" textLength="202" x="130" y="871.1777">our application</text><rect fill="#FFE4B5" height="32.5938" style="stroke:none;stroke-width:2.0;" width="88" x="34" y="877.7813"/><text fill="#000000" font-family="sans-serif" font-size="28" lengthAdjust="spacing" textLength="8" x="34" y="903.7715">&#160;</text><text fill="#000000" font-family="sans-serif" font-size="28" lengthAdjust="spacing" textLength="196" x="130" y="903.7715">same platform</text><rect fill="#F08080" height="32.5938" style="stroke:none;stroke-width:2.0;" width="88" x="34" y="910.375"/><text fill="#000000" font-family="sans-serif" font-size="28" lengthAdjust="spacing" textLength="8" x="34" y="936.3652">&#160;</text><text fill="#000000" font-family="sans-serif" font-size="28" lengthAdjust="spacing" textLength="178" x="130" y="936.3652">other project</text><line style="stroke:#000000;stroke-width:2.0;" x1="34" x2="332" y1="812.5938" y2="812.5938"/><line style="stroke:#000000;stroke-width:2.0;" x1="34" x2="332" y1="845.1875" y2="845.1875"/><line style="stroke:#000000;stroke-width:2.0;" x1="34" x2="332" y1="877.7813" y2="877.7813"/><line style="stroke:#000000;stroke-width:2.0;" x1="34" x2="332" y1="910.375" y2="910.375"/><line style="stroke:#000000;stroke-width:2.0;" x1="34" x2="332" y1="942.9688" y2="942.9688"/><line style="stroke:#000000;stroke-width:2.0;" x1="34" x2="34" y1="812.5938" y2="942.9688"/><line style="stroke:#000000;stroke-width:2.0;" x1="122" x2="122" y1="812.5938" y2="942.9688"/><line style="stroke:#000000;stroke-width:2.0;" x1="332" x2="332" y1="812.5938" y2="942.9688"/></g></svg>