<?xml version="1.0" encoding="us-ascii" standalone="no"?><svg xmlns="http://www.w3.org/2000/svg" xmlns:xlink="http://www.w3.org/1999/xlink" contentStyleType="text/css" height="341px" preserveAspectRatio="none" style="width:806px;height:341px;background:#FFFFFF;" version="1.1" viewBox="0 0 806 341" width="806px" zoomAndPan="magnify"><defs/><g><!--cluster Platform--><g id="cluster_Platform"><path d="M8.5,6 L75.5,6 A3.75,3.75 0 0 1 78,8.5 L85,28.2969 L796.5,28.2969 A2.5,2.5 0 0 1 799,30.7969 L799,238.5 A2.5,2.5 0 0 1 796.5,241 L8.5,241 A2.5,2.5 0 0 1 6,238.5 L6,8.5 A2.5,2.5 0 0 1 8.5,6 " fill="none" style="stroke:#000000;stroke-width:1.5;"/><line style="stroke:#000000;stroke-width:1.5;" x1="6" x2="85" y1="28.2969" y2="28.2969"/><text fill="#000000" font-family="sans-serif" font-size="14" font-weight="bold" lengthAdjust="spacing" textLength="66" x="10" y="20.9951">Platform</text></g><!--cluster Application--><g id="cluster_Application"><rect fill="none" height="168" rx="2.5" ry="2.5" style="stroke:#181818;stroke-width:1.0;" width="555" x="30" y="49"/><path d="M127,49 L127,58.2969 L117,68.2969 L30,68.2969 " fill="none" style="stroke:#181818;stroke-width:1.0;"/><text fill="#000000" font-family="sans-serif" font-size="14" font-weight="bold" lengthAdjust="spacing" textLength="87" x="33" y="62.9951">Application</text></g><!--entity platform__external_service_1--><g id="elem_platform__external_service_1"><rect fill="#FFE4B5" height="36.2969" rx="2.5" ry="2.5" style="stroke:#181818;stroke-width:0.5;" width="154" x="629" y="63"/><text fill="#000000" font-family="sans-serif" font-size="14" lengthAdjust="spacing" textLength="134" x="639" y="85.9951">External Service #1</text></g><!--entity platform__application__frontend--><g id="elem_platform__application__frontend"><rect fill="#D3D3D3" height="36.2969" rx="2.5" ry="2.5" style="stroke:#181818;stroke-width:0.5;" width="83" x="46" y="84"/><text fill="#000000" font-family="sans-serif" font-size="14" lengthAdjust="spacing" textLength="63" x="56" y="106.9951">Frontend</text></g><!--entity platform__application__backend_service_1--><g id="elem_platform__application__backend_service_1"><rect fill="#87CEEB" height="36.2969" rx="2.5" ry="2.5" style="stroke:#181818;stroke-width:2.0;" width="160" x="189" y="84"/><text fill="#000000" font-family="sans-serif" font-size="14" lengthAdjust="spacing" textLength="140" x="199" y="106.9951">Backend Service #1</text></g><!--entity platform__application__backend_service_2--><g id="elem_platform__application__backend_service_2"><rect fill="#ADD8E6" height="36.2969" rx="2.5" ry="2.5" style="stroke:#181818;stroke-width:0.5;" width="160" x="409" y="117"/><text fill="#000000" font-family="sans-serif" font-size="14" lengthAdjust="spacing" textLength="140" x="419" y="139.9951">Backend Service #2</text></g><!--entity platform__application__backend_service_1_database--><g id="elem_platform__application__backend_service_1_database"><path d="M227,165.5 C227,155.5 269,155.5 269,155.5 C269,155.5 311,155.5 311,165.5 L311,190.7969 C311,200.7969 269,200.7969 269,200.7969 C269,200.7969 227,200.7969 227,190.7969 L227,165.5 " fill="#F1F1F1" style="stroke:#181818;stroke-width:0.5;"/><path d="M227,165.5 C227,175.5 269,175.5 269,175.5 C269,175.5 311,175.5 311,165.5 " fill="none" style="stroke:#181818;stroke-width:0.5;"/><text fill="#000000" font-family="sans-serif" font-size="14" lengthAdjust="spacing" textLength="64" x="237" y="192.4951">database</text></g><!--link platform__application__frontend to platform__application__backend_service_1--><g id="link_platform__application__frontend_platform__application__backend_service_1"><path d="M129.14,102 C146.93,102 162.33,102 182.97,102 " fill="none" id="platform__application__frontend-to-platform__application__backend_service_1" style="stroke:#181818;stroke-width:1.0;"/><polygon fill="#181818" points="188.97,102,179.97,98,183.97,102,179.97,106,188.97,102" style="stroke:#181818;stroke-width:1.0;"/></g><!--link platform__application__backend_service_1 to platform__external_service_1--><g id="link_platform__application__backend_service_1_platform__external_service_1"><path d="M349.15,91.5 C428.86,91.5 544.31,91.5 622.92,91.5 " fill="none" id="platform__application__backend_service_1-to-platform__external_service_1" style="stroke:#181818;stroke-width:1.0;"/><polygon fill="#181818" points="628.92,91.5,619.92,87.5,623.92,91.5,619.92,95.5,628.92,91.5" style="stroke:#181818;stroke-width:1.0;"/></g><!--link platform__application__backend_service_1 to platform__application__backend_service_2--><g id="link_platform__application__backend_service_1_platform__application__backend_service_2"><path d="M330,120.06 C330,128.41 330,136.5 330,136.5 C330,136.5 363.13,136.5 402.57,136.5 " fill="none" id="platform__application__backend_service_1-to-platform__application__backend_service_2" style="stroke:#181818;stroke-width:1.0;"/><polygon fill="#181818" points="408.57,136.5,399.57,132.5,403.57,136.5,399.57,140.5,408.57,136.5" style="stroke:#181818;stroke-width:1.0;"/></g><!--reverse link platform__application__backend_service_1_database to platform__application__backend_service_1--><g id="link_platform__application__backend_service_1_database_platform__application__backend_service_1"><path d="M269,149.2 C269,138 269,130.7 269,120.2 " fill="none" id="platform__application__backend_service_1_database-backto-platform__application__backend_service_1" style="stroke:#181818;stroke-width:1.0;"/><polygon fill="#181818" points="269,155.2,273,146.2,269,150.2,265,146.2,269,155.2" style="stroke:#181818;stroke-width:1.0;"/></g><rect fill="none" height="62.8906" id="_legend" rx="7.5" ry="7.5" style="stroke:#FFFFFF;stroke-width:1.0;" width="159" x="12" y="259"/><text fill="#000000" font-family="sans-serif" font-size="14" lengthAdjust="spacing" textLength="36" x="21" y="278.9951">Color</text><text fill="#000000" font-family="sans-serif" font-size="14" lengthAdjust="spacing" textLength="91" x="65" y="278.9951">Belongs to ...</text><rect fill="#ADD8E6" height="16.2969" style="stroke:none;stroke-width:1.0;" width="44" x="17" y="282.2969"/><text fill="#000000" font-family="sans-serif" font-size="14" lengthAdjust="spacing" textLength="4" x="17" y="295.292">&#160;</text><text fill="#000000" font-family="sans-serif" font-size="14" lengthAdjust="spacing" textLength="101" x="65" y="295.292">our application</text><rect fill="#FFE4B5" height="16.2969" style="stroke:none;stroke-width:1.0;" width="44" x="17" y="298.5938"/><text fill="#000000" font-family="sans-serif" font-size="14" lengthAdjust="spacing" textLength="4" x="17" y="311.5889">&#160;</text><text fill="#000000" font-family="sans-serif" font-size="14" lengthAdjust="spacing" textLength="98" x="65" y="311.5889">same platform</text><line style="stroke:#000000;stroke-width:1.0;" x1="17" x2="166" y1="266" y2="266"/><line style="stroke:#000000;stroke-width:1.0;" x1="17" x2="166" y1="282.2969" y2="282.2969"/><line style="stroke:#000000;stroke-width:1.0;" x1="17" x2="166" y1="298.5938" y2="298.5938"/><line style="stroke:#000000;stroke-width:1.0;" x1="17" x2="166" y1="314.8906" y2="314.8906"/><line style="stroke:#000000;stroke-width:1.0;" x1="17" x2="17" y1="266" y2="314.8906"/><line style="stroke:#000000;stroke-width:1.0;" x1="61" x2="61" y1="266" y2="314.8906"/><line style="stroke:#000000;stroke-width:1.0;" x1="166" x2="166" y1="266" y2="314.8906"/></g></svg>