<?xml version="1.0" encoding="us-ascii" standalone="no"?><svg xmlns="http://www.w3.org/2000/svg" xmlns:xlink="http://www.w3.org/1999/xlink" contentStyleType="text/css" height="938px" preserveAspectRatio="none" style="width:1306px;height:938px;background:#FFFFFF;" version="1.1" viewBox="0 0 1306 938" width="1306px" zoomAndPan="magnify"><defs/><g><!--cluster Platform--><g id="cluster_Platform"><path d="M17,12 L151,12 A7.5,7.5 0 0 1 156,17 L170,56.5938 L1284,56.5938 A5,5 0 0 1 1289,61.5938 L1289,477 A5,5 0 0 1 1284,482 L17,482 A5,5 0 0 1 12,477 L12,17 A5,5 0 0 1 17,12 " fill="none" style="stroke:#000000;stroke-width:3.0;"/><line style="stroke:#000000;stroke-width:3.0;" x1="12" x2="170" y1="56.5938" y2="56.5938"/><text fill="#000000" font-family="sans-serif" font-size="28" font-weight="bold" lengthAdjust="spacing" textLength="132" x="20" y="41.9902">Platform</text></g><!--cluster Application--><g id="cluster_Application"><rect fill="none" height="336" rx="5" ry="5" style="stroke:#181818;stroke-width:2.0;" width="684" x="60" y="98"/><path d="M254,98 L254,116.5938 L234,136.5938 L60,136.5938 " fill="none" style="stroke:#181818;stroke-width:2.0;"/><text fill="#000000" font-family="sans-serif" font-size="28" font-weight="bold" lengthAdjust="spacing" textLength="174" x="66" y="125.9902">Application</text></g><!--cluster Other Project--><g id="cluster_Other Project"><path d="M927,530 L1141,530 A7.5,7.5 0 0 1 1146,535 L1160,574.5938 L1287,574.5938 A5,5 0 0 1 1292,579.5938 L1292,699 A5,5 0 0 1 1287,704 L927,704 A5,5 0 0 1 922,699 L922,535 A5,5 0 0 1 927,530 " fill="none" style="stroke:#000000;stroke-width:3.0;"/><line style="stroke:#000000;stroke-width:3.0;" x1="922" x2="1160" y1="574.5938" y2="574.5938"/><text fill="#000000" font-family="sans-serif" font-size="28" font-weight="bold" lengthAdjust="spacing" textLength="212" x="930" y="559.9902">Other Project</text></g><!--entity platform__notification_service--><g id="elem_platform__notification_service"><rect fill="#FFE4B5" height="72.5938" rx="5" ry="5" style="stroke:#181818;stroke-width:1.0;" width="300" x="957" y="168"/><text fill="#000000" font-family="sans-serif" font-size="28" lengthAdjust="spacing" textLength="260" x="977" y="213.9902">Notification Service</text></g><!--entity platform__application__order_service--><g id="elem_platform__application__order_service"><rect fill="#D3D3D3" height="72.5938" rx="5" ry="5" style="stroke:#181818;stroke-width:1.0;" width="226" x="92" y="168"/><text fill="#000000" font-family="sans-serif" font-size="28" lengthAdjust="spacing" textLength="186" x="112" y="213.9902">Order Service</text></g><!--entity platform__application__inventory_service--><g id="elem_platform__application__inventory_service"><rect fill="#87CEEB" height="72.5938" rx="5" ry="5" style="stroke:#181818;stroke-width:4.0;" width="274" x="438" y="168"/><text fill="#000000" font-family="sans-serif" font-size="28" lengthAdjust="spacing" textLength="234" x="458" y="213.9902">Inventory Service</text></g><!--entity platform__application__inventory_database--><g id="elem_platform__application__inventory_database"><path d="M491,331 C491,311 575,311 575,311 C575,311 659,311 659,331 L659,381.5938 C659,401.5938 575,401.5938 575,401.5938 C575,401.5938 491,401.5938 491,381.5938 L491,331 " fill="#F1F1F1" style="stroke:#181818;stroke-width:1.0;"/><path d="M491,331 C491,351 575,351 575,351 C575,351 659,351 659,331 " fill="none" style="stroke:#181818;stroke-width:1.0;"/><text fill="#000000" font-family="sans-serif" font-size="28" lengthAdjust="spacing" textLength="128" x="511" y="384.9902">database</text></g><!--entity other_project__warehouse_service--><g id="elem_other_project__warehouse_service"><rect fill="#F08080" height="72.5938" rx="5" ry="5" style="stroke:#181818;stroke-width:1.0;" width="306" x="954" y="600"/><text fill="#000000" font-family="sans-serif" font-size="28" lengthAdjust="spacing" textLength="266" x="974" y="645.9902">Warehouse Service</text></g><!--link platform__application__order_service to platform__application__inventory_service--><g id="link_platform__application__order_service_platform__application__inventory_service"><path d="M318.02,204 C355.86,204 386.44,204 425.9,204 " fill="none" id="platform__application__order_service-to-platform__application__inventory_service" style="stroke:#181818;stroke-width:2.0;"/><polygon fill="#181818" points="437.9,204,419.9,196,427.9,204,419.9,212,437.9,204" style="stroke:#181818;stroke-width:2.0;"/></g><!--reverse link platform__application__inventory_database to platform__application__inventory_service--><g id="link_platform__application__inventory_database_platform__application__inventory_service"><path d="M576,298.4 C576,276 576,261.4 576,240.4 " fill="none" id="platform__application__inventory_database-backto-platform__application__inventory_service" style="stroke:#181818;stroke-width:2.0;"/><polygon fill="#181818" points="576,310.4,584,292.4,576,300.4,568,292.4,576,310.4" style="stroke:#181818;stroke-width:2.0;"/></g><!--link platform__application__inventory_service to platform__notification_service--><g id="link_platform__application__inventory_service_platform__notification_service"><path d="M712,204 C786.82,204 867.58,204 944.42,204 " fill="none" id="platform__application__inventory_service-to-platform__notification_service" style="stroke:#181818;stroke-width:2.0;"/><polygon fill="#181818" points="956.42,204,938.42,196,946.42,204,938.42,212,956.42,204" style="stroke:#181818;stroke-width:2.0;"/></g><!--link platform__application__inventory_service to other_project__warehouse_service--><g id="link_platform__application__inventory_service_other_project__warehouse_service"><path d="M686,240.08 C686,343.92 686,636 686,636 C686,636 821.44,636 941.82,636 " fill="none" id="platform__application__inventory_service-to-other_project__warehouse_service" style="stroke:#181818;stroke-width:2.0;"/><polygon fill="#181818" points="953.82,636,935.82,628,943.82,636,935.82,644,953.82,636" style="stroke:#181818;stroke-width:2.0;"/></g><rect fill="none" height="158.375" id="_legend" rx="15" ry="15" style="stroke:#FFFFFF;stroke-width:2.0;" width="348" x="24" y="740"/><text fill="#000000" font-family="sans-serif" font-size="28" lengthAdjust="spacing" textLength="72" x="42" y="779.9902">Color</text><text fill="#000000" font-family="sans-serif" font-size="28" lengthAdjust="spacing" textLength="182" x="130" y="779.9902">Belongs to ...</text><rect fill="#ADD8E6" height="32.5938" style="stroke:none;stroke-width:2.0;" width="88" x="34" y="786.5938"/><text fill="#000000" font-family="sans-serif" font-size="28" lengthAdjust="spacing" textLength="8" x="34" y="812.584">&#160;</text><text fill="#000000" font-family="sans-serif" font-size="28" lengthAdjust="spacing" textLength="230" x="130" y="812.584">our components</text><rect fill="#FFE4B5" height="32.5938" style="stroke:none;stroke-width:2.0;" width="88" x="34" y="819.1875"/><text fill="#000000" font-family="sans-serif" font-size="28" lengthAdjust="spacing" textLength="8" x="34" y="845.1777">&#160;</text><text fill="#000000" font-family="sans-serif" font-size="28" lengthAdjust="spacing" textLength="232" x="130" y="845.1777">same application</text><rect fill="#F08080" height="32.5938" style="stroke:none;stroke-width:2.0;" width="88" x="34" y="851.7813"/><text fill="#000000" font-family="sans-serif" font-size="28" lengthAdjust="spacing" textLength="8" x="34" y="877.7715">&#160;</text><text fill="#000000" font-family="sans-serif" font-size="28" lengthAdjust="spacing" textLength="122" x="130" y="877.7715">3rd party</text><line style="stroke:#000000;stroke-width:2.0;" x1="34" x2="362" y1="754" y2="754"/><line style="stroke:#000000;stroke-width:2.0;" x1="34" x2="362" y1="786.5938" y2="786.5938"/><line style="stroke:#000000;stroke-width:2.0;" x1="34" x2="362" y1="819.1875" y2="819.1875"/><line style="stroke:#000000;stroke-width:2.0;" x1="34" x2="362" y1="851.7813" y2="851.7813"/><line style="stroke:#000000;stroke-width:2.0;" x1="34" x2="362" y1="884.375" y2="884.375"/><line style="stroke:#000000;stroke-width:2.0;" x1="34" x2="34" y1="754" y2="884.375"/><line style="stroke:#000000;stroke-width:2.0;" x1="122" x2="122" y1="754" y2="884.375"/><line style="stroke:#000000;stroke-width:2.0;" x1="362" x2="362" y1="754" y2="884.375"/></g></svg>