<?xml version="1.0" encoding="us-ascii" standalone="no"?><svg xmlns="http://www.w3.org/2000/svg" xmlns:xlink="http://www.w3.org/1999/xlink" contentStyleType="text/css" height="341px" preserveAspectRatio="none" style="width:716px;height:341px;background:#FFFFFF;" version="1.1" viewBox="0 0 716 341" width="716px" zoomAndPan="magnify"><defs/><g><!--cluster Application--><g id="cluster_Application"><path d="M8.5,6 L96.5,6 A3.75,3.75 0 0 1 99,8.5 L106,28.2969 L706.5,28.2969 A2.5,2.5 0 0 1 709,30.7969 L709,238.5 A2.5,2.5 0 0 1 706.5,241 L8.5,241 A2.5,2.5 0 0 1 6,238.5 L6,8.5 A2.5,2.5 0 0 1 8.5,6 " fill="none" style="stroke:#000000;stroke-width:1.5;"/><line style="stroke:#000000;stroke-width:1.5;" x1="6" x2="106" y1="28.2969" y2="28.2969"/><text fill="#000000" font-family="sans-serif" font-size="14" font-weight="bold" lengthAdjust="spacing" textLength="87" x="10" y="20.9951">Application</text></g><!--cluster Our Team--><g id="cluster_Our Team"><rect fill="none" height="168" rx="2.5" ry="2.5" style="stroke:#181818;stroke-width:1.0;" width="485" x="30" y="49"/><path d="M117,49 L117,58.2969 L107,68.2969 L30,68.2969 " fill="none" style="stroke:#181818;stroke-width:1.0;"/><text fill="#000000" font-family="sans-serif" font-size="14" font-weight="bold" lengthAdjust="spacing" textLength="77" x="33" y="62.9951">Our Team</text></g><!--entity application__payment_service--><g id="elem_application__payment_service"><rect fill="#FFE4B5" height="36.2969" rx="2.5" ry="2.5" style="stroke:#181818;stroke-width:0.5;" width="134" x="559" y="63"/><text fill="#000000" font-family="sans-serif" font-size="14" lengthAdjust="spacing" textLength="114" x="569" y="85.9951">Payment Service</text></g><!--entity application__team__frontend--><g id="elem_application__team__frontend"><rect fill="#D3D3D3" height="36.2969" rx="2.5" ry="2.5" style="stroke:#181818;stroke-width:0.5;" width="83" x="46" y="84"/><text fill="#000000" font-family="sans-serif" font-size="14" lengthAdjust="spacing" textLength="63" x="56" y="106.9951">Frontend</text></g><!--entity application__team__order_service--><g id="elem_application__team__order_service"><rect fill="#87CEEB" height="36.2969" rx="2.5" ry="2.5" style="stroke:#181818;stroke-width:2.0;" width="113" x="189" y="84"/><text fill="#000000" font-family="sans-serif" font-size="14" lengthAdjust="spacing" textLength="93" x="199" y="106.9951">Order Service</text></g><!--entity application__team__order_database--><g id="elem_application__team__order_database"><path d="M203.5,165.5 C203.5,155.5 245.5,155.5 245.5,155.5 C245.5,155.5 287.5,155.5 287.5,165.5 L287.5,190.7969 C287.5,200.7969 245.5,200.7969 245.5,200.7969 C245.5,200.7969 203.5,200.7969 203.5,190.7969 L203.5,165.5 " fill="#F1F1F1" style="stroke:#181818;stroke-width:0.5;"/><path d="M203.5,165.5 C203.5,175.5 245.5,175.5 245.5,175.5 C245.5,175.5 287.5,175.5 287.5,165.5 " fill="none" style="stroke:#181818;stroke-width:0.5;"/><text fill="#000000" font-family="sans-serif" font-size="14" lengthAdjust="spacing" textLength="64" x="213.5" y="192.4951">database</text></g><!--entity application__team__inventory_service--><g id="elem_application__team__inventory_service"><rect fill="#ADD8E6" height="36.2969" rx="2.5" ry="2.5" style="stroke:#181818;stroke-width:0.5;" width="137" x="362" y="117"/><text fill="#000000" font-family="sans-serif" font-size="14" lengthAdjust="spacing" textLength="117" x="372" y="139.9951">Inventory Service</text></g><!--link application__team__frontend to application__team__order_service--><g id="link_application__team__frontend_application__team__order_service"><path d="M129.01,102 C147.3,102 163.07,102 182.82,102 " fill="none" id="application__team__frontend-to-application__team__order_service" style="stroke:#181818;stroke-width:1.0;"/><polygon fill="#181818" points="188.82,102,179.82,98,183.82,102,179.82,106,188.82,102" style="stroke:#181818;stroke-width:1.0;"/></g><!--reverse link application__team__order_database to application__team__order_service--><g id="link_application__team__order_database_application__team__order_service"><path d="M246,149.2 C246,138 246,130.7 246,120.2 " fill="none" id="application__team__order_database-backto-application__team__order_service" style="stroke:#181818;stroke-width:1.0;"/><polygon fill="#181818" points="246,155.2,250,146.2,246,150.2,242,146.2,246,155.2" style="stroke:#181818;stroke-width:1.0;"/></g><!--link application__team__order_service to application__team__inventory_service--><g id="link_application__team__order_service_application__team__inventory_service"><path d="M295,120.06 C295,128.41 295,136.5 295,136.5 C295,136.5 322.35,136.5 355.96,136.5 " fill="none" id="application__team__order_service-to-application__team__inventory_service" style="stroke:#181818;stroke-width:1.0;"/><polygon fill="#181818" points="361.96,136.5,352.96,132.5,356.96,136.5,352.96,140.5,361.96,136.5" style="stroke:#181818;stroke-width:1.0;"/></g><!--link application__team__order_service to application__payment_service--><g id="link_application__team__order_service_application__payment_service"><path d="M302.05,91.5 C370.58,91.5 479.89,91.5 552.86,91.5 " fill="none" id="application__team__order_service-to-application__payment_service" style="stroke:#181818;stroke-width:1.0;"/><polygon fill="#181818" points="558.86,91.5,549.86,87.5,553.86,91.5,549.86,95.5,558.86,91.5" style="stroke:#181818;stroke-width:1.0;"/></g><rect fill="none" height="62.8906" id="_legend" rx="7.5" ry="7.5" style="stroke:#FFFFFF;stroke-width:1.0;" width="174" x="12" y="259"/><text fill="#000000" font-family="sans-serif" font-size="14" lengthAdjust="spacing" textLength="36" x="21" y="278.9951">Color</text><text fill="#000000" font-family="sans-serif" font-size="14" lengthAdjust="spacing" textLength="91" x="65" y="278.9951">Belongs to ...</text><rect fill="#ADD8E6" height="16.2969" style="stroke:none;stroke-width:1.0;" width="44" x="17" y="282.2969"/><text fill="#000000" font-family="sans-serif" font-size="14" lengthAdjust="spacing" textLength="4" x="17" y="295.292">&#160;</text><text fill="#000000" font-family="sans-serif" font-size="14" lengthAdjust="spacing" textLength="115" x="65" y="295.292">our components</text><rect fill="#FFE4B5" height="16.2969" style="stroke:none;stroke-width:1.0;" width="44" x="17" y="298.5938"/><text fill="#000000" font-family="sans-serif" font-size="14" lengthAdjust="spacing" textLength="4" x="17" y="311.5889">&#160;</text><text fill="#000000" font-family="sans-serif" font-size="14" lengthAdjust="spacing" textLength="116" x="65" y="311.5889">same application</text><line style="stroke:#000000;stroke-width:1.0;" x1="17" x2="181" y1="266" y2="266"/><line style="stroke:#000000;stroke-width:1.0;" x1="17" x2="181" y1="282.2969" y2="282.2969"/><line style="stroke:#000000;stroke-width:1.0;" x1="17" x2="181" y1="298.5938" y2="298.5938"/><line style="stroke:#000000;stroke-width:1.0;" x1="17" x2="181" y1="314.8906" y2="314.8906"/><line style="stroke:#000000;stroke-width:1.0;" x1="17" x2="17" y1="266" y2="314.8906"/><line style="stroke:#000000;stroke-width:1.0;" x1="61" x2="61" y1="266" y2="314.8906"/><line style="stroke:#000000;stroke-width:1.0;" x1="181" x2="181" y1="266" y2="314.8906"/></g></svg>