<?xml version="1.0" encoding="us-ascii" standalone="no"?><svg xmlns="http://www.w3.org/2000/svg" xmlns:xlink="http://www.w3.org/1999/xlink" contentStyleType="text/css" height="682px" preserveAspectRatio="none" style="width:1432px;height:682px;background:#FFFFFF;" version="1.1" viewBox="0 0 1432 682" width="1432px" zoomAndPan="magnify"><defs/><g><!--cluster Platform--><g id="cluster_Platform"><path d="M17,12 L151,12 A7.5,7.5 0 0 1 156,17 L170,56.5938 L1413,56.5938 A5,5 0 0 1 1418,61.5938 L1418,477 A5,5 0 0 1 1413,482 L17,482 A5,5 0 0 1 12,477 L12,17 A5,5 0 0 1 17,12 " fill="none" style="stroke:#000000;stroke-width:3.0;"/><line style="stroke:#000000;stroke-width:3.0;" x1="12" x2="170" y1="56.5938" y2="56.5938"/><text fill="#000000" font-family="sans-serif" font-size="28" font-weight="bold" lengthAdjust="spacing" textLength="132" x="20" y="41.9902">Platform</text></g><!--cluster Application--><g id="cluster_Application"><rect fill="none" height="336" rx="5" ry="5" style="stroke:#181818;stroke-width:2.0;" width="970" x="60" y="98"/><path d="M254,98 L254,116.5938 L234,136.5938 L60,136.5938 " fill="none" style="stroke:#181818;stroke-width:2.0;"/><text fill="#000000" font-family="sans-serif" font-size="28" font-weight="bold" lengthAdjust="spacing" textLength="174" x="66" y="125.9902">Application</text></g><!--entity platform__payment_service--><g id="elem_platform__payment_service"><rect fill="#FFE4B5" height="72.5938" rx="5" ry="5" style="stroke:#181818;stroke-width:1.0;" width="268" x="1118" y="126"/><text fill="#000000" font-family="sans-serif" font-size="28" lengthAdjust="spacing" textLength="228" x="1138" y="171.9902">Payment Service</text></g><!--entity platform__application__frontend--><g id="elem_platform__application__frontend"><rect fill="#D3D3D3" height="72.5938" rx="5" ry="5" style="stroke:#181818;stroke-width:1.0;" width="166" x="92" y="168"/><text fill="#000000" font-family="sans-serif" font-size="28" lengthAdjust="spacing" textLength="126" x="112" y="213.9902">Frontend</text></g><!--entity platform__application__order_service--><g id="elem_platform__application__order_service"><rect fill="#87CEEB" height="72.5938" rx="5" ry="5" style="stroke:#181818;stroke-width:4.0;" width="226" x="378" y="168"/><text fill="#000000" font-family="sans-serif" font-size="28" lengthAdjust="spacing" textLength="186" x="398" y="213.9902">Order Service</text></g><!--entity platform__application__order_database--><g id="elem_platform__application__order_database"><path d="M407,331 C407,311 491,311 491,311 C491,311 575,311 575,331 L575,381.5938 C575,401.5938 491,401.5938 491,401.5938 C491,401.5938 407,401.5938 407,381.5938 L407,331 " fill="#F1F1F1" style="stroke:#181818;stroke-width:1.0;"/><path d="M407,331 C407,351 491,351 491,351 C491,351 575,351 575,331 " fill="none" style="stroke:#181818;stroke-width:1.0;"/><text fill="#000000" font-family="sans-serif" font-size="28" lengthAdjust="spacing" textLength="128" x="427" y="384.9902">database</text></g><!--entity platform__application__inventory_service--><g id="elem_platform__application__inventory_service"><rect fill="#ADD8E6" height="72.5938" rx="5" ry="5" style="stroke:#181818;stroke-width:1.0;" width="274" x="724" y="234"/><text fill="#000000" font-family="sans-serif" font-size="28" lengthAdjust="spacing" textLength="234" x="744" y="279.9902">Inventory Service</text></g><!--link platform__application__frontend to platform__application__order_service--><g id="link_platform__application__frontend_platform__application__order_service"><path d="M258.02,204 C294.6,204 326.14,204 365.64,204 " fill="none" id="platform__application__frontend-to-platform__application__order_service" style="stroke:#181818;stroke-width:2.0;"/><polygon fill="#181818" points="377.64,204,359.64,196,367.64,204,359.64,212,377.64,204" style="stroke:#181818;stroke-width:2.0;"/></g><!--reverse link platform__application__order_database to platform__application__order_service--><g id="link_platform__application__order_database_platform__application__order_service"><path d="M492,298.4 C492,276 492,261.4 492,240.4 " fill="none" id="platform__application__order_database-backto-platform__application__order_service" style="stroke:#181818;stroke-width:2.0;"/><polygon fill="#181818" points="492,310.4,500,292.4,492,300.4,484,292.4,492,310.4" style="stroke:#181818;stroke-width:2.0;"/></g><!--link platform__application__order_service to platform__application__inventory_service--><g id="link_platform__application__order_service_platform__application__inventory_service"><path d="M590,240.12 C590,256.82 590,273 590,273 C590,273 644.7,273 711.92,273 " fill="none" id="platform__application__order_service-to-platform__application__inventory_service" style="stroke:#181818;stroke-width:2.0;"/><polygon fill="#181818" points="723.92,273,705.92,265,713.92,273,705.92,281,723.92,273" style="stroke:#181818;stroke-width:2.0;"/></g><!--link platform__application__order_service to platform__payment_service--><g id="link_platform__application__order_service_platform__payment_service"><path d="M604.1,183 C741.16,183 959.78,183 1105.72,183 " fill="none" id="platform__application__order_service-to-platform__payment_service" style="stroke:#181818;stroke-width:2.0;"/><polygon fill="#181818" points="1117.72,183,1099.72,175,1107.72,183,1099.72,191,1117.72,183" style="stroke:#181818;stroke-width:2.0;"/></g><rect fill="none" height="125.7813" id="_legend" rx="15" ry="15" style="stroke:#FFFFFF;stroke-width:2.0;" width="348" x="24" y="518"/><text fill="#000000" font-family="sans-serif" font-size="28" lengthAdjust="spacing" textLength="72" x="42" y="557.9902">Color</text><text fill="#000000" font-family="sans-serif" font-size="28" lengthAdjust="spacing" textLength="182" x="130" y="557.9902">Belongs to ...</text><rect fill="#ADD8E6" height="32.5938" style="stroke:none;stroke-width:2.0;" width="88" x="34" y="564.5938"/><text fill="#000000" font-family="sans-serif" font-size="28" lengthAdjust="spacing" textLength="8" x="34" y="590.584">&#160;</text><text fill="#000000" font-family="sans-serif" font-size="28" lengthAdjust="spacing" textLength="230" x="130" y="590.584">our components</text><rect fill="#FFE4B5" height="32.5938" style="stroke:none;stroke-width:2.0;" width="88" x="34" y="597.1875"/><text fill="#000000" font-family="sans-serif" font-size="28" lengthAdjust="spacing" textLength="8" x="34" y="623.1777">&#160;</text><text fill="#000000" font-family="sans-serif" font-size="28" lengthAdjust="spacing" textLength="232" x="130" y="623.1777">same application</text><line style="stroke:#000000;stroke-width:2.0;" x1="34" x2="362" y1="532" y2="532"/><line style="stroke:#000000;stroke-width:2.0;" x1="34" x2="362" y1="564.5938" y2="564.5938"/><line style="stroke:#000000;stroke-width:2.0;" x1="34" x2="362" y1="597.1875" y2="597.1875"/><line style="stroke:#000000;stroke-width:2.0;" x1="34" x2="362" y1="629.7813" y2="629.7813"/><line style="stroke:#000000;stroke-width:2.0;" x1="34" x2="34" y1="532" y2="629.7813"/><line style="stroke:#000000;stroke-width:2.0;" x1="122" x2="122" y1="532" y2="629.7813"/><line style="stroke:#000000;stroke-width:2.0;" x1="362" x2="362" y1="532" y2="629.7813"/></g></svg>