<?xml version="1.0" encoding="us-ascii" standalone="no"?><svg xmlns="http://www.w3.org/2000/svg" xmlns:xlink="http://www.w3.org/1999/xlink" contentStyleType="text/css" height="263px" preserveAspectRatio="none" style="width:712px;height:263px;background:#FFFFFF;" version="1.1" viewBox="0 0 712 263" width="712px" zoomAndPan="magnify"><defs/><g><!--cluster Platform--><g id="cluster_Platform"><path d="M8.5,8.5 L75.5,8.5 A3.75,3.75 0 0 1 78,11 L85,30.7969 L166.5,30.7969 A2.5,2.5 0 0 1 169,33.2969 L169,160 A2.5,2.5 0 0 1 166.5,162.5 L8.5,162.5 A2.5,2.5 0 0 1 6,160 L6,11 A2.5,2.5 0 0 1 8.5,8.5 " fill="none" style="stroke:#000000;stroke-width:1.5;"/><line style="stroke:#000000;stroke-width:1.5;" x1="6" x2="85" y1="30.7969" y2="30.7969"/><text fill="#000000" font-family="sans-serif" font-size="14" font-weight="bold" lengthAdjust="spacing" textLength="66" x="10" y="23.4951">Platform</text></g><!--cluster Application--><g id="cluster_Application"><rect fill="none" height="87" rx="2.5" ry="2.5" style="stroke:#181818;stroke-width:1.0;" width="115" x="30" y="51.5"/><path d="M127,51.5 L127,60.7969 L117,70.7969 L30,70.7969 " fill="none" style="stroke:#181818;stroke-width:1.0;"/><text fill="#000000" font-family="sans-serif" font-size="14" font-weight="bold" lengthAdjust="spacing" textLength="87" x="33" y="65.4951">Application</text></g><!--entity platform__application__frontend--><g id="elem_platform__application__frontend"><rect fill="#D3D3D3" height="36.2969" rx="2.5" ry="2.5" style="stroke:#181818;stroke-width:0.5;" width="83" x="46" y="86.5"/><text fill="#000000" font-family="sans-serif" font-size="14" lengthAdjust="spacing" textLength="63" x="56" y="109.4951">Frontend</text></g><!--entity order_service--><g id="elem_order_service"><rect fill="#87CEEB" height="36.2969" rx="2.5" ry="2.5" style="stroke:#181818;stroke-width:2.0;" width="111" x="196.5" y="86.5"/><text fill="#000000" font-family="sans-serif" font-size="14" lengthAdjust="spacing" textLength="91" x="206.5" y="109.4951">order-service</text></g><!--entity order_database--><g id="elem_order_database"><path d="M189,16 C189,6 252,6 252,6 C252,6 315,6 315,16 L315,41.2969 C315,51.2969 252,51.2969 252,51.2969 C252,51.2969 189,51.2969 189,41.2969 L189,16 " fill="#F1F1F1" style="stroke:#181818;stroke-width:0.5;"/><path d="M189,16 C189,26 252,26 252,26 C252,26 315,26 315,16 " fill="none" style="stroke:#181818;stroke-width:0.5;"/><text fill="#000000" font-family="sans-serif" font-size="14" lengthAdjust="spacing" textLength="106" x="199" y="42.9951">order-database</text></g><!--entity payment_service--><g id="elem_payment_service"><rect fill="#FFE4B5" height="36.2969" rx="2.5" ry="2.5" style="stroke:#181818;stroke-width:0.5;" width="134" x="572" y="50.5"/><text fill="#000000" font-family="sans-serif" font-size="14" lengthAdjust="spacing" textLength="114" x="582" y="73.4951">payment-service</text></g><!--entity inventory_service--><g id="elem_inventory_service"><rect fill="#ADD8E6" height="36.2969" rx="2.5" ry="2.5" style="stroke:#181818;stroke-width:0.5;" width="137" x="375" y="121.5"/><text fill="#000000" font-family="sans-serif" font-size="14" lengthAdjust="spacing" textLength="117" x="385" y="144.4951">inventory-service</text></g><!--link platform__application__frontend to order_service--><g id="link_platform__application__frontend_order_service"><path d="M129.01,104.5 C149.38,104.5 168.21,104.5 190.21,104.5 " fill="none" id="platform__application__frontend-to-order_service" style="stroke:#181818;stroke-width:1.0;"/><polygon fill="#181818" points="196.21,104.5,187.21,100.5,191.21,104.5,187.21,108.5,196.21,104.5" style="stroke:#181818;stroke-width:1.0;"/></g><!--reverse link order_database to order_service--><g id="link_order_database_order_service"><path d="M234,57.3 C234,68.5 234,75.8 234,86.3 " fill="none" id="order_database-backto-order_service" style="stroke:#181818;stroke-width:1.0;"/><polygon fill="#181818" points="234,51.3,230,60.3,234,56.3,238,60.3,234,51.3" style="stroke:#181818;stroke-width:1.0;"/></g><!--link order_service to payment_service--><g id="link_order_service_payment_service"><path d="M271,86.21 C271,77.41 271,68.75 271,68.75 C271,68.75 459.79,68.75 565.93,68.75 " fill="none" id="order_service-to-payment_service" style="stroke:#181818;stroke-width:1.0;"/><polygon fill="#181818" points="571.93,68.75,562.93,64.75,566.93,68.75,562.93,72.75,571.93,68.75" style="stroke:#181818;stroke-width:1.0;"/></g><!--link order_service to inventory_service--><g id="link_order_service_inventory_service"><path d="M252,122.67 C252,131.4 252,140 252,140 C252,140 313.96,140 368.91,140 " fill="none" id="order_service-to-inventory_service" style="stroke:#181818;stroke-width:1.0;"/><polygon fill="#181818" points="374.91,140,365.91,136,369.91,140,365.91,144,374.91,140" style="stroke:#181818;stroke-width:1.0;"/></g><rect fill="none" height="62.8906" id="_legend" rx="7.5" ry="7.5" style="stroke:#FFFFFF;stroke-width:1.0;" width="159" x="12" y="180.5"/><text fill="#000000" font-family="sans-serif" font-size="14" lengthAdjust="spacing" textLength="36" x="21" y="200.4951">Color</text><text fill="#000000" font-family="sans-serif" font-size="14" lengthAdjust="spacing" textLength="91" x="65" y="200.4951">Belongs to ...</text><rect fill="#ADD8E6" height="16.2969" style="stroke:none;stroke-width:1.0;" width="44" x="17" y="203.7969"/><text fill="#000000" font-family="sans-serif" font-size="14" lengthAdjust="spacing" textLength="4" x="17" y="216.792">&#160;</text><text fill="#000000" font-family="sans-serif" font-size="14" lengthAdjust="spacing" textLength="101" x="65" y="216.792">our application</text><rect fill="#FFE4B5" height="16.2969" style="stroke:none;stroke-width:1.0;" width="44" x="17" y="220.0938"/><text fill="#000000" font-family="sans-serif" font-size="14" lengthAdjust="spacing" textLength="4" x="17" y="233.0889">&#160;</text><text fill="#000000" font-family="sans-serif" font-size="14" lengthAdjust="spacing" textLength="98" x="65" y="233.0889">same platform</text><line style="stroke:#000000;stroke-width:1.0;" x1="17" x2="166" y1="187.5" y2="187.5"/><line style="stroke:#000000;stroke-width:1.0;" x1="17" x2="166" y1="203.7969" y2="203.7969"/><line style="stroke:#000000;stroke-width:1.0;" x1="17" x2="166" y1="220.0938" y2="220.0938"/><line style="stroke:#000000;stroke-width:1.0;" x1="17" x2="166" y1="236.3906" y2="236.3906"/><line style="stroke:#000000;stroke-width:1.0;" x1="17" x2="17" y1="187.5" y2="236.3906"/><line style="stroke:#000000;stroke-width:1.0;" x1="61" x2="61" y1="187.5" y2="236.3906"/><line style="stroke:#000000;stroke-width:1.0;" x1="166" x2="166" y1="187.5" y2="236.3906"/></g></svg>