<?xml version="1.0" encoding="us-ascii" standalone="no"?><svg xmlns="http://www.w3.org/2000/svg" xmlns:xlink="http://www.w3.org/1999/xlink" contentStyleType="text/css" height="341px" preserveAspectRatio="none" style="width:732px;height:341px;background:#FFFFFF;" version="1.1" viewBox="0 0 732 341" width="732px" zoomAndPan="magnify"><defs/><g><!--cluster Platform--><g id="cluster_Platform"><path d="M8.5,6 L75.5,6 A3.75,3.75 0 0 1 78,8.5 L85,28.2969 L722.5,28.2969 A2.5,2.5 0 0 1 725,30.7969 L725,238.5 A2.5,2.5 0 0 1 722.5,241 L8.5,241 A2.5,2.5 0 0 1 6,238.5 L6,8.5 A2.5,2.5 0 0 1 8.5,6 " fill="none" style="stroke:#000000;stroke-width:1.5;"/><line style="stroke:#000000;stroke-width:1.5;" x1="6" x2="85" y1="28.2969" y2="28.2969"/><text fill="#000000" font-family="sans-serif" font-size="14" font-weight="bold" lengthAdjust="spacing" textLength="66" x="10" y="20.9951">Platform</text></g><!--cluster Application--><g id="cluster_Application"><rect fill="none" height="168" rx="2.5" ry="2.5" style="stroke:#181818;stroke-width:1.0;" width="485" x="30" y="49"/><path d="M127,49 L127,58.2969 L117,68.2969 L30,68.2969 " fill="none" style="stroke:#181818;stroke-width:1.0;"/><text fill="#000000" font-family="sans-serif" font-size="14" font-weight="bold" lengthAdjust="spacing" textLength="87" x="33" y="62.9951">Application</text></g><!--entity platform__notification_service--><g id="elem_platform__notification_service"><rect fill="#FFE4B5" height="36.2969" rx="2.5" ry="2.5" style="stroke:#181818;stroke-width:0.5;" width="150" x="559" y="114"/><text fill="#000000" font-family="sans-serif" font-size="14" lengthAdjust="spacing" textLength="130" x="569" y="136.9951">Notification Service</text></g><!--entity platform__payment_service--><g id="elem_platform__payment_service"><rect fill="#FFE4B5" height="36.2969" rx="2.5" ry="2.5" style="stroke:#181818;stroke-width:0.5;" width="134" x="567" y="43"/><text fill="#000000" font-family="sans-serif" font-size="14" lengthAdjust="spacing" textLength="114" x="577" y="65.9951">Payment Service</text></g><!--entity platform__application__frontend--><g id="elem_platform__application__frontend"><rect fill="#D3D3D3" height="36.2969" rx="2.5" ry="2.5" style="stroke:#181818;stroke-width:0.5;" width="83" x="46" y="84"/><text fill="#000000" font-family="sans-serif" font-size="14" lengthAdjust="spacing" textLength="63" x="56" y="106.9951">Frontend</text></g><!--entity platform__application__order_service--><g id="elem_platform__application__order_service"><rect fill="#87CEEB" height="36.2969" rx="2.5" ry="2.5" style="stroke:#181818;stroke-width:2.0;" width="113" x="189" y="84"/><text fill="#000000" font-family="sans-serif" font-size="14" lengthAdjust="spacing" textLength="93" x="199" y="106.9951">Order Service</text></g><!--entity platform__application__order_database--><g id="elem_platform__application__order_database"><path d="M203.5,165.5 C203.5,155.5 245.5,155.5 245.5,155.5 C245.5,155.5 287.5,155.5 287.5,165.5 L287.5,190.7969 C287.5,200.7969 245.5,200.7969 245.5,200.7969 C245.5,200.7969 203.5,200.7969 203.5,190.7969 L203.5,165.5 " fill="#F1F1F1" style="stroke:#181818;stroke-width:0.5;"/><path d="M203.5,165.5 C203.5,175.5 245.5,175.5 245.5,175.5 C245.5,175.5 287.5,175.5 287.5,165.5 " fill="none" style="stroke:#181818;stroke-width:0.5;"/><text fill="#000000" font-family="sans-serif" font-size="14" lengthAdjust="spacing" textLength="64" x="213.5" y="192.4951">database</text></g><!--entity platform__application__inventory_service--><g id="elem_platform__application__inventory_service"><rect fill="#ADD8E6" height="36.2969" rx="2.5" ry="2.5" style="stroke:#181818;stroke-width:0.5;" width="137" x="362" y="138"/><text fill="#000000" font-family="sans-serif" font-size="14" lengthAdjust="spacing" textLength="117" x="372" y="160.9951">Inventory Service</text></g><!--link platform__application__frontend to platform__application__order_service--><g id="link_platform__application__frontend_platform__application__order_service"><path d="M129.01,102 C147.3,102 163.07,102 182.82,102 " fill="none" id="platform__application__frontend-to-platform__application__order_service" style="stroke:#181818;stroke-width:1.0;"/><polygon fill="#181818" points="188.82,102,179.82,98,183.82,102,179.82,106,188.82,102" style="stroke:#181818;stroke-width:1.0;"/></g><!--reverse link platform__application__order_database to platform__application__order_service--><g id="link_platform__application__order_database_platform__application__order_service"><path d="M246,149.2 C246,138 246,130.7 246,120.2 " fill="none" id="platform__application__order_database-backto-platform__application__order_service" style="stroke:#181818;stroke-width:1.0;"/><polygon fill="#181818" points="246,155.2,250,146.2,246,150.2,242,146.2,246,155.2" style="stroke:#181818;stroke-width:1.0;"/></g><!--link platform__application__order_service to platform__notification_service--><g id="link_platform__application__order_service_platform__notification_service"><path d="M293,120.16 C293,125.04 293,129 293,129 C293,129 452.32,129 552.74,129 " fill="none" id="platform__application__order_service-to-platform__notification_service" style="stroke:#181818;stroke-width:1.0;"/><polygon fill="#181818" points="558.74,129,549.74,125,553.74,129,549.74,133,558.74,129" style="stroke:#181818;stroke-width:1.0;"/></g><!--link platform__application__order_service to platform__application__inventory_service--><g id="link_platform__application__order_service_platform__application__inventory_service"><path d="M298,120.2 C298,132.59 298,146.75 298,146.75 C298,146.75 323.59,146.75 355.92,146.75 " fill="none" id="platform__application__order_service-to-platform__application__inventory_service" style="stroke:#181818;stroke-width:1.0;"/><polygon fill="#181818" points="361.92,146.75,352.92,142.75,356.92,146.75,352.92,150.75,361.92,146.75" style="stroke:#181818;stroke-width:1.0;"/></g><!--link platform__application__order_service to platform__payment_service--><g id="link_platform__application__order_service_platform__payment_service"><path d="M246,83.9 C246,72.91 246,61 246,61 C246,61 449.81,61 560.86,61 " fill="none" id="platform__application__order_service-to-platform__payment_service" style="stroke:#181818;stroke-width:1.0;"/><polygon fill="#181818" points="566.86,61,557.86,57,561.86,61,557.86,65,566.86,61" style="stroke:#181818;stroke-width:1.0;"/></g><rect fill="none" height="62.8906" id="_legend" rx="7.5" ry="7.5" style="stroke:#FFFFFF;stroke-width:1.0;" width="159" x="12" y="259"/><text fill="#000000" font-family="sans-serif" font-size="14" lengthAdjust="spacing" textLength="36" x="21" y="278.9951">Color</text><text fill="#000000" font-family="sans-serif" font-size="14" lengthAdjust="spacing" textLength="91" x="65" y="278.9951">Belongs to ...</text><rect fill="#ADD8E6" height="16.2969" style="stroke:none;stroke-width:1.0;" width="44" x="17" y="282.2969"/><text fill="#000000" font-family="sans-serif" font-size="14" lengthAdjust="spacing" textLength="4" x="17" y="295.292">&#160;</text><text fill="#000000" font-family="sans-serif" font-size="14" lengthAdjust="spacing" textLength="101" x="65" y="295.292">our application</text><rect fill="#FFE4B5" height="16.2969" style="stroke:none;stroke-width:1.0;" width="44" x="17" y="298.5938"/><text fill="#000000" font-family="sans-serif" font-size="14" lengthAdjust="spacing" textLength="4" x="17" y="311.5889">&#160;</text><text fill="#000000" font-family="sans-serif" font-size="14" lengthAdjust="spacing" textLength="98" x="65" y="311.5889">same platform</text><line style="stroke:#000000;stroke-width:1.0;" x1="17" x2="166" y1="266" y2="266"/><line style="stroke:#000000;stroke-width:1.0;" x1="17" x2="166" y1="282.2969" y2="282.2969"/><line style="stroke:#000000;stroke-width:1.0;" x1="17" x2="166" y1="298.5938" y2="298.5938"/><line style="stroke:#000000;stroke-width:1.0;" x1="17" x2="166" y1="314.8906" y2="314.8906"/><line style="stroke:#000000;stroke-width:1.0;" x1="17" x2="17" y1="266" y2="314.8906"/><line style="stroke:#000000;stroke-width:1.0;" x1="61" x2="61" y1="266" y2="314.8906"/><line style="stroke:#000000;stroke-width:1.0;" x1="166" x2="166" y1="266" y2="314.8906"/></g></svg>