<?xml version="1.0" encoding="us-ascii" standalone="no"?><svg xmlns="http://www.w3.org/2000/svg" xmlns:xlink="http://www.w3.org/1999/xlink" contentStyleType="text/css" height="181px" preserveAspectRatio="none" style="width:568px;height:181px;background:#FFFFFF;" version="1.1" viewBox="0 0 568 181" width="568px" zoomAndPan="magnify"><defs/><g><!--cluster Platform--><g id="cluster_Platform"><path d="M8.5,6 L75.5,6 A3.75,3.75 0 0 1 78,8.5 L85,28.2969 L558.5,28.2969 A2.5,2.5 0 0 1 561,30.7969 L561,171.5 A2.5,2.5 0 0 1 558.5,174 L8.5,174 A2.5,2.5 0 0 1 6,171.5 L6,8.5 A2.5,2.5 0 0 1 8.5,6 " fill="none" style="stroke:#000000;stroke-width:1.5;"/><line style="stroke:#000000;stroke-width:1.5;" x1="6" x2="85" y1="28.2969" y2="28.2969"/><text fill="#000000" font-family="sans-serif" font-size="14" font-weight="bold" lengthAdjust="spacing" textLength="66" x="10" y="20.9951">Platform</text></g><!--entity platform__application__frontend--><g id="elem_platform__application__frontend"><rect fill="#D3D3D3" height="36.2969" rx="2.5" ry="2.5" style="stroke:#181818;stroke-width:0.5;" width="83" x="22" y="41"/><text fill="#000000" font-family="sans-serif" font-size="14" lengthAdjust="spacing" textLength="63" x="32" y="63.9951">Frontend</text></g><!--entity platform__application__backend_service_1--><g id="elem_platform__application__backend_service_1"><rect fill="#87CEEB" height="36.2969" rx="2.5" ry="2.5" style="stroke:#181818;stroke-width:2.0;" width="160" x="165" y="41"/><text fill="#000000" font-family="sans-serif" font-size="14" lengthAdjust="spacing" textLength="140" x="175" y="63.9951">Backend Service #1</text></g><!--entity platform__application__backend_service_2--><g id="elem_platform__application__backend_service_2"><rect fill="#ADD8E6" height="36.2969" rx="2.5" ry="2.5" style="stroke:#181818;stroke-width:0.5;" width="160" x="385" y="112"/><text fill="#000000" font-family="sans-serif" font-size="14" lengthAdjust="spacing" textLength="140" x="395" y="134.9951">Backend Service #2</text></g><!--entity platform__application__backend_service_1_database--><g id="elem_platform__application__backend_service_1_database"><path d="M203,122.5 C203,112.5 245,112.5 245,112.5 C245,112.5 287,112.5 287,122.5 L287,147.7969 C287,157.7969 245,157.7969 245,157.7969 C245,157.7969 203,157.7969 203,147.7969 L203,122.5 " fill="#F1F1F1" style="stroke:#181818;stroke-width:0.5;"/><path d="M203,122.5 C203,132.5 245,132.5 245,132.5 C245,132.5 287,132.5 287,122.5 " fill="none" style="stroke:#181818;stroke-width:0.5;"/><text fill="#000000" font-family="sans-serif" font-size="14" lengthAdjust="spacing" textLength="64" x="213" y="149.4951">database</text></g><!--entity platform__external_service_1--><g id="elem_platform__external_service_1"><rect fill="#FFE4B5" height="36.2969" rx="2.5" ry="2.5" style="stroke:#181818;stroke-width:0.5;" width="154" x="388" y="41"/><text fill="#000000" font-family="sans-serif" font-size="14" lengthAdjust="spacing" textLength="134" x="398" y="63.9951">External Service #1</text></g><!--link platform__application__frontend to platform__application__backend_service_1--><g id="link_platform__application__frontend_platform__application__backend_service_1"><path d="M105.23,59 C122.92,59 138.27,59 158.87,59 " fill="none" id="platform__application__frontend-to-platform__application__backend_service_1" style="stroke:#181818;stroke-width:1.0;"/><polygon fill="#181818" points="164.87,59,155.87,55,159.87,59,155.87,63,164.87,59" style="stroke:#181818;stroke-width:1.0;"/></g><!--link platform__application__backend_service_1 to platform__external_service_1--><g id="link_platform__application__backend_service_1_platform__external_service_1"><path d="M325.01,59 C345.48,59 361.48,59 381.81,59 " fill="none" id="platform__application__backend_service_1-to-platform__external_service_1" style="stroke:#181818;stroke-width:1.0;"/><polygon fill="#181818" points="387.81,59,378.81,55,382.81,59,378.81,63,387.81,59" style="stroke:#181818;stroke-width:1.0;"/></g><!--link platform__application__backend_service_1 to platform__application__backend_service_2--><g id="link_platform__application__backend_service_1_platform__application__backend_service_2"><path d="M301.29,77.01 C334.09,87.69 369.8248,99.3323 402.6848,110.0323 " fill="none" id="platform__application__backend_service_1-to-platform__application__backend_service_2" style="stroke:#181818;stroke-width:1.0;"/><polygon fill="#181818" points="408.39,111.89,401.0708,105.3,403.6357,110.3419,398.5938,112.9068,408.39,111.89" style="stroke:#181818;stroke-width:1.0;"/></g><!--reverse link platform__application__backend_service_1_database to platform__application__backend_service_1--><g id="link_platform__application__backend_service_1_database_platform__application__backend_service_1"><path d="M245,106.38 C245,106.38 245,84.33 245,84.33 C245,84.33 245,81.2 245,77.14 " fill="none" id="platform__application__backend_service_1_database-backto-platform__application__backend_service_1" style="stroke:#181818;stroke-width:1.0;"/><polygon fill="#181818" points="245,112.38,249,103.38,245,107.38,241,103.38,245,112.38" style="stroke:#181818;stroke-width:1.0;"/></g></g></svg>