<?xml version="1.0" encoding="us-ascii" standalone="no"?><svg xmlns="http://www.w3.org/2000/svg" xmlns:xlink="http://www.w3.org/1999/xlink" contentStyleType="text/css" height="341px" preserveAspectRatio="none" style="width:732px;height:341px;background:#FFFFFF;" version="1.1" viewBox="0 0 732 341" width="732px" zoomAndPan="magnify"><defs/><g><!--cluster Platform--><g id="cluster_Platform"><path d="M8.5,6 L75.5,6 A3.75,3.75 0 0 1 78,8.5 L85,28.2969 L722.5,28.2969 A2.5,2.5 0 0 1 725,30.7969 L725,238.5 A2.5,2.5 0 0 1 722.5,241 L8.5,241 A2.5,2.5 0 0 1 6,238.5 L6,8.5 A2.5,2.5 0 0 1 8.5,6 " fill="none" style="stroke:#000000;stroke-width:1.5;"/><line style="stroke:#000000;stroke-width:1.5;" x1="6" x2="85" y1="28.2969" y2="28.2969"/><text fill="#000000" font-family="sans-serif" font-size="14" font-weight="bold" lengthAdjust="spacing" textLength="66" x="10" y="20.9951">Platform</text></g><!--cluster Application--><g id="cluster_Application"><rect fill="none" height="168" rx="2.5" ry="2.5" style="stroke:#181818;stroke-width:1.0;" width="485" x="30" y="49"/><path d="M127,49 L127,58.2969 L117,68.2969 L30,68.2969 " fill="none" style="stroke:#181818;stroke-width:1.0;"/><text fill="#000000" font-family="sans-serif" font-size="14" font-weight="bold" lengthAdjust="spacing" textLength="87" x="33" y="62.9951">Application</text></g><!--entity platform__notification_service--><g id="elem_platform__notification_service"><rect fill="#FFE4B5" height="36.2969" rx="2.5" ry="2.5" style="stroke:#181818;stroke-width:0.5;" width="150" x="559" y="114"/><text fill="#000000" font-family="sans-serif" font-size="14" lengthAdjust="spacing" textLength="130" x="569" y="136.9951">Notification Service</text></g><!--entity platform__payment_service--><g id="elem_platform__payment_service"><rect fill="#FFE4B5" height="36.2969" rx="2.5" ry="2.5" style="stroke:#181818;stroke-width:0.5;" width="134" x="567" y="43"/><text fill="#000000" font-family="sans-serif" font-size="14" lengthAdjust="spacing" textLength="114" x="577" y="65.9951">Payment Service</text></g><!--entity platform__application__frontend--><g id="elem_platform__application__frontend"><rect fill="#D3D3D3" height="36.2969" rx="2.5" ry="2.5" style="stroke:#181818;stroke-width:0.5;" width="83" x="46" y="84"/><text fill="#000000" font-family="sans-serif" font-size="14" lengthAdjust="spacing" textLength="63" x="56" y="106.9951">Frontend</text></g><!--entity platform__application__order_service--><g id="elem_platform__application__order_service"><rect fill="#87CEEB" height="36.2969" rx="2.5" ry="2.5" style="stroke:#181818;stroke-width:2.0;" width="113" x="189" y="84"/><text fill="#000000" font-family="sans-serif" font-size="14" lengthAdjust="spacing" textLength="93" x="199" y="106.9951">Order Service</text></g><!--entity platform__application__order_database--><g id="elem_platform__application__order_database"><path d="M203.5,165.5 C203.5,155.5 245.5,155.5 245.5,155.5 C245.5,155.5 287.5,155.5 287.5,165.5 L287.5,190.7969 C287.5,200.7969 245.5,200.7969 245.5,200.7969 C245.5,200.7969 203.5,200.7969 203.5,190.7969 L203.5,165.5 " fill="#F1F1F1" style="stroke:#181818;stroke-width:0.5;"/><path d="M203.5,165.5 C203.5,175.5 245.5,175.5 245.5,175.5 C245.5,175.5 287.5,175.5 287.5,165.5 " fill="none" style="stroke:#181818;stroke-width:0.5;"/><text fill="#000000" font-family="sans-serif" font-size="14" lengthAdjust="spacing" textLength="64" x="213.5" y="192.4951">database</text></g><!--entity platform__application__inventory_service--><g id="elem_platform__application__inventory_service"><rect fill="#ADD8E6" height="36.2969" rx="2.5" ry="2.5" style="stroke:#181818;stroke-width:0.5;" width="137" x="362" y="138"/><text fill="#000000" font-family="sans-serif" font-size="14" lengthAdjust="spacing" textLength="117" x="372" y="160.9951">Inventory Service</text></g><!--link platform__application__frontend to platform__application__order_service--><g id="link_platform__application__frontend_platform__application__order_service"><path d="M129.08,102 C147.32,102 163.13,102 182.86,102 " fill="none" id="platform__application__frontend-to-platform__application__order_service" style="stroke:#181818;stroke-width:1.0;"/><polygon fill="#181818" points="188.86,102,179.86,98,183.86,102,179.86,106,188.86,102" style="stroke:#181818;stroke-width:1.0;"/></g><!--reverse link platform__application__order_database to platform__application__order_service--><g id="link_platform__application__order_database_platform__application__order_service"><path d="M245.5,149.38 C245.5,149.38 245.5,127.33 245.5,127.33 C245.5,127.33 245.5,124.2 245.5,120.14 " fill="none" id="platform__application__order_database-backto-platform__application__order_service" style="stroke:#181818;stroke-width:1.0;"/><polygon fill="#181818" points="245.5,155.38,249.5,146.38,245.5,150.38,241.5,146.38,245.5,155.38" style="stroke:#181818;stroke-width:1.0;"/></g><!--link platform__application__order_service to platform__notification_service--><g id="link_platform__application__order_service_platform__notification_service"><path d="M302.12,105.62 C382.86,110.88 523,120 523,120 C523,120 532.9956,121.0877 552.7456,123.2477 " fill="none" id="platform__application__order_service-to-platform__notification_service" style="stroke:#181818;stroke-width:1.0;"/><polygon fill="#181818" points="558.71,123.9,550.1982,118.9452,553.7396,123.3564,549.3285,126.8978,558.71,123.9" style="stroke:#181818;stroke-width:1.0;"/></g><!--link platform__application__order_service to platform__application__inventory_service--><g id="link_platform__application__order_service_platform__application__inventory_service"><path d="M302.4,118.5 C323.21,124.64 341.1848,129.9435 362.4548,136.2135 " fill="none" id="platform__application__order_service-to-platform__application__inventory_service" style="stroke:#181818;stroke-width:1.0;"/><polygon fill="#181818" points="368.21,137.91,360.7083,131.5285,363.414,136.4962,358.4463,139.202,368.21,137.91" style="stroke:#181818;stroke-width:1.0;"/></g><!--link platform__application__order_service to platform__payment_service--><g id="link_platform__application__order_service_platform__payment_service"><path d="M302.29,96.08 C372.32,88.65 486.3235,76.5629 560.8935,68.6529 " fill="none" id="platform__application__order_service-to-platform__payment_service" style="stroke:#181818;stroke-width:1.0;"/><polygon fill="#181818" points="566.86,68.02,557.4883,64.9917,561.8879,68.5474,558.3321,72.947,566.86,68.02" style="stroke:#181818;stroke-width:1.0;"/></g><rect fill="none" height="62.8906" id="_legend" rx="7.5" ry="7.5" style="stroke:#FFFFFF;stroke-width:1.0;" width="159" x="12" y="259"/><text fill="#000000" font-family="sans-serif" font-size="14" lengthAdjust="spacing" textLength="36" x="21" y="278.9951">Color</text><text fill="#000000" font-family="sans-serif" font-size="14" lengthAdjust="spacing" textLength="91" x="65" y="278.9951">Belongs to ...</text><rect fill="#ADD8E6" height="16.2969" style="stroke:none;stroke-width:1.0;" width="44" x="17" y="282.2969"/><text fill="#000000" font-family="sans-serif" font-size="14" lengthAdjust="spacing" textLength="4" x="17" y="295.292">&#160;</text><text fill="#000000" font-family="sans-serif" font-size="14" lengthAdjust="spacing" textLength="101" x="65" y="295.292">our application</text><rect fill="#FFE4B5" height="16.2969" style="stroke:none;stroke-width:1.0;" width="44" x="17" y="298.5938"/><text fill="#000000" font-family="sans-serif" font-size="14" lengthAdjust="spacing" textLength="4" x="17" y="311.5889">&#160;</text><text fill="#000000" font-family="sans-serif" font-size="14" lengthAdjust="spacing" textLength="98" x="65" y="311.5889">same platform</text><line style="stroke:#000000;stroke-width:1.0;" x1="17" x2="166" y1="266" y2="266"/><line style="stroke:#000000;stroke-width:1.0;" x1="17" x2="166" y1="282.2969" y2="282.2969"/><line style="stroke:#000000;stroke-width:1.0;" x1="17" x2="166" y1="298.5938" y2="298.5938"/><line style="stroke:#000000;stroke-width:1.0;" x1="17" x2="166" y1="314.8906" y2="314.8906"/><line style="stroke:#000000;stroke-width:1.0;" x1="17" x2="17" y1="266" y2="314.8906"/><line style="stroke:#000000;stroke-width:1.0;" x1="61" x2="61" y1="266" y2="314.8906"/><line style="stroke:#000000;stroke-width:1.0;" x1="166" x2="166" y1="266" y2="314.8906"/></g></svg>