<?xml version="1.0" encoding="us-ascii" standalone="no"?><svg xmlns="http://www.w3.org/2000/svg" xmlns:xlink="http://www.w3.org/1999/xlink" contentStyleType="text/css" height="254px" preserveAspectRatio="none" style="width:635px;height:254px;background:#FFFFFF;" version="1.1" viewBox="0 0 635 254" width="635px" zoomAndPan="magnify"><defs/><g><!--cluster Platform--><g id="cluster_Platform"><path d="M8.5,6 L72.5,6 A3.75,3.75 0 0 1 75,8.5 L82,28.4883 L419.5,28.4883 A2.5,2.5 0 0 1 422,30.9883 L422,245.48 A2.5,2.5 0 0 1 419.5,247.98 L8.5,247.98 A2.5,2.5 0 0 1 6,245.48 L6,8.5 A2.5,2.5 0 0 1 8.5,6 " fill="none" style="stroke:#000000;stroke-width:1.5;"/><line style="stroke:#000000;stroke-width:1.5;" x1="6" x2="82" y1="28.4883" y2="28.4883"/><text fill="#000000" font-family="sans-serif" font-size="14" font-weight="bold" lengthAdjust="spacing" textLength="63" x="10" y="21.5352">Platform</text></g><!--cluster Application--><g id="cluster_Application"><rect fill="none" height="87.49" rx="2.5" ry="2.5" style="stroke:#181818;stroke-width:1.0;" width="368" x="30" y="49"/><path d="M122,49 L122,58.4883 L112,68.4883 L30,68.4883 " fill="none" style="stroke:#181818;stroke-width:1.0;"/><text fill="#000000" font-family="sans-serif" font-size="14" font-weight="bold" lengthAdjust="spacing" textLength="82" x="33" y="63.5352">Application</text></g><!--cluster Other Project--><g id="cluster_Other Project"><path d="M448.5,160.49 L545.5,160.49 A3.75,3.75 0 0 1 548,162.99 L555,182.9783 L625.5,182.9783 A2.5,2.5 0 0 1 628,185.4783 L628,245.48 A2.5,2.5 0 0 1 625.5,247.98 L448.5,247.98 A2.5,2.5 0 0 1 446,245.48 L446,162.99 A2.5,2.5 0 0 1 448.5,160.49 " fill="none" style="stroke:#000000;stroke-width:1.5;"/><line style="stroke:#000000;stroke-width:1.5;" x1="446" x2="555" y1="182.9783" y2="182.9783"/><text fill="#000000" font-family="sans-serif" font-size="14" font-weight="bold" lengthAdjust="spacing" textLength="96" x="450" y="176.0252">Other Project</text></g><!--entity external_service_2--><g id="elem_external_service_2"><rect fill="#FFE4B5" height="36.4883" rx="2.5" ry="2.5" style="stroke:#181818;stroke-width:0.5;" width="151" x="231.5" y="195.49"/><text fill="#000000" font-family="sans-serif" font-size="14" lengthAdjust="spacing" textLength="131" x="241.5" y="219.0252">External Service #2</text></g><!--entity backend_service_1--><g id="elem_backend_service_1"><rect fill="#D3D3D3" height="36.4883" rx="2.5" ry="2.5" style="stroke:#181818;stroke-width:0.5;" width="151" x="45.5" y="84"/><text fill="#000000" font-family="sans-serif" font-size="14" lengthAdjust="spacing" textLength="131" x="55.5" y="107.5352">Backend Service #1</text></g><!--entity backend_service_2--><g id="elem_backend_service_2"><rect fill="#87CEEB" height="36.4883" rx="2.5" ry="2.5" style="stroke:#181818;stroke-width:2.0;" width="151" x="231.5" y="84"/><text fill="#000000" font-family="sans-serif" font-size="14" lengthAdjust="spacing" textLength="131" x="241.5" y="107.5352">Backend Service #2</text></g><!--entity external_service_3--><g id="elem_external_service_3"><rect fill="#F08080" height="36.4883" rx="2.5" ry="2.5" style="stroke:#181818;stroke-width:0.5;" width="151" x="461.5" y="195.49"/><text fill="#000000" font-family="sans-serif" font-size="14" lengthAdjust="spacing" textLength="131" x="471.5" y="219.0252">External Service #3</text></g><!--link backend_service_1 to backend_service_2--><g id="link_backend_service_1_backend_service_2"><path d="M196.93,102.25 C208.39,102.25 213.86,102.25 225.32,102.25 " fill="none" id="backend_service_1-to-backend_service_2" style="stroke:#181818;stroke-width:1.0;"/><polygon fill="#181818" points="231.32,102.25,222.32,98.25,226.32,102.25,222.32,106.25,231.32,102.25" style="stroke:#181818;stroke-width:1.0;"/></g><!--link backend_service_2 to external_service_2--><g id="link_backend_service_2_external_service_2"><path d="M307,120.84 C307,141.27 307,168.78 307,189.19 " fill="none" id="backend_service_2-to-external_service_2" style="stroke:#181818;stroke-width:1.0;"/><polygon fill="#181818" points="307,195.19,311,186.19,307,190.19,303,186.19,307,195.19" style="stroke:#181818;stroke-width:1.0;"/></g><!--link backend_service_2 to external_service_3--><g id="link_backend_service_2_external_service_3"><path d="M350.5,120.93 C372.17,129.98 398.66,141.4 422,152.49 C450.5,166.03 476.9438,179.923 499.8438,192.323 " fill="none" id="backend_service_2-to-external_service_3" style="stroke:#181818;stroke-width:1.0;"/><polygon fill="#181818" points="505.12,195.18,499.1104,187.3771,500.7232,192.7992,495.3011,194.412,505.12,195.18" style="stroke:#181818;stroke-width:1.0;"/></g></g></svg>