<?xml version="1.0" encoding="us-ascii" standalone="no"?><svg xmlns="http://www.w3.org/2000/svg" xmlns:xlink="http://www.w3.org/1999/xlink" contentStyleType="text/css" height="272px" preserveAspectRatio="none" style="width:939px;height:272px;background:#FFFFFF;" version="1.1" viewBox="0 0 939 272" width="939px" zoomAndPan="magnify"><defs/><g><!--cluster Platform--><g id="cluster_Platform"><path d="M8.5,6 L75.5,6 A3.75,3.75 0 0 1 78,8.5 L85,28.2969 L719.5,28.2969 A2.5,2.5 0 0 1 722,30.7969 L722,262.5 A2.5,2.5 0 0 1 719.5,265 L8.5,265 A2.5,2.5 0 0 1 6,262.5 L6,8.5 A2.5,2.5 0 0 1 8.5,6 " fill="none" style="stroke:#000000;stroke-width:1.5;"/><line style="stroke:#000000;stroke-width:1.5;" x1="6" x2="85" y1="28.2969" y2="28.2969"/><text fill="#000000" font-family="sans-serif" font-size="14" font-weight="bold" lengthAdjust="spacing" textLength="66" x="10" y="20.9951">Platform</text></g><!--cluster Application--><g id="cluster_Application"><rect fill="none" height="192" rx="2.5" ry="2.5" style="stroke:#181818;stroke-width:1.0;" width="506" x="30" y="49"/><path d="M127,49 L127,58.2969 L117,68.2969 L30,68.2969 " fill="none" style="stroke:#181818;stroke-width:1.0;"/><text fill="#000000" font-family="sans-serif" font-size="14" font-weight="bold" lengthAdjust="spacing" textLength="87" x="33" y="62.9951">Application</text></g><!--cluster Other Project--><g id="cluster_Other Project"><path d="M748.5,149.5 L855.5,149.5 A3.75,3.75 0 0 1 858,152 L865,171.7969 L929.5,171.7969 A2.5,2.5 0 0 1 932,174.2969 L932,234 A2.5,2.5 0 0 1 929.5,236.5 L748.5,236.5 A2.5,2.5 0 0 1 746,234 L746,152 A2.5,2.5 0 0 1 748.5,149.5 " fill="none" style="stroke:#000000;stroke-width:1.5;"/><line style="stroke:#000000;stroke-width:1.5;" x1="746" x2="865" y1="171.7969" y2="171.7969"/><text fill="#000000" font-family="sans-serif" font-size="14" font-weight="bold" lengthAdjust="spacing" textLength="106" x="750" y="164.4951">Other Project</text></g><!--entity external_service_1--><g id="elem_external_service_1"><rect fill="#FFE4B5" height="36.2969" rx="2.5" ry="2.5" style="stroke:#181818;stroke-width:0.5;" width="154" x="552" y="184.5"/><text fill="#000000" font-family="sans-serif" font-size="14" lengthAdjust="spacing" textLength="134" x="562" y="207.4951">External Service #1</text></g><!--entity frontend--><g id="elem_frontend"><rect fill="#D3D3D3" height="36.2969" rx="2.5" ry="2.5" style="stroke:#181818;stroke-width:0.5;" width="83" x="46.5" y="84"/><text fill="#000000" font-family="sans-serif" font-size="14" lengthAdjust="spacing" textLength="63" x="56.5" y="106.9951">Frontend</text></g><!--entity backend_service_1--><g id="elem_backend_service_1"><rect fill="#87CEEB" height="36.2969" rx="2.5" ry="2.5" style="stroke:#181818;stroke-width:2.0;" width="160" x="165" y="84"/><text fill="#000000" font-family="sans-serif" font-size="14" lengthAdjust="spacing" textLength="140" x="175" y="106.9951">Backend Service #1</text></g><!--entity backend_service_2--><g id="elem_backend_service_2"><rect fill="#ADD8E6" height="36.2969" rx="2.5" ry="2.5" style="stroke:#181818;stroke-width:0.5;" width="160" x="360" y="84"/><text fill="#000000" font-family="sans-serif" font-size="14" lengthAdjust="spacing" textLength="140" x="370" y="106.9951">Backend Service #2</text></g><!--entity backend_service_1_database--><g id="elem_backend_service_1_database"><path d="M203,190 C203,180 245,180 245,180 C245,180 287,180 287,190 L287,215.2969 C287,225.2969 245,225.2969 245,225.2969 C245,225.2969 203,225.2969 203,215.2969 L203,190 " fill="#F1F1F1" style="stroke:#181818;stroke-width:0.5;"/><path d="M203,190 C203,200 245,200 245,200 C245,200 287,200 287,190 " fill="none" style="stroke:#181818;stroke-width:0.5;"/><text fill="#000000" font-family="sans-serif" font-size="14" lengthAdjust="spacing" textLength="64" x="213" y="216.9951">database</text></g><!--entity external_service_3--><g id="elem_external_service_3"><rect fill="#F08080" height="36.2969" rx="2.5" ry="2.5" style="stroke:#181818;stroke-width:0.5;" width="154" x="762" y="184.5"/><text fill="#000000" font-family="sans-serif" font-size="14" lengthAdjust="spacing" textLength="134" x="772" y="207.4951">External Service #3</text></g><!--link frontend to backend_service_1--><g id="link_frontend_backend_service_1"><path d="M129.7,102 C141.41,102 147.12,102 158.83,102 " fill="none" id="frontend-to-backend_service_1" style="stroke:#181818;stroke-width:1.0;"/><polygon fill="#181818" points="164.83,102,155.83,98,159.83,102,155.83,106,164.83,102" style="stroke:#181818;stroke-width:1.0;"/></g><!--link backend_service_1 to backend_service_2--><g id="link_backend_service_1_backend_service_2"><path d="M325.36,102 C336.86,102 342.35,102 353.84,102 " fill="none" id="backend_service_1-to-backend_service_2" style="stroke:#181818;stroke-width:1.0;"/><polygon fill="#181818" points="359.84,102,350.84,98,354.84,102,350.84,106,359.84,102" style="stroke:#181818;stroke-width:1.0;"/></g><!--link backend_service_1 to external_service_1--><g id="link_backend_service_1_external_service_1"><path d="M325.16,117.31 C331.19,118.27 337.19,119.17 343,120 C428.45,132.16 454.69,112.56 536,141.5 C563.33,151.23 586.0593,166.6567 603.9693,180.7067 " fill="none" id="backend_service_1-to-external_service_1" style="stroke:#181818;stroke-width:1.0;"/><polygon fill="#181818" points="608.69,184.41,604.0778,175.7079,604.756,181.3239,599.14,182.0022,608.69,184.41" style="stroke:#181818;stroke-width:1.0;"/></g><!--link backend_service_1 to external_service_3--><g id="link_backend_service_1_external_service_3"><path d="M325.11,117.67 C331.15,118.54 337.17,119.33 343,120 C510.62,139.23 559.19,97.27 722,141.5 C755.48,150.6 785.3614,166.861 808.2514,181.161 " fill="none" id="backend_service_1-to-external_service_3" style="stroke:#181818;stroke-width:1.0;"/><polygon fill="#181818" points="813.34,184.34,807.8264,176.1791,809.0995,181.6908,803.5877,182.9639,813.34,184.34" style="stroke:#181818;stroke-width:1.0;"/></g><!--link backend_service_1 to backend_service_1_database--><g id="link_backend_service_1_backend_service_1_database"><path d="M245,120.16 C245,136.69 245,155.78 245,173.72 " fill="none" id="backend_service_1-to-backend_service_1_database" style="stroke:#181818;stroke-width:1.0;"/><polygon fill="#181818" points="245,179.72,249,170.72,245,174.72,241,170.72,245,179.72" style="stroke:#181818;stroke-width:1.0;"/></g></g></svg>