<?xml version="1.0" encoding="us-ascii" standalone="no"?><svg xmlns="http://www.w3.org/2000/svg" xmlns:xlink="http://www.w3.org/1999/xlink" contentStyleType="text/css" height="167px" preserveAspectRatio="none" style="width:362px;height:167px;background:#FFFFFF;" version="1.1" viewBox="0 0 362 167" width="362px" zoomAndPan="magnify"><defs/><g><!--cluster Platform--><g id="cluster_Platform"><path d="M8.5,6 L72.5,6 A3.75,3.75 0 0 1 75,8.5 L82,28.4883 L352.5,28.4883 A2.5,2.5 0 0 1 355,30.9883 L355,157.99 A2.5,2.5 0 0 1 352.5,160.49 L8.5,160.49 A2.5,2.5 0 0 1 6,157.99 L6,8.5 A2.5,2.5 0 0 1 8.5,6 " fill="none" style="stroke:#000000;stroke-width:1.5;"/><line style="stroke:#000000;stroke-width:1.5;" x1="6" x2="82" y1="28.4883" y2="28.4883"/><text fill="#000000" font-family="sans-serif" font-size="14" font-weight="bold" lengthAdjust="spacing" textLength="63" x="10" y="21.5352">Platform</text></g><!--cluster Application--><g id="cluster_Application"><rect fill="none" height="87.49" rx="2.5" ry="2.5" style="stroke:#181818;stroke-width:1.0;" width="301" x="30" y="49"/><path d="M122,49 L122,58.4883 L112,68.4883 L30,68.4883 " fill="none" style="stroke:#181818;stroke-width:1.0;"/><text fill="#000000" font-family="sans-serif" font-size="14" font-weight="bold" lengthAdjust="spacing" textLength="82" x="33" y="63.5352">Application</text></g><!--entity frontend--><g id="elem_frontend"><rect fill="#87CEEB" height="36.4883" rx="2.5" ry="2.5" style="stroke:#181818;stroke-width:2.0;" width="83" x="46.5" y="84"/><text fill="#000000" font-family="sans-serif" font-size="14" lengthAdjust="spacing" textLength="63" x="56.5" y="107.5352">Frontend</text></g><!--entity backend_service_1--><g id="elem_backend_service_1"><rect fill="#ADD8E6" height="36.4883" rx="2.5" ry="2.5" style="stroke:#181818;stroke-width:0.5;" width="151" x="164.5" y="84"/><text fill="#000000" font-family="sans-serif" font-size="14" lengthAdjust="spacing" textLength="131" x="174.5" y="107.5352">Backend Service #1</text></g><!--link frontend to backend_service_1--><g id="link_frontend_backend_service_1"><path d="M129.86,102.25 C141.33,102.25 146.81,102.25 158.28,102.25 " fill="none" id="frontend-to-backend_service_1" style="stroke:#181818;stroke-width:1.0;"/><polygon fill="#181818" points="164.28,102.25,155.28,98.25,159.28,102.25,155.28,106.25,164.28,102.25" style="stroke:#181818;stroke-width:1.0;"/></g></g></svg>