<?xml version="1.0" encoding="us-ascii" standalone="no"?><svg xmlns="http://www.w3.org/2000/svg" xmlns:xlink="http://www.w3.org/1999/xlink" contentStyleType="text/css" height="343px" preserveAspectRatio="none" style="width:1199px;height:343px;background:#FFFFFF;" version="1.1" viewBox="0 0 1199 343" width="1199px" zoomAndPan="magnify"><defs/><g><!--cluster Platform--><g id="cluster_Platform"><path d="M8.5,6 L75.5,6 A3.75,3.75 0 0 1 78,8.5 L85,28.2969 L1189.5,28.2969 A2.5,2.5 0 0 1 1192,30.7969 L1192,282.5 A2.5,2.5 0 0 1 1189.5,285 L8.5,285 A2.5,2.5 0 0 1 6,282.5 L6,8.5 A2.5,2.5 0 0 1 8.5,6 " fill="none" style="stroke:#000000;stroke-width:1.5;"/><line style="stroke:#000000;stroke-width:1.5;" x1="6" x2="85" y1="28.2969" y2="28.2969"/><text fill="#000000" font-family="sans-serif" font-size="14" font-weight="bold" lengthAdjust="spacing" textLength="66" x="10" y="20.9951">Platform</text></g><!--cluster Application--><g id="cluster_Application"><rect fill="none" height="168" rx="2.5" ry="2.5" style="stroke:#181818;stroke-width:1.0;" width="841" x="30" y="93"/><path d="M127,93 L127,102.2969 L117,112.2969 L30,112.2969 " fill="none" style="stroke:#181818;stroke-width:1.0;"/><text fill="#000000" font-family="sans-serif" font-size="14" font-weight="bold" lengthAdjust="spacing" textLength="87" x="33" y="106.9951">Application</text></g><!--entity platform__external_service_1--><g id="elem_platform__external_service_1"><rect fill="#FFE4B5" height="36.2969" rx="2.5" ry="2.5" style="stroke:#181818;stroke-width:0.5;" width="154" x="679.5" y="41"/><text fill="#000000" font-family="sans-serif" font-size="14" lengthAdjust="spacing" textLength="134" x="689.5" y="63.9951">External Service #1</text></g><g id="elem_GMN13"><path d="M915,41 L915,55 L833.57,59 L915,63 L915,81.2656 A0,0 0 0 0 915,81.2656 L1176,81.2656 A0,0 0 0 0 1176,81.2656 L1176,51 L1166,41 L915,41 A0,0 0 0 0 915,41 " fill="#FEFFDD" style="stroke:#181818;stroke-width:0.5;"/><path d="M1166,41 L1166,51 L1176,51 L1166,41 " fill="#FEFFDD" style="stroke:#181818;stroke-width:0.5;"/><text fill="#000000" font-family="sans-serif" font-size="13" font-weight="bold" lengthAdjust="spacing" textLength="121" x="921" y="58.0669">HTTP Endpoints:</text><text fill="#000000" font-family="monospace" font-size="13" lengthAdjust="spacing" textLength="240" x="921" y="73.1997">GET&#160;/invoices/{userId}/{state}</text></g><!--entity platform__application__frontend--><g id="elem_platform__application__frontend"><rect fill="#D3D3D3" height="36.2969" rx="2.5" ry="2.5" style="stroke:#181818;stroke-width:0.5;" width="83" x="46" y="128"/><text fill="#000000" font-family="sans-serif" font-size="14" lengthAdjust="spacing" textLength="63" x="56" y="150.9951">Frontend</text></g><!--entity platform__application__backend_service_1--><g id="elem_platform__application__backend_service_1"><rect fill="#87CEEB" height="36.2969" rx="2.5" ry="2.5" style="stroke:#181818;stroke-width:2.0;" width="160" x="218" y="128"/><text fill="#000000" font-family="sans-serif" font-size="14" lengthAdjust="spacing" textLength="140" x="228" y="150.9951">Backend Service #1</text></g><!--entity platform__application__backend_service_2--><g id="elem_platform__application__backend_service_2"><rect fill="#ADD8E6" height="36.2969" rx="2.5" ry="2.5" style="stroke:#181818;stroke-width:0.5;" width="160" x="438" y="129"/><text fill="#000000" font-family="sans-serif" font-size="14" lengthAdjust="spacing" textLength="140" x="448" y="151.9951">Backend Service #2</text></g><!--entity platform__application__backend_service_1_database--><g id="elem_platform__application__backend_service_1_database"><path d="M256,209.5 C256,199.5 298,199.5 298,199.5 C298,199.5 340,199.5 340,209.5 L340,234.7969 C340,244.7969 298,244.7969 298,244.7969 C298,244.7969 256,244.7969 256,234.7969 L256,209.5 " fill="#F1F1F1" style="stroke:#181818;stroke-width:0.5;"/><path d="M256,209.5 C256,219.5 298,219.5 298,219.5 C298,219.5 340,219.5 340,209.5 " fill="none" style="stroke:#181818;stroke-width:0.5;"/><text fill="#000000" font-family="sans-serif" font-size="14" lengthAdjust="spacing" textLength="64" x="266" y="236.4951">database</text></g><g id="elem_GMN8"><path d="M658,128 L658,143 L598.08,147 L658,151 L658,168.2656 A0,0 0 0 0 658,168.2656 L855,168.2656 A0,0 0 0 0 855,168.2656 L855,138 L845,128 L658,128 A0,0 0 0 0 658,128 " fill="#FEFFDD" style="stroke:#181818;stroke-width:0.5;"/><path d="M845,128 L845,138 L855,138 L845,128 " fill="#FEFFDD" style="stroke:#181818;stroke-width:0.5;"/><text fill="#000000" font-family="sans-serif" font-size="13" font-weight="bold" lengthAdjust="spacing" textLength="121" x="664" y="145.0669">HTTP Endpoints:</text><text fill="#000000" font-family="monospace" font-size="13" lengthAdjust="spacing" textLength="176" x="664" y="160.1997">GET&#160;/bookings/{userId}</text></g><!--entity external_service_x--><g id="elem_external_service_x"><rect fill="#D3D3D3" height="36.2969" rx="2.5" ry="2.5" style="stroke:#181818;stroke-width:0.5;" width="141" x="17" y="301"/><text fill="#000000" font-family="sans-serif" font-size="14" lengthAdjust="spacing" textLength="121" x="27" y="323.9951">external-service-x</text></g><!--link platform__application__frontend to platform__application__backend_service_1--><g id="link_platform__application__frontend_platform__application__backend_service_1"><path d="M129.09,140 C154.37,140 181.5,140 211.72,140 " fill="none" id="platform__application__frontend-to-platform__application__backend_service_1" style="stroke:#181818;stroke-width:1.0;"/><polygon fill="#181818" points="217.72,140,208.72,136,212.72,140,208.72,144,217.72,140" style="stroke:#181818;stroke-width:1.0;"/></g><!--link external_service_x to platform__application__backend_service_1--><g id="link_external_service_x_platform__application__backend_service_1"><path d="M144,300.81 C144,257.53 144,152 144,152 C144,152 174.42,152 211.84,152 " fill="none" id="external_service_x-to-platform__application__backend_service_1" style="stroke:#181818;stroke-width:1.0;"/><polygon fill="#181818" points="217.84,152,208.84,148,212.84,152,208.84,156,217.84,152" style="stroke:#181818;stroke-width:1.0;"/></g><!--link platform__application__backend_service_1 to platform__application__backend_service_2--><g id="link_platform__application__backend_service_1_platform__application__backend_service_2"><path d="M378.05,146.5 C397.46,146.5 412.22,146.5 431.64,146.5 " fill="none" id="platform__application__backend_service_1-to-platform__application__backend_service_2" style="stroke:#181818;stroke-width:1.0;"/><polygon fill="#181818" points="437.64,146.5,428.64,142.5,432.64,146.5,428.64,150.5,437.64,146.5" style="stroke:#181818;stroke-width:1.0;"/><text fill="#000000" font-family="sans-serif" font-size="13" lengthAdjust="spacing" textLength="21" x="385.85" y="159.5669">JWT</text></g><!--reverse link platform__application__backend_service_1_database to platform__application__backend_service_1--><g id="link_platform__application__backend_service_1_database_platform__application__backend_service_1"><path d="M298,193.2 C298,182 298,174.7 298,164.2 " fill="none" id="platform__application__backend_service_1_database-backto-platform__application__backend_service_1" style="stroke:#181818;stroke-width:1.0;"/><polygon fill="#181818" points="298,199.2,302,190.2,298,194.2,294,190.2,298,199.2" style="stroke:#181818;stroke-width:1.0;"/></g><!--link platform__application__backend_service_1 to platform__external_service_1--><g id="link_platform__application__backend_service_1_platform__external_service_1"><path d="M298,127.97 C298,102.49 298,59 298,59 C298,59 542.9,59 673.5,59 " fill="none" id="platform__application__backend_service_1-to-platform__external_service_1" style="stroke:#181818;stroke-width:1.0;"/><polygon fill="#181818" points="679.5,59,670.5,55,674.5,59,670.5,63,679.5,59" style="stroke:#181818;stroke-width:1.0;"/><text fill="#000000" font-family="sans-serif" font-size="13" lengthAdjust="spacing" textLength="21" x="432.26" y="72.0669">JWT</text></g></g></svg>