<?xml version="1.0" encoding="us-ascii" standalone="no"?><svg xmlns="http://www.w3.org/2000/svg" xmlns:xlink="http://www.w3.org/1999/xlink" contentStyleType="text/css" height="143px" preserveAspectRatio="none" style="width:910px;height:143px;background:#FFFFFF;" version="1.1" viewBox="0 0 910 143" width="910px" zoomAndPan="magnify"><defs/><g><!--entity backend_service_1--><g id="elem_backend_service_1"><rect fill="#D3D3D3" height="36.2969" rx="2.5" ry="2.5" style="stroke:#181818;stroke-width:0.5;" width="160" x="7" y="54.5"/><text fill="#000000" font-family="sans-serif" font-size="14" lengthAdjust="spacing" textLength="140" x="17" y="77.4951">Backend Service #1</text></g><!--entity backend_service_2--><g id="elem_backend_service_2"><rect fill="#87CEEB" height="36.2969" rx="2.5" ry="2.5" style="stroke:#181818;stroke-width:2.0;" width="160" x="227" y="54.5"/><text fill="#000000" font-family="sans-serif" font-size="14" lengthAdjust="spacing" textLength="140" x="237" y="77.4951">Backend Service #2</text></g><!--entity external_service_2--><g id="elem_external_service_2"><rect fill="#FFE4B5" height="36.2969" rx="2.5" ry="2.5" style="stroke:#181818;stroke-width:0.5;" width="154" x="508" y="16.5"/><text fill="#000000" font-family="sans-serif" font-size="14" lengthAdjust="spacing" textLength="134" x="518" y="39.4951">External Service #2</text></g><!--entity external_service_3--><g id="elem_external_service_3"><rect fill="#F08080" height="36.2969" rx="2.5" ry="2.5" style="stroke:#181818;stroke-width:0.5;" width="154" x="508" y="92.5"/><text fill="#000000" font-family="sans-serif" font-size="14" lengthAdjust="spacing" textLength="134" x="518" y="115.4951">External Service #3</text></g><g id="elem_GMN6"><path d="M722,6 L722,30.5 L662.02,34.5 L722,38.5 L722,61.3984 A0,0 0 0 0 722,61.3984 L903,61.3984 A0,0 0 0 0 903,61.3984 L903,16 L893,6 L722,6 A0,0 0 0 0 722,6 " fill="#FEFFDD" style="stroke:#181818;stroke-width:0.5;"/><path d="M893,6 L893,16 L903,16 L893,6 " fill="#FEFFDD" style="stroke:#181818;stroke-width:0.5;"/><text fill="#000000" font-family="sans-serif" font-size="13" font-weight="bold" lengthAdjust="spacing" textLength="121" x="728" y="23.0669">HTTP Endpoints:</text><text fill="#000000" font-family="monospace" font-size="13" lengthAdjust="spacing" textLength="88" x="728" y="38.1997">POST&#160;/users</text><text fill="#000000" font-family="monospace" font-size="13" lengthAdjust="spacing" textLength="160" x="728" y="53.3325">GET&#160;&#160;/users/{userId}</text></g><g id="elem_GMN9"><path d="M741.5,96.5 L741.5,108.5 L662.02,112.5 L741.5,116.5 L741.5,136.7656 A0,0 0 0 0 741.5,136.7656 L883.5,136.7656 A0,0 0 0 0 883.5,136.7656 L883.5,106.5 L873.5,96.5 L741.5,96.5 A0,0 0 0 0 741.5,96.5 " fill="#FEFFDD" style="stroke:#181818;stroke-width:0.5;"/><path d="M873.5,96.5 L873.5,106.5 L883.5,106.5 L873.5,96.5 " fill="#FEFFDD" style="stroke:#181818;stroke-width:0.5;"/><text fill="#000000" font-family="sans-serif" font-size="13" font-weight="bold" lengthAdjust="spacing" textLength="121" x="747.5" y="113.5669">HTTP Endpoints:</text><text fill="#000000" font-family="monospace" font-size="13" lengthAdjust="spacing" textLength="104" x="747.5" y="128.6997">GET&#160;/bookings</text></g><!--link backend_service_1 to backend_service_2--><g id="link_backend_service_1_backend_service_2"><path d="M167.05,72.5 C186.46,72.5 201.22,72.5 220.64,72.5 " fill="none" id="backend_service_1-to-backend_service_2" style="stroke:#181818;stroke-width:1.0;"/><polygon fill="#181818" points="226.64,72.5,217.64,68.5,221.64,72.5,217.64,76.5,226.64,72.5" style="stroke:#181818;stroke-width:1.0;"/></g><!--link backend_service_2 to external_service_2--><g id="link_backend_service_2_external_service_2"><path d="M387.27,70.83 C477.34,70.83 611,70.83 611,70.83 C611,70.83 611,67.75 611,58.67 " fill="none" id="backend_service_2-to-external_service_2" style="stroke:#181818;stroke-width:1.0;"/><polygon fill="#181818" points="611,52.67,607,61.67,611,57.67,615,61.67,611,52.67" style="stroke:#181818;stroke-width:1.0;"/><text fill="#000000" font-family="sans-serif" font-size="13" lengthAdjust="spacing" textLength="21" x="486.22" y="83.8969">JWT</text></g><!--link backend_service_2 to external_service_3--><g id="link_backend_service_2_external_service_3"><path d="M387.05,80.67 C461.17,80.67 560,80.67 560,80.67 C560,80.67 560,80.17 560,86.46 " fill="none" id="backend_service_2-to-external_service_3" style="stroke:#181818;stroke-width:1.0;"/><polygon fill="#181818" points="560,92.46,564,83.46,560,87.46,556,83.46,560,92.46" style="stroke:#181818;stroke-width:1.0;"/><text fill="#000000" font-family="sans-serif" font-size="13" lengthAdjust="spacing" textLength="69" x="409.42" y="93.7369">Basic-Auth</text></g></g></svg>