<?xml version="1.0" encoding="us-ascii" standalone="no"?><svg xmlns="http://www.w3.org/2000/svg" xmlns:xlink="http://www.w3.org/1999/xlink" contentStyleType="text/css" height="167px" preserveAspectRatio="none" style="width:1115px;height:167px;background:#FFFFFF;" version="1.1" viewBox="0 0 1115 167" width="1115px" zoomAndPan="magnify"><defs/><g><!--entity frontend--><g id="elem_frontend"><rect fill="#D3D3D3" height="36.2969" rx="2.5" ry="2.5" style="stroke:#181818;stroke-width:0.5;" width="83" x="7" y="86.5"/><text fill="#000000" font-family="sans-serif" font-size="14" lengthAdjust="spacing" textLength="63" x="17" y="109.4951">Frontend</text></g><!--entity backend_service_1--><g id="elem_backend_service_1"><rect fill="#87CEEB" height="36.2969" rx="2.5" ry="2.5" style="stroke:#181818;stroke-width:2.0;" width="160" x="150" y="86.5"/><text fill="#000000" font-family="sans-serif" font-size="14" lengthAdjust="spacing" textLength="140" x="160" y="109.4951">Backend Service #1</text></g><!--entity backend_service_2--><g id="elem_backend_service_2"><rect fill="#ADD8E6" height="36.2969" rx="2.5" ry="2.5" style="stroke:#181818;stroke-width:0.5;" width="160" x="370" y="50.5"/><text fill="#000000" font-family="sans-serif" font-size="14" lengthAdjust="spacing" textLength="140" x="380" y="73.4951">Backend Service #2</text></g><!--entity backend_service_1_database--><g id="elem_backend_service_1_database"><path d="M188,16 C188,6 230,6 230,6 C230,6 272,6 272,16 L272,41.2969 C272,51.2969 230,51.2969 230,51.2969 C230,51.2969 188,51.2969 188,41.2969 L188,16 " fill="#F1F1F1" style="stroke:#181818;stroke-width:0.5;"/><path d="M188,16 C188,26 230,26 230,26 C230,26 272,26 272,16 " fill="none" style="stroke:#181818;stroke-width:0.5;"/><text fill="#000000" font-family="sans-serif" font-size="14" lengthAdjust="spacing" textLength="64" x="198" y="42.9951">database</text></g><!--entity external_service_1--><g id="elem_external_service_1"><rect fill="#FFE4B5" height="36.2969" rx="2.5" ry="2.5" style="stroke:#181818;stroke-width:0.5;" width="154" x="611.5" y="122.5"/><text fill="#000000" font-family="sans-serif" font-size="14" lengthAdjust="spacing" textLength="134" x="621.5" y="145.4951">External Service #1</text></g><g id="elem_GMN7"><path d="M590,47.5 L590,64.5 L530.08,68.5 L590,72.5 L590,87.7656 A0,0 0 0 0 590,87.7656 L787,87.7656 A0,0 0 0 0 787,87.7656 L787,57.5 L777,47.5 L590,47.5 A0,0 0 0 0 590,47.5 " fill="#FEFFDD" style="stroke:#181818;stroke-width:0.5;"/><path d="M777,47.5 L777,57.5 L787,57.5 L777,47.5 " fill="#FEFFDD" style="stroke:#181818;stroke-width:0.5;"/><text fill="#000000" font-family="sans-serif" font-size="13" font-weight="bold" lengthAdjust="spacing" textLength="121" x="596" y="64.5669">HTTP Endpoints:</text><text fill="#000000" font-family="monospace" font-size="13" lengthAdjust="spacing" textLength="176" x="596" y="79.6997">GET&#160;/bookings/{userId}</text></g><g id="elem_GMN10"><path d="M847,120.5 L847,136.5 L765.57,140.5 L847,144.5 L847,160.7656 A0,0 0 0 0 847,160.7656 L1108,160.7656 A0,0 0 0 0 1108,160.7656 L1108,130.5 L1098,120.5 L847,120.5 A0,0 0 0 0 847,120.5 " fill="#FEFFDD" style="stroke:#181818;stroke-width:0.5;"/><path d="M1098,120.5 L1098,130.5 L1108,130.5 L1098,120.5 " fill="#FEFFDD" style="stroke:#181818;stroke-width:0.5;"/><text fill="#000000" font-family="sans-serif" font-size="13" font-weight="bold" lengthAdjust="spacing" textLength="121" x="853" y="137.5669">HTTP Endpoints:</text><text fill="#000000" font-family="monospace" font-size="13" lengthAdjust="spacing" textLength="240" x="853" y="152.6997">GET&#160;/invoices/{userId}/{state}</text></g><!--link frontend to backend_service_1--><g id="link_frontend_backend_service_1"><path d="M90.14,104.5 C107.93,104.5 123.33,104.5 143.97,104.5 " fill="none" id="frontend-to-backend_service_1" style="stroke:#181818;stroke-width:1.0;"/><polygon fill="#181818" points="149.97,104.5,140.97,100.5,144.97,104.5,140.97,108.5,149.97,104.5" style="stroke:#181818;stroke-width:1.0;"/></g><!--link backend_service_1 to backend_service_2--><g id="link_backend_service_1_backend_service_2"><path d="M291,86.21 C291,77.41 291,68.75 291,68.75 C291,68.75 324.13,68.75 363.57,68.75 " fill="none" id="backend_service_1-to-backend_service_2" style="stroke:#181818;stroke-width:1.0;"/><polygon fill="#181818" points="369.57,68.75,360.57,64.75,364.57,68.75,360.57,72.75,369.57,68.75" style="stroke:#181818;stroke-width:1.0;"/><text fill="#000000" font-family="sans-serif" font-size="13" lengthAdjust="spacing" textLength="21" x="299.56" y="81.8169">JWT</text></g><!--reverse link backend_service_1_database to backend_service_1--><g id="link_backend_service_1_database_backend_service_1"><path d="M230,57.3 C230,68.5 230,75.8 230,86.3 " fill="none" id="backend_service_1_database-backto-backend_service_1" style="stroke:#181818;stroke-width:1.0;"/><polygon fill="#181818" points="230,51.3,226,60.3,230,56.3,234,60.3,230,51.3" style="stroke:#181818;stroke-width:1.0;"/></g><!--link backend_service_1 to external_service_1--><g id="link_backend_service_1_external_service_1"><path d="M310.21,104 C441.79,104 689,104 689,104 C689,104 689,107.12 689,116.25 " fill="none" id="backend_service_1-to-external_service_1" style="stroke:#181818;stroke-width:1.0;"/><polygon fill="#181818" points="689,122.25,693,113.25,689,117.25,685,113.25,689,122.25" style="stroke:#181818;stroke-width:1.0;"/><text fill="#000000" font-family="sans-serif" font-size="13" lengthAdjust="spacing" textLength="21" x="486.73" y="117.0669">JWT</text></g></g></svg>