<?xml version="1.0" encoding="us-ascii" standalone="no"?><svg xmlns="http://www.w3.org/2000/svg" xmlns:xlink="http://www.w3.org/1999/xlink" contentStyleType="text/css" height="292px" preserveAspectRatio="none" style="width:1008px;height:292px;background:#FFFFFF;" version="1.1" viewBox="0 0 1008 292" width="1008px" zoomAndPan="magnify"><defs/><g><!--cluster Platform--><g id="cluster_Platform"><path d="M8.5,6 L75.5,6 A3.75,3.75 0 0 1 78,8.5 L85,28.2969 L998.5,28.2969 A2.5,2.5 0 0 1 1001,30.7969 L1001,282.5 A2.5,2.5 0 0 1 998.5,285 L8.5,285 A2.5,2.5 0 0 1 6,282.5 L6,8.5 A2.5,2.5 0 0 1 8.5,6 " fill="none" style="stroke:#000000;stroke-width:1.5;"/><line style="stroke:#000000;stroke-width:1.5;" x1="6" x2="85" y1="28.2969" y2="28.2969"/><text fill="#000000" font-family="sans-serif" font-size="14" font-weight="bold" lengthAdjust="spacing" textLength="66" x="10" y="20.9951">Platform</text></g><!--cluster Application--><g id="cluster_Application"><rect fill="none" height="168" rx="2.5" ry="2.5" style="stroke:#181818;stroke-width:1.0;" width="763" x="30" y="93"/><path d="M127,93 L127,102.2969 L117,112.2969 L30,112.2969 " fill="none" style="stroke:#181818;stroke-width:1.0;"/><text fill="#000000" font-family="sans-serif" font-size="14" font-weight="bold" lengthAdjust="spacing" textLength="87" x="33" y="106.9951">Application</text></g><!--entity platform__external_service_1--><g id="elem_platform__external_service_1"><rect fill="#FFE4B5" height="36.2969" rx="2.5" ry="2.5" style="stroke:#181818;stroke-width:0.5;" width="154" x="629" y="41"/><text fill="#000000" font-family="sans-serif" font-size="14" lengthAdjust="spacing" textLength="134" x="639" y="63.9951">External Service #1</text></g><g id="elem_GMN12"><path d="M843,41 L843,55 L783.16,59 L843,63 L843,81.2656 A0,0 0 0 0 843,81.2656 L985,81.2656 A0,0 0 0 0 985,81.2656 L985,51 L975,41 L843,41 A0,0 0 0 0 843,41 " fill="#FEFFDD" style="stroke:#181818;stroke-width:0.5;"/><path d="M975,41 L975,51 L985,51 L975,41 " fill="#FEFFDD" style="stroke:#181818;stroke-width:0.5;"/><text fill="#000000" font-family="sans-serif" font-size="13" font-weight="bold" lengthAdjust="spacing" textLength="121" x="849" y="58.0669">HTTP Endpoints:</text><text fill="#000000" font-family="monospace" font-size="13" lengthAdjust="spacing" textLength="104" x="849" y="73.1997">GET&#160;/foo/{id}</text></g><!--entity platform__application__frontend--><g id="elem_platform__application__frontend"><rect fill="#D3D3D3" height="36.2969" rx="2.5" ry="2.5" style="stroke:#181818;stroke-width:0.5;" width="83" x="46" y="128"/><text fill="#000000" font-family="sans-serif" font-size="14" lengthAdjust="spacing" textLength="63" x="56" y="150.9951">Frontend</text></g><!--entity platform__application__backend_service_1--><g id="elem_platform__application__backend_service_1"><rect fill="#87CEEB" height="36.2969" rx="2.5" ry="2.5" style="stroke:#181818;stroke-width:2.0;" width="160" x="189" y="128"/><text fill="#000000" font-family="sans-serif" font-size="14" lengthAdjust="spacing" textLength="140" x="199" y="150.9951">Backend Service #1</text></g><!--entity platform__application__backend_service_1_database--><g id="elem_platform__application__backend_service_1_database"><path d="M227,209.5 C227,199.5 269,199.5 269,199.5 C269,199.5 311,199.5 311,209.5 L311,234.7969 C311,244.7969 269,244.7969 269,244.7969 C269,244.7969 227,244.7969 227,234.7969 L227,209.5 " fill="#F1F1F1" style="stroke:#181818;stroke-width:0.5;"/><path d="M227,209.5 C227,219.5 269,219.5 269,219.5 C269,219.5 311,219.5 311,209.5 " fill="none" style="stroke:#181818;stroke-width:0.5;"/><text fill="#000000" font-family="sans-serif" font-size="14" lengthAdjust="spacing" textLength="64" x="237" y="236.4951">database</text></g><!--entity platform__application__backend_service_2--><g id="elem_platform__application__backend_service_2"><rect fill="#ADD8E6" height="36.2969" rx="2.5" ry="2.5" style="stroke:#181818;stroke-width:0.5;" width="160" x="409" y="129"/><text fill="#000000" font-family="sans-serif" font-size="14" lengthAdjust="spacing" textLength="140" x="419" y="151.9951">Backend Service #2</text></g><g id="elem_GMN8"><path d="M635,128 L635,143 L569.19,147 L635,151 L635,168.2656 A0,0 0 0 0 635,168.2656 L777,168.2656 A0,0 0 0 0 777,168.2656 L777,138 L767,128 L635,128 A0,0 0 0 0 635,128 " fill="#FEFFDD" style="stroke:#181818;stroke-width:0.5;"/><path d="M767,128 L767,138 L777,138 L767,128 " fill="#FEFFDD" style="stroke:#181818;stroke-width:0.5;"/><text fill="#000000" font-family="sans-serif" font-size="13" font-weight="bold" lengthAdjust="spacing" textLength="121" x="641" y="145.0669">HTTP Endpoints:</text><text fill="#000000" font-family="monospace" font-size="13" lengthAdjust="spacing" textLength="104" x="641" y="160.1997">GET&#160;/bar/{id}</text></g><!--link platform__application__frontend to platform__application__backend_service_1--><g id="link_platform__application__frontend_platform__application__backend_service_1"><path d="M129.14,146 C146.93,146 162.33,146 182.97,146 " fill="none" id="platform__application__frontend-to-platform__application__backend_service_1" style="stroke:#181818;stroke-width:1.0;"/><polygon fill="#181818" points="188.97,146,179.97,142,183.97,146,179.97,150,188.97,146" style="stroke:#181818;stroke-width:1.0;"/></g><!--link platform__application__backend_service_1 to platform__external_service_1--><g id="link_platform__application__backend_service_1_platform__external_service_1"><path d="M269,127.97 C269,102.49 269,59 269,59 C269,59 497.43,59 622.88,59 " fill="none" id="platform__application__backend_service_1-to-platform__external_service_1" style="stroke:#181818;stroke-width:1.0;"/><polygon fill="#181818" points="628.88,59,619.88,55,623.88,59,619.88,63,628.88,59" style="stroke:#181818;stroke-width:1.0;"/><text fill="#000000" font-family="sans-serif" font-size="13" lengthAdjust="spacing" textLength="7" x="406.45" y="72.0669">?</text></g><!--reverse link platform__application__backend_service_1_database to platform__application__backend_service_1--><g id="link_platform__application__backend_service_1_database_platform__application__backend_service_1"><path d="M269,193.2 C269,182 269,174.7 269,164.2 " fill="none" id="platform__application__backend_service_1_database-backto-platform__application__backend_service_1" style="stroke:#181818;stroke-width:1.0;"/><polygon fill="#181818" points="269,199.2,273,190.2,269,194.2,265,190.2,269,199.2" style="stroke:#181818;stroke-width:1.0;"/></g><!--link platform__application__backend_service_1 to platform__application__backend_service_2--><g id="link_platform__application__backend_service_1_platform__application__backend_service_2"><path d="M349.05,146.5 C368.46,146.5 383.22,146.5 402.64,146.5 " fill="none" id="platform__application__backend_service_1-to-platform__application__backend_service_2" style="stroke:#181818;stroke-width:1.0;"/><polygon fill="#181818" points="408.64,146.5,399.64,142.5,403.64,146.5,399.64,150.5,408.64,146.5" style="stroke:#181818;stroke-width:1.0;"/><text fill="#000000" font-family="sans-serif" font-size="13" lengthAdjust="spacing" textLength="7" x="370.85" y="159.5669">?</text></g></g></svg>