<?xml version="1.0" encoding="us-ascii" standalone="no"?><svg xmlns="http://www.w3.org/2000/svg" xmlns:xlink="http://www.w3.org/1999/xlink" contentStyleType="text/css" height="392px" preserveAspectRatio="none" style="width:965px;height:392px;background:#FFFFFF;" version="1.1" viewBox="0 0 965 392" width="965px" zoomAndPan="magnify"><defs/><g><!--cluster Platform--><g id="cluster_Platform"><path d="M8.5,6 L75.5,6 A3.75,3.75 0 0 1 78,8.5 L85,28.2969 L955.5,28.2969 A2.5,2.5 0 0 1 958,30.7969 L958,157.5 A2.5,2.5 0 0 1 955.5,160 L8.5,160 A2.5,2.5 0 0 1 6,157.5 L6,8.5 A2.5,2.5 0 0 1 8.5,6 " fill="none" style="stroke:#000000;stroke-width:1.5;"/><line style="stroke:#000000;stroke-width:1.5;" x1="6" x2="85" y1="28.2969" y2="28.2969"/><text fill="#000000" font-family="sans-serif" font-size="14" font-weight="bold" lengthAdjust="spacing" textLength="66" x="10" y="20.9951">Platform</text></g><!--cluster Application--><g id="cluster_Application"><rect fill="none" height="87" rx="2.5" ry="2.5" style="stroke:#181818;stroke-width:1.0;" width="412" x="30" y="49"/><path d="M127,49 L127,58.2969 L117,68.2969 L30,68.2969 " fill="none" style="stroke:#181818;stroke-width:1.0;"/><text fill="#000000" font-family="sans-serif" font-size="14" font-weight="bold" lengthAdjust="spacing" textLength="87" x="33" y="62.9951">Application</text></g><!--cluster Other Project--><g id="cluster_Other Project"><path d="M533.5,184 L640.5,184 A3.75,3.75 0 0 1 643,186.5 L650,206.2969 L936,206.2969 A2.5,2.5 0 0 1 938.5,208.7969 L938.5,272.5 A2.5,2.5 0 0 1 936,275 L533.5,275 A2.5,2.5 0 0 1 531,272.5 L531,186.5 A2.5,2.5 0 0 1 533.5,184 " fill="none" style="stroke:#000000;stroke-width:1.5;"/><line style="stroke:#000000;stroke-width:1.5;" x1="531" x2="650" y1="206.2969" y2="206.2969"/><text fill="#000000" font-family="sans-serif" font-size="14" font-weight="bold" lengthAdjust="spacing" textLength="106" x="535" y="198.9951">Other Project</text></g><!--entity platform__external_service_2--><g id="elem_platform__external_service_2"><rect fill="#FFE4B5" height="36.2969" rx="2.5" ry="2.5" style="stroke:#181818;stroke-width:0.5;" width="154" x="547" y="84"/><text fill="#000000" font-family="sans-serif" font-size="14" lengthAdjust="spacing" textLength="134" x="557" y="106.9951">External Service #2</text></g><g id="elem_GMN7"><path d="M761,74.5 L761,98 L701.02,102 L761,106 L761,129.8984 A0,0 0 0 0 761,129.8984 L942,129.8984 A0,0 0 0 0 942,129.8984 L942,84.5 L932,74.5 L761,74.5 A0,0 0 0 0 761,74.5 " fill="#FEFFDD" style="stroke:#181818;stroke-width:0.5;"/><path d="M932,74.5 L932,84.5 L942,84.5 L932,74.5 " fill="#FEFFDD" style="stroke:#181818;stroke-width:0.5;"/><text fill="#000000" font-family="sans-serif" font-size="13" font-weight="bold" lengthAdjust="spacing" textLength="121" x="767" y="91.5669">HTTP Endpoints:</text><text fill="#000000" font-family="monospace" font-size="13" lengthAdjust="spacing" textLength="88" x="767" y="106.6997">POST&#160;/users</text><text fill="#000000" font-family="monospace" font-size="13" lengthAdjust="spacing" textLength="160" x="767" y="121.8325">GET&#160;&#160;/users/{userId}</text></g><!--entity platform__application__backend_service_1--><g id="elem_platform__application__backend_service_1"><rect fill="#D3D3D3" height="36.2969" rx="2.5" ry="2.5" style="stroke:#181818;stroke-width:0.5;" width="160" x="46" y="84"/><text fill="#000000" font-family="sans-serif" font-size="14" lengthAdjust="spacing" textLength="140" x="56" y="106.9951">Backend Service #1</text></g><!--entity platform__application__backend_service_2--><g id="elem_platform__application__backend_service_2"><rect fill="#87CEEB" height="36.2969" rx="2.5" ry="2.5" style="stroke:#181818;stroke-width:2.0;" width="160" x="266" y="84"/><text fill="#000000" font-family="sans-serif" font-size="14" lengthAdjust="spacing" textLength="140" x="276" y="106.9951">Backend Service #2</text></g><!--entity other_project__external_service_3--><g id="elem_other_project__external_service_3"><rect fill="#F08080" height="36.2969" rx="2.5" ry="2.5" style="stroke:#181818;stroke-width:0.5;" width="154" x="547" y="220"/><text fill="#000000" font-family="sans-serif" font-size="14" lengthAdjust="spacing" textLength="134" x="557" y="242.9951">External Service #3</text></g><g id="elem_GMN12"><path d="M780.5,219 L780.5,234 L701.02,238 L780.5,242 L780.5,259.2656 A0,0 0 0 0 780.5,259.2656 L922.5,259.2656 A0,0 0 0 0 922.5,259.2656 L922.5,229 L912.5,219 L780.5,219 A0,0 0 0 0 780.5,219 " fill="#FEFFDD" style="stroke:#181818;stroke-width:0.5;"/><path d="M912.5,219 L912.5,229 L922.5,229 L912.5,219 " fill="#FEFFDD" style="stroke:#181818;stroke-width:0.5;"/><text fill="#000000" font-family="sans-serif" font-size="13" font-weight="bold" lengthAdjust="spacing" textLength="121" x="786.5" y="236.0669">HTTP Endpoints:</text><text fill="#000000" font-family="monospace" font-size="13" lengthAdjust="spacing" textLength="104" x="786.5" y="251.1997">GET&#160;/bookings</text></g><!--link platform__application__backend_service_1 to platform__application__backend_service_2--><g id="link_platform__application__backend_service_1_platform__application__backend_service_2"><path d="M206.05,102 C225.46,102 240.22,102 259.64,102 " fill="none" id="platform__application__backend_service_1-to-platform__application__backend_service_2" style="stroke:#181818;stroke-width:1.0;"/><polygon fill="#181818" points="265.64,102,256.64,98,260.64,102,256.64,106,265.64,102" style="stroke:#181818;stroke-width:1.0;"/></g><!--link platform__application__backend_service_2 to platform__external_service_2--><g id="link_platform__application__backend_service_2_platform__external_service_2"><path d="M426.04,102 C464.05,102 503.29,102 540.92,102 " fill="none" id="platform__application__backend_service_2-to-platform__external_service_2" style="stroke:#181818;stroke-width:1.0;"/><polygon fill="#181818" points="546.92,102,537.92,98,541.92,102,537.92,106,546.92,102" style="stroke:#181818;stroke-width:1.0;"/><text fill="#000000" font-family="sans-serif" font-size="13" lengthAdjust="spacing" textLength="21" x="464.48" y="115.0669">JWT</text></g><!--link platform__application__backend_service_2 to other_project__external_service_3--><g id="link_platform__application__backend_service_2_other_project__external_service_3"><path d="M346,120.06 C346,157.05 346,238 346,238 C346,238 458.66,238 540.93,238 " fill="none" id="platform__application__backend_service_2-to-other_project__external_service_3" style="stroke:#181818;stroke-width:1.0;"/><polygon fill="#181818" points="546.93,238,537.93,234,541.93,238,537.93,242,546.93,238" style="stroke:#181818;stroke-width:1.0;"/><text fill="#000000" font-family="sans-serif" font-size="13" lengthAdjust="spacing" textLength="69" x="317.5" y="251.0669">Basic-Auth</text></g><rect fill="none" height="79.1875" id="_legend" rx="7.5" ry="7.5" style="stroke:#FFFFFF;stroke-width:1.0;" width="159" x="12" y="293"/><text fill="#000000" font-family="sans-serif" font-size="14" lengthAdjust="spacing" textLength="36" x="21" y="312.9951">Color</text><text fill="#000000" font-family="sans-serif" font-size="14" lengthAdjust="spacing" textLength="91" x="65" y="312.9951">Belongs to ...</text><rect fill="#ADD8E6" height="16.2969" style="stroke:none;stroke-width:1.0;" width="44" x="17" y="316.2969"/><text fill="#000000" font-family="sans-serif" font-size="14" lengthAdjust="spacing" textLength="4" x="17" y="329.292">&#160;</text><text fill="#000000" font-family="sans-serif" font-size="14" lengthAdjust="spacing" textLength="101" x="65" y="329.292">our application</text><rect fill="#FFE4B5" height="16.2969" style="stroke:none;stroke-width:1.0;" width="44" x="17" y="332.5938"/><text fill="#000000" font-family="sans-serif" font-size="14" lengthAdjust="spacing" textLength="4" x="17" y="345.5889">&#160;</text><text fill="#000000" font-family="sans-serif" font-size="14" lengthAdjust="spacing" textLength="98" x="65" y="345.5889">same platform</text><rect fill="#F08080" height="16.2969" style="stroke:none;stroke-width:1.0;" width="44" x="17" y="348.8906"/><text fill="#000000" font-family="sans-serif" font-size="14" lengthAdjust="spacing" textLength="4" x="17" y="361.8857">&#160;</text><text fill="#000000" font-family="sans-serif" font-size="14" lengthAdjust="spacing" textLength="89" x="65" y="361.8857">other project</text><line style="stroke:#000000;stroke-width:1.0;" x1="17" x2="166" y1="300" y2="300"/><line style="stroke:#000000;stroke-width:1.0;" x1="17" x2="166" y1="316.2969" y2="316.2969"/><line style="stroke:#000000;stroke-width:1.0;" x1="17" x2="166" y1="332.5938" y2="332.5938"/><line style="stroke:#000000;stroke-width:1.0;" x1="17" x2="166" y1="348.8906" y2="348.8906"/><line style="stroke:#000000;stroke-width:1.0;" x1="17" x2="166" y1="365.1875" y2="365.1875"/><line style="stroke:#000000;stroke-width:1.0;" x1="17" x2="17" y1="300" y2="365.1875"/><line style="stroke:#000000;stroke-width:1.0;" x1="61" x2="61" y1="300" y2="365.1875"/><line style="stroke:#000000;stroke-width:1.0;" x1="166" x2="166" y1="300" y2="365.1875"/></g></svg>