<?xml version="1.0" encoding="us-ascii" standalone="no"?><svg xmlns="http://www.w3.org/2000/svg" xmlns:xlink="http://www.w3.org/1999/xlink" contentStyleType="text/css" height="496px" preserveAspectRatio="none" style="width:1244px;height:496px;background:#FFFFFF;" version="1.1" viewBox="0 0 1244 496" width="1244px" zoomAndPan="magnify"><defs/><g><!--cluster Platform--><g id="cluster_Platform"><path d="M17,12 L151,12 A7.5,7.5 0 0 1 156,17 L170,56.5938 L1225,56.5938 A5,5 0 0 1 1230,61.5938 L1230,323 A5,5 0 0 1 1225,328 L17,328 A5,5 0 0 1 12,323 L12,17 A5,5 0 0 1 17,12 " fill="none" style="stroke:#000000;stroke-width:3.0;"/><line style="stroke:#000000;stroke-width:3.0;" x1="12" x2="170" y1="56.5938" y2="56.5938"/><text fill="#000000" font-family="sans-serif" font-size="28" font-weight="bold" lengthAdjust="spacing" textLength="132" x="20" y="41.9902">Platform</text></g><!--cluster Application--><g id="cluster_Application"><rect fill="none" height="182" rx="5" ry="5" style="stroke:#181818;stroke-width:2.0;" width="1122" x="60" y="98"/><path d="M254,98 L254,116.5938 L234,136.5938 L60,136.5938 " fill="none" style="stroke:#181818;stroke-width:2.0;"/><text fill="#000000" font-family="sans-serif" font-size="28" font-weight="bold" lengthAdjust="spacing" textLength="174" x="66" y="125.9902">Application</text></g><!--entity platform__application__frontend--><g id="elem_platform__application__frontend"><rect fill="#87CEEB" height="72.5938" rx="5" ry="5" style="stroke:#181818;stroke-width:4.0;" width="166" x="92" y="172"/><text fill="#000000" font-family="sans-serif" font-size="28" lengthAdjust="spacing" textLength="126" x="112" y="217.9902">Frontend</text></g><!--entity platform__application__order_service--><g id="elem_platform__application__order_service"><rect fill="#ADD8E6" height="72.5938" rx="5" ry="5" style="stroke:#181818;stroke-width:1.0;" width="226" x="378" y="172"/><text fill="#000000" font-family="sans-serif" font-size="28" lengthAdjust="spacing" textLength="186" x="398" y="217.9902">Order Service</text></g><g id="elem_GMN6"><path d="M724,168 L724,200 L604.12,208 L724,216 L724,248.5313 A0,0 0 0 0 724,248.5313 L1150,248.5313 A0,0 0 0 0 1150,248.5313 L1150,188 L1130,168 L724,168 A0,0 0 0 0 724,168 " fill="#FEFFDD" style="stroke:#181818;stroke-width:1.0;"/><path d="M1130,168 L1130,188 L1150,188 L1130,168 " fill="#FEFFDD" style="stroke:#181818;stroke-width:1.0;"/><text fill="#000000" font-family="sans-serif" font-size="26" font-weight="bold" lengthAdjust="spacing" textLength="242" x="736" y="202.1338">HTTP Endpoints:</text><text fill="#000000" font-family="monospace" font-size="26" lengthAdjust="spacing" textLength="384" x="736" y="232.3994">DELETE&#160;/orders/{orderId}</text></g><!--link platform__application__frontend to platform__application__order_service--><g id="link_platform__application__frontend_platform__application__order_service"><path d="M258.02,208 C294.6,208 326.14,208 365.64,208 " fill="none" id="platform__application__frontend-to-platform__application__order_service" style="stroke:#181818;stroke-width:2.0;"/><polygon fill="#181818" points="377.64,208,359.64,200,367.64,208,359.64,216,377.64,208" style="stroke:#181818;stroke-width:2.0;"/><text fill="#000000" font-family="sans-serif" font-size="26" lengthAdjust="spacing" textLength="42" x="273.84" y="234.1338">JWT</text></g><rect fill="none" height="93.1875" id="_legend" rx="15" ry="15" style="stroke:#FFFFFF;stroke-width:2.0;" width="346" x="24" y="364"/><text fill="#000000" font-family="sans-serif" font-size="28" lengthAdjust="spacing" textLength="72" x="42" y="403.9902">Color</text><text fill="#000000" font-family="sans-serif" font-size="28" lengthAdjust="spacing" textLength="182" x="130" y="403.9902">Belongs to ...</text><rect fill="#ADD8E6" height="32.5938" style="stroke:none;stroke-width:2.0;" width="88" x="34" y="410.5938"/><text fill="#000000" font-family="sans-serif" font-size="28" lengthAdjust="spacing" textLength="8" x="34" y="436.584">&#160;</text><text fill="#000000" font-family="sans-serif" font-size="28" lengthAdjust="spacing" textLength="230" x="130" y="436.584">our components</text><line style="stroke:#000000;stroke-width:2.0;" x1="34" x2="360" y1="378" y2="378"/><line style="stroke:#000000;stroke-width:2.0;" x1="34" x2="360" y1="410.5938" y2="410.5938"/><line style="stroke:#000000;stroke-width:2.0;" x1="34" x2="360" y1="443.1875" y2="443.1875"/><line style="stroke:#000000;stroke-width:2.0;" x1="34" x2="34" y1="378" y2="443.1875"/><line style="stroke:#000000;stroke-width:2.0;" x1="122" x2="122" y1="378" y2="443.1875"/><line style="stroke:#000000;stroke-width:2.0;" x1="360" x2="360" y1="378" y2="443.1875"/></g></svg>