<?xml version="1.0" encoding="us-ascii" standalone="no"?><svg xmlns="http://www.w3.org/2000/svg" xmlns:xlink="http://www.w3.org/1999/xlink" contentStyleType="text/css" height="248px" preserveAspectRatio="none" style="width:622px;height:248px;background:#FFFFFF;" version="1.1" viewBox="0 0 622 248" width="622px" zoomAndPan="magnify"><defs/><g><!--cluster Platform--><g id="cluster_Platform"><path d="M8.5,6 L75.5,6 A3.75,3.75 0 0 1 78,8.5 L85,28.2969 L612.5,28.2969 A2.5,2.5 0 0 1 615,30.7969 L615,161.5 A2.5,2.5 0 0 1 612.5,164 L8.5,164 A2.5,2.5 0 0 1 6,161.5 L6,8.5 A2.5,2.5 0 0 1 8.5,6 " fill="none" style="stroke:#000000;stroke-width:1.5;"/><line style="stroke:#000000;stroke-width:1.5;" x1="6" x2="85" y1="28.2969" y2="28.2969"/><text fill="#000000" font-family="sans-serif" font-size="14" font-weight="bold" lengthAdjust="spacing" textLength="66" x="10" y="20.9951">Platform</text></g><!--cluster Application--><g id="cluster_Application"><rect fill="none" height="91" rx="2.5" ry="2.5" style="stroke:#181818;stroke-width:1.0;" width="561" x="30" y="49"/><path d="M127,49 L127,58.2969 L117,68.2969 L30,68.2969 " fill="none" style="stroke:#181818;stroke-width:1.0;"/><text fill="#000000" font-family="sans-serif" font-size="14" font-weight="bold" lengthAdjust="spacing" textLength="87" x="33" y="62.9951">Application</text></g><!--entity platform__application__frontend--><g id="elem_platform__application__frontend"><rect fill="#87CEEB" height="36.2969" rx="2.5" ry="2.5" style="stroke:#181818;stroke-width:2.0;" width="83" x="46" y="86"/><text fill="#000000" font-family="sans-serif" font-size="14" lengthAdjust="spacing" textLength="63" x="56" y="108.9951">Frontend</text></g><!--entity platform__application__order_service--><g id="elem_platform__application__order_service"><rect fill="#ADD8E6" height="36.2969" rx="2.5" ry="2.5" style="stroke:#181818;stroke-width:0.5;" width="113" x="189" y="86"/><text fill="#000000" font-family="sans-serif" font-size="14" lengthAdjust="spacing" textLength="93" x="199" y="108.9951">Order Service</text></g><g id="elem_GMN6"><path d="M362,84 L362,100 L302.06,104 L362,108 L362,124.2656 A0,0 0 0 0 362,124.2656 L575,124.2656 A0,0 0 0 0 575,124.2656 L575,94 L565,84 L362,84 A0,0 0 0 0 362,84 " fill="#FEFFDD" style="stroke:#181818;stroke-width:0.5;"/><path d="M565,84 L565,94 L575,94 L565,84 " fill="#FEFFDD" style="stroke:#181818;stroke-width:0.5;"/><text fill="#000000" font-family="sans-serif" font-size="13" font-weight="bold" lengthAdjust="spacing" textLength="121" x="368" y="101.0669">HTTP Endpoints:</text><text fill="#000000" font-family="monospace" font-size="13" lengthAdjust="spacing" textLength="192" x="368" y="116.1997">DELETE&#160;/orders/{orderId}</text></g><!--link platform__application__frontend to platform__application__order_service--><g id="link_platform__application__frontend_platform__application__order_service"><path d="M129.01,104 C147.3,104 163.07,104 182.82,104 " fill="none" id="platform__application__frontend-to-platform__application__order_service" style="stroke:#181818;stroke-width:1.0;"/><polygon fill="#181818" points="188.82,104,179.82,100,183.82,104,179.82,108,188.82,104" style="stroke:#181818;stroke-width:1.0;"/><text fill="#000000" font-family="sans-serif" font-size="13" lengthAdjust="spacing" textLength="21" x="136.92" y="117.0669">JWT</text></g><rect fill="none" height="46.5938" id="_legend" rx="7.5" ry="7.5" style="stroke:#FFFFFF;stroke-width:1.0;" width="173" x="12" y="182"/><text fill="#000000" font-family="sans-serif" font-size="14" lengthAdjust="spacing" textLength="36" x="21" y="201.9951">Color</text><text fill="#000000" font-family="sans-serif" font-size="14" lengthAdjust="spacing" textLength="91" x="65" y="201.9951">Belongs to ...</text><rect fill="#ADD8E6" height="16.2969" style="stroke:none;stroke-width:1.0;" width="44" x="17" y="205.2969"/><text fill="#000000" font-family="sans-serif" font-size="14" lengthAdjust="spacing" textLength="4" x="17" y="218.292">&#160;</text><text fill="#000000" font-family="sans-serif" font-size="14" lengthAdjust="spacing" textLength="115" x="65" y="218.292">our components</text><line style="stroke:#000000;stroke-width:1.0;" x1="17" x2="180" y1="189" y2="189"/><line style="stroke:#000000;stroke-width:1.0;" x1="17" x2="180" y1="205.2969" y2="205.2969"/><line style="stroke:#000000;stroke-width:1.0;" x1="17" x2="180" y1="221.5938" y2="221.5938"/><line style="stroke:#000000;stroke-width:1.0;" x1="17" x2="17" y1="189" y2="221.5938"/><line style="stroke:#000000;stroke-width:1.0;" x1="61" x2="61" y1="189" y2="221.5938"/><line style="stroke:#000000;stroke-width:1.0;" x1="180" x2="180" y1="189" y2="221.5938"/></g></svg>