<?xml version="1.0" encoding="us-ascii" standalone="no"?><svg xmlns="http://www.w3.org/2000/svg" xmlns:xlink="http://www.w3.org/1999/xlink" contentStyleType="text/css" height="473px" preserveAspectRatio="none" style="width:998px;height:473px;background:#FFFFFF;" version="1.1" viewBox="0 0 998 473" width="998px" zoomAndPan="magnify"><defs/><g><!--cluster Application--><g id="cluster_Application"><path d="M8.5,6 L96.5,6 A3.75,3.75 0 0 1 99,8.5 L106,28.2969 L972.5,28.2969 A2.5,2.5 0 0 1 975,30.7969 L975,238.5 A2.5,2.5 0 0 1 972.5,241 L8.5,241 A2.5,2.5 0 0 1 6,238.5 L6,8.5 A2.5,2.5 0 0 1 8.5,6 " fill="none" style="stroke:#000000;stroke-width:1.5;"/><line style="stroke:#000000;stroke-width:1.5;" x1="6" x2="106" y1="28.2969" y2="28.2969"/><text fill="#000000" font-family="sans-serif" font-size="14" font-weight="bold" lengthAdjust="spacing" textLength="87" x="10" y="20.9951">Application</text></g><!--cluster Our Team--><g id="cluster_Our Team"><rect fill="none" height="168" rx="2.5" ry="2.5" style="stroke:#181818;stroke-width:1.0;" width="342" x="30" y="49"/><path d="M117,49 L117,58.2969 L107,68.2969 L30,68.2969 " fill="none" style="stroke:#181818;stroke-width:1.0;"/><text fill="#000000" font-family="sans-serif" font-size="14" font-weight="bold" lengthAdjust="spacing" textLength="77" x="33" y="62.9951">Our Team</text></g><!--cluster 3rd Party--><g id="cluster_3rd Party"><path d="M463.5,265 L537.5,265 A3.75,3.75 0 0 1 540,267.5 L547,287.2969 L988.5,287.2969 A2.5,2.5 0 0 1 991,289.7969 L991,353.5 A2.5,2.5 0 0 1 988.5,356 L463.5,356 A2.5,2.5 0 0 1 461,353.5 L461,267.5 A2.5,2.5 0 0 1 463.5,265 " fill="none" style="stroke:#000000;stroke-width:1.5;"/><line style="stroke:#000000;stroke-width:1.5;" x1="461" x2="547" y1="287.2969" y2="287.2969"/><text fill="#000000" font-family="sans-serif" font-size="14" font-weight="bold" lengthAdjust="spacing" textLength="73" x="465" y="279.9951">3rd Party</text></g><!--entity application__notification_service--><g id="elem_application__notification_service"><rect fill="#FFE4B5" height="36.2969" rx="2.5" ry="2.5" style="stroke:#181818;stroke-width:0.5;" width="150" x="478.5" y="84"/><text fill="#000000" font-family="sans-serif" font-size="14" lengthAdjust="spacing" textLength="130" x="488.5" y="106.9951">Notification Service</text></g><g id="elem_GMN8"><path d="M706,82 L706,98 L628.63,102 L706,106 L706,122.2656 A0,0 0 0 0 706,122.2656 L959,122.2656 A0,0 0 0 0 959,122.2656 L959,92 L949,82 L706,82 A0,0 0 0 0 706,82 " fill="#FEFFDD" style="stroke:#181818;stroke-width:0.5;"/><path d="M949,82 L949,92 L959,92 L949,82 " fill="#FEFFDD" style="stroke:#181818;stroke-width:0.5;"/><text fill="#000000" font-family="sans-serif" font-size="13" font-weight="bold" lengthAdjust="spacing" textLength="121" x="712" y="99.0669">HTTP Endpoints:</text><text fill="#000000" font-family="monospace" font-size="13" lengthAdjust="spacing" textLength="232" x="712" y="114.1997">POST&#160;/notifications/low-stock</text></g><!--entity application__team__order_service--><g id="elem_application__team__order_service"><rect fill="#D3D3D3" height="36.2969" rx="2.5" ry="2.5" style="stroke:#181818;stroke-width:0.5;" width="113" x="46" y="84"/><text fill="#000000" font-family="sans-serif" font-size="14" lengthAdjust="spacing" textLength="93" x="56" y="106.9951">Order Service</text></g><!--entity application__team__inventory_service--><g id="elem_application__team__inventory_service"><rect fill="#87CEEB" height="36.2969" rx="2.5" ry="2.5" style="stroke:#181818;stroke-width:2.0;" width="137" x="219" y="84"/><text fill="#000000" font-family="sans-serif" font-size="14" lengthAdjust="spacing" textLength="117" x="229" y="106.9951">Inventory Service</text></g><!--entity application__team__inventory_database--><g id="elem_application__team__inventory_database"><path d="M245.5,165.5 C245.5,155.5 287.5,155.5 287.5,155.5 C287.5,155.5 329.5,155.5 329.5,165.5 L329.5,190.7969 C329.5,200.7969 287.5,200.7969 287.5,200.7969 C287.5,200.7969 245.5,200.7969 245.5,190.7969 L245.5,165.5 " fill="#F1F1F1" style="stroke:#181818;stroke-width:0.5;"/><path d="M245.5,165.5 C245.5,175.5 287.5,175.5 287.5,175.5 C287.5,175.5 329.5,175.5 329.5,165.5 " fill="none" style="stroke:#181818;stroke-width:0.5;"/><text fill="#000000" font-family="sans-serif" font-size="14" lengthAdjust="spacing" textLength="64" x="255.5" y="192.4951">database</text></g><!--entity third_party__warehouse_service--><g id="elem_third_party__warehouse_service"><rect fill="#F08080" height="36.2969" rx="2.5" ry="2.5" style="stroke:#181818;stroke-width:0.5;" width="153" x="477" y="301"/><text fill="#000000" font-family="sans-serif" font-size="14" lengthAdjust="spacing" textLength="133" x="487" y="323.9951">Warehouse Service</text></g><g id="elem_GMN13"><path d="M690,300 L690,315 L630.11,319 L690,323 L690,340.2656 A0,0 0 0 0 690,340.2656 L975,340.2656 A0,0 0 0 0 975,340.2656 L975,310 L965,300 L690,300 A0,0 0 0 0 690,300 " fill="#FEFFDD" style="stroke:#181818;stroke-width:0.5;"/><path d="M965,300 L965,310 L975,310 L965,300 " fill="#FEFFDD" style="stroke:#181818;stroke-width:0.5;"/><text fill="#000000" font-family="sans-serif" font-size="13" font-weight="bold" lengthAdjust="spacing" textLength="121" x="696" y="317.0669">HTTP Endpoints:</text><text fill="#000000" font-family="monospace" font-size="13" lengthAdjust="spacing" textLength="264" x="696" y="332.1997">GET&#160;/warehouses/stock/{productId}</text></g><!--link application__team__order_service to application__team__inventory_service--><g id="link_application__team__order_service_application__team__inventory_service"><path d="M159.01,102 C177.93,102 193.22,102 212.95,102 " fill="none" id="application__team__order_service-to-application__team__inventory_service" style="stroke:#181818;stroke-width:1.0;"/><polygon fill="#181818" points="218.95,102,209.95,98,213.95,102,209.95,106,218.95,102" style="stroke:#181818;stroke-width:1.0;"/></g><!--reverse link application__team__inventory_database to application__team__inventory_service--><g id="link_application__team__inventory_database_application__team__inventory_service"><path d="M288,149.2 C288,138 288,130.7 288,120.2 " fill="none" id="application__team__inventory_database-backto-application__team__inventory_service" style="stroke:#181818;stroke-width:1.0;"/><polygon fill="#181818" points="288,155.2,292,146.2,288,150.2,284,146.2,288,155.2" style="stroke:#181818;stroke-width:1.0;"/></g><!--link application__team__inventory_service to application__notification_service--><g id="link_application__team__inventory_service_application__notification_service"><path d="M356,102 C393.41,102 433.79,102 472.21,102 " fill="none" id="application__team__inventory_service-to-application__notification_service" style="stroke:#181818;stroke-width:1.0;"/><polygon fill="#181818" points="478.21,102,469.21,98,473.21,102,469.21,106,478.21,102" style="stroke:#181818;stroke-width:1.0;"/><text fill="#000000" font-family="sans-serif" font-size="13" lengthAdjust="spacing" textLength="21" x="395.11" y="115.0669">JWT</text></g><!--link application__team__inventory_service to third_party__warehouse_service--><g id="link_application__team__inventory_service_third_party__warehouse_service"><path d="M343,120.13 C343,172.28 343,319 343,319 C343,319 410.72,319 470.91,319 " fill="none" id="application__team__inventory_service-to-third_party__warehouse_service" style="stroke:#181818;stroke-width:1.0;"/><polygon fill="#181818" points="476.91,319,467.91,315,471.91,319,467.91,323,476.91,319" style="stroke:#181818;stroke-width:1.0;"/><text fill="#000000" font-family="sans-serif" font-size="13" lengthAdjust="spacing" textLength="69" x="273" y="299.5869">Basic-Auth</text></g><rect fill="none" height="79.1875" id="_legend" rx="7.5" ry="7.5" style="stroke:#FFFFFF;stroke-width:1.0;" width="174" x="12" y="374"/><text fill="#000000" font-family="sans-serif" font-size="14" lengthAdjust="spacing" textLength="36" x="21" y="393.9951">Color</text><text fill="#000000" font-family="sans-serif" font-size="14" lengthAdjust="spacing" textLength="91" x="65" y="393.9951">Belongs to ...</text><rect fill="#ADD8E6" height="16.2969" style="stroke:none;stroke-width:1.0;" width="44" x="17" y="397.2969"/><text fill="#000000" font-family="sans-serif" font-size="14" lengthAdjust="spacing" textLength="4" x="17" y="410.292">&#160;</text><text fill="#000000" font-family="sans-serif" font-size="14" lengthAdjust="spacing" textLength="115" x="65" y="410.292">our components</text><rect fill="#FFE4B5" height="16.2969" style="stroke:none;stroke-width:1.0;" width="44" x="17" y="413.5938"/><text fill="#000000" font-family="sans-serif" font-size="14" lengthAdjust="spacing" textLength="4" x="17" y="426.5889">&#160;</text><text fill="#000000" font-family="sans-serif" font-size="14" lengthAdjust="spacing" textLength="116" x="65" y="426.5889">same application</text><rect fill="#F08080" height="16.2969" style="stroke:none;stroke-width:1.0;" width="44" x="17" y="429.8906"/><text fill="#000000" font-family="sans-serif" font-size="14" lengthAdjust="spacing" textLength="4" x="17" y="442.8857">&#160;</text><text fill="#000000" font-family="sans-serif" font-size="14" lengthAdjust="spacing" textLength="61" x="65" y="442.8857">3rd party</text><line style="stroke:#000000;stroke-width:1.0;" x1="17" x2="181" y1="381" y2="381"/><line style="stroke:#000000;stroke-width:1.0;" x1="17" x2="181" y1="397.2969" y2="397.2969"/><line style="stroke:#000000;stroke-width:1.0;" x1="17" x2="181" y1="413.5938" y2="413.5938"/><line style="stroke:#000000;stroke-width:1.0;" x1="17" x2="181" y1="429.8906" y2="429.8906"/><line style="stroke:#000000;stroke-width:1.0;" x1="17" x2="181" y1="446.1875" y2="446.1875"/><line style="stroke:#000000;stroke-width:1.0;" x1="17" x2="17" y1="381" y2="446.1875"/><line style="stroke:#000000;stroke-width:1.0;" x1="61" x2="61" y1="381" y2="446.1875"/><line style="stroke:#000000;stroke-width:1.0;" x1="181" x2="181" y1="381" y2="446.1875"/></g></svg>