<?xml version="1.0" encoding="us-ascii" standalone="no"?><svg xmlns="http://www.w3.org/2000/svg" xmlns:xlink="http://www.w3.org/1999/xlink" contentStyleType="text/css" height="946px" preserveAspectRatio="none" style="width:1996px;height:946px;background:#FFFFFF;" version="1.1" viewBox="0 0 1996 946" width="1996px" zoomAndPan="magnify"><defs/><g><!--cluster Platform--><g id="cluster_Platform"><path d="M17,12 L151,12 A7.5,7.5 0 0 1 156,17 L170,56.5938 L1945,56.5938 A5,5 0 0 1 1950,61.5938 L1950,477 A5,5 0 0 1 1945,482 L17,482 A5,5 0 0 1 12,477 L12,17 A5,5 0 0 1 17,12 " fill="none" style="stroke:#000000;stroke-width:3.0;"/><line style="stroke:#000000;stroke-width:3.0;" x1="12" x2="170" y1="56.5938" y2="56.5938"/><text fill="#000000" font-family="sans-serif" font-size="28" font-weight="bold" lengthAdjust="spacing" textLength="132" x="20" y="41.9902">Platform</text></g><!--cluster Application--><g id="cluster_Application"><rect fill="none" height="336" rx="5" ry="5" style="stroke:#181818;stroke-width:2.0;" width="684" x="60" y="98"/><path d="M254,98 L254,116.5938 L234,136.5938 L60,136.5938 " fill="none" style="stroke:#181818;stroke-width:2.0;"/><text fill="#000000" font-family="sans-serif" font-size="28" font-weight="bold" lengthAdjust="spacing" textLength="174" x="66" y="125.9902">Application</text></g><!--cluster Other Project--><g id="cluster_Other Project"><path d="M927,530 L1141,530 A7.5,7.5 0 0 1 1146,535 L1160,574.5938 L1977,574.5938 A5,5 0 0 1 1982,579.5938 L1982,707 A5,5 0 0 1 1977,712 L927,712 A5,5 0 0 1 922,707 L922,535 A5,5 0 0 1 927,530 " fill="none" style="stroke:#000000;stroke-width:3.0;"/><line style="stroke:#000000;stroke-width:3.0;" x1="922" x2="1160" y1="574.5938" y2="574.5938"/><text fill="#000000" font-family="sans-serif" font-size="28" font-weight="bold" lengthAdjust="spacing" textLength="212" x="930" y="559.9902">Other Project</text></g><!--entity platform__notification_service--><g id="elem_platform__notification_service"><rect fill="#FFE4B5" height="72.5938" rx="5" ry="5" style="stroke:#181818;stroke-width:1.0;" width="300" x="957" y="168"/><text fill="#000000" font-family="sans-serif" font-size="28" lengthAdjust="spacing" textLength="260" x="977" y="213.9902">Notification Service</text></g><g id="elem_GMN8"><path d="M1412,164 L1412,196 L1257.26,204 L1412,212 L1412,244.5313 A0,0 0 0 0 1412,244.5313 L1918,244.5313 A0,0 0 0 0 1918,244.5313 L1918,184 L1898,164 L1412,164 A0,0 0 0 0 1412,164 " fill="#FEFFDD" style="stroke:#181818;stroke-width:1.0;"/><path d="M1898,164 L1898,184 L1918,184 L1898,164 " fill="#FEFFDD" style="stroke:#181818;stroke-width:1.0;"/><text fill="#000000" font-family="sans-serif" font-size="26" font-weight="bold" lengthAdjust="spacing" textLength="242" x="1424" y="198.1338">HTTP Endpoints:</text><text fill="#000000" font-family="monospace" font-size="26" lengthAdjust="spacing" textLength="464" x="1424" y="228.3994">POST&#160;/notifications/low-stock</text></g><!--entity platform__application__order_service--><g id="elem_platform__application__order_service"><rect fill="#D3D3D3" height="72.5938" rx="5" ry="5" style="stroke:#181818;stroke-width:1.0;" width="226" x="92" y="168"/><text fill="#000000" font-family="sans-serif" font-size="28" lengthAdjust="spacing" textLength="186" x="112" y="213.9902">Order Service</text></g><!--entity platform__application__inventory_service--><g id="elem_platform__application__inventory_service"><rect fill="#87CEEB" height="72.5938" rx="5" ry="5" style="stroke:#181818;stroke-width:4.0;" width="274" x="438" y="168"/><text fill="#000000" font-family="sans-serif" font-size="28" lengthAdjust="spacing" textLength="234" x="458" y="213.9902">Inventory Service</text></g><!--entity platform__application__inventory_database--><g id="elem_platform__application__inventory_database"><path d="M491,331 C491,311 575,311 575,311 C575,311 659,311 659,331 L659,381.5938 C659,401.5938 575,401.5938 575,401.5938 C575,401.5938 491,401.5938 491,381.5938 L491,331 " fill="#F1F1F1" style="stroke:#181818;stroke-width:1.0;"/><path d="M491,331 C491,351 575,351 575,351 C575,351 659,351 659,331 " fill="none" style="stroke:#181818;stroke-width:1.0;"/><text fill="#000000" font-family="sans-serif" font-size="28" lengthAdjust="spacing" textLength="128" x="511" y="384.9902">database</text></g><!--entity other_project__warehouse_service--><g id="elem_other_project__warehouse_service"><rect fill="#F08080" height="72.5938" rx="5" ry="5" style="stroke:#181818;stroke-width:1.0;" width="306" x="954" y="602"/><text fill="#000000" font-family="sans-serif" font-size="28" lengthAdjust="spacing" textLength="266" x="974" y="647.9902">Warehouse Service</text></g><g id="elem_GMN13"><path d="M1380,600 L1380,630 L1260.22,638 L1380,646 L1380,680.5313 A0,0 0 0 0 1380,680.5313 L1950,680.5313 A0,0 0 0 0 1950,680.5313 L1950,620 L1930,600 L1380,600 A0,0 0 0 0 1380,600 " fill="#FEFFDD" style="stroke:#181818;stroke-width:1.0;"/><path d="M1930,600 L1930,620 L1950,620 L1930,600 " fill="#FEFFDD" style="stroke:#181818;stroke-width:1.0;"/><text fill="#000000" font-family="sans-serif" font-size="26" font-weight="bold" lengthAdjust="spacing" textLength="242" x="1392" y="634.1338">HTTP Endpoints:</text><text fill="#000000" font-family="monospace" font-size="26" lengthAdjust="spacing" textLength="528" x="1392" y="664.3994">GET&#160;/warehouses/stock/{productId}</text></g><!--link platform__application__order_service to platform__application__inventory_service--><g id="link_platform__application__order_service_platform__application__inventory_service"><path d="M318.02,204 C355.86,204 386.44,204 425.9,204 " fill="none" id="platform__application__order_service-to-platform__application__inventory_service" style="stroke:#181818;stroke-width:2.0;"/><polygon fill="#181818" points="437.9,204,419.9,196,427.9,204,419.9,212,437.9,204" style="stroke:#181818;stroke-width:2.0;"/></g><!--reverse link platform__application__inventory_database to platform__application__inventory_service--><g id="link_platform__application__inventory_database_platform__application__inventory_service"><path d="M576,298.4 C576,276 576,261.4 576,240.4 " fill="none" id="platform__application__inventory_database-backto-platform__application__inventory_service" style="stroke:#181818;stroke-width:2.0;"/><polygon fill="#181818" points="576,310.4,584,292.4,576,300.4,568,292.4,576,310.4" style="stroke:#181818;stroke-width:2.0;"/></g><!--link platform__application__inventory_service to platform__notification_service--><g id="link_platform__application__inventory_service_platform__notification_service"><path d="M712,204 C786.82,204 867.58,204 944.42,204 " fill="none" id="platform__application__inventory_service-to-platform__notification_service" style="stroke:#181818;stroke-width:2.0;"/><polygon fill="#181818" points="956.42,204,938.42,196,946.42,204,938.42,212,956.42,204" style="stroke:#181818;stroke-width:2.0;"/><text fill="#000000" font-family="sans-serif" font-size="26" lengthAdjust="spacing" textLength="42" x="790.22" y="230.1338">JWT</text></g><!--link platform__application__inventory_service to other_project__warehouse_service--><g id="link_platform__application__inventory_service_other_project__warehouse_service"><path d="M686,240.26 C686,344.56 686,638 686,638 C686,638 821.44,638 941.82,638 " fill="none" id="platform__application__inventory_service-to-other_project__warehouse_service" style="stroke:#181818;stroke-width:2.0;"/><polygon fill="#181818" points="953.82,638,935.82,630,943.82,638,935.82,646,953.82,638" style="stroke:#181818;stroke-width:2.0;"/><text fill="#000000" font-family="sans-serif" font-size="26" lengthAdjust="spacing" textLength="138" x="546" y="599.1738">Basic-Auth</text></g><rect fill="none" height="158.375" id="_legend" rx="15" ry="15" style="stroke:#FFFFFF;stroke-width:2.0;" width="348" x="24" y="748"/><text fill="#000000" font-family="sans-serif" font-size="28" lengthAdjust="spacing" textLength="72" x="42" y="787.9902">Color</text><text fill="#000000" font-family="sans-serif" font-size="28" lengthAdjust="spacing" textLength="182" x="130" y="787.9902">Belongs to ...</text><rect fill="#ADD8E6" height="32.5938" style="stroke:none;stroke-width:2.0;" width="88" x="34" y="794.5938"/><text fill="#000000" font-family="sans-serif" font-size="28" lengthAdjust="spacing" textLength="8" x="34" y="820.584">&#160;</text><text fill="#000000" font-family="sans-serif" font-size="28" lengthAdjust="spacing" textLength="230" x="130" y="820.584">our components</text><rect fill="#FFE4B5" height="32.5938" style="stroke:none;stroke-width:2.0;" width="88" x="34" y="827.1875"/><text fill="#000000" font-family="sans-serif" font-size="28" lengthAdjust="spacing" textLength="8" x="34" y="853.1777">&#160;</text><text fill="#000000" font-family="sans-serif" font-size="28" lengthAdjust="spacing" textLength="232" x="130" y="853.1777">same application</text><rect fill="#F08080" height="32.5938" style="stroke:none;stroke-width:2.0;" width="88" x="34" y="859.7813"/><text fill="#000000" font-family="sans-serif" font-size="28" lengthAdjust="spacing" textLength="8" x="34" y="885.7715">&#160;</text><text fill="#000000" font-family="sans-serif" font-size="28" lengthAdjust="spacing" textLength="122" x="130" y="885.7715">3rd party</text><line style="stroke:#000000;stroke-width:2.0;" x1="34" x2="362" y1="762" y2="762"/><line style="stroke:#000000;stroke-width:2.0;" x1="34" x2="362" y1="794.5938" y2="794.5938"/><line style="stroke:#000000;stroke-width:2.0;" x1="34" x2="362" y1="827.1875" y2="827.1875"/><line style="stroke:#000000;stroke-width:2.0;" x1="34" x2="362" y1="859.7813" y2="859.7813"/><line style="stroke:#000000;stroke-width:2.0;" x1="34" x2="362" y1="892.375" y2="892.375"/><line style="stroke:#000000;stroke-width:2.0;" x1="34" x2="34" y1="762" y2="892.375"/><line style="stroke:#000000;stroke-width:2.0;" x1="122" x2="122" y1="762" y2="892.375"/><line style="stroke:#000000;stroke-width:2.0;" x1="362" x2="362" y1="762" y2="892.375"/></g></svg>