<?xml version="1.0" encoding="us-ascii" standalone="no"?><svg xmlns="http://www.w3.org/2000/svg" xmlns:xlink="http://www.w3.org/1999/xlink" contentStyleType="text/css" height="456px" preserveAspectRatio="none" style="width:1444px;height:456px;background:#FFFFFF;" version="1.1" viewBox="0 0 1444 456" width="1444px" zoomAndPan="magnify"><defs/><g><!--cluster Application--><g id="cluster_Application"><path d="M8.5,6 L96.5,6 A3.75,3.75 0 0 1 99,8.5 L106,28.2969 L1434.5,28.2969 A2.5,2.5 0 0 1 1437,30.7969 L1437,353.5 A2.5,2.5 0 0 1 1434.5,356 L8.5,356 A2.5,2.5 0 0 1 6,353.5 L6,8.5 A2.5,2.5 0 0 1 8.5,6 " fill="none" style="stroke:#000000;stroke-width:1.5;"/><line style="stroke:#000000;stroke-width:1.5;" x1="6" x2="106" y1="28.2969" y2="28.2969"/><text fill="#000000" font-family="sans-serif" font-size="14" font-weight="bold" lengthAdjust="spacing" textLength="87" x="10" y="20.9951">Application</text></g><!--cluster Our Team--><g id="cluster_Our Team"><rect fill="none" height="168" rx="2.5" ry="2.5" style="stroke:#181818;stroke-width:1.0;" width="846" x="30" y="164"/><path d="M117,164 L117,173.2969 L107,183.2969 L30,183.2969 " fill="none" style="stroke:#181818;stroke-width:1.0;"/><text fill="#000000" font-family="sans-serif" font-size="14" font-weight="bold" lengthAdjust="spacing" textLength="77" x="33" y="177.9951">Our Team</text></g><!--entity application__notification_service--><g id="elem_application__notification_service"><rect fill="#FFE4B5" height="36.2969" rx="2.5" ry="2.5" style="stroke:#181818;stroke-width:0.5;" width="150" x="634.5" y="112"/><text fill="#000000" font-family="sans-serif" font-size="14" lengthAdjust="spacing" textLength="130" x="644.5" y="134.9951">Notification Service</text></g><!--entity application__payment_service--><g id="elem_application__payment_service"><rect fill="#FFE4B5" height="36.2969" rx="2.5" ry="2.5" style="stroke:#181818;stroke-width:0.5;" width="134" x="642.5" y="41"/><text fill="#000000" font-family="sans-serif" font-size="14" lengthAdjust="spacing" textLength="114" x="652.5" y="63.9951">Payment Service</text></g><g id="elem_GMN13"><path d="M920,116 L920,128 L784.59,132 L920,136 L920,156.2656 A0,0 0 0 0 920,156.2656 L1421,156.2656 A0,0 0 0 0 1421,156.2656 L1421,126 L1411,116 L920,116 A0,0 0 0 0 920,116 " fill="#FEFFDD" style="stroke:#181818;stroke-width:0.5;"/><path d="M1411,116 L1411,126 L1421,126 L1411,116 " fill="#FEFFDD" style="stroke:#181818;stroke-width:0.5;"/><text fill="#000000" font-family="sans-serif" font-size="13" font-weight="bold" lengthAdjust="spacing" textLength="121" x="926" y="133.0669">HTTP Endpoints:</text><text fill="#000000" font-family="monospace" font-size="13" lengthAdjust="spacing" textLength="480" x="926" y="148.1997">POST&#160;/notifications/customer/{customerId}/order-confirmation</text></g><g id="elem_GMN16"><path d="M1099.5,41 L1099.5,55 L776.53,59 L1099.5,63 L1099.5,81.2656 A0,0 0 0 0 1099.5,81.2656 L1241.5,81.2656 A0,0 0 0 0 1241.5,81.2656 L1241.5,51 L1231.5,41 L1099.5,41 A0,0 0 0 0 1099.5,41 " fill="#FEFFDD" style="stroke:#181818;stroke-width:0.5;"/><path d="M1231.5,41 L1231.5,51 L1241.5,51 L1231.5,41 " fill="#FEFFDD" style="stroke:#181818;stroke-width:0.5;"/><text fill="#000000" font-family="sans-serif" font-size="13" font-weight="bold" lengthAdjust="spacing" textLength="121" x="1105.5" y="58.0669">HTTP Endpoints:</text><text fill="#000000" font-family="monospace" font-size="13" lengthAdjust="spacing" textLength="112" x="1105.5" y="73.1997">POST&#160;/payments</text></g><!--entity application__team__frontend--><g id="elem_application__team__frontend"><rect fill="#ADD8E6" height="36.2969" rx="2.5" ry="2.5" style="stroke:#181818;stroke-width:0.5;" width="83" x="46" y="199"/><text fill="#000000" font-family="sans-serif" font-size="14" lengthAdjust="spacing" textLength="63" x="56" y="221.9951">Frontend</text></g><!--entity application__team__order_service--><g id="elem_application__team__order_service"><rect fill="#87CEEB" height="36.2969" rx="2.5" ry="2.5" style="stroke:#181818;stroke-width:2.0;" width="113" x="189" y="199"/><text fill="#000000" font-family="sans-serif" font-size="14" lengthAdjust="spacing" textLength="93" x="199" y="221.9951">Order Service</text></g><!--entity application__team__order_database--><g id="elem_application__team__order_database"><path d="M203.5,280.5 C203.5,270.5 245.5,270.5 245.5,270.5 C245.5,270.5 287.5,270.5 287.5,280.5 L287.5,305.7969 C287.5,315.7969 245.5,315.7969 245.5,315.7969 C245.5,315.7969 203.5,315.7969 203.5,305.7969 L203.5,280.5 " fill="#F1F1F1" style="stroke:#181818;stroke-width:0.5;"/><path d="M203.5,280.5 C203.5,290.5 245.5,290.5 245.5,290.5 C245.5,290.5 287.5,290.5 287.5,280.5 " fill="none" style="stroke:#181818;stroke-width:0.5;"/><text fill="#000000" font-family="sans-serif" font-size="14" lengthAdjust="spacing" textLength="64" x="213.5" y="307.4951">database</text></g><!--entity application__team__inventory_service--><g id="elem_application__team__inventory_service"><rect fill="#ADD8E6" height="36.2969" rx="2.5" ry="2.5" style="stroke:#181818;stroke-width:0.5;" width="137" x="362" y="204"/><text fill="#000000" font-family="sans-serif" font-size="14" lengthAdjust="spacing" textLength="117" x="372" y="226.9951">Inventory Service</text></g><g id="elem_GMN8"><path d="M559,199.5 L559,218 L499.11,222 L559,226 L559,254.8984 A0,0 0 0 0 559,254.8984 L860,254.8984 A0,0 0 0 0 860,254.8984 L860,209.5 L850,199.5 L559,199.5 A0,0 0 0 0 559,199.5 " fill="#FEFFDD" style="stroke:#181818;stroke-width:0.5;"/><path d="M850,199.5 L850,209.5 L860,209.5 L850,199.5 " fill="#FEFFDD" style="stroke:#181818;stroke-width:0.5;"/><text fill="#000000" font-family="sans-serif" font-size="13" font-weight="bold" lengthAdjust="spacing" textLength="121" x="565" y="216.5669">HTTP Endpoints:</text><text fill="#000000" font-family="monospace" font-size="13" lengthAdjust="spacing" textLength="216" x="565" y="231.6997">GET&#160;&#160;/inventory/{productId}</text><text fill="#000000" font-family="monospace" font-size="13" lengthAdjust="spacing" textLength="280" x="565" y="246.8325">POST&#160;/inventory/{productId}/reserve</text></g><!--link application__team__frontend to application__team__order_service--><g id="link_application__team__frontend_application__team__order_service"><path d="M129.01,217 C147.3,217 163.07,217 182.82,217 " fill="none" id="application__team__frontend-to-application__team__order_service" style="stroke:#181818;stroke-width:1.0;"/><polygon fill="#181818" points="188.82,217,179.82,213,183.82,217,179.82,221,188.82,217" style="stroke:#181818;stroke-width:1.0;"/></g><!--reverse link application__team__order_database to application__team__order_service--><g id="link_application__team__order_database_application__team__order_service"><path d="M246,264.2 C246,253 246,245.7 246,235.2 " fill="none" id="application__team__order_database-backto-application__team__order_service" style="stroke:#181818;stroke-width:1.0;"/><polygon fill="#181818" points="246,270.2,250,261.2,246,265.2,242,261.2,246,270.2" style="stroke:#181818;stroke-width:1.0;"/></g><!--link application__team__order_service to application__notification_service--><g id="link_application__team__order_service_application__notification_service"><path d="M265,198.97 C265,173.49 265,130 265,130 C265,130 501.6,130 628.35,130 " fill="none" id="application__team__order_service-to-application__notification_service" style="stroke:#181818;stroke-width:1.0;"/><polygon fill="#181818" points="634.35,130,625.35,126,629.35,130,625.35,134,634.35,130" style="stroke:#181818;stroke-width:1.0;"/><text fill="#000000" font-family="sans-serif" font-size="13" lengthAdjust="spacing" textLength="21" x="393.19" y="143.0669">JWT</text></g><!--link application__team__order_service to application__team__inventory_service--><g id="link_application__team__order_service_application__team__inventory_service"><path d="M302.01,219.5 C320.93,219.5 336.22,219.5 355.95,219.5 " fill="none" id="application__team__order_service-to-application__team__inventory_service" style="stroke:#181818;stroke-width:1.0;"/><polygon fill="#181818" points="361.95,219.5,352.95,215.5,356.95,219.5,352.95,223.5,361.95,219.5" style="stroke:#181818;stroke-width:1.0;"/><text fill="#000000" font-family="sans-serif" font-size="13" lengthAdjust="spacing" textLength="21" x="309.98" y="232.5669">JWT</text></g><!--link application__team__order_service to application__payment_service--><g id="link_application__team__order_service_application__payment_service"><path d="M227,198.88 C227,157.37 227,59 227,59 C227,59 503.83,59 636.41,59 " fill="none" id="application__team__order_service-to-application__payment_service" style="stroke:#181818;stroke-width:1.0;"/><polygon fill="#181818" points="642.41,59,633.41,55,637.41,59,633.41,63,642.41,59" style="stroke:#181818;stroke-width:1.0;"/><text fill="#000000" font-family="sans-serif" font-size="13" lengthAdjust="spacing" textLength="21" x="342.77" y="72.0669">JWT</text></g><rect fill="none" height="62.8906" id="_legend" rx="7.5" ry="7.5" style="stroke:#FFFFFF;stroke-width:1.0;" width="174" x="12" y="374"/><text fill="#000000" font-family="sans-serif" font-size="14" lengthAdjust="spacing" textLength="36" x="21" y="393.9951">Color</text><text fill="#000000" font-family="sans-serif" font-size="14" lengthAdjust="spacing" textLength="91" x="65" y="393.9951">Belongs to ...</text><rect fill="#ADD8E6" height="16.2969" style="stroke:none;stroke-width:1.0;" width="44" x="17" y="397.2969"/><text fill="#000000" font-family="sans-serif" font-size="14" lengthAdjust="spacing" textLength="4" x="17" y="410.292">&#160;</text><text fill="#000000" font-family="sans-serif" font-size="14" lengthAdjust="spacing" textLength="115" x="65" y="410.292">our components</text><rect fill="#FFE4B5" height="16.2969" style="stroke:none;stroke-width:1.0;" width="44" x="17" y="413.5938"/><text fill="#000000" font-family="sans-serif" font-size="14" lengthAdjust="spacing" textLength="4" x="17" y="426.5889">&#160;</text><text fill="#000000" font-family="sans-serif" font-size="14" lengthAdjust="spacing" textLength="116" x="65" y="426.5889">same application</text><line style="stroke:#000000;stroke-width:1.0;" x1="17" x2="181" y1="381" y2="381"/><line style="stroke:#000000;stroke-width:1.0;" x1="17" x2="181" y1="397.2969" y2="397.2969"/><line style="stroke:#000000;stroke-width:1.0;" x1="17" x2="181" y1="413.5938" y2="413.5938"/><line style="stroke:#000000;stroke-width:1.0;" x1="17" x2="181" y1="429.8906" y2="429.8906"/><line style="stroke:#000000;stroke-width:1.0;" x1="17" x2="17" y1="381" y2="429.8906"/><line style="stroke:#000000;stroke-width:1.0;" x1="61" x2="61" y1="381" y2="429.8906"/><line style="stroke:#000000;stroke-width:1.0;" x1="181" x2="181" y1="381" y2="429.8906"/></g></svg>