<?xml version="1.0" encoding="us-ascii" standalone="no"?><svg xmlns="http://www.w3.org/2000/svg" xmlns:xlink="http://www.w3.org/1999/xlink" contentStyleType="text/css" height="396px" preserveAspectRatio="none" style="width:1069px;height:396px;background:#FFFFFF;" version="1.1" viewBox="0 0 1069 396" width="1069px" zoomAndPan="magnify"><defs/><g><!--cluster Platform--><g id="cluster_Platform"><path d="M8.5,6 L75.5,6 A3.75,3.75 0 0 1 78,8.5 L85,28.2969 L897.5,28.2969 A2.5,2.5 0 0 1 900,30.7969 L900,238.5 A2.5,2.5 0 0 1 897.5,241 L8.5,241 A2.5,2.5 0 0 1 6,238.5 L6,8.5 A2.5,2.5 0 0 1 8.5,6 " fill="none" style="stroke:#000000;stroke-width:1.5;"/><line style="stroke:#000000;stroke-width:1.5;" x1="6" x2="85" y1="28.2969" y2="28.2969"/><text fill="#000000" font-family="sans-serif" font-size="14" font-weight="bold" lengthAdjust="spacing" textLength="66" x="10" y="20.9951">Platform</text></g><!--cluster Application--><g id="cluster_Application"><rect fill="none" height="168" rx="2.5" ry="2.5" style="stroke:#181818;stroke-width:1.0;" width="846" x="30" y="49"/><path d="M127,49 L127,58.2969 L117,68.2969 L30,68.2969 " fill="none" style="stroke:#181818;stroke-width:1.0;"/><text fill="#000000" font-family="sans-serif" font-size="14" font-weight="bold" lengthAdjust="spacing" textLength="87" x="33" y="62.9951">Application</text></g><!--entity platform__application__frontend--><g id="elem_platform__application__frontend"><rect fill="#D3D3D3" height="36.2969" rx="2.5" ry="2.5" style="stroke:#181818;stroke-width:0.5;" width="83" x="46" y="84"/><text fill="#000000" font-family="sans-serif" font-size="14" lengthAdjust="spacing" textLength="63" x="56" y="106.9951">Frontend</text></g><!--entity platform__application__order_service--><g id="elem_platform__application__order_service"><rect fill="#87CEEB" height="36.2969" rx="2.5" ry="2.5" style="stroke:#181818;stroke-width:2.0;" width="113" x="189" y="84"/><text fill="#000000" font-family="sans-serif" font-size="14" lengthAdjust="spacing" textLength="93" x="199" y="106.9951">Order Service</text></g><!--entity platform__application__order_database--><g id="elem_platform__application__order_database"><path d="M203.5,165.5 C203.5,155.5 245.5,155.5 245.5,155.5 C245.5,155.5 287.5,155.5 287.5,165.5 L287.5,190.7969 C287.5,200.7969 245.5,200.7969 245.5,200.7969 C245.5,200.7969 203.5,200.7969 203.5,190.7969 L203.5,165.5 " fill="#F1F1F1" style="stroke:#181818;stroke-width:0.5;"/><path d="M203.5,165.5 C203.5,175.5 245.5,175.5 245.5,175.5 C245.5,175.5 287.5,175.5 287.5,165.5 " fill="none" style="stroke:#181818;stroke-width:0.5;"/><text fill="#000000" font-family="sans-serif" font-size="14" lengthAdjust="spacing" textLength="64" x="213.5" y="192.4951">database</text></g><!--entity platform__application__inventory_service--><g id="elem_platform__application__inventory_service"><rect fill="#ADD8E6" height="36.2969" rx="2.5" ry="2.5" style="stroke:#181818;stroke-width:0.5;" width="137" x="362" y="89"/><text fill="#000000" font-family="sans-serif" font-size="14" lengthAdjust="spacing" textLength="117" x="372" y="111.9951">Inventory Service</text></g><g id="elem_GMN8"><path d="M559,84.5 L559,103 L499.11,107 L559,111 L559,139.8984 A0,0 0 0 0 559,139.8984 L860,139.8984 A0,0 0 0 0 860,139.8984 L860,94.5 L850,84.5 L559,84.5 A0,0 0 0 0 559,84.5 " fill="#FEFFDD" style="stroke:#181818;stroke-width:0.5;"/><path d="M850,84.5 L850,94.5 L860,94.5 L850,84.5 " fill="#FEFFDD" style="stroke:#181818;stroke-width:0.5;"/><text fill="#000000" font-family="sans-serif" font-size="13" font-weight="bold" lengthAdjust="spacing" textLength="121" x="565" y="101.5669">HTTP Endpoints:</text><text fill="#000000" font-family="monospace" font-size="13" lengthAdjust="spacing" textLength="216" x="565" y="116.6997">GET&#160;&#160;/inventory/{productId}</text><text fill="#000000" font-family="monospace" font-size="13" lengthAdjust="spacing" textLength="280" x="565" y="131.8325">POST&#160;/inventory/{productId}/reserve</text></g><!--entity payment_service--><g id="elem_payment_service"><rect fill="#FFE4B5" height="36.2969" rx="2.5" ry="2.5" style="stroke:#181818;stroke-width:0.5;" width="134" x="642.5" y="257"/><text fill="#000000" font-family="sans-serif" font-size="14" lengthAdjust="spacing" textLength="114" x="652.5" y="279.9951">payment-service</text></g><g id="elem_GMN12"><path d="M920,255 L920,271 L776.57,275 L920,279 L920,295.2656 A0,0 0 0 0 920,295.2656 L1062,295.2656 A0,0 0 0 0 1062,295.2656 L1062,265 L1052,255 L920,255 A0,0 0 0 0 920,255 " fill="#FEFFDD" style="stroke:#181818;stroke-width:0.5;"/><path d="M1052,255 L1052,265 L1062,265 L1052,255 " fill="#FEFFDD" style="stroke:#181818;stroke-width:0.5;"/><text fill="#000000" font-family="sans-serif" font-size="13" font-weight="bold" lengthAdjust="spacing" textLength="121" x="926" y="272.0669">HTTP Endpoints:</text><text fill="#000000" font-family="monospace" font-size="13" lengthAdjust="spacing" textLength="112" x="926" y="287.1997">POST&#160;/payments</text></g><!--link platform__application__frontend to platform__application__order_service--><g id="link_platform__application__frontend_platform__application__order_service"><path d="M129.01,102 C147.3,102 163.07,102 182.82,102 " fill="none" id="platform__application__frontend-to-platform__application__order_service" style="stroke:#181818;stroke-width:1.0;"/><polygon fill="#181818" points="188.82,102,179.82,98,183.82,102,179.82,106,188.82,102" style="stroke:#181818;stroke-width:1.0;"/></g><!--reverse link platform__application__order_database to platform__application__order_service--><g id="link_platform__application__order_database_platform__application__order_service"><path d="M246,149.2 C246,138 246,130.7 246,120.2 " fill="none" id="platform__application__order_database-backto-platform__application__order_service" style="stroke:#181818;stroke-width:1.0;"/><polygon fill="#181818" points="246,155.2,250,146.2,246,150.2,242,146.2,246,155.2" style="stroke:#181818;stroke-width:1.0;"/></g><!--link platform__application__order_service to payment_service--><g id="link_platform__application__order_service_payment_service"><path d="M295,120.19 C295,164.6 295,275 295,275 C295,275 519.13,275 636.44,275 " fill="none" id="platform__application__order_service-to-payment_service" style="stroke:#181818;stroke-width:1.0;"/><polygon fill="#181818" points="642.44,275,633.44,271,637.44,275,633.44,279,642.44,275" style="stroke:#181818;stroke-width:1.0;"/><text fill="#000000" font-family="sans-serif" font-size="13" lengthAdjust="spacing" textLength="21" x="369.31" y="288.0669">JWT</text></g><!--link platform__application__order_service to platform__application__inventory_service--><g id="link_platform__application__order_service_platform__application__inventory_service"><path d="M302.01,104.5 C320.93,104.5 336.22,104.5 355.95,104.5 " fill="none" id="platform__application__order_service-to-platform__application__inventory_service" style="stroke:#181818;stroke-width:1.0;"/><polygon fill="#181818" points="361.95,104.5,352.95,100.5,356.95,104.5,352.95,108.5,361.95,104.5" style="stroke:#181818;stroke-width:1.0;"/><text fill="#000000" font-family="sans-serif" font-size="13" lengthAdjust="spacing" textLength="21" x="309.98" y="117.5669">JWT</text></g><rect fill="none" height="62.8906" id="_legend" rx="7.5" ry="7.5" style="stroke:#FFFFFF;stroke-width:1.0;" width="159" x="12" y="313.2656"/><text fill="#000000" font-family="sans-serif" font-size="14" lengthAdjust="spacing" textLength="36" x="21" y="333.2607">Color</text><text fill="#000000" font-family="sans-serif" font-size="14" lengthAdjust="spacing" textLength="91" x="65" y="333.2607">Belongs to ...</text><rect fill="#ADD8E6" height="16.2969" style="stroke:none;stroke-width:1.0;" width="44" x="17" y="336.5625"/><text fill="#000000" font-family="sans-serif" font-size="14" lengthAdjust="spacing" textLength="4" x="17" y="349.5576">&#160;</text><text fill="#000000" font-family="sans-serif" font-size="14" lengthAdjust="spacing" textLength="101" x="65" y="349.5576">our application</text><rect fill="#FFE4B5" height="16.2969" style="stroke:none;stroke-width:1.0;" width="44" x="17" y="352.8594"/><text fill="#000000" font-family="sans-serif" font-size="14" lengthAdjust="spacing" textLength="4" x="17" y="365.8545">&#160;</text><text fill="#000000" font-family="sans-serif" font-size="14" lengthAdjust="spacing" textLength="98" x="65" y="365.8545">same platform</text><line style="stroke:#000000;stroke-width:1.0;" x1="17" x2="166" y1="320.2656" y2="320.2656"/><line style="stroke:#000000;stroke-width:1.0;" x1="17" x2="166" y1="336.5625" y2="336.5625"/><line style="stroke:#000000;stroke-width:1.0;" x1="17" x2="166" y1="352.8594" y2="352.8594"/><line style="stroke:#000000;stroke-width:1.0;" x1="17" x2="166" y1="369.1563" y2="369.1563"/><line style="stroke:#000000;stroke-width:1.0;" x1="17" x2="17" y1="320.2656" y2="369.1563"/><line style="stroke:#000000;stroke-width:1.0;" x1="61" x2="61" y1="320.2656" y2="369.1563"/><line style="stroke:#000000;stroke-width:1.0;" x1="166" x2="166" y1="320.2656" y2="369.1563"/></g></svg>