<?xml version="1.0" encoding="us-ascii" standalone="no"?><svg xmlns="http://www.w3.org/2000/svg" xmlns:xlink="http://www.w3.org/1999/xlink" contentStyleType="text/css" height="385px" preserveAspectRatio="none" style="width:1085px;height:385px;background:#FFFFFF;" version="1.1" viewBox="0 0 1085 385" width="1085px" zoomAndPan="magnify"><defs/><g><!--cluster Application--><g id="cluster_Application"><path d="M8.5,6 L96.5,6 A3.75,3.75 0 0 1 99,8.5 L106,28.2969 L1075.5,28.2969 A2.5,2.5 0 0 1 1078,30.7969 L1078,282.5 A2.5,2.5 0 0 1 1075.5,285 L8.5,285 A2.5,2.5 0 0 1 6,282.5 L6,8.5 A2.5,2.5 0 0 1 8.5,6 " fill="none" style="stroke:#000000;stroke-width:1.5;"/><line style="stroke:#000000;stroke-width:1.5;" x1="6" x2="106" y1="28.2969" y2="28.2969"/><text fill="#000000" font-family="sans-serif" font-size="14" font-weight="bold" lengthAdjust="spacing" textLength="87" x="10" y="20.9951">Application</text></g><!--cluster Our Team--><g id="cluster_Our Team"><rect fill="none" height="168" rx="2.5" ry="2.5" style="stroke:#181818;stroke-width:1.0;" width="846" x="30" y="93"/><path d="M117,93 L117,102.2969 L107,112.2969 L30,112.2969 " fill="none" style="stroke:#181818;stroke-width:1.0;"/><text fill="#000000" font-family="sans-serif" font-size="14" font-weight="bold" lengthAdjust="spacing" textLength="77" x="33" y="106.9951">Our Team</text></g><!--entity application__payment_service--><g id="elem_application__payment_service"><rect fill="#FFE4B5" height="36.2969" rx="2.5" ry="2.5" style="stroke:#181818;stroke-width:0.5;" width="134" x="642.5" y="41"/><text fill="#000000" font-family="sans-serif" font-size="14" lengthAdjust="spacing" textLength="114" x="652.5" y="63.9951">Payment Service</text></g><g id="elem_GMN12"><path d="M920,41 L920,55 L776.57,59 L920,63 L920,81.2656 A0,0 0 0 0 920,81.2656 L1062,81.2656 A0,0 0 0 0 1062,81.2656 L1062,51 L1052,41 L920,41 A0,0 0 0 0 920,41 " fill="#FEFFDD" style="stroke:#181818;stroke-width:0.5;"/><path d="M1052,41 L1052,51 L1062,51 L1052,41 " fill="#FEFFDD" style="stroke:#181818;stroke-width:0.5;"/><text fill="#000000" font-family="sans-serif" font-size="13" font-weight="bold" lengthAdjust="spacing" textLength="121" x="926" y="58.0669">HTTP Endpoints:</text><text fill="#000000" font-family="monospace" font-size="13" lengthAdjust="spacing" textLength="112" x="926" y="73.1997">POST&#160;/payments</text></g><!--entity application__team__frontend--><g id="elem_application__team__frontend"><rect fill="#D3D3D3" height="36.2969" rx="2.5" ry="2.5" style="stroke:#181818;stroke-width:0.5;" width="83" x="46" y="128"/><text fill="#000000" font-family="sans-serif" font-size="14" lengthAdjust="spacing" textLength="63" x="56" y="150.9951">Frontend</text></g><!--entity application__team__order_service--><g id="elem_application__team__order_service"><rect fill="#87CEEB" height="36.2969" rx="2.5" ry="2.5" style="stroke:#181818;stroke-width:2.0;" width="113" x="189" y="128"/><text fill="#000000" font-family="sans-serif" font-size="14" lengthAdjust="spacing" textLength="93" x="199" y="150.9951">Order Service</text></g><!--entity application__team__order_database--><g id="elem_application__team__order_database"><path d="M203.5,209.5 C203.5,199.5 245.5,199.5 245.5,199.5 C245.5,199.5 287.5,199.5 287.5,209.5 L287.5,234.7969 C287.5,244.7969 245.5,244.7969 245.5,244.7969 C245.5,244.7969 203.5,244.7969 203.5,234.7969 L203.5,209.5 " fill="#F1F1F1" style="stroke:#181818;stroke-width:0.5;"/><path d="M203.5,209.5 C203.5,219.5 245.5,219.5 245.5,219.5 C245.5,219.5 287.5,219.5 287.5,209.5 " fill="none" style="stroke:#181818;stroke-width:0.5;"/><text fill="#000000" font-family="sans-serif" font-size="14" lengthAdjust="spacing" textLength="64" x="213.5" y="236.4951">database</text></g><!--entity application__team__inventory_service--><g id="elem_application__team__inventory_service"><rect fill="#ADD8E6" height="36.2969" rx="2.5" ry="2.5" style="stroke:#181818;stroke-width:0.5;" width="137" x="362" y="133"/><text fill="#000000" font-family="sans-serif" font-size="14" lengthAdjust="spacing" textLength="117" x="372" y="155.9951">Inventory Service</text></g><g id="elem_GMN8"><path d="M559,128.5 L559,147 L499.11,151 L559,155 L559,183.8984 A0,0 0 0 0 559,183.8984 L860,183.8984 A0,0 0 0 0 860,183.8984 L860,138.5 L850,128.5 L559,128.5 A0,0 0 0 0 559,128.5 " fill="#FEFFDD" style="stroke:#181818;stroke-width:0.5;"/><path d="M850,128.5 L850,138.5 L860,138.5 L850,128.5 " fill="#FEFFDD" style="stroke:#181818;stroke-width:0.5;"/><text fill="#000000" font-family="sans-serif" font-size="13" font-weight="bold" lengthAdjust="spacing" textLength="121" x="565" y="145.5669">HTTP Endpoints:</text><text fill="#000000" font-family="monospace" font-size="13" lengthAdjust="spacing" textLength="216" x="565" y="160.6997">GET&#160;&#160;/inventory/{productId}</text><text fill="#000000" font-family="monospace" font-size="13" lengthAdjust="spacing" textLength="280" x="565" y="175.8325">POST&#160;/inventory/{productId}/reserve</text></g><!--link application__team__frontend to application__team__order_service--><g id="link_application__team__frontend_application__team__order_service"><path d="M129.01,146 C147.3,146 163.07,146 182.82,146 " fill="none" id="application__team__frontend-to-application__team__order_service" style="stroke:#181818;stroke-width:1.0;"/><polygon fill="#181818" points="188.82,146,179.82,142,183.82,146,179.82,150,188.82,146" style="stroke:#181818;stroke-width:1.0;"/></g><!--reverse link application__team__order_database to application__team__order_service--><g id="link_application__team__order_database_application__team__order_service"><path d="M246,193.2 C246,182 246,174.7 246,164.2 " fill="none" id="application__team__order_database-backto-application__team__order_service" style="stroke:#181818;stroke-width:1.0;"/><polygon fill="#181818" points="246,199.2,250,190.2,246,194.2,242,190.2,246,199.2" style="stroke:#181818;stroke-width:1.0;"/></g><!--link application__team__order_service to application__team__inventory_service--><g id="link_application__team__order_service_application__team__inventory_service"><path d="M302.01,148.5 C320.93,148.5 336.22,148.5 355.95,148.5 " fill="none" id="application__team__order_service-to-application__team__inventory_service" style="stroke:#181818;stroke-width:1.0;"/><polygon fill="#181818" points="361.95,148.5,352.95,144.5,356.95,148.5,352.95,152.5,361.95,148.5" style="stroke:#181818;stroke-width:1.0;"/><text fill="#000000" font-family="sans-serif" font-size="13" lengthAdjust="spacing" textLength="21" x="309.98" y="161.5669">JWT</text></g><!--link application__team__order_service to application__payment_service--><g id="link_application__team__order_service_application__payment_service"><path d="M246,127.97 C246,102.49 246,59 246,59 C246,59 507.55,59 636.1,59 " fill="none" id="application__team__order_service-to-application__payment_service" style="stroke:#181818;stroke-width:1.0;"/><polygon fill="#181818" points="642.1,59,633.1,55,637.1,59,633.1,63,642.1,59" style="stroke:#181818;stroke-width:1.0;"/><text fill="#000000" font-family="sans-serif" font-size="13" lengthAdjust="spacing" textLength="21" x="387.56" y="72.0669">JWT</text></g><rect fill="none" height="62.8906" id="_legend" rx="7.5" ry="7.5" style="stroke:#FFFFFF;stroke-width:1.0;" width="174" x="12" y="303"/><text fill="#000000" font-family="sans-serif" font-size="14" lengthAdjust="spacing" textLength="36" x="21" y="322.9951">Color</text><text fill="#000000" font-family="sans-serif" font-size="14" lengthAdjust="spacing" textLength="91" x="65" y="322.9951">Belongs to ...</text><rect fill="#ADD8E6" height="16.2969" style="stroke:none;stroke-width:1.0;" width="44" x="17" y="326.2969"/><text fill="#000000" font-family="sans-serif" font-size="14" lengthAdjust="spacing" textLength="4" x="17" y="339.292">&#160;</text><text fill="#000000" font-family="sans-serif" font-size="14" lengthAdjust="spacing" textLength="115" x="65" y="339.292">our components</text><rect fill="#FFE4B5" height="16.2969" style="stroke:none;stroke-width:1.0;" width="44" x="17" y="342.5938"/><text fill="#000000" font-family="sans-serif" font-size="14" lengthAdjust="spacing" textLength="4" x="17" y="355.5889">&#160;</text><text fill="#000000" font-family="sans-serif" font-size="14" lengthAdjust="spacing" textLength="116" x="65" y="355.5889">same application</text><line style="stroke:#000000;stroke-width:1.0;" x1="17" x2="181" y1="310" y2="310"/><line style="stroke:#000000;stroke-width:1.0;" x1="17" x2="181" y1="326.2969" y2="326.2969"/><line style="stroke:#000000;stroke-width:1.0;" x1="17" x2="181" y1="342.5938" y2="342.5938"/><line style="stroke:#000000;stroke-width:1.0;" x1="17" x2="181" y1="358.8906" y2="358.8906"/><line style="stroke:#000000;stroke-width:1.0;" x1="17" x2="17" y1="310" y2="358.8906"/><line style="stroke:#000000;stroke-width:1.0;" x1="61" x2="61" y1="310" y2="358.8906"/><line style="stroke:#000000;stroke-width:1.0;" x1="181" x2="181" y1="310" y2="358.8906"/></g></svg>