<?xml version="1.0" encoding="us-ascii" standalone="no"?><svg xmlns="http://www.w3.org/2000/svg" xmlns:xlink="http://www.w3.org/1999/xlink" contentStyleType="text/css" height="770px" preserveAspectRatio="none" style="width:2170px;height:770px;background:#FFFFFF;" version="1.1" viewBox="0 0 2170 770" width="2170px" zoomAndPan="magnify"><defs/><g><!--cluster Platform--><g id="cluster_Platform"><path d="M17,12 L151,12 A7.5,7.5 0 0 1 156,17 L170,56.5938 L2151,56.5938 A5,5 0 0 1 2156,61.5938 L2156,565 A5,5 0 0 1 2151,570 L17,570 A5,5 0 0 1 12,565 L12,17 A5,5 0 0 1 17,12 " fill="none" style="stroke:#000000;stroke-width:3.0;"/><line style="stroke:#000000;stroke-width:3.0;" x1="12" x2="170" y1="56.5938" y2="56.5938"/><text fill="#000000" font-family="sans-serif" font-size="28" font-weight="bold" lengthAdjust="spacing" textLength="132" x="20" y="41.9902">Platform</text></g><!--cluster Application--><g id="cluster_Application"><rect fill="none" height="336" rx="5" ry="5" style="stroke:#181818;stroke-width:2.0;" width="1692" x="60" y="186"/><path d="M254,186 L254,204.5938 L234,224.5938 L60,224.5938 " fill="none" style="stroke:#181818;stroke-width:2.0;"/><text fill="#000000" font-family="sans-serif" font-size="28" font-weight="bold" lengthAdjust="spacing" textLength="174" x="66" y="213.9902">Application</text></g><!--entity platform__payment_service--><g id="elem_platform__payment_service"><rect fill="#FFE4B5" height="72.5938" rx="5" ry="5" style="stroke:#181818;stroke-width:1.0;" width="268" x="1285" y="82"/><text fill="#000000" font-family="sans-serif" font-size="28" lengthAdjust="spacing" textLength="228" x="1305" y="127.9902">Payment Service</text></g><g id="elem_GMN12"><path d="M1840,82 L1840,110 L1553.14,118 L1840,126 L1840,162.5313 A0,0 0 0 0 1840,162.5313 L2124,162.5313 A0,0 0 0 0 2124,162.5313 L2124,102 L2104,82 L1840,82 A0,0 0 0 0 1840,82 " fill="#FEFFDD" style="stroke:#181818;stroke-width:1.0;"/><path d="M2104,82 L2104,102 L2124,102 L2104,82 " fill="#FEFFDD" style="stroke:#181818;stroke-width:1.0;"/><text fill="#000000" font-family="sans-serif" font-size="26" font-weight="bold" lengthAdjust="spacing" textLength="242" x="1852" y="116.1338">HTTP Endpoints:</text><text fill="#000000" font-family="monospace" font-size="26" lengthAdjust="spacing" textLength="224" x="1852" y="146.3994">POST&#160;/payments</text></g><!--entity platform__application__frontend--><g id="elem_platform__application__frontend"><rect fill="#D3D3D3" height="72.5938" rx="5" ry="5" style="stroke:#181818;stroke-width:1.0;" width="166" x="92" y="256"/><text fill="#000000" font-family="sans-serif" font-size="28" lengthAdjust="spacing" textLength="126" x="112" y="301.9902">Frontend</text></g><!--entity platform__application__order_service--><g id="elem_platform__application__order_service"><rect fill="#87CEEB" height="72.5938" rx="5" ry="5" style="stroke:#181818;stroke-width:4.0;" width="226" x="378" y="256"/><text fill="#000000" font-family="sans-serif" font-size="28" lengthAdjust="spacing" textLength="186" x="398" y="301.9902">Order Service</text></g><!--entity platform__application__order_database--><g id="elem_platform__application__order_database"><path d="M407,419 C407,399 491,399 491,399 C491,399 575,399 575,419 L575,469.5938 C575,489.5938 491,489.5938 491,489.5938 C491,489.5938 407,489.5938 407,469.5938 L407,419 " fill="#F1F1F1" style="stroke:#181818;stroke-width:1.0;"/><path d="M407,419 C407,439 491,439 491,439 C491,439 575,439 575,419 " fill="none" style="stroke:#181818;stroke-width:1.0;"/><text fill="#000000" font-family="sans-serif" font-size="28" lengthAdjust="spacing" textLength="128" x="427" y="472.9902">database</text></g><!--entity platform__application__inventory_service--><g id="elem_platform__application__inventory_service"><rect fill="#ADD8E6" height="72.5938" rx="5" ry="5" style="stroke:#181818;stroke-width:1.0;" width="274" x="724" y="266"/><text fill="#000000" font-family="sans-serif" font-size="28" lengthAdjust="spacing" textLength="234" x="744" y="311.9902">Inventory Service</text></g><g id="elem_GMN8"><path d="M1118,257 L1118,294 L998.22,302 L1118,310 L1118,367.7969 A0,0 0 0 0 1118,367.7969 L1720,367.7969 A0,0 0 0 0 1720,367.7969 L1720,277 L1700,257 L1118,257 A0,0 0 0 0 1118,257 " fill="#FEFFDD" style="stroke:#181818;stroke-width:1.0;"/><path d="M1700,257 L1700,277 L1720,277 L1700,257 " fill="#FEFFDD" style="stroke:#181818;stroke-width:1.0;"/><text fill="#000000" font-family="sans-serif" font-size="26" font-weight="bold" lengthAdjust="spacing" textLength="242" x="1130" y="291.1338">HTTP Endpoints:</text><text fill="#000000" font-family="monospace" font-size="26" lengthAdjust="spacing" textLength="432" x="1130" y="321.3994">GET&#160;&#160;/inventory/{productId}</text><text fill="#000000" font-family="monospace" font-size="26" lengthAdjust="spacing" textLength="560" x="1130" y="351.665">POST&#160;/inventory/{productId}/reserve</text></g><!--link platform__application__frontend to platform__application__order_service--><g id="link_platform__application__frontend_platform__application__order_service"><path d="M258.02,292 C294.6,292 326.14,292 365.64,292 " fill="none" id="platform__application__frontend-to-platform__application__order_service" style="stroke:#181818;stroke-width:2.0;"/><polygon fill="#181818" points="377.64,292,359.64,284,367.64,292,359.64,300,377.64,292" style="stroke:#181818;stroke-width:2.0;"/></g><!--reverse link platform__application__order_database to platform__application__order_service--><g id="link_platform__application__order_database_platform__application__order_service"><path d="M492,386.4 C492,364 492,349.4 492,328.4 " fill="none" id="platform__application__order_database-backto-platform__application__order_service" style="stroke:#181818;stroke-width:2.0;"/><polygon fill="#181818" points="492,398.4,500,380.4,492,388.4,484,380.4,492,398.4" style="stroke:#181818;stroke-width:2.0;"/></g><!--link platform__application__order_service to platform__application__inventory_service--><g id="link_platform__application__order_service_platform__application__inventory_service"><path d="M604.02,297 C641.86,297 672.44,297 711.9,297 " fill="none" id="platform__application__order_service-to-platform__application__inventory_service" style="stroke:#181818;stroke-width:2.0;"/><polygon fill="#181818" points="723.9,297,705.9,289,713.9,297,705.9,305,723.9,297" style="stroke:#181818;stroke-width:2.0;"/><text fill="#000000" font-family="sans-serif" font-size="26" lengthAdjust="spacing" textLength="42" x="619.96" y="323.1338">JWT</text></g><!--link platform__application__order_service to platform__payment_service--><g id="link_platform__application__order_service_platform__payment_service"><path d="M492,255.94 C492,204.98 492,118 492,118 C492,118 1015.1,118 1272.2,118 " fill="none" id="platform__application__order_service-to-platform__payment_service" style="stroke:#181818;stroke-width:2.0;"/><polygon fill="#181818" points="1284.2,118,1266.2,110,1274.2,118,1266.2,126,1284.2,118" style="stroke:#181818;stroke-width:2.0;"/><text fill="#000000" font-family="sans-serif" font-size="26" lengthAdjust="spacing" textLength="42" x="775.12" y="144.1338">JWT</text></g><rect fill="none" height="125.7813" id="_legend" rx="15" ry="15" style="stroke:#FFFFFF;stroke-width:2.0;" width="348" x="24" y="606"/><text fill="#000000" font-family="sans-serif" font-size="28" lengthAdjust="spacing" textLength="72" x="42" y="645.9902">Color</text><text fill="#000000" font-family="sans-serif" font-size="28" lengthAdjust="spacing" textLength="182" x="130" y="645.9902">Belongs to ...</text><rect fill="#ADD8E6" height="32.5938" style="stroke:none;stroke-width:2.0;" width="88" x="34" y="652.5938"/><text fill="#000000" font-family="sans-serif" font-size="28" lengthAdjust="spacing" textLength="8" x="34" y="678.584">&#160;</text><text fill="#000000" font-family="sans-serif" font-size="28" lengthAdjust="spacing" textLength="230" x="130" y="678.584">our components</text><rect fill="#FFE4B5" height="32.5938" style="stroke:none;stroke-width:2.0;" width="88" x="34" y="685.1875"/><text fill="#000000" font-family="sans-serif" font-size="28" lengthAdjust="spacing" textLength="8" x="34" y="711.1777">&#160;</text><text fill="#000000" font-family="sans-serif" font-size="28" lengthAdjust="spacing" textLength="232" x="130" y="711.1777">same application</text><line style="stroke:#000000;stroke-width:2.0;" x1="34" x2="362" y1="620" y2="620"/><line style="stroke:#000000;stroke-width:2.0;" x1="34" x2="362" y1="652.5938" y2="652.5938"/><line style="stroke:#000000;stroke-width:2.0;" x1="34" x2="362" y1="685.1875" y2="685.1875"/><line style="stroke:#000000;stroke-width:2.0;" x1="34" x2="362" y1="717.7813" y2="717.7813"/><line style="stroke:#000000;stroke-width:2.0;" x1="34" x2="34" y1="620" y2="717.7813"/><line style="stroke:#000000;stroke-width:2.0;" x1="122" x2="122" y1="620" y2="717.7813"/><line style="stroke:#000000;stroke-width:2.0;" x1="362" x2="362" y1="620" y2="717.7813"/></g></svg>