<?xml version="1.0" encoding="us-ascii" standalone="no"?><svg xmlns="http://www.w3.org/2000/svg" xmlns:xlink="http://www.w3.org/1999/xlink" contentStyleType="text/css" height="257px" preserveAspectRatio="none" style="width:536px;height:257px;background:#FFFFFF;" version="1.1" viewBox="0 0 536 257" width="536px" zoomAndPan="magnify"><defs/><g><!--entity platform__application__frontend--><g id="elem_platform__application__frontend"><rect fill="#D3D3D3" height="36.2969" rx="2.5" ry="2.5" style="stroke:#181818;stroke-width:0.5;" width="83" x="7" y="86.5"/><text fill="#000000" font-family="sans-serif" font-size="14" lengthAdjust="spacing" textLength="63" x="17" y="109.4951">Frontend</text></g><!--entity platform__application__backend_service_1--><g id="elem_platform__application__backend_service_1"><rect fill="#87CEEB" height="36.2969" rx="2.5" ry="2.5" style="stroke:#181818;stroke-width:2.0;" width="160" x="150" y="86.5"/><text fill="#000000" font-family="sans-serif" font-size="14" lengthAdjust="spacing" textLength="140" x="160" y="109.4951">Backend Service #1</text></g><!--entity platform__application__backend_service_2--><g id="elem_platform__application__backend_service_2"><rect fill="#ADD8E6" height="36.2969" rx="2.5" ry="2.5" style="stroke:#181818;stroke-width:0.5;" width="160" x="370" y="50.5"/><text fill="#000000" font-family="sans-serif" font-size="14" lengthAdjust="spacing" textLength="140" x="380" y="73.4951">Backend Service #2</text></g><!--entity platform__application__backend_service_1_database--><g id="elem_platform__application__backend_service_1_database"><path d="M188,16 C188,6 230,6 230,6 C230,6 272,6 272,16 L272,41.2969 C272,51.2969 230,51.2969 230,51.2969 C230,51.2969 188,51.2969 188,41.2969 L188,16 " fill="#F1F1F1" style="stroke:#181818;stroke-width:0.5;"/><path d="M188,16 C188,26 230,26 230,26 C230,26 272,26 272,16 " fill="none" style="stroke:#181818;stroke-width:0.5;"/><text fill="#000000" font-family="sans-serif" font-size="14" lengthAdjust="spacing" textLength="64" x="198" y="42.9951">database</text></g><!--entity platform__external_service_1--><g id="elem_platform__external_service_1"><rect fill="#FFE4B5" height="36.2969" rx="2.5" ry="2.5" style="stroke:#181818;stroke-width:0.5;" width="154" x="373" y="121.5"/><text fill="#000000" font-family="sans-serif" font-size="14" lengthAdjust="spacing" textLength="134" x="383" y="144.4951">External Service #1</text></g><!--link platform__application__frontend to platform__application__backend_service_1--><g id="link_platform__application__frontend_platform__application__backend_service_1"><path d="M90.14,104.5 C107.93,104.5 123.33,104.5 143.97,104.5 " fill="none" id="platform__application__frontend-to-platform__application__backend_service_1" style="stroke:#181818;stroke-width:1.0;"/><polygon fill="#181818" points="149.97,104.5,140.97,100.5,144.97,104.5,140.97,108.5,149.97,104.5" style="stroke:#181818;stroke-width:1.0;"/></g><!--link platform__application__backend_service_1 to platform__external_service_1--><g id="link_platform__application__backend_service_1_platform__external_service_1"><path d="M310.05,104 C372.95,104 450,104 450,104 C450,104 450,106.6 450,115.33 " fill="none" id="platform__application__backend_service_1-to-platform__external_service_1" style="stroke:#181818;stroke-width:1.0;"/><polygon fill="#181818" points="450,121.33,454,112.33,450,116.33,446,112.33,450,121.33" style="stroke:#181818;stroke-width:1.0;"/></g><!--link platform__application__backend_service_1 to platform__application__backend_service_2--><g id="link_platform__application__backend_service_1_platform__application__backend_service_2"><path d="M291,86.21 C291,77.41 291,68.75 291,68.75 C291,68.75 324.13,68.75 363.57,68.75 " fill="none" id="platform__application__backend_service_1-to-platform__application__backend_service_2" style="stroke:#181818;stroke-width:1.0;"/><polygon fill="#181818" points="369.57,68.75,360.57,64.75,364.57,68.75,360.57,72.75,369.57,68.75" style="stroke:#181818;stroke-width:1.0;"/></g><!--reverse link platform__application__backend_service_1_database to platform__application__backend_service_1--><g id="link_platform__application__backend_service_1_database_platform__application__backend_service_1"><path d="M230,57.3 C230,68.5 230,75.8 230,86.3 " fill="none" id="platform__application__backend_service_1_database-backto-platform__application__backend_service_1" style="stroke:#181818;stroke-width:1.0;"/><polygon fill="#181818" points="230,51.3,226,60.3,230,56.3,234,60.3,230,51.3" style="stroke:#181818;stroke-width:1.0;"/></g><rect fill="none" height="62.8906" id="_legend" rx="7.5" ry="7.5" style="stroke:#FFFFFF;stroke-width:1.0;" width="159" x="12" y="174.7969"/><text fill="#000000" font-family="sans-serif" font-size="14" lengthAdjust="spacing" textLength="36" x="21" y="194.792">Color</text><text fill="#000000" font-family="sans-serif" font-size="14" lengthAdjust="spacing" textLength="91" x="65" y="194.792">Belongs to ...</text><rect fill="#ADD8E6" height="16.2969" style="stroke:none;stroke-width:1.0;" width="44" x="17" y="198.0938"/><text fill="#000000" font-family="sans-serif" font-size="14" lengthAdjust="spacing" textLength="4" x="17" y="211.0889">&#160;</text><text fill="#000000" font-family="sans-serif" font-size="14" lengthAdjust="spacing" textLength="101" x="65" y="211.0889">our application</text><rect fill="#FFE4B5" height="16.2969" style="stroke:none;stroke-width:1.0;" width="44" x="17" y="214.3906"/><text fill="#000000" font-family="sans-serif" font-size="14" lengthAdjust="spacing" textLength="4" x="17" y="227.3857">&#160;</text><text fill="#000000" font-family="sans-serif" font-size="14" lengthAdjust="spacing" textLength="98" x="65" y="227.3857">same platform</text><line style="stroke:#000000;stroke-width:1.0;" x1="17" x2="166" y1="181.7969" y2="181.7969"/><line style="stroke:#000000;stroke-width:1.0;" x1="17" x2="166" y1="198.0938" y2="198.0938"/><line style="stroke:#000000;stroke-width:1.0;" x1="17" x2="166" y1="214.3906" y2="214.3906"/><line style="stroke:#000000;stroke-width:1.0;" x1="17" x2="166" y1="230.6875" y2="230.6875"/><line style="stroke:#000000;stroke-width:1.0;" x1="17" x2="17" y1="181.7969" y2="230.6875"/><line style="stroke:#000000;stroke-width:1.0;" x1="61" x2="61" y1="181.7969" y2="230.6875"/><line style="stroke:#000000;stroke-width:1.0;" x1="166" x2="166" y1="181.7969" y2="230.6875"/></g></svg>