<?xml version="1.0" encoding="us-ascii" standalone="no"?><svg xmlns="http://www.w3.org/2000/svg" xmlns:xlink="http://www.w3.org/1999/xlink" contentStyleType="text/css" height="120px" preserveAspectRatio="none" style="width:607px;height:120px;background:#FFFFFF;" version="1.1" viewBox="0 0 607 120" width="607px" zoomAndPan="magnify"><defs/><g><!--entity backend_service_1--><g id="elem_backend_service_1"><rect fill="#D3D3D3" height="36.2969" rx="2.5" ry="2.5" style="stroke:#181818;stroke-width:0.5;" width="160" x="7" y="43"/><text fill="#000000" font-family="sans-serif" font-size="14" lengthAdjust="spacing" textLength="140" x="17" y="65.9951">Backend Service #1</text></g><!--entity backend_service_2--><g id="elem_backend_service_2"><rect fill="#87CEEB" height="36.2969" rx="2.5" ry="2.5" style="stroke:#181818;stroke-width:2.0;" width="160" x="227" y="43"/><text fill="#000000" font-family="sans-serif" font-size="14" lengthAdjust="spacing" textLength="140" x="237" y="65.9951">Backend Service #2</text></g><!--entity external_service_2--><g id="elem_external_service_2"><rect fill="#FFE4B5" height="36.2969" rx="2.5" ry="2.5" style="stroke:#181818;stroke-width:0.5;" width="154" x="447" y="7"/><text fill="#000000" font-family="sans-serif" font-size="14" lengthAdjust="spacing" textLength="134" x="457" y="29.9951">External Service #2</text></g><!--entity external_service_3--><g id="elem_external_service_3"><rect fill="#F08080" height="36.2969" rx="2.5" ry="2.5" style="stroke:#181818;stroke-width:0.5;" width="154" x="447" y="78"/><text fill="#000000" font-family="sans-serif" font-size="14" lengthAdjust="spacing" textLength="134" x="457" y="100.9951">External Service #3</text></g><!--link backend_service_1 to backend_service_2--><g id="link_backend_service_1_backend_service_2"><path d="M167.05,61 C186.46,61 201.22,61 220.64,61 " fill="none" id="backend_service_1-to-backend_service_2" style="stroke:#181818;stroke-width:1.0;"/><polygon fill="#181818" points="226.64,61,217.64,57,221.64,61,217.64,65,226.64,61" style="stroke:#181818;stroke-width:1.0;"/></g><!--link backend_service_2 to external_service_2--><g id="link_backend_service_2_external_service_2"><path d="M387.24,54.67 C458.02,54.67 550,54.67 550,54.67 C550,54.67 550,55.39 550,49.28 " fill="none" id="backend_service_2-to-external_service_2" style="stroke:#181818;stroke-width:1.0;"/><polygon fill="#181818" points="550,43.28,546,52.28,550,48.28,554,52.28,550,43.28" style="stroke:#181818;stroke-width:1.0;"/></g><!--link backend_service_2 to external_service_3--><g id="link_backend_service_2_external_service_3"><path d="M387.03,66.33 C439.72,66.33 499,66.33 499,66.33 C499,66.33 499,65.61 499,71.72 " fill="none" id="backend_service_2-to-external_service_3" style="stroke:#181818;stroke-width:1.0;"/><polygon fill="#181818" points="499,77.72,503,68.72,499,72.72,495,68.72,499,77.72" style="stroke:#181818;stroke-width:1.0;"/></g></g></svg>