<?xml version="1.0" encoding="us-ascii" standalone="no"?><svg xmlns="http://www.w3.org/2000/svg" xmlns:xlink="http://www.w3.org/1999/xlink" contentStyleType="text/css" height="163px" preserveAspectRatio="none" style="width:536px;height:163px;background:#FFFFFF;" version="1.1" viewBox="0 0 536 163" width="536px" zoomAndPan="magnify"><defs/><g><!--entity frontend--><g id="elem_frontend"><rect fill="#D3D3D3" height="36.2969" rx="2.5" ry="2.5" style="stroke:#181818;stroke-width:0.5;" width="83" x="7" y="86.5"/><text fill="#000000" font-family="sans-serif" font-size="14" lengthAdjust="spacing" textLength="63" x="17" y="109.4951">Frontend</text></g><!--entity backend_service_1--><g id="elem_backend_service_1"><rect fill="#87CEEB" height="36.2969" rx="2.5" ry="2.5" style="stroke:#181818;stroke-width:2.0;" width="160" x="150" y="86.5"/><text fill="#000000" font-family="sans-serif" font-size="14" lengthAdjust="spacing" textLength="140" x="160" y="109.4951">Backend Service #1</text></g><!--entity external_service_1--><g id="elem_external_service_1"><rect fill="#FFE4B5" height="36.2969" rx="2.5" ry="2.5" style="stroke:#181818;stroke-width:0.5;" width="154" x="373" y="50.5"/><text fill="#000000" font-family="sans-serif" font-size="14" lengthAdjust="spacing" textLength="134" x="383" y="73.4951">External Service #1</text></g><!--entity backend_service_2--><g id="elem_backend_service_2"><rect fill="#ADD8E6" height="36.2969" rx="2.5" ry="2.5" style="stroke:#181818;stroke-width:0.5;" width="160" x="370" y="121.5"/><text fill="#000000" font-family="sans-serif" font-size="14" lengthAdjust="spacing" textLength="140" x="380" y="144.4951">Backend Service #2</text></g><!--entity backend_service_1_database--><g id="elem_backend_service_1_database"><path d="M188,16 C188,6 230,6 230,6 C230,6 272,6 272,16 L272,41.2969 C272,51.2969 230,51.2969 230,51.2969 C230,51.2969 188,51.2969 188,41.2969 L188,16 " fill="#F1F1F1" style="stroke:#181818;stroke-width:0.5;"/><path d="M188,16 C188,26 230,26 230,26 C230,26 272,26 272,16 " fill="none" style="stroke:#181818;stroke-width:0.5;"/><text fill="#000000" font-family="sans-serif" font-size="14" lengthAdjust="spacing" textLength="64" x="198" y="42.9951">database</text></g><!--link frontend to backend_service_1--><g id="link_frontend_backend_service_1"><path d="M90.14,104.5 C107.93,104.5 123.33,104.5 143.97,104.5 " fill="none" id="frontend-to-backend_service_1" style="stroke:#181818;stroke-width:1.0;"/><polygon fill="#181818" points="149.97,104.5,140.97,100.5,144.97,104.5,140.97,108.5,149.97,104.5" style="stroke:#181818;stroke-width:1.0;"/></g><!--link backend_service_1 to external_service_1--><g id="link_backend_service_1_external_service_1"><path d="M291,86.21 C291,77.41 291,68.75 291,68.75 C291,68.75 326.32,68.75 366.83,68.75 " fill="none" id="backend_service_1-to-external_service_1" style="stroke:#181818;stroke-width:1.0;"/><polygon fill="#181818" points="372.83,68.75,363.83,64.75,367.83,68.75,363.83,72.75,372.83,68.75" style="stroke:#181818;stroke-width:1.0;"/></g><!--link backend_service_1 to backend_service_2--><g id="link_backend_service_1_backend_service_2"><path d="M230,122.67 C230,131.4 230,140 230,140 C230,140 301.05,140 363.95,140 " fill="none" id="backend_service_1-to-backend_service_2" style="stroke:#181818;stroke-width:1.0;"/><polygon fill="#181818" points="369.95,140,360.95,136,364.95,140,360.95,144,369.95,140" style="stroke:#181818;stroke-width:1.0;"/></g><!--reverse link backend_service_1_database to backend_service_1--><g id="link_backend_service_1_database_backend_service_1"><path d="M230,57.3 C230,68.5 230,75.8 230,86.3 " fill="none" id="backend_service_1_database-backto-backend_service_1" style="stroke:#181818;stroke-width:1.0;"/><polygon fill="#181818" points="230,51.3,226,60.3,230,56.3,234,60.3,230,51.3" style="stroke:#181818;stroke-width:1.0;"/></g></g></svg>