<?xml version="1.0" encoding="us-ascii" standalone="no"?><svg xmlns="http://www.w3.org/2000/svg" xmlns:xlink="http://www.w3.org/1999/xlink" contentStyleType="text/css" height="273px" preserveAspectRatio="none" style="width:536px;height:273px;background:#FFFFFF;" version="1.1" viewBox="0 0 536 273" width="536px" zoomAndPan="magnify"><defs/><g><!--entity application__team__order_service--><g id="elem_application__team__order_service"><rect fill="#ADD8E6" height="36.2969" rx="2.5" ry="2.5" style="stroke:#181818;stroke-width:0.5;" width="113" x="7" y="86.5"/><text fill="#000000" font-family="sans-serif" font-size="14" lengthAdjust="spacing" textLength="93" x="17" y="109.4951">Order Service</text></g><!--entity application__team__inventory_service--><g id="elem_application__team__inventory_service"><rect fill="#87CEEB" height="36.2969" rx="2.5" ry="2.5" style="stroke:#181818;stroke-width:2.0;" width="137" x="180" y="86.5"/><text fill="#000000" font-family="sans-serif" font-size="14" lengthAdjust="spacing" textLength="117" x="190" y="109.4951">Inventory Service</text></g><!--entity application__team__inventory_database--><g id="elem_application__team__inventory_database"><path d="M206.5,16 C206.5,6 248.5,6 248.5,6 C248.5,6 290.5,6 290.5,16 L290.5,41.2969 C290.5,51.2969 248.5,51.2969 248.5,51.2969 C248.5,51.2969 206.5,51.2969 206.5,41.2969 L206.5,16 " fill="#F1F1F1" style="stroke:#181818;stroke-width:0.5;"/><path d="M206.5,16 C206.5,26 248.5,26 248.5,26 C248.5,26 290.5,26 290.5,16 " fill="none" style="stroke:#181818;stroke-width:0.5;"/><text fill="#000000" font-family="sans-serif" font-size="14" lengthAdjust="spacing" textLength="64" x="216.5" y="42.9951">database</text></g><!--entity application__notification_service--><g id="elem_application__notification_service"><rect fill="#FFE4B5" height="36.2969" rx="2.5" ry="2.5" style="stroke:#181818;stroke-width:0.5;" width="150" x="378.5" y="50.5"/><text fill="#000000" font-family="sans-serif" font-size="14" lengthAdjust="spacing" textLength="130" x="388.5" y="73.4951">Notification Service</text></g><!--entity third_party__warehouse_service--><g id="elem_third_party__warehouse_service"><rect fill="#F08080" height="36.2969" rx="2.5" ry="2.5" style="stroke:#181818;stroke-width:0.5;" width="153" x="377" y="121.5"/><text fill="#000000" font-family="sans-serif" font-size="14" lengthAdjust="spacing" textLength="133" x="387" y="144.4951">Warehouse Service</text></g><!--link application__team__order_service to application__team__inventory_service--><g id="link_application__team__order_service_application__team__inventory_service"><path d="M120.01,104.5 C138.93,104.5 154.22,104.5 173.95,104.5 " fill="none" id="application__team__order_service-to-application__team__inventory_service" style="stroke:#181818;stroke-width:1.0;"/><polygon fill="#181818" points="179.95,104.5,170.95,100.5,174.95,104.5,170.95,108.5,179.95,104.5" style="stroke:#181818;stroke-width:1.0;"/></g><!--reverse link application__team__inventory_database to application__team__inventory_service--><g id="link_application__team__inventory_database_application__team__inventory_service"><path d="M249,57.3 C249,68.5 249,75.8 249,86.3 " fill="none" id="application__team__inventory_database-backto-application__team__inventory_service" style="stroke:#181818;stroke-width:1.0;"/><polygon fill="#181818" points="249,51.3,245,60.3,249,56.3,253,60.3,249,51.3" style="stroke:#181818;stroke-width:1.0;"/></g><!--link application__team__inventory_service to application__notification_service--><g id="link_application__team__inventory_service_application__notification_service"><path d="M304,86.21 C304,77.41 304,68.75 304,68.75 C304,68.75 335.08,68.75 372.31,68.75 " fill="none" id="application__team__inventory_service-to-application__notification_service" style="stroke:#181818;stroke-width:1.0;"/><polygon fill="#181818" points="378.31,68.75,369.31,64.75,373.31,68.75,369.31,72.75,378.31,68.75" style="stroke:#181818;stroke-width:1.0;"/></g><!--link application__team__inventory_service to third_party__warehouse_service--><g id="link_application__team__inventory_service_third_party__warehouse_service"><path d="M249,122.67 C249,131.4 249,140 249,140 C249,140 312.74,140 370.77,140 " fill="none" id="application__team__inventory_service-to-third_party__warehouse_service" style="stroke:#181818;stroke-width:1.0;"/><polygon fill="#181818" points="376.77,140,367.77,136,371.77,140,367.77,144,376.77,140" style="stroke:#181818;stroke-width:1.0;"/></g><rect fill="none" height="79.1875" id="_legend" rx="7.5" ry="7.5" style="stroke:#FFFFFF;stroke-width:1.0;" width="174" x="12" y="174.7969"/><text fill="#000000" font-family="sans-serif" font-size="14" lengthAdjust="spacing" textLength="36" x="21" y="194.792">Color</text><text fill="#000000" font-family="sans-serif" font-size="14" lengthAdjust="spacing" textLength="91" x="65" y="194.792">Belongs to ...</text><rect fill="#ADD8E6" height="16.2969" style="stroke:none;stroke-width:1.0;" width="44" x="17" y="198.0938"/><text fill="#000000" font-family="sans-serif" font-size="14" lengthAdjust="spacing" textLength="4" x="17" y="211.0889">&#160;</text><text fill="#000000" font-family="sans-serif" font-size="14" lengthAdjust="spacing" textLength="115" x="65" y="211.0889">our components</text><rect fill="#FFE4B5" height="16.2969" style="stroke:none;stroke-width:1.0;" width="44" x="17" y="214.3906"/><text fill="#000000" font-family="sans-serif" font-size="14" lengthAdjust="spacing" textLength="4" x="17" y="227.3857">&#160;</text><text fill="#000000" font-family="sans-serif" font-size="14" lengthAdjust="spacing" textLength="116" x="65" y="227.3857">same application</text><rect fill="#F08080" height="16.2969" style="stroke:none;stroke-width:1.0;" width="44" x="17" y="230.6875"/><text fill="#000000" font-family="sans-serif" font-size="14" lengthAdjust="spacing" textLength="4" x="17" y="243.6826">&#160;</text><text fill="#000000" font-family="sans-serif" font-size="14" lengthAdjust="spacing" textLength="61" x="65" y="243.6826">3rd party</text><line style="stroke:#000000;stroke-width:1.0;" x1="17" x2="181" y1="181.7969" y2="181.7969"/><line style="stroke:#000000;stroke-width:1.0;" x1="17" x2="181" y1="198.0938" y2="198.0938"/><line style="stroke:#000000;stroke-width:1.0;" x1="17" x2="181" y1="214.3906" y2="214.3906"/><line style="stroke:#000000;stroke-width:1.0;" x1="17" x2="181" y1="230.6875" y2="230.6875"/><line style="stroke:#000000;stroke-width:1.0;" x1="17" x2="181" y1="246.9844" y2="246.9844"/><line style="stroke:#000000;stroke-width:1.0;" x1="17" x2="17" y1="181.7969" y2="246.9844"/><line style="stroke:#000000;stroke-width:1.0;" x1="61" x2="61" y1="181.7969" y2="246.9844"/><line style="stroke:#000000;stroke-width:1.0;" x1="181" x2="181" y1="181.7969" y2="246.9844"/></g></svg>