<?xml version="1.0" encoding="us-ascii" standalone="no"?><svg xmlns="http://www.w3.org/2000/svg" xmlns:xlink="http://www.w3.org/1999/xlink" contentStyleType="text/css" height="293px" preserveAspectRatio="none" style="width:479px;height:293px;background:#FFFFFF;" version="1.1" viewBox="0 0 479 293" width="479px" zoomAndPan="magnify"><defs/><g><!--entity application__team__frontend--><g id="elem_application__team__frontend"><rect fill="#ADD8E6" height="36.2969" rx="2.5" ry="2.5" style="stroke:#181818;stroke-width:0.5;" width="83" x="7" y="86.5"/><text fill="#000000" font-family="sans-serif" font-size="14" lengthAdjust="spacing" textLength="63" x="17" y="109.4951">Frontend</text></g><!--entity application__team__order_service--><g id="elem_application__team__order_service"><rect fill="#87CEEB" height="36.2969" rx="2.5" ry="2.5" style="stroke:#181818;stroke-width:2.0;" width="113" x="150" y="86.5"/><text fill="#000000" font-family="sans-serif" font-size="14" lengthAdjust="spacing" textLength="93" x="160" y="109.4951">Order Service</text></g><!--entity application__team__order_database--><g id="elem_application__team__order_database"><path d="M164.5,16 C164.5,6 206.5,6 206.5,6 C206.5,6 248.5,6 248.5,16 L248.5,41.2969 C248.5,51.2969 206.5,51.2969 206.5,51.2969 C206.5,51.2969 164.5,51.2969 164.5,41.2969 L164.5,16 " fill="#F1F1F1" style="stroke:#181818;stroke-width:0.5;"/><path d="M164.5,16 C164.5,26 206.5,26 206.5,26 C206.5,26 248.5,26 248.5,16 " fill="none" style="stroke:#181818;stroke-width:0.5;"/><text fill="#000000" font-family="sans-serif" font-size="14" lengthAdjust="spacing" textLength="64" x="174.5" y="42.9951">database</text></g><!--entity application__team__inventory_service--><g id="elem_application__team__inventory_service"><rect fill="#ADD8E6" height="36.2969" rx="2.5" ry="2.5" style="stroke:#181818;stroke-width:0.5;" width="137" x="329.5" y="15.5"/><text fill="#000000" font-family="sans-serif" font-size="14" lengthAdjust="spacing" textLength="117" x="339.5" y="38.4951">Inventory Service</text></g><!--entity application__notification_service--><g id="elem_application__notification_service"><rect fill="#FFE4B5" height="36.2969" rx="2.5" ry="2.5" style="stroke:#181818;stroke-width:0.5;" width="150" x="323" y="86.5"/><text fill="#000000" font-family="sans-serif" font-size="14" lengthAdjust="spacing" textLength="130" x="333" y="109.4951">Notification Service</text></g><!--entity application__payment_service--><g id="elem_application__payment_service"><rect fill="#FFE4B5" height="36.2969" rx="2.5" ry="2.5" style="stroke:#181818;stroke-width:0.5;" width="134" x="331" y="157.5"/><text fill="#000000" font-family="sans-serif" font-size="14" lengthAdjust="spacing" textLength="114" x="341" y="180.4951">Payment Service</text></g><!--link application__team__frontend to application__team__order_service--><g id="link_application__team__frontend_application__team__order_service"><path d="M90.01,104.5 C108.3,104.5 124.07,104.5 143.82,104.5 " fill="none" id="application__team__frontend-to-application__team__order_service" style="stroke:#181818;stroke-width:1.0;"/><polygon fill="#181818" points="149.82,104.5,140.82,100.5,144.82,104.5,140.82,108.5,149.82,104.5" style="stroke:#181818;stroke-width:1.0;"/></g><!--reverse link application__team__order_database to application__team__order_service--><g id="link_application__team__order_database_application__team__order_service"><path d="M207,57.3 C207,68.5 207,75.8 207,86.3 " fill="none" id="application__team__order_database-backto-application__team__order_service" style="stroke:#181818;stroke-width:1.0;"/><polygon fill="#181818" points="207,51.3,203,60.3,207,56.3,211,60.3,207,51.3" style="stroke:#181818;stroke-width:1.0;"/></g><!--link application__team__order_service to application__notification_service--><g id="link_application__team__order_service_application__notification_service"><path d="M263.18,104.5 C281.93,104.5 297.09,104.5 317,104.5 " fill="none" id="application__team__order_service-to-application__notification_service" style="stroke:#181818;stroke-width:1.0;"/><polygon fill="#181818" points="323,104.5,314,100.5,318,104.5,314,108.5,323,104.5" style="stroke:#181818;stroke-width:1.0;"/></g><!--link application__team__order_service to application__team__inventory_service--><g id="link_application__team__order_service_application__team__inventory_service"><path d="M256,86.15 C256,65.04 256,33.25 256,33.25 C256,33.25 287.18,33.25 323.5,33.25 " fill="none" id="application__team__order_service-to-application__team__inventory_service" style="stroke:#181818;stroke-width:1.0;"/><polygon fill="#181818" points="329.5,33.25,320.5,29.25,324.5,33.25,320.5,37.25,329.5,33.25" style="stroke:#181818;stroke-width:1.0;"/></g><!--link application__team__order_service to application__payment_service--><g id="link_application__team__order_service_application__payment_service"><path d="M207,122.78 C207,143.82 207,175.5 207,175.5 C207,175.5 269.89,175.5 324.93,175.5 " fill="none" id="application__team__order_service-to-application__payment_service" style="stroke:#181818;stroke-width:1.0;"/><polygon fill="#181818" points="330.93,175.5,321.93,171.5,325.93,175.5,321.93,179.5,330.93,175.5" style="stroke:#181818;stroke-width:1.0;"/></g><rect fill="none" height="62.8906" id="_legend" rx="7.5" ry="7.5" style="stroke:#FFFFFF;stroke-width:1.0;" width="174" x="12" y="210.7969"/><text fill="#000000" font-family="sans-serif" font-size="14" lengthAdjust="spacing" textLength="36" x="21" y="230.792">Color</text><text fill="#000000" font-family="sans-serif" font-size="14" lengthAdjust="spacing" textLength="91" x="65" y="230.792">Belongs to ...</text><rect fill="#ADD8E6" height="16.2969" style="stroke:none;stroke-width:1.0;" width="44" x="17" y="234.0938"/><text fill="#000000" font-family="sans-serif" font-size="14" lengthAdjust="spacing" textLength="4" x="17" y="247.0889">&#160;</text><text fill="#000000" font-family="sans-serif" font-size="14" lengthAdjust="spacing" textLength="115" x="65" y="247.0889">our components</text><rect fill="#FFE4B5" height="16.2969" style="stroke:none;stroke-width:1.0;" width="44" x="17" y="250.3906"/><text fill="#000000" font-family="sans-serif" font-size="14" lengthAdjust="spacing" textLength="4" x="17" y="263.3857">&#160;</text><text fill="#000000" font-family="sans-serif" font-size="14" lengthAdjust="spacing" textLength="116" x="65" y="263.3857">same application</text><line style="stroke:#000000;stroke-width:1.0;" x1="17" x2="181" y1="217.7969" y2="217.7969"/><line style="stroke:#000000;stroke-width:1.0;" x1="17" x2="181" y1="234.0938" y2="234.0938"/><line style="stroke:#000000;stroke-width:1.0;" x1="17" x2="181" y1="250.3906" y2="250.3906"/><line style="stroke:#000000;stroke-width:1.0;" x1="17" x2="181" y1="266.6875" y2="266.6875"/><line style="stroke:#000000;stroke-width:1.0;" x1="17" x2="17" y1="217.7969" y2="266.6875"/><line style="stroke:#000000;stroke-width:1.0;" x1="61" x2="61" y1="217.7969" y2="266.6875"/><line style="stroke:#000000;stroke-width:1.0;" x1="181" x2="181" y1="217.7969" y2="266.6875"/></g></svg>