<?xml version="1.0" encoding="us-ascii" standalone="no"?><svg xmlns="http://www.w3.org/2000/svg" xmlns:xlink="http://www.w3.org/1999/xlink" contentStyleType="text/css" height="514px" preserveAspectRatio="none" style="width:932px;height:514px;background:#FFFFFF;" version="1.1" viewBox="0 0 932 514" width="932px" zoomAndPan="magnify"><defs/><g><!--entity platform__application__frontend--><g id="elem_platform__application__frontend"><rect fill="#D3D3D3" height="72.5938" rx="5" ry="5" style="stroke:#181818;stroke-width:1.0;" width="166" x="14" y="173"/><text fill="#000000" font-family="sans-serif" font-size="28" lengthAdjust="spacing" textLength="126" x="34" y="218.9902">Frontend</text></g><!--entity platform__application__order_service--><g id="elem_platform__application__order_service"><rect fill="#87CEEB" height="72.5938" rx="5" ry="5" style="stroke:#181818;stroke-width:4.0;" width="226" x="300" y="173"/><text fill="#000000" font-family="sans-serif" font-size="28" lengthAdjust="spacing" textLength="186" x="320" y="218.9902">Order Service</text></g><!--entity platform__application__order_database--><g id="elem_platform__application__order_database"><path d="M329,32 C329,12 413,12 413,12 C413,12 497,12 497,32 L497,82.5938 C497,102.5938 413,102.5938 413,102.5938 C413,102.5938 329,102.5938 329,82.5938 L329,32 " fill="#F1F1F1" style="stroke:#181818;stroke-width:1.0;"/><path d="M329,32 C329,52 413,52 413,52 C413,52 497,52 497,32 " fill="none" style="stroke:#181818;stroke-width:1.0;"/><text fill="#000000" font-family="sans-serif" font-size="28" lengthAdjust="spacing" textLength="128" x="349" y="85.9902">database</text></g><!--entity platform__application__inventory_service--><g id="elem_platform__application__inventory_service"><rect fill="#ADD8E6" height="72.5938" rx="5" ry="5" style="stroke:#181818;stroke-width:1.0;" width="274" x="646" y="101"/><text fill="#000000" font-family="sans-serif" font-size="28" lengthAdjust="spacing" textLength="234" x="666" y="146.9902">Inventory Service</text></g><!--entity platform__payment_service--><g id="elem_platform__payment_service"><rect fill="#FFE4B5" height="72.5938" rx="5" ry="5" style="stroke:#181818;stroke-width:1.0;" width="268" x="649" y="243"/><text fill="#000000" font-family="sans-serif" font-size="28" lengthAdjust="spacing" textLength="228" x="669" y="288.9902">Payment Service</text></g><!--link platform__application__frontend to platform__application__order_service--><g id="link_platform__application__frontend_platform__application__order_service"><path d="M180.02,209 C216.6,209 248.14,209 287.64,209 " fill="none" id="platform__application__frontend-to-platform__application__order_service" style="stroke:#181818;stroke-width:2.0;"/><polygon fill="#181818" points="299.64,209,281.64,201,289.64,209,281.64,217,299.64,209" style="stroke:#181818;stroke-width:2.0;"/></g><!--reverse link platform__application__order_database to platform__application__order_service--><g id="link_platform__application__order_database_platform__application__order_service"><path d="M414,114.6 C414,137 414,151.6 414,172.6 " fill="none" id="platform__application__order_database-backto-platform__application__order_service" style="stroke:#181818;stroke-width:2.0;"/><polygon fill="#181818" points="414,102.6,406,120.6,414,112.6,422,120.6,414,102.6" style="stroke:#181818;stroke-width:2.0;"/></g><!--link platform__application__order_service to platform__application__inventory_service--><g id="link_platform__application__order_service_platform__application__inventory_service"><path d="M512,172.42 C512,154.82 512,137.5 512,137.5 C512,137.5 566.7,137.5 633.92,137.5 " fill="none" id="platform__application__order_service-to-platform__application__inventory_service" style="stroke:#181818;stroke-width:2.0;"/><polygon fill="#181818" points="645.92,137.5,627.92,129.5,635.92,137.5,627.92,145.5,645.92,137.5" style="stroke:#181818;stroke-width:2.0;"/></g><!--link platform__application__order_service to platform__payment_service--><g id="link_platform__application__order_service_platform__payment_service"><path d="M414,245.34 C414,262.8 414,280 414,280 C414,280 531.24,280 636.74,280 " fill="none" id="platform__application__order_service-to-platform__payment_service" style="stroke:#181818;stroke-width:2.0;"/><polygon fill="#181818" points="648.74,280,630.74,272,638.74,280,630.74,288,648.74,280" style="stroke:#181818;stroke-width:2.0;"/></g><rect fill="none" height="125.7813" id="_legend" rx="15" ry="15" style="stroke:#FFFFFF;stroke-width:2.0;" width="348" x="24" y="349.5938"/><text fill="#000000" font-family="sans-serif" font-size="28" lengthAdjust="spacing" textLength="72" x="42" y="389.584">Color</text><text fill="#000000" font-family="sans-serif" font-size="28" lengthAdjust="spacing" textLength="182" x="130" y="389.584">Belongs to ...</text><rect fill="#ADD8E6" height="32.5938" style="stroke:none;stroke-width:2.0;" width="88" x="34" y="396.1875"/><text fill="#000000" font-family="sans-serif" font-size="28" lengthAdjust="spacing" textLength="8" x="34" y="422.1777">&#160;</text><text fill="#000000" font-family="sans-serif" font-size="28" lengthAdjust="spacing" textLength="230" x="130" y="422.1777">our components</text><rect fill="#FFE4B5" height="32.5938" style="stroke:none;stroke-width:2.0;" width="88" x="34" y="428.7813"/><text fill="#000000" font-family="sans-serif" font-size="28" lengthAdjust="spacing" textLength="8" x="34" y="454.7715">&#160;</text><text fill="#000000" font-family="sans-serif" font-size="28" lengthAdjust="spacing" textLength="232" x="130" y="454.7715">same application</text><line style="stroke:#000000;stroke-width:2.0;" x1="34" x2="362" y1="363.5938" y2="363.5938"/><line style="stroke:#000000;stroke-width:2.0;" x1="34" x2="362" y1="396.1875" y2="396.1875"/><line style="stroke:#000000;stroke-width:2.0;" x1="34" x2="362" y1="428.7813" y2="428.7813"/><line style="stroke:#000000;stroke-width:2.0;" x1="34" x2="362" y1="461.375" y2="461.375"/><line style="stroke:#000000;stroke-width:2.0;" x1="34" x2="34" y1="363.5938" y2="461.375"/><line style="stroke:#000000;stroke-width:2.0;" x1="122" x2="122" y1="363.5938" y2="461.375"/><line style="stroke:#000000;stroke-width:2.0;" x1="362" x2="362" y1="363.5938" y2="461.375"/></g></svg>