<?xml version="1.0" encoding="us-ascii" standalone="no"?><svg xmlns="http://www.w3.org/2000/svg" xmlns:xlink="http://www.w3.org/1999/xlink" contentStyleType="text/css" height="257px" preserveAspectRatio="none" style="width:466px;height:257px;background:#FFFFFF;" version="1.1" viewBox="0 0 466 257" width="466px" zoomAndPan="magnify"><defs/><g><!--entity platform__application__frontend--><g id="elem_platform__application__frontend"><rect fill="#D3D3D3" height="36.2969" rx="2.5" ry="2.5" style="stroke:#181818;stroke-width:0.5;" width="83" x="7" y="86.5"/><text fill="#000000" font-family="sans-serif" font-size="14" lengthAdjust="spacing" textLength="63" x="17" y="109.4951">Frontend</text></g><!--entity platform__application__order_service--><g id="elem_platform__application__order_service"><rect fill="#87CEEB" height="36.2969" rx="2.5" ry="2.5" style="stroke:#181818;stroke-width:2.0;" width="113" x="150" y="86.5"/><text fill="#000000" font-family="sans-serif" font-size="14" lengthAdjust="spacing" textLength="93" x="160" y="109.4951">Order Service</text></g><!--entity platform__application__order_database--><g id="elem_platform__application__order_database"><path d="M164.5,16 C164.5,6 206.5,6 206.5,6 C206.5,6 248.5,6 248.5,16 L248.5,41.2969 C248.5,51.2969 206.5,51.2969 206.5,51.2969 C206.5,51.2969 164.5,51.2969 164.5,41.2969 L164.5,16 " fill="#F1F1F1" style="stroke:#181818;stroke-width:0.5;"/><path d="M164.5,16 C164.5,26 206.5,26 206.5,26 C206.5,26 248.5,26 248.5,16 " fill="none" style="stroke:#181818;stroke-width:0.5;"/><text fill="#000000" font-family="sans-serif" font-size="14" lengthAdjust="spacing" textLength="64" x="174.5" y="42.9951">database</text></g><!--entity platform__application__inventory_service--><g id="elem_platform__application__inventory_service"><rect fill="#ADD8E6" height="36.2969" rx="2.5" ry="2.5" style="stroke:#181818;stroke-width:0.5;" width="137" x="323" y="50.5"/><text fill="#000000" font-family="sans-serif" font-size="14" lengthAdjust="spacing" textLength="117" x="333" y="73.4951">Inventory Service</text></g><!--entity platform__payment_service--><g id="elem_platform__payment_service"><rect fill="#FFE4B5" height="36.2969" rx="2.5" ry="2.5" style="stroke:#181818;stroke-width:0.5;" width="134" x="324.5" y="121.5"/><text fill="#000000" font-family="sans-serif" font-size="14" lengthAdjust="spacing" textLength="114" x="334.5" y="144.4951">Payment Service</text></g><!--link platform__application__frontend to platform__application__order_service--><g id="link_platform__application__frontend_platform__application__order_service"><path d="M90.01,104.5 C108.3,104.5 124.07,104.5 143.82,104.5 " fill="none" id="platform__application__frontend-to-platform__application__order_service" style="stroke:#181818;stroke-width:1.0;"/><polygon fill="#181818" points="149.82,104.5,140.82,100.5,144.82,104.5,140.82,108.5,149.82,104.5" style="stroke:#181818;stroke-width:1.0;"/></g><!--reverse link platform__application__order_database to platform__application__order_service--><g id="link_platform__application__order_database_platform__application__order_service"><path d="M207,57.3 C207,68.5 207,75.8 207,86.3 " fill="none" id="platform__application__order_database-backto-platform__application__order_service" style="stroke:#181818;stroke-width:1.0;"/><polygon fill="#181818" points="207,51.3,203,60.3,207,56.3,211,60.3,207,51.3" style="stroke:#181818;stroke-width:1.0;"/></g><!--link platform__application__order_service to platform__application__inventory_service--><g id="link_platform__application__order_service_platform__application__inventory_service"><path d="M256,86.21 C256,77.41 256,68.75 256,68.75 C256,68.75 283.35,68.75 316.96,68.75 " fill="none" id="platform__application__order_service-to-platform__application__inventory_service" style="stroke:#181818;stroke-width:1.0;"/><polygon fill="#181818" points="322.96,68.75,313.96,64.75,317.96,68.75,313.96,72.75,322.96,68.75" style="stroke:#181818;stroke-width:1.0;"/></g><!--link platform__application__order_service to platform__payment_service--><g id="link_platform__application__order_service_platform__payment_service"><path d="M207,122.67 C207,131.4 207,140 207,140 C207,140 265.62,140 318.37,140 " fill="none" id="platform__application__order_service-to-platform__payment_service" style="stroke:#181818;stroke-width:1.0;"/><polygon fill="#181818" points="324.37,140,315.37,136,319.37,140,315.37,144,324.37,140" style="stroke:#181818;stroke-width:1.0;"/></g><rect fill="none" height="62.8906" id="_legend" rx="7.5" ry="7.5" style="stroke:#FFFFFF;stroke-width:1.0;" width="174" x="12" y="174.7969"/><text fill="#000000" font-family="sans-serif" font-size="14" lengthAdjust="spacing" textLength="36" x="21" y="194.792">Color</text><text fill="#000000" font-family="sans-serif" font-size="14" lengthAdjust="spacing" textLength="91" x="65" y="194.792">Belongs to ...</text><rect fill="#ADD8E6" height="16.2969" style="stroke:none;stroke-width:1.0;" width="44" x="17" y="198.0938"/><text fill="#000000" font-family="sans-serif" font-size="14" lengthAdjust="spacing" textLength="4" x="17" y="211.0889">&#160;</text><text fill="#000000" font-family="sans-serif" font-size="14" lengthAdjust="spacing" textLength="115" x="65" y="211.0889">our components</text><rect fill="#FFE4B5" height="16.2969" style="stroke:none;stroke-width:1.0;" width="44" x="17" y="214.3906"/><text fill="#000000" font-family="sans-serif" font-size="14" lengthAdjust="spacing" textLength="4" x="17" y="227.3857">&#160;</text><text fill="#000000" font-family="sans-serif" font-size="14" lengthAdjust="spacing" textLength="116" x="65" y="227.3857">same application</text><line style="stroke:#000000;stroke-width:1.0;" x1="17" x2="181" y1="181.7969" y2="181.7969"/><line style="stroke:#000000;stroke-width:1.0;" x1="17" x2="181" y1="198.0938" y2="198.0938"/><line style="stroke:#000000;stroke-width:1.0;" x1="17" x2="181" y1="214.3906" y2="214.3906"/><line style="stroke:#000000;stroke-width:1.0;" x1="17" x2="181" y1="230.6875" y2="230.6875"/><line style="stroke:#000000;stroke-width:1.0;" x1="17" x2="17" y1="181.7969" y2="230.6875"/><line style="stroke:#000000;stroke-width:1.0;" x1="61" x2="61" y1="181.7969" y2="230.6875"/><line style="stroke:#000000;stroke-width:1.0;" x1="181" x2="181" y1="181.7969" y2="230.6875"/></g></svg>