<?xml version="1.0" encoding="us-ascii" standalone="no"?><svg xmlns="http://www.w3.org/2000/svg" xmlns:xlink="http://www.w3.org/1999/xlink" contentStyleType="text/css" height="337px" preserveAspectRatio="none" style="width:425px;height:337px;background:#FFFFFF;" version="1.1" viewBox="0 0 425 337" width="425px" zoomAndPan="magnify"><defs/><g><!--entity platform__application__backend_service_1--><g id="elem_platform__application__backend_service_1"><rect fill="#ADD8E6" height="36.2969" rx="2.5" ry="2.5" style="stroke:#181818;stroke-width:0.5;" width="160" x="199" y="103"/><text fill="#000000" font-family="sans-serif" font-size="14" lengthAdjust="spacing" textLength="140" x="209" y="125.9951">Backend Service #1</text></g><!--entity platform__application__frontend--><g id="elem_platform__application__frontend"><rect fill="#ADD8E6" height="36.2969" rx="2.5" ry="2.5" style="stroke:#181818;stroke-width:0.5;" width="83" x="237.5" y="7"/><text fill="#000000" font-family="sans-serif" font-size="14" lengthAdjust="spacing" textLength="63" x="247.5" y="29.9951">Frontend</text></g><!--entity platform__application__backend_service_2--><g id="elem_platform__application__backend_service_2"><rect fill="#ADD8E6" height="36.2969" rx="2.5" ry="2.5" style="stroke:#181818;stroke-width:0.5;" width="160" x="7" y="199"/><text fill="#000000" font-family="sans-serif" font-size="14" lengthAdjust="spacing" textLength="140" x="17" y="221.9951">Backend Service #2</text></g><!--entity platform__external_service_1--><g id="elem_platform__external_service_1"><rect fill="#FFE4B5" height="36.2969" rx="2.5" ry="2.5" style="stroke:#181818;stroke-width:0.5;" width="154" x="202" y="199"/><text fill="#000000" font-family="sans-serif" font-size="14" lengthAdjust="spacing" textLength="134" x="212" y="221.9951">External Service #1</text></g><!--entity other_project__external_service_3--><g id="elem_other_project__external_service_3"><rect fill="#F08080" height="36.2969" rx="2.5" ry="2.5" style="stroke:#181818;stroke-width:0.5;" width="154" x="265" y="295"/><text fill="#000000" font-family="sans-serif" font-size="14" lengthAdjust="spacing" textLength="134" x="275" y="317.9951">External Service #3</text></g><!--entity platform__external_service_2--><g id="elem_platform__external_service_2"><rect fill="#FFE4B5" height="36.2969" rx="2.5" ry="2.5" style="stroke:#181818;stroke-width:0.5;" width="154" x="10" y="295"/><text fill="#000000" font-family="sans-serif" font-size="14" lengthAdjust="spacing" textLength="134" x="20" y="317.9951">External Service #2</text></g><!--link platform__application__backend_service_1 to platform__application__backend_service_2--><g id="link_platform__application__backend_service_1_platform__application__backend_service_2"><path d="M244.23,139.02 C209.54,156.01 161.9387,179.3115 127.2187,196.3115 " fill="none" id="platform__application__backend_service_1-to-platform__application__backend_service_2" style="stroke:#181818;stroke-width:1.0;"/><polygon fill="#181818" points="121.83,198.95,131.6721,198.5848,126.3206,196.7513,128.1541,191.3998,121.83,198.95" style="stroke:#181818;stroke-width:1.0;"/></g><!--link platform__application__backend_service_1 to platform__external_service_1--><g id="link_platform__application__backend_service_1_platform__external_service_1"><path d="M279,139.24 C279,156.2 279,175.95 279,192.87 " fill="none" id="platform__application__backend_service_1-to-platform__external_service_1" style="stroke:#181818;stroke-width:1.0;"/><polygon fill="#181818" points="279,198.87,283,189.87,279,193.87,275,189.87,279,198.87" style="stroke:#181818;stroke-width:1.0;"/></g><!--link platform__application__backend_service_1 to other_project__external_service_3--><g id="link_platform__application__backend_service_1_other_project__external_service_3"><path d="M312.91,139.14 C334.77,152.24 361.39,172.55 374,199 C389.35,231.21 372.0009,267.1406 357.4309,289.8406 " fill="none" id="platform__application__backend_service_1-to-other_project__external_service_3" style="stroke:#181818;stroke-width:1.0;"/><polygon fill="#181818" points="354.19,294.89,362.4177,289.4766,356.8908,290.6822,355.6852,285.1553,354.19,294.89" style="stroke:#181818;stroke-width:1.0;"/></g><!--link platform__application__frontend to platform__application__backend_service_1--><g id="link_platform__application__frontend_platform__application__backend_service_1"><path d="M279,43.24 C279,60.2 279,79.95 279,96.87 " fill="none" id="platform__application__frontend-to-platform__application__backend_service_1" style="stroke:#181818;stroke-width:1.0;"/><polygon fill="#181818" points="279,102.87,283,93.87,279,97.87,275,93.87,279,102.87" style="stroke:#181818;stroke-width:1.0;"/></g><!--link platform__application__backend_service_2 to platform__external_service_2--><g id="link_platform__application__backend_service_2_platform__external_service_2"><path d="M87,235.24 C87,252.2 87,271.95 87,288.87 " fill="none" id="platform__application__backend_service_2-to-platform__external_service_2" style="stroke:#181818;stroke-width:1.0;"/><polygon fill="#181818" points="87,294.87,91,285.87,87,289.87,83,285.87,87,294.87" style="stroke:#181818;stroke-width:1.0;"/></g><!--link platform__application__backend_service_2 to other_project__external_service_3--><g id="link_platform__application__backend_service_2_other_project__external_service_3"><path d="M133.18,235.02 C179.25,252.01 244.0006,275.8741 290.1006,292.8741 " fill="none" id="platform__application__backend_service_2-to-other_project__external_service_3" style="stroke:#181818;stroke-width:1.0;"/><polygon fill="#181818" points="295.73,294.95,288.6698,288.0832,291.0388,293.2201,285.9019,295.5891,295.73,294.95" style="stroke:#181818;stroke-width:1.0;"/></g></g></svg>