<?xml version="1.0" encoding="us-ascii" standalone="no"?><svg xmlns="http://www.w3.org/2000/svg" xmlns:xlink="http://www.w3.org/1999/xlink" contentStyleType="text/css" height="155px" preserveAspectRatio="none" style="width:711px;height:155px;background:#FFFFFF;" version="1.1" viewBox="0 0 711 155" width="711px" zoomAndPan="magnify"><defs/><g><!--entity backend_service_1--><g id="elem_backend_service_1"><rect fill="#ADD8E6" height="36.2969" rx="2.5" ry="2.5" style="stroke:#181818;stroke-width:0.5;" width="148" x="146" y="78"/><text fill="#000000" font-family="sans-serif" font-size="14" lengthAdjust="spacing" textLength="128" x="156" y="100.9951">backend-service-1</text></g><!--entity frontend--><g id="elem_frontend"><rect fill="#ADD8E6" height="36.2969" rx="2.5" ry="2.5" style="stroke:#181818;stroke-width:0.5;" width="79" x="7" y="78"/><text fill="#000000" font-family="sans-serif" font-size="14" lengthAdjust="spacing" textLength="59" x="17" y="100.9951">frontend</text></g><!--entity backend_service_2--><g id="elem_backend_service_2"><rect fill="#ADD8E6" height="36.2969" rx="2.5" ry="2.5" style="stroke:#181818;stroke-width:0.5;" width="148" x="354" y="7"/><text fill="#000000" font-family="sans-serif" font-size="14" lengthAdjust="spacing" textLength="128" x="364" y="29.9951">backend-service-2</text></g><!--entity external_service_1--><g id="elem_external_service_1"><rect fill="#FFE4B5" height="36.2969" rx="2.5" ry="2.5" style="stroke:#181818;stroke-width:0.5;" width="143" x="356.5" y="78"/><text fill="#000000" font-family="sans-serif" font-size="14" lengthAdjust="spacing" textLength="123" x="366.5" y="100.9951">external-service-1</text></g><!--entity external_service_3--><g id="elem_external_service_3"><rect fill="#F08080" height="36.2969" rx="2.5" ry="2.5" style="stroke:#181818;stroke-width:0.5;" width="143" x="562" y="113"/><text fill="#000000" font-family="sans-serif" font-size="14" lengthAdjust="spacing" textLength="123" x="572" y="135.9951">external-service-3</text></g><!--entity external_service_2--><g id="elem_external_service_2"><rect fill="#FFE4B5" height="36.2969" rx="2.5" ry="2.5" style="stroke:#181818;stroke-width:0.5;" width="143" x="562" y="7"/><text fill="#000000" font-family="sans-serif" font-size="14" lengthAdjust="spacing" textLength="123" x="572" y="29.9951">external-service-2</text></g><!--link backend_service_1 to backend_service_2--><g id="link_backend_service_1_backend_service_2"><path d="M273.25,77.99 C304.24,67.31 337.7274,55.7648 368.7774,45.0648 " fill="none" id="backend_service_1-to-backend_service_2" style="stroke:#181818;stroke-width:1.0;"/><polygon fill="#181818" points="374.45,43.11,364.6378,42.2605,369.7228,44.739,367.2443,49.824,374.45,43.11" style="stroke:#181818;stroke-width:1.0;"/></g><!--link backend_service_1 to external_service_1--><g id="link_backend_service_1_external_service_1"><path d="M294.21,96 C314.45,96 330.36,96 350.45,96 " fill="none" id="backend_service_1-to-external_service_1" style="stroke:#181818;stroke-width:1.0;"/><polygon fill="#181818" points="356.45,96,347.45,92,351.45,96,347.45,100,356.45,96" style="stroke:#181818;stroke-width:1.0;"/></g><!--link backend_service_1 to external_service_3--><g id="link_backend_service_1_external_service_3"><path d="M274.69,114.01 C298.67,121.14 327.44,128.47 354,132 C424.22,141.34 499.2792,139.9929 555.7792,136.8529 " fill="none" id="backend_service_1-to-external_service_3" style="stroke:#181818;stroke-width:1.0;"/><polygon fill="#181818" points="561.77,136.52,552.5619,133.0256,556.7777,136.7974,553.0058,141.0132,561.77,136.52" style="stroke:#181818;stroke-width:1.0;"/></g><!--link frontend to backend_service_1--><g id="link_frontend_backend_service_1"><path d="M86.42,96 C104.01,96 119.39,96 139.81,96 " fill="none" id="frontend-to-backend_service_1" style="stroke:#181818;stroke-width:1.0;"/><polygon fill="#181818" points="145.81,96,136.81,92,140.81,96,136.81,100,145.81,96" style="stroke:#181818;stroke-width:1.0;"/></g><!--link backend_service_2 to external_service_2--><g id="link_backend_service_2_external_service_2"><path d="M502.18,25 C521.55,25 536.43,25 555.67,25 " fill="none" id="backend_service_2-to-external_service_2" style="stroke:#181818;stroke-width:1.0;"/><polygon fill="#181818" points="561.67,25,552.67,21,556.67,25,552.67,29,561.67,25" style="stroke:#181818;stroke-width:1.0;"/></g><!--link backend_service_2 to external_service_3--><g id="link_backend_service_2_external_service_3"><path d="M467.82,43.16 C478.92,48.47 490.99,54.37 502,60 C535.87,77.32 568.7881,95.3307 595.0581,109.9607 " fill="none" id="backend_service_2-to-external_service_3" style="stroke:#181818;stroke-width:1.0;"/><polygon fill="#181818" points="600.3,112.88,594.3833,105.0065,595.9317,110.4473,590.4909,111.9957,600.3,112.88" style="stroke:#181818;stroke-width:1.0;"/></g></g></svg>