<?xml version="1.0" encoding="us-ascii" standalone="no"?><svg xmlns="http://www.w3.org/2000/svg" xmlns:xlink="http://www.w3.org/1999/xlink" contentStyleType="text/css" height="155px" preserveAspectRatio="none" style="width:711px;height:155px;background:#FFFFFF;" version="1.1" viewBox="0 0 711 155" width="711px" zoomAndPan="magnify"><defs/><g><!--entity backend_service_1--><g id="elem_backend_service_1"><rect fill="#ADD8E6" height="36.2969" rx="2.5" ry="2.5" style="stroke:#181818;stroke-width:0.5;" width="148" x="146" y="78"/><text fill="#000000" font-family="sans-serif" font-size="14" lengthAdjust="spacing" textLength="128" x="156" y="100.9951">backend-service-1</text></g><!--entity frontend--><g id="elem_frontend"><rect fill="#ADD8E6" height="36.2969" rx="2.5" ry="2.5" style="stroke:#181818;stroke-width:0.5;" width="79" x="7" y="78"/><text fill="#000000" font-family="sans-serif" font-size="14" lengthAdjust="spacing" textLength="59" x="17" y="100.9951">frontend</text></g><!--entity backend_service_2--><g id="elem_backend_service_2"><rect fill="#ADD8E6" height="36.2969" rx="2.5" ry="2.5" style="stroke:#181818;stroke-width:0.5;" width="148" x="354" y="42"/><text fill="#000000" font-family="sans-serif" font-size="14" lengthAdjust="spacing" textLength="128" x="364" y="64.9951">backend-service-2</text></g><!--entity external_service_1--><g id="elem_external_service_1"><rect fill="#FFE4B5" height="36.2969" rx="2.5" ry="2.5" style="stroke:#181818;stroke-width:0.5;" width="143" x="356.5" y="113"/><text fill="#000000" font-family="sans-serif" font-size="14" lengthAdjust="spacing" textLength="123" x="366.5" y="135.9951">external-service-1</text></g><!--entity external_service_2--><g id="elem_external_service_2"><rect fill="#FFE4B5" height="36.2969" rx="2.5" ry="2.5" style="stroke:#181818;stroke-width:0.5;" width="143" x="562" y="7"/><text fill="#000000" font-family="sans-serif" font-size="14" lengthAdjust="spacing" textLength="123" x="572" y="29.9951">external-service-2</text></g><!--entity external_service_3--><g id="elem_external_service_3"><rect fill="#F08080" height="36.2969" rx="2.5" ry="2.5" style="stroke:#181818;stroke-width:0.5;" width="143" x="562" y="78"/><text fill="#000000" font-family="sans-serif" font-size="14" lengthAdjust="spacing" textLength="123" x="572" y="100.9951">external-service-3</text></g><!--link backend_service_1 to backend_service_2--><g id="link_backend_service_1_backend_service_2"><path d="M294.21,83.21 C313.52,79.83 328.4498,77.224 347.7698,73.844 " fill="none" id="backend_service_1-to-backend_service_2" style="stroke:#181818;stroke-width:1.0;"/><polygon fill="#181818" points="353.68,72.81,344.1253,70.4208,348.7548,73.6717,345.504,78.3011,353.68,72.81" style="stroke:#181818;stroke-width:1.0;"/></g><!--link backend_service_1 to external_service_1--><g id="link_backend_service_1_external_service_1"><path d="M294.21,108.44 C314.45,111.88 330.4446,114.5959 350.5346,118.0059 " fill="none" id="backend_service_1-to-external_service_1" style="stroke:#181818;stroke-width:1.0;"/><polygon fill="#181818" points="356.45,119.01,348.2463,113.5603,351.5205,118.1733,346.9075,121.4475,356.45,119.01" style="stroke:#181818;stroke-width:1.0;"/></g><!--link frontend to backend_service_1--><g id="link_frontend_backend_service_1"><path d="M86.42,96 C104.01,96 119.39,96 139.81,96 " fill="none" id="frontend-to-backend_service_1" style="stroke:#181818;stroke-width:1.0;"/><polygon fill="#181818" points="145.81,96,136.81,92,140.81,96,136.81,100,145.81,96" style="stroke:#181818;stroke-width:1.0;"/></g><!--link backend_service_2 to external_service_2--><g id="link_backend_service_2_external_service_2"><path d="M502.18,47.41 C521.55,44.08 536.5169,41.5073 555.7569,38.1973 " fill="none" id="backend_service_2-to-external_service_2" style="stroke:#181818;stroke-width:1.0;"/><polygon fill="#181818" points="561.67,37.18,552.1221,34.7638,556.7424,38.0277,553.4785,42.648,561.67,37.18" style="stroke:#181818;stroke-width:1.0;"/></g><!--link backend_service_2 to external_service_3--><g id="link_backend_service_2_external_service_3"><path d="M502.18,72.95 C521.55,76.37 536.5215,79.0259 555.7615,82.4259 " fill="none" id="backend_service_2-to-external_service_3" style="stroke:#181818;stroke-width:1.0;"/><polygon fill="#181818" points="561.67,83.47,553.5034,77.9649,556.7463,82.5999,552.1112,85.8428,561.67,83.47" style="stroke:#181818;stroke-width:1.0;"/></g></g></svg>