<?xml version="1.0" encoding="us-ascii" standalone="no"?><svg xmlns="http://www.w3.org/2000/svg" xmlns:xlink="http://www.w3.org/1999/xlink" contentStyleType="text/css" height="155px" preserveAspectRatio="none" style="width:722px;height:155px;background:#FFFFFF;" version="1.1" viewBox="0 0 722 155" width="722px" zoomAndPan="magnify"><defs/><g><!--entity frontend--><g id="elem_frontend"><rect fill="#ADD8E6" height="36.4883" rx="2.5" ry="2.5" style="stroke:#181818;stroke-width:0.5;" width="80" x="7" y="78"/><text fill="#000000" font-family="sans-serif" font-size="14" lengthAdjust="spacing" textLength="60" x="17" y="101.5352">frontend</text></g><!--entity backend_service_2--><g id="elem_backend_service_2"><rect fill="#ADD8E6" height="36.4883" rx="2.5" ry="2.5" style="stroke:#181818;stroke-width:0.5;" width="150" x="357" y="42"/><text fill="#000000" font-family="sans-serif" font-size="14" lengthAdjust="spacing" textLength="130" x="367" y="65.5352">backend-service-2</text></g><!--entity backend_service_1--><g id="elem_backend_service_1"><rect fill="#ADD8E6" height="36.4883" rx="2.5" ry="2.5" style="stroke:#181818;stroke-width:0.5;" width="150" x="147" y="78"/><text fill="#000000" font-family="sans-serif" font-size="14" lengthAdjust="spacing" textLength="130" x="157" y="101.5352">backend-service-1</text></g><!--entity external_service_2--><g id="elem_external_service_2"><rect fill="#FFE4B5" height="36.4883" rx="2.5" ry="2.5" style="stroke:#181818;stroke-width:0.5;" width="149" x="567" y="7"/><text fill="#000000" font-family="sans-serif" font-size="14" lengthAdjust="spacing" textLength="129" x="577" y="30.5352">external-service-2</text></g><!--entity external_service_3--><g id="elem_external_service_3"><rect fill="#F08080" height="36.4883" rx="2.5" ry="2.5" style="stroke:#181818;stroke-width:0.5;" width="149" x="567" y="78"/><text fill="#000000" font-family="sans-serif" font-size="14" lengthAdjust="spacing" textLength="129" x="577" y="101.5352">external-service-3</text></g><!--entity external_service_1--><g id="elem_external_service_1"><rect fill="#FFE4B5" height="36.4883" rx="2.5" ry="2.5" style="stroke:#181818;stroke-width:0.5;" width="149" x="357.5" y="113"/><text fill="#000000" font-family="sans-serif" font-size="14" lengthAdjust="spacing" textLength="129" x="367.5" y="136.5352">external-service-1</text></g><!--link frontend to backend_service_1--><g id="link_frontend_backend_service_1"><path d="M87.26,96.25 C104.9,96.25 120.33,96.25 140.82,96.25 " fill="none" id="frontend-to-backend_service_1" style="stroke:#181818;stroke-width:1.0;"/><polygon fill="#181818" points="146.82,96.25,137.82,92.25,141.82,96.25,137.82,100.25,146.82,96.25" style="stroke:#181818;stroke-width:1.0;"/></g><!--link backend_service_2 to external_service_2--><g id="link_backend_service_2_external_service_2"><path d="M507.33,47.71 C526.63,44.45 541.5036,41.9478 560.7736,38.6978 " fill="none" id="backend_service_2-to-external_service_2" style="stroke:#181818;stroke-width:1.0;"/><polygon fill="#181818" points="566.69,37.7,557.1501,35.2525,561.7596,38.5315,558.4806,43.1411,566.69,37.7" style="stroke:#181818;stroke-width:1.0;"/></g><!--link backend_service_2 to external_service_3--><g id="link_backend_service_2_external_service_3"><path d="M507.33,73.14 C526.63,76.49 541.5081,79.0753 560.7781,82.4153 " fill="none" id="backend_service_2-to-external_service_3" style="stroke:#181818;stroke-width:1.0;"/><polygon fill="#181818" points="566.69,83.44,558.5053,77.9617,561.7635,82.5861,557.1391,85.8442,566.69,83.44" style="stroke:#181818;stroke-width:1.0;"/></g><!--link backend_service_1 to backend_service_2--><g id="link_backend_service_1_backend_service_2"><path d="M297.21,83.4 C316.58,80.05 331.5378,77.4625 350.9078,74.1125 " fill="none" id="backend_service_1-to-backend_service_2" style="stroke:#181818;stroke-width:1.0;"/><polygon fill="#181818" points="356.82,73.09,347.27,70.6823,351.8931,73.9421,348.6333,78.5652,356.82,73.09" style="stroke:#181818;stroke-width:1.0;"/></g><!--link backend_service_1 to external_service_1--><g id="link_backend_service_1_external_service_1"><path d="M297.21,108.73 C316.7,112.01 331.7829,114.5562 351.2529,117.8262 " fill="none" id="backend_service_1-to-external_service_1" style="stroke:#181818;stroke-width:1.0;"/><polygon fill="#181818" points="357.17,118.82,348.9568,113.3846,352.2391,117.9918,347.6318,121.2741,357.17,118.82" style="stroke:#181818;stroke-width:1.0;"/></g></g></svg>