<?xml version="1.0" encoding="us-ascii" standalone="no"?><svg xmlns="http://www.w3.org/2000/svg" xmlns:xlink="http://www.w3.org/1999/xlink" contentStyleType="text/css" height="147px" preserveAspectRatio="none" style="width:984px;height:147px;background:#FFFFFF;" version="1.1" viewBox="0 0 984 147" width="984px" zoomAndPan="magnify"><defs/><g><!--entity backend_service_1--><g id="elem_backend_service_1"><rect fill="#D3D3D3" height="36.2969" rx="2.5" ry="2.5" style="stroke:#181818;stroke-width:0.5;" width="160" x="7" y="59.5"/><text fill="#000000" font-family="sans-serif" font-size="14" lengthAdjust="spacing" textLength="140" x="17" y="82.4951">Backend Service #1</text></g><!--entity backend_service_2--><g id="elem_backend_service_2"><rect fill="#87CEEB" height="36.2969" rx="2.5" ry="2.5" style="stroke:#181818;stroke-width:2.0;" width="160" x="228" y="59.5"/><text fill="#000000" font-family="sans-serif" font-size="14" lengthAdjust="spacing" textLength="140" x="238" y="82.4951">Backend Service #2</text></g><!--entity external_service_2--><g id="elem_external_service_2"><rect fill="#FFE4B5" height="36.2969" rx="2.5" ry="2.5" style="stroke:#181818;stroke-width:0.5;" width="154" x="581" y="15.5"/><text fill="#000000" font-family="sans-serif" font-size="14" lengthAdjust="spacing" textLength="134" x="591" y="38.4951">External Service #2</text></g><!--entity external_service_3--><g id="elem_external_service_3"><rect fill="#F08080" height="36.2969" rx="2.5" ry="2.5" style="stroke:#181818;stroke-width:0.5;" width="154" x="581" y="102.5"/><text fill="#000000" font-family="sans-serif" font-size="14" lengthAdjust="spacing" textLength="134" x="591" y="125.4951">External Service #3</text></g><g id="elem_GMN6"><path d="M796,6 L796,29.5 L735.05,33.5 L796,37.5 L796,61.3984 A0,0 0 0 0 796,61.3984 L977,61.3984 A0,0 0 0 0 977,61.3984 L977,16 L967,6 L796,6 A0,0 0 0 0 796,6 " fill="#FEFFDD" style="stroke:#181818;stroke-width:0.5;"/><path d="M967,6 L967,16 L977,16 L967,6 " fill="#FEFFDD" style="stroke:#181818;stroke-width:0.5;"/><text fill="#000000" font-family="sans-serif" font-size="13" font-weight="bold" lengthAdjust="spacing" textLength="121" x="802" y="23.0669">HTTP Endpoints:</text><text fill="#000000" font-family="monospace" font-size="13" lengthAdjust="spacing" textLength="88" x="802" y="38.1997">POST&#160;/users</text><text fill="#000000" font-family="monospace" font-size="13" lengthAdjust="spacing" textLength="160" x="802" y="53.3325">GET&#160;&#160;/users/{userId}</text></g><g id="elem_GMN9"><path d="M815.5,100.5 L815.5,116.5 L735.05,120.5 L815.5,124.5 L815.5,140.7656 A0,0 0 0 0 815.5,140.7656 L957.5,140.7656 A0,0 0 0 0 957.5,140.7656 L957.5,110.5 L947.5,100.5 L815.5,100.5 A0,0 0 0 0 815.5,100.5 " fill="#FEFFDD" style="stroke:#181818;stroke-width:0.5;"/><path d="M947.5,100.5 L947.5,110.5 L957.5,110.5 L947.5,100.5 " fill="#FEFFDD" style="stroke:#181818;stroke-width:0.5;"/><text fill="#000000" font-family="sans-serif" font-size="13" font-weight="bold" lengthAdjust="spacing" textLength="121" x="821.5" y="117.5669">HTTP Endpoints:</text><text fill="#000000" font-family="monospace" font-size="13" lengthAdjust="spacing" textLength="104" x="821.5" y="132.6997">GET&#160;/bookings</text></g><!--link backend_service_1 to backend_service_2--><g id="link_backend_service_1_backend_service_2"><path d="M167.06,77.5 C186.79,77.5 201.95,77.5 221.68,77.5 " fill="none" id="backend_service_1-to-backend_service_2" style="stroke:#181818;stroke-width:1.0;"/><polygon fill="#181818" points="227.68,77.5,218.68,73.5,222.68,77.5,218.68,81.5,227.68,77.5" style="stroke:#181818;stroke-width:1.0;"/></g><!--link backend_service_2 to external_service_2--><g id="link_backend_service_2_external_service_2"><path d="M388.4,67.46 C446.18,60.16 517.9873,51.072 574.9773,43.872 " fill="none" id="backend_service_2-to-external_service_2" style="stroke:#181818;stroke-width:1.0;"/><polygon fill="#181818" points="580.93,43.12,571.4996,40.2796,575.9694,43.7467,572.5023,48.2165,580.93,43.12" style="stroke:#181818;stroke-width:1.0;"/><text fill="#000000" font-family="sans-serif" font-size="13" lengthAdjust="spacing" textLength="21" x="474" y="47.5669">JWT</text></g><!--link backend_service_2 to external_service_3--><g id="link_backend_service_2_external_service_3"><path d="M388.4,87.31 C446.18,94.45 517.9853,103.3244 574.9753,110.3644 " fill="none" id="backend_service_2-to-external_service_3" style="stroke:#181818;stroke-width:1.0;"/><polygon fill="#181818" points="580.93,111.1,572.4883,106.0268,575.9677,110.487,571.5075,113.9664,580.93,111.1" style="stroke:#181818;stroke-width:1.0;"/><text fill="#000000" font-family="sans-serif" font-size="13" lengthAdjust="spacing" textLength="69" x="450" y="90.5669">Basic-Auth</text></g></g></svg>