<?xml version="1.0" encoding="us-ascii" standalone="no"?><svg xmlns="http://www.w3.org/2000/svg" xmlns:xlink="http://www.w3.org/1999/xlink" contentStyleType="text/css" height="282px" preserveAspectRatio="none" style="width:932px;height:282px;background:#FFFFFF;" version="1.1" viewBox="0 0 932 282" width="932px" zoomAndPan="magnify"><defs/><g><!--cluster Platform--><g id="cluster_Platform"><path d="M8.5,6 L75.5,6 A3.75,3.75 0 0 1 78,8.5 L85,28.2969 L922.5,28.2969 A2.5,2.5 0 0 1 925,30.7969 L925,157.5 A2.5,2.5 0 0 1 922.5,160 L8.5,160 A2.5,2.5 0 0 1 6,157.5 L6,8.5 A2.5,2.5 0 0 1 8.5,6 " fill="none" style="stroke:#000000;stroke-width:1.5;"/><line style="stroke:#000000;stroke-width:1.5;" x1="6" x2="85" y1="28.2969" y2="28.2969"/><text fill="#000000" font-family="sans-serif" font-size="14" font-weight="bold" lengthAdjust="spacing" textLength="66" x="10" y="20.9951">Platform</text></g><!--cluster Application--><g id="cluster_Application"><rect fill="none" height="87" rx="2.5" ry="2.5" style="stroke:#181818;stroke-width:1.0;" width="412" x="30" y="49"/><path d="M127,49 L127,58.2969 L117,68.2969 L30,68.2969 " fill="none" style="stroke:#181818;stroke-width:1.0;"/><text fill="#000000" font-family="sans-serif" font-size="14" font-weight="bold" lengthAdjust="spacing" textLength="87" x="33" y="62.9951">Application</text></g><!--cluster Other Project--><g id="cluster_Other Project"><path d="M533.5,184 L640.5,184 A3.75,3.75 0 0 1 643,186.5 L650,206.2969 L910.5,206.2969 A2.5,2.5 0 0 1 913,208.7969 L913,272.5 A2.5,2.5 0 0 1 910.5,275 L533.5,275 A2.5,2.5 0 0 1 531,272.5 L531,186.5 A2.5,2.5 0 0 1 533.5,184 " fill="none" style="stroke:#000000;stroke-width:1.5;"/><line style="stroke:#000000;stroke-width:1.5;" x1="531" x2="650" y1="206.2969" y2="206.2969"/><text fill="#000000" font-family="sans-serif" font-size="14" font-weight="bold" lengthAdjust="spacing" textLength="106" x="535" y="198.9951">Other Project</text></g><!--entity platform__external_service_2--><g id="elem_platform__external_service_2"><rect fill="#FFE4B5" height="36.2969" rx="2.5" ry="2.5" style="stroke:#181818;stroke-width:0.5;" width="154" x="547" y="84"/><text fill="#000000" font-family="sans-serif" font-size="14" lengthAdjust="spacing" textLength="134" x="557" y="106.9951">External Service #2</text></g><g id="elem_GMN7"><path d="M761,74.5 L761,98 L701.05,102 L761,106 L761,129.8984 A0,0 0 0 0 761,129.8984 L909,129.8984 A0,0 0 0 0 909,129.8984 L909,84.5 L899,74.5 L761,74.5 A0,0 0 0 0 761,74.5 " fill="#FEFFDD" style="stroke:#181818;stroke-width:0.5;"/><path d="M899,74.5 L899,84.5 L909,84.5 L899,74.5 " fill="#FEFFDD" style="stroke:#181818;stroke-width:0.5;"/><text fill="#000000" font-family="sans-serif" font-size="13" lengthAdjust="spacing" textLength="103" x="767" y="91.5669">HTTP Endpoints:</text><text fill="#000000" font-family="sans-serif" font-size="13" lengthAdjust="spacing" textLength="68" x="767" y="106.6997">GET /users</text><text fill="#000000" font-family="sans-serif" font-size="13" lengthAdjust="spacing" textLength="127" x="767" y="121.8325">GET /users/{userId}</text></g><!--entity platform__application__backend_service_1--><g id="elem_platform__application__backend_service_1"><rect fill="#D3D3D3" height="36.2969" rx="2.5" ry="2.5" style="stroke:#181818;stroke-width:0.5;" width="160" x="46" y="84"/><text fill="#000000" font-family="sans-serif" font-size="14" lengthAdjust="spacing" textLength="140" x="56" y="106.9951">Backend Service #1</text></g><!--entity platform__application__backend_service_2--><g id="elem_platform__application__backend_service_2"><rect fill="#87CEEB" height="36.2969" rx="2.5" ry="2.5" style="stroke:#181818;stroke-width:2.0;" width="160" x="266" y="84"/><text fill="#000000" font-family="sans-serif" font-size="14" lengthAdjust="spacing" textLength="140" x="276" y="106.9951">Backend Service #2</text></g><!--entity other_project__external_service_3--><g id="elem_other_project__external_service_3"><rect fill="#F08080" height="36.2969" rx="2.5" ry="2.5" style="stroke:#181818;stroke-width:0.5;" width="154" x="547" y="220"/><text fill="#000000" font-family="sans-serif" font-size="14" lengthAdjust="spacing" textLength="134" x="557" y="242.9951">External Service #3</text></g><g id="elem_GMN12"><path d="M773,219 L773,234.71 L701.05,238.36 L773,242.71 L773,259.2656 A0,0 0 0 0 773,259.2656 L897,259.2656 A0,0 0 0 0 897,259.2656 L897,229 L887,219 L773,219 A0,0 0 0 0 773,219 " fill="#FEFFDD" style="stroke:#181818;stroke-width:0.5;"/><path d="M887,219 L887,229 L897,229 L887,219 " fill="#FEFFDD" style="stroke:#181818;stroke-width:0.5;"/><text fill="#000000" font-family="sans-serif" font-size="13" lengthAdjust="spacing" textLength="103" x="779" y="236.0669">HTTP Endpoints:</text><text fill="#000000" font-family="sans-serif" font-size="13" lengthAdjust="spacing" textLength="90" x="779" y="251.1997">GET /bookings</text></g><!--link platform__application__backend_service_1 to platform__application__backend_service_2--><g id="link_platform__application__backend_service_1_platform__application__backend_service_2"><path d="M206.01,102 C225.51,102 240.39,102 259.89,102 " fill="none" id="platform__application__backend_service_1-to-platform__application__backend_service_2" style="stroke:#181818;stroke-width:1.0;"/><polygon fill="#181818" points="265.89,102,256.89,98,260.89,102,256.89,106,265.89,102" style="stroke:#181818;stroke-width:1.0;"/></g><!--link platform__application__backend_service_2 to platform__external_service_2--><g id="link_platform__application__backend_service_2_platform__external_service_2"><path d="M426.09,102 C464,102 503.22,102 540.75,102 " fill="none" id="platform__application__backend_service_2-to-platform__external_service_2" style="stroke:#181818;stroke-width:1.0;"/><polygon fill="#181818" points="546.75,102,537.75,98,541.75,102,537.75,106,546.75,102" style="stroke:#181818;stroke-width:1.0;"/></g><!--link platform__application__backend_service_2 to other_project__external_service_3--><g id="link_platform__application__backend_service_2_other_project__external_service_3"><path d="M383.65,120.06 C436.44,146.07 527.9381,191.1577 580.8181,217.2177 " fill="none" id="platform__application__backend_service_2-to-other_project__external_service_3" style="stroke:#181818;stroke-width:1.0;"/><polygon fill="#181818" points="586.2,219.87,579.8953,212.3036,581.715,217.6598,576.3589,219.4795,586.2,219.87" style="stroke:#181818;stroke-width:1.0;"/></g></g></svg>