<?xml version="1.0" encoding="us-ascii" standalone="no"?><svg xmlns="http://www.w3.org/2000/svg" xmlns:xlink="http://www.w3.org/1999/xlink" contentStyleType="text/css" height="304px" preserveAspectRatio="none" style="width:974px;height:304px;background:#FFFFFF;" version="1.1" viewBox="0 0 974 304" width="974px" zoomAndPan="magnify"><defs/><g><!--cluster Platform--><g id="cluster_Platform"><path d="M8.5,6 L75.5,6 A3.75,3.75 0 0 1 78,8.5 L85,28.2969 L796.5,28.2969 A2.5,2.5 0 0 1 799,30.7969 L799,238.5 A2.5,2.5 0 0 1 796.5,241 L8.5,241 A2.5,2.5 0 0 1 6,238.5 L6,8.5 A2.5,2.5 0 0 1 8.5,6 " fill="none" style="stroke:#000000;stroke-width:1.5;"/><line style="stroke:#000000;stroke-width:1.5;" x1="6" x2="85" y1="28.2969" y2="28.2969"/><text fill="#000000" font-family="sans-serif" font-size="14" font-weight="bold" lengthAdjust="spacing" textLength="66" x="10" y="20.9951">Platform</text></g><!--cluster Application--><g id="cluster_Application"><rect fill="none" height="168" rx="2.5" ry="2.5" style="stroke:#181818;stroke-width:1.0;" width="555" x="30" y="49"/><path d="M127,49 L127,58.2969 L117,68.2969 L30,68.2969 " fill="none" style="stroke:#181818;stroke-width:1.0;"/><text fill="#000000" font-family="sans-serif" font-size="14" font-weight="bold" lengthAdjust="spacing" textLength="87" x="33" y="62.9951">Application</text></g><!--entity platform__external_service_1--><g id="elem_platform__external_service_1"><rect fill="#FFE4B5" height="36.2969" rx="2.5" ry="2.5" style="stroke:#181818;stroke-width:0.5;" width="154" x="629" y="84"/><text fill="#000000" font-family="sans-serif" font-size="14" lengthAdjust="spacing" textLength="134" x="639" y="106.9951">External Service #1</text></g><!--entity platform__application__frontend--><g id="elem_platform__application__frontend"><rect fill="#D3D3D3" height="36.2969" rx="2.5" ry="2.5" style="stroke:#181818;stroke-width:0.5;" width="83" x="46" y="84"/><text fill="#000000" font-family="sans-serif" font-size="14" lengthAdjust="spacing" textLength="63" x="56" y="106.9951">Frontend</text></g><!--entity platform__application__backend_service_1--><g id="elem_platform__application__backend_service_1"><rect fill="#87CEEB" height="36.2969" rx="2.5" ry="2.5" style="stroke:#181818;stroke-width:2.0;" width="160" x="189" y="84"/><text fill="#000000" font-family="sans-serif" font-size="14" lengthAdjust="spacing" textLength="140" x="199" y="106.9951">Backend Service #1</text></g><!--entity platform__application__backend_service_1_database--><g id="elem_platform__application__backend_service_1_database"><path d="M227,165.5 C227,155.5 269,155.5 269,155.5 C269,155.5 311,155.5 311,165.5 L311,190.7969 C311,200.7969 269,200.7969 269,200.7969 C269,200.7969 227,200.7969 227,190.7969 L227,165.5 " fill="#F1F1F1" style="stroke:#181818;stroke-width:0.5;"/><path d="M227,165.5 C227,175.5 269,175.5 269,175.5 C269,175.5 311,175.5 311,165.5 " fill="none" style="stroke:#181818;stroke-width:0.5;"/><text fill="#000000" font-family="sans-serif" font-size="14" lengthAdjust="spacing" textLength="64" x="237" y="192.4951">database</text></g><!--entity platform__application__backend_service_2--><g id="elem_platform__application__backend_service_2"><rect fill="#ADD8E6" height="36.2969" rx="2.5" ry="2.5" style="stroke:#181818;stroke-width:0.5;" width="160" x="409" y="151"/><text fill="#000000" font-family="sans-serif" font-size="14" lengthAdjust="spacing" textLength="140" x="419" y="173.9951">Backend Service #2</text></g><g id="elem_GMN14"><path d="M843,82 L843,98 L783.17,102 L843,106 L843,122.2656 A0,0 0 0 0 843,122.2656 L967,122.2656 A0,0 0 0 0 967,122.2656 L967,92 L957,82 L843,82 A0,0 0 0 0 843,82 " fill="#FEFFDD" style="stroke:#181818;stroke-width:0.5;"/><path d="M957,82 L957,92 L967,92 L957,82 " fill="#FEFFDD" style="stroke:#181818;stroke-width:0.5;"/><text fill="#000000" font-family="sans-serif" font-size="13" lengthAdjust="spacing" textLength="103" x="849" y="99.0669">HTTP Endpoints:</text><text fill="#000000" font-family="sans-serif" font-size="13" lengthAdjust="spacing" textLength="84" x="849" y="114.1997">GET /foo/{id}</text></g><g id="elem_GMN17"><path d="M644,257 L644,297.2656 L768,297.2656 L768,267 L758,257 L644,257 " fill="#FEFFDD" style="stroke:#181818;stroke-width:0.5;"/><path d="M758,257 L758,267 L768,267 L758,257 " fill="#FEFFDD" style="stroke:#181818;stroke-width:1.0;"/><text fill="#000000" font-family="sans-serif" font-size="13" lengthAdjust="spacing" textLength="103" x="650" y="274.0669">HTTP Endpoints:</text><text fill="#000000" font-family="sans-serif" font-size="13" lengthAdjust="spacing" textLength="85" x="650" y="289.1997">GET /bar/{id}</text></g><!--link platform__application__frontend to platform__application__backend_service_1--><g id="link_platform__application__frontend_platform__application__backend_service_1"><path d="M129.23,102 C146.92,102 162.27,102 182.87,102 " fill="none" id="platform__application__frontend-to-platform__application__backend_service_1" style="stroke:#181818;stroke-width:1.0;"/><polygon fill="#181818" points="188.87,102,179.87,98,183.87,102,179.87,106,188.87,102" style="stroke:#181818;stroke-width:1.0;"/></g><!--link platform__application__backend_service_1 to platform__external_service_1--><g id="link_platform__application__backend_service_1_platform__external_service_1"><path d="M349.03,102 C428.51,102 544.23,102 622.73,102 " fill="none" id="platform__application__backend_service_1-to-platform__external_service_1" style="stroke:#181818;stroke-width:1.0;"/><polygon fill="#181818" points="628.73,102,619.73,98,623.73,102,619.73,106,628.73,102" style="stroke:#181818;stroke-width:1.0;"/></g><!--reverse link platform__application__backend_service_1_database to platform__application__backend_service_1--><g id="link_platform__application__backend_service_1_database_platform__application__backend_service_1"><path d="M269,149.38 C269,149.38 269,127.33 269,127.33 C269,127.33 269,124.2 269,120.14 " fill="none" id="platform__application__backend_service_1_database-backto-platform__application__backend_service_1" style="stroke:#181818;stroke-width:1.0;"/><polygon fill="#181818" points="269,155.38,273,146.38,269,150.38,265,146.38,269,155.38" style="stroke:#181818;stroke-width:1.0;"/></g><!--link platform__application__backend_service_1 to platform__application__backend_service_2--><g id="link_platform__application__backend_service_1_platform__application__backend_service_2"><path d="M325.74,120.04 C364.41,132.56 409,147 409,147 C409,147 408.9593,146.9927 417.3393,149.3227 " fill="none" id="platform__application__backend_service_1-to-platform__application__backend_service_2" style="stroke:#181818;stroke-width:1.0;"/><polygon fill="#181818" points="423.12,150.93,415.5205,144.6653,418.3027,149.5906,413.3774,152.3729,423.12,150.93" style="stroke:#181818;stroke-width:1.0;"/></g><!--link platform__application__backend_service_2 to GMN17--><g id="link_platform__application__backend_service_2_GMN17"><path d="M525.08,187.17 C566.25,208.5 629,241 629,241 C629,241 645.15,248.65 662.56,256.89 " fill="none" id="platform__application__backend_service_2-GMN17" style="stroke:#181818;stroke-width:1.0;stroke-dasharray:7.0,7.0;"/></g></g></svg>