<?xml version="1.0" encoding="us-ascii" standalone="no"?><svg xmlns="http://www.w3.org/2000/svg" xmlns:xlink="http://www.w3.org/1999/xlink" contentStyleType="text/css" height="282px" preserveAspectRatio="none" style="width:1043px;height:282px;background:#FFFFFF;" version="1.1" viewBox="0 0 1043 282" width="1043px" zoomAndPan="magnify"><defs/><g><!--cluster Platform--><g id="cluster_Platform"><path d="M8.5,6 L75.5,6 A3.75,3.75 0 0 1 78,8.5 L85,28.2969 L1033.5,28.2969 A2.5,2.5 0 0 1 1036,30.7969 L1036,157.5 A2.5,2.5 0 0 1 1033.5,160 L8.5,160 A2.5,2.5 0 0 1 6,157.5 L6,8.5 A2.5,2.5 0 0 1 8.5,6 " fill="none" style="stroke:#000000;stroke-width:1.5;"/><line style="stroke:#000000;stroke-width:1.5;" x1="6" x2="85" y1="28.2969" y2="28.2969"/><text fill="#000000" font-family="sans-serif" font-size="14" font-weight="bold" lengthAdjust="spacing" textLength="66" x="10" y="20.9951">Platform</text></g><!--cluster Application--><g id="cluster_Application"><rect fill="none" height="87" rx="2.5" ry="2.5" style="stroke:#181818;stroke-width:1.0;" width="413" x="30" y="49"/><path d="M127,49 L127,58.2969 L117,68.2969 L30,68.2969 " fill="none" style="stroke:#181818;stroke-width:1.0;"/><text fill="#000000" font-family="sans-serif" font-size="14" font-weight="bold" lengthAdjust="spacing" textLength="87" x="33" y="62.9951">Application</text></g><!--cluster Other Project--><g id="cluster_Other Project"><path d="M610.5,184 L717.5,184 A3.75,3.75 0 0 1 720,186.5 L727,206.2969 L1014,206.2969 A2.5,2.5 0 0 1 1016.5,208.7969 L1016.5,272.5 A2.5,2.5 0 0 1 1014,275 L610.5,275 A2.5,2.5 0 0 1 608,272.5 L608,186.5 A2.5,2.5 0 0 1 610.5,184 " fill="none" style="stroke:#000000;stroke-width:1.5;"/><line style="stroke:#000000;stroke-width:1.5;" x1="608" x2="727" y1="206.2969" y2="206.2969"/><text fill="#000000" font-family="sans-serif" font-size="14" font-weight="bold" lengthAdjust="spacing" textLength="106" x="612" y="198.9951">Other Project</text></g><!--entity platform__external_service_2--><g id="elem_platform__external_service_2"><rect fill="#FFE4B5" height="36.2969" rx="2.5" ry="2.5" style="stroke:#181818;stroke-width:0.5;" width="154" x="624" y="84"/><text fill="#000000" font-family="sans-serif" font-size="14" lengthAdjust="spacing" textLength="134" x="634" y="106.9951">External Service #2</text></g><g id="elem_GMN7"><path d="M839,74.5 L839,98 L778.05,102 L839,106 L839,129.8984 A0,0 0 0 0 839,129.8984 L1020,129.8984 A0,0 0 0 0 1020,129.8984 L1020,84.5 L1010,74.5 L839,74.5 A0,0 0 0 0 839,74.5 " fill="#FEFFDD" style="stroke:#181818;stroke-width:0.5;"/><path d="M1010,74.5 L1010,84.5 L1020,84.5 L1010,74.5 " fill="#FEFFDD" style="stroke:#181818;stroke-width:0.5;"/><text fill="#000000" font-family="sans-serif" font-size="13" font-weight="bold" lengthAdjust="spacing" textLength="121" x="845" y="91.5669">HTTP Endpoints:</text><text fill="#000000" font-family="monospace" font-size="13" lengthAdjust="spacing" textLength="88" x="845" y="106.6997">POST&#160;/users</text><text fill="#000000" font-family="monospace" font-size="13" lengthAdjust="spacing" textLength="160" x="845" y="121.8325">GET&#160;&#160;/users/{userId}</text></g><!--entity platform__application__backend_service_1--><g id="elem_platform__application__backend_service_1"><rect fill="#D3D3D3" height="36.2969" rx="2.5" ry="2.5" style="stroke:#181818;stroke-width:0.5;" width="160" x="46" y="84"/><text fill="#000000" font-family="sans-serif" font-size="14" lengthAdjust="spacing" textLength="140" x="56" y="106.9951">Backend Service #1</text></g><!--entity platform__application__backend_service_2--><g id="elem_platform__application__backend_service_2"><rect fill="#87CEEB" height="36.2969" rx="2.5" ry="2.5" style="stroke:#181818;stroke-width:2.0;" width="160" x="267" y="84"/><text fill="#000000" font-family="sans-serif" font-size="14" lengthAdjust="spacing" textLength="140" x="277" y="106.9951">Backend Service #2</text></g><!--entity other_project__external_service_3--><g id="elem_other_project__external_service_3"><rect fill="#F08080" height="36.2969" rx="2.5" ry="2.5" style="stroke:#181818;stroke-width:0.5;" width="154" x="624" y="220"/><text fill="#000000" font-family="sans-serif" font-size="14" lengthAdjust="spacing" textLength="134" x="634" y="242.9951">External Service #3</text></g><g id="elem_GMN12"><path d="M858.5,219 L858.5,234.69 L778.05,238.34 L858.5,242.69 L858.5,259.2656 A0,0 0 0 0 858.5,259.2656 L1000.5,259.2656 A0,0 0 0 0 1000.5,259.2656 L1000.5,229 L990.5,219 L858.5,219 A0,0 0 0 0 858.5,219 " fill="#FEFFDD" style="stroke:#181818;stroke-width:0.5;"/><path d="M990.5,219 L990.5,229 L1000.5,229 L990.5,219 " fill="#FEFFDD" style="stroke:#181818;stroke-width:0.5;"/><text fill="#000000" font-family="sans-serif" font-size="13" font-weight="bold" lengthAdjust="spacing" textLength="121" x="864.5" y="236.0669">HTTP Endpoints:</text><text fill="#000000" font-family="monospace" font-size="13" lengthAdjust="spacing" textLength="104" x="864.5" y="251.1997">GET&#160;/bookings</text></g><!--link platform__application__backend_service_1 to platform__application__backend_service_2--><g id="link_platform__application__backend_service_1_platform__application__backend_service_2"><path d="M206.06,102 C225.79,102 240.95,102 260.68,102 " fill="none" id="platform__application__backend_service_1-to-platform__application__backend_service_2" style="stroke:#181818;stroke-width:1.0;"/><polygon fill="#181818" points="266.68,102,257.68,98,261.68,102,257.68,106,266.68,102" style="stroke:#181818;stroke-width:1.0;"/></g><!--link platform__application__backend_service_2 to platform__external_service_2--><g id="link_platform__application__backend_service_2_platform__external_service_2"><path d="M427.43,102 C486.24,102 559.87,102 617.87,102 " fill="none" id="platform__application__backend_service_2-to-platform__external_service_2" style="stroke:#181818;stroke-width:1.0;"/><polygon fill="#181818" points="623.87,102,614.87,98,618.87,102,614.87,106,623.87,102" style="stroke:#181818;stroke-width:1.0;"/><text fill="#000000" font-family="sans-serif" font-size="13" lengthAdjust="spacing" textLength="21" x="515" y="98.0669">JWT</text></g><!--link platform__application__backend_service_2 to other_project__external_service_3--><g id="link_platform__application__backend_service_2_other_project__external_service_3"><path d="M382.37,120.16 C424.4,142.35 490,177 490,177 C490,177 570.1582,200.2863 632.0882,218.2763 " fill="none" id="platform__application__backend_service_2-to-other_project__external_service_3" style="stroke:#181818;stroke-width:1.0;"/><polygon fill="#181818" points="637.85,219.95,630.3231,213.5982,633.0485,218.5552,628.0914,221.2806,637.85,219.95" style="stroke:#181818;stroke-width:1.0;"/><text fill="#000000" font-family="sans-serif" font-size="13" lengthAdjust="spacing" textLength="69" x="491" y="173.0669">Basic-Auth</text></g></g></svg>