<?xml version="1.0" encoding="us-ascii" standalone="no"?><svg xmlns="http://www.w3.org/2000/svg" xmlns:xlink="http://www.w3.org/1999/xlink" contentStyleType="text/css" height="161px" preserveAspectRatio="none" style="width:1141px;height:161px;background:#FFFFFF;" version="1.1" viewBox="0 0 1141 161" width="1141px" zoomAndPan="magnify"><defs/><g><!--entity frontend--><g id="elem_frontend"><rect fill="#D3D3D3" height="36.2969" rx="2.5" ry="2.5" style="stroke:#181818;stroke-width:0.5;" width="83" x="7" y="86.5"/><text fill="#000000" font-family="sans-serif" font-size="14" lengthAdjust="spacing" textLength="63" x="17" y="109.4951">Frontend</text></g><!--entity backend_service_1--><g id="elem_backend_service_1"><rect fill="#87CEEB" height="36.2969" rx="2.5" ry="2.5" style="stroke:#181818;stroke-width:2.0;" width="160" x="151" y="86.5"/><text fill="#000000" font-family="sans-serif" font-size="14" lengthAdjust="spacing" textLength="140" x="161" y="109.4951">Backend Service #1</text></g><!--entity backend_service_2--><g id="elem_backend_service_2"><rect fill="#ADD8E6" height="36.2969" rx="2.5" ry="2.5" style="stroke:#181818;stroke-width:0.5;" width="160" x="394" y="44.5"/><text fill="#000000" font-family="sans-serif" font-size="14" lengthAdjust="spacing" textLength="140" x="404" y="67.4951">Backend Service #2</text></g><!--entity backend_service_1_database--><g id="elem_backend_service_1_database"><path d="M189,16 C189,6 231,6 231,6 C231,6 273,6 273,16 L273,41.2969 C273,51.2969 231,51.2969 231,51.2969 C231,51.2969 189,51.2969 189,41.2969 L189,16 " fill="#F1F1F1" style="stroke:#181818;stroke-width:0.5;"/><path d="M189,16 C189,26 231,26 231,26 C231,26 273,26 273,16 " fill="none" style="stroke:#181818;stroke-width:0.5;"/><text fill="#000000" font-family="sans-serif" font-size="14" lengthAdjust="spacing" textLength="64" x="199" y="42.9951">database</text></g><!--entity external_service_1--><g id="elem_external_service_1"><rect fill="#FFE4B5" height="36.2969" rx="2.5" ry="2.5" style="stroke:#181818;stroke-width:0.5;" width="154" x="636.5" y="116.5"/><text fill="#000000" font-family="sans-serif" font-size="14" lengthAdjust="spacing" textLength="134" x="646.5" y="139.4951">External Service #1</text></g><g id="elem_GMN7"><path d="M615,41.5 L615,57.91 L554.08,62.17 L615,65.91 L615,81.7656 A0,0 0 0 0 615,81.7656 L812,81.7656 A0,0 0 0 0 812,81.7656 L812,51.5 L802,41.5 L615,41.5 A0,0 0 0 0 615,41.5 " fill="#FEFFDD" style="stroke:#181818;stroke-width:0.5;"/><path d="M802,41.5 L802,51.5 L812,51.5 L802,41.5 " fill="#FEFFDD" style="stroke:#181818;stroke-width:0.5;"/><text fill="#000000" font-family="sans-serif" font-size="13" font-weight="bold" lengthAdjust="spacing" textLength="121" x="621" y="58.5669">HTTP Endpoints:</text><text fill="#000000" font-family="monospace" font-size="13" lengthAdjust="spacing" textLength="176" x="621" y="73.6997">GET&#160;/bookings/{userId}</text></g><g id="elem_GMN10"><path d="M873,114.5 L873,130.5 L790.55,134.5 L873,138.5 L873,154.7656 A0,0 0 0 0 873,154.7656 L1134,154.7656 A0,0 0 0 0 1134,154.7656 L1134,124.5 L1124,114.5 L873,114.5 A0,0 0 0 0 873,114.5 " fill="#FEFFDD" style="stroke:#181818;stroke-width:0.5;"/><path d="M1124,114.5 L1124,124.5 L1134,124.5 L1124,114.5 " fill="#FEFFDD" style="stroke:#181818;stroke-width:0.5;"/><text fill="#000000" font-family="sans-serif" font-size="13" font-weight="bold" lengthAdjust="spacing" textLength="121" x="879" y="131.5669">HTTP Endpoints:</text><text fill="#000000" font-family="monospace" font-size="13" lengthAdjust="spacing" textLength="240" x="879" y="146.6997">GET&#160;/invoices/{userId}/{state}</text></g><!--link frontend to backend_service_1--><g id="link_frontend_backend_service_1"><path d="M90.01,104.5 C107.99,104.5 123.8,104.5 144.8,104.5 " fill="none" id="frontend-to-backend_service_1" style="stroke:#181818;stroke-width:1.0;"/><polygon fill="#181818" points="150.8,104.5,141.8,100.5,145.8,104.5,141.8,108.5,150.8,104.5" style="stroke:#181818;stroke-width:1.0;"/></g><!--link backend_service_1 to backend_service_2--><g id="link_backend_service_1_backend_service_2"><path d="M311.25,90.69 C337.72,86.08 361.3088,81.9587 387.7988,77.3487 " fill="none" id="backend_service_1-to-backend_service_2" style="stroke:#181818;stroke-width:1.0;"/><polygon fill="#181818" points="393.71,76.32,384.1575,73.9223,388.784,77.1773,385.5291,81.8038,393.71,76.32" style="stroke:#181818;stroke-width:1.0;"/><text fill="#000000" font-family="sans-serif" font-size="13" lengthAdjust="spacing" textLength="21" x="342" y="77.5669">JWT</text></g><!--reverse link backend_service_1_database to backend_service_1--><g id="link_backend_service_1_database_backend_service_1"><path d="M231,57.12 C231,57.12 231,79.17 231,79.17 C231,79.17 231,82.3 231,86.36 " fill="none" id="backend_service_1_database-backto-backend_service_1" style="stroke:#181818;stroke-width:1.0;"/><polygon fill="#181818" points="231,51.12,227,60.12,231,56.12,235,60.12,231,51.12" style="stroke:#181818;stroke-width:1.0;"/></g><!--link backend_service_1 to external_service_1--><g id="link_backend_service_1_external_service_1"><path d="M311.1,109.87 C352.22,112.66 394,115.5 394,115.5 C394,115.5 536.0006,123.9727 630.2206,129.5927 " fill="none" id="backend_service_1-to-external_service_1" style="stroke:#181818;stroke-width:1.0;"/><polygon fill="#181818" points="636.21,129.95,627.4641,125.4212,631.2189,129.6523,626.9878,133.407,636.21,129.95" style="stroke:#181818;stroke-width:1.0;"/><text fill="#000000" font-family="sans-serif" font-size="13" lengthAdjust="spacing" textLength="21" x="463.5" y="111.5669">JWT</text></g></g></svg>