<?xml version="1.0" encoding="us-ascii" standalone="no"?><svg xmlns="http://www.w3.org/2000/svg" xmlns:xlink="http://www.w3.org/1999/xlink" contentStyleType="text/css" height="260px" preserveAspectRatio="none" style="width:646px;height:260px;background:#FFFFFF;" version="1.1" viewBox="0 0 646 260" width="646px" zoomAndPan="magnify"><defs/><g><!--cluster Application--><g id="cluster_Application"><path d="M8.5,6 L96.5,6 A3.75,3.75 0 0 1 99,8.5 L106,28.2969 L636.5,28.2969 A2.5,2.5 0 0 1 639,30.7969 L639,173.5 A2.5,2.5 0 0 1 636.5,176 L8.5,176 A2.5,2.5 0 0 1 6,173.5 L6,8.5 A2.5,2.5 0 0 1 8.5,6 " fill="none" style="stroke:#000000;stroke-width:1.5;"/><line style="stroke:#000000;stroke-width:1.5;" x1="6" x2="106" y1="28.2969" y2="28.2969"/><text fill="#000000" font-family="sans-serif" font-size="14" font-weight="bold" lengthAdjust="spacing" textLength="87" x="10" y="20.9951">Application</text></g><!--cluster Our Team--><g id="cluster_Our Team"><rect fill="none" height="103" rx="2.5" ry="2.5" style="stroke:#181818;stroke-width:1.0;" width="585" x="30" y="49"/><path d="M117,49 L117,58.2969 L107,68.2969 L30,68.2969 " fill="none" style="stroke:#181818;stroke-width:1.0;"/><text fill="#000000" font-family="sans-serif" font-size="14" font-weight="bold" lengthAdjust="spacing" textLength="77" x="33" y="62.9951">Our Team</text></g><!--entity application__team__frontend--><g id="elem_application__team__frontend"><rect fill="#87CEEB" height="36.2969" rx="2.5" ry="2.5" style="stroke:#181818;stroke-width:2.0;" width="83" x="46" y="84"/><text fill="#000000" font-family="sans-serif" font-size="14" lengthAdjust="spacing" textLength="63" x="56" y="106.9951">Frontend</text></g><!--entity application__team__order_service--><g id="elem_application__team__order_service"><rect fill="#ADD8E6" height="36.2969" rx="2.5" ry="2.5" style="stroke:#181818;stroke-width:0.5;" width="113" x="212" y="85"/><text fill="#000000" font-family="sans-serif" font-size="14" lengthAdjust="spacing" textLength="93" x="222" y="107.9951">Order Service</text></g><g id="elem_GMN6"><path d="M386,84 L386,99.52 L325.23,103.25 L386,107.52 L386,124.2656 A0,0 0 0 0 386,124.2656 L599,124.2656 A0,0 0 0 0 599,124.2656 L599,94 L589,84 L386,84 A0,0 0 0 0 386,84 " fill="#FEFFDD" style="stroke:#181818;stroke-width:0.5;"/><path d="M589,84 L589,94 L599,94 L589,84 " fill="#FEFFDD" style="stroke:#181818;stroke-width:0.5;"/><text fill="#000000" font-family="sans-serif" font-size="13" font-weight="bold" lengthAdjust="spacing" textLength="121" x="392" y="101.0669">HTTP Endpoints:</text><text fill="#000000" font-family="monospace" font-size="13" lengthAdjust="spacing" textLength="192" x="392" y="116.1997">DELETE&#160;/orders/{orderId}</text></g><!--link application__team__frontend to application__team__order_service--><g id="link_application__team__frontend_application__team__order_service"><path d="M129.12,102.23 C153.56,102.36 179.0301,102.5064 205.7801,102.6564 " fill="none" id="application__team__frontend-to-application__team__order_service" style="stroke:#181818;stroke-width:1.0;"/><polygon fill="#181818" points="211.78,102.69,202.8026,98.6396,206.7801,102.662,202.7577,106.6395,211.78,102.69" style="stroke:#181818;stroke-width:1.0;"/><text fill="#000000" font-family="sans-serif" font-size="13" lengthAdjust="spacing" textLength="21" x="160" y="99.0669">JWT</text></g><rect fill="none" height="46.5938" id="_legend" rx="7.5" ry="7.5" style="stroke:#FFFFFF;stroke-width:1.0;" width="173" x="12" y="194"/><text fill="#000000" font-family="sans-serif" font-size="14" lengthAdjust="spacing" textLength="36" x="21" y="213.9951">Color</text><text fill="#000000" font-family="sans-serif" font-size="14" lengthAdjust="spacing" textLength="91" x="65" y="213.9951">Belongs to ...</text><rect fill="#ADD8E6" height="16.2969" style="stroke:none;stroke-width:1.0;" width="44" x="17" y="217.2969"/><text fill="#000000" font-family="sans-serif" font-size="14" lengthAdjust="spacing" textLength="4" x="17" y="230.292">&#160;</text><text fill="#000000" font-family="sans-serif" font-size="14" lengthAdjust="spacing" textLength="115" x="65" y="230.292">our components</text><line style="stroke:#000000;stroke-width:1.0;" x1="17" x2="180" y1="201" y2="201"/><line style="stroke:#000000;stroke-width:1.0;" x1="17" x2="180" y1="217.2969" y2="217.2969"/><line style="stroke:#000000;stroke-width:1.0;" x1="17" x2="180" y1="233.5938" y2="233.5938"/><line style="stroke:#000000;stroke-width:1.0;" x1="17" x2="17" y1="201" y2="233.5938"/><line style="stroke:#000000;stroke-width:1.0;" x1="61" x2="61" y1="201" y2="233.5938"/><line style="stroke:#000000;stroke-width:1.0;" x1="180" x2="180" y1="201" y2="233.5938"/></g></svg>