<?xml version="1.0" encoding="us-ascii" standalone="no"?><svg xmlns="http://www.w3.org/2000/svg" xmlns:xlink="http://www.w3.org/1999/xlink" contentStyleType="text/css" height="277px" preserveAspectRatio="none" style="width:1134px;height:277px;background:#FFFFFF;" version="1.1" viewBox="0 0 1134 277" width="1134px" zoomAndPan="magnify"><defs/><g><!--cluster Platform--><g id="cluster_Platform"><path d="M8.5,8.5 L75.5,8.5 A3.75,3.75 0 0 1 78,11 L85,30.7969 L166.5,30.7969 A2.5,2.5 0 0 1 169,33.2969 L169,160 A2.5,2.5 0 0 1 166.5,162.5 L8.5,162.5 A2.5,2.5 0 0 1 6,160 L6,11 A2.5,2.5 0 0 1 8.5,8.5 " fill="none" style="stroke:#000000;stroke-width:1.5;"/><line style="stroke:#000000;stroke-width:1.5;" x1="6" x2="85" y1="30.7969" y2="30.7969"/><text fill="#000000" font-family="sans-serif" font-size="14" font-weight="bold" lengthAdjust="spacing" textLength="66" x="10" y="23.4951">Platform</text></g><!--cluster Application--><g id="cluster_Application"><rect fill="none" height="87" rx="2.5" ry="2.5" style="stroke:#181818;stroke-width:1.0;" width="115" x="30" y="51.5"/><path d="M127,51.5 L127,60.7969 L117,70.7969 L30,70.7969 " fill="none" style="stroke:#181818;stroke-width:1.0;"/><text fill="#000000" font-family="sans-serif" font-size="14" font-weight="bold" lengthAdjust="spacing" textLength="87" x="33" y="65.4951">Application</text></g><!--entity platform__application__frontend--><g id="elem_platform__application__frontend"><rect fill="#D3D3D3" height="36.2969" rx="2.5" ry="2.5" style="stroke:#181818;stroke-width:0.5;" width="83" x="46" y="86.5"/><text fill="#000000" font-family="sans-serif" font-size="14" lengthAdjust="spacing" textLength="63" x="56" y="109.4951">Frontend</text></g><!--entity order_service--><g id="elem_order_service"><rect fill="#87CEEB" height="36.2969" rx="2.5" ry="2.5" style="stroke:#181818;stroke-width:2.0;" width="111" x="223.5" y="86.5"/><text fill="#000000" font-family="sans-serif" font-size="14" lengthAdjust="spacing" textLength="91" x="233.5" y="109.4951">order-service</text></g><!--entity order_database--><g id="elem_order_database"><path d="M216,16 C216,6 279,6 279,6 C279,6 342,6 342,16 L342,41.2969 C342,51.2969 279,51.2969 279,51.2969 C279,51.2969 216,51.2969 216,41.2969 L216,16 " fill="#F1F1F1" style="stroke:#181818;stroke-width:0.5;"/><path d="M216,16 C216,26 279,26 279,26 C279,26 342,26 342,16 " fill="none" style="stroke:#181818;stroke-width:0.5;"/><text fill="#000000" font-family="sans-serif" font-size="14" lengthAdjust="spacing" textLength="106" x="226" y="42.9951">order-database</text></g><!--entity payment_service--><g id="elem_payment_service"><rect fill="#FFE4B5" height="36.2969" rx="2.5" ry="2.5" style="stroke:#181818;stroke-width:0.5;" width="134" x="706.5" y="42.5"/><text fill="#000000" font-family="sans-serif" font-size="14" lengthAdjust="spacing" textLength="114" x="716.5" y="65.4951">payment-service</text></g><!--entity inventory_service--><g id="elem_inventory_service"><rect fill="#ADD8E6" height="36.2969" rx="2.5" ry="2.5" style="stroke:#181818;stroke-width:0.5;" width="137" x="425" y="130.5"/><text fill="#000000" font-family="sans-serif" font-size="14" lengthAdjust="spacing" textLength="117" x="435" y="153.4951">inventory-service</text></g><g id="elem_GMN9"><path d="M985,40.5 L985,56.5 L840.62,60.5 L985,64.5 L985,80.7656 A0,0 0 0 0 985,80.7656 L1127,80.7656 A0,0 0 0 0 1127,80.7656 L1127,50.5 L1117,40.5 L985,40.5 A0,0 0 0 0 985,40.5 " fill="#FEFFDD" style="stroke:#181818;stroke-width:0.5;"/><path d="M1117,40.5 L1117,50.5 L1127,50.5 L1117,40.5 " fill="#FEFFDD" style="stroke:#181818;stroke-width:0.5;"/><text fill="#000000" font-family="sans-serif" font-size="13" font-weight="bold" lengthAdjust="spacing" textLength="121" x="991" y="57.5669">HTTP Endpoints:</text><text fill="#000000" font-family="monospace" font-size="13" lengthAdjust="spacing" textLength="112" x="991" y="72.6997">POST&#160;/payments</text></g><g id="elem_GMN12"><path d="M623,121 L623,144.5 L562.15,148.5 L623,152.5 L623,176.3984 A0,0 0 0 0 623,176.3984 L924,176.3984 A0,0 0 0 0 924,176.3984 L924,131 L914,121 L623,121 A0,0 0 0 0 623,121 " fill="#FEFFDD" style="stroke:#181818;stroke-width:0.5;"/><path d="M914,121 L914,131 L924,131 L914,121 " fill="#FEFFDD" style="stroke:#181818;stroke-width:0.5;"/><text fill="#000000" font-family="sans-serif" font-size="13" font-weight="bold" lengthAdjust="spacing" textLength="121" x="629" y="138.0669">HTTP Endpoints:</text><text fill="#000000" font-family="monospace" font-size="13" lengthAdjust="spacing" textLength="216" x="629" y="153.1997">GET&#160;&#160;/inventory/{productId}</text><text fill="#000000" font-family="monospace" font-size="13" lengthAdjust="spacing" textLength="280" x="629" y="168.3325">POST&#160;/inventory/{productId}/reserve</text></g><!--link platform__application__frontend to order_service--><g id="link_platform__application__frontend_order_service"><path d="M129.15,104.5 C156.67,104.5 187.33,104.5 217.39,104.5 " fill="none" id="platform__application__frontend-to-order_service" style="stroke:#181818;stroke-width:1.0;"/><polygon fill="#181818" points="223.39,104.5,214.39,100.5,218.39,104.5,214.39,108.5,223.39,104.5" style="stroke:#181818;stroke-width:1.0;"/></g><!--reverse link order_database to order_service--><g id="link_order_database_order_service"><path d="M279,57.12 C279,57.12 279,79.17 279,79.17 C279,79.17 279,82.3 279,86.36 " fill="none" id="order_database-backto-order_service" style="stroke:#181818;stroke-width:1.0;"/><polygon fill="#181818" points="279,51.12,275,60.12,279,56.12,283,60.12,279,51.12" style="stroke:#181818;stroke-width:1.0;"/></g><!--link order_service to payment_service--><g id="link_order_service_payment_service"><path d="M334.59,99.62 C425.63,91.49 602.1438,75.7243 700.3538,66.9443 " fill="none" id="order_service-to-payment_service" style="stroke:#181818;stroke-width:1.0;"/><polygon fill="#181818" points="706.33,66.41,697.0096,63.2273,701.3499,66.8552,697.7219,71.1955,706.33,66.41" style="stroke:#181818;stroke-width:1.0;"/><text fill="#000000" font-family="sans-serif" font-size="13" lengthAdjust="spacing" textLength="21" x="483" y="75.5669">JWT</text></g><!--link order_service to inventory_service--><g id="link_order_service_inventory_service"><path d="M334.72,115.83 C362.15,121.51 389.7345,127.224 418.7745,133.234 " fill="none" id="order_service-to-inventory_service" style="stroke:#181818;stroke-width:1.0;"/><polygon fill="#181818" points="424.65,134.45,416.6474,128.7091,419.7538,133.4367,415.0261,136.543,424.65,134.45" style="stroke:#181818;stroke-width:1.0;"/><text fill="#000000" font-family="sans-serif" font-size="13" lengthAdjust="spacing" textLength="21" x="373" y="119.5669">JWT</text></g><rect fill="none" height="62.8906" id="_legend" rx="7.5" ry="7.5" style="stroke:#FFFFFF;stroke-width:1.0;" width="159" x="12" y="194.3984"/><text fill="#000000" font-family="sans-serif" font-size="14" lengthAdjust="spacing" textLength="36" x="21" y="214.3936">Color</text><text fill="#000000" font-family="sans-serif" font-size="14" lengthAdjust="spacing" textLength="91" x="65" y="214.3936">Belongs to ...</text><rect fill="#ADD8E6" height="16.2969" style="stroke:none;stroke-width:1.0;" width="44" x="17" y="217.6953"/><text fill="#000000" font-family="sans-serif" font-size="14" lengthAdjust="spacing" textLength="4" x="17" y="230.6904">&#160;</text><text fill="#000000" font-family="sans-serif" font-size="14" lengthAdjust="spacing" textLength="101" x="65" y="230.6904">our application</text><rect fill="#FFE4B5" height="16.2969" style="stroke:none;stroke-width:1.0;" width="44" x="17" y="233.9922"/><text fill="#000000" font-family="sans-serif" font-size="14" lengthAdjust="spacing" textLength="4" x="17" y="246.9873">&#160;</text><text fill="#000000" font-family="sans-serif" font-size="14" lengthAdjust="spacing" textLength="98" x="65" y="246.9873">same platform</text><line style="stroke:#000000;stroke-width:1.0;" x1="17" x2="166" y1="201.3984" y2="201.3984"/><line style="stroke:#000000;stroke-width:1.0;" x1="17" x2="166" y1="217.6953" y2="217.6953"/><line style="stroke:#000000;stroke-width:1.0;" x1="17" x2="166" y1="233.9922" y2="233.9922"/><line style="stroke:#000000;stroke-width:1.0;" x1="17" x2="166" y1="250.2891" y2="250.2891"/><line style="stroke:#000000;stroke-width:1.0;" x1="17" x2="17" y1="201.3984" y2="250.2891"/><line style="stroke:#000000;stroke-width:1.0;" x1="61" x2="61" y1="201.3984" y2="250.2891"/><line style="stroke:#000000;stroke-width:1.0;" x1="166" x2="166" y1="201.3984" y2="250.2891"/></g></svg>