<?xml version="1.0" encoding="us-ascii" standalone="no"?><svg xmlns="http://www.w3.org/2000/svg" xmlns:xlink="http://www.w3.org/1999/xlink" contentStyleType="text/css" height="770px" preserveAspectRatio="none" style="width:2226px;height:770px;background:#FFFFFF;" version="1.1" viewBox="0 0 2226 770" width="2226px" zoomAndPan="magnify"><defs/><g><!--cluster Platform--><g id="cluster_Platform"><path d="M17,12 L151,12 A7.5,7.5 0 0 1 156,17 L170,56.5938 L2207,56.5938 A5,5 0 0 1 2212,61.5938 L2212,565 A5,5 0 0 1 2207,570 L17,570 A5,5 0 0 1 12,565 L12,17 A5,5 0 0 1 17,12 " fill="none" style="stroke:#000000;stroke-width:3.0;"/><line style="stroke:#000000;stroke-width:3.0;" x1="12" x2="170" y1="56.5938" y2="56.5938"/><text fill="#000000" font-family="sans-serif" font-size="28" font-weight="bold" lengthAdjust="spacing" textLength="132" x="20" y="41.9902">Platform</text></g><!--cluster Application--><g id="cluster_Application"><rect fill="none" height="336" rx="5" ry="5" style="stroke:#181818;stroke-width:2.0;" width="1742" x="60" y="186"/><path d="M254,186 L254,204.5938 L234,224.5938 L60,224.5938 " fill="none" style="stroke:#181818;stroke-width:2.0;"/><text fill="#000000" font-family="sans-serif" font-size="28" font-weight="bold" lengthAdjust="spacing" textLength="174" x="66" y="213.9902">Application</text></g><!--entity platform__payment_service--><g id="elem_platform__payment_service"><rect fill="#FFE4B5" height="72.5938" rx="5" ry="5" style="stroke:#181818;stroke-width:1.0;" width="268" x="1335" y="82"/><text fill="#000000" font-family="sans-serif" font-size="28" lengthAdjust="spacing" textLength="228" x="1355" y="127.9902">Payment Service</text></g><g id="elem_GMN12"><path d="M1896,82 L1896,113 L1603.46,118.94 L1896,129 L1896,162.5313 A0,0 0 0 0 1896,162.5313 L2180,162.5313 A0,0 0 0 0 2180,162.5313 L2180,102 L2160,82 L1896,82 A0,0 0 0 0 1896,82 " fill="#FEFFDD" style="stroke:#181818;stroke-width:1.0;"/><path d="M2160,82 L2160,102 L2180,102 L2160,82 " fill="#FEFFDD" style="stroke:#181818;stroke-width:1.0;"/><text fill="#000000" font-family="sans-serif" font-size="26" font-weight="bold" lengthAdjust="spacing" textLength="242" x="1908" y="116.1338">HTTP Endpoints:</text><text fill="#000000" font-family="monospace" font-size="26" lengthAdjust="spacing" textLength="224" x="1908" y="146.3994">POST&#160;/payments</text></g><!--entity platform__application__frontend--><g id="elem_platform__application__frontend"><rect fill="#D3D3D3" height="72.5938" rx="5" ry="5" style="stroke:#181818;stroke-width:1.0;" width="166" x="92" y="256"/><text fill="#000000" font-family="sans-serif" font-size="28" lengthAdjust="spacing" textLength="126" x="112" y="301.9902">Frontend</text></g><!--entity platform__application__order_service--><g id="elem_platform__application__order_service"><rect fill="#87CEEB" height="72.5938" rx="5" ry="5" style="stroke:#181818;stroke-width:4.0;" width="226" x="380" y="256"/><text fill="#000000" font-family="sans-serif" font-size="28" lengthAdjust="spacing" textLength="186" x="400" y="301.9902">Order Service</text></g><!--entity platform__application__order_database--><g id="elem_platform__application__order_database"><path d="M409,419 C409,399 493,399 493,399 C493,399 577,399 577,419 L577,469.5938 C577,489.5938 493,489.5938 493,489.5938 C493,489.5938 409,489.5938 409,469.5938 L409,419 " fill="#F1F1F1" style="stroke:#181818;stroke-width:1.0;"/><path d="M409,419 C409,439 493,439 493,439 C493,439 577,439 577,419 " fill="none" style="stroke:#181818;stroke-width:1.0;"/><text fill="#000000" font-family="sans-serif" font-size="28" lengthAdjust="spacing" textLength="128" x="429" y="472.9902">database</text></g><!--entity platform__application__inventory_service--><g id="elem_platform__application__inventory_service"><rect fill="#ADD8E6" height="72.5938" rx="5" ry="5" style="stroke:#181818;stroke-width:1.0;" width="274" x="772" y="270"/><text fill="#000000" font-family="sans-serif" font-size="28" lengthAdjust="spacing" textLength="234" x="792" y="315.9902">Inventory Service</text></g><g id="elem_GMN8"><path d="M1168,257 L1168,300.76 L1046.3,307.46 L1168,316.76 L1168,367.7969 A0,0 0 0 0 1168,367.7969 L1770,367.7969 A0,0 0 0 0 1770,367.7969 L1770,277 L1750,257 L1168,257 A0,0 0 0 0 1168,257 " fill="#FEFFDD" style="stroke:#181818;stroke-width:1.0;"/><path d="M1750,257 L1750,277 L1770,277 L1750,257 " fill="#FEFFDD" style="stroke:#181818;stroke-width:1.0;"/><text fill="#000000" font-family="sans-serif" font-size="26" font-weight="bold" lengthAdjust="spacing" textLength="242" x="1180" y="291.1338">HTTP Endpoints:</text><text fill="#000000" font-family="monospace" font-size="26" lengthAdjust="spacing" textLength="432" x="1180" y="321.3994">GET&#160;&#160;/inventory/{productId}</text><text fill="#000000" font-family="monospace" font-size="26" lengthAdjust="spacing" textLength="560" x="1180" y="351.665">POST&#160;/inventory/{productId}/reserve</text></g><!--link platform__application__frontend to platform__application__order_service--><g id="link_platform__application__frontend_platform__application__order_service"><path d="M258.68,292 C295.56,292 327.72,292 367.58,292 " fill="none" id="platform__application__frontend-to-platform__application__order_service" style="stroke:#181818;stroke-width:2.0;"/><polygon fill="#181818" points="379.58,292,361.58,284,369.58,292,361.58,300,379.58,292" style="stroke:#181818;stroke-width:2.0;"/></g><!--reverse link platform__application__order_database to platform__application__order_service--><g id="link_platform__application__order_database_platform__application__order_service"><path d="M493,386.76 C493,386.76 493,342.66 493,342.66 C493,342.66 493,336.4 493,328.28 " fill="none" id="platform__application__order_database-backto-platform__application__order_service" style="stroke:#181818;stroke-width:2.0;"/><polygon fill="#181818" points="493,398.76,501,380.76,493,388.76,485,380.76,493,398.76" style="stroke:#181818;stroke-width:2.0;"/></g><!--link platform__application__order_service to platform__application__inventory_service--><g id="link_platform__application__order_service_platform__application__inventory_service"><path d="M606.2,306.3 C638.86,310.5 666,314 666,314 C666,314 712,314 712,314 C712,314 726.31,313.4103 759.57,312.0503 " fill="none" id="platform__application__order_service-to-platform__application__inventory_service" style="stroke:#181818;stroke-width:2.0;"/><polygon fill="#181818" points="771.56,311.56,753.2482,304.3021,761.5683,311.9686,753.9019,320.2887,771.56,311.56" style="stroke:#181818;stroke-width:2.0;"/><text fill="#000000" font-family="sans-serif" font-size="26" lengthAdjust="spacing" textLength="42" x="668" y="306.1338">JWT</text></g><!--link platform__application__order_service to platform__payment_service--><g id="link_platform__application__order_service_platform__payment_service"><path d="M606.08,268.74 C683.14,252.6 772,234 772,234 C772,234 1121.1636,175.7147 1322.8036,142.0747 " fill="none" id="platform__application__order_service-to-platform__payment_service" style="stroke:#181818;stroke-width:2.0;"/><polygon fill="#181818" points="1334.64,140.1,1315.5689,135.1711,1324.7763,141.7456,1318.2018,150.953,1334.64,140.1" style="stroke:#181818;stroke-width:2.0;"/><text fill="#000000" font-family="sans-serif" font-size="26" lengthAdjust="spacing" textLength="42" x="888" y="182.1338">JWT</text></g><rect fill="none" height="125.7813" id="_legend" rx="15" ry="15" style="stroke:#FFFFFF;stroke-width:2.0;" width="348" x="24" y="606"/><text fill="#000000" font-family="sans-serif" font-size="28" lengthAdjust="spacing" textLength="72" x="42" y="645.9902">Color</text><text fill="#000000" font-family="sans-serif" font-size="28" lengthAdjust="spacing" textLength="182" x="130" y="645.9902">Belongs to ...</text><rect fill="#ADD8E6" height="32.5938" style="stroke:none;stroke-width:2.0;" width="88" x="34" y="652.5938"/><text fill="#000000" font-family="sans-serif" font-size="28" lengthAdjust="spacing" textLength="8" x="34" y="678.584">&#160;</text><text fill="#000000" font-family="sans-serif" font-size="28" lengthAdjust="spacing" textLength="230" x="130" y="678.584">our components</text><rect fill="#FFE4B5" height="32.5938" style="stroke:none;stroke-width:2.0;" width="88" x="34" y="685.1875"/><text fill="#000000" font-family="sans-serif" font-size="28" lengthAdjust="spacing" textLength="8" x="34" y="711.1777">&#160;</text><text fill="#000000" font-family="sans-serif" font-size="28" lengthAdjust="spacing" textLength="232" x="130" y="711.1777">same application</text><line style="stroke:#000000;stroke-width:2.0;" x1="34" x2="362" y1="620" y2="620"/><line style="stroke:#000000;stroke-width:2.0;" x1="34" x2="362" y1="652.5938" y2="652.5938"/><line style="stroke:#000000;stroke-width:2.0;" x1="34" x2="362" y1="685.1875" y2="685.1875"/><line style="stroke:#000000;stroke-width:2.0;" x1="34" x2="362" y1="717.7813" y2="717.7813"/><line style="stroke:#000000;stroke-width:2.0;" x1="34" x2="34" y1="620" y2="717.7813"/><line style="stroke:#000000;stroke-width:2.0;" x1="122" x2="122" y1="620" y2="717.7813"/><line style="stroke:#000000;stroke-width:2.0;" x1="362" x2="362" y1="620" y2="717.7813"/></g></svg>