<?xml version="1.0" encoding="us-ascii" standalone="no"?><svg xmlns="http://www.w3.org/2000/svg" xmlns:xlink="http://www.w3.org/1999/xlink" contentStyleType="text/css" height="385px" preserveAspectRatio="none" style="width:1113px;height:385px;background:#FFFFFF;" version="1.1" viewBox="0 0 1113 385" width="1113px" zoomAndPan="magnify"><defs/><g><!--cluster Platform--><g id="cluster_Platform"><path d="M8.5,6 L75.5,6 A3.75,3.75 0 0 1 78,8.5 L85,28.2969 L1103.5,28.2969 A2.5,2.5 0 0 1 1106,30.7969 L1106,282.5 A2.5,2.5 0 0 1 1103.5,285 L8.5,285 A2.5,2.5 0 0 1 6,282.5 L6,8.5 A2.5,2.5 0 0 1 8.5,6 " fill="none" style="stroke:#000000;stroke-width:1.5;"/><line style="stroke:#000000;stroke-width:1.5;" x1="6" x2="85" y1="28.2969" y2="28.2969"/><text fill="#000000" font-family="sans-serif" font-size="14" font-weight="bold" lengthAdjust="spacing" textLength="66" x="10" y="20.9951">Platform</text></g><!--cluster Application--><g id="cluster_Application"><rect fill="none" height="168" rx="2.5" ry="2.5" style="stroke:#181818;stroke-width:1.0;" width="871" x="30" y="93"/><path d="M127,93 L127,102.2969 L117,112.2969 L30,112.2969 " fill="none" style="stroke:#181818;stroke-width:1.0;"/><text fill="#000000" font-family="sans-serif" font-size="14" font-weight="bold" lengthAdjust="spacing" textLength="87" x="33" y="106.9951">Application</text></g><!--entity platform__payment_service--><g id="elem_platform__payment_service"><rect fill="#FFE4B5" height="36.2969" rx="2.5" ry="2.5" style="stroke:#181818;stroke-width:0.5;" width="134" x="667.5" y="41"/><text fill="#000000" font-family="sans-serif" font-size="14" lengthAdjust="spacing" textLength="114" x="677.5" y="63.9951">Payment Service</text></g><g id="elem_GMN12"><path d="M948,41 L948,56.5 L801.73,59.47 L948,64.5 L948,81.2656 A0,0 0 0 0 948,81.2656 L1090,81.2656 A0,0 0 0 0 1090,81.2656 L1090,51 L1080,41 L948,41 A0,0 0 0 0 948,41 " fill="#FEFFDD" style="stroke:#181818;stroke-width:0.5;"/><path d="M1080,41 L1080,51 L1090,51 L1080,41 " fill="#FEFFDD" style="stroke:#181818;stroke-width:0.5;"/><text fill="#000000" font-family="sans-serif" font-size="13" font-weight="bold" lengthAdjust="spacing" textLength="121" x="954" y="58.0669">HTTP Endpoints:</text><text fill="#000000" font-family="monospace" font-size="13" lengthAdjust="spacing" textLength="112" x="954" y="73.1997">POST&#160;/payments</text></g><!--entity platform__application__frontend--><g id="elem_platform__application__frontend"><rect fill="#D3D3D3" height="36.2969" rx="2.5" ry="2.5" style="stroke:#181818;stroke-width:0.5;" width="83" x="46" y="128"/><text fill="#000000" font-family="sans-serif" font-size="14" lengthAdjust="spacing" textLength="63" x="56" y="150.9951">Frontend</text></g><!--entity platform__application__order_service--><g id="elem_platform__application__order_service"><rect fill="#87CEEB" height="36.2969" rx="2.5" ry="2.5" style="stroke:#181818;stroke-width:2.0;" width="113" x="190" y="128"/><text fill="#000000" font-family="sans-serif" font-size="14" lengthAdjust="spacing" textLength="93" x="200" y="150.9951">Order Service</text></g><!--entity platform__application__order_database--><g id="elem_platform__application__order_database"><path d="M204.5,209.5 C204.5,199.5 246.5,199.5 246.5,199.5 C246.5,199.5 288.5,199.5 288.5,209.5 L288.5,234.7969 C288.5,244.7969 246.5,244.7969 246.5,244.7969 C246.5,244.7969 204.5,244.7969 204.5,234.7969 L204.5,209.5 " fill="#F1F1F1" style="stroke:#181818;stroke-width:0.5;"/><path d="M204.5,209.5 C204.5,219.5 246.5,219.5 246.5,219.5 C246.5,219.5 288.5,219.5 288.5,209.5 " fill="none" style="stroke:#181818;stroke-width:0.5;"/><text fill="#000000" font-family="sans-serif" font-size="14" lengthAdjust="spacing" textLength="64" x="214.5" y="236.4951">database</text></g><!--entity platform__application__inventory_service--><g id="elem_platform__application__inventory_service"><rect fill="#ADD8E6" height="36.2969" rx="2.5" ry="2.5" style="stroke:#181818;stroke-width:0.5;" width="137" x="386" y="135"/><text fill="#000000" font-family="sans-serif" font-size="14" lengthAdjust="spacing" textLength="117" x="396" y="157.9951">Inventory Service</text></g><g id="elem_GMN8"><path d="M584,128.5 L584,150.38 L523.15,153.73 L584,158.38 L584,183.8984 A0,0 0 0 0 584,183.8984 L885,183.8984 A0,0 0 0 0 885,183.8984 L885,138.5 L875,128.5 L584,128.5 A0,0 0 0 0 584,128.5 " fill="#FEFFDD" style="stroke:#181818;stroke-width:0.5;"/><path d="M875,128.5 L875,138.5 L885,138.5 L875,128.5 " fill="#FEFFDD" style="stroke:#181818;stroke-width:0.5;"/><text fill="#000000" font-family="sans-serif" font-size="13" font-weight="bold" lengthAdjust="spacing" textLength="121" x="590" y="145.5669">HTTP Endpoints:</text><text fill="#000000" font-family="monospace" font-size="13" lengthAdjust="spacing" textLength="216" x="590" y="160.6997">GET&#160;&#160;/inventory/{productId}</text><text fill="#000000" font-family="monospace" font-size="13" lengthAdjust="spacing" textLength="280" x="590" y="175.8325">POST&#160;/inventory/{productId}/reserve</text></g><!--link platform__application__frontend to platform__application__order_service--><g id="link_platform__application__frontend_platform__application__order_service"><path d="M129.34,146 C147.78,146 163.86,146 183.79,146 " fill="none" id="platform__application__frontend-to-platform__application__order_service" style="stroke:#181818;stroke-width:1.0;"/><polygon fill="#181818" points="189.79,146,180.79,142,184.79,146,180.79,150,189.79,146" style="stroke:#181818;stroke-width:1.0;"/></g><!--reverse link platform__application__order_database to platform__application__order_service--><g id="link_platform__application__order_database_platform__application__order_service"><path d="M246.5,193.38 C246.5,193.38 246.5,171.33 246.5,171.33 C246.5,171.33 246.5,168.2 246.5,164.14 " fill="none" id="platform__application__order_database-backto-platform__application__order_service" style="stroke:#181818;stroke-width:1.0;"/><polygon fill="#181818" points="246.5,199.38,250.5,190.38,246.5,194.38,242.5,190.38,246.5,199.38" style="stroke:#181818;stroke-width:1.0;"/></g><!--link platform__application__order_service to platform__application__inventory_service--><g id="link_platform__application__order_service_platform__application__inventory_service"><path d="M303.1,153.15 C319.43,155.25 333,157 333,157 C333,157 356,157 356,157 C356,157 363.155,156.7051 379.785,156.0251 " fill="none" id="platform__application__order_service-to-platform__application__inventory_service" style="stroke:#181818;stroke-width:1.0;"/><polygon fill="#181818" points="385.78,155.78,376.6241,152.151,380.7842,155.9843,376.9509,160.1444,385.78,155.78" style="stroke:#181818;stroke-width:1.0;"/><text fill="#000000" font-family="sans-serif" font-size="13" lengthAdjust="spacing" textLength="21" x="334" y="153.0669">JWT</text></g><!--link platform__application__order_service to platform__payment_service--><g id="link_platform__application__order_service_platform__payment_service"><path d="M303.04,134.37 C341.57,126.3 386,117 386,117 C386,117 560.5818,87.8573 661.4018,71.0373 " fill="none" id="platform__application__order_service-to-platform__payment_service" style="stroke:#181818;stroke-width:1.0;"/><polygon fill="#181818" points="667.32,70.05,657.7845,67.5855,662.3882,70.8728,659.1009,75.4765,667.32,70.05" style="stroke:#181818;stroke-width:1.0;"/><text fill="#000000" font-family="sans-serif" font-size="13" lengthAdjust="spacing" textLength="21" x="444" y="91.0669">JWT</text></g><rect fill="none" height="62.8906" id="_legend" rx="7.5" ry="7.5" style="stroke:#FFFFFF;stroke-width:1.0;" width="159" x="12" y="303"/><text fill="#000000" font-family="sans-serif" font-size="14" lengthAdjust="spacing" textLength="36" x="21" y="322.9951">Color</text><text fill="#000000" font-family="sans-serif" font-size="14" lengthAdjust="spacing" textLength="91" x="65" y="322.9951">Belongs to ...</text><rect fill="#ADD8E6" height="16.2969" style="stroke:none;stroke-width:1.0;" width="44" x="17" y="326.2969"/><text fill="#000000" font-family="sans-serif" font-size="14" lengthAdjust="spacing" textLength="4" x="17" y="339.292">&#160;</text><text fill="#000000" font-family="sans-serif" font-size="14" lengthAdjust="spacing" textLength="101" x="65" y="339.292">our application</text><rect fill="#FFE4B5" height="16.2969" style="stroke:none;stroke-width:1.0;" width="44" x="17" y="342.5938"/><text fill="#000000" font-family="sans-serif" font-size="14" lengthAdjust="spacing" textLength="4" x="17" y="355.5889">&#160;</text><text fill="#000000" font-family="sans-serif" font-size="14" lengthAdjust="spacing" textLength="98" x="65" y="355.5889">same platform</text><line style="stroke:#000000;stroke-width:1.0;" x1="17" x2="166" y1="310" y2="310"/><line style="stroke:#000000;stroke-width:1.0;" x1="17" x2="166" y1="326.2969" y2="326.2969"/><line style="stroke:#000000;stroke-width:1.0;" x1="17" x2="166" y1="342.5938" y2="342.5938"/><line style="stroke:#000000;stroke-width:1.0;" x1="17" x2="166" y1="358.8906" y2="358.8906"/><line style="stroke:#000000;stroke-width:1.0;" x1="17" x2="17" y1="310" y2="358.8906"/><line style="stroke:#000000;stroke-width:1.0;" x1="61" x2="61" y1="310" y2="358.8906"/><line style="stroke:#000000;stroke-width:1.0;" x1="166" x2="166" y1="310" y2="358.8906"/></g></svg>