<?xml version="1.0" encoding="us-ascii" standalone="no"?><svg xmlns="http://www.w3.org/2000/svg" xmlns:xlink="http://www.w3.org/1999/xlink" contentStyleType="text/css" height="530px" preserveAspectRatio="none" style="width:1358px;height:530px;background:#FFFFFF;" version="1.1" viewBox="0 0 1358 530" width="1358px" zoomAndPan="magnify"><defs/><g><!--entity platform__application__order_service--><g id="elem_platform__application__order_service"><rect fill="#ADD8E6" height="72.5938" rx="5" ry="5" style="stroke:#181818;stroke-width:1.0;" width="226" x="300" y="156"/><text fill="#000000" font-family="sans-serif" font-size="28" lengthAdjust="spacing" textLength="186" x="320" y="201.9902">Order Service</text></g><!--entity platform__application__frontend--><g id="elem_platform__application__frontend"><rect fill="#ADD8E6" height="72.5938" rx="5" ry="5" style="stroke:#181818;stroke-width:1.0;" width="166" x="14" y="156"/><text fill="#000000" font-family="sans-serif" font-size="28" lengthAdjust="spacing" textLength="126" x="34" y="201.9902">Frontend</text></g><!--entity platform__application__inventory_service--><g id="elem_platform__application__inventory_service"><rect fill="#ADD8E6" height="72.5938" rx="5" ry="5" style="stroke:#181818;stroke-width:1.0;" width="274" x="646" y="84"/><text fill="#000000" font-family="sans-serif" font-size="28" lengthAdjust="spacing" textLength="234" x="666" y="129.9902">Inventory Service</text></g><!--entity platform__payment_service--><g id="elem_platform__payment_service"><rect fill="#FFE4B5" height="72.5938" rx="5" ry="5" style="stroke:#181818;stroke-width:1.0;" width="268" x="649" y="226"/><text fill="#000000" font-family="sans-serif" font-size="28" lengthAdjust="spacing" textLength="228" x="669" y="271.9902">Payment Service</text></g><!--entity platform__notification_service--><g id="elem_platform__notification_service"><rect fill="#FFE4B5" height="72.5938" rx="5" ry="5" style="stroke:#181818;stroke-width:1.0;" width="300" x="1043" y="14"/><text fill="#000000" font-family="sans-serif" font-size="28" lengthAdjust="spacing" textLength="260" x="1063" y="59.9902">Notification Service</text></g><!--entity other_project__warehouse_service--><g id="elem_other_project__warehouse_service"><rect fill="#F08080" height="72.5938" rx="5" ry="5" style="stroke:#181818;stroke-width:1.0;" width="306" x="1040" y="156"/><text fill="#000000" font-family="sans-serif" font-size="28" lengthAdjust="spacing" textLength="266" x="1060" y="201.9902">Warehouse Service</text></g><!--link platform__application__order_service to platform__application__inventory_service--><g id="link_platform__application__order_service_platform__application__inventory_service"><path d="M414,155.16 C414,137.44 414,120 414,120 C414,120 528.68,120 633.6,120 " fill="none" id="platform__application__order_service-to-platform__application__inventory_service" style="stroke:#181818;stroke-width:2.0;"/><polygon fill="#181818" points="645.6,120,627.6,112,635.6,120,627.6,128,645.6,120" style="stroke:#181818;stroke-width:2.0;"/><text fill="#000000" font-family="sans-serif" font-size="26" lengthAdjust="spacing" textLength="42" x="468.22" y="146.1338">JWT</text></g><!--link platform__application__order_service to platform__payment_service--><g id="link_platform__application__order_service_platform__payment_service"><path d="M414,228.34 C414,245.8 414,263 414,263 C414,263 531.24,263 636.74,263 " fill="none" id="platform__application__order_service-to-platform__payment_service" style="stroke:#181818;stroke-width:2.0;"/><polygon fill="#181818" points="648.74,263,630.74,255,638.74,263,630.74,271,648.74,263" style="stroke:#181818;stroke-width:2.0;"/><text fill="#000000" font-family="sans-serif" font-size="26" lengthAdjust="spacing" textLength="42" x="470.04" y="289.1338">JWT</text></g><!--link platform__application__frontend to platform__application__order_service--><g id="link_platform__application__frontend_platform__application__order_service"><path d="M180.02,192 C216.6,192 248.14,192 287.64,192 " fill="none" id="platform__application__frontend-to-platform__application__order_service" style="stroke:#181818;stroke-width:2.0;"/><polygon fill="#181818" points="299.64,192,281.64,184,289.64,192,281.64,200,299.64,192" style="stroke:#181818;stroke-width:2.0;"/><text fill="#000000" font-family="sans-serif" font-size="26" lengthAdjust="spacing" textLength="42" x="195.84" y="218.1338">JWT</text></g><!--link platform__application__inventory_service to platform__notification_service--><g id="link_platform__application__inventory_service_platform__notification_service"><path d="M784,83.66 C784,66.2 784,49 784,49 C784,49 913.82,49 1030.44,49 " fill="none" id="platform__application__inventory_service-to-platform__notification_service" style="stroke:#181818;stroke-width:2.0;"/><polygon fill="#181818" points="1042.44,49,1024.44,41,1032.44,49,1024.44,57,1042.44,49" style="stroke:#181818;stroke-width:2.0;"/><text fill="#000000" font-family="sans-serif" font-size="26" lengthAdjust="spacing" textLength="42" x="851.88" y="75.1338">JWT</text></g><!--link platform__application__inventory_service to other_project__warehouse_service--><g id="link_platform__application__inventory_service_other_project__warehouse_service"><path d="M784,156.34 C784,173.8 784,191 784,191 C784,191 911.48,191 1027.54,191 " fill="none" id="platform__application__inventory_service-to-other_project__warehouse_service" style="stroke:#181818;stroke-width:2.0;"/><polygon fill="#181818" points="1039.54,191,1021.54,183,1029.54,191,1021.54,199,1039.54,191" style="stroke:#181818;stroke-width:2.0;"/><text fill="#000000" font-family="sans-serif" font-size="26" lengthAdjust="spacing" textLength="138" x="754.44" y="217.1338">Basic-Auth</text></g><rect fill="none" height="158.375" id="_legend" rx="15" ry="15" style="stroke:#FFFFFF;stroke-width:2.0;" width="348" x="24" y="333.2656"/><text fill="#000000" font-family="sans-serif" font-size="28" lengthAdjust="spacing" textLength="72" x="42" y="373.2559">Color</text><text fill="#000000" font-family="sans-serif" font-size="28" lengthAdjust="spacing" textLength="182" x="130" y="373.2559">Belongs to ...</text><rect fill="#ADD8E6" height="32.5938" style="stroke:none;stroke-width:2.0;" width="88" x="34" y="379.8594"/><text fill="#000000" font-family="sans-serif" font-size="28" lengthAdjust="spacing" textLength="8" x="34" y="405.8496">&#160;</text><text fill="#000000" font-family="sans-serif" font-size="28" lengthAdjust="spacing" textLength="230" x="130" y="405.8496">our components</text><rect fill="#FFE4B5" height="32.5938" style="stroke:none;stroke-width:2.0;" width="88" x="34" y="412.4531"/><text fill="#000000" font-family="sans-serif" font-size="28" lengthAdjust="spacing" textLength="8" x="34" y="438.4434">&#160;</text><text fill="#000000" font-family="sans-serif" font-size="28" lengthAdjust="spacing" textLength="232" x="130" y="438.4434">same application</text><rect fill="#F08080" height="32.5938" style="stroke:none;stroke-width:2.0;" width="88" x="34" y="445.0469"/><text fill="#000000" font-family="sans-serif" font-size="28" lengthAdjust="spacing" textLength="8" x="34" y="471.0371">&#160;</text><text fill="#000000" font-family="sans-serif" font-size="28" lengthAdjust="spacing" textLength="122" x="130" y="471.0371">3rd party</text><line style="stroke:#000000;stroke-width:2.0;" x1="34" x2="362" y1="347.2656" y2="347.2656"/><line style="stroke:#000000;stroke-width:2.0;" x1="34" x2="362" y1="379.8594" y2="379.8594"/><line style="stroke:#000000;stroke-width:2.0;" x1="34" x2="362" y1="412.4531" y2="412.4531"/><line style="stroke:#000000;stroke-width:2.0;" x1="34" x2="362" y1="445.0469" y2="445.0469"/><line style="stroke:#000000;stroke-width:2.0;" x1="34" x2="362" y1="477.6406" y2="477.6406"/><line style="stroke:#000000;stroke-width:2.0;" x1="34" x2="34" y1="347.2656" y2="477.6406"/><line style="stroke:#000000;stroke-width:2.0;" x1="122" x2="122" y1="347.2656" y2="477.6406"/><line style="stroke:#000000;stroke-width:2.0;" x1="362" x2="362" y1="347.2656" y2="477.6406"/></g></svg>