<?xml version="1.0" encoding="us-ascii" standalone="no"?><svg xmlns="http://www.w3.org/2000/svg" xmlns:xlink="http://www.w3.org/1999/xlink" contentStyleType="text/css" height="265px" preserveAspectRatio="none" style="width:679px;height:265px;background:#FFFFFF;" version="1.1" viewBox="0 0 679 265" width="679px" zoomAndPan="magnify"><defs/><g><!--entity application__team__order_service--><g id="elem_application__team__order_service"><rect fill="#ADD8E6" height="36.2969" rx="2.5" ry="2.5" style="stroke:#181818;stroke-width:0.5;" width="113" x="150" y="78"/><text fill="#000000" font-family="sans-serif" font-size="14" lengthAdjust="spacing" textLength="93" x="160" y="100.9951">Order Service</text></g><!--entity application__team__frontend--><g id="elem_application__team__frontend"><rect fill="#ADD8E6" height="36.2969" rx="2.5" ry="2.5" style="stroke:#181818;stroke-width:0.5;" width="83" x="7" y="78"/><text fill="#000000" font-family="sans-serif" font-size="14" lengthAdjust="spacing" textLength="63" x="17" y="100.9951">Frontend</text></g><!--entity application__team__inventory_service--><g id="elem_application__team__inventory_service"><rect fill="#ADD8E6" height="36.2969" rx="2.5" ry="2.5" style="stroke:#181818;stroke-width:0.5;" width="137" x="323" y="42"/><text fill="#000000" font-family="sans-serif" font-size="14" lengthAdjust="spacing" textLength="117" x="333" y="64.9951">Inventory Service</text></g><!--entity application__payment_service--><g id="elem_application__payment_service"><rect fill="#FFE4B5" height="36.2969" rx="2.5" ry="2.5" style="stroke:#181818;stroke-width:0.5;" width="134" x="324.5" y="113"/><text fill="#000000" font-family="sans-serif" font-size="14" lengthAdjust="spacing" textLength="114" x="334.5" y="135.9951">Payment Service</text></g><!--entity application__notification_service--><g id="elem_application__notification_service"><rect fill="#FFE4B5" height="36.2969" rx="2.5" ry="2.5" style="stroke:#181818;stroke-width:0.5;" width="150" x="521.5" y="7"/><text fill="#000000" font-family="sans-serif" font-size="14" lengthAdjust="spacing" textLength="130" x="531.5" y="29.9951">Notification Service</text></g><!--entity third_party__warehouse_service--><g id="elem_third_party__warehouse_service"><rect fill="#F08080" height="36.2969" rx="2.5" ry="2.5" style="stroke:#181818;stroke-width:0.5;" width="153" x="520" y="78"/><text fill="#000000" font-family="sans-serif" font-size="14" lengthAdjust="spacing" textLength="133" x="530" y="100.9951">Warehouse Service</text></g><!--link application__team__order_service to application__team__inventory_service--><g id="link_application__team__order_service_application__team__inventory_service"><path d="M207,77.58 C207,68.72 207,60 207,60 C207,60 264.34,60 316.8,60 " fill="none" id="application__team__order_service-to-application__team__inventory_service" style="stroke:#181818;stroke-width:1.0;"/><polygon fill="#181818" points="322.8,60,313.8,56,317.8,60,313.8,64,322.8,60" style="stroke:#181818;stroke-width:1.0;"/><text fill="#000000" font-family="sans-serif" font-size="13" lengthAdjust="spacing" textLength="21" x="234.11" y="73.0669">JWT</text></g><!--link application__team__order_service to application__payment_service--><g id="link_application__team__order_service_application__payment_service"><path d="M207,114.17 C207,122.9 207,131.5 207,131.5 C207,131.5 265.62,131.5 318.37,131.5 " fill="none" id="application__team__order_service-to-application__payment_service" style="stroke:#181818;stroke-width:1.0;"/><polygon fill="#181818" points="324.37,131.5,315.37,127.5,319.37,131.5,315.37,135.5,324.37,131.5" style="stroke:#181818;stroke-width:1.0;"/><text fill="#000000" font-family="sans-serif" font-size="13" lengthAdjust="spacing" textLength="21" x="235.02" y="144.5669">JWT</text></g><!--link application__team__frontend to application__team__order_service--><g id="link_application__team__frontend_application__team__order_service"><path d="M90.01,96 C108.3,96 124.07,96 143.82,96 " fill="none" id="application__team__frontend-to-application__team__order_service" style="stroke:#181818;stroke-width:1.0;"/><polygon fill="#181818" points="149.82,96,140.82,92,144.82,96,140.82,100,149.82,96" style="stroke:#181818;stroke-width:1.0;"/><text fill="#000000" font-family="sans-serif" font-size="13" lengthAdjust="spacing" textLength="21" x="97.92" y="109.0669">JWT</text></g><!--link application__team__inventory_service to application__notification_service--><g id="link_application__team__inventory_service_application__notification_service"><path d="M392,41.83 C392,33.1 392,24.5 392,24.5 C392,24.5 456.91,24.5 515.22,24.5 " fill="none" id="application__team__inventory_service-to-application__notification_service" style="stroke:#181818;stroke-width:1.0;"/><polygon fill="#181818" points="521.22,24.5,512.22,20.5,516.22,24.5,512.22,28.5,521.22,24.5" style="stroke:#181818;stroke-width:1.0;"/><text fill="#000000" font-family="sans-serif" font-size="13" lengthAdjust="spacing" textLength="21" x="425.94" y="37.5669">JWT</text></g><!--link application__team__inventory_service to third_party__warehouse_service--><g id="link_application__team__inventory_service_third_party__warehouse_service"><path d="M392,78.17 C392,86.9 392,95.5 392,95.5 C392,95.5 455.74,95.5 513.77,95.5 " fill="none" id="application__team__inventory_service-to-third_party__warehouse_service" style="stroke:#181818;stroke-width:1.0;"/><polygon fill="#181818" points="519.77,95.5,510.77,91.5,514.77,95.5,510.77,99.5,519.77,95.5" style="stroke:#181818;stroke-width:1.0;"/><text fill="#000000" font-family="sans-serif" font-size="13" lengthAdjust="spacing" textLength="69" x="377.22" y="108.5669">Basic-Auth</text></g><rect fill="none" height="79.1875" id="_legend" rx="7.5" ry="7.5" style="stroke:#FFFFFF;stroke-width:1.0;" width="174" x="12" y="166.6328"/><text fill="#000000" font-family="sans-serif" font-size="14" lengthAdjust="spacing" textLength="36" x="21" y="186.6279">Color</text><text fill="#000000" font-family="sans-serif" font-size="14" lengthAdjust="spacing" textLength="91" x="65" y="186.6279">Belongs to ...</text><rect fill="#ADD8E6" height="16.2969" style="stroke:none;stroke-width:1.0;" width="44" x="17" y="189.9297"/><text fill="#000000" font-family="sans-serif" font-size="14" lengthAdjust="spacing" textLength="4" x="17" y="202.9248">&#160;</text><text fill="#000000" font-family="sans-serif" font-size="14" lengthAdjust="spacing" textLength="115" x="65" y="202.9248">our components</text><rect fill="#FFE4B5" height="16.2969" style="stroke:none;stroke-width:1.0;" width="44" x="17" y="206.2266"/><text fill="#000000" font-family="sans-serif" font-size="14" lengthAdjust="spacing" textLength="4" x="17" y="219.2217">&#160;</text><text fill="#000000" font-family="sans-serif" font-size="14" lengthAdjust="spacing" textLength="116" x="65" y="219.2217">same application</text><rect fill="#F08080" height="16.2969" style="stroke:none;stroke-width:1.0;" width="44" x="17" y="222.5234"/><text fill="#000000" font-family="sans-serif" font-size="14" lengthAdjust="spacing" textLength="4" x="17" y="235.5186">&#160;</text><text fill="#000000" font-family="sans-serif" font-size="14" lengthAdjust="spacing" textLength="61" x="65" y="235.5186">3rd party</text><line style="stroke:#000000;stroke-width:1.0;" x1="17" x2="181" y1="173.6328" y2="173.6328"/><line style="stroke:#000000;stroke-width:1.0;" x1="17" x2="181" y1="189.9297" y2="189.9297"/><line style="stroke:#000000;stroke-width:1.0;" x1="17" x2="181" y1="206.2266" y2="206.2266"/><line style="stroke:#000000;stroke-width:1.0;" x1="17" x2="181" y1="222.5234" y2="222.5234"/><line style="stroke:#000000;stroke-width:1.0;" x1="17" x2="181" y1="238.8203" y2="238.8203"/><line style="stroke:#000000;stroke-width:1.0;" x1="17" x2="17" y1="173.6328" y2="238.8203"/><line style="stroke:#000000;stroke-width:1.0;" x1="61" x2="61" y1="173.6328" y2="238.8203"/><line style="stroke:#000000;stroke-width:1.0;" x1="181" x2="181" y1="173.6328" y2="238.8203"/></g></svg>