<?xml version="1.0" encoding="us-ascii" standalone="no"?><svg xmlns="http://www.w3.org/2000/svg" xmlns:xlink="http://www.w3.org/1999/xlink" contentStyleType="text/css" height="155px" preserveAspectRatio="none" style="width:750px;height:155px;background:#FFFFFF;" version="1.1" viewBox="0 0 750 155" width="750px" zoomAndPan="magnify"><defs/><g><!--entity platform__application__frontend--><g id="elem_platform__application__frontend"><rect fill="#ADD8E6" height="36.2969" rx="2.5" ry="2.5" style="stroke:#181818;stroke-width:0.5;" width="83" x="7" y="78"/><text fill="#000000" font-family="sans-serif" font-size="14" lengthAdjust="spacing" textLength="63" x="17" y="100.9951">Frontend</text></g><!--entity platform__application__backend_service_2--><g id="elem_platform__application__backend_service_2"><rect fill="#ADD8E6" height="36.2969" rx="2.5" ry="2.5" style="stroke:#181818;stroke-width:0.5;" width="160" x="370" y="42"/><text fill="#000000" font-family="sans-serif" font-size="14" lengthAdjust="spacing" textLength="140" x="380" y="64.9951">Backend Service #2</text></g><!--entity platform__application__backend_service_1--><g id="elem_platform__application__backend_service_1"><rect fill="#ADD8E6" height="36.2969" rx="2.5" ry="2.5" style="stroke:#181818;stroke-width:0.5;" width="160" x="150" y="78"/><text fill="#000000" font-family="sans-serif" font-size="14" lengthAdjust="spacing" textLength="140" x="160" y="100.9951">Backend Service #1</text></g><!--entity platform__external_service_2--><g id="elem_platform__external_service_2"><rect fill="#FFE4B5" height="36.2969" rx="2.5" ry="2.5" style="stroke:#181818;stroke-width:0.5;" width="154" x="590" y="7"/><text fill="#000000" font-family="sans-serif" font-size="14" lengthAdjust="spacing" textLength="134" x="600" y="29.9951">External Service #2</text></g><!--entity other_project__external_service_3--><g id="elem_other_project__external_service_3"><rect fill="#F08080" height="36.2969" rx="2.5" ry="2.5" style="stroke:#181818;stroke-width:0.5;" width="154" x="590" y="78"/><text fill="#000000" font-family="sans-serif" font-size="14" lengthAdjust="spacing" textLength="134" x="600" y="100.9951">External Service #3</text></g><!--entity platform__external_service_1--><g id="elem_platform__external_service_1"><rect fill="#FFE4B5" height="36.2969" rx="2.5" ry="2.5" style="stroke:#181818;stroke-width:0.5;" width="154" x="373" y="113"/><text fill="#000000" font-family="sans-serif" font-size="14" lengthAdjust="spacing" textLength="134" x="383" y="135.9951">External Service #1</text></g><!--link platform__application__frontend to platform__application__backend_service_1--><g id="link_platform__application__frontend_platform__application__backend_service_1"><path d="M90.14,96 C107.93,96 123.33,96 143.97,96 " fill="none" id="platform__application__frontend-to-platform__application__backend_service_1" style="stroke:#181818;stroke-width:1.0;"/><polygon fill="#181818" points="149.97,96,140.97,92,144.97,96,140.97,100,149.97,96" style="stroke:#181818;stroke-width:1.0;"/><text fill="#000000" font-family="sans-serif" font-size="13" lengthAdjust="spacing" textLength="21" x="98.06" y="109.0669">JWT</text></g><!--link platform__application__backend_service_2 to platform__external_service_2--><g id="link_platform__application__backend_service_2_platform__external_service_2"><path d="M530.03,54.67 C582.72,54.67 642,54.67 642,54.67 C642,54.67 642,55.39 642,49.28 " fill="none" id="platform__application__backend_service_2-to-platform__external_service_2" style="stroke:#181818;stroke-width:1.0;"/><polygon fill="#181818" points="642,43.28,638,52.28,642,48.28,646,52.28,642,43.28" style="stroke:#181818;stroke-width:1.0;"/><text fill="#000000" font-family="sans-serif" font-size="13" lengthAdjust="spacing" textLength="21" x="569.71" y="67.7369">JWT</text></g><!--link platform__application__backend_service_2 to other_project__external_service_3--><g id="link_platform__application__backend_service_2_other_project__external_service_3"><path d="M530.24,66.33 C601.02,66.33 693,66.33 693,66.33 C693,66.33 693,65.61 693,71.72 " fill="none" id="platform__application__backend_service_2-to-other_project__external_service_3" style="stroke:#181818;stroke-width:1.0;"/><polygon fill="#181818" points="693,77.72,697,68.72,693,72.72,689,68.72,693,77.72" style="stroke:#181818;stroke-width:1.0;"/><text fill="#000000" font-family="sans-serif" font-size="13" lengthAdjust="spacing" textLength="69" x="618.31" y="62.3969">Basic-Auth</text></g><!--link platform__application__backend_service_1 to platform__external_service_1--><g id="link_platform__application__backend_service_1_platform__external_service_1"><path d="M310.16,101.33 C363.94,101.33 425,101.33 425,101.33 C425,101.33 425,100.61 425,106.72 " fill="none" id="platform__application__backend_service_1-to-platform__external_service_1" style="stroke:#181818;stroke-width:1.0;"/><polygon fill="#181818" points="425,112.72,429,103.72,425,107.72,421,103.72,425,112.72" style="stroke:#181818;stroke-width:1.0;"/><text fill="#000000" font-family="sans-serif" font-size="13" lengthAdjust="spacing" textLength="21" x="351.27" y="97.3969">JWT</text></g><!--link platform__application__backend_service_1 to platform__application__backend_service_2--><g id="link_platform__application__backend_service_1_platform__application__backend_service_2"><path d="M310.21,89.67 C382,89.67 476,89.67 476,89.67 C476,89.67 476,90.39 476,84.28 " fill="none" id="platform__application__backend_service_1-to-platform__application__backend_service_2" style="stroke:#181818;stroke-width:1.0;"/><polygon fill="#181818" points="476,78.28,472,87.28,476,83.28,480,87.28,476,78.28" style="stroke:#181818;stroke-width:1.0;"/><text fill="#000000" font-family="sans-serif" font-size="13" lengthAdjust="spacing" textLength="21" x="376.8" y="102.7369">JWT</text></g></g></svg>