<?xml version="1.0" encoding="us-ascii" standalone="no"?><svg xmlns="http://www.w3.org/2000/svg" xmlns:xlink="http://www.w3.org/1999/xlink" contentStyleType="text/css" height="336px" preserveAspectRatio="none" style="width:778px;height:336px;background:#FFFFFF;" version="1.1" viewBox="0 0 778 336" width="778px" zoomAndPan="magnify"><defs/><g><!--entity platform__application__backend_service_1--><g id="elem_platform__application__backend_service_1"><rect fill="#ADD8E6" height="36.2969" rx="2.5" ry="2.5" style="stroke:#181818;stroke-width:0.5;" width="160" x="178" y="149"/><text fill="#000000" font-family="sans-serif" font-size="14" lengthAdjust="spacing" textLength="140" x="188" y="171.9951">Backend Service #1</text></g><!--entity platform__application__frontend--><g id="elem_platform__application__frontend"><rect fill="#ADD8E6" height="36.2969" rx="2.5" ry="2.5" style="stroke:#181818;stroke-width:0.5;" width="83" x="21" y="149"/><text fill="#000000" font-family="sans-serif" font-size="14" lengthAdjust="spacing" textLength="63" x="31" y="171.9951">Frontend</text></g><!--entity platform__application__backend_service_2--><g id="elem_platform__application__backend_service_2"><rect fill="#ADD8E6" height="36.2969" rx="2.5" ry="2.5" style="stroke:#181818;stroke-width:0.5;" width="160" x="398" y="113"/><text fill="#000000" font-family="sans-serif" font-size="14" lengthAdjust="spacing" textLength="140" x="408" y="135.9951">Backend Service #2</text></g><!--entity order_service--><g id="elem_order_service"><rect fill="#ADD8E6" height="36.2969" rx="2.5" ry="2.5" style="stroke:#181818;stroke-width:0.5;" width="111" x="7" y="43"/><text fill="#000000" font-family="sans-serif" font-size="14" lengthAdjust="spacing" textLength="91" x="17" y="65.9951">order-service</text></g><!--entity platform__external_service_1--><g id="elem_platform__external_service_1"><rect fill="#FFE4B5" height="36.2969" rx="2.5" ry="2.5" style="stroke:#181818;stroke-width:0.5;" width="154" x="401" y="184"/><text fill="#000000" font-family="sans-serif" font-size="14" lengthAdjust="spacing" textLength="134" x="411" y="206.9951">External Service #1</text></g><!--entity platform__external_service_2--><g id="elem_platform__external_service_2"><rect fill="#FFE4B5" height="36.2969" rx="2.5" ry="2.5" style="stroke:#181818;stroke-width:0.5;" width="154" x="618" y="78"/><text fill="#000000" font-family="sans-serif" font-size="14" lengthAdjust="spacing" textLength="134" x="628" y="100.9951">External Service #2</text></g><!--entity other_project__external_service_3--><g id="elem_other_project__external_service_3"><rect fill="#F08080" height="36.2969" rx="2.5" ry="2.5" style="stroke:#181818;stroke-width:0.5;" width="154" x="618" y="149"/><text fill="#000000" font-family="sans-serif" font-size="14" lengthAdjust="spacing" textLength="134" x="628" y="171.9951">External Service #3</text></g><!--entity payment_service--><g id="elem_payment_service"><rect fill="#FFE4B5" height="36.2969" rx="2.5" ry="2.5" style="stroke:#181818;stroke-width:0.5;" width="134" x="191" y="7"/><text fill="#000000" font-family="sans-serif" font-size="14" lengthAdjust="spacing" textLength="114" x="201" y="29.9951">payment-service</text></g><!--entity inventory_service--><g id="elem_inventory_service"><rect fill="#ADD8E6" height="36.2969" rx="2.5" ry="2.5" style="stroke:#181818;stroke-width:0.5;" width="137" x="189.5" y="78"/><text fill="#000000" font-family="sans-serif" font-size="14" lengthAdjust="spacing" textLength="117" x="199.5" y="100.9951">inventory-service</text></g><!--link platform__application__backend_service_1 to platform__external_service_1--><g id="link_platform__application__backend_service_1_platform__external_service_1"><path d="M338.05,166.5 C400.95,166.5 478,166.5 478,166.5 C478,166.5 478,169.1 478,177.83 " fill="none" id="platform__application__backend_service_1-to-platform__external_service_1" style="stroke:#181818;stroke-width:1.0;"/><polygon fill="#181818" points="478,183.83,482,174.83,478,178.83,474,174.83,478,183.83" style="stroke:#181818;stroke-width:1.0;"/><text fill="#000000" font-family="sans-serif" font-size="13" lengthAdjust="spacing" textLength="21" x="394.69" y="179.5669">JWT</text></g><!--link platform__application__backend_service_1 to platform__application__backend_service_2--><g id="link_platform__application__backend_service_1_platform__application__backend_service_2"><path d="M333,148.83 C333,140.1 333,131.5 333,131.5 C333,131.5 358.33,131.5 391.87,131.5 " fill="none" id="platform__application__backend_service_1-to-platform__application__backend_service_2" style="stroke:#181818;stroke-width:1.0;"/><polygon fill="#181818" points="397.87,131.5,388.87,127.5,392.87,131.5,388.87,135.5,397.87,131.5" style="stroke:#181818;stroke-width:1.0;"/><text fill="#000000" font-family="sans-serif" font-size="13" lengthAdjust="spacing" textLength="21" x="334.77" y="144.5669">JWT</text></g><!--link platform__application__frontend to platform__application__backend_service_1--><g id="link_platform__application__frontend_platform__application__backend_service_1"><path d="M104.44,167 C125.87,167 146.68,167 171.88,167 " fill="none" id="platform__application__frontend-to-platform__application__backend_service_1" style="stroke:#181818;stroke-width:1.0;"/><polygon fill="#181818" points="177.88,167,168.88,163,172.88,167,168.88,171,177.88,167" style="stroke:#181818;stroke-width:1.0;"/><text fill="#000000" font-family="sans-serif" font-size="13" lengthAdjust="spacing" textLength="21" x="119.16" y="180.0669">JWT</text></g><!--link platform__application__backend_service_2 to platform__external_service_2--><g id="link_platform__application__backend_service_2_platform__external_service_2"><path d="M558.03,125.67 C610.72,125.67 670,125.67 670,125.67 C670,125.67 670,126.39 670,120.28 " fill="none" id="platform__application__backend_service_2-to-platform__external_service_2" style="stroke:#181818;stroke-width:1.0;"/><polygon fill="#181818" points="670,114.28,666,123.28,670,119.28,674,123.28,670,114.28" style="stroke:#181818;stroke-width:1.0;"/><text fill="#000000" font-family="sans-serif" font-size="13" lengthAdjust="spacing" textLength="21" x="597.71" y="138.7369">JWT</text></g><!--link platform__application__backend_service_2 to other_project__external_service_3--><g id="link_platform__application__backend_service_2_other_project__external_service_3"><path d="M558.24,137.33 C629.02,137.33 721,137.33 721,137.33 C721,137.33 721,136.61 721,142.72 " fill="none" id="platform__application__backend_service_2-to-other_project__external_service_3" style="stroke:#181818;stroke-width:1.0;"/><polygon fill="#181818" points="721,148.72,725,139.72,721,143.72,717,139.72,721,148.72" style="stroke:#181818;stroke-width:1.0;"/><text fill="#000000" font-family="sans-serif" font-size="13" lengthAdjust="spacing" textLength="69" x="646.31" y="133.3969">Basic-Auth</text></g><!--link order_service to payment_service--><g id="link_order_service_payment_service"><path d="M63,42.58 C63,33.72 63,25 63,25 C63,25 128.49,25 184.89,25 " fill="none" id="order_service-to-payment_service" style="stroke:#181818;stroke-width:1.0;"/><polygon fill="#181818" points="190.89,25,181.89,21,185.89,25,181.89,29,190.89,25" style="stroke:#181818;stroke-width:1.0;"/><text fill="#000000" font-family="sans-serif" font-size="13" lengthAdjust="spacing" textLength="21" x="96.16" y="38.0669">JWT</text></g><!--link order_service to inventory_service--><g id="link_order_service_inventory_service"><path d="M111,79.17 C111,87.9 111,96.5 111,96.5 C111,96.5 144.98,96.5 183.23,96.5 " fill="none" id="order_service-to-inventory_service" style="stroke:#181818;stroke-width:1.0;"/><polygon fill="#181818" points="189.23,96.5,180.23,92.5,184.23,96.5,180.23,100.5,189.23,96.5" style="stroke:#181818;stroke-width:1.0;"/><text fill="#000000" font-family="sans-serif" font-size="13" lengthAdjust="spacing" textLength="21" x="119.45" y="109.5669">JWT</text></g><rect fill="none" height="79.1875" id="_legend" rx="7.5" ry="7.5" style="stroke:#FFFFFF;stroke-width:1.0;" width="159" x="12" y="237.2969"/><text fill="#000000" font-family="sans-serif" font-size="14" lengthAdjust="spacing" textLength="36" x="21" y="257.292">Color</text><text fill="#000000" font-family="sans-serif" font-size="14" lengthAdjust="spacing" textLength="91" x="65" y="257.292">Belongs to ...</text><rect fill="#ADD8E6" height="16.2969" style="stroke:none;stroke-width:1.0;" width="44" x="17" y="260.5938"/><text fill="#000000" font-family="sans-serif" font-size="14" lengthAdjust="spacing" textLength="4" x="17" y="273.5889">&#160;</text><text fill="#000000" font-family="sans-serif" font-size="14" lengthAdjust="spacing" textLength="101" x="65" y="273.5889">our application</text><rect fill="#FFE4B5" height="16.2969" style="stroke:none;stroke-width:1.0;" width="44" x="17" y="276.8906"/><text fill="#000000" font-family="sans-serif" font-size="14" lengthAdjust="spacing" textLength="4" x="17" y="289.8857">&#160;</text><text fill="#000000" font-family="sans-serif" font-size="14" lengthAdjust="spacing" textLength="98" x="65" y="289.8857">same platform</text><rect fill="#F08080" height="16.2969" style="stroke:none;stroke-width:1.0;" width="44" x="17" y="293.1875"/><text fill="#000000" font-family="sans-serif" font-size="14" lengthAdjust="spacing" textLength="4" x="17" y="306.1826">&#160;</text><text fill="#000000" font-family="sans-serif" font-size="14" lengthAdjust="spacing" textLength="89" x="65" y="306.1826">other project</text><line style="stroke:#000000;stroke-width:1.0;" x1="17" x2="166" y1="244.2969" y2="244.2969"/><line style="stroke:#000000;stroke-width:1.0;" x1="17" x2="166" y1="260.5938" y2="260.5938"/><line style="stroke:#000000;stroke-width:1.0;" x1="17" x2="166" y1="276.8906" y2="276.8906"/><line style="stroke:#000000;stroke-width:1.0;" x1="17" x2="166" y1="293.1875" y2="293.1875"/><line style="stroke:#000000;stroke-width:1.0;" x1="17" x2="166" y1="309.4844" y2="309.4844"/><line style="stroke:#000000;stroke-width:1.0;" x1="17" x2="17" y1="244.2969" y2="309.4844"/><line style="stroke:#000000;stroke-width:1.0;" x1="61" x2="61" y1="244.2969" y2="309.4844"/><line style="stroke:#000000;stroke-width:1.0;" x1="166" x2="166" y1="244.2969" y2="309.4844"/></g></svg>