<?xml version="1.0" encoding="us-ascii" standalone="no"?><svg xmlns="http://www.w3.org/2000/svg" xmlns:xlink="http://www.w3.org/1999/xlink" contentStyleType="text/css" height="163px" preserveAspectRatio="none" style="width:536px;height:163px;background:#FFFFFF;" version="1.1" viewBox="0 0 536 163" width="536px" zoomAndPan="magnify"><defs/><g><!--entity frontend--><g id="elem_frontend"><rect fill="#D3D3D3" height="36.2969" rx="2.5" ry="2.5" style="stroke:#181818;stroke-width:0.5;" width="83" x="7" y="86.5"/><text fill="#000000" font-family="sans-serif" font-size="14" lengthAdjust="spacing" textLength="63" x="17" y="109.4951">Frontend</text></g><!--entity backend_service_1--><g id="elem_backend_service_1"><rect fill="#87CEEB" height="36.2969" rx="2.5" ry="2.5" style="stroke:#181818;stroke-width:2.0;" width="160" x="150" y="86.5"/><text fill="#000000" font-family="sans-serif" font-size="14" lengthAdjust="spacing" textLength="140" x="160" y="109.4951">Backend Service #1</text></g><!--entity backend_service_2--><g id="elem_backend_service_2"><rect fill="#ADD8E6" height="36.2969" rx="2.5" ry="2.5" style="stroke:#181818;stroke-width:0.5;" width="160" x="370" y="50.5"/><text fill="#000000" font-family="sans-serif" font-size="14" lengthAdjust="spacing" textLength="140" x="380" y="73.4951">Backend Service #2</text></g><!--entity backend_service_1_database--><g id="elem_backend_service_1_database"><path d="M188,16 C188,6 230,6 230,6 C230,6 272,6 272,16 L272,41.2969 C272,51.2969 230,51.2969 230,51.2969 C230,51.2969 188,51.2969 188,41.2969 L188,16 " fill="#F1F1F1" style="stroke:#181818;stroke-width:0.5;"/><path d="M188,16 C188,26 230,26 230,26 C230,26 272,26 272,16 " fill="none" style="stroke:#181818;stroke-width:0.5;"/><text fill="#000000" font-family="sans-serif" font-size="14" lengthAdjust="spacing" textLength="64" x="198" y="42.9951">database</text></g><!--entity external_service_1--><g id="elem_external_service_1"><rect fill="#FFE4B5" height="36.2969" rx="2.5" ry="2.5" style="stroke:#181818;stroke-width:0.5;" width="154" x="373" y="121.5"/><text fill="#000000" font-family="sans-serif" font-size="14" lengthAdjust="spacing" textLength="134" x="383" y="144.4951">External Service #1</text></g><!--link frontend to backend_service_1--><g id="link_frontend_backend_service_1"><path d="M90.23,104.5 C107.92,104.5 123.27,104.5 143.87,104.5 " fill="none" id="frontend-to-backend_service_1" style="stroke:#181818;stroke-width:1.0;"/><polygon fill="#181818" points="149.87,104.5,140.87,100.5,144.87,104.5,140.87,108.5,149.87,104.5" style="stroke:#181818;stroke-width:1.0;"/></g><!--link backend_service_1 to backend_service_2--><g id="link_backend_service_1_backend_service_2"><path d="M310.01,91.45 C329.51,88.23 344.4702,85.7575 363.9702,82.5375 " fill="none" id="backend_service_1-to-backend_service_2" style="stroke:#181818;stroke-width:1.0;"/><polygon fill="#181818" points="369.89,81.56,360.3586,79.0797,364.9568,82.3746,361.6619,86.9729,369.89,81.56" style="stroke:#181818;stroke-width:1.0;"/></g><!--reverse link backend_service_1_database to backend_service_1--><g id="link_backend_service_1_database_backend_service_1"><path d="M230,57.12 C230,57.12 230,79.17 230,79.17 C230,79.17 230,82.3 230,86.36 " fill="none" id="backend_service_1_database-backto-backend_service_1" style="stroke:#181818;stroke-width:1.0;"/><polygon fill="#181818" points="230,51.12,226,60.12,230,56.12,234,60.12,230,51.12" style="stroke:#181818;stroke-width:1.0;"/></g><!--link backend_service_1 to external_service_1--><g id="link_backend_service_1_external_service_1"><path d="M310.01,117.19 C330.48,120.47 346.5561,123.0472 366.8861,126.3172 " fill="none" id="backend_service_1-to-external_service_1" style="stroke:#181818;stroke-width:1.0;"/><polygon fill="#181818" points="372.81,127.27,364.5594,121.8915,367.8735,126.476,363.289,129.79,372.81,127.27" style="stroke:#181818;stroke-width:1.0;"/></g></g></svg>