<?xml version="1.0" encoding="us-ascii" standalone="no"?><svg xmlns="http://www.w3.org/2000/svg" xmlns:xlink="http://www.w3.org/1999/xlink" contentStyleType="text/css" height="230px" preserveAspectRatio="none" style="width:607px;height:230px;background:#FFFFFF;" version="1.1" viewBox="0 0 607 230" width="607px" zoomAndPan="magnify"><defs/><g><!--entity platform__application__backend_service_1--><g id="elem_platform__application__backend_service_1"><rect fill="#D3D3D3" height="36.2969" rx="2.5" ry="2.5" style="stroke:#181818;stroke-width:0.5;" width="160" x="7" y="43"/><text fill="#000000" font-family="sans-serif" font-size="14" lengthAdjust="spacing" textLength="140" x="17" y="65.9951">Backend Service #1</text></g><!--entity platform__application__backend_service_2--><g id="elem_platform__application__backend_service_2"><rect fill="#87CEEB" height="36.2969" rx="2.5" ry="2.5" style="stroke:#181818;stroke-width:2.0;" width="160" x="227" y="43"/><text fill="#000000" font-family="sans-serif" font-size="14" lengthAdjust="spacing" textLength="140" x="237" y="65.9951">Backend Service #2</text></g><!--entity platform__external_service_2--><g id="elem_platform__external_service_2"><rect fill="#FFE4B5" height="36.2969" rx="2.5" ry="2.5" style="stroke:#181818;stroke-width:0.5;" width="154" x="447" y="7"/><text fill="#000000" font-family="sans-serif" font-size="14" lengthAdjust="spacing" textLength="134" x="457" y="29.9951">External Service #2</text></g><!--entity other_project__external_service_3--><g id="elem_other_project__external_service_3"><rect fill="#F08080" height="36.2969" rx="2.5" ry="2.5" style="stroke:#181818;stroke-width:0.5;" width="154" x="447" y="78"/><text fill="#000000" font-family="sans-serif" font-size="14" lengthAdjust="spacing" textLength="134" x="457" y="100.9951">External Service #3</text></g><!--link platform__application__backend_service_1 to platform__application__backend_service_2--><g id="link_platform__application__backend_service_1_platform__application__backend_service_2"><path d="M167.01,61 C186.51,61 201.39,61 220.89,61 " fill="none" id="platform__application__backend_service_1-to-platform__application__backend_service_2" style="stroke:#181818;stroke-width:1.0;"/><polygon fill="#181818" points="226.89,61,217.89,57,221.89,61,217.89,65,226.89,61" style="stroke:#181818;stroke-width:1.0;"/></g><!--link platform__application__backend_service_2 to platform__external_service_2--><g id="link_platform__application__backend_service_2_platform__external_service_2"><path d="M387.14,47.75 C406.66,44.48 421.6027,41.9828 440.9727,38.7328 " fill="none" id="platform__application__backend_service_2-to-platform__external_service_2" style="stroke:#181818;stroke-width:1.0;"/><polygon fill="#181818" points="446.89,37.74,437.3522,35.2844,441.9589,38.5674,438.676,43.1741,446.89,37.74" style="stroke:#181818;stroke-width:1.0;"/></g><!--link platform__application__backend_service_2 to other_project__external_service_3--><g id="link_platform__application__backend_service_2_other_project__external_service_3"><path d="M387.14,73.88 C406.66,77.06 421.5978,79.4969 440.9678,82.6469 " fill="none" id="platform__application__backend_service_2-to-other_project__external_service_3" style="stroke:#181818;stroke-width:1.0;"/><polygon fill="#181818" points="446.89,83.61,438.6488,78.2172,441.9548,82.8074,437.3646,86.1135,446.89,83.61" style="stroke:#181818;stroke-width:1.0;"/></g><rect fill="none" height="79.1875" id="_legend" rx="7.5" ry="7.5" style="stroke:#FFFFFF;stroke-width:1.0;" width="159" x="12" y="131.2969"/><text fill="#000000" font-family="sans-serif" font-size="14" lengthAdjust="spacing" textLength="36" x="21" y="151.292">Color</text><text fill="#000000" font-family="sans-serif" font-size="14" lengthAdjust="spacing" textLength="91" x="65" y="151.292">Belongs to ...</text><rect fill="#ADD8E6" height="16.2969" style="stroke:none;stroke-width:1.0;" width="44" x="17" y="154.5938"/><text fill="#000000" font-family="sans-serif" font-size="14" lengthAdjust="spacing" textLength="4" x="17" y="167.5889">&#160;</text><text fill="#000000" font-family="sans-serif" font-size="14" lengthAdjust="spacing" textLength="101" x="65" y="167.5889">our application</text><rect fill="#FFE4B5" height="16.2969" style="stroke:none;stroke-width:1.0;" width="44" x="17" y="170.8906"/><text fill="#000000" font-family="sans-serif" font-size="14" lengthAdjust="spacing" textLength="4" x="17" y="183.8857">&#160;</text><text fill="#000000" font-family="sans-serif" font-size="14" lengthAdjust="spacing" textLength="98" x="65" y="183.8857">same platform</text><rect fill="#F08080" height="16.2969" style="stroke:none;stroke-width:1.0;" width="44" x="17" y="187.1875"/><text fill="#000000" font-family="sans-serif" font-size="14" lengthAdjust="spacing" textLength="4" x="17" y="200.1826">&#160;</text><text fill="#000000" font-family="sans-serif" font-size="14" lengthAdjust="spacing" textLength="89" x="65" y="200.1826">other project</text><line style="stroke:#000000;stroke-width:1.0;" x1="17" x2="166" y1="138.2969" y2="138.2969"/><line style="stroke:#000000;stroke-width:1.0;" x1="17" x2="166" y1="154.5938" y2="154.5938"/><line style="stroke:#000000;stroke-width:1.0;" x1="17" x2="166" y1="170.8906" y2="170.8906"/><line style="stroke:#000000;stroke-width:1.0;" x1="17" x2="166" y1="187.1875" y2="187.1875"/><line style="stroke:#000000;stroke-width:1.0;" x1="17" x2="166" y1="203.4844" y2="203.4844"/><line style="stroke:#000000;stroke-width:1.0;" x1="17" x2="17" y1="138.2969" y2="203.4844"/><line style="stroke:#000000;stroke-width:1.0;" x1="61" x2="61" y1="138.2969" y2="203.4844"/><line style="stroke:#000000;stroke-width:1.0;" x1="166" x2="166" y1="138.2969" y2="203.4844"/></g></svg>