<?xml version="1.0" encoding="us-ascii" standalone="no"?><svg xmlns="http://www.w3.org/2000/svg" xmlns:xlink="http://www.w3.org/1999/xlink" contentStyleType="text/css" height="126px" preserveAspectRatio="none" style="width:269px;height:126px;background:#FFFFFF;" version="1.1" viewBox="0 0 269 126" width="269px" zoomAndPan="magnify"><defs/><g><!--entity application__team__frontend--><g id="elem_application__team__frontend"><rect fill="#87CEEB" height="36.2969" rx="2.5" ry="2.5" style="stroke:#181818;stroke-width:2.0;" width="83" x="7" y="7"/><text fill="#000000" font-family="sans-serif" font-size="14" lengthAdjust="spacing" textLength="63" x="17" y="29.9951">Frontend</text></g><!--entity application__team__order_service--><g id="elem_application__team__order_service"><rect fill="#ADD8E6" height="36.2969" rx="2.5" ry="2.5" style="stroke:#181818;stroke-width:0.5;" width="113" x="150" y="7"/><text fill="#000000" font-family="sans-serif" font-size="14" lengthAdjust="spacing" textLength="93" x="160" y="29.9951">Order Service</text></g><!--link application__team__frontend to application__team__order_service--><g id="link_application__team__frontend_application__team__order_service"><path d="M90.08,25 C108.32,25 124.13,25 143.86,25 " fill="none" id="application__team__frontend-to-application__team__order_service" style="stroke:#181818;stroke-width:1.0;"/><polygon fill="#181818" points="149.86,25,140.86,21,144.86,25,140.86,29,149.86,25" style="stroke:#181818;stroke-width:1.0;"/></g><rect fill="none" height="46.5938" id="_legend" rx="7.5" ry="7.5" style="stroke:#FFFFFF;stroke-width:1.0;" width="173" x="12" y="60.2969"/><text fill="#000000" font-family="sans-serif" font-size="14" lengthAdjust="spacing" textLength="36" x="21" y="80.292">Color</text><text fill="#000000" font-family="sans-serif" font-size="14" lengthAdjust="spacing" textLength="91" x="65" y="80.292">Belongs to ...</text><rect fill="#ADD8E6" height="16.2969" style="stroke:none;stroke-width:1.0;" width="44" x="17" y="83.5938"/><text fill="#000000" font-family="sans-serif" font-size="14" lengthAdjust="spacing" textLength="4" x="17" y="96.5889">&#160;</text><text fill="#000000" font-family="sans-serif" font-size="14" lengthAdjust="spacing" textLength="115" x="65" y="96.5889">our components</text><line style="stroke:#000000;stroke-width:1.0;" x1="17" x2="180" y1="67.2969" y2="67.2969"/><line style="stroke:#000000;stroke-width:1.0;" x1="17" x2="180" y1="83.5938" y2="83.5938"/><line style="stroke:#000000;stroke-width:1.0;" x1="17" x2="180" y1="99.8906" y2="99.8906"/><line style="stroke:#000000;stroke-width:1.0;" x1="17" x2="17" y1="67.2969" y2="99.8906"/><line style="stroke:#000000;stroke-width:1.0;" x1="61" x2="61" y1="67.2969" y2="99.8906"/><line style="stroke:#000000;stroke-width:1.0;" x1="180" x2="180" y1="67.2969" y2="99.8906"/></g></svg>