<?xml version="1.0" encoding="us-ascii" standalone="no"?><svg xmlns="http://www.w3.org/2000/svg" xmlns:xlink="http://www.w3.org/1999/xlink" contentStyleType="text/css" height="252px" preserveAspectRatio="none" style="width:538px;height:252px;background:#FFFFFF;" version="1.1" viewBox="0 0 538 252" width="538px" zoomAndPan="magnify"><defs/><g><!--entity platform__application__frontend--><g id="elem_platform__application__frontend"><rect fill="#87CEEB" height="72.5938" rx="5" ry="5" style="stroke:#181818;stroke-width:4.0;" width="166" x="14" y="14"/><text fill="#000000" font-family="sans-serif" font-size="28" lengthAdjust="spacing" textLength="126" x="34" y="59.9902">Frontend</text></g><!--entity platform__application__order_service--><g id="elem_platform__application__order_service"><rect fill="#ADD8E6" height="72.5938" rx="5" ry="5" style="stroke:#181818;stroke-width:1.0;" width="226" x="300" y="14"/><text fill="#000000" font-family="sans-serif" font-size="28" lengthAdjust="spacing" textLength="186" x="320" y="59.9902">Order Service</text></g><!--link platform__application__frontend to platform__application__order_service--><g id="link_platform__application__frontend_platform__application__order_service"><path d="M180.16,50 C216.64,50 248.26,50 287.72,50 " fill="none" id="platform__application__frontend-to-platform__application__order_service" style="stroke:#181818;stroke-width:2.0;"/><polygon fill="#181818" points="299.72,50,281.72,42,289.72,50,281.72,58,299.72,50" style="stroke:#181818;stroke-width:2.0;"/></g><rect fill="none" height="93.1875" id="_legend" rx="15" ry="15" style="stroke:#FFFFFF;stroke-width:2.0;" width="346" x="24" y="120.5938"/><text fill="#000000" font-family="sans-serif" font-size="28" lengthAdjust="spacing" textLength="72" x="42" y="160.584">Color</text><text fill="#000000" font-family="sans-serif" font-size="28" lengthAdjust="spacing" textLength="182" x="130" y="160.584">Belongs to ...</text><rect fill="#ADD8E6" height="32.5938" style="stroke:none;stroke-width:2.0;" width="88" x="34" y="167.1875"/><text fill="#000000" font-family="sans-serif" font-size="28" lengthAdjust="spacing" textLength="8" x="34" y="193.1777">&#160;</text><text fill="#000000" font-family="sans-serif" font-size="28" lengthAdjust="spacing" textLength="230" x="130" y="193.1777">our components</text><line style="stroke:#000000;stroke-width:2.0;" x1="34" x2="360" y1="134.5938" y2="134.5938"/><line style="stroke:#000000;stroke-width:2.0;" x1="34" x2="360" y1="167.1875" y2="167.1875"/><line style="stroke:#000000;stroke-width:2.0;" x1="34" x2="360" y1="199.7813" y2="199.7813"/><line style="stroke:#000000;stroke-width:2.0;" x1="34" x2="34" y1="134.5938" y2="199.7813"/><line style="stroke:#000000;stroke-width:2.0;" x1="122" x2="122" y1="134.5938" y2="199.7813"/><line style="stroke:#000000;stroke-width:2.0;" x1="360" x2="360" y1="134.5938" y2="199.7813"/></g></svg>