<?xml version="1.0" encoding="us-ascii" standalone="no"?><svg xmlns="http://www.w3.org/2000/svg" xmlns:xlink="http://www.w3.org/1999/xlink" contentStyleType="text/css" height="273px" preserveAspectRatio="none" style="width:536px;height:273px;background:#FFFFFF;" version="1.1" viewBox="0 0 536 273" width="536px" zoomAndPan="magnify"><defs/><g><!--entity platform__application__order_service--><g id="elem_platform__application__order_service"><rect fill="#D3D3D3" height="36.2969" rx="2.5" ry="2.5" style="stroke:#181818;stroke-width:0.5;" width="113" x="7" y="86.5"/><text fill="#000000" font-family="sans-serif" font-size="14" lengthAdjust="spacing" textLength="93" x="17" y="109.4951">Order Service</text></g><!--entity platform__application__inventory_service--><g id="elem_platform__application__inventory_service"><rect fill="#87CEEB" height="36.2969" rx="2.5" ry="2.5" style="stroke:#181818;stroke-width:2.0;" width="137" x="180" y="86.5"/><text fill="#000000" font-family="sans-serif" font-size="14" lengthAdjust="spacing" textLength="117" x="190" y="109.4951">Inventory Service</text></g><!--entity platform__application__inventory_database--><g id="elem_platform__application__inventory_database"><path d="M206.5,16 C206.5,6 248.5,6 248.5,6 C248.5,6 290.5,6 290.5,16 L290.5,41.2969 C290.5,51.2969 248.5,51.2969 248.5,51.2969 C248.5,51.2969 206.5,51.2969 206.5,41.2969 L206.5,16 " fill="#F1F1F1" style="stroke:#181818;stroke-width:0.5;"/><path d="M206.5,16 C206.5,26 248.5,26 248.5,26 C248.5,26 290.5,26 290.5,16 " fill="none" style="stroke:#181818;stroke-width:0.5;"/><text fill="#000000" font-family="sans-serif" font-size="14" lengthAdjust="spacing" textLength="64" x="216.5" y="42.9951">database</text></g><!--entity platform__notification_service--><g id="elem_platform__notification_service"><rect fill="#FFE4B5" height="36.2969" rx="2.5" ry="2.5" style="stroke:#181818;stroke-width:0.5;" width="150" x="378.5" y="50.5"/><text fill="#000000" font-family="sans-serif" font-size="14" lengthAdjust="spacing" textLength="130" x="388.5" y="73.4951">Notification Service</text></g><!--entity other_project__warehouse_service--><g id="elem_other_project__warehouse_service"><rect fill="#F08080" height="36.2969" rx="2.5" ry="2.5" style="stroke:#181818;stroke-width:0.5;" width="153" x="377" y="121.5"/><text fill="#000000" font-family="sans-serif" font-size="14" lengthAdjust="spacing" textLength="133" x="387" y="144.4951">Warehouse Service</text></g><!--link platform__application__order_service to platform__application__inventory_service--><g id="link_platform__application__order_service_platform__application__inventory_service"><path d="M120.4,104.5 C139.11,104.5 154.17,104.5 173.69,104.5 " fill="none" id="platform__application__order_service-to-platform__application__inventory_service" style="stroke:#181818;stroke-width:1.0;"/><polygon fill="#181818" points="179.69,104.5,170.69,100.5,174.69,104.5,170.69,108.5,179.69,104.5" style="stroke:#181818;stroke-width:1.0;"/></g><!--reverse link platform__application__inventory_database to platform__application__inventory_service--><g id="link_platform__application__inventory_database_platform__application__inventory_service"><path d="M248.5,57.12 C248.5,57.12 248.5,79.17 248.5,79.17 C248.5,79.17 248.5,82.3 248.5,86.36 " fill="none" id="platform__application__inventory_database-backto-platform__application__inventory_service" style="stroke:#181818;stroke-width:1.0;"/><polygon fill="#181818" points="248.5,51.12,244.5,60.12,248.5,56.12,252.5,60.12,248.5,51.12" style="stroke:#181818;stroke-width:1.0;"/></g><!--link platform__application__inventory_service to platform__notification_service--><g id="link_platform__application__inventory_service_platform__notification_service"><path d="M317.1,92.51 C336.7,89.04 352.3124,86.2691 372.3024,82.7191 " fill="none" id="platform__application__inventory_service-to-platform__notification_service" style="stroke:#181818;stroke-width:1.0;"/><polygon fill="#181818" points="378.21,81.67,368.6492,79.3053,373.287,82.5443,370.0481,87.1821,378.21,81.67" style="stroke:#181818;stroke-width:1.0;"/></g><!--link platform__application__inventory_service to other_project__warehouse_service--><g id="link_platform__application__inventory_service_other_project__warehouse_service"><path d="M317.1,116.15 C336.24,119.46 351.2974,122.0499 370.8874,125.4299 " fill="none" id="platform__application__inventory_service-to-other_project__warehouse_service" style="stroke:#181818;stroke-width:1.0;"/><polygon fill="#181818" points="376.8,126.45,368.6111,120.978,371.8728,125.5999,367.2509,128.8615,376.8,126.45" style="stroke:#181818;stroke-width:1.0;"/></g><rect fill="none" height="79.1875" id="_legend" rx="7.5" ry="7.5" style="stroke:#FFFFFF;stroke-width:1.0;" width="159" x="12" y="174.7969"/><text fill="#000000" font-family="sans-serif" font-size="14" lengthAdjust="spacing" textLength="36" x="21" y="194.792">Color</text><text fill="#000000" font-family="sans-serif" font-size="14" lengthAdjust="spacing" textLength="91" x="65" y="194.792">Belongs to ...</text><rect fill="#ADD8E6" height="16.2969" style="stroke:none;stroke-width:1.0;" width="44" x="17" y="198.0938"/><text fill="#000000" font-family="sans-serif" font-size="14" lengthAdjust="spacing" textLength="4" x="17" y="211.0889">&#160;</text><text fill="#000000" font-family="sans-serif" font-size="14" lengthAdjust="spacing" textLength="101" x="65" y="211.0889">our application</text><rect fill="#FFE4B5" height="16.2969" style="stroke:none;stroke-width:1.0;" width="44" x="17" y="214.3906"/><text fill="#000000" font-family="sans-serif" font-size="14" lengthAdjust="spacing" textLength="4" x="17" y="227.3857">&#160;</text><text fill="#000000" font-family="sans-serif" font-size="14" lengthAdjust="spacing" textLength="98" x="65" y="227.3857">same platform</text><rect fill="#F08080" height="16.2969" style="stroke:none;stroke-width:1.0;" width="44" x="17" y="230.6875"/><text fill="#000000" font-family="sans-serif" font-size="14" lengthAdjust="spacing" textLength="4" x="17" y="243.6826">&#160;</text><text fill="#000000" font-family="sans-serif" font-size="14" lengthAdjust="spacing" textLength="89" x="65" y="243.6826">other project</text><line style="stroke:#000000;stroke-width:1.0;" x1="17" x2="166" y1="181.7969" y2="181.7969"/><line style="stroke:#000000;stroke-width:1.0;" x1="17" x2="166" y1="198.0938" y2="198.0938"/><line style="stroke:#000000;stroke-width:1.0;" x1="17" x2="166" y1="214.3906" y2="214.3906"/><line style="stroke:#000000;stroke-width:1.0;" x1="17" x2="166" y1="230.6875" y2="230.6875"/><line style="stroke:#000000;stroke-width:1.0;" x1="17" x2="166" y1="246.9844" y2="246.9844"/><line style="stroke:#000000;stroke-width:1.0;" x1="17" x2="17" y1="181.7969" y2="246.9844"/><line style="stroke:#000000;stroke-width:1.0;" x1="61" x2="61" y1="181.7969" y2="246.9844"/><line style="stroke:#000000;stroke-width:1.0;" x1="166" x2="166" y1="181.7969" y2="246.9844"/></g></svg>