<?xml version="1.0" encoding="us-ascii" standalone="no"?><svg xmlns="http://www.w3.org/2000/svg" xmlns:xlink="http://www.w3.org/1999/xlink" contentStyleType="text/css" height="293px" preserveAspectRatio="none" style="width:479px;height:293px;background:#FFFFFF;" version="1.1" viewBox="0 0 479 293" width="479px" zoomAndPan="magnify"><defs/><g><!--entity application__team__frontend--><g id="elem_application__team__frontend"><rect fill="#ADD8E6" height="36.2969" rx="2.5" ry="2.5" style="stroke:#181818;stroke-width:0.5;" width="83" x="7" y="86.5"/><text fill="#000000" font-family="sans-serif" font-size="14" lengthAdjust="spacing" textLength="63" x="17" y="109.4951">Frontend</text></g><!--entity application__team__order_service--><g id="elem_application__team__order_service"><rect fill="#87CEEB" height="36.2969" rx="2.5" ry="2.5" style="stroke:#181818;stroke-width:2.0;" width="113" x="150" y="86.5"/><text fill="#000000" font-family="sans-serif" font-size="14" lengthAdjust="spacing" textLength="93" x="160" y="109.4951">Order Service</text></g><!--entity application__team__order_database--><g id="elem_application__team__order_database"><path d="M164.5,16 C164.5,6 206.5,6 206.5,6 C206.5,6 248.5,6 248.5,16 L248.5,41.2969 C248.5,51.2969 206.5,51.2969 206.5,51.2969 C206.5,51.2969 164.5,51.2969 164.5,41.2969 L164.5,16 " fill="#F1F1F1" style="stroke:#181818;stroke-width:0.5;"/><path d="M164.5,16 C164.5,26 206.5,26 206.5,26 C206.5,26 248.5,26 248.5,16 " fill="none" style="stroke:#181818;stroke-width:0.5;"/><text fill="#000000" font-family="sans-serif" font-size="14" lengthAdjust="spacing" textLength="64" x="174.5" y="42.9951">database</text></g><!--entity application__team__inventory_service--><g id="elem_application__team__inventory_service"><rect fill="#ADD8E6" height="36.2969" rx="2.5" ry="2.5" style="stroke:#181818;stroke-width:0.5;" width="137" x="329.5" y="15.5"/><text fill="#000000" font-family="sans-serif" font-size="14" lengthAdjust="spacing" textLength="117" x="339.5" y="38.4951">Inventory Service</text></g><!--entity application__notification_service--><g id="elem_application__notification_service"><rect fill="#FFE4B5" height="36.2969" rx="2.5" ry="2.5" style="stroke:#181818;stroke-width:0.5;" width="150" x="323" y="86.5"/><text fill="#000000" font-family="sans-serif" font-size="14" lengthAdjust="spacing" textLength="130" x="333" y="109.4951">Notification Service</text></g><!--entity application__payment_service--><g id="elem_application__payment_service"><rect fill="#FFE4B5" height="36.2969" rx="2.5" ry="2.5" style="stroke:#181818;stroke-width:0.5;" width="134" x="331" y="157.5"/><text fill="#000000" font-family="sans-serif" font-size="14" lengthAdjust="spacing" textLength="114" x="341" y="180.4951">Payment Service</text></g><!--link application__team__frontend to application__team__order_service--><g id="link_application__team__frontend_application__team__order_service"><path d="M90.08,104.5 C108.32,104.5 124.13,104.5 143.86,104.5 " fill="none" id="application__team__frontend-to-application__team__order_service" style="stroke:#181818;stroke-width:1.0;"/><polygon fill="#181818" points="149.86,104.5,140.86,100.5,144.86,104.5,140.86,108.5,149.86,104.5" style="stroke:#181818;stroke-width:1.0;"/></g><!--reverse link application__team__order_database to application__team__order_service--><g id="link_application__team__order_database_application__team__order_service"><path d="M206.5,57.12 C206.5,57.12 206.5,79.17 206.5,79.17 C206.5,79.17 206.5,82.3 206.5,86.36 " fill="none" id="application__team__order_database-backto-application__team__order_service" style="stroke:#181818;stroke-width:1.0;"/><polygon fill="#181818" points="206.5,51.12,202.5,60.12,206.5,56.12,210.5,60.12,206.5,51.12" style="stroke:#181818;stroke-width:1.0;"/></g><!--link application__team__order_service to application__notification_service--><g id="link_application__team__order_service_application__notification_service"><path d="M263.08,104.5 C281.75,104.5 296.89,104.5 316.76,104.5 " fill="none" id="application__team__order_service-to-application__notification_service" style="stroke:#181818;stroke-width:1.0;"/><polygon fill="#181818" points="322.76,104.5,313.76,100.5,317.76,104.5,313.76,108.5,322.76,104.5" style="stroke:#181818;stroke-width:1.0;"/></g><!--link application__team__order_service to application__team__inventory_service--><g id="link_application__team__order_service_application__team__inventory_service"><path d="M255.81,86.4 C284.32,75.72 314.6609,64.3437 343.1609,53.6737 " fill="none" id="application__team__order_service-to-application__team__inventory_service" style="stroke:#181818;stroke-width:1.0;"/><polygon fill="#181818" points="348.78,51.57,338.9489,50.9795,344.0974,53.3231,341.7538,58.4716,348.78,51.57" style="stroke:#181818;stroke-width:1.0;"/></g><!--link application__team__order_service to application__payment_service--><g id="link_application__team__order_service_application__payment_service"><path d="M255.81,122.6 C284.32,133.28 314.6609,144.6563 343.1609,155.3263 " fill="none" id="application__team__order_service-to-application__payment_service" style="stroke:#181818;stroke-width:1.0;"/><polygon fill="#181818" points="348.78,157.43,341.7538,150.5284,344.0974,155.6769,338.9489,158.0205,348.78,157.43" style="stroke:#181818;stroke-width:1.0;"/></g><rect fill="none" height="62.8906" id="_legend" rx="7.5" ry="7.5" style="stroke:#FFFFFF;stroke-width:1.0;" width="174" x="12" y="210.7969"/><text fill="#000000" font-family="sans-serif" font-size="14" lengthAdjust="spacing" textLength="36" x="21" y="230.792">Color</text><text fill="#000000" font-family="sans-serif" font-size="14" lengthAdjust="spacing" textLength="91" x="65" y="230.792">Belongs to ...</text><rect fill="#ADD8E6" height="16.2969" style="stroke:none;stroke-width:1.0;" width="44" x="17" y="234.0938"/><text fill="#000000" font-family="sans-serif" font-size="14" lengthAdjust="spacing" textLength="4" x="17" y="247.0889">&#160;</text><text fill="#000000" font-family="sans-serif" font-size="14" lengthAdjust="spacing" textLength="115" x="65" y="247.0889">our components</text><rect fill="#FFE4B5" height="16.2969" style="stroke:none;stroke-width:1.0;" width="44" x="17" y="250.3906"/><text fill="#000000" font-family="sans-serif" font-size="14" lengthAdjust="spacing" textLength="4" x="17" y="263.3857">&#160;</text><text fill="#000000" font-family="sans-serif" font-size="14" lengthAdjust="spacing" textLength="116" x="65" y="263.3857">same application</text><line style="stroke:#000000;stroke-width:1.0;" x1="17" x2="181" y1="217.7969" y2="217.7969"/><line style="stroke:#000000;stroke-width:1.0;" x1="17" x2="181" y1="234.0938" y2="234.0938"/><line style="stroke:#000000;stroke-width:1.0;" x1="17" x2="181" y1="250.3906" y2="250.3906"/><line style="stroke:#000000;stroke-width:1.0;" x1="17" x2="181" y1="266.6875" y2="266.6875"/><line style="stroke:#000000;stroke-width:1.0;" x1="17" x2="17" y1="217.7969" y2="266.6875"/><line style="stroke:#000000;stroke-width:1.0;" x1="61" x2="61" y1="217.7969" y2="266.6875"/><line style="stroke:#000000;stroke-width:1.0;" x1="181" x2="181" y1="217.7969" y2="266.6875"/></g></svg>