<?xml version="1.0" encoding="us-ascii" standalone="no"?><svg xmlns="http://www.w3.org/2000/svg" xmlns:xlink="http://www.w3.org/1999/xlink" contentStyleType="text/css" height="128px" preserveAspectRatio="none" style="width:721px;height:128px;background:#FFFFFF;" version="1.1" viewBox="0 0 721 128" width="721px" zoomAndPan="magnify"><defs/><g><!--entity platform__application__frontend--><g id="elem_platform__application__frontend"><rect fill="#D3D3D3" height="36.2969" rx="2.5" ry="2.5" style="stroke:#181818;stroke-width:0.5;" width="83" x="7" y="46"/><text fill="#000000" font-family="sans-serif" font-size="14" lengthAdjust="spacing" textLength="63" x="17" y="68.9951">Frontend</text></g><!--entity platform__application__backend_service_1--><g id="elem_platform__application__backend_service_1"><rect fill="#87CEEB" height="36.2969" rx="2.5" ry="2.5" style="stroke:#181818;stroke-width:2.0;" width="160" x="150" y="46"/><text fill="#000000" font-family="sans-serif" font-size="14" lengthAdjust="spacing" textLength="140" x="160" y="68.9951">Backend Service #1</text></g><!--entity platform__application__backend_service_2--><g id="elem_platform__application__backend_service_2"><rect fill="#ADD8E6" height="36.2969" rx="2.5" ry="2.5" style="stroke:#181818;stroke-width:0.5;" width="160" x="370" y="9"/><text fill="#000000" font-family="sans-serif" font-size="14" lengthAdjust="spacing" textLength="140" x="380" y="31.9951">Backend Service #2</text></g><g id="elem_GMN5"><path d="M590,6 L590,23 L530.13,27 L590,31 L590,46.2656 A0,0 0 0 0 590,46.2656 L714,46.2656 A0,0 0 0 0 714,46.2656 L714,16 L704,6 L590,6 A0,0 0 0 0 590,6 " fill="#FEFFDD" style="stroke:#181818;stroke-width:0.5;"/><path d="M704,6 L704,16 L714,16 L704,6 " fill="#FEFFDD" style="stroke:#181818;stroke-width:0.5;"/><text fill="#000000" font-family="sans-serif" font-size="13" lengthAdjust="spacing" textLength="103" x="596" y="23.0669">HTTP Endpoints:</text><text fill="#000000" font-family="sans-serif" font-size="13" lengthAdjust="spacing" textLength="85" x="596" y="38.1997">GET /bar/{id}</text></g><!--entity platform__external_service_1--><g id="elem_platform__external_service_1"><rect fill="#FFE4B5" height="36.2969" rx="2.5" ry="2.5" style="stroke:#181818;stroke-width:0.5;" width="154" x="373" y="81"/><text fill="#000000" font-family="sans-serif" font-size="14" lengthAdjust="spacing" textLength="134" x="383" y="103.9951">External Service #1</text></g><g id="elem_GMN9"><path d="M590,81 L590,95 L527.23,99 L590,103 L590,121.2656 A0,0 0 0 0 590,121.2656 L714,121.2656 A0,0 0 0 0 714,121.2656 L714,91 L704,81 L590,81 A0,0 0 0 0 590,81 " fill="#FEFFDD" style="stroke:#181818;stroke-width:0.5;"/><path d="M704,81 L704,91 L714,91 L704,81 " fill="#FEFFDD" style="stroke:#181818;stroke-width:0.5;"/><text fill="#000000" font-family="sans-serif" font-size="13" lengthAdjust="spacing" textLength="103" x="596" y="98.0669">HTTP Endpoints:</text><text fill="#000000" font-family="sans-serif" font-size="13" lengthAdjust="spacing" textLength="84" x="596" y="113.1997">GET /foo/{id}</text></g><!--link platform__application__frontend to platform__application__backend_service_1--><g id="link_platform__application__frontend_platform__application__backend_service_1"><path d="M90.14,64 C107.93,64 123.33,64 143.97,64 " fill="none" id="platform__application__frontend-to-platform__application__backend_service_1" style="stroke:#181818;stroke-width:1.0;"/><polygon fill="#181818" points="149.97,64,140.97,60,144.97,64,140.97,68,149.97,64" style="stroke:#181818;stroke-width:1.0;"/></g><!--link platform__application__backend_service_1 to platform__external_service_1--><g id="link_platform__application__backend_service_1_platform__external_service_1"><path d="M310.16,69.33 C363.94,69.33 425,69.33 425,69.33 C425,69.33 425,68.61 425,74.72 " fill="none" id="platform__application__backend_service_1-to-platform__external_service_1" style="stroke:#181818;stroke-width:1.0;"/><polygon fill="#181818" points="425,80.72,429,71.72,425,75.72,421,71.72,425,80.72" style="stroke:#181818;stroke-width:1.0;"/><text fill="#000000" font-family="sans-serif" font-size="13" lengthAdjust="spacing" textLength="7" x="365.27" y="65.3969">?</text></g><!--link platform__application__backend_service_1 to platform__application__backend_service_2--><g id="link_platform__application__backend_service_1_platform__application__backend_service_2"><path d="M310.21,57.67 C382,57.67 476,57.67 476,57.67 C476,57.67 476,57.8 476,51.19 " fill="none" id="platform__application__backend_service_1-to-platform__application__backend_service_2" style="stroke:#181818;stroke-width:1.0;"/><polygon fill="#181818" points="476,45.19,472,54.19,476,50.19,480,54.19,476,45.19" style="stroke:#181818;stroke-width:1.0;"/><text fill="#000000" font-family="sans-serif" font-size="13" lengthAdjust="spacing" textLength="7" x="391.34" y="70.7369">?</text></g></g></svg>