<?xml version="1.0" encoding="us-ascii" standalone="no"?><svg xmlns="http://www.w3.org/2000/svg" xmlns:xlink="http://www.w3.org/1999/xlink" contentStyleType="text/css" height="128px" preserveAspectRatio="none" style="width:916px;height:128px;background:#FFFFFF;" version="1.1" viewBox="0 0 916 128" width="916px" zoomAndPan="magnify"><defs/><g><!--entity platform__application__frontend--><g id="elem_platform__application__frontend"><rect fill="#D3D3D3" height="36.2969" rx="2.5" ry="2.5" style="stroke:#181818;stroke-width:0.5;" width="83" x="36" y="10"/><text fill="#000000" font-family="sans-serif" font-size="14" lengthAdjust="spacing" textLength="63" x="46" y="32.9951">Frontend</text></g><!--entity platform__application__backend_service_1--><g id="elem_platform__application__backend_service_1"><rect fill="#87CEEB" height="36.2969" rx="2.5" ry="2.5" style="stroke:#181818;stroke-width:2.0;" width="160" x="208" y="46"/><text fill="#000000" font-family="sans-serif" font-size="14" lengthAdjust="spacing" textLength="140" x="218" y="68.9951">Backend Service #1</text></g><!--entity platform__application__backend_service_2--><g id="elem_platform__application__backend_service_2"><rect fill="#ADD8E6" height="36.2969" rx="2.5" ry="2.5" style="stroke:#181818;stroke-width:0.5;" width="160" x="428" y="9"/><text fill="#000000" font-family="sans-serif" font-size="14" lengthAdjust="spacing" textLength="140" x="438" y="31.9951">Backend Service #2</text></g><g id="elem_GMN5"><path d="M680,6 L680,23 L588.06,27 L680,31 L680,46.2656 A0,0 0 0 0 680,46.2656 L877,46.2656 A0,0 0 0 0 877,46.2656 L877,16 L867,6 L680,6 A0,0 0 0 0 680,6 " fill="#FEFFDD" style="stroke:#181818;stroke-width:0.5;"/><path d="M867,6 L867,16 L877,16 L867,6 " fill="#FEFFDD" style="stroke:#181818;stroke-width:0.5;"/><text fill="#000000" font-family="sans-serif" font-size="13" font-weight="bold" lengthAdjust="spacing" textLength="121" x="686" y="23.0669">HTTP Endpoints:</text><text fill="#000000" font-family="monospace" font-size="13" lengthAdjust="spacing" textLength="176" x="686" y="38.1997">GET&#160;/bookings/{userId}</text></g><!--entity external_service_x--><g id="elem_external_service_x"><rect fill="#D3D3D3" height="36.2969" rx="2.5" ry="2.5" style="stroke:#181818;stroke-width:0.5;" width="141" x="7" y="81"/><text fill="#000000" font-family="sans-serif" font-size="14" lengthAdjust="spacing" textLength="121" x="17" y="103.9951">external-service-x</text></g><!--entity platform__external_service_1--><g id="elem_platform__external_service_1"><rect fill="#FFE4B5" height="36.2969" rx="2.5" ry="2.5" style="stroke:#181818;stroke-width:0.5;" width="154" x="431" y="81"/><text fill="#000000" font-family="sans-serif" font-size="14" lengthAdjust="spacing" textLength="134" x="441" y="103.9951">External Service #1</text></g><g id="elem_GMN10"><path d="M648,81 L648,95 L585.15,99 L648,103 L648,121.2656 A0,0 0 0 0 648,121.2656 L909,121.2656 A0,0 0 0 0 909,121.2656 L909,91 L899,81 L648,81 A0,0 0 0 0 648,81 " fill="#FEFFDD" style="stroke:#181818;stroke-width:0.5;"/><path d="M899,81 L899,91 L909,91 L899,81 " fill="#FEFFDD" style="stroke:#181818;stroke-width:0.5;"/><text fill="#000000" font-family="sans-serif" font-size="13" font-weight="bold" lengthAdjust="spacing" textLength="121" x="654" y="98.0669">HTTP Endpoints:</text><text fill="#000000" font-family="monospace" font-size="13" lengthAdjust="spacing" textLength="240" x="654" y="113.1997">GET&#160;/invoices/{userId}/{state}</text></g><!--link platform__application__frontend to platform__application__backend_service_1--><g id="link_platform__application__frontend_platform__application__backend_service_1"><path d="M78,46.28 C78,52.39 78,57.67 78,57.67 C78,57.67 142.43,57.67 201.71,57.67 " fill="none" id="platform__application__frontend-to-platform__application__backend_service_1" style="stroke:#181818;stroke-width:1.0;"/><polygon fill="#181818" points="207.71,57.67,198.71,53.67,202.71,57.67,198.71,61.67,207.71,57.67" style="stroke:#181818;stroke-width:1.0;"/></g><!--link external_service_x to platform__application__backend_service_1--><g id="link_external_service_x_platform__application__backend_service_1"><path d="M134,80.72 C134,74.61 134,69.33 134,69.33 C134,69.33 164.42,69.33 201.84,69.33 " fill="none" id="external_service_x-to-platform__application__backend_service_1" style="stroke:#181818;stroke-width:1.0;"/><polygon fill="#181818" points="207.84,69.33,198.84,65.33,202.84,69.33,198.84,73.33,207.84,69.33" style="stroke:#181818;stroke-width:1.0;"/></g><!--link platform__application__backend_service_1 to platform__application__backend_service_2--><g id="link_platform__application__backend_service_1_platform__application__backend_service_2"><path d="M288,45.75 C288,36.62 288,27.5 288,27.5 C288,27.5 359.05,27.5 421.95,27.5 " fill="none" id="platform__application__backend_service_1-to-platform__application__backend_service_2" style="stroke:#181818;stroke-width:1.0;"/><polygon fill="#181818" points="427.95,27.5,418.95,23.5,422.95,27.5,418.95,31.5,427.95,27.5" style="stroke:#181818;stroke-width:1.0;"/><text fill="#000000" font-family="sans-serif" font-size="13" lengthAdjust="spacing" textLength="21" x="326.85" y="40.5669">JWT</text></g><!--link platform__application__backend_service_1 to platform__external_service_1--><g id="link_platform__application__backend_service_1_platform__external_service_1"><path d="M368.05,63.5 C430.95,63.5 508,63.5 508,63.5 C508,63.5 508,66.1 508,74.83 " fill="none" id="platform__application__backend_service_1-to-platform__external_service_1" style="stroke:#181818;stroke-width:1.0;"/><polygon fill="#181818" points="508,80.83,512,71.83,508,75.83,504,71.83,508,80.83" style="stroke:#181818;stroke-width:1.0;"/><text fill="#000000" font-family="sans-serif" font-size="13" lengthAdjust="spacing" textLength="21" x="424.69" y="76.5669">JWT</text></g></g></svg>