<?xml version="1.0" encoding="us-ascii" standalone="no"?><svg xmlns="http://www.w3.org/2000/svg" xmlns:xlink="http://www.w3.org/1999/xlink" contentStyleType="text/css" height="128px" preserveAspectRatio="none" style="width:858px;height:128px;background:#FFFFFF;" version="1.1" viewBox="0 0 858 128" width="858px" zoomAndPan="magnify"><defs/><g><!--entity frontend--><g id="elem_frontend"><rect fill="#D3D3D3" height="36.2969" rx="2.5" ry="2.5" style="stroke:#181818;stroke-width:0.5;" width="83" x="7" y="46"/><text fill="#000000" font-family="sans-serif" font-size="14" lengthAdjust="spacing" textLength="63" x="17" y="68.9951">Frontend</text></g><!--entity backend_service_1--><g id="elem_backend_service_1"><rect fill="#87CEEB" height="36.2969" rx="2.5" ry="2.5" style="stroke:#181818;stroke-width:2.0;" width="160" x="150" y="46"/><text fill="#000000" font-family="sans-serif" font-size="14" lengthAdjust="spacing" textLength="140" x="160" y="68.9951">Backend Service #1</text></g><!--entity external_service_1--><g id="elem_external_service_1"><rect fill="#FFE4B5" height="36.2969" rx="2.5" ry="2.5" style="stroke:#181818;stroke-width:0.5;" width="154" x="373" y="9"/><text fill="#000000" font-family="sans-serif" font-size="14" lengthAdjust="spacing" textLength="134" x="383" y="31.9951">External Service #1</text></g><!--entity backend_service_2--><g id="elem_backend_service_2"><rect fill="#ADD8E6" height="36.2969" rx="2.5" ry="2.5" style="stroke:#181818;stroke-width:0.5;" width="160" x="370" y="81"/><text fill="#000000" font-family="sans-serif" font-size="14" lengthAdjust="spacing" textLength="140" x="380" y="103.9951">Backend Service #2</text></g><g id="elem_GMN6"><path d="M590,6 L590,23 L527.15,27 L590,31 L590,46.2656 A0,0 0 0 0 590,46.2656 L851,46.2656 A0,0 0 0 0 851,46.2656 L851,16 L841,6 L590,6 A0,0 0 0 0 590,6 " fill="#FEFFDD" style="stroke:#181818;stroke-width:0.5;"/><path d="M841,6 L841,16 L851,16 L841,6 " fill="#FEFFDD" style="stroke:#181818;stroke-width:0.5;"/><text fill="#000000" font-family="sans-serif" font-size="13" font-weight="bold" lengthAdjust="spacing" textLength="121" x="596" y="23.0669">HTTP Endpoints:</text><text fill="#000000" font-family="monospace" font-size="13" lengthAdjust="spacing" textLength="240" x="596" y="38.1997">GET&#160;/invoices/{userId}/{state}</text></g><g id="elem_GMN9"><path d="M622,81 L622,95 L530.06,99 L622,103 L622,121.2656 A0,0 0 0 0 622,121.2656 L819,121.2656 A0,0 0 0 0 819,121.2656 L819,91 L809,81 L622,81 A0,0 0 0 0 622,81 " fill="#FEFFDD" style="stroke:#181818;stroke-width:0.5;"/><path d="M809,81 L809,91 L819,91 L809,81 " fill="#FEFFDD" style="stroke:#181818;stroke-width:0.5;"/><text fill="#000000" font-family="sans-serif" font-size="13" font-weight="bold" lengthAdjust="spacing" textLength="121" x="628" y="98.0669">HTTP Endpoints:</text><text fill="#000000" font-family="monospace" font-size="13" lengthAdjust="spacing" textLength="176" x="628" y="113.1997">GET&#160;/bookings/{userId}</text></g><!--link frontend to backend_service_1--><g id="link_frontend_backend_service_1"><path d="M90.14,64 C107.93,64 123.33,64 143.97,64 " fill="none" id="frontend-to-backend_service_1" style="stroke:#181818;stroke-width:1.0;"/><polygon fill="#181818" points="149.97,64,140.97,60,144.97,64,140.97,68,149.97,64" style="stroke:#181818;stroke-width:1.0;"/></g><!--link backend_service_1 to external_service_1--><g id="link_backend_service_1_external_service_1"><path d="M310.05,63.5 C372.95,63.5 450,63.5 450,63.5 C450,63.5 450,60.38 450,51.25 " fill="none" id="backend_service_1-to-external_service_1" style="stroke:#181818;stroke-width:1.0;"/><polygon fill="#181818" points="450,45.25,446,54.25,450,50.25,454,54.25,450,45.25" style="stroke:#181818;stroke-width:1.0;"/><text fill="#000000" font-family="sans-serif" font-size="13" lengthAdjust="spacing" textLength="21" x="367.15" y="76.5669">JWT</text></g><!--link backend_service_1 to backend_service_2--><g id="link_backend_service_1_backend_service_2"><path d="M230,82.17 C230,90.9 230,99.5 230,99.5 C230,99.5 301.05,99.5 363.95,99.5 " fill="none" id="backend_service_1-to-backend_service_2" style="stroke:#181818;stroke-width:1.0;"/><polygon fill="#181818" points="369.95,99.5,360.95,95.5,364.95,99.5,360.95,103.5,369.95,99.5" style="stroke:#181818;stroke-width:1.0;"/><text fill="#000000" font-family="sans-serif" font-size="13" lengthAdjust="spacing" textLength="21" x="269.31" y="112.5669">JWT</text></g></g></svg>