<?xml version="1.0" encoding="us-ascii" standalone="no"?><svg xmlns="http://www.w3.org/2000/svg" xmlns:xlink="http://www.w3.org/1999/xlink" contentStyleType="text/css" height="168px" preserveAspectRatio="none" style="width:721px;height:168px;background:#FFFFFF;" version="1.1" viewBox="0 0 721 168" width="721px" zoomAndPan="magnify"><defs/><g><!--entity platform__application__frontend--><g id="elem_platform__application__frontend"><rect fill="#D3D3D3" height="36.2969" rx="2.5" ry="2.5" style="stroke:#181818;stroke-width:0.5;" width="83" x="7" y="86.5"/><text fill="#000000" font-family="sans-serif" font-size="14" lengthAdjust="spacing" textLength="63" x="17" y="109.4951">Frontend</text></g><!--entity platform__application__backend_service_1--><g id="elem_platform__application__backend_service_1"><rect fill="#87CEEB" height="36.2969" rx="2.5" ry="2.5" style="stroke:#181818;stroke-width:2.0;" width="160" x="150" y="86.5"/><text fill="#000000" font-family="sans-serif" font-size="14" lengthAdjust="spacing" textLength="140" x="160" y="109.4951">Backend Service #1</text></g><!--entity platform__application__backend_service_1_database--><g id="elem_platform__application__backend_service_1_database"><path d="M188,16 C188,6 230,6 230,6 C230,6 272,6 272,16 L272,41.2969 C272,51.2969 230,51.2969 230,51.2969 C230,51.2969 188,51.2969 188,41.2969 L188,16 " fill="#F1F1F1" style="stroke:#181818;stroke-width:0.5;"/><path d="M188,16 C188,26 230,26 230,26 C230,26 272,26 272,16 " fill="none" style="stroke:#181818;stroke-width:0.5;"/><text fill="#000000" font-family="sans-serif" font-size="14" lengthAdjust="spacing" textLength="64" x="198" y="42.9951">database</text></g><!--entity platform__application__backend_service_2--><g id="elem_platform__application__backend_service_2"><rect fill="#ADD8E6" height="36.2969" rx="2.5" ry="2.5" style="stroke:#181818;stroke-width:0.5;" width="160" x="370" y="49.5"/><text fill="#000000" font-family="sans-serif" font-size="14" lengthAdjust="spacing" textLength="140" x="380" y="72.4951">Backend Service #2</text></g><g id="elem_GMN6"><path d="M590,46.5 L590,63.5 L530.13,67.5 L590,71.5 L590,86.7656 A0,0 0 0 0 590,86.7656 L714,86.7656 A0,0 0 0 0 714,86.7656 L714,56.5 L704,46.5 L590,46.5 A0,0 0 0 0 590,46.5 " fill="#FEFFDD" style="stroke:#181818;stroke-width:0.5;"/><path d="M704,46.5 L704,56.5 L714,56.5 L704,46.5 " fill="#FEFFDD" style="stroke:#181818;stroke-width:0.5;"/><text fill="#000000" font-family="sans-serif" font-size="13" lengthAdjust="spacing" textLength="103" x="596" y="63.5669">HTTP Endpoints:</text><text fill="#000000" font-family="sans-serif" font-size="13" lengthAdjust="spacing" textLength="85" x="596" y="78.6997">GET /bar/{id}</text></g><!--entity platform__external_service_1--><g id="elem_platform__external_service_1"><rect fill="#FFE4B5" height="36.2969" rx="2.5" ry="2.5" style="stroke:#181818;stroke-width:0.5;" width="154" x="373" y="121.5"/><text fill="#000000" font-family="sans-serif" font-size="14" lengthAdjust="spacing" textLength="134" x="383" y="144.4951">External Service #1</text></g><g id="elem_GMN10"><path d="M590,121.5 L590,135.5 L527.23,139.5 L590,143.5 L590,161.7656 A0,0 0 0 0 590,161.7656 L714,161.7656 A0,0 0 0 0 714,161.7656 L714,131.5 L704,121.5 L590,121.5 A0,0 0 0 0 590,121.5 " fill="#FEFFDD" style="stroke:#181818;stroke-width:0.5;"/><path d="M704,121.5 L704,131.5 L714,131.5 L704,121.5 " fill="#FEFFDD" style="stroke:#181818;stroke-width:0.5;"/><text fill="#000000" font-family="sans-serif" font-size="13" lengthAdjust="spacing" textLength="103" x="596" y="138.5669">HTTP Endpoints:</text><text fill="#000000" font-family="sans-serif" font-size="13" lengthAdjust="spacing" textLength="84" x="596" y="153.6997">GET /foo/{id}</text></g><!--link platform__application__frontend to platform__application__backend_service_1--><g id="link_platform__application__frontend_platform__application__backend_service_1"><path d="M90.14,104.5 C107.93,104.5 123.33,104.5 143.97,104.5 " fill="none" id="platform__application__frontend-to-platform__application__backend_service_1" style="stroke:#181818;stroke-width:1.0;"/><polygon fill="#181818" points="149.97,104.5,140.97,100.5,144.97,104.5,140.97,108.5,149.97,104.5" style="stroke:#181818;stroke-width:1.0;"/></g><!--link platform__application__backend_service_1 to platform__external_service_1--><g id="link_platform__application__backend_service_1_platform__external_service_1"><path d="M310.05,104 C372.95,104 450,104 450,104 C450,104 450,106.6 450,115.33 " fill="none" id="platform__application__backend_service_1-to-platform__external_service_1" style="stroke:#181818;stroke-width:1.0;"/><polygon fill="#181818" points="450,121.33,454,112.33,450,116.33,446,112.33,450,121.33" style="stroke:#181818;stroke-width:1.0;"/></g><!--reverse link platform__application__backend_service_1_database to platform__application__backend_service_1--><g id="link_platform__application__backend_service_1_database_platform__application__backend_service_1"><path d="M230,57.3 C230,68.5 230,75.8 230,86.3 " fill="none" id="platform__application__backend_service_1_database-backto-platform__application__backend_service_1" style="stroke:#181818;stroke-width:1.0;"/><polygon fill="#181818" points="230,51.3,226,60.3,230,56.3,234,60.3,230,51.3" style="stroke:#181818;stroke-width:1.0;"/></g><!--link platform__application__backend_service_1 to platform__application__backend_service_2--><g id="link_platform__application__backend_service_1_platform__application__backend_service_2"><path d="M291,86.38 C291,77.31 291,68.25 291,68.25 C291,68.25 324.13,68.25 363.57,68.25 " fill="none" id="platform__application__backend_service_1-to-platform__application__backend_service_2" style="stroke:#181818;stroke-width:1.0;"/><polygon fill="#181818" points="369.57,68.25,360.57,64.25,364.57,68.25,360.57,72.25,369.57,68.25" style="stroke:#181818;stroke-width:1.0;"/></g></g></svg>