<?xml version="1.0" encoding="us-ascii" standalone="no"?><svg xmlns="http://www.w3.org/2000/svg" xmlns:xlink="http://www.w3.org/1999/xlink" contentStyleType="text/css" height="143px" preserveAspectRatio="none" style="width:849px;height:143px;background:#FFFFFF;" version="1.1" viewBox="0 0 849 143" width="849px" zoomAndPan="magnify"><defs/><g><!--entity backend_service_1--><g id="elem_backend_service_1"><rect fill="#D3D3D3" height="36.2969" rx="2.5" ry="2.5" style="stroke:#181818;stroke-width:0.5;" width="160" x="7" y="57.5"/><text fill="#000000" font-family="sans-serif" font-size="14" lengthAdjust="spacing" textLength="140" x="17" y="80.4951">Backend Service #1</text></g><!--entity backend_service_2--><g id="elem_backend_service_2"><rect fill="#87CEEB" height="36.2969" rx="2.5" ry="2.5" style="stroke:#181818;stroke-width:2.0;" width="160" x="227" y="57.5"/><text fill="#000000" font-family="sans-serif" font-size="14" lengthAdjust="spacing" textLength="140" x="237" y="80.4951">Backend Service #2</text></g><!--entity external_service_2--><g id="elem_external_service_2"><rect fill="#FFE4B5" height="36.2969" rx="2.5" ry="2.5" style="stroke:#181818;stroke-width:0.5;" width="154" x="447" y="18.5"/><text fill="#000000" font-family="sans-serif" font-size="14" lengthAdjust="spacing" textLength="134" x="457" y="41.4951">External Service #2</text></g><!--entity external_service_3--><g id="elem_external_service_3"><rect fill="#F08080" height="36.2969" rx="2.5" ry="2.5" style="stroke:#181818;stroke-width:0.5;" width="154" x="447" y="92.5"/><text fill="#000000" font-family="sans-serif" font-size="14" lengthAdjust="spacing" textLength="134" x="457" y="115.4951">External Service #3</text></g><g id="elem_GMN6"><path d="M661,6 L661,32.5 L601.02,36.5 L661,40.5 L661,61.3984 A0,0 0 0 0 661,61.3984 L842,61.3984 A0,0 0 0 0 842,61.3984 L842,16 L832,6 L661,6 A0,0 0 0 0 661,6 " fill="#FEFFDD" style="stroke:#181818;stroke-width:0.5;"/><path d="M832,6 L832,16 L842,16 L832,6 " fill="#FEFFDD" style="stroke:#181818;stroke-width:0.5;"/><text fill="#000000" font-family="sans-serif" font-size="13" font-weight="bold" lengthAdjust="spacing" textLength="121" x="667" y="23.0669">HTTP Endpoints:</text><text fill="#000000" font-family="monospace" font-size="13" lengthAdjust="spacing" textLength="88" x="667" y="38.1997">POST&#160;/users</text><text fill="#000000" font-family="monospace" font-size="13" lengthAdjust="spacing" textLength="160" x="667" y="53.3325">GET&#160;&#160;/users/{userId}</text></g><g id="elem_GMN9"><path d="M680.5,96.5 L680.5,108.5 L601.02,112.5 L680.5,116.5 L680.5,136.7656 A0,0 0 0 0 680.5,136.7656 L822.5,136.7656 A0,0 0 0 0 822.5,136.7656 L822.5,106.5 L812.5,96.5 L680.5,96.5 A0,0 0 0 0 680.5,96.5 " fill="#FEFFDD" style="stroke:#181818;stroke-width:0.5;"/><path d="M812.5,96.5 L812.5,106.5 L822.5,106.5 L812.5,96.5 " fill="#FEFFDD" style="stroke:#181818;stroke-width:0.5;"/><text fill="#000000" font-family="sans-serif" font-size="13" font-weight="bold" lengthAdjust="spacing" textLength="121" x="686.5" y="113.5669">HTTP Endpoints:</text><text fill="#000000" font-family="monospace" font-size="13" lengthAdjust="spacing" textLength="104" x="686.5" y="128.6997">GET&#160;/bookings</text></g><!--link backend_service_1 to backend_service_2--><g id="link_backend_service_1_backend_service_2"><path d="M167.05,75.5 C186.46,75.5 201.22,75.5 220.64,75.5 " fill="none" id="backend_service_1-to-backend_service_2" style="stroke:#181818;stroke-width:1.0;"/><polygon fill="#181818" points="226.64,75.5,217.64,71.5,221.64,75.5,217.64,79.5,226.64,75.5" style="stroke:#181818;stroke-width:1.0;"/></g><!--link backend_service_2 to external_service_2--><g id="link_backend_service_2_external_service_2"><path d="M387.24,71.5 C458.02,71.5 550,71.5 550,71.5 C550,71.5 550,69.29 550,60.82 " fill="none" id="backend_service_2-to-external_service_2" style="stroke:#181818;stroke-width:1.0;"/><polygon fill="#181818" points="550,54.82,546,63.82,550,59.82,554,63.82,550,54.82" style="stroke:#181818;stroke-width:1.0;"/><text fill="#000000" font-family="sans-serif" font-size="13" lengthAdjust="spacing" textLength="21" x="454.96" y="84.5669">JWT</text></g><!--link backend_service_2 to external_service_3--><g id="link_backend_service_2_external_service_3"><path d="M387.03,82 C439.72,82 499,82 499,82 C499,82 499,80.7 499,86.29 " fill="none" id="backend_service_2-to-external_service_3" style="stroke:#181818;stroke-width:1.0;"/><polygon fill="#181818" points="499,92.29,503,83.29,499,87.29,495,83.29,499,92.29" style="stroke:#181818;stroke-width:1.0;"/><text fill="#000000" font-family="sans-serif" font-size="13" lengthAdjust="spacing" textLength="69" x="378.16" y="95.0669">Basic-Auth</text></g></g></svg>