<?xml version="1.0" encoding="us-ascii" standalone="no"?><svg xmlns="http://www.w3.org/2000/svg" xmlns:xlink="http://www.w3.org/1999/xlink" contentStyleType="text/css" height="130px" preserveAspectRatio="none" style="width:543px;height:130px;background:#FFFFFF;" version="1.1" viewBox="0 0 543 130" width="543px" zoomAndPan="magnify"><defs/><g><!--entity application__team__frontend--><g id="elem_application__team__frontend"><rect fill="#87CEEB" height="36.2969" rx="2.5" ry="2.5" style="stroke:#181818;stroke-width:2.0;" width="83" x="7" y="8"/><text fill="#000000" font-family="sans-serif" font-size="14" lengthAdjust="spacing" textLength="63" x="17" y="30.9951">Frontend</text></g><!--entity application__team__order_service--><g id="elem_application__team__order_service"><rect fill="#ADD8E6" height="36.2969" rx="2.5" ry="2.5" style="stroke:#181818;stroke-width:0.5;" width="113" x="150" y="8"/><text fill="#000000" font-family="sans-serif" font-size="14" lengthAdjust="spacing" textLength="93" x="160" y="30.9951">Order Service</text></g><g id="elem_GMN4"><path d="M323,6 L323,22 L263.06,26 L323,30 L323,46.2656 A0,0 0 0 0 323,46.2656 L536,46.2656 A0,0 0 0 0 536,46.2656 L536,16 L526,6 L323,6 A0,0 0 0 0 323,6 " fill="#FEFFDD" style="stroke:#181818;stroke-width:0.5;"/><path d="M526,6 L526,16 L536,16 L526,6 " fill="#FEFFDD" style="stroke:#181818;stroke-width:0.5;"/><text fill="#000000" font-family="sans-serif" font-size="13" font-weight="bold" lengthAdjust="spacing" textLength="121" x="329" y="23.0669">HTTP Endpoints:</text><text fill="#000000" font-family="monospace" font-size="13" lengthAdjust="spacing" textLength="192" x="329" y="38.1997">DELETE&#160;/orders/{orderId}</text></g><!--link application__team__frontend to application__team__order_service--><g id="link_application__team__frontend_application__team__order_service"><path d="M90.01,26 C108.3,26 124.07,26 143.82,26 " fill="none" id="application__team__frontend-to-application__team__order_service" style="stroke:#181818;stroke-width:1.0;"/><polygon fill="#181818" points="149.82,26,140.82,22,144.82,26,140.82,30,149.82,26" style="stroke:#181818;stroke-width:1.0;"/><text fill="#000000" font-family="sans-serif" font-size="13" lengthAdjust="spacing" textLength="21" x="97.92" y="39.0669">JWT</text></g><rect fill="none" height="46.5938" id="_legend" rx="7.5" ry="7.5" style="stroke:#FFFFFF;stroke-width:1.0;" width="173" x="12" y="64.2656"/><text fill="#000000" font-family="sans-serif" font-size="14" lengthAdjust="spacing" textLength="36" x="21" y="84.2607">Color</text><text fill="#000000" font-family="sans-serif" font-size="14" lengthAdjust="spacing" textLength="91" x="65" y="84.2607">Belongs to ...</text><rect fill="#ADD8E6" height="16.2969" style="stroke:none;stroke-width:1.0;" width="44" x="17" y="87.5625"/><text fill="#000000" font-family="sans-serif" font-size="14" lengthAdjust="spacing" textLength="4" x="17" y="100.5576">&#160;</text><text fill="#000000" font-family="sans-serif" font-size="14" lengthAdjust="spacing" textLength="115" x="65" y="100.5576">our components</text><line style="stroke:#000000;stroke-width:1.0;" x1="17" x2="180" y1="71.2656" y2="71.2656"/><line style="stroke:#000000;stroke-width:1.0;" x1="17" x2="180" y1="87.5625" y2="87.5625"/><line style="stroke:#000000;stroke-width:1.0;" x1="17" x2="180" y1="103.8594" y2="103.8594"/><line style="stroke:#000000;stroke-width:1.0;" x1="17" x2="17" y1="71.2656" y2="103.8594"/><line style="stroke:#000000;stroke-width:1.0;" x1="61" x2="61" y1="71.2656" y2="103.8594"/><line style="stroke:#000000;stroke-width:1.0;" x1="180" x2="180" y1="71.2656" y2="103.8594"/></g></svg>