<?xml version="1.0" encoding="us-ascii" standalone="no"?><svg xmlns="http://www.w3.org/2000/svg" xmlns:xlink="http://www.w3.org/1999/xlink" contentStyleType="text/css" height="130px" preserveAspectRatio="none" style="width:519px;height:130px;background:#FFFFFF;" version="1.1" viewBox="0 0 519 130" width="519px" zoomAndPan="magnify"><defs/><g><!--entity platform__application__frontend--><g id="elem_platform__application__frontend"><rect fill="#87CEEB" height="36.2969" rx="2.5" ry="2.5" style="stroke:#181818;stroke-width:2.0;" width="83" x="7" y="8"/><text fill="#000000" font-family="sans-serif" font-size="14" lengthAdjust="spacing" textLength="63" x="17" y="30.9951">Frontend</text></g><!--entity platform__application__backend_service_1--><g id="elem_platform__application__backend_service_1"><rect fill="#ADD8E6" height="36.2969" rx="2.5" ry="2.5" style="stroke:#181818;stroke-width:0.5;" width="160" x="150" y="8"/><text fill="#000000" font-family="sans-serif" font-size="14" lengthAdjust="spacing" textLength="140" x="160" y="30.9951">Backend Service #1</text></g><g id="elem_GMN4"><path d="M370,6 L370,22 L310.07,26 L370,30 L370,46.2656 A0,0 0 0 0 370,46.2656 L512,46.2656 A0,0 0 0 0 512,46.2656 L512,16 L502,6 L370,6 A0,0 0 0 0 370,6 " fill="#FEFFDD" style="stroke:#181818;stroke-width:0.5;"/><path d="M502,6 L502,16 L512,16 L502,6 " fill="#FEFFDD" style="stroke:#181818;stroke-width:0.5;"/><text fill="#000000" font-family="sans-serif" font-size="13" font-weight="bold" lengthAdjust="spacing" textLength="121" x="376" y="23.0669">HTTP Endpoints:</text><text fill="#000000" font-family="monospace" font-size="13" lengthAdjust="spacing" textLength="96" x="376" y="38.1997">POST&#160;/search</text></g><!--link platform__application__frontend to platform__application__backend_service_1--><g id="link_platform__application__frontend_platform__application__backend_service_1"><path d="M90.14,26 C107.93,26 123.33,26 143.97,26 " fill="none" id="platform__application__frontend-to-platform__application__backend_service_1" style="stroke:#181818;stroke-width:1.0;"/><polygon fill="#181818" points="149.97,26,140.97,22,144.97,26,140.97,30,149.97,26" style="stroke:#181818;stroke-width:1.0;"/><text fill="#000000" font-family="sans-serif" font-size="13" lengthAdjust="spacing" textLength="21" x="98.06" y="39.0669">JWT</text></g><rect fill="none" height="46.5938" id="_legend" rx="7.5" ry="7.5" style="stroke:#FFFFFF;stroke-width:1.0;" width="159" x="12" y="64.2656"/><text fill="#000000" font-family="sans-serif" font-size="14" lengthAdjust="spacing" textLength="36" x="21" y="84.2607">Color</text><text fill="#000000" font-family="sans-serif" font-size="14" lengthAdjust="spacing" textLength="91" x="65" y="84.2607">Belongs to ...</text><rect fill="#ADD8E6" height="16.2969" style="stroke:none;stroke-width:1.0;" width="44" x="17" y="87.5625"/><text fill="#000000" font-family="sans-serif" font-size="14" lengthAdjust="spacing" textLength="4" x="17" y="100.5576">&#160;</text><text fill="#000000" font-family="sans-serif" font-size="14" lengthAdjust="spacing" textLength="101" x="65" y="100.5576">our application</text><line style="stroke:#000000;stroke-width:1.0;" x1="17" x2="166" y1="71.2656" y2="71.2656"/><line style="stroke:#000000;stroke-width:1.0;" x1="17" x2="166" y1="87.5625" y2="87.5625"/><line style="stroke:#000000;stroke-width:1.0;" x1="17" x2="166" y1="103.8594" y2="103.8594"/><line style="stroke:#000000;stroke-width:1.0;" x1="17" x2="17" y1="71.2656" y2="103.8594"/><line style="stroke:#000000;stroke-width:1.0;" x1="61" x2="61" y1="71.2656" y2="103.8594"/><line style="stroke:#000000;stroke-width:1.0;" x1="166" x2="166" y1="71.2656" y2="103.8594"/></g></svg>