<?xml version="1.0" encoding="us-ascii" standalone="no"?><svg xmlns="http://www.w3.org/2000/svg" xmlns:xlink="http://www.w3.org/1999/xlink" contentStyleType="text/css" height="476px" preserveAspectRatio="none" style="width:1764px;height:476px;background:#FFFFFF;" version="1.1" viewBox="0 0 1764 476" width="1764px" zoomAndPan="magnify"><defs/><g><!--entity platform__application__order_service--><g id="elem_platform__application__order_service"><rect fill="#D3D3D3" height="72.5938" rx="5" ry="5" style="stroke:#181818;stroke-width:1.0;" width="226" x="14" y="92"/><text fill="#000000" font-family="sans-serif" font-size="28" lengthAdjust="spacing" textLength="186" x="34" y="137.9902">Order Service</text></g><!--entity platform__application__inventory_service--><g id="elem_platform__application__inventory_service"><rect fill="#87CEEB" height="72.5938" rx="5" ry="5" style="stroke:#181818;stroke-width:4.0;" width="274" x="360" y="92"/><text fill="#000000" font-family="sans-serif" font-size="28" lengthAdjust="spacing" textLength="234" x="380" y="137.9902">Inventory Service</text></g><!--entity platform__notification_service--><g id="elem_platform__notification_service"><rect fill="#FFE4B5" height="72.5938" rx="5" ry="5" style="stroke:#181818;stroke-width:1.0;" width="300" x="757" y="18"/><text fill="#000000" font-family="sans-serif" font-size="28" lengthAdjust="spacing" textLength="260" x="777" y="63.9902">Notification Service</text></g><g id="elem_GMN5"><path d="M1212,12 L1212,46 L1057.26,54 L1212,62 L1212,92.5313 A0,0 0 0 0 1212,92.5313 L1718,92.5313 A0,0 0 0 0 1718,92.5313 L1718,32 L1698,12 L1212,12 A0,0 0 0 0 1212,12 " fill="#FEFFDD" style="stroke:#181818;stroke-width:1.0;"/><path d="M1698,12 L1698,32 L1718,32 L1698,12 " fill="#FEFFDD" style="stroke:#181818;stroke-width:1.0;"/><text fill="#000000" font-family="sans-serif" font-size="26" font-weight="bold" lengthAdjust="spacing" textLength="242" x="1224" y="46.1338">HTTP Endpoints:</text><text fill="#000000" font-family="monospace" font-size="26" lengthAdjust="spacing" textLength="464" x="1224" y="76.3994">POST&#160;/notifications/low-stock</text></g><!--entity other_project__warehouse_service--><g id="elem_other_project__warehouse_service"><rect fill="#F08080" height="72.5938" rx="5" ry="5" style="stroke:#181818;stroke-width:1.0;" width="306" x="754" y="162"/><text fill="#000000" font-family="sans-serif" font-size="28" lengthAdjust="spacing" textLength="266" x="774" y="207.9902">Warehouse Service</text></g><g id="elem_GMN9"><path d="M1180,162 L1180,190 L1060.22,198 L1180,206 L1180,242.5313 A0,0 0 0 0 1180,242.5313 L1750,242.5313 A0,0 0 0 0 1750,242.5313 L1750,182 L1730,162 L1180,162 A0,0 0 0 0 1180,162 " fill="#FEFFDD" style="stroke:#181818;stroke-width:1.0;"/><path d="M1730,162 L1730,182 L1750,182 L1730,162 " fill="#FEFFDD" style="stroke:#181818;stroke-width:1.0;"/><text fill="#000000" font-family="sans-serif" font-size="26" font-weight="bold" lengthAdjust="spacing" textLength="242" x="1192" y="196.1338">HTTP Endpoints:</text><text fill="#000000" font-family="monospace" font-size="26" lengthAdjust="spacing" textLength="528" x="1192" y="226.3994">GET&#160;/warehouses/stock/{productId}</text></g><!--link platform__application__order_service to platform__application__inventory_service--><g id="link_platform__application__order_service_platform__application__inventory_service"><path d="M240.02,128 C277.86,128 308.44,128 347.9,128 " fill="none" id="platform__application__order_service-to-platform__application__inventory_service" style="stroke:#181818;stroke-width:2.0;"/><polygon fill="#181818" points="359.9,128,341.9,120,349.9,128,341.9,136,359.9,128" style="stroke:#181818;stroke-width:2.0;"/></g><!--link platform__application__inventory_service to platform__notification_service--><g id="link_platform__application__inventory_service_platform__notification_service"><path d="M498,91.86 C498,73.08 498,54 498,54 C498,54 627.82,54 744.44,54 " fill="none" id="platform__application__inventory_service-to-platform__notification_service" style="stroke:#181818;stroke-width:2.0;"/><polygon fill="#181818" points="756.44,54,738.44,46,746.44,54,738.44,62,756.44,54" style="stroke:#181818;stroke-width:2.0;"/><text fill="#000000" font-family="sans-serif" font-size="26" lengthAdjust="spacing" textLength="42" x="564.28" y="80.1338">JWT</text></g><!--link platform__application__inventory_service to other_project__warehouse_service--><g id="link_platform__application__inventory_service_other_project__warehouse_service"><path d="M498,164.34 C498,181.8 498,199 498,199 C498,199 625.48,199 741.54,199 " fill="none" id="platform__application__inventory_service-to-other_project__warehouse_service" style="stroke:#181818;stroke-width:2.0;"/><polygon fill="#181818" points="753.54,199,735.54,191,743.54,199,735.54,207,753.54,199" style="stroke:#181818;stroke-width:2.0;"/><text fill="#000000" font-family="sans-serif" font-size="26" lengthAdjust="spacing" textLength="138" x="468.44" y="225.1338">Basic-Auth</text></g><rect fill="none" height="158.375" id="_legend" rx="15" ry="15" style="stroke:#FFFFFF;stroke-width:2.0;" width="318" x="24" y="278.5313"/><text fill="#000000" font-family="sans-serif" font-size="28" lengthAdjust="spacing" textLength="72" x="42" y="318.5215">Color</text><text fill="#000000" font-family="sans-serif" font-size="28" lengthAdjust="spacing" textLength="182" x="130" y="318.5215">Belongs to ...</text><rect fill="#ADD8E6" height="32.5938" style="stroke:none;stroke-width:2.0;" width="88" x="34" y="325.125"/><text fill="#000000" font-family="sans-serif" font-size="28" lengthAdjust="spacing" textLength="8" x="34" y="351.1152">&#160;</text><text fill="#000000" font-family="sans-serif" font-size="28" lengthAdjust="spacing" textLength="202" x="130" y="351.1152">our application</text><rect fill="#FFE4B5" height="32.5938" style="stroke:none;stroke-width:2.0;" width="88" x="34" y="357.7188"/><text fill="#000000" font-family="sans-serif" font-size="28" lengthAdjust="spacing" textLength="8" x="34" y="383.709">&#160;</text><text fill="#000000" font-family="sans-serif" font-size="28" lengthAdjust="spacing" textLength="196" x="130" y="383.709">same platform</text><rect fill="#F08080" height="32.5938" style="stroke:none;stroke-width:2.0;" width="88" x="34" y="390.3125"/><text fill="#000000" font-family="sans-serif" font-size="28" lengthAdjust="spacing" textLength="8" x="34" y="416.3027">&#160;</text><text fill="#000000" font-family="sans-serif" font-size="28" lengthAdjust="spacing" textLength="178" x="130" y="416.3027">other project</text><line style="stroke:#000000;stroke-width:2.0;" x1="34" x2="332" y1="292.5313" y2="292.5313"/><line style="stroke:#000000;stroke-width:2.0;" x1="34" x2="332" y1="325.125" y2="325.125"/><line style="stroke:#000000;stroke-width:2.0;" x1="34" x2="332" y1="357.7188" y2="357.7188"/><line style="stroke:#000000;stroke-width:2.0;" x1="34" x2="332" y1="390.3125" y2="390.3125"/><line style="stroke:#000000;stroke-width:2.0;" x1="34" x2="332" y1="422.9063" y2="422.9063"/><line style="stroke:#000000;stroke-width:2.0;" x1="34" x2="34" y1="292.5313" y2="422.9063"/><line style="stroke:#000000;stroke-width:2.0;" x1="122" x2="122" y1="292.5313" y2="422.9063"/><line style="stroke:#000000;stroke-width:2.0;" x1="332" x2="332" y1="292.5313" y2="422.9063"/></g></svg>