<?xml version="1.0" encoding="us-ascii" standalone="no"?><svg xmlns="http://www.w3.org/2000/svg" xmlns:xlink="http://www.w3.org/1999/xlink" contentStyleType="text/css" height="238px" preserveAspectRatio="none" style="width:882px;height:238px;background:#FFFFFF;" version="1.1" viewBox="0 0 882 238" width="882px" zoomAndPan="magnify"><defs/><g><!--entity application__team__order_service--><g id="elem_application__team__order_service"><rect fill="#ADD8E6" height="36.2969" rx="2.5" ry="2.5" style="stroke:#181818;stroke-width:0.5;" width="113" x="7" y="46"/><text fill="#000000" font-family="sans-serif" font-size="14" lengthAdjust="spacing" textLength="93" x="17" y="68.9951">Order Service</text></g><!--entity application__team__inventory_service--><g id="elem_application__team__inventory_service"><rect fill="#87CEEB" height="36.2969" rx="2.5" ry="2.5" style="stroke:#181818;stroke-width:2.0;" width="137" x="180" y="46"/><text fill="#000000" font-family="sans-serif" font-size="14" lengthAdjust="spacing" textLength="117" x="190" y="68.9951">Inventory Service</text></g><!--entity application__notification_service--><g id="elem_application__notification_service"><rect fill="#FFE4B5" height="36.2969" rx="2.5" ry="2.5" style="stroke:#181818;stroke-width:0.5;" width="150" x="378.5" y="9"/><text fill="#000000" font-family="sans-serif" font-size="14" lengthAdjust="spacing" textLength="130" x="388.5" y="31.9951">Notification Service</text></g><g id="elem_GMN5"><path d="M606,6 L606,23 L528.63,27 L606,31 L606,46.2656 A0,0 0 0 0 606,46.2656 L859,46.2656 A0,0 0 0 0 859,46.2656 L859,16 L849,6 L606,6 A0,0 0 0 0 606,6 " fill="#FEFFDD" style="stroke:#181818;stroke-width:0.5;"/><path d="M849,6 L849,16 L859,16 L849,6 " fill="#FEFFDD" style="stroke:#181818;stroke-width:0.5;"/><text fill="#000000" font-family="sans-serif" font-size="13" font-weight="bold" lengthAdjust="spacing" textLength="121" x="612" y="23.0669">HTTP Endpoints:</text><text fill="#000000" font-family="monospace" font-size="13" lengthAdjust="spacing" textLength="232" x="612" y="38.1997">POST&#160;/notifications/low-stock</text></g><!--entity third_party__warehouse_service--><g id="elem_third_party__warehouse_service"><rect fill="#F08080" height="36.2969" rx="2.5" ry="2.5" style="stroke:#181818;stroke-width:0.5;" width="153" x="377" y="81"/><text fill="#000000" font-family="sans-serif" font-size="14" lengthAdjust="spacing" textLength="133" x="387" y="103.9951">Warehouse Service</text></g><g id="elem_GMN9"><path d="M590,81 L590,95 L530.11,99 L590,103 L590,121.2656 A0,0 0 0 0 590,121.2656 L875,121.2656 A0,0 0 0 0 875,121.2656 L875,91 L865,81 L590,81 A0,0 0 0 0 590,81 " fill="#FEFFDD" style="stroke:#181818;stroke-width:0.5;"/><path d="M865,81 L865,91 L875,91 L865,81 " fill="#FEFFDD" style="stroke:#181818;stroke-width:0.5;"/><text fill="#000000" font-family="sans-serif" font-size="13" font-weight="bold" lengthAdjust="spacing" textLength="121" x="596" y="98.0669">HTTP Endpoints:</text><text fill="#000000" font-family="monospace" font-size="13" lengthAdjust="spacing" textLength="264" x="596" y="113.1997">GET&#160;/warehouses/stock/{productId}</text></g><!--link application__team__order_service to application__team__inventory_service--><g id="link_application__team__order_service_application__team__inventory_service"><path d="M120.01,64 C138.93,64 154.22,64 173.95,64 " fill="none" id="application__team__order_service-to-application__team__inventory_service" style="stroke:#181818;stroke-width:1.0;"/><polygon fill="#181818" points="179.95,64,170.95,60,174.95,64,170.95,68,179.95,64" style="stroke:#181818;stroke-width:1.0;"/></g><!--link application__team__inventory_service to application__notification_service--><g id="link_application__team__inventory_service_application__notification_service"><path d="M249,45.93 C249,36.54 249,27 249,27 C249,27 313.91,27 372.22,27 " fill="none" id="application__team__inventory_service-to-application__notification_service" style="stroke:#181818;stroke-width:1.0;"/><polygon fill="#181818" points="378.22,27,369.22,23,373.22,27,369.22,31,378.22,27" style="stroke:#181818;stroke-width:1.0;"/><text fill="#000000" font-family="sans-serif" font-size="13" lengthAdjust="spacing" textLength="21" x="282.14" y="40.0669">JWT</text></g><!--link application__team__inventory_service to third_party__warehouse_service--><g id="link_application__team__inventory_service_third_party__warehouse_service"><path d="M249,82.17 C249,90.9 249,99.5 249,99.5 C249,99.5 312.74,99.5 370.77,99.5 " fill="none" id="application__team__inventory_service-to-third_party__warehouse_service" style="stroke:#181818;stroke-width:1.0;"/><polygon fill="#181818" points="376.77,99.5,367.77,95.5,371.77,99.5,367.77,103.5,376.77,99.5" style="stroke:#181818;stroke-width:1.0;"/><text fill="#000000" font-family="sans-serif" font-size="13" lengthAdjust="spacing" textLength="69" x="234.22" y="112.5669">Basic-Auth</text></g><rect fill="none" height="79.1875" id="_legend" rx="7.5" ry="7.5" style="stroke:#FFFFFF;stroke-width:1.0;" width="174" x="12" y="139.2656"/><text fill="#000000" font-family="sans-serif" font-size="14" lengthAdjust="spacing" textLength="36" x="21" y="159.2607">Color</text><text fill="#000000" font-family="sans-serif" font-size="14" lengthAdjust="spacing" textLength="91" x="65" y="159.2607">Belongs to ...</text><rect fill="#ADD8E6" height="16.2969" style="stroke:none;stroke-width:1.0;" width="44" x="17" y="162.5625"/><text fill="#000000" font-family="sans-serif" font-size="14" lengthAdjust="spacing" textLength="4" x="17" y="175.5576">&#160;</text><text fill="#000000" font-family="sans-serif" font-size="14" lengthAdjust="spacing" textLength="115" x="65" y="175.5576">our components</text><rect fill="#FFE4B5" height="16.2969" style="stroke:none;stroke-width:1.0;" width="44" x="17" y="178.8594"/><text fill="#000000" font-family="sans-serif" font-size="14" lengthAdjust="spacing" textLength="4" x="17" y="191.8545">&#160;</text><text fill="#000000" font-family="sans-serif" font-size="14" lengthAdjust="spacing" textLength="116" x="65" y="191.8545">same application</text><rect fill="#F08080" height="16.2969" style="stroke:none;stroke-width:1.0;" width="44" x="17" y="195.1563"/><text fill="#000000" font-family="sans-serif" font-size="14" lengthAdjust="spacing" textLength="4" x="17" y="208.1514">&#160;</text><text fill="#000000" font-family="sans-serif" font-size="14" lengthAdjust="spacing" textLength="61" x="65" y="208.1514">3rd party</text><line style="stroke:#000000;stroke-width:1.0;" x1="17" x2="181" y1="146.2656" y2="146.2656"/><line style="stroke:#000000;stroke-width:1.0;" x1="17" x2="181" y1="162.5625" y2="162.5625"/><line style="stroke:#000000;stroke-width:1.0;" x1="17" x2="181" y1="178.8594" y2="178.8594"/><line style="stroke:#000000;stroke-width:1.0;" x1="17" x2="181" y1="195.1563" y2="195.1563"/><line style="stroke:#000000;stroke-width:1.0;" x1="17" x2="181" y1="211.4531" y2="211.4531"/><line style="stroke:#000000;stroke-width:1.0;" x1="17" x2="17" y1="146.2656" y2="211.4531"/><line style="stroke:#000000;stroke-width:1.0;" x1="61" x2="61" y1="146.2656" y2="211.4531"/><line style="stroke:#000000;stroke-width:1.0;" x1="181" x2="181" y1="146.2656" y2="211.4531"/></g></svg>