<?xml version="1.0" encoding="us-ascii" standalone="no"?><svg xmlns="http://www.w3.org/2000/svg" xmlns:xlink="http://www.w3.org/1999/xlink" contentStyleType="text/css" height="312px" preserveAspectRatio="none" style="width:1041px;height:312px;background:#FFFFFF;" version="1.1" viewBox="0 0 1041 312" width="1041px" zoomAndPan="magnify"><defs/><g><!--entity platform__application__frontend--><g id="elem_platform__application__frontend"><rect fill="#D3D3D3" height="36.2969" rx="2.5" ry="2.5" style="stroke:#181818;stroke-width:0.5;" width="83" x="7" y="98.5"/><text fill="#000000" font-family="sans-serif" font-size="14" lengthAdjust="spacing" textLength="63" x="17" y="121.4951">Frontend</text></g><!--entity platform__application__order_service--><g id="elem_platform__application__order_service"><rect fill="#87CEEB" height="36.2969" rx="2.5" ry="2.5" style="stroke:#181818;stroke-width:2.0;" width="113" x="150" y="98.5"/><text fill="#000000" font-family="sans-serif" font-size="14" lengthAdjust="spacing" textLength="93" x="160" y="121.4951">Order Service</text></g><!--entity platform__application__inventory_service--><g id="elem_platform__application__inventory_service"><rect fill="#ADD8E6" height="36.2969" rx="2.5" ry="2.5" style="stroke:#181818;stroke-width:0.5;" width="137" x="329.5" y="21.5"/><text fill="#000000" font-family="sans-serif" font-size="14" lengthAdjust="spacing" textLength="117" x="339.5" y="44.4951">Inventory Service</text></g><g id="elem_GMN5"><path d="M633,6 L633,35.5 L466.92,39.5 L633,43.5 L633,61.3984 A0,0 0 0 0 633,61.3984 L934,61.3984 A0,0 0 0 0 934,61.3984 L934,16 L924,6 L633,6 A0,0 0 0 0 633,6 " fill="#FEFFDD" style="stroke:#181818;stroke-width:0.5;"/><path d="M924,6 L924,16 L934,16 L924,6 " fill="#FEFFDD" style="stroke:#181818;stroke-width:0.5;"/><text fill="#000000" font-family="sans-serif" font-size="13" font-weight="bold" lengthAdjust="spacing" textLength="121" x="639" y="23.0669">HTTP Endpoints:</text><text fill="#000000" font-family="monospace" font-size="13" lengthAdjust="spacing" textLength="216" x="639" y="38.1997">GET&#160;&#160;/inventory/{productId}</text><text fill="#000000" font-family="monospace" font-size="13" lengthAdjust="spacing" textLength="280" x="639" y="53.3325">POST&#160;/inventory/{productId}/reserve</text></g><!--entity platform__notification_service--><g id="elem_platform__notification_service"><rect fill="#FFE4B5" height="36.2969" rx="2.5" ry="2.5" style="stroke:#181818;stroke-width:0.5;" width="150" x="323" y="98.5"/><text fill="#000000" font-family="sans-serif" font-size="14" lengthAdjust="spacing" textLength="130" x="333" y="121.4951">Notification Service</text></g><!--entity platform__payment_service--><g id="elem_platform__payment_service"><rect fill="#FFE4B5" height="36.2969" rx="2.5" ry="2.5" style="stroke:#181818;stroke-width:0.5;" width="134" x="331" y="171.5"/><text fill="#000000" font-family="sans-serif" font-size="14" lengthAdjust="spacing" textLength="114" x="341" y="194.4951">Payment Service</text></g><g id="elem_GMN10"><path d="M533,96.5 L533,112.5 L473.24,116.5 L533,120.5 L533,136.7656 A0,0 0 0 0 533,136.7656 L1034,136.7656 A0,0 0 0 0 1034,136.7656 L1034,106.5 L1024,96.5 L533,96.5 A0,0 0 0 0 533,96.5 " fill="#FEFFDD" style="stroke:#181818;stroke-width:0.5;"/><path d="M1024,96.5 L1024,106.5 L1034,106.5 L1024,96.5 " fill="#FEFFDD" style="stroke:#181818;stroke-width:0.5;"/><text fill="#000000" font-family="sans-serif" font-size="13" font-weight="bold" lengthAdjust="spacing" textLength="121" x="539" y="113.5669">HTTP Endpoints:</text><text fill="#000000" font-family="monospace" font-size="13" lengthAdjust="spacing" textLength="480" x="539" y="128.6997">POST&#160;/notifications/customer/{customerId}/order-confirmation</text></g><g id="elem_GMN13"><path d="M712.5,171.5 L712.5,185.5 L465.15,189.5 L712.5,193.5 L712.5,211.7656 A0,0 0 0 0 712.5,211.7656 L854.5,211.7656 A0,0 0 0 0 854.5,211.7656 L854.5,181.5 L844.5,171.5 L712.5,171.5 A0,0 0 0 0 712.5,171.5 " fill="#FEFFDD" style="stroke:#181818;stroke-width:0.5;"/><path d="M844.5,171.5 L844.5,181.5 L854.5,181.5 L844.5,171.5 " fill="#FEFFDD" style="stroke:#181818;stroke-width:0.5;"/><text fill="#000000" font-family="sans-serif" font-size="13" font-weight="bold" lengthAdjust="spacing" textLength="121" x="718.5" y="188.5669">HTTP Endpoints:</text><text fill="#000000" font-family="monospace" font-size="13" lengthAdjust="spacing" textLength="112" x="718.5" y="203.6997">POST&#160;/payments</text></g><!--link platform__application__frontend to platform__application__order_service--><g id="link_platform__application__frontend_platform__application__order_service"><path d="M90.01,116.5 C108.3,116.5 124.07,116.5 143.82,116.5 " fill="none" id="platform__application__frontend-to-platform__application__order_service" style="stroke:#181818;stroke-width:1.0;"/><polygon fill="#181818" points="149.82,116.5,140.82,112.5,144.82,116.5,140.82,120.5,149.82,116.5" style="stroke:#181818;stroke-width:1.0;"/></g><!--link platform__application__order_service to platform__notification_service--><g id="link_platform__application__order_service_platform__notification_service"><path d="M263.18,116.5 C281.93,116.5 297.09,116.5 317,116.5 " fill="none" id="platform__application__order_service-to-platform__notification_service" style="stroke:#181818;stroke-width:1.0;"/><polygon fill="#181818" points="323,116.5,314,112.5,318,116.5,314,120.5,323,116.5" style="stroke:#181818;stroke-width:1.0;"/><text fill="#000000" font-family="sans-serif" font-size="13" lengthAdjust="spacing" textLength="21" x="271.09" y="129.5669">JWT</text></g><!--link platform__application__order_service to platform__application__inventory_service--><g id="link_platform__application__order_service_platform__application__inventory_service"><path d="M207,98.25 C207,75.48 207,39.5 207,39.5 C207,39.5 268.56,39.5 323.31,39.5 " fill="none" id="platform__application__order_service-to-platform__application__inventory_service" style="stroke:#181818;stroke-width:1.0;"/><polygon fill="#181818" points="329.31,39.5,320.31,35.5,324.31,39.5,320.31,43.5,329.31,39.5" style="stroke:#181818;stroke-width:1.0;"/><text fill="#000000" font-family="sans-serif" font-size="13" lengthAdjust="spacing" textLength="21" x="216.78" y="52.5669">JWT</text></g><!--link platform__application__order_service to platform__payment_service--><g id="link_platform__application__order_service_platform__payment_service"><path d="M207,134.54 C207,156.16 207,189.5 207,189.5 C207,189.5 269.89,189.5 324.93,189.5 " fill="none" id="platform__application__order_service-to-platform__payment_service" style="stroke:#181818;stroke-width:1.0;"/><polygon fill="#181818" points="330.93,189.5,321.93,185.5,325.93,189.5,321.93,193.5,330.93,189.5" style="stroke:#181818;stroke-width:1.0;"/><text fill="#000000" font-family="sans-serif" font-size="13" lengthAdjust="spacing" textLength="21" x="219.49" y="202.5669">JWT</text></g><rect fill="none" height="62.8906" id="_legend" rx="7.5" ry="7.5" style="stroke:#FFFFFF;stroke-width:1.0;" width="159" x="12" y="229.7656"/><text fill="#000000" font-family="sans-serif" font-size="14" lengthAdjust="spacing" textLength="36" x="21" y="249.7607">Color</text><text fill="#000000" font-family="sans-serif" font-size="14" lengthAdjust="spacing" textLength="91" x="65" y="249.7607">Belongs to ...</text><rect fill="#ADD8E6" height="16.2969" style="stroke:none;stroke-width:1.0;" width="44" x="17" y="253.0625"/><text fill="#000000" font-family="sans-serif" font-size="14" lengthAdjust="spacing" textLength="4" x="17" y="266.0576">&#160;</text><text fill="#000000" font-family="sans-serif" font-size="14" lengthAdjust="spacing" textLength="101" x="65" y="266.0576">our application</text><rect fill="#FFE4B5" height="16.2969" style="stroke:none;stroke-width:1.0;" width="44" x="17" y="269.3594"/><text fill="#000000" font-family="sans-serif" font-size="14" lengthAdjust="spacing" textLength="4" x="17" y="282.3545">&#160;</text><text fill="#000000" font-family="sans-serif" font-size="14" lengthAdjust="spacing" textLength="98" x="65" y="282.3545">same platform</text><line style="stroke:#000000;stroke-width:1.0;" x1="17" x2="166" y1="236.7656" y2="236.7656"/><line style="stroke:#000000;stroke-width:1.0;" x1="17" x2="166" y1="253.0625" y2="253.0625"/><line style="stroke:#000000;stroke-width:1.0;" x1="17" x2="166" y1="269.3594" y2="269.3594"/><line style="stroke:#000000;stroke-width:1.0;" x1="17" x2="166" y1="285.6563" y2="285.6563"/><line style="stroke:#000000;stroke-width:1.0;" x1="17" x2="17" y1="236.7656" y2="285.6563"/><line style="stroke:#000000;stroke-width:1.0;" x1="61" x2="61" y1="236.7656" y2="285.6563"/><line style="stroke:#000000;stroke-width:1.0;" x1="166" x2="166" y1="236.7656" y2="285.6563"/></g></svg>