<?xml version="1.0" encoding="us-ascii" standalone="no"?><svg xmlns="http://www.w3.org/2000/svg" xmlns:xlink="http://www.w3.org/1999/xlink" contentStyleType="text/css" height="474px" preserveAspectRatio="none" style="width:1656px;height:474px;background:#FFFFFF;" version="1.1" viewBox="0 0 1656 474" width="1656px" zoomAndPan="magnify"><defs/><g><!--entity platform__application__frontend--><g id="elem_platform__application__frontend"><rect fill="#D3D3D3" height="72.5938" rx="5" ry="5" style="stroke:#181818;stroke-width:1.0;" width="166" x="14" y="115"/><text fill="#000000" font-family="sans-serif" font-size="28" lengthAdjust="spacing" textLength="126" x="34" y="160.9902">Frontend</text></g><!--entity platform__application__order_service--><g id="elem_platform__application__order_service"><rect fill="#87CEEB" height="72.5938" rx="5" ry="5" style="stroke:#181818;stroke-width:4.0;" width="226" x="300" y="115"/><text fill="#000000" font-family="sans-serif" font-size="28" lengthAdjust="spacing" textLength="186" x="320" y="160.9902">Order Service</text></g><!--entity platform__application__inventory_service--><g id="elem_platform__application__inventory_service"><rect fill="#ADD8E6" height="72.5938" rx="5" ry="5" style="stroke:#181818;stroke-width:1.0;" width="274" x="646" y="37"/><text fill="#000000" font-family="sans-serif" font-size="28" lengthAdjust="spacing" textLength="234" x="666" y="82.9902">Inventory Service</text></g><g id="elem_GMN5"><path d="M1040,12 L1040,65 L920.22,73 L1040,81 L1040,122.7969 A0,0 0 0 0 1040,122.7969 L1642,122.7969 A0,0 0 0 0 1642,122.7969 L1642,32 L1622,12 L1040,12 A0,0 0 0 0 1040,12 " fill="#FEFFDD" style="stroke:#181818;stroke-width:1.0;"/><path d="M1622,12 L1622,32 L1642,32 L1622,12 " fill="#FEFFDD" style="stroke:#181818;stroke-width:1.0;"/><text fill="#000000" font-family="sans-serif" font-size="26" font-weight="bold" lengthAdjust="spacing" textLength="242" x="1052" y="46.1338">HTTP Endpoints:</text><text fill="#000000" font-family="monospace" font-size="26" lengthAdjust="spacing" textLength="432" x="1052" y="76.3994">GET&#160;&#160;/inventory/{productId}</text><text fill="#000000" font-family="monospace" font-size="26" lengthAdjust="spacing" textLength="560" x="1052" y="106.665">POST&#160;/inventory/{productId}/reserve</text></g><!--entity platform__payment_service--><g id="elem_platform__payment_service"><rect fill="#FFE4B5" height="72.5938" rx="5" ry="5" style="stroke:#181818;stroke-width:1.0;" width="268" x="649" y="185"/><text fill="#000000" font-family="sans-serif" font-size="28" lengthAdjust="spacing" textLength="228" x="669" y="230.9902">Payment Service</text></g><g id="elem_GMN9"><path d="M1199,193 L1199,217 L917.36,225 L1199,233 L1199,273.5313 A0,0 0 0 0 1199,273.5313 L1483,273.5313 A0,0 0 0 0 1483,273.5313 L1483,213 L1463,193 L1199,193 A0,0 0 0 0 1199,193 " fill="#FEFFDD" style="stroke:#181818;stroke-width:1.0;"/><path d="M1463,193 L1463,213 L1483,213 L1463,193 " fill="#FEFFDD" style="stroke:#181818;stroke-width:1.0;"/><text fill="#000000" font-family="sans-serif" font-size="26" font-weight="bold" lengthAdjust="spacing" textLength="242" x="1211" y="227.1338">HTTP Endpoints:</text><text fill="#000000" font-family="monospace" font-size="26" lengthAdjust="spacing" textLength="224" x="1211" y="257.3994">POST&#160;/payments</text></g><!--link platform__application__frontend to platform__application__order_service--><g id="link_platform__application__frontend_platform__application__order_service"><path d="M180.02,151 C216.6,151 248.14,151 287.64,151 " fill="none" id="platform__application__frontend-to-platform__application__order_service" style="stroke:#181818;stroke-width:2.0;"/><polygon fill="#181818" points="299.64,151,281.64,143,289.64,151,281.64,159,299.64,151" style="stroke:#181818;stroke-width:2.0;"/></g><!--link platform__application__order_service to platform__application__inventory_service--><g id="link_platform__application__order_service_platform__application__inventory_service"><path d="M414,114.74 C414,94.38 414,73 414,73 C414,73 528.68,73 633.6,73 " fill="none" id="platform__application__order_service-to-platform__application__inventory_service" style="stroke:#181818;stroke-width:2.0;"/><polygon fill="#181818" points="645.6,73,627.6,65,635.6,73,627.6,81,645.6,73" style="stroke:#181818;stroke-width:2.0;"/><text fill="#000000" font-family="sans-serif" font-size="26" lengthAdjust="spacing" textLength="42" x="464.92" y="99.1338">JWT</text></g><!--link platform__application__order_service to platform__payment_service--><g id="link_platform__application__order_service_platform__payment_service"><path d="M414,187.34 C414,204.8 414,222 414,222 C414,222 531.24,222 636.74,222 " fill="none" id="platform__application__order_service-to-platform__payment_service" style="stroke:#181818;stroke-width:2.0;"/><polygon fill="#181818" points="648.74,222,630.74,214,638.74,222,630.74,230,648.74,222" style="stroke:#181818;stroke-width:2.0;"/><text fill="#000000" font-family="sans-serif" font-size="26" lengthAdjust="spacing" textLength="42" x="470.04" y="248.1338">JWT</text></g><rect fill="none" height="125.7813" id="_legend" rx="15" ry="15" style="stroke:#FFFFFF;stroke-width:2.0;" width="318" x="24" y="309.5313"/><text fill="#000000" font-family="sans-serif" font-size="28" lengthAdjust="spacing" textLength="72" x="42" y="349.5215">Color</text><text fill="#000000" font-family="sans-serif" font-size="28" lengthAdjust="spacing" textLength="182" x="130" y="349.5215">Belongs to ...</text><rect fill="#ADD8E6" height="32.5938" style="stroke:none;stroke-width:2.0;" width="88" x="34" y="356.125"/><text fill="#000000" font-family="sans-serif" font-size="28" lengthAdjust="spacing" textLength="8" x="34" y="382.1152">&#160;</text><text fill="#000000" font-family="sans-serif" font-size="28" lengthAdjust="spacing" textLength="202" x="130" y="382.1152">our application</text><rect fill="#FFE4B5" height="32.5938" style="stroke:none;stroke-width:2.0;" width="88" x="34" y="388.7188"/><text fill="#000000" font-family="sans-serif" font-size="28" lengthAdjust="spacing" textLength="8" x="34" y="414.709">&#160;</text><text fill="#000000" font-family="sans-serif" font-size="28" lengthAdjust="spacing" textLength="196" x="130" y="414.709">same platform</text><line style="stroke:#000000;stroke-width:2.0;" x1="34" x2="332" y1="323.5313" y2="323.5313"/><line style="stroke:#000000;stroke-width:2.0;" x1="34" x2="332" y1="356.125" y2="356.125"/><line style="stroke:#000000;stroke-width:2.0;" x1="34" x2="332" y1="388.7188" y2="388.7188"/><line style="stroke:#000000;stroke-width:2.0;" x1="34" x2="332" y1="421.3125" y2="421.3125"/><line style="stroke:#000000;stroke-width:2.0;" x1="34" x2="34" y1="323.5313" y2="421.3125"/><line style="stroke:#000000;stroke-width:2.0;" x1="122" x2="122" y1="323.5313" y2="421.3125"/><line style="stroke:#000000;stroke-width:2.0;" x1="332" x2="332" y1="323.5313" y2="421.3125"/></g></svg>