<?xml version="1.0" encoding="us-ascii" standalone="no"?><svg xmlns="http://www.w3.org/2000/svg" xmlns:xlink="http://www.w3.org/1999/xlink" contentStyleType="text/css" height="237px" preserveAspectRatio="none" style="width:826px;height:237px;background:#FFFFFF;" version="1.1" viewBox="0 0 826 237" width="826px" zoomAndPan="magnify"><defs/><g><!--entity platform__application__frontend--><g id="elem_platform__application__frontend"><rect fill="#D3D3D3" height="36.2969" rx="2.5" ry="2.5" style="stroke:#181818;stroke-width:0.5;" width="83" x="7" y="50"/><text fill="#000000" font-family="sans-serif" font-size="14" lengthAdjust="spacing" textLength="63" x="17" y="72.9951">Frontend</text></g><!--entity order_service--><g id="elem_order_service"><rect fill="#87CEEB" height="36.2969" rx="2.5" ry="2.5" style="stroke:#181818;stroke-width:2.0;" width="111" x="150" y="50"/><text fill="#000000" font-family="sans-serif" font-size="14" lengthAdjust="spacing" textLength="91" x="160" y="72.9951">order-service</text></g><!--entity payment_service--><g id="elem_payment_service"><rect fill="#FFE4B5" height="36.2969" rx="2.5" ry="2.5" style="stroke:#181818;stroke-width:0.5;" width="134" x="322.5" y="11"/><text fill="#000000" font-family="sans-serif" font-size="14" lengthAdjust="spacing" textLength="114" x="332.5" y="33.9951">payment-service</text></g><!--entity inventory_service--><g id="elem_inventory_service"><rect fill="#ADD8E6" height="36.2969" rx="2.5" ry="2.5" style="stroke:#181818;stroke-width:0.5;" width="137" x="321" y="85"/><text fill="#000000" font-family="sans-serif" font-size="14" lengthAdjust="spacing" textLength="117" x="331" y="107.9951">inventory-service</text></g><g id="elem_GMN6"><path d="M597.5,6 L597.5,24.5 L456.68,28.5 L597.5,32.5 L597.5,46.2656 A0,0 0 0 0 597.5,46.2656 L739.5,46.2656 A0,0 0 0 0 739.5,46.2656 L739.5,16 L729.5,6 L597.5,6 A0,0 0 0 0 597.5,6 " fill="#FEFFDD" style="stroke:#181818;stroke-width:0.5;"/><path d="M729.5,6 L729.5,16 L739.5,16 L729.5,6 " fill="#FEFFDD" style="stroke:#181818;stroke-width:0.5;"/><text fill="#000000" font-family="sans-serif" font-size="13" font-weight="bold" lengthAdjust="spacing" textLength="121" x="603.5" y="23.0669">HTTP Endpoints:</text><text fill="#000000" font-family="monospace" font-size="13" lengthAdjust="spacing" textLength="112" x="603.5" y="38.1997">POST&#160;/payments</text></g><g id="elem_GMN9"><path d="M518,81.5 L518,99 L458.11,103 L518,107 L518,136.8984 A0,0 0 0 0 518,136.8984 L819,136.8984 A0,0 0 0 0 819,136.8984 L819,91.5 L809,81.5 L518,81.5 A0,0 0 0 0 518,81.5 " fill="#FEFFDD" style="stroke:#181818;stroke-width:0.5;"/><path d="M809,81.5 L809,91.5 L819,91.5 L809,81.5 " fill="#FEFFDD" style="stroke:#181818;stroke-width:0.5;"/><text fill="#000000" font-family="sans-serif" font-size="13" font-weight="bold" lengthAdjust="spacing" textLength="121" x="524" y="98.5669">HTTP Endpoints:</text><text fill="#000000" font-family="monospace" font-size="13" lengthAdjust="spacing" textLength="216" x="524" y="113.6997">GET&#160;&#160;/inventory/{productId}</text><text fill="#000000" font-family="monospace" font-size="13" lengthAdjust="spacing" textLength="280" x="524" y="128.8325">POST&#160;/inventory/{productId}/reserve</text></g><!--link platform__application__frontend to order_service--><g id="link_platform__application__frontend_order_service"><path d="M90.16,68 C108.42,68 124.12,68 143.74,68 " fill="none" id="platform__application__frontend-to-order_service" style="stroke:#181818;stroke-width:1.0;"/><polygon fill="#181818" points="149.74,68,140.74,64,144.74,68,140.74,72,149.74,68" style="stroke:#181818;stroke-width:1.0;"/></g><!--link order_service to payment_service--><g id="link_order_service_payment_service"><path d="M206,49.87 C206,39.69 206,29 206,29 C206,29 264.05,29 316.47,29 " fill="none" id="order_service-to-payment_service" style="stroke:#181818;stroke-width:1.0;"/><polygon fill="#181818" points="322.47,29,313.47,25,317.47,29,313.47,33,322.47,29" style="stroke:#181818;stroke-width:1.0;"/><text fill="#000000" font-family="sans-serif" font-size="13" lengthAdjust="spacing" textLength="21" x="231.8" y="42.0669">JWT</text></g><!--link order_service to inventory_service--><g id="link_order_service_inventory_service"><path d="M206,86.17 C206,94.9 206,103.5 206,103.5 C206,103.5 262.79,103.5 314.91,103.5 " fill="none" id="order_service-to-inventory_service" style="stroke:#181818;stroke-width:1.0;"/><polygon fill="#181818" points="320.91,103.5,311.91,99.5,315.91,103.5,311.91,107.5,320.91,103.5" style="stroke:#181818;stroke-width:1.0;"/><text fill="#000000" font-family="sans-serif" font-size="13" lengthAdjust="spacing" textLength="21" x="232.79" y="116.5669">JWT</text></g><rect fill="none" height="62.8906" id="_legend" rx="7.5" ry="7.5" style="stroke:#FFFFFF;stroke-width:1.0;" width="159" x="12" y="154.8984"/><text fill="#000000" font-family="sans-serif" font-size="14" lengthAdjust="spacing" textLength="36" x="21" y="174.8936">Color</text><text fill="#000000" font-family="sans-serif" font-size="14" lengthAdjust="spacing" textLength="91" x="65" y="174.8936">Belongs to ...</text><rect fill="#ADD8E6" height="16.2969" style="stroke:none;stroke-width:1.0;" width="44" x="17" y="178.1953"/><text fill="#000000" font-family="sans-serif" font-size="14" lengthAdjust="spacing" textLength="4" x="17" y="191.1904">&#160;</text><text fill="#000000" font-family="sans-serif" font-size="14" lengthAdjust="spacing" textLength="101" x="65" y="191.1904">our application</text><rect fill="#FFE4B5" height="16.2969" style="stroke:none;stroke-width:1.0;" width="44" x="17" y="194.4922"/><text fill="#000000" font-family="sans-serif" font-size="14" lengthAdjust="spacing" textLength="4" x="17" y="207.4873">&#160;</text><text fill="#000000" font-family="sans-serif" font-size="14" lengthAdjust="spacing" textLength="98" x="65" y="207.4873">same platform</text><line style="stroke:#000000;stroke-width:1.0;" x1="17" x2="166" y1="161.8984" y2="161.8984"/><line style="stroke:#000000;stroke-width:1.0;" x1="17" x2="166" y1="178.1953" y2="178.1953"/><line style="stroke:#000000;stroke-width:1.0;" x1="17" x2="166" y1="194.4922" y2="194.4922"/><line style="stroke:#000000;stroke-width:1.0;" x1="17" x2="166" y1="210.7891" y2="210.7891"/><line style="stroke:#000000;stroke-width:1.0;" x1="17" x2="17" y1="161.8984" y2="210.7891"/><line style="stroke:#000000;stroke-width:1.0;" x1="61" x2="61" y1="161.8984" y2="210.7891"/><line style="stroke:#000000;stroke-width:1.0;" x1="166" x2="166" y1="161.8984" y2="210.7891"/></g></svg>