<?xml version="1.0" encoding="us-ascii" standalone="no"?><svg xmlns="http://www.w3.org/2000/svg" xmlns:xlink="http://www.w3.org/1999/xlink" contentStyleType="text/css" height="237px" preserveAspectRatio="none" style="width:828px;height:237px;background:#FFFFFF;" version="1.1" viewBox="0 0 828 237" width="828px" zoomAndPan="magnify"><defs/><g><!--entity application__team__frontend--><g id="elem_application__team__frontend"><rect fill="#ADD8E6" height="36.2969" rx="2.5" ry="2.5" style="stroke:#181818;stroke-width:0.5;" width="83" x="7" y="57.5"/><text fill="#000000" font-family="sans-serif" font-size="14" lengthAdjust="spacing" textLength="63" x="17" y="80.4951">Frontend</text></g><!--entity application__team__order_service--><g id="elem_application__team__order_service"><rect fill="#87CEEB" height="36.2969" rx="2.5" ry="2.5" style="stroke:#181818;stroke-width:2.0;" width="113" x="150" y="57.5"/><text fill="#000000" font-family="sans-serif" font-size="14" lengthAdjust="spacing" textLength="93" x="160" y="80.4951">Order Service</text></g><!--entity application__team__inventory_service--><g id="elem_application__team__inventory_service"><rect fill="#ADD8E6" height="36.2969" rx="2.5" ry="2.5" style="stroke:#181818;stroke-width:0.5;" width="137" x="323" y="18.5"/><text fill="#000000" font-family="sans-serif" font-size="14" lengthAdjust="spacing" textLength="117" x="333" y="41.4951">Inventory Service</text></g><g id="elem_GMN5"><path d="M520,6 L520,32.5 L460.11,36.5 L520,40.5 L520,61.3984 A0,0 0 0 0 520,61.3984 L821,61.3984 A0,0 0 0 0 821,61.3984 L821,16 L811,6 L520,6 A0,0 0 0 0 520,6 " fill="#FEFFDD" style="stroke:#181818;stroke-width:0.5;"/><path d="M811,6 L811,16 L821,16 L811,6 " fill="#FEFFDD" style="stroke:#181818;stroke-width:0.5;"/><text fill="#000000" font-family="sans-serif" font-size="13" font-weight="bold" lengthAdjust="spacing" textLength="121" x="526" y="23.0669">HTTP Endpoints:</text><text fill="#000000" font-family="monospace" font-size="13" lengthAdjust="spacing" textLength="216" x="526" y="38.1997">GET&#160;&#160;/inventory/{productId}</text><text fill="#000000" font-family="monospace" font-size="13" lengthAdjust="spacing" textLength="280" x="526" y="53.3325">POST&#160;/inventory/{productId}/reserve</text></g><!--entity application__payment_service--><g id="elem_application__payment_service"><rect fill="#FFE4B5" height="36.2969" rx="2.5" ry="2.5" style="stroke:#181818;stroke-width:0.5;" width="134" x="324.5" y="92.5"/><text fill="#000000" font-family="sans-serif" font-size="14" lengthAdjust="spacing" textLength="114" x="334.5" y="115.4951">Payment Service</text></g><g id="elem_GMN9"><path d="M599.5,96.5 L599.5,108.5 L458.68,112.5 L599.5,116.5 L599.5,136.7656 A0,0 0 0 0 599.5,136.7656 L741.5,136.7656 A0,0 0 0 0 741.5,136.7656 L741.5,106.5 L731.5,96.5 L599.5,96.5 A0,0 0 0 0 599.5,96.5 " fill="#FEFFDD" style="stroke:#181818;stroke-width:0.5;"/><path d="M731.5,96.5 L731.5,106.5 L741.5,106.5 L731.5,96.5 " fill="#FEFFDD" style="stroke:#181818;stroke-width:0.5;"/><text fill="#000000" font-family="sans-serif" font-size="13" font-weight="bold" lengthAdjust="spacing" textLength="121" x="605.5" y="113.5669">HTTP Endpoints:</text><text fill="#000000" font-family="monospace" font-size="13" lengthAdjust="spacing" textLength="112" x="605.5" y="128.6997">POST&#160;/payments</text></g><!--link application__team__frontend to application__team__order_service--><g id="link_application__team__frontend_application__team__order_service"><path d="M90.01,75.5 C108.3,75.5 124.07,75.5 143.82,75.5 " fill="none" id="application__team__frontend-to-application__team__order_service" style="stroke:#181818;stroke-width:1.0;"/><polygon fill="#181818" points="149.82,75.5,140.82,71.5,144.82,75.5,140.82,79.5,149.82,75.5" style="stroke:#181818;stroke-width:1.0;"/></g><!--link application__team__order_service to application__team__inventory_service--><g id="link_application__team__order_service_application__team__inventory_service"><path d="M207,57.37 C207,47.19 207,36.5 207,36.5 C207,36.5 264.34,36.5 316.8,36.5 " fill="none" id="application__team__order_service-to-application__team__inventory_service" style="stroke:#181818;stroke-width:1.0;"/><polygon fill="#181818" points="322.8,36.5,313.8,32.5,317.8,36.5,313.8,40.5,322.8,36.5" style="stroke:#181818;stroke-width:1.0;"/><text fill="#000000" font-family="sans-serif" font-size="13" lengthAdjust="spacing" textLength="21" x="232.46" y="49.5669">JWT</text></g><!--link application__team__order_service to application__payment_service--><g id="link_application__team__order_service_application__payment_service"><path d="M207,93.67 C207,102.4 207,111 207,111 C207,111 265.62,111 318.37,111 " fill="none" id="application__team__order_service-to-application__payment_service" style="stroke:#181818;stroke-width:1.0;"/><polygon fill="#181818" points="324.37,111,315.37,107,319.37,111,315.37,115,324.37,111" style="stroke:#181818;stroke-width:1.0;"/><text fill="#000000" font-family="sans-serif" font-size="13" lengthAdjust="spacing" textLength="21" x="235.02" y="124.0669">JWT</text></g><rect fill="none" height="62.8906" id="_legend" rx="7.5" ry="7.5" style="stroke:#FFFFFF;stroke-width:1.0;" width="174" x="12" y="154.7656"/><text fill="#000000" font-family="sans-serif" font-size="14" lengthAdjust="spacing" textLength="36" x="21" y="174.7607">Color</text><text fill="#000000" font-family="sans-serif" font-size="14" lengthAdjust="spacing" textLength="91" x="65" y="174.7607">Belongs to ...</text><rect fill="#ADD8E6" height="16.2969" style="stroke:none;stroke-width:1.0;" width="44" x="17" y="178.0625"/><text fill="#000000" font-family="sans-serif" font-size="14" lengthAdjust="spacing" textLength="4" x="17" y="191.0576">&#160;</text><text fill="#000000" font-family="sans-serif" font-size="14" lengthAdjust="spacing" textLength="115" x="65" y="191.0576">our components</text><rect fill="#FFE4B5" height="16.2969" style="stroke:none;stroke-width:1.0;" width="44" x="17" y="194.3594"/><text fill="#000000" font-family="sans-serif" font-size="14" lengthAdjust="spacing" textLength="4" x="17" y="207.3545">&#160;</text><text fill="#000000" font-family="sans-serif" font-size="14" lengthAdjust="spacing" textLength="116" x="65" y="207.3545">same application</text><line style="stroke:#000000;stroke-width:1.0;" x1="17" x2="181" y1="161.7656" y2="161.7656"/><line style="stroke:#000000;stroke-width:1.0;" x1="17" x2="181" y1="178.0625" y2="178.0625"/><line style="stroke:#000000;stroke-width:1.0;" x1="17" x2="181" y1="194.3594" y2="194.3594"/><line style="stroke:#000000;stroke-width:1.0;" x1="17" x2="181" y1="210.6563" y2="210.6563"/><line style="stroke:#000000;stroke-width:1.0;" x1="17" x2="17" y1="161.7656" y2="210.6563"/><line style="stroke:#000000;stroke-width:1.0;" x1="61" x2="61" y1="161.7656" y2="210.6563"/><line style="stroke:#000000;stroke-width:1.0;" x1="181" x2="181" y1="161.7656" y2="210.6563"/></g></svg>