<?xml version="1.0" encoding="us-ascii" standalone="no"?><svg xmlns="http://www.w3.org/2000/svg" xmlns:xlink="http://www.w3.org/1999/xlink" contentStyleType="text/css" height="498px" preserveAspectRatio="none" style="width:419px;height:498px;background:#FFFFFF;" version="1.1" viewBox="0 0 419 498" width="419px" zoomAndPan="magnify"><defs/><g><!--entity platform__application__inventory_service--><g id="elem_platform__application__inventory_service"><rect fill="#ADD8E6" height="36.2969" rx="2.5" ry="2.5" style="stroke:#181818;stroke-width:0.5;" width="137" x="106.5" y="233"/><text fill="#000000" font-family="sans-serif" font-size="14" lengthAdjust="spacing" textLength="117" x="116.5" y="255.9951">Inventory Service</text></g><!--entity platform__application__frontend--><g id="elem_platform__application__frontend"><rect fill="#ADD8E6" height="36.2969" rx="2.5" ry="2.5" style="stroke:#181818;stroke-width:0.5;" width="83" x="218.5" y="7"/><text fill="#000000" font-family="sans-serif" font-size="14" lengthAdjust="spacing" textLength="63" x="228.5" y="29.9951">Frontend</text></g><!--entity platform__application__order_service--><g id="elem_platform__application__order_service"><rect fill="#ADD8E6" height="36.2969" rx="2.5" ry="2.5" style="stroke:#181818;stroke-width:0.5;" width="113" x="203.5" y="120"/><text fill="#000000" font-family="sans-serif" font-size="14" lengthAdjust="spacing" textLength="93" x="213.5" y="142.9951">Order Service</text></g><!--entity platform__notification_service--><g id="elem_platform__notification_service"><rect fill="#FFE4B5" height="36.2969" rx="2.5" ry="2.5" style="stroke:#181818;stroke-width:0.5;" width="150" x="7" y="346"/><text fill="#000000" font-family="sans-serif" font-size="14" lengthAdjust="spacing" textLength="130" x="17" y="368.9951">Notification Service</text></g><!--entity other_project__warehouse_service--><g id="elem_other_project__warehouse_service"><rect fill="#F08080" height="36.2969" rx="2.5" ry="2.5" style="stroke:#181818;stroke-width:0.5;" width="153" x="192.5" y="346"/><text fill="#000000" font-family="sans-serif" font-size="14" lengthAdjust="spacing" textLength="133" x="202.5" y="368.9951">Warehouse Service</text></g><!--entity platform__payment_service--><g id="elem_platform__payment_service"><rect fill="#FFE4B5" height="36.2969" rx="2.5" ry="2.5" style="stroke:#181818;stroke-width:0.5;" width="134" x="279" y="233"/><text fill="#000000" font-family="sans-serif" font-size="14" lengthAdjust="spacing" textLength="114" x="289" y="255.9951">Payment Service</text></g><!--link platform__application__inventory_service to platform__notification_service--><g id="link_platform__application__inventory_service_platform__notification_service"><path d="M160.47,269.34 C143,290.2 117.7137,320.3812 100.2837,341.1812 " fill="none" id="platform__application__inventory_service-to-platform__notification_service" style="stroke:#181818;stroke-width:1.0;"/><polygon fill="#181818" points="96.43,345.78,105.2764,341.4509,99.6414,341.9477,99.1447,336.3127,96.43,345.78" style="stroke:#181818;stroke-width:1.0;"/><text fill="#000000" font-family="sans-serif" font-size="13" lengthAdjust="spacing" textLength="21" x="136" y="312.0669">JWT</text></g><!--link platform__application__inventory_service to other_project__warehouse_service--><g id="link_platform__application__inventory_service_other_project__warehouse_service"><path d="M189.69,269.34 C207.35,290.2 232.9218,320.4019 250.5418,341.2019 " fill="none" id="platform__application__inventory_service-to-other_project__warehouse_service" style="stroke:#181818;stroke-width:1.0;"/><polygon fill="#181818" points="254.42,345.78,251.6548,336.3273,251.1882,341.9649,245.5506,341.4983,254.42,345.78" style="stroke:#181818;stroke-width:1.0;"/><text fill="#000000" font-family="sans-serif" font-size="13" lengthAdjust="spacing" textLength="69" x="229" y="312.0669">Basic-Auth</text></g><!--link platform__application__frontend to platform__application__order_service--><g id="link_platform__application__frontend_platform__application__order_service"><path d="M260,43.34 C260,64.2 260,92.98 260,113.78 " fill="none" id="platform__application__frontend-to-platform__application__order_service" style="stroke:#181818;stroke-width:1.0;"/><polygon fill="#181818" points="260,119.78,264,110.78,260,114.78,256,110.78,260,119.78" style="stroke:#181818;stroke-width:1.0;"/><text fill="#000000" font-family="sans-serif" font-size="13" lengthAdjust="spacing" textLength="21" x="261" y="86.0669">JWT</text></g><!--link platform__application__order_service to platform__payment_service--><g id="link_platform__application__order_service_platform__payment_service"><path d="M273.44,156.34 C289.59,177.2 312.8646,207.2375 328.9846,228.0375 " fill="none" id="platform__application__order_service-to-platform__payment_service" style="stroke:#181818;stroke-width:1.0;"/><polygon fill="#181818" points="332.66,232.78,330.3085,223.216,329.5971,228.8279,323.9852,228.1166,332.66,232.78" style="stroke:#181818;stroke-width:1.0;"/><text fill="#000000" font-family="sans-serif" font-size="13" lengthAdjust="spacing" textLength="21" x="310" y="199.0669">JWT</text></g><!--link platform__application__order_service to platform__application__inventory_service--><g id="link_platform__application__order_service_platform__application__inventory_service"><path d="M246.72,156.34 C230.75,177.2 207.7567,207.2154 191.8367,228.0154 " fill="none" id="platform__application__order_service-to-platform__application__inventory_service" style="stroke:#181818;stroke-width:1.0;"/><polygon fill="#181818" points="188.19,232.78,196.8365,228.0643,191.229,228.8095,190.4837,223.202,188.19,232.78" style="stroke:#181818;stroke-width:1.0;"/><text fill="#000000" font-family="sans-serif" font-size="13" lengthAdjust="spacing" textLength="21" x="224" y="199.0669">JWT</text></g><rect fill="none" height="79.1875" id="_legend" rx="7.5" ry="7.5" style="stroke:#FFFFFF;stroke-width:1.0;" width="159" x="12" y="399.2969"/><text fill="#000000" font-family="sans-serif" font-size="14" lengthAdjust="spacing" textLength="36" x="21" y="419.292">Color</text><text fill="#000000" font-family="sans-serif" font-size="14" lengthAdjust="spacing" textLength="91" x="65" y="419.292">Belongs to ...</text><rect fill="#ADD8E6" height="16.2969" style="stroke:none;stroke-width:1.0;" width="44" x="17" y="422.5938"/><text fill="#000000" font-family="sans-serif" font-size="14" lengthAdjust="spacing" textLength="4" x="17" y="435.5889">&#160;</text><text fill="#000000" font-family="sans-serif" font-size="14" lengthAdjust="spacing" textLength="101" x="65" y="435.5889">our application</text><rect fill="#FFE4B5" height="16.2969" style="stroke:none;stroke-width:1.0;" width="44" x="17" y="438.8906"/><text fill="#000000" font-family="sans-serif" font-size="14" lengthAdjust="spacing" textLength="4" x="17" y="451.8857">&#160;</text><text fill="#000000" font-family="sans-serif" font-size="14" lengthAdjust="spacing" textLength="98" x="65" y="451.8857">same platform</text><rect fill="#F08080" height="16.2969" style="stroke:none;stroke-width:1.0;" width="44" x="17" y="455.1875"/><text fill="#000000" font-family="sans-serif" font-size="14" lengthAdjust="spacing" textLength="4" x="17" y="468.1826">&#160;</text><text fill="#000000" font-family="sans-serif" font-size="14" lengthAdjust="spacing" textLength="89" x="65" y="468.1826">other project</text><line style="stroke:#000000;stroke-width:1.0;" x1="17" x2="166" y1="406.2969" y2="406.2969"/><line style="stroke:#000000;stroke-width:1.0;" x1="17" x2="166" y1="422.5938" y2="422.5938"/><line style="stroke:#000000;stroke-width:1.0;" x1="17" x2="166" y1="438.8906" y2="438.8906"/><line style="stroke:#000000;stroke-width:1.0;" x1="17" x2="166" y1="455.1875" y2="455.1875"/><line style="stroke:#000000;stroke-width:1.0;" x1="17" x2="166" y1="471.4844" y2="471.4844"/><line style="stroke:#000000;stroke-width:1.0;" x1="17" x2="17" y1="406.2969" y2="471.4844"/><line style="stroke:#000000;stroke-width:1.0;" x1="61" x2="61" y1="406.2969" y2="471.4844"/><line style="stroke:#000000;stroke-width:1.0;" x1="166" x2="166" y1="406.2969" y2="471.4844"/></g></svg>