<?xml version="1.0" encoding="us-ascii" standalone="no"?><svg xmlns="http://www.w3.org/2000/svg" xmlns:xlink="http://www.w3.org/1999/xlink" contentStyleType="text/css" height="388px" preserveAspectRatio="none" style="width:453px;height:388px;background:#FFFFFF;" version="1.1" viewBox="0 0 453 388" width="453px" zoomAndPan="magnify"><defs/><g><!--entity frontend--><g id="elem_frontend"><rect fill="#ADD8E6" height="36.2969" rx="2.5" ry="2.5" style="stroke:#181818;stroke-width:0.5;" width="83" x="280.5" y="7"/><text fill="#000000" font-family="sans-serif" font-size="14" lengthAdjust="spacing" textLength="63" x="290.5" y="29.9951">Frontend</text></g><!--entity backend_service_2--><g id="elem_backend_service_2"><rect fill="#ADD8E6" height="36.2969" rx="2.5" ry="2.5" style="stroke:#181818;stroke-width:0.5;" width="160" x="98" y="233"/><text fill="#000000" font-family="sans-serif" font-size="14" lengthAdjust="spacing" textLength="140" x="108" y="255.9951">Backend Service #2</text></g><!--entity backend_service_1--><g id="elem_backend_service_1"><rect fill="#ADD8E6" height="36.2969" rx="2.5" ry="2.5" style="stroke:#181818;stroke-width:0.5;" width="160" x="242" y="120"/><text fill="#000000" font-family="sans-serif" font-size="14" lengthAdjust="spacing" textLength="140" x="252" y="142.9951">Backend Service #1</text></g><!--entity external_service_2--><g id="elem_external_service_2"><rect fill="#FFE4B5" height="36.2969" rx="2.5" ry="2.5" style="stroke:#181818;stroke-width:0.5;" width="154" x="7" y="346"/><text fill="#000000" font-family="sans-serif" font-size="14" lengthAdjust="spacing" textLength="134" x="17" y="368.9951">External Service #2</text></g><!--entity external_service_3--><g id="elem_external_service_3"><rect fill="#F08080" height="36.2969" rx="2.5" ry="2.5" style="stroke:#181818;stroke-width:0.5;" width="154" x="196" y="346"/><text fill="#000000" font-family="sans-serif" font-size="14" lengthAdjust="spacing" textLength="134" x="206" y="368.9951">External Service #3</text></g><!--entity external_service_1--><g id="elem_external_service_1"><rect fill="#FFE4B5" height="36.2969" rx="2.5" ry="2.5" style="stroke:#181818;stroke-width:0.5;" width="154" x="293" y="233"/><text fill="#000000" font-family="sans-serif" font-size="14" lengthAdjust="spacing" textLength="134" x="303" y="255.9951">External Service #1</text></g><!--link frontend to backend_service_1--><g id="link_frontend_backend_service_1"><path d="M322,43.34 C322,64.2 322,92.98 322,113.78 " fill="none" id="frontend-to-backend_service_1" style="stroke:#181818;stroke-width:1.0;"/><polygon fill="#181818" points="322,119.78,326,110.78,322,114.78,318,110.78,322,119.78" style="stroke:#181818;stroke-width:1.0;"/><text fill="#000000" font-family="sans-serif" font-size="13" lengthAdjust="spacing" textLength="21" x="323" y="86.0669">JWT</text></g><!--link backend_service_2 to external_service_2--><g id="link_backend_service_2_external_service_2"><path d="M163.31,269.34 C145.65,290.2 120.0782,320.4019 102.4582,341.2019 " fill="none" id="backend_service_2-to-external_service_2" style="stroke:#181818;stroke-width:1.0;"/><polygon fill="#181818" points="98.58,345.78,107.4494,341.4983,101.8118,341.9649,101.3452,336.3273,98.58,345.78" style="stroke:#181818;stroke-width:1.0;"/><text fill="#000000" font-family="sans-serif" font-size="13" lengthAdjust="spacing" textLength="21" x="138" y="312.0669">JWT</text></g><!--link backend_service_2 to external_service_3--><g id="link_backend_service_2_external_service_3"><path d="M192.84,269.34 C210.69,290.2 236.5589,320.4214 254.3589,341.2214 " fill="none" id="backend_service_2-to-external_service_3" style="stroke:#181818;stroke-width:1.0;"/><polygon fill="#181818" points="258.26,345.78,255.4474,336.3413,255.0091,341.9811,249.3692,341.5428,258.26,345.78" style="stroke:#181818;stroke-width:1.0;"/><text fill="#000000" font-family="sans-serif" font-size="13" lengthAdjust="spacing" textLength="69" x="233" y="312.0669">Basic-Auth</text></g><!--link backend_service_1 to backend_service_2--><g id="link_backend_service_1_backend_service_2"><path d="M299.82,156.1 C272.83,176.9 232.302,208.1469 205.202,229.0369 " fill="none" id="backend_service_1-to-backend_service_2" style="stroke:#181818;stroke-width:1.0;"/><polygon fill="#181818" points="200.45,232.7,210.0201,230.3734,204.41,229.6474,205.136,224.0373,200.45,232.7" style="stroke:#181818;stroke-width:1.0;"/><text fill="#000000" font-family="sans-serif" font-size="13" lengthAdjust="spacing" textLength="21" x="260" y="199.0669">JWT</text></g><!--link backend_service_1 to external_service_1--><g id="link_backend_service_1_external_service_1"><path d="M329.5,156.34 C338.52,177.2 351.1796,206.4724 360.1696,227.2724 " fill="none" id="backend_service_1-to-external_service_1" style="stroke:#181818;stroke-width:1.0;"/><polygon fill="#181818" points="362.55,232.78,362.6511,222.9317,360.5663,228.1903,355.3076,226.1056,362.55,232.78" style="stroke:#181818;stroke-width:1.0;"/><text fill="#000000" font-family="sans-serif" font-size="13" lengthAdjust="spacing" textLength="21" x="349" y="199.0669">JWT</text></g></g></svg>