<?xml version="1.0" encoding="us-ascii" standalone="no"?><svg xmlns="http://www.w3.org/2000/svg" xmlns:xlink="http://www.w3.org/1999/xlink" contentStyleType="text/css" height="163px" preserveAspectRatio="none" style="width:594px;height:163px;background:#FFFFFF;" version="1.1" viewBox="0 0 594 163" width="594px" zoomAndPan="magnify"><defs/><g><!--entity platform__application__frontend--><g id="elem_platform__application__frontend"><rect fill="#D3D3D3" height="36.2969" rx="2.5" ry="2.5" style="stroke:#181818;stroke-width:0.5;" width="83" x="36" y="50.5"/><text fill="#000000" font-family="sans-serif" font-size="14" lengthAdjust="spacing" textLength="63" x="46" y="73.4951">Frontend</text></g><!--entity platform__application__backend_service_1--><g id="elem_platform__application__backend_service_1"><rect fill="#87CEEB" height="36.2969" rx="2.5" ry="2.5" style="stroke:#181818;stroke-width:2.0;" width="160" x="208" y="86.5"/><text fill="#000000" font-family="sans-serif" font-size="14" lengthAdjust="spacing" textLength="140" x="218" y="109.4951">Backend Service #1</text></g><!--entity platform__application__backend_service_2--><g id="elem_platform__application__backend_service_2"><rect fill="#ADD8E6" height="36.2969" rx="2.5" ry="2.5" style="stroke:#181818;stroke-width:0.5;" width="160" x="428" y="50.5"/><text fill="#000000" font-family="sans-serif" font-size="14" lengthAdjust="spacing" textLength="140" x="438" y="73.4951">Backend Service #2</text></g><!--entity platform__application__backend_service_1_database--><g id="elem_platform__application__backend_service_1_database"><path d="M246,16 C246,6 288,6 288,6 C288,6 330,6 330,16 L330,41.2969 C330,51.2969 288,51.2969 288,51.2969 C288,51.2969 246,51.2969 246,41.2969 L246,16 " fill="#F1F1F1" style="stroke:#181818;stroke-width:0.5;"/><path d="M246,16 C246,26 288,26 288,26 C288,26 330,26 330,16 " fill="none" style="stroke:#181818;stroke-width:0.5;"/><text fill="#000000" font-family="sans-serif" font-size="14" lengthAdjust="spacing" textLength="64" x="256" y="42.9951">database</text></g><!--entity external_service_x--><g id="elem_external_service_x"><rect fill="#D3D3D3" height="36.2969" rx="2.5" ry="2.5" style="stroke:#181818;stroke-width:0.5;" width="141" x="7" y="121.5"/><text fill="#000000" font-family="sans-serif" font-size="14" lengthAdjust="spacing" textLength="121" x="17" y="144.4951">external-service-x</text></g><!--entity platform__external_service_1--><g id="elem_platform__external_service_1"><rect fill="#FFE4B5" height="36.2969" rx="2.5" ry="2.5" style="stroke:#181818;stroke-width:0.5;" width="154" x="431" y="121.5"/><text fill="#000000" font-family="sans-serif" font-size="14" lengthAdjust="spacing" textLength="134" x="441" y="144.4951">External Service #1</text></g><!--link platform__application__frontend to platform__application__backend_service_1--><g id="link_platform__application__frontend_platform__application__backend_service_1"><path d="M119.2,75.53 C144.44,79.89 171.8077,84.6081 202.0677,89.8381 " fill="none" id="platform__application__frontend-to-platform__application__backend_service_1" style="stroke:#181818;stroke-width:1.0;"/><polygon fill="#181818" points="207.98,90.86,199.7927,85.3856,203.053,90.0084,198.4302,93.2688,207.98,90.86" style="stroke:#181818;stroke-width:1.0;"/></g><!--link external_service_x to platform__application__backend_service_1--><g id="link_external_service_x_platform__application__backend_service_1"><path d="M148.22,127.8 C167.4,124.58 182.4128,122.0532 202.0728,118.7532 " fill="none" id="external_service_x-to-platform__application__backend_service_1" style="stroke:#181818;stroke-width:1.0;"/><polygon fill="#181818" points="207.99,117.76,198.452,115.305,203.059,118.5877,199.7763,123.1947,207.99,117.76" style="stroke:#181818;stroke-width:1.0;"/></g><!--link platform__application__backend_service_1 to platform__application__backend_service_2--><g id="link_platform__application__backend_service_1_platform__application__backend_service_2"><path d="M368.01,91.45 C387.51,88.23 402.4702,85.7575 421.9702,82.5375 " fill="none" id="platform__application__backend_service_1-to-platform__application__backend_service_2" style="stroke:#181818;stroke-width:1.0;"/><polygon fill="#181818" points="427.89,81.56,418.3586,79.0797,422.9568,82.3746,419.6619,86.9729,427.89,81.56" style="stroke:#181818;stroke-width:1.0;"/></g><!--reverse link platform__application__backend_service_1_database to platform__application__backend_service_1--><g id="link_platform__application__backend_service_1_database_platform__application__backend_service_1"><path d="M288,57.11 C288,68.87 288,74.63 288,86.39 " fill="none" id="platform__application__backend_service_1_database-backto-platform__application__backend_service_1" style="stroke:#181818;stroke-width:1.0;"/><polygon fill="#181818" points="288,51.11,284,60.11,288,56.11,292,60.11,288,51.11" style="stroke:#181818;stroke-width:1.0;"/></g><!--link platform__application__backend_service_1 to platform__external_service_1--><g id="link_platform__application__backend_service_1_platform__external_service_1"><path d="M368.01,117.19 C388.48,120.47 404.5561,123.0472 424.8861,126.3172 " fill="none" id="platform__application__backend_service_1-to-platform__external_service_1" style="stroke:#181818;stroke-width:1.0;"/><polygon fill="#181818" points="430.81,127.27,422.5594,121.8915,425.8735,126.476,421.289,129.79,430.81,127.27" style="stroke:#181818;stroke-width:1.0;"/></g></g></svg>