<?xml version="1.0" encoding="us-ascii" standalone="no"?><svg xmlns="http://www.w3.org/2000/svg" xmlns:xlink="http://www.w3.org/1999/xlink" contentStyleType="text/css" height="546px" preserveAspectRatio="none" style="width:1072px;height:546px;background:#FFFFFF;" version="1.1" viewBox="0 0 1072 546" width="1072px" zoomAndPan="magnify"><defs/><g><!--entity platform__application__order_service--><g id="elem_platform__application__order_service"><rect fill="#D3D3D3" height="72.5938" rx="5" ry="5" style="stroke:#181818;stroke-width:1.0;" width="226" x="14" y="173"/><text fill="#000000" font-family="sans-serif" font-size="28" lengthAdjust="spacing" textLength="186" x="34" y="218.9902">Order Service</text></g><!--entity platform__application__inventory_service--><g id="elem_platform__application__inventory_service"><rect fill="#87CEEB" height="72.5938" rx="5" ry="5" style="stroke:#181818;stroke-width:4.0;" width="274" x="360" y="173"/><text fill="#000000" font-family="sans-serif" font-size="28" lengthAdjust="spacing" textLength="234" x="380" y="218.9902">Inventory Service</text></g><!--entity platform__application__inventory_database--><g id="elem_platform__application__inventory_database"><path d="M413,32 C413,12 497,12 497,12 C497,12 581,12 581,32 L581,82.5938 C581,102.5938 497,102.5938 497,102.5938 C497,102.5938 413,102.5938 413,82.5938 L413,32 " fill="#F1F1F1" style="stroke:#181818;stroke-width:1.0;"/><path d="M413,32 C413,52 497,52 497,52 C497,52 581,52 581,32 " fill="none" style="stroke:#181818;stroke-width:1.0;"/><text fill="#000000" font-family="sans-serif" font-size="28" lengthAdjust="spacing" textLength="128" x="433" y="85.9902">database</text></g><!--entity platform__notification_service--><g id="elem_platform__notification_service"><rect fill="#FFE4B5" height="72.5938" rx="5" ry="5" style="stroke:#181818;stroke-width:1.0;" width="300" x="757" y="101"/><text fill="#000000" font-family="sans-serif" font-size="28" lengthAdjust="spacing" textLength="260" x="777" y="146.9902">Notification Service</text></g><!--entity other_project__warehouse_service--><g id="elem_other_project__warehouse_service"><rect fill="#F08080" height="72.5938" rx="5" ry="5" style="stroke:#181818;stroke-width:1.0;" width="306" x="754" y="243"/><text fill="#000000" font-family="sans-serif" font-size="28" lengthAdjust="spacing" textLength="266" x="774" y="288.9902">Warehouse Service</text></g><!--link platform__application__order_service to platform__application__inventory_service--><g id="link_platform__application__order_service_platform__application__inventory_service"><path d="M240.8,209 C278.22,209 308.34,209 347.38,209 " fill="none" id="platform__application__order_service-to-platform__application__inventory_service" style="stroke:#181818;stroke-width:2.0;"/><polygon fill="#181818" points="359.38,209,341.38,201,349.38,209,341.38,217,359.38,209" style="stroke:#181818;stroke-width:2.0;"/></g><!--reverse link platform__application__inventory_database to platform__application__inventory_service--><g id="link_platform__application__inventory_database_platform__application__inventory_service"><path d="M497,114.22 C497,137.74 497,149.26 497,172.78 " fill="none" id="platform__application__inventory_database-backto-platform__application__inventory_service" style="stroke:#181818;stroke-width:2.0;"/><polygon fill="#181818" points="497,102.22,489,120.22,497,112.22,505,120.22,497,102.22" style="stroke:#181818;stroke-width:2.0;"/></g><!--link platform__application__inventory_service to platform__notification_service--><g id="link_platform__application__inventory_service_platform__notification_service"><path d="M634.2,185.02 C673.4,178.08 704.6249,172.5382 744.6049,165.4382 " fill="none" id="platform__application__inventory_service-to-platform__notification_service" style="stroke:#181818;stroke-width:2.0;"/><polygon fill="#181818" points="756.42,163.34,737.2985,158.6106,746.5741,165.0885,740.0961,174.3641,756.42,163.34" style="stroke:#181818;stroke-width:2.0;"/></g><!--link platform__application__inventory_service to other_project__warehouse_service--><g id="link_platform__application__inventory_service_other_project__warehouse_service"><path d="M634.2,232.3 C672.48,238.92 702.5947,244.0997 741.7747,250.8597 " fill="none" id="platform__application__inventory_service-to-other_project__warehouse_service" style="stroke:#181818;stroke-width:2.0;"/><polygon fill="#181818" points="753.6,252.9,737.2223,241.956,743.7456,251.1998,734.5019,257.7231,753.6,252.9" style="stroke:#181818;stroke-width:2.0;"/></g><rect fill="none" height="158.375" id="_legend" rx="15" ry="15" style="stroke:#FFFFFF;stroke-width:2.0;" width="318" x="24" y="349.5938"/><text fill="#000000" font-family="sans-serif" font-size="28" lengthAdjust="spacing" textLength="72" x="42" y="389.584">Color</text><text fill="#000000" font-family="sans-serif" font-size="28" lengthAdjust="spacing" textLength="182" x="130" y="389.584">Belongs to ...</text><rect fill="#ADD8E6" height="32.5938" style="stroke:none;stroke-width:2.0;" width="88" x="34" y="396.1875"/><text fill="#000000" font-family="sans-serif" font-size="28" lengthAdjust="spacing" textLength="8" x="34" y="422.1777">&#160;</text><text fill="#000000" font-family="sans-serif" font-size="28" lengthAdjust="spacing" textLength="202" x="130" y="422.1777">our application</text><rect fill="#FFE4B5" height="32.5938" style="stroke:none;stroke-width:2.0;" width="88" x="34" y="428.7813"/><text fill="#000000" font-family="sans-serif" font-size="28" lengthAdjust="spacing" textLength="8" x="34" y="454.7715">&#160;</text><text fill="#000000" font-family="sans-serif" font-size="28" lengthAdjust="spacing" textLength="196" x="130" y="454.7715">same platform</text><rect fill="#F08080" height="32.5938" style="stroke:none;stroke-width:2.0;" width="88" x="34" y="461.375"/><text fill="#000000" font-family="sans-serif" font-size="28" lengthAdjust="spacing" textLength="8" x="34" y="487.3652">&#160;</text><text fill="#000000" font-family="sans-serif" font-size="28" lengthAdjust="spacing" textLength="178" x="130" y="487.3652">other project</text><line style="stroke:#000000;stroke-width:2.0;" x1="34" x2="332" y1="363.5938" y2="363.5938"/><line style="stroke:#000000;stroke-width:2.0;" x1="34" x2="332" y1="396.1875" y2="396.1875"/><line style="stroke:#000000;stroke-width:2.0;" x1="34" x2="332" y1="428.7813" y2="428.7813"/><line style="stroke:#000000;stroke-width:2.0;" x1="34" x2="332" y1="461.375" y2="461.375"/><line style="stroke:#000000;stroke-width:2.0;" x1="34" x2="332" y1="493.9688" y2="493.9688"/><line style="stroke:#000000;stroke-width:2.0;" x1="34" x2="34" y1="363.5938" y2="493.9688"/><line style="stroke:#000000;stroke-width:2.0;" x1="122" x2="122" y1="363.5938" y2="493.9688"/><line style="stroke:#000000;stroke-width:2.0;" x1="332" x2="332" y1="363.5938" y2="493.9688"/></g></svg>