<?xml version="1.0" encoding="us-ascii" standalone="no"?><svg xmlns="http://www.w3.org/2000/svg" xmlns:xlink="http://www.w3.org/1999/xlink" contentStyleType="text/css" height="257px" preserveAspectRatio="none" style="width:479px;height:257px;background:#FFFFFF;" version="1.1" viewBox="0 0 479 257" width="479px" zoomAndPan="magnify"><defs/><g><!--entity platform__application__frontend--><g id="elem_platform__application__frontend"><rect fill="#D3D3D3" height="36.2969" rx="2.5" ry="2.5" style="stroke:#181818;stroke-width:0.5;" width="83" x="7" y="86.5"/><text fill="#000000" font-family="sans-serif" font-size="14" lengthAdjust="spacing" textLength="63" x="17" y="109.4951">Frontend</text></g><!--entity order_service--><g id="elem_order_service"><rect fill="#87CEEB" height="36.2969" rx="2.5" ry="2.5" style="stroke:#181818;stroke-width:2.0;" width="111" x="157.5" y="86.5"/><text fill="#000000" font-family="sans-serif" font-size="14" lengthAdjust="spacing" textLength="91" x="167.5" y="109.4951">order-service</text></g><!--entity order_database--><g id="elem_order_database"><path d="M150,16 C150,6 213,6 213,6 C213,6 276,6 276,16 L276,41.2969 C276,51.2969 213,51.2969 213,51.2969 C213,51.2969 150,51.2969 150,41.2969 L150,16 " fill="#F1F1F1" style="stroke:#181818;stroke-width:0.5;"/><path d="M150,16 C150,26 213,26 213,26 C213,26 276,26 276,16 " fill="none" style="stroke:#181818;stroke-width:0.5;"/><text fill="#000000" font-family="sans-serif" font-size="14" lengthAdjust="spacing" textLength="106" x="160" y="42.9951">order-database</text></g><!--entity payment_service--><g id="elem_payment_service"><rect fill="#FFE4B5" height="36.2969" rx="2.5" ry="2.5" style="stroke:#181818;stroke-width:0.5;" width="134" x="337.5" y="50.5"/><text fill="#000000" font-family="sans-serif" font-size="14" lengthAdjust="spacing" textLength="114" x="347.5" y="73.4951">payment-service</text></g><!--entity inventory_service--><g id="elem_inventory_service"><rect fill="#ADD8E6" height="36.2969" rx="2.5" ry="2.5" style="stroke:#181818;stroke-width:0.5;" width="137" x="336" y="121.5"/><text fill="#000000" font-family="sans-serif" font-size="14" lengthAdjust="spacing" textLength="117" x="346" y="144.4951">inventory-service</text></g><!--link platform__application__frontend to order_service--><g id="link_platform__application__frontend_order_service"><path d="M90.09,104.5 C110.39,104.5 129.26,104.5 151.23,104.5 " fill="none" id="platform__application__frontend-to-order_service" style="stroke:#181818;stroke-width:1.0;"/><polygon fill="#181818" points="157.23,104.5,148.23,100.5,152.23,104.5,148.23,108.5,157.23,104.5" style="stroke:#181818;stroke-width:1.0;"/></g><!--reverse link order_database to order_service--><g id="link_order_database_order_service"><path d="M213,57.11 C213,68.87 213,74.63 213,86.39 " fill="none" id="order_database-backto-order_service" style="stroke:#181818;stroke-width:1.0;"/><polygon fill="#181818" points="213,51.11,209,60.11,213,56.11,217,60.11,213,51.11" style="stroke:#181818;stroke-width:1.0;"/></g><!--link order_service to payment_service--><g id="link_order_service_payment_service"><path d="M268.56,94.14 C289.99,90.06 308.8953,86.4691 331.3353,82.2091 " fill="none" id="order_service-to-payment_service" style="stroke:#181818;stroke-width:1.0;"/><polygon fill="#181818" points="337.23,81.09,327.6419,78.8388,332.3177,82.0225,329.134,86.6984,337.23,81.09" style="stroke:#181818;stroke-width:1.0;"/></g><!--link order_service to inventory_service--><g id="link_order_service_inventory_service"><path d="M268.56,114.58 C289.55,118.45 307.8698,121.8402 329.9598,125.9202 " fill="none" id="order_service-to-inventory_service" style="stroke:#181818;stroke-width:1.0;"/><polygon fill="#181818" points="335.86,127.01,327.7362,121.4419,330.9432,126.1019,326.2832,129.3088,335.86,127.01" style="stroke:#181818;stroke-width:1.0;"/></g><rect fill="none" height="62.8906" id="_legend" rx="7.5" ry="7.5" style="stroke:#FFFFFF;stroke-width:1.0;" width="159" x="12" y="174.7969"/><text fill="#000000" font-family="sans-serif" font-size="14" lengthAdjust="spacing" textLength="36" x="21" y="194.792">Color</text><text fill="#000000" font-family="sans-serif" font-size="14" lengthAdjust="spacing" textLength="91" x="65" y="194.792">Belongs to ...</text><rect fill="#ADD8E6" height="16.2969" style="stroke:none;stroke-width:1.0;" width="44" x="17" y="198.0938"/><text fill="#000000" font-family="sans-serif" font-size="14" lengthAdjust="spacing" textLength="4" x="17" y="211.0889">&#160;</text><text fill="#000000" font-family="sans-serif" font-size="14" lengthAdjust="spacing" textLength="101" x="65" y="211.0889">our application</text><rect fill="#FFE4B5" height="16.2969" style="stroke:none;stroke-width:1.0;" width="44" x="17" y="214.3906"/><text fill="#000000" font-family="sans-serif" font-size="14" lengthAdjust="spacing" textLength="4" x="17" y="227.3857">&#160;</text><text fill="#000000" font-family="sans-serif" font-size="14" lengthAdjust="spacing" textLength="98" x="65" y="227.3857">same platform</text><line style="stroke:#000000;stroke-width:1.0;" x1="17" x2="166" y1="181.7969" y2="181.7969"/><line style="stroke:#000000;stroke-width:1.0;" x1="17" x2="166" y1="198.0938" y2="198.0938"/><line style="stroke:#000000;stroke-width:1.0;" x1="17" x2="166" y1="214.3906" y2="214.3906"/><line style="stroke:#000000;stroke-width:1.0;" x1="17" x2="166" y1="230.6875" y2="230.6875"/><line style="stroke:#000000;stroke-width:1.0;" x1="17" x2="17" y1="181.7969" y2="230.6875"/><line style="stroke:#000000;stroke-width:1.0;" x1="61" x2="61" y1="181.7969" y2="230.6875"/><line style="stroke:#000000;stroke-width:1.0;" x1="166" x2="166" y1="181.7969" y2="230.6875"/></g></svg>