<?xml version="1.0" encoding="us-ascii" standalone="no"?><svg xmlns="http://www.w3.org/2000/svg" xmlns:xlink="http://www.w3.org/1999/xlink" contentStyleType="text/css" height="143px" preserveAspectRatio="none" style="width:816px;height:143px;background:#FFFFFF;" version="1.1" viewBox="0 0 816 143" width="816px" zoomAndPan="magnify"><defs/><g><!--entity platform__application__backend_service_1--><g id="elem_platform__application__backend_service_1"><rect fill="#D3D3D3" height="36.2969" rx="2.5" ry="2.5" style="stroke:#181818;stroke-width:0.5;" width="160" x="7" y="57.5"/><text fill="#000000" font-family="sans-serif" font-size="14" lengthAdjust="spacing" textLength="140" x="17" y="80.4951">Backend Service #1</text></g><!--entity platform__application__backend_service_2--><g id="elem_platform__application__backend_service_2"><rect fill="#87CEEB" height="36.2969" rx="2.5" ry="2.5" style="stroke:#181818;stroke-width:2.0;" width="160" x="227" y="57.5"/><text fill="#000000" font-family="sans-serif" font-size="14" lengthAdjust="spacing" textLength="140" x="237" y="80.4951">Backend Service #2</text></g><!--entity platform__external_service_2--><g id="elem_platform__external_service_2"><rect fill="#FFE4B5" height="36.2969" rx="2.5" ry="2.5" style="stroke:#181818;stroke-width:0.5;" width="154" x="447" y="18.5"/><text fill="#000000" font-family="sans-serif" font-size="14" lengthAdjust="spacing" textLength="134" x="457" y="41.4951">External Service #2</text></g><g id="elem_GMN5"><path d="M661,6 L661,30.55 L601.05,35.41 L661,38.55 L661,61.3984 A0,0 0 0 0 661,61.3984 L809,61.3984 A0,0 0 0 0 809,61.3984 L809,16 L799,6 L661,6 A0,0 0 0 0 661,6 " fill="#FEFFDD" style="stroke:#181818;stroke-width:0.5;"/><path d="M799,6 L799,16 L809,16 L799,6 " fill="#FEFFDD" style="stroke:#181818;stroke-width:0.5;"/><text fill="#000000" font-family="sans-serif" font-size="13" lengthAdjust="spacing" textLength="103" x="667" y="23.0669">HTTP Endpoints:</text><text fill="#000000" font-family="sans-serif" font-size="13" lengthAdjust="spacing" textLength="68" x="667" y="38.1997">GET /users</text><text fill="#000000" font-family="sans-serif" font-size="13" lengthAdjust="spacing" textLength="127" x="667" y="53.3325">GET /users/{userId}</text></g><!--entity other_project__external_service_3--><g id="elem_other_project__external_service_3"><rect fill="#F08080" height="36.2969" rx="2.5" ry="2.5" style="stroke:#181818;stroke-width:0.5;" width="154" x="447" y="92.5"/><text fill="#000000" font-family="sans-serif" font-size="14" lengthAdjust="spacing" textLength="134" x="457" y="115.4951">External Service #3</text></g><g id="elem_GMN9"><path d="M673,96.5 L673,110.74 L601.05,112.68 L673,118.74 L673,136.7656 A0,0 0 0 0 673,136.7656 L797,136.7656 A0,0 0 0 0 797,136.7656 L797,106.5 L787,96.5 L673,96.5 A0,0 0 0 0 673,96.5 " fill="#FEFFDD" style="stroke:#181818;stroke-width:0.5;"/><path d="M787,96.5 L787,106.5 L797,106.5 L787,96.5 " fill="#FEFFDD" style="stroke:#181818;stroke-width:0.5;"/><text fill="#000000" font-family="sans-serif" font-size="13" lengthAdjust="spacing" textLength="103" x="679" y="113.5669">HTTP Endpoints:</text><text fill="#000000" font-family="sans-serif" font-size="13" lengthAdjust="spacing" textLength="90" x="679" y="128.6997">GET /bookings</text></g><!--link platform__application__backend_service_1 to platform__application__backend_service_2--><g id="link_platform__application__backend_service_1_platform__application__backend_service_2"><path d="M167.01,75.5 C186.51,75.5 201.39,75.5 220.89,75.5 " fill="none" id="platform__application__backend_service_1-to-platform__application__backend_service_2" style="stroke:#181818;stroke-width:1.0;"/><polygon fill="#181818" points="226.89,75.5,217.89,71.5,221.89,75.5,217.89,79.5,226.89,75.5" style="stroke:#181818;stroke-width:1.0;"/></g><!--link platform__application__backend_service_2 to platform__external_service_2--><g id="link_platform__application__backend_service_2_platform__external_service_2"><path d="M387.14,61.14 C406.66,57.6 421.6161,54.8898 440.9861,51.3798 " fill="none" id="platform__application__backend_service_2-to-platform__external_service_2" style="stroke:#181818;stroke-width:1.0;"/><polygon fill="#181818" points="446.89,50.31,437.321,47.9788,441.9701,51.2015,438.7474,55.8506,446.89,50.31" style="stroke:#181818;stroke-width:1.0;"/></g><!--link platform__application__backend_service_2 to other_project__external_service_3--><g id="link_platform__application__backend_service_2_other_project__external_service_3"><path d="M387.14,88.38 C406.66,91.56 421.5978,93.9969 440.9678,97.1469 " fill="none" id="platform__application__backend_service_2-to-other_project__external_service_3" style="stroke:#181818;stroke-width:1.0;"/><polygon fill="#181818" points="446.89,98.11,438.6488,92.7172,441.9548,97.3074,437.3646,100.6135,446.89,98.11" style="stroke:#181818;stroke-width:1.0;"/></g></g></svg>