<?xml version="1.0" encoding="us-ascii" standalone="no"?><svg xmlns="http://www.w3.org/2000/svg" xmlns:xlink="http://www.w3.org/1999/xlink" contentStyleType="text/css" height="128px" preserveAspectRatio="none" style="width:750px;height:128px;background:#FFFFFF;" version="1.1" viewBox="0 0 750 128" width="750px" zoomAndPan="magnify"><defs/><g><!--entity platform__application__frontend--><g id="elem_platform__application__frontend"><rect fill="#D3D3D3" height="36.2969" rx="2.5" ry="2.5" style="stroke:#181818;stroke-width:0.5;" width="83" x="7" y="47"/><text fill="#000000" font-family="sans-serif" font-size="14" lengthAdjust="spacing" textLength="63" x="17" y="69.9951">Frontend</text></g><!--entity platform__application__backend_service_1--><g id="elem_platform__application__backend_service_1"><rect fill="#87CEEB" height="36.2969" rx="2.5" ry="2.5" style="stroke:#181818;stroke-width:2.0;" width="160" x="151" y="47"/><text fill="#000000" font-family="sans-serif" font-size="14" lengthAdjust="spacing" textLength="140" x="161" y="69.9951">Backend Service #1</text></g><!--entity platform__application__backend_service_2--><g id="elem_platform__application__backend_service_2"><rect fill="#ADD8E6" height="36.2969" rx="2.5" ry="2.5" style="stroke:#181818;stroke-width:0.5;" width="160" x="380" y="9"/><text fill="#000000" font-family="sans-serif" font-size="14" lengthAdjust="spacing" textLength="140" x="390" y="31.9951">Backend Service #2</text></g><g id="elem_GMN5"><path d="M601,6 L601,22.33 L540.09,26.62 L601,30.33 L601,46.2656 A0,0 0 0 0 601,46.2656 L743,46.2656 A0,0 0 0 0 743,46.2656 L743,16 L733,6 L601,6 A0,0 0 0 0 601,6 " fill="#FEFFDD" style="stroke:#181818;stroke-width:0.5;"/><path d="M733,6 L733,16 L743,16 L733,6 " fill="#FEFFDD" style="stroke:#181818;stroke-width:0.5;"/><text fill="#000000" font-family="sans-serif" font-size="13" font-weight="bold" lengthAdjust="spacing" textLength="121" x="607" y="23.0669">HTTP Endpoints:</text><text fill="#000000" font-family="monospace" font-size="13" lengthAdjust="spacing" textLength="104" x="607" y="38.1997">GET&#160;/bar/{id}</text></g><!--entity platform__external_service_1--><g id="elem_platform__external_service_1"><rect fill="#FFE4B5" height="36.2969" rx="2.5" ry="2.5" style="stroke:#181818;stroke-width:0.5;" width="154" x="383" y="82"/><text fill="#000000" font-family="sans-serif" font-size="14" lengthAdjust="spacing" textLength="134" x="393" y="104.9951">External Service #1</text></g><g id="elem_GMN9"><path d="M601,81 L601,96.67 L537.11,100.36 L601,104.67 L601,121.2656 A0,0 0 0 0 601,121.2656 L743,121.2656 A0,0 0 0 0 743,121.2656 L743,91 L733,81 L601,81 A0,0 0 0 0 601,81 " fill="#FEFFDD" style="stroke:#181818;stroke-width:0.5;"/><path d="M733,81 L733,91 L743,91 L733,81 " fill="#FEFFDD" style="stroke:#181818;stroke-width:0.5;"/><text fill="#000000" font-family="sans-serif" font-size="13" font-weight="bold" lengthAdjust="spacing" textLength="121" x="607" y="98.0669">HTTP Endpoints:</text><text fill="#000000" font-family="monospace" font-size="13" lengthAdjust="spacing" textLength="104" x="607" y="113.1997">GET&#160;/foo/{id}</text></g><!--link platform__application__frontend to platform__application__backend_service_1--><g id="link_platform__application__frontend_platform__application__backend_service_1"><path d="M90.01,65 C107.99,65 123.8,65 144.8,65 " fill="none" id="platform__application__frontend-to-platform__application__backend_service_1" style="stroke:#181818;stroke-width:1.0;"/><polygon fill="#181818" points="150.8,65,141.8,61,145.8,65,141.8,69,150.8,65" style="stroke:#181818;stroke-width:1.0;"/></g><!--link platform__application__backend_service_1 to platform__external_service_1--><g id="link_platform__application__backend_service_1_platform__external_service_1"><path d="M302.26,83.05 C323.36,88.47 341,93 341,93 C341,93 354.1106,93.7732 376.9406,95.1332 " fill="none" id="platform__application__backend_service_1-to-platform__external_service_1" style="stroke:#181818;stroke-width:1.0;"/><polygon fill="#181818" points="382.93,95.49,374.1838,90.9619,377.9388,95.1927,373.7081,98.9477,382.93,95.49" style="stroke:#181818;stroke-width:1.0;"/><text fill="#000000" font-family="sans-serif" font-size="13" lengthAdjust="spacing" textLength="7" x="342" y="89.0669">?</text></g><!--link platform__application__backend_service_1 to platform__application__backend_service_2--><g id="link_platform__application__backend_service_1_platform__application__backend_service_2"><path d="M311.07,51.76 C333.34,48.04 351.6324,44.9711 373.9024,41.2411 " fill="none" id="platform__application__backend_service_1-to-platform__application__backend_service_2" style="stroke:#181818;stroke-width:1.0;"/><polygon fill="#181818" points="379.82,40.25,370.2829,37.7917,374.8887,41.0759,371.6044,45.6817,379.82,40.25" style="stroke:#181818;stroke-width:1.0;"/><text fill="#000000" font-family="sans-serif" font-size="13" lengthAdjust="spacing" textLength="7" x="342" y="42.0669">?</text></g></g></svg>