<?xml version="1.0" encoding="us-ascii" standalone="no"?><svg xmlns="http://www.w3.org/2000/svg" xmlns:xlink="http://www.w3.org/1999/xlink" contentStyleType="text/css" height="128px" preserveAspectRatio="none" style="width:941px;height:128px;background:#FFFFFF;" version="1.1" viewBox="0 0 941 128" width="941px" zoomAndPan="magnify"><defs/><g><!--entity platform__application__frontend--><g id="elem_platform__application__frontend"><rect fill="#D3D3D3" height="36.2969" rx="2.5" ry="2.5" style="stroke:#181818;stroke-width:0.5;" width="83" x="36" y="11"/><text fill="#000000" font-family="sans-serif" font-size="14" lengthAdjust="spacing" textLength="63" x="46" y="33.9951">Frontend</text></g><!--entity platform__application__backend_service_1--><g id="elem_platform__application__backend_service_1"><rect fill="#87CEEB" height="36.2969" rx="2.5" ry="2.5" style="stroke:#181818;stroke-width:2.0;" width="160" x="209" y="47"/><text fill="#000000" font-family="sans-serif" font-size="14" lengthAdjust="spacing" textLength="140" x="219" y="69.9951">Backend Service #1</text></g><!--entity platform__application__backend_service_2--><g id="elem_platform__application__backend_service_2"><rect fill="#ADD8E6" height="36.2969" rx="2.5" ry="2.5" style="stroke:#181818;stroke-width:0.5;" width="160" x="452" y="10"/><text fill="#000000" font-family="sans-serif" font-size="14" lengthAdjust="spacing" textLength="140" x="462" y="32.9951">Backend Service #2</text></g><g id="elem_GMN5"><path d="M705,6 L705,22.72 L612.04,27.41 L705,30.72 L705,46.2656 A0,0 0 0 0 705,46.2656 L902,46.2656 A0,0 0 0 0 902,46.2656 L902,16 L892,6 L705,6 A0,0 0 0 0 705,6 " fill="#FEFFDD" style="stroke:#181818;stroke-width:0.5;"/><path d="M892,6 L892,16 L902,16 L892,6 " fill="#FEFFDD" style="stroke:#181818;stroke-width:0.5;"/><text fill="#000000" font-family="sans-serif" font-size="13" font-weight="bold" lengthAdjust="spacing" textLength="121" x="711" y="23.0669">HTTP Endpoints:</text><text fill="#000000" font-family="monospace" font-size="13" lengthAdjust="spacing" textLength="176" x="711" y="38.1997">GET&#160;/bookings/{userId}</text></g><!--entity external_service_x--><g id="elem_external_service_x"><rect fill="#D3D3D3" height="36.2969" rx="2.5" ry="2.5" style="stroke:#181818;stroke-width:0.5;" width="141" x="7" y="82"/><text fill="#000000" font-family="sans-serif" font-size="14" lengthAdjust="spacing" textLength="121" x="17" y="104.9951">external-service-x</text></g><!--entity platform__external_service_1--><g id="elem_platform__external_service_1"><rect fill="#FFE4B5" height="36.2969" rx="2.5" ry="2.5" style="stroke:#181818;stroke-width:0.5;" width="154" x="455" y="82"/><text fill="#000000" font-family="sans-serif" font-size="14" lengthAdjust="spacing" textLength="134" x="465" y="104.9951">External Service #1</text></g><g id="elem_GMN10"><path d="M673,81 L673,96.52 L609.15,100.28 L673,104.52 L673,121.2656 A0,0 0 0 0 673,121.2656 L934,121.2656 A0,0 0 0 0 934,121.2656 L934,91 L924,81 L673,81 A0,0 0 0 0 673,81 " fill="#FEFFDD" style="stroke:#181818;stroke-width:0.5;"/><path d="M924,81 L924,91 L934,91 L924,81 " fill="#FEFFDD" style="stroke:#181818;stroke-width:0.5;"/><text fill="#000000" font-family="sans-serif" font-size="13" font-weight="bold" lengthAdjust="spacing" textLength="121" x="679" y="98.0669">HTTP Endpoints:</text><text fill="#000000" font-family="monospace" font-size="13" lengthAdjust="spacing" textLength="240" x="679" y="113.1997">GET&#160;/invoices/{userId}/{state}</text></g><!--link platform__application__frontend to platform__application__backend_service_1--><g id="link_platform__application__frontend_platform__application__backend_service_1"><path d="M119.39,36.03 C144.75,40.39 172.2869,45.1127 202.6869,50.3427 " fill="none" id="platform__application__frontend-to-platform__application__backend_service_1" style="stroke:#181818;stroke-width:1.0;"/><polygon fill="#181818" points="208.6,51.36,200.4085,45.892,203.6724,50.5123,199.0521,53.7761,208.6,51.36" style="stroke:#181818;stroke-width:1.0;"/></g><!--link external_service_x to platform__application__backend_service_1--><g id="link_external_service_x_platform__application__backend_service_1"><path d="M148.26,88.35 C167.66,85.1 182.9517,82.5469 202.8617,79.2269 " fill="none" id="external_service_x-to-platform__application__backend_service_1" style="stroke:#181818;stroke-width:1.0;"/><polygon fill="#181818" points="208.78,78.24,199.2447,75.7748,203.8481,79.0624,200.5605,83.6658,208.78,78.24" style="stroke:#181818;stroke-width:1.0;"/></g><!--link platform__application__backend_service_1 to platform__application__backend_service_2--><g id="link_platform__application__backend_service_1_platform__application__backend_service_2"><path d="M369.25,52.83 C395.72,48.77 419.2896,45.1512 445.7796,41.0812 " fill="none" id="platform__application__backend_service_1-to-platform__application__backend_service_2" style="stroke:#181818;stroke-width:1.0;"/><polygon fill="#181818" points="451.71,40.17,442.2069,37.5831,446.768,40.9293,443.4218,45.4904,451.71,40.17" style="stroke:#181818;stroke-width:1.0;"/><text fill="#000000" font-family="sans-serif" font-size="13" lengthAdjust="spacing" textLength="21" x="400" y="42.0669">JWT</text></g><!--link platform__application__backend_service_1 to platform__external_service_1--><g id="link_platform__application__backend_service_1_platform__external_service_1"><path d="M362.7,83.01 C382.7,87.96 399,92 399,92 C399,92 419.651,93.2467 448.991,95.0267 " fill="none" id="platform__application__backend_service_1-to-platform__external_service_1" style="stroke:#181818;stroke-width:1.0;"/><polygon fill="#181818" points="454.98,95.39,446.2387,90.8523,449.9892,95.0872,445.7543,98.8376,454.98,95.39" style="stroke:#181818;stroke-width:1.0;"/><text fill="#000000" font-family="sans-serif" font-size="13" lengthAdjust="spacing" textLength="21" x="400" y="88.0669">JWT</text></g></g></svg>