<?xml version="1.0" encoding="us-ascii" standalone="no"?><svg xmlns="http://www.w3.org/2000/svg" xmlns:xlink="http://www.w3.org/1999/xlink" contentStyleType="text/css" height="143px" preserveAspectRatio="none" style="width:922px;height:143px;background:#FFFFFF;" version="1.1" viewBox="0 0 922 143" width="922px" zoomAndPan="magnify"><defs/><g><!--entity backend_service_1--><g id="elem_backend_service_1"><rect fill="#D3D3D3" height="36.2969" rx="2.5" ry="2.5" style="stroke:#181818;stroke-width:0.5;" width="160" x="7" y="60.5"/><text fill="#000000" font-family="sans-serif" font-size="14" lengthAdjust="spacing" textLength="140" x="17" y="83.4951">Backend Service #1</text></g><!--entity backend_service_2--><g id="elem_backend_service_2"><rect fill="#87CEEB" height="36.2969" rx="2.5" ry="2.5" style="stroke:#181818;stroke-width:2.0;" width="160" x="228" y="60.5"/><text fill="#000000" font-family="sans-serif" font-size="14" lengthAdjust="spacing" textLength="140" x="238" y="83.4951">Backend Service #2</text></g><!--entity external_service_2--><g id="elem_external_service_2"><rect fill="#FFE4B5" height="36.2969" rx="2.5" ry="2.5" style="stroke:#181818;stroke-width:0.5;" width="154" x="519" y="18.5"/><text fill="#000000" font-family="sans-serif" font-size="14" lengthAdjust="spacing" textLength="134" x="529" y="41.4951">External Service #2</text></g><!--entity external_service_3--><g id="elem_external_service_3"><rect fill="#F08080" height="36.2969" rx="2.5" ry="2.5" style="stroke:#181818;stroke-width:0.5;" width="154" x="519" y="95.5"/><text fill="#000000" font-family="sans-serif" font-size="14" lengthAdjust="spacing" textLength="134" x="529" y="118.4951">External Service #3</text></g><g id="elem_GMN6"><path d="M734,6 L734,30.69 L673.05,35.49 L734,38.69 L734,61.3984 A0,0 0 0 0 734,61.3984 L915,61.3984 A0,0 0 0 0 915,61.3984 L915,16 L905,6 L734,6 A0,0 0 0 0 734,6 " fill="#FEFFDD" style="stroke:#181818;stroke-width:0.5;"/><path d="M905,6 L905,16 L915,16 L905,6 " fill="#FEFFDD" style="stroke:#181818;stroke-width:0.5;"/><text fill="#000000" font-family="sans-serif" font-size="13" font-weight="bold" lengthAdjust="spacing" textLength="121" x="740" y="23.0669">HTTP Endpoints:</text><text fill="#000000" font-family="monospace" font-size="13" lengthAdjust="spacing" textLength="88" x="740" y="38.1997">POST&#160;/users</text><text fill="#000000" font-family="monospace" font-size="13" lengthAdjust="spacing" textLength="160" x="740" y="53.3325">GET&#160;&#160;/users/{userId}</text></g><g id="elem_GMN9"><path d="M753.5,96.5 L753.5,111.57 L673.05,114.51 L753.5,119.57 L753.5,136.7656 A0,0 0 0 0 753.5,136.7656 L895.5,136.7656 A0,0 0 0 0 895.5,136.7656 L895.5,106.5 L885.5,96.5 L753.5,96.5 A0,0 0 0 0 753.5,96.5 " fill="#FEFFDD" style="stroke:#181818;stroke-width:0.5;"/><path d="M885.5,96.5 L885.5,106.5 L895.5,106.5 L885.5,96.5 " fill="#FEFFDD" style="stroke:#181818;stroke-width:0.5;"/><text fill="#000000" font-family="sans-serif" font-size="13" font-weight="bold" lengthAdjust="spacing" textLength="121" x="759.5" y="113.5669">HTTP Endpoints:</text><text fill="#000000" font-family="monospace" font-size="13" lengthAdjust="spacing" textLength="104" x="759.5" y="128.6997">GET&#160;/bookings</text></g><!--link backend_service_1 to backend_service_2--><g id="link_backend_service_1_backend_service_2"><path d="M167.06,78.5 C186.79,78.5 201.95,78.5 221.68,78.5 " fill="none" id="backend_service_1-to-backend_service_2" style="stroke:#181818;stroke-width:1.0;"/><polygon fill="#181818" points="227.68,78.5,218.68,74.5,222.68,78.5,218.68,82.5,227.68,78.5" style="stroke:#181818;stroke-width:1.0;"/></g><!--link backend_service_2 to external_service_2--><g id="link_backend_service_2_external_service_2"><path d="M388.29,66.86 C428.95,60.88 472.3236,54.5114 512.5836,48.6014 " fill="none" id="backend_service_2-to-external_service_2" style="stroke:#181818;stroke-width:1.0;"/><polygon fill="#181818" points="518.52,47.73,509.0345,45.0796,513.573,48.4562,510.1964,52.9947,518.52,47.73" style="stroke:#181818;stroke-width:1.0;"/><text fill="#000000" font-family="sans-serif" font-size="13" lengthAdjust="spacing" textLength="21" x="443" y="49.5669">JWT</text></g><!--link backend_service_2 to external_service_3--><g id="link_backend_service_2_external_service_3"><path d="M379.26,96.55 C400.36,101.97 418,106.5 418,106.5 C418,106.5 464.9447,108.3525 512.9147,110.2525 " fill="none" id="backend_service_2-to-external_service_3" style="stroke:#181818;stroke-width:1.0;"/><polygon fill="#181818" points="518.91,110.49,510.0754,106.1369,513.9139,110.2921,509.7587,114.1307,518.91,110.49" style="stroke:#181818;stroke-width:1.0;"/><text fill="#000000" font-family="sans-serif" font-size="13" lengthAdjust="spacing" textLength="69" x="419" y="102.5669">Basic-Auth</text></g></g></svg>