<?xml version="1.0" encoding="us-ascii" standalone="no"?><svg xmlns="http://www.w3.org/2000/svg" xmlns:xlink="http://www.w3.org/1999/xlink" contentStyleType="text/css" height="53px" preserveAspectRatio="none" style="width:525px;height:53px;background:#FFFFFF;" version="1.1" viewBox="0 0 525 53" width="525px" zoomAndPan="magnify"><defs/><g><!--entity platform__application__frontend--><g id="elem_platform__application__frontend"><rect fill="#87CEEB" height="36.2969" rx="2.5" ry="2.5" style="stroke:#181818;stroke-width:2.0;" width="83" x="7" y="8"/><text fill="#000000" font-family="sans-serif" font-size="14" lengthAdjust="spacing" textLength="63" x="17" y="30.9951">Frontend</text></g><!--entity platform__application__backend_service_1--><g id="elem_platform__application__backend_service_1"><rect fill="#ADD8E6" height="36.2969" rx="2.5" ry="2.5" style="stroke:#181818;stroke-width:0.5;" width="160" x="173" y="8"/><text fill="#000000" font-family="sans-serif" font-size="14" lengthAdjust="spacing" textLength="140" x="183" y="30.9951">Backend Service #1</text></g><g id="elem_GMN4"><path d="M394,6 L394,22 L333.15,26 L394,30 L394,46.2656 A0,0 0 0 0 394,46.2656 L518,46.2656 A0,0 0 0 0 518,46.2656 L518,16 L508,6 L394,6 A0,0 0 0 0 394,6 " fill="#FEFFDD" style="stroke:#181818;stroke-width:0.5;"/><path d="M508,6 L508,16 L518,16 L508,6 " fill="#FEFFDD" style="stroke:#181818;stroke-width:0.5;"/><text fill="#000000" font-family="sans-serif" font-size="13" lengthAdjust="spacing" textLength="103" x="400" y="23.0669">HTTP Endpoints:</text><text fill="#000000" font-family="sans-serif" font-size="13" lengthAdjust="spacing" textLength="85" x="400" y="38.1997">POST /search</text></g><!--link platform__application__frontend to platform__application__backend_service_1--><g id="link_platform__application__frontend_platform__application__backend_service_1"><path d="M90.48,26 C114.17,26 138.78,26 166.98,26 " fill="none" id="platform__application__frontend-to-platform__application__backend_service_1" style="stroke:#181818;stroke-width:1.0;"/><polygon fill="#181818" points="172.98,26,163.98,22,167.98,26,163.98,30,172.98,26" style="stroke:#181818;stroke-width:1.0;"/><text fill="#000000" font-family="sans-serif" font-size="13" lengthAdjust="spacing" textLength="21" x="121" y="22.0669">JWT</text></g></g></svg>