<?xml version="1.0" encoding="us-ascii" standalone="no"?><svg xmlns="http://www.w3.org/2000/svg" xmlns:xlink="http://www.w3.org/1999/xlink" contentStyleType="text/css" height="476px" preserveAspectRatio="none" style="width:1910px;height:476px;background:#FFFFFF;" version="1.1" viewBox="0 0 1910 476" width="1910px" zoomAndPan="magnify"><defs/><g><!--entity platform__application__order_service--><g id="elem_platform__application__order_service"><rect fill="#D3D3D3" height="72.5938" rx="5" ry="5" style="stroke:#181818;stroke-width:1.0;" width="226" x="14" y="94"/><text fill="#000000" font-family="sans-serif" font-size="28" lengthAdjust="spacing" textLength="186" x="34" y="139.9902">Order Service</text></g><!--entity platform__application__inventory_service--><g id="elem_platform__application__inventory_service"><rect fill="#87CEEB" height="72.5938" rx="5" ry="5" style="stroke:#181818;stroke-width:4.0;" width="274" x="362" y="94"/><text fill="#000000" font-family="sans-serif" font-size="28" lengthAdjust="spacing" textLength="234" x="382" y="139.9902">Inventory Service</text></g><!--entity platform__notification_service--><g id="elem_platform__notification_service"><rect fill="#FFE4B5" height="72.5938" rx="5" ry="5" style="stroke:#181818;stroke-width:1.0;" width="300" x="901" y="18"/><text fill="#000000" font-family="sans-serif" font-size="28" lengthAdjust="spacing" textLength="260" x="921" y="63.9902">Notification Service</text></g><g id="elem_GMN5"><path d="M1358,12 L1358,44.9 L1201.26,53.46 L1358,60.9 L1358,92.5313 A0,0 0 0 0 1358,92.5313 L1864,92.5313 A0,0 0 0 0 1864,92.5313 L1864,32 L1844,12 L1358,12 A0,0 0 0 0 1358,12 " fill="#FEFFDD" style="stroke:#181818;stroke-width:1.0;"/><path d="M1844,12 L1844,32 L1864,32 L1844,12 " fill="#FEFFDD" style="stroke:#181818;stroke-width:1.0;"/><text fill="#000000" font-family="sans-serif" font-size="26" font-weight="bold" lengthAdjust="spacing" textLength="242" x="1370" y="46.1338">HTTP Endpoints:</text><text fill="#000000" font-family="monospace" font-size="26" lengthAdjust="spacing" textLength="464" x="1370" y="76.3994">POST&#160;/notifications/low-stock</text></g><!--entity other_project__warehouse_service--><g id="elem_other_project__warehouse_service"><rect fill="#F08080" height="72.5938" rx="5" ry="5" style="stroke:#181818;stroke-width:1.0;" width="306" x="898" y="164"/><text fill="#000000" font-family="sans-serif" font-size="28" lengthAdjust="spacing" textLength="266" x="918" y="209.9902">Warehouse Service</text></g><g id="elem_GMN9"><path d="M1326,162 L1326,192.98 L1204.2,200.54 L1326,208.98 L1326,242.5313 A0,0 0 0 0 1326,242.5313 L1896,242.5313 A0,0 0 0 0 1896,242.5313 L1896,182 L1876,162 L1326,162 A0,0 0 0 0 1326,162 " fill="#FEFFDD" style="stroke:#181818;stroke-width:1.0;"/><path d="M1876,162 L1876,182 L1896,182 L1876,162 " fill="#FEFFDD" style="stroke:#181818;stroke-width:1.0;"/><text fill="#000000" font-family="sans-serif" font-size="26" font-weight="bold" lengthAdjust="spacing" textLength="242" x="1338" y="196.1338">HTTP Endpoints:</text><text fill="#000000" font-family="monospace" font-size="26" lengthAdjust="spacing" textLength="528" x="1338" y="226.3994">GET&#160;/warehouses/stock/{productId}</text></g><!--link platform__application__order_service to platform__application__inventory_service--><g id="link_platform__application__order_service_platform__application__inventory_service"><path d="M240.42,130 C278.7,130 309.98,130 349.94,130 " fill="none" id="platform__application__order_service-to-platform__application__inventory_service" style="stroke:#181818;stroke-width:2.0;"/><polygon fill="#181818" points="361.94,130,343.94,122,351.94,130,343.94,138,361.94,130" style="stroke:#181818;stroke-width:2.0;"/></g><!--link platform__application__inventory_service to platform__notification_service--><g id="link_platform__application__inventory_service_platform__notification_service"><path d="M636.46,111.22 C716.64,100.1 806.4338,87.6485 888.7738,76.2285 " fill="none" id="platform__application__inventory_service-to-platform__notification_service" style="stroke:#181818;stroke-width:2.0;"/><polygon fill="#181818" points="900.66,74.58,881.7316,69.1287,890.7548,75.9538,883.9297,84.977,900.66,74.58" style="stroke:#181818;stroke-width:2.0;"/><text fill="#000000" font-family="sans-serif" font-size="26" lengthAdjust="spacing" textLength="42" x="746" y="78.1338">JWT</text></g><!--link platform__application__inventory_service to other_project__warehouse_service--><g id="link_platform__application__inventory_service_other_project__warehouse_service"><path d="M626.7,166.1 C664.44,176.94 696,186 696,186 C696,186 789.9494,189.7245 885.7694,193.5245 " fill="none" id="platform__application__inventory_service-to-other_project__warehouse_service" style="stroke:#181818;stroke-width:2.0;"/><polygon fill="#181818" points="897.76,194,880.0912,185.293,887.7679,193.6037,879.4571,201.2804,897.76,194" style="stroke:#181818;stroke-width:2.0;"/><text fill="#000000" font-family="sans-serif" font-size="26" lengthAdjust="spacing" textLength="138" x="698" y="178.1338">Basic-Auth</text></g><rect fill="none" height="158.375" id="_legend" rx="15" ry="15" style="stroke:#FFFFFF;stroke-width:2.0;" width="318" x="24" y="278.5313"/><text fill="#000000" font-family="sans-serif" font-size="28" lengthAdjust="spacing" textLength="72" x="42" y="318.5215">Color</text><text fill="#000000" font-family="sans-serif" font-size="28" lengthAdjust="spacing" textLength="182" x="130" y="318.5215">Belongs to ...</text><rect fill="#ADD8E6" height="32.5938" style="stroke:none;stroke-width:2.0;" width="88" x="34" y="325.125"/><text fill="#000000" font-family="sans-serif" font-size="28" lengthAdjust="spacing" textLength="8" x="34" y="351.1152">&#160;</text><text fill="#000000" font-family="sans-serif" font-size="28" lengthAdjust="spacing" textLength="202" x="130" y="351.1152">our application</text><rect fill="#FFE4B5" height="32.5938" style="stroke:none;stroke-width:2.0;" width="88" x="34" y="357.7188"/><text fill="#000000" font-family="sans-serif" font-size="28" lengthAdjust="spacing" textLength="8" x="34" y="383.709">&#160;</text><text fill="#000000" font-family="sans-serif" font-size="28" lengthAdjust="spacing" textLength="196" x="130" y="383.709">same platform</text><rect fill="#F08080" height="32.5938" style="stroke:none;stroke-width:2.0;" width="88" x="34" y="390.3125"/><text fill="#000000" font-family="sans-serif" font-size="28" lengthAdjust="spacing" textLength="8" x="34" y="416.3027">&#160;</text><text fill="#000000" font-family="sans-serif" font-size="28" lengthAdjust="spacing" textLength="178" x="130" y="416.3027">other project</text><line style="stroke:#000000;stroke-width:2.0;" x1="34" x2="332" y1="292.5313" y2="292.5313"/><line style="stroke:#000000;stroke-width:2.0;" x1="34" x2="332" y1="325.125" y2="325.125"/><line style="stroke:#000000;stroke-width:2.0;" x1="34" x2="332" y1="357.7188" y2="357.7188"/><line style="stroke:#000000;stroke-width:2.0;" x1="34" x2="332" y1="390.3125" y2="390.3125"/><line style="stroke:#000000;stroke-width:2.0;" x1="34" x2="332" y1="422.9063" y2="422.9063"/><line style="stroke:#000000;stroke-width:2.0;" x1="34" x2="34" y1="292.5313" y2="422.9063"/><line style="stroke:#000000;stroke-width:2.0;" x1="122" x2="122" y1="292.5313" y2="422.9063"/><line style="stroke:#000000;stroke-width:2.0;" x1="332" x2="332" y1="292.5313" y2="422.9063"/></g></svg>