<?xml version="1.0" encoding="us-ascii" standalone="no"?><svg xmlns="http://www.w3.org/2000/svg" xmlns:xlink="http://www.w3.org/1999/xlink" contentStyleType="text/css" height="238px" preserveAspectRatio="none" style="width:955px;height:238px;background:#FFFFFF;" version="1.1" viewBox="0 0 955 238" width="955px" zoomAndPan="magnify"><defs/><g><!--entity platform__application__order_service--><g id="elem_platform__application__order_service"><rect fill="#D3D3D3" height="36.2969" rx="2.5" ry="2.5" style="stroke:#181818;stroke-width:0.5;" width="113" x="7" y="47"/><text fill="#000000" font-family="sans-serif" font-size="14" lengthAdjust="spacing" textLength="93" x="17" y="69.9951">Order Service</text></g><!--entity platform__application__inventory_service--><g id="elem_platform__application__inventory_service"><rect fill="#87CEEB" height="36.2969" rx="2.5" ry="2.5" style="stroke:#181818;stroke-width:2.0;" width="137" x="181" y="47"/><text fill="#000000" font-family="sans-serif" font-size="14" lengthAdjust="spacing" textLength="117" x="191" y="69.9951">Inventory Service</text></g><!--entity platform__notification_service--><g id="elem_platform__notification_service"><rect fill="#FFE4B5" height="36.2969" rx="2.5" ry="2.5" style="stroke:#181818;stroke-width:0.5;" width="150" x="450.5" y="9"/><text fill="#000000" font-family="sans-serif" font-size="14" lengthAdjust="spacing" textLength="130" x="460.5" y="31.9951">Notification Service</text></g><g id="elem_GMN5"><path d="M679,6 L679,22.45 L600.63,26.73 L679,30.45 L679,46.2656 A0,0 0 0 0 679,46.2656 L932,46.2656 A0,0 0 0 0 932,46.2656 L932,16 L922,6 L679,6 A0,0 0 0 0 679,6 " fill="#FEFFDD" style="stroke:#181818;stroke-width:0.5;"/><path d="M922,6 L922,16 L932,16 L922,6 " fill="#FEFFDD" style="stroke:#181818;stroke-width:0.5;"/><text fill="#000000" font-family="sans-serif" font-size="13" font-weight="bold" lengthAdjust="spacing" textLength="121" x="685" y="23.0669">HTTP Endpoints:</text><text fill="#000000" font-family="monospace" font-size="13" lengthAdjust="spacing" textLength="232" x="685" y="38.1997">POST&#160;/notifications/low-stock</text></g><!--entity other_project__warehouse_service--><g id="elem_other_project__warehouse_service"><rect fill="#F08080" height="36.2969" rx="2.5" ry="2.5" style="stroke:#181818;stroke-width:0.5;" width="153" x="449" y="82"/><text fill="#000000" font-family="sans-serif" font-size="14" lengthAdjust="spacing" textLength="133" x="459" y="104.9951">Warehouse Service</text></g><g id="elem_GMN9"><path d="M663,81 L663,96.49 L602.1,100.27 L663,104.49 L663,121.2656 A0,0 0 0 0 663,121.2656 L948,121.2656 A0,0 0 0 0 948,121.2656 L948,91 L938,81 L663,81 A0,0 0 0 0 663,81 " fill="#FEFFDD" style="stroke:#181818;stroke-width:0.5;"/><path d="M938,81 L938,91 L948,91 L938,81 " fill="#FEFFDD" style="stroke:#181818;stroke-width:0.5;"/><text fill="#000000" font-family="sans-serif" font-size="13" font-weight="bold" lengthAdjust="spacing" textLength="121" x="669" y="98.0669">HTTP Endpoints:</text><text fill="#000000" font-family="monospace" font-size="13" lengthAdjust="spacing" textLength="264" x="669" y="113.1997">GET&#160;/warehouses/stock/{productId}</text></g><!--link platform__application__order_service to platform__application__inventory_service--><g id="link_platform__application__order_service_platform__application__inventory_service"><path d="M120.21,65 C139.35,65 154.99,65 174.97,65 " fill="none" id="platform__application__order_service-to-platform__application__inventory_service" style="stroke:#181818;stroke-width:1.0;"/><polygon fill="#181818" points="180.97,65,171.97,61,175.97,65,171.97,69,180.97,65" style="stroke:#181818;stroke-width:1.0;"/></g><!--link platform__application__inventory_service to platform__notification_service--><g id="link_platform__application__inventory_service_platform__notification_service"><path d="M318.23,55.61 C358.32,50.05 403.2169,43.8243 444.3869,38.1143 " fill="none" id="platform__application__inventory_service-to-platform__notification_service" style="stroke:#181818;stroke-width:1.0;"/><polygon fill="#181818" points="450.33,37.29,440.8658,34.5643,445.3774,37.9769,441.9648,42.4885,450.33,37.29" style="stroke:#181818;stroke-width:1.0;"/><text fill="#000000" font-family="sans-serif" font-size="13" lengthAdjust="spacing" textLength="21" x="373" y="39.0669">JWT</text></g><!--link platform__application__inventory_service to other_project__warehouse_service--><g id="link_platform__application__inventory_service_other_project__warehouse_service"><path d="M313.35,83.05 C332.22,88.47 348,93 348,93 C348,93 394.9747,94.8622 442.8847,96.7622 " fill="none" id="platform__application__inventory_service-to-other_project__warehouse_service" style="stroke:#181818;stroke-width:1.0;"/><polygon fill="#181818" points="448.88,97,440.0456,92.6465,443.8839,96.8019,439.7286,100.6402,448.88,97" style="stroke:#181818;stroke-width:1.0;"/><text fill="#000000" font-family="sans-serif" font-size="13" lengthAdjust="spacing" textLength="69" x="349" y="89.0669">Basic-Auth</text></g><rect fill="none" height="79.1875" id="_legend" rx="7.5" ry="7.5" style="stroke:#FFFFFF;stroke-width:1.0;" width="174" x="12" y="139.2656"/><text fill="#000000" font-family="sans-serif" font-size="14" lengthAdjust="spacing" textLength="36" x="21" y="159.2607">Color</text><text fill="#000000" font-family="sans-serif" font-size="14" lengthAdjust="spacing" textLength="91" x="65" y="159.2607">Belongs to ...</text><rect fill="#ADD8E6" height="16.2969" style="stroke:none;stroke-width:1.0;" width="44" x="17" y="162.5625"/><text fill="#000000" font-family="sans-serif" font-size="14" lengthAdjust="spacing" textLength="4" x="17" y="175.5576">&#160;</text><text fill="#000000" font-family="sans-serif" font-size="14" lengthAdjust="spacing" textLength="115" x="65" y="175.5576">our components</text><rect fill="#FFE4B5" height="16.2969" style="stroke:none;stroke-width:1.0;" width="44" x="17" y="178.8594"/><text fill="#000000" font-family="sans-serif" font-size="14" lengthAdjust="spacing" textLength="4" x="17" y="191.8545">&#160;</text><text fill="#000000" font-family="sans-serif" font-size="14" lengthAdjust="spacing" textLength="116" x="65" y="191.8545">same application</text><rect fill="#F08080" height="16.2969" style="stroke:none;stroke-width:1.0;" width="44" x="17" y="195.1563"/><text fill="#000000" font-family="sans-serif" font-size="14" lengthAdjust="spacing" textLength="4" x="17" y="208.1514">&#160;</text><text fill="#000000" font-family="sans-serif" font-size="14" lengthAdjust="spacing" textLength="61" x="65" y="208.1514">3rd party</text><line style="stroke:#000000;stroke-width:1.0;" x1="17" x2="181" y1="146.2656" y2="146.2656"/><line style="stroke:#000000;stroke-width:1.0;" x1="17" x2="181" y1="162.5625" y2="162.5625"/><line style="stroke:#000000;stroke-width:1.0;" x1="17" x2="181" y1="178.8594" y2="178.8594"/><line style="stroke:#000000;stroke-width:1.0;" x1="17" x2="181" y1="195.1563" y2="195.1563"/><line style="stroke:#000000;stroke-width:1.0;" x1="17" x2="181" y1="211.4531" y2="211.4531"/><line style="stroke:#000000;stroke-width:1.0;" x1="17" x2="17" y1="146.2656" y2="211.4531"/><line style="stroke:#000000;stroke-width:1.0;" x1="61" x2="61" y1="146.2656" y2="211.4531"/><line style="stroke:#000000;stroke-width:1.0;" x1="181" x2="181" y1="146.2656" y2="211.4531"/></g></svg>