<?xml version="1.0" encoding="us-ascii" standalone="no"?><svg xmlns="http://www.w3.org/2000/svg" xmlns:xlink="http://www.w3.org/1999/xlink" contentStyleType="text/css" height="237px" preserveAspectRatio="none" style="width:851px;height:237px;background:#FFFFFF;" version="1.1" viewBox="0 0 851 237" width="851px" zoomAndPan="magnify"><defs/><g><!--entity platform__application__frontend--><g id="elem_platform__application__frontend"><rect fill="#D3D3D3" height="36.2969" rx="2.5" ry="2.5" style="stroke:#181818;stroke-width:0.5;" width="83" x="7" y="53"/><text fill="#000000" font-family="sans-serif" font-size="14" lengthAdjust="spacing" textLength="63" x="17" y="75.9951">Frontend</text></g><!--entity order_service--><g id="elem_order_service"><rect fill="#87CEEB" height="36.2969" rx="2.5" ry="2.5" style="stroke:#181818;stroke-width:2.0;" width="111" x="151" y="53"/><text fill="#000000" font-family="sans-serif" font-size="14" lengthAdjust="spacing" textLength="91" x="161" y="75.9951">order-service</text></g><!--entity payment_service--><g id="elem_payment_service"><rect fill="#FFE4B5" height="36.2969" rx="2.5" ry="2.5" style="stroke:#181818;stroke-width:0.5;" width="134" x="346.5" y="11"/><text fill="#000000" font-family="sans-serif" font-size="14" lengthAdjust="spacing" textLength="114" x="356.5" y="33.9951">payment-service</text></g><!--entity inventory_service--><g id="elem_inventory_service"><rect fill="#ADD8E6" height="36.2969" rx="2.5" ry="2.5" style="stroke:#181818;stroke-width:0.5;" width="137" x="345" y="88"/><text fill="#000000" font-family="sans-serif" font-size="14" lengthAdjust="spacing" textLength="117" x="355" y="110.9951">inventory-service</text></g><g id="elem_GMN6"><path d="M622.5,6 L622.5,22.76 L480.73,28.29 L622.5,30.76 L622.5,46.2656 A0,0 0 0 0 622.5,46.2656 L764.5,46.2656 A0,0 0 0 0 764.5,46.2656 L764.5,16 L754.5,6 L622.5,6 A0,0 0 0 0 622.5,6 " fill="#FEFFDD" style="stroke:#181818;stroke-width:0.5;"/><path d="M754.5,6 L754.5,16 L764.5,16 L754.5,6 " fill="#FEFFDD" style="stroke:#181818;stroke-width:0.5;"/><text fill="#000000" font-family="sans-serif" font-size="13" font-weight="bold" lengthAdjust="spacing" textLength="121" x="628.5" y="23.0669">HTTP Endpoints:</text><text fill="#000000" font-family="monospace" font-size="13" lengthAdjust="spacing" textLength="112" x="628.5" y="38.1997">POST&#160;/payments</text></g><g id="elem_GMN9"><path d="M543,81.5 L543,103.38 L482.15,106.73 L543,111.38 L543,136.8984 A0,0 0 0 0 543,136.8984 L844,136.8984 A0,0 0 0 0 844,136.8984 L844,91.5 L834,81.5 L543,81.5 A0,0 0 0 0 543,81.5 " fill="#FEFFDD" style="stroke:#181818;stroke-width:0.5;"/><path d="M834,81.5 L834,91.5 L844,91.5 L834,81.5 " fill="#FEFFDD" style="stroke:#181818;stroke-width:0.5;"/><text fill="#000000" font-family="sans-serif" font-size="13" font-weight="bold" lengthAdjust="spacing" textLength="121" x="549" y="98.5669">HTTP Endpoints:</text><text fill="#000000" font-family="monospace" font-size="13" lengthAdjust="spacing" textLength="216" x="549" y="113.6997">GET&#160;&#160;/inventory/{productId}</text><text fill="#000000" font-family="monospace" font-size="13" lengthAdjust="spacing" textLength="280" x="549" y="128.8325">POST&#160;/inventory/{productId}/reserve</text></g><!--link platform__application__frontend to order_service--><g id="link_platform__application__frontend_order_service"><path d="M90.08,71 C108.59,71 124.78,71 144.73,71 " fill="none" id="platform__application__frontend-to-order_service" style="stroke:#181818;stroke-width:1.0;"/><polygon fill="#181818" points="150.73,71,141.73,67,145.73,71,141.73,75,150.73,71" style="stroke:#181818;stroke-width:1.0;"/></g><!--link order_service to payment_service--><g id="link_order_service_payment_service"><path d="M262.17,59.8 C288.02,54.5 313.2422,49.3345 340.4222,43.7645 " fill="none" id="order_service-to-payment_service" style="stroke:#181818;stroke-width:1.0;"/><polygon fill="#181818" points="346.3,42.56,336.6802,40.4483,341.4018,43.5638,338.2863,48.2854,346.3,42.56" style="stroke:#181818;stroke-width:1.0;"/><text fill="#000000" font-family="sans-serif" font-size="13" lengthAdjust="spacing" textLength="21" x="293" y="46.0669">JWT</text></g><!--link order_service to inventory_service--><g id="link_order_service_inventory_service"><path d="M261.97,89.05 C278.32,94.47 292,99 292,99 C292,99 311.4002,100.121 338.8602,101.721 " fill="none" id="order_service-to-inventory_service" style="stroke:#181818;stroke-width:1.0;"/><polygon fill="#181818" points="344.85,102.07,336.0979,97.5533,339.8585,101.7792,335.6326,105.5397,344.85,102.07" style="stroke:#181818;stroke-width:1.0;"/><text fill="#000000" font-family="sans-serif" font-size="13" lengthAdjust="spacing" textLength="21" x="293" y="95.0669">JWT</text></g><rect fill="none" height="62.8906" id="_legend" rx="7.5" ry="7.5" style="stroke:#FFFFFF;stroke-width:1.0;" width="159" x="12" y="154.8984"/><text fill="#000000" font-family="sans-serif" font-size="14" lengthAdjust="spacing" textLength="36" x="21" y="174.8936">Color</text><text fill="#000000" font-family="sans-serif" font-size="14" lengthAdjust="spacing" textLength="91" x="65" y="174.8936">Belongs to ...</text><rect fill="#ADD8E6" height="16.2969" style="stroke:none;stroke-width:1.0;" width="44" x="17" y="178.1953"/><text fill="#000000" font-family="sans-serif" font-size="14" lengthAdjust="spacing" textLength="4" x="17" y="191.1904">&#160;</text><text fill="#000000" font-family="sans-serif" font-size="14" lengthAdjust="spacing" textLength="101" x="65" y="191.1904">our application</text><rect fill="#FFE4B5" height="16.2969" style="stroke:none;stroke-width:1.0;" width="44" x="17" y="194.4922"/><text fill="#000000" font-family="sans-serif" font-size="14" lengthAdjust="spacing" textLength="4" x="17" y="207.4873">&#160;</text><text fill="#000000" font-family="sans-serif" font-size="14" lengthAdjust="spacing" textLength="98" x="65" y="207.4873">same platform</text><line style="stroke:#000000;stroke-width:1.0;" x1="17" x2="166" y1="161.8984" y2="161.8984"/><line style="stroke:#000000;stroke-width:1.0;" x1="17" x2="166" y1="178.1953" y2="178.1953"/><line style="stroke:#000000;stroke-width:1.0;" x1="17" x2="166" y1="194.4922" y2="194.4922"/><line style="stroke:#000000;stroke-width:1.0;" x1="17" x2="166" y1="210.7891" y2="210.7891"/><line style="stroke:#000000;stroke-width:1.0;" x1="17" x2="17" y1="161.8984" y2="210.7891"/><line style="stroke:#000000;stroke-width:1.0;" x1="61" x2="61" y1="161.8984" y2="210.7891"/><line style="stroke:#000000;stroke-width:1.0;" x1="166" x2="166" y1="161.8984" y2="210.7891"/></g></svg>