<?xml version="1.0" encoding="us-ascii" standalone="no"?><svg xmlns="http://www.w3.org/2000/svg" xmlns:xlink="http://www.w3.org/1999/xlink" contentStyleType="text/css" height="237px" preserveAspectRatio="none" style="width:853px;height:237px;background:#FFFFFF;" version="1.1" viewBox="0 0 853 237" width="853px" zoomAndPan="magnify"><defs/><g><!--entity platform__application__frontend--><g id="elem_platform__application__frontend"><rect fill="#D3D3D3" height="36.2969" rx="2.5" ry="2.5" style="stroke:#181818;stroke-width:0.5;" width="83" x="7" y="60.5"/><text fill="#000000" font-family="sans-serif" font-size="14" lengthAdjust="spacing" textLength="63" x="17" y="83.4951">Frontend</text></g><!--entity platform__application__order_service--><g id="elem_platform__application__order_service"><rect fill="#87CEEB" height="36.2969" rx="2.5" ry="2.5" style="stroke:#181818;stroke-width:2.0;" width="113" x="151" y="60.5"/><text fill="#000000" font-family="sans-serif" font-size="14" lengthAdjust="spacing" textLength="93" x="161" y="83.4951">Order Service</text></g><!--entity platform__application__inventory_service--><g id="elem_platform__application__inventory_service"><rect fill="#ADD8E6" height="36.2969" rx="2.5" ry="2.5" style="stroke:#181818;stroke-width:0.5;" width="137" x="347" y="18.5"/><text fill="#000000" font-family="sans-serif" font-size="14" lengthAdjust="spacing" textLength="117" x="357" y="41.4951">Inventory Service</text></g><g id="elem_GMN5"><path d="M545,6 L545,31.12 L484.15,35.77 L545,39.12 L545,61.3984 A0,0 0 0 0 545,61.3984 L846,61.3984 A0,0 0 0 0 846,61.3984 L846,16 L836,6 L545,6 A0,0 0 0 0 545,6 " fill="#FEFFDD" style="stroke:#181818;stroke-width:0.5;"/><path d="M836,6 L836,16 L846,16 L836,6 " fill="#FEFFDD" style="stroke:#181818;stroke-width:0.5;"/><text fill="#000000" font-family="sans-serif" font-size="13" font-weight="bold" lengthAdjust="spacing" textLength="121" x="551" y="23.0669">HTTP Endpoints:</text><text fill="#000000" font-family="monospace" font-size="13" lengthAdjust="spacing" textLength="216" x="551" y="38.1997">GET&#160;&#160;/inventory/{productId}</text><text fill="#000000" font-family="monospace" font-size="13" lengthAdjust="spacing" textLength="280" x="551" y="53.3325">POST&#160;/inventory/{productId}/reserve</text></g><!--entity payment_service--><g id="elem_payment_service"><rect fill="#FFE4B5" height="36.2969" rx="2.5" ry="2.5" style="stroke:#181818;stroke-width:0.5;" width="134" x="348.5" y="95.5"/><text fill="#000000" font-family="sans-serif" font-size="14" lengthAdjust="spacing" textLength="114" x="358.5" y="118.4951">payment-service</text></g><g id="elem_GMN9"><path d="M624.5,96.5 L624.5,111.74 L482.73,114.21 L624.5,119.74 L624.5,136.7656 A0,0 0 0 0 624.5,136.7656 L766.5,136.7656 A0,0 0 0 0 766.5,136.7656 L766.5,106.5 L756.5,96.5 L624.5,96.5 A0,0 0 0 0 624.5,96.5 " fill="#FEFFDD" style="stroke:#181818;stroke-width:0.5;"/><path d="M756.5,96.5 L756.5,106.5 L766.5,106.5 L756.5,96.5 " fill="#FEFFDD" style="stroke:#181818;stroke-width:0.5;"/><text fill="#000000" font-family="sans-serif" font-size="13" font-weight="bold" lengthAdjust="spacing" textLength="121" x="630.5" y="113.5669">HTTP Endpoints:</text><text fill="#000000" font-family="monospace" font-size="13" lengthAdjust="spacing" textLength="112" x="630.5" y="128.6997">POST&#160;/payments</text></g><!--link platform__application__frontend to platform__application__order_service--><g id="link_platform__application__frontend_platform__application__order_service"><path d="M90.34,78.5 C108.78,78.5 124.86,78.5 144.79,78.5 " fill="none" id="platform__application__frontend-to-platform__application__order_service" style="stroke:#181818;stroke-width:1.0;"/><polygon fill="#181818" points="150.79,78.5,141.79,74.5,145.79,78.5,141.79,82.5,150.79,78.5" style="stroke:#181818;stroke-width:1.0;"/></g><!--link platform__application__order_service to payment_service--><g id="link_platform__application__order_service_payment_service"><path d="M263.62,96.55 C280.16,101.97 294,106.5 294,106.5 C294,106.5 314.27,107.6834 342.27,109.3034 " fill="none" id="platform__application__order_service-to-payment_service" style="stroke:#181818;stroke-width:1.0;"/><polygon fill="#181818" points="348.26,109.65,339.5061,105.1368,343.2683,109.3612,339.044,113.1235,348.26,109.65" style="stroke:#181818;stroke-width:1.0;"/><text fill="#000000" font-family="sans-serif" font-size="13" lengthAdjust="spacing" textLength="21" x="295" y="102.5669">JWT</text></g><!--link platform__application__order_service to platform__application__inventory_service--><g id="link_platform__application__order_service_platform__application__inventory_service"><path d="M264.25,67.13 C289.75,61.94 314.3009,56.9282 341.0909,51.4682 " fill="none" id="platform__application__order_service-to-platform__application__inventory_service" style="stroke:#181818;stroke-width:1.0;"/><polygon fill="#181818" points="346.97,50.27,337.3525,48.1479,342.0707,51.2685,338.9501,55.9867,346.97,50.27" style="stroke:#181818;stroke-width:1.0;"/><text fill="#000000" font-family="sans-serif" font-size="13" lengthAdjust="spacing" textLength="21" x="295" y="53.5669">JWT</text></g><rect fill="none" height="62.8906" id="_legend" rx="7.5" ry="7.5" style="stroke:#FFFFFF;stroke-width:1.0;" width="159" x="12" y="154.7656"/><text fill="#000000" font-family="sans-serif" font-size="14" lengthAdjust="spacing" textLength="36" x="21" y="174.7607">Color</text><text fill="#000000" font-family="sans-serif" font-size="14" lengthAdjust="spacing" textLength="91" x="65" y="174.7607">Belongs to ...</text><rect fill="#ADD8E6" height="16.2969" style="stroke:none;stroke-width:1.0;" width="44" x="17" y="178.0625"/><text fill="#000000" font-family="sans-serif" font-size="14" lengthAdjust="spacing" textLength="4" x="17" y="191.0576">&#160;</text><text fill="#000000" font-family="sans-serif" font-size="14" lengthAdjust="spacing" textLength="101" x="65" y="191.0576">our application</text><rect fill="#FFE4B5" height="16.2969" style="stroke:none;stroke-width:1.0;" width="44" x="17" y="194.3594"/><text fill="#000000" font-family="sans-serif" font-size="14" lengthAdjust="spacing" textLength="4" x="17" y="207.3545">&#160;</text><text fill="#000000" font-family="sans-serif" font-size="14" lengthAdjust="spacing" textLength="98" x="65" y="207.3545">same platform</text><line style="stroke:#000000;stroke-width:1.0;" x1="17" x2="166" y1="161.7656" y2="161.7656"/><line style="stroke:#000000;stroke-width:1.0;" x1="17" x2="166" y1="178.0625" y2="178.0625"/><line style="stroke:#000000;stroke-width:1.0;" x1="17" x2="166" y1="194.3594" y2="194.3594"/><line style="stroke:#000000;stroke-width:1.0;" x1="17" x2="166" y1="210.6563" y2="210.6563"/><line style="stroke:#000000;stroke-width:1.0;" x1="17" x2="17" y1="161.7656" y2="210.6563"/><line style="stroke:#000000;stroke-width:1.0;" x1="61" x2="61" y1="161.7656" y2="210.6563"/><line style="stroke:#000000;stroke-width:1.0;" x1="166" x2="166" y1="161.7656" y2="210.6563"/></g></svg>