<?xml version="1.0" encoding="us-ascii" standalone="no"?><svg xmlns="http://www.w3.org/2000/svg" xmlns:xlink="http://www.w3.org/1999/xlink" contentStyleType="text/css" height="479px" preserveAspectRatio="none" style="width:788px;height:479px;background:#FFFFFF;" version="1.1" viewBox="0 0 788 479" width="788px" zoomAndPan="magnify"><defs/><g><rect fill="#FFFFFF" height="218.6641" style="stroke:#181818;stroke-width:1.0;" width="10" x="183.5" y="112.4297"/><rect fill="#FFFFFF" height="97.2656" style="stroke:#181818;stroke-width:1.0;" width="10" x="188.5" y="191.6953"/><rect fill="#FFFFFF" height="14" style="stroke:#181818;stroke-width:1.0;" width="10" x="530.5" y="225.8281"/><rect fill="#FFFFFF" height="120.2656" style="stroke:#181818;stroke-width:1.0;" width="10" x="530.5" y="268.9609"/><line style="stroke:#181818;stroke-width:0.5;stroke-dasharray:5.0,5.0;" x1="42" x2="42" y1="81.2969" y2="398.2266"/><line style="stroke:#181818;stroke-width:0.5;stroke-dasharray:5.0,5.0;" x1="188.5" x2="188.5" y1="81.2969" y2="398.2266"/><line style="stroke:#181818;stroke-width:0.5;stroke-dasharray:5.0,5.0;" x1="535" x2="535" y1="81.2969" y2="398.2266"/><text fill="#000000" font-family="sans-serif" font-size="14" lengthAdjust="spacing" textLength="69" x="5" y="77.9951">developer</text><ellipse cx="42.5" cy="13.5" fill="#E2E2F0" rx="8" ry="8" style="stroke:#181818;stroke-width:0.5;"/><path d="M42.5,21.5 L42.5,48.5 M29.5,29.5 L55.5,29.5 M42.5,48.5 L29.5,63.5 M42.5,48.5 L55.5,63.5 " fill="none" style="stroke:#181818;stroke-width:0.5;"/><text fill="#000000" font-family="sans-serif" font-size="14" lengthAdjust="spacing" textLength="69" x="5" y="410.2217">developer</text><ellipse cx="42.5" cy="422.0234" fill="#E2E2F0" rx="8" ry="8" style="stroke:#181818;stroke-width:0.5;"/><path d="M42.5,430.0234 L42.5,457.0234 M29.5,438.0234 L55.5,438.0234 M42.5,457.0234 L29.5,472.0234 M42.5,457.0234 L55.5,472.0234 " fill="none" style="stroke:#181818;stroke-width:0.5;"/><rect fill="#E2E2F0" height="46.5938" rx="2.5" ry="2.5" style="stroke:#181818;stroke-width:0.5;" width="148" x="114.5" y="33.7031"/><text fill="#000000" font-family="sans-serif" font-size="14" lengthAdjust="spacing" textLength="134" x="121.5" y="53.6982">'backend-service-1'</text><text fill="#000000" font-family="sans-serif" font-size="14" lengthAdjust="spacing" textLength="74" x="151.5" y="69.9951">Repository</text><rect fill="#E2E2F0" height="46.5938" rx="2.5" ry="2.5" style="stroke:#181818;stroke-width:0.5;" width="148" x="114.5" y="397.2266"/><text fill="#000000" font-family="sans-serif" font-size="14" lengthAdjust="spacing" textLength="134" x="121.5" y="417.2217">'backend-service-1'</text><text fill="#000000" font-family="sans-serif" font-size="14" lengthAdjust="spacing" textLength="74" x="151.5" y="433.5186">Repository</text><rect fill="#E2E2F0" height="46.5938" rx="2.5" ry="2.5" style="stroke:#181818;stroke-width:0.5;" width="125" x="473" y="33.7031"/><text fill="#000000" font-family="sans-serif" font-size="14" lengthAdjust="spacing" textLength="111" x="480" y="53.6982">'documentation'</text><text fill="#000000" font-family="sans-serif" font-size="14" lengthAdjust="spacing" textLength="74" x="498.5" y="69.9951">Repository</text><rect fill="#E2E2F0" height="46.5938" rx="2.5" ry="2.5" style="stroke:#181818;stroke-width:0.5;" width="125" x="473" y="397.2266"/><text fill="#000000" font-family="sans-serif" font-size="14" lengthAdjust="spacing" textLength="111" x="480" y="417.2217">'documentation'</text><text fill="#000000" font-family="sans-serif" font-size="14" lengthAdjust="spacing" textLength="74" x="498.5" y="433.5186">Repository</text><rect fill="#FFFFFF" height="218.6641" style="stroke:#181818;stroke-width:1.0;" width="10" x="183.5" y="112.4297"/><rect fill="#FFFFFF" height="97.2656" style="stroke:#181818;stroke-width:1.0;" width="10" x="188.5" y="191.6953"/><rect fill="#FFFFFF" height="14" style="stroke:#181818;stroke-width:1.0;" width="10" x="530.5" y="225.8281"/><rect fill="#FFFFFF" height="120.2656" style="stroke:#181818;stroke-width:1.0;" width="10" x="530.5" y="268.9609"/><polygon fill="#181818" points="171.5,108.4297,181.5,112.4297,171.5,116.4297,175.5,112.4297" style="stroke:#181818;stroke-width:1.0;"/><line style="stroke:#181818;stroke-width:1.0;" x1="42.5" x2="177.5" y1="112.4297" y2="112.4297"/><text fill="#000000" font-family="sans-serif" font-size="13" lengthAdjust="spacing" textLength="122" x="49.5" y="107.3638">push some change</text><line style="stroke:#181818;stroke-width:1.0;" x1="193.5" x2="235.5" y1="141.5625" y2="141.5625"/><line style="stroke:#181818;stroke-width:1.0;" x1="235.5" x2="235.5" y1="141.5625" y2="154.5625"/><line style="stroke:#181818;stroke-width:1.0;" x1="194.5" x2="235.5" y1="154.5625" y2="154.5625"/><polygon fill="#181818" points="204.5,150.5625,194.5,154.5625,204.5,158.5625,200.5,154.5625" style="stroke:#181818;stroke-width:1.0;"/><text fill="#000000" font-family="sans-serif" font-size="13" lengthAdjust="spacing" textLength="103" x="200.5" y="136.4966">build application</text><line style="stroke:#181818;stroke-width:1.0;" x1="193.5" x2="240.5" y1="178.6953" y2="178.6953"/><line style="stroke:#181818;stroke-width:1.0;" x1="240.5" x2="240.5" y1="178.6953" y2="191.6953"/><line style="stroke:#181818;stroke-width:1.0;" x1="199.5" x2="240.5" y1="191.6953" y2="191.6953"/><polygon fill="#181818" points="209.5,187.6953,199.5,191.6953,209.5,195.6953,205.5,191.6953" style="stroke:#181818;stroke-width:1.0;"/><text fill="#000000" font-family="sans-serif" font-size="13" lengthAdjust="spacing" textLength="202" x="205.5" y="173.6294">publish 'backend-service-1.json'</text><polygon fill="#181818" points="518.5,221.8281,528.5,225.8281,518.5,229.8281,522.5,225.8281" style="stroke:#181818;stroke-width:1.0;"/><line style="stroke:#181818;stroke-width:1.0;" x1="198.5" x2="524.5" y1="225.8281" y2="225.8281"/><text fill="#000000" font-family="sans-serif" font-size="13" lengthAdjust="spacing" textLength="58" x="205.5" y="220.7622">checkout</text><polygon fill="#181818" points="209.5,235.8281,199.5,239.8281,209.5,243.8281,205.5,239.8281" style="stroke:#181818;stroke-width:1.0;"/><line style="stroke:#181818;stroke-width:1.0;stroke-dasharray:2.0,2.0;" x1="203.5" x2="534.5" y1="239.8281" y2="239.8281"/><polygon fill="#181818" points="518.5,264.9609,528.5,268.9609,518.5,272.9609,522.5,268.9609" style="stroke:#181818;stroke-width:1.0;"/><line style="stroke:#181818;stroke-width:1.0;" x1="198.5" x2="524.5" y1="268.9609" y2="268.9609"/><text fill="#000000" font-family="sans-serif" font-size="13" lengthAdjust="spacing" textLength="313" x="205.5" y="263.895">commit &amp; push updated 'backend-service-1.json'</text><line style="stroke:#181818;stroke-width:1.0;stroke-dasharray:2.0,2.0;" x1="198.5" x2="240.5" y1="287.9609" y2="287.9609"/><line style="stroke:#181818;stroke-width:1.0;stroke-dasharray:2.0,2.0;" x1="240.5" x2="240.5" y1="287.9609" y2="300.9609"/><line style="stroke:#181818;stroke-width:1.0;stroke-dasharray:2.0,2.0;" x1="193.5" x2="240.5" y1="300.9609" y2="300.9609"/><polygon fill="#181818" points="203.5,296.9609,193.5,300.9609,203.5,304.9609,199.5,300.9609" style="stroke:#181818;stroke-width:1.0;"/><line style="stroke:#181818;stroke-width:1.0;" x1="540.5" x2="582.5" y1="330.0938" y2="330.0938"/><line style="stroke:#181818;stroke-width:1.0;" x1="582.5" x2="582.5" y1="330.0938" y2="343.0938"/><line style="stroke:#181818;stroke-width:1.0;" x1="535.5" x2="582.5" y1="343.0938" y2="343.0938"/><polygon fill="#181818" points="545.5,339.0938,535.5,343.0938,545.5,347.0938,541.5,343.0938" style="stroke:#181818;stroke-width:1.0;"/><text fill="#000000" font-family="sans-serif" font-size="13" lengthAdjust="spacing" textLength="234" x="547.5" y="325.0278">generate diagrams, documents, etc.</text><line style="stroke:#181818;stroke-width:1.0;" x1="540.5" x2="582.5" y1="367.2266" y2="367.2266"/><line style="stroke:#181818;stroke-width:1.0;" x1="582.5" x2="582.5" y1="367.2266" y2="380.2266"/><line style="stroke:#181818;stroke-width:1.0;" x1="541.5" x2="582.5" y1="380.2266" y2="380.2266"/><polygon fill="#181818" points="551.5,376.2266,541.5,380.2266,551.5,384.2266,547.5,380.2266" style="stroke:#181818;stroke-width:1.0;"/><text fill="#000000" font-family="sans-serif" font-size="13" lengthAdjust="spacing" textLength="185" x="547.5" y="362.1606">commit &amp; push updated files</text></g></svg>