<?xml version="1.0" encoding="us-ascii" standalone="no"?><svg xmlns="http://www.w3.org/2000/svg" xmlns:xlink="http://www.w3.org/1999/xlink" contentStyleType="text/css" height="482px" preserveAspectRatio="none" style="width:750px;height:482px;background:#FFFFFF;" version="1.1" viewBox="0 0 750 482" width="750px" zoomAndPan="magnify"><defs/><g><rect fill="#FFFFFF" height="186.5313" style="stroke:#181818;stroke-width:1.0;" width="10" x="183.5" y="112.4297"/><rect fill="#FFFFFF" height="14" style="stroke:#181818;stroke-width:1.0;" width="10" x="492.5" y="183.6953"/><rect fill="#FFFFFF" height="123.2656" style="stroke:#181818;stroke-width:1.0;" width="10" x="492.5" y="268.9609"/><line style="stroke:#181818;stroke-width:0.5;stroke-dasharray:5.0,5.0;" x1="42" x2="42" y1="81.2969" y2="401.2266"/><line style="stroke:#181818;stroke-width:0.5;stroke-dasharray:5.0,5.0;" x1="188" x2="188" y1="81.2969" y2="401.2266"/><line style="stroke:#181818;stroke-width:0.5;stroke-dasharray:5.0,5.0;" x1="497" x2="497" y1="81.2969" y2="401.2266"/><text fill="#000000" font-family="sans-serif" font-size="14" lengthAdjust="spacing" textLength="69" x="5" y="77.9951">developer</text><ellipse cx="42.5" cy="13.5" fill="#E2E2F0" rx="8" ry="8" style="stroke:#181818;stroke-width:0.5;"/><path d="M42.5,21.5 L42.5,48.5 M29.5,29.5 L55.5,29.5 M42.5,48.5 L29.5,63.5 M42.5,48.5 L55.5,63.5 " fill="none" style="stroke:#181818;stroke-width:0.5;"/><text fill="#000000" font-family="sans-serif" font-size="14" lengthAdjust="spacing" textLength="69" x="5" y="413.2217">developer</text><ellipse cx="42.5" cy="425.0234" fill="#E2E2F0" rx="8" ry="8" style="stroke:#181818;stroke-width:0.5;"/><path d="M42.5,433.0234 L42.5,460.0234 M29.5,441.0234 L55.5,441.0234 M42.5,460.0234 L29.5,475.0234 M42.5,460.0234 L55.5,475.0234 " fill="none" style="stroke:#181818;stroke-width:0.5;"/><rect fill="#E2E2F0" height="46.5938" rx="2.5" ry="2.5" style="stroke:#181818;stroke-width:0.5;" width="111" x="133" y="33.7031"/><text fill="#000000" font-family="sans-serif" font-size="14" lengthAdjust="spacing" textLength="97" x="140" y="53.6982">'order-service'</text><text fill="#000000" font-family="sans-serif" font-size="14" lengthAdjust="spacing" textLength="74" x="151.5" y="69.9951">Repository</text><rect fill="#E2E2F0" height="46.5938" rx="2.5" ry="2.5" style="stroke:#181818;stroke-width:0.5;" width="111" x="133" y="400.2266"/><text fill="#000000" font-family="sans-serif" font-size="14" lengthAdjust="spacing" textLength="97" x="140" y="420.2217">'order-service'</text><text fill="#000000" font-family="sans-serif" font-size="14" lengthAdjust="spacing" textLength="74" x="151.5" y="436.5186">Repository</text><rect fill="#E2E2F0" height="46.5938" rx="2.5" ry="2.5" style="stroke:#181818;stroke-width:0.5;" width="125" x="435" y="33.7031"/><text fill="#000000" font-family="sans-serif" font-size="14" lengthAdjust="spacing" textLength="111" x="442" y="53.6982">'documentation'</text><text fill="#000000" font-family="sans-serif" font-size="14" lengthAdjust="spacing" textLength="74" x="460.5" y="69.9951">Repository</text><rect fill="#E2E2F0" height="46.5938" rx="2.5" ry="2.5" style="stroke:#181818;stroke-width:0.5;" width="125" x="435" y="400.2266"/><text fill="#000000" font-family="sans-serif" font-size="14" lengthAdjust="spacing" textLength="111" x="442" y="420.2217">'documentation'</text><text fill="#000000" font-family="sans-serif" font-size="14" lengthAdjust="spacing" textLength="74" x="460.5" y="436.5186">Repository</text><rect fill="#FFFFFF" height="186.5313" style="stroke:#181818;stroke-width:1.0;" width="10" x="183.5" y="112.4297"/><rect fill="#FFFFFF" height="14" style="stroke:#181818;stroke-width:1.0;" width="10" x="492.5" y="183.6953"/><rect fill="#FFFFFF" height="123.2656" style="stroke:#181818;stroke-width:1.0;" width="10" x="492.5" y="268.9609"/><polygon fill="#181818" points="171.5,108.4297,181.5,112.4297,171.5,116.4297,175.5,112.4297" style="stroke:#181818;stroke-width:1.0;"/><line style="stroke:#181818;stroke-width:1.0;" x1="42.5" x2="177.5" y1="112.4297" y2="112.4297"/><text fill="#000000" font-family="sans-serif" font-size="13" lengthAdjust="spacing" textLength="122" x="49.5" y="107.3638">push some change</text><line style="stroke:#181818;stroke-width:1.0;" x1="193.5" x2="235.5" y1="141.5625" y2="141.5625"/><line style="stroke:#181818;stroke-width:1.0;" x1="235.5" x2="235.5" y1="141.5625" y2="154.5625"/><line style="stroke:#181818;stroke-width:1.0;" x1="194.5" x2="235.5" y1="154.5625" y2="154.5625"/><polygon fill="#181818" points="204.5,150.5625,194.5,154.5625,204.5,158.5625,200.5,154.5625" style="stroke:#181818;stroke-width:1.0;"/><text fill="#000000" font-family="sans-serif" font-size="13" lengthAdjust="spacing" textLength="107" x="200.5" y="136.4966">build component</text><polygon fill="#181818" points="480.5,179.6953,490.5,183.6953,480.5,187.6953,484.5,183.6953" style="stroke:#181818;stroke-width:1.0;"/><line style="stroke:#181818;stroke-width:1.0;" x1="193.5" x2="486.5" y1="183.6953" y2="183.6953"/><text fill="#000000" font-family="sans-serif" font-size="13" lengthAdjust="spacing" textLength="58" x="200.5" y="178.6294">checkout</text><polygon fill="#181818" points="204.5,193.6953,194.5,197.6953,204.5,201.6953,200.5,197.6953" style="stroke:#181818;stroke-width:1.0;"/><line style="stroke:#181818;stroke-width:1.0;stroke-dasharray:2.0,2.0;" x1="198.5" x2="496.5" y1="197.6953" y2="197.6953"/><line style="stroke:#181818;stroke-width:1.0;" x1="193.5" x2="235.5" y1="226.8281" y2="226.8281"/><line style="stroke:#181818;stroke-width:1.0;" x1="235.5" x2="235.5" y1="226.8281" y2="239.8281"/><line style="stroke:#181818;stroke-width:1.0;" x1="194.5" x2="235.5" y1="239.8281" y2="239.8281"/><polygon fill="#181818" points="204.5,235.8281,194.5,239.8281,204.5,243.8281,200.5,239.8281" style="stroke:#181818;stroke-width:1.0;"/><text fill="#000000" font-family="sans-serif" font-size="13" lengthAdjust="spacing" textLength="243" x="200.5" y="221.7622">combine component description parts</text><polygon fill="#181818" points="480.5,264.9609,490.5,268.9609,480.5,272.9609,484.5,268.9609" style="stroke:#181818;stroke-width:1.0;"/><line style="stroke:#181818;stroke-width:1.0;" x1="193.5" x2="486.5" y1="268.9609" y2="268.9609"/><text fill="#000000" font-family="sans-serif" font-size="13" lengthAdjust="spacing" textLength="280" x="200.5" y="263.895">commit &amp; push updated 'order-service.json'</text><line style="stroke:#181818;stroke-width:1.0;" x1="502.5" x2="544.5" y1="328.0938" y2="328.0938"/><line style="stroke:#181818;stroke-width:1.0;" x1="544.5" x2="544.5" y1="328.0938" y2="341.0938"/><line style="stroke:#181818;stroke-width:1.0;" x1="503.5" x2="544.5" y1="341.0938" y2="341.0938"/><polygon fill="#181818" points="513.5,337.0938,503.5,341.0938,513.5,345.0938,509.5,341.0938" style="stroke:#181818;stroke-width:1.0;"/><text fill="#000000" font-family="sans-serif" font-size="13" lengthAdjust="spacing" textLength="234" x="509.5" y="323.0278">generate diagrams, documents, etc.</text><line style="stroke:#181818;stroke-width:1.0;" x1="502.5" x2="544.5" y1="370.2266" y2="370.2266"/><line style="stroke:#181818;stroke-width:1.0;" x1="544.5" x2="544.5" y1="370.2266" y2="383.2266"/><line style="stroke:#181818;stroke-width:1.0;" x1="503.5" x2="544.5" y1="383.2266" y2="383.2266"/><polygon fill="#181818" points="513.5,379.2266,503.5,383.2266,513.5,387.2266,509.5,383.2266" style="stroke:#181818;stroke-width:1.0;"/><text fill="#000000" font-family="sans-serif" font-size="13" lengthAdjust="spacing" textLength="185" x="509.5" y="365.1606">commit &amp; push updated files</text></g></svg>