<?xml version="1.0" encoding="us-ascii" standalone="no"?><svg xmlns="http://www.w3.org/2000/svg" xmlns:xlink="http://www.w3.org/1999/xlink" contentStyleType="text/css" height="390px" preserveAspectRatio="none" style="width:2456px;height:390px;background:#FFFFFF;" version="1.1" viewBox="0 0 2456 390" width="2456px" zoomAndPan="magnify"><defs/><g><!--cluster Message Broker--><g id="cluster_Message Broker"><rect fill="none" height="364" rx="5" ry="5" style="stroke:#181818;stroke-width:2.0;" width="1328" x="796" y="14"/><path d="M1072,14 L1072,32.5938 L1052,52.5938 L796,52.5938 " fill="none" style="stroke:#181818;stroke-width:2.0;"/><text fill="#000000" font-family="sans-serif" font-size="28" font-weight="bold" lengthAdjust="spacing" textLength="256" x="802" y="41.9902">Message Broker</text></g><!--entity exchange__order_events--><g id="elem_exchange__order_events"><path d="M902,92 L902,140 M902,116 L936,116 " fill="none" style="stroke:#181818;stroke-width:1.0;"/><ellipse cx="960" cy="116" fill="#F1F1F1" rx="24" ry="24" style="stroke:#181818;stroke-width:1.0;"/><text fill="#000000" font-family="sans-serif" font-size="28" lengthAdjust="spacing" textLength="178" x="854" y="173.9902">order-events</text></g><!--entity exchange__inventory_events--><g id="elem_exchange__inventory_events"><path d="M902,258 L902,306 M902,282 L936,282 " fill="none" style="stroke:#181818;stroke-width:1.0;"/><ellipse cx="960" cy="282" fill="#F1F1F1" rx="24" ry="24" style="stroke:#181818;stroke-width:1.0;"/><text fill="#000000" font-family="sans-serif" font-size="28" lengthAdjust="spacing" textLength="230" x="828" y="339.9902">inventory-events</text></g><!--entity queue__inventory_eventsorder_serviceproduct_sold_out--><g id="elem_queue__inventory_eventsorder_serviceproduct_sold_out"><path d="M1402,250 L2082,250 C2092,250 2092,276.2969 2092,276.2969 C2092,276.2969 2092,302.5938 2082,302.5938 L1402,302.5938 C1392,302.5938 1392,276.2969 1392,276.2969 C1392,276.2969 1392,250 1402,250 " fill="#F1F1F1" style="stroke:#181818;stroke-width:1.0;"/><path d="M2082,250 C2072,250 2072,276.2969 2072,276.2969 C2072,302.5938 2082,302.5938 2082,302.5938 " fill="none" style="stroke:#181818;stroke-width:1.0;"/><text fill="#000000" font-family="sans-serif" font-size="28" lengthAdjust="spacing" textLength="660" x="1402" y="285.9902">inventory-events.order-service.product-sold-out</text></g><!--entity platform__application__inventory_service__producer--><g id="elem_platform__application__inventory_service__producer"><rect fill="#ADD8E6" height="72.5938" rx="5" ry="5" style="stroke:#181818;stroke-width:1.0;" width="274" x="428" y="262"/><text fill="#000000" font-family="sans-serif" font-size="28" lengthAdjust="spacing" textLength="234" x="448" y="307.9902">Inventory Service</text></g><!--entity platform__application__order_service__producer--><g id="elem_platform__application__order_service__producer"><rect fill="#ADD8E6" height="72.5938" rx="5" ry="5" style="stroke:#181818;stroke-width:1.0;" width="226" x="452" y="96"/><text fill="#000000" font-family="sans-serif" font-size="28" lengthAdjust="spacing" textLength="186" x="472" y="141.9902">Order Service</text></g><!--entity platform__application__order_service__consumer--><g id="elem_platform__application__order_service__consumer"><rect fill="#ADD8E6" height="72.5938" rx="5" ry="5" style="stroke:#181818;stroke-width:1.0;" width="226" x="2218" y="240"/><text fill="#000000" font-family="sans-serif" font-size="28" lengthAdjust="spacing" textLength="186" x="2238" y="285.9902">Order Service</text></g><g id="elem_GMN9"><path d="M12,258 L12,338.5313 A0,0 0 0 0 12,338.5313 L306,338.5313 A0,0 0 0 0 306,338.5313 L306,306 L427.46,298 L306,290 L306,278 L286,258 L12,258 A0,0 0 0 0 12,258 " fill="#FEFFDD" style="stroke:#181818;stroke-width:1.0;"/><path d="M286,258 L286,278 L306,278 L286,258 " fill="#FEFFDD" style="stroke:#181818;stroke-width:1.0;"/><text fill="#000000" font-family="sans-serif" font-size="26" font-weight="bold" lengthAdjust="spacing" textLength="244" x="24" y="292.1338">inventory-events</text><text fill="#000000" font-family="sans-serif" font-size="26" lengthAdjust="spacing" textLength="8" x="268" y="292.1338">:</text><text fill="#000000" font-family="sans-serif" font-size="26" lengthAdjust="spacing" textLength="228" x="32" y="322.3994">- product.sold-out</text></g><g id="elem_GMN12"><path d="M30,77 L30,187.7969 A0,0 0 0 0 30,187.7969 L288,187.7969 A0,0 0 0 0 288,187.7969 L288,140 L451.56,132 L288,124 L288,97 L268,77 L30,77 A0,0 0 0 0 30,77 " fill="#FEFFDD" style="stroke:#181818;stroke-width:1.0;"/><path d="M268,77 L268,97 L288,97 L268,77 " fill="#FEFFDD" style="stroke:#181818;stroke-width:1.0;"/><text fill="#000000" font-family="sans-serif" font-size="26" font-weight="bold" lengthAdjust="spacing" textLength="188" x="42" y="111.1338">order-events</text><text fill="#000000" font-family="sans-serif" font-size="26" lengthAdjust="spacing" textLength="8" x="230" y="111.1338">:</text><text fill="#000000" font-family="sans-serif" font-size="26" lengthAdjust="spacing" textLength="208" x="50" y="141.3994">- order.canceled</text><text fill="#000000" font-family="sans-serif" font-size="26" lengthAdjust="spacing" textLength="178" x="50" y="171.665">- order.placed</text></g><!--link platform__application__inventory_service__producer to exchange__inventory_events--><g id="link_platform__application__inventory_service__producer_exchange__inventory_events"><path d="M702.02,298 C743.24,298 776.12,298 815.74,298 " fill="none" id="platform__application__inventory_service__producer-to-exchange__inventory_events" style="stroke:#181818;stroke-width:2.0;"/><polygon fill="#181818" points="827.74,298,809.74,290,817.74,298,809.74,306,827.74,298" style="stroke:#181818;stroke-width:2.0;"/></g><!--link platform__application__order_service__producer to exchange__order_events--><g id="link_platform__application__order_service__producer_exchange__order_events"><path d="M678.2,132 C734.4,132 789.6,132 841.96,132 " fill="none" id="platform__application__order_service__producer-to-exchange__order_events" style="stroke:#181818;stroke-width:2.0;"/><polygon fill="#181818" points="853.96,132,835.96,124,843.96,132,835.96,140,853.96,132" style="stroke:#181818;stroke-width:2.0;"/></g><!--link exchange__inventory_events to queue__inventory_eventsorder_serviceproduct_sold_out--><g id="link_exchange__inventory_events_queue__inventory_eventsorder_serviceproduct_sold_out"><path d="M1058.06,294.88 C1145.52,292.46 1259.5446,289.292 1379.5046,285.972 " fill="none" id="exchange__inventory_events-to-queue__inventory_eventsorder_serviceproduct_sold_out" style="stroke:#181818;stroke-width:2.0;"/><polygon fill="#181818" points="1391.5,285.64,1373.2856,278.141,1381.5038,285.9167,1373.7282,294.1349,1391.5,285.64" style="stroke:#181818;stroke-width:2.0;"/><text fill="#000000" font-family="sans-serif" font-size="26" lengthAdjust="spacing" textLength="210" x="1120" y="280.1338">product.sold-out</text></g><!--link queue__inventory_eventsorder_serviceproduct_sold_out to platform__application__order_service__consumer--><g id="link_queue__inventory_eventsorder_serviceproduct_sold_out_platform__application__order_service__consumer"><path d="M2092.74,276 C2137.76,276 2168.94,276 2205.78,276 " fill="none" id="queue__inventory_eventsorder_serviceproduct_sold_out-to-platform__application__order_service__consumer" style="stroke:#181818;stroke-width:2.0;"/><polygon fill="#181818" points="2217.78,276,2199.78,268,2207.78,276,2199.78,284,2217.78,276" style="stroke:#181818;stroke-width:2.0;"/></g></g></svg>