<?xml version="1.0" encoding="us-ascii" standalone="no"?><svg xmlns="http://www.w3.org/2000/svg" xmlns:xlink="http://www.w3.org/1999/xlink" contentStyleType="text/css" height="195px" preserveAspectRatio="none" style="width:1228px;height:195px;background:#FFFFFF;" version="1.1" viewBox="0 0 1228 195" width="1228px" zoomAndPan="magnify"><defs/><g><!--cluster Message Broker--><g id="cluster_Message Broker"><rect fill="none" height="182" rx="2.5" ry="2.5" style="stroke:#181818;stroke-width:1.0;" width="664" x="398" y="7"/><path d="M536,7 L536,16.2969 L526,26.2969 L398,26.2969 " fill="none" style="stroke:#181818;stroke-width:1.0;"/><text fill="#000000" font-family="sans-serif" font-size="14" font-weight="bold" lengthAdjust="spacing" textLength="128" x="401" y="20.9951">Message Broker</text></g><!--entity exchange__order_events--><g id="elem_exchange__order_events"><path d="M451,46 L451,70 M451,58 L468,58 " fill="none" style="stroke:#181818;stroke-width:0.5;"/><ellipse cx="480" cy="58" fill="#F1F1F1" rx="12" ry="12" style="stroke:#181818;stroke-width:0.5;"/><text fill="#000000" font-family="sans-serif" font-size="14" lengthAdjust="spacing" textLength="89" x="427" y="86.9951">order-events</text></g><!--entity exchange__inventory_events--><g id="elem_exchange__inventory_events"><path d="M451,129 L451,153 M451,141 L468,141 " fill="none" style="stroke:#181818;stroke-width:0.5;"/><ellipse cx="480" cy="141" fill="#F1F1F1" rx="12" ry="12" style="stroke:#181818;stroke-width:0.5;"/><text fill="#000000" font-family="sans-serif" font-size="14" lengthAdjust="spacing" textLength="115" x="414" y="169.9951">inventory-events</text></g><!--entity queue__inventory_eventsorder_serviceproduct_sold_out--><g id="elem_queue__inventory_eventsorder_serviceproduct_sold_out"><path d="M701,125 L1041,125 C1046,125 1046,138.1484 1046,138.1484 C1046,138.1484 1046,151.2969 1041,151.2969 L701,151.2969 C696,151.2969 696,138.1484 696,138.1484 C696,138.1484 696,125 701,125 " fill="#F1F1F1" style="stroke:#181818;stroke-width:0.5;"/><path d="M1041,125 C1036,125 1036,138.1484 1036,138.1484 C1036,151.2969 1041,151.2969 1041,151.2969 " fill="none" style="stroke:#181818;stroke-width:0.5;"/><text fill="#000000" font-family="sans-serif" font-size="14" lengthAdjust="spacing" textLength="330" x="701" y="142.9951">inventory-events.order-service.product-sold-out</text></g><!--entity platform__application__inventory_service__producer--><g id="elem_platform__application__inventory_service__producer"><rect fill="#ADD8E6" height="36.2969" rx="2.5" ry="2.5" style="stroke:#181818;stroke-width:0.5;" width="137" x="214" y="131"/><text fill="#000000" font-family="sans-serif" font-size="14" lengthAdjust="spacing" textLength="117" x="224" y="153.9951">Inventory Service</text></g><!--entity platform__application__order_service__producer--><g id="elem_platform__application__order_service__producer"><rect fill="#ADD8E6" height="36.2969" rx="2.5" ry="2.5" style="stroke:#181818;stroke-width:0.5;" width="113" x="226" y="48"/><text fill="#000000" font-family="sans-serif" font-size="14" lengthAdjust="spacing" textLength="93" x="236" y="70.9951">Order Service</text></g><!--entity platform__application__order_service__consumer--><g id="elem_platform__application__order_service__consumer"><rect fill="#ADD8E6" height="36.2969" rx="2.5" ry="2.5" style="stroke:#181818;stroke-width:0.5;" width="113" x="1109" y="120"/><text fill="#000000" font-family="sans-serif" font-size="14" lengthAdjust="spacing" textLength="93" x="1119" y="142.9951">Order Service</text></g><g id="elem_GMN9"><path d="M6,129 L6,169.2656 A0,0 0 0 0 6,169.2656 L153,169.2656 A0,0 0 0 0 153,169.2656 L153,153 L213.73,149 L153,145 L153,139 L143,129 L6,129 A0,0 0 0 0 6,129 " fill="#FEFFDD" style="stroke:#181818;stroke-width:0.5;"/><path d="M143,129 L143,139 L153,139 L143,129 " fill="#FEFFDD" style="stroke:#181818;stroke-width:0.5;"/><text fill="#000000" font-family="sans-serif" font-size="13" font-weight="bold" lengthAdjust="spacing" textLength="122" x="12" y="146.0669">inventory-events</text><text fill="#000000" font-family="sans-serif" font-size="13" lengthAdjust="spacing" textLength="4" x="134" y="146.0669">:</text><text fill="#000000" font-family="sans-serif" font-size="13" lengthAdjust="spacing" textLength="114" x="16" y="161.1997">- product.sold-out</text></g><g id="elem_GMN12"><path d="M15,38.5 L15,93.8984 A0,0 0 0 0 15,93.8984 L144,93.8984 A0,0 0 0 0 144,93.8984 L144,70 L225.78,66 L144,62 L144,48.5 L134,38.5 L15,38.5 A0,0 0 0 0 15,38.5 " fill="#FEFFDD" style="stroke:#181818;stroke-width:0.5;"/><path d="M134,38.5 L134,48.5 L144,48.5 L134,38.5 " fill="#FEFFDD" style="stroke:#181818;stroke-width:0.5;"/><text fill="#000000" font-family="sans-serif" font-size="13" font-weight="bold" lengthAdjust="spacing" textLength="94" x="21" y="55.5669">order-events</text><text fill="#000000" font-family="sans-serif" font-size="13" lengthAdjust="spacing" textLength="4" x="115" y="55.5669">:</text><text fill="#000000" font-family="sans-serif" font-size="13" lengthAdjust="spacing" textLength="104" x="25" y="70.6997">- order.canceled</text><text fill="#000000" font-family="sans-serif" font-size="13" lengthAdjust="spacing" textLength="89" x="25" y="85.8325">- order.placed</text></g><!--link platform__application__inventory_service__producer to exchange__inventory_events--><g id="link_platform__application__inventory_service__producer_exchange__inventory_events"><path d="M351.01,149 C371.62,149 388.06,149 407.87,149 " fill="none" id="platform__application__inventory_service__producer-to-exchange__inventory_events" style="stroke:#181818;stroke-width:1.0;"/><polygon fill="#181818" points="413.87,149,404.87,145,408.87,149,404.87,153,413.87,149" style="stroke:#181818;stroke-width:1.0;"/></g><!--link platform__application__order_service__producer to exchange__order_events--><g id="link_platform__application__order_service__producer_exchange__order_events"><path d="M339.1,66 C367.2,66 394.8,66 420.98,66 " fill="none" id="platform__application__order_service__producer-to-exchange__order_events" style="stroke:#181818;stroke-width:1.0;"/><polygon fill="#181818" points="426.98,66,417.98,62,421.98,66,417.98,70,426.98,66" style="stroke:#181818;stroke-width:1.0;"/></g><!--link exchange__inventory_events to queue__inventory_eventsorder_serviceproduct_sold_out--><g id="link_exchange__inventory_events_queue__inventory_eventsorder_serviceproduct_sold_out"><path d="M529.03,147.44 C572.76,146.23 629.7723,144.646 689.7523,142.986 " fill="none" id="exchange__inventory_events-to-queue__inventory_eventsorder_serviceproduct_sold_out" style="stroke:#181818;stroke-width:1.0;"/><polygon fill="#181818" points="695.75,142.82,686.6428,139.0705,690.7519,142.9583,686.8641,147.0675,695.75,142.82" style="stroke:#181818;stroke-width:1.0;"/><text fill="#000000" font-family="sans-serif" font-size="13" lengthAdjust="spacing" textLength="105" x="560" y="140.0669">product.sold-out</text></g><!--link queue__inventory_eventsorder_serviceproduct_sold_out to platform__application__order_service__consumer--><g id="link_queue__inventory_eventsorder_serviceproduct_sold_out_platform__application__order_service__consumer"><path d="M1046.37,138 C1068.88,138 1084.47,138 1102.89,138 " fill="none" id="queue__inventory_eventsorder_serviceproduct_sold_out-to-platform__application__order_service__consumer" style="stroke:#181818;stroke-width:1.0;"/><polygon fill="#181818" points="1108.89,138,1099.89,134,1103.89,138,1099.89,142,1108.89,138" style="stroke:#181818;stroke-width:1.0;"/></g></g></svg>