<?xml version="1.0" encoding="us-ascii" standalone="no"?><svg xmlns="http://www.w3.org/2000/svg" xmlns:xlink="http://www.w3.org/1999/xlink" contentStyleType="text/css" height="447px" preserveAspectRatio="none" style="width:701px;height:447px;background:#FFFFFF;" version="1.1" viewBox="0 0 701 447" width="701px" zoomAndPan="magnify"><defs/><g><!--entity platform__application__backend_service_1--><g id="elem_platform__application__backend_service_1"><rect fill="#ADD8E6" height="36.2969" rx="2.5" ry="2.5" style="stroke:#181818;stroke-width:0.5;" width="160" x="194" y="103"/><text fill="#000000" font-family="sans-serif" font-size="14" lengthAdjust="spacing" textLength="140" x="204" y="125.9951">Backend Service #1</text></g><!--entity platform__application__frontend--><g id="elem_platform__application__frontend"><rect fill="#ADD8E6" height="36.2969" rx="2.5" ry="2.5" style="stroke:#181818;stroke-width:0.5;" width="83" x="232.5" y="7"/><text fill="#000000" font-family="sans-serif" font-size="14" lengthAdjust="spacing" textLength="63" x="242.5" y="29.9951">Frontend</text></g><!--entity platform__application__backend_service_2--><g id="elem_platform__application__backend_service_2"><rect fill="#ADD8E6" height="36.2969" rx="2.5" ry="2.5" style="stroke:#181818;stroke-width:0.5;" width="160" x="98" y="199"/><text fill="#000000" font-family="sans-serif" font-size="14" lengthAdjust="spacing" textLength="140" x="108" y="221.9951">Backend Service #2</text></g><!--entity order_service--><g id="elem_order_service"><rect fill="#ADD8E6" height="36.2969" rx="2.5" ry="2.5" style="stroke:#181818;stroke-width:0.5;" width="111" x="485.5" y="7"/><text fill="#000000" font-family="sans-serif" font-size="14" lengthAdjust="spacing" textLength="91" x="495.5" y="29.9951">order-service</text></g><!--entity platform__external_service_1--><g id="elem_platform__external_service_1"><rect fill="#FFE4B5" height="36.2969" rx="2.5" ry="2.5" style="stroke:#181818;stroke-width:0.5;" width="154" x="293" y="199"/><text fill="#000000" font-family="sans-serif" font-size="14" lengthAdjust="spacing" textLength="134" x="303" y="221.9951">External Service #1</text></g><!--entity platform__external_service_2--><g id="elem_platform__external_service_2"><rect fill="#FFE4B5" height="36.2969" rx="2.5" ry="2.5" style="stroke:#181818;stroke-width:0.5;" width="154" x="7" y="295"/><text fill="#000000" font-family="sans-serif" font-size="14" lengthAdjust="spacing" textLength="134" x="17" y="317.9951">External Service #2</text></g><!--entity other_project__external_service_3--><g id="elem_other_project__external_service_3"><rect fill="#F08080" height="36.2969" rx="2.5" ry="2.5" style="stroke:#181818;stroke-width:0.5;" width="154" x="196" y="295"/><text fill="#000000" font-family="sans-serif" font-size="14" lengthAdjust="spacing" textLength="134" x="206" y="317.9951">External Service #3</text></g><!--entity payment_service--><g id="elem_payment_service"><rect fill="#FFE4B5" height="36.2969" rx="2.5" ry="2.5" style="stroke:#181818;stroke-width:0.5;" width="134" x="389" y="103"/><text fill="#000000" font-family="sans-serif" font-size="14" lengthAdjust="spacing" textLength="114" x="399" y="125.9951">payment-service</text></g><!--entity inventory_service--><g id="elem_inventory_service"><rect fill="#ADD8E6" height="36.2969" rx="2.5" ry="2.5" style="stroke:#181818;stroke-width:0.5;" width="137" x="558.5" y="103"/><text fill="#000000" font-family="sans-serif" font-size="14" lengthAdjust="spacing" textLength="117" x="568.5" y="125.9951">inventory-service</text></g><!--link platform__application__backend_service_1 to platform__external_service_1--><g id="link_platform__application__backend_service_1_platform__external_service_1"><path d="M323.5,139.06 C323.5,156.11 323.5,175.56 323.5,192.7 " fill="none" id="platform__application__backend_service_1-to-platform__external_service_1" style="stroke:#181818;stroke-width:1.0;"/><polygon fill="#181818" points="323.5,198.7,327.5,189.7,323.5,193.7,319.5,189.7,323.5,198.7" style="stroke:#181818;stroke-width:1.0;"/><text fill="#000000" font-family="sans-serif" font-size="13" lengthAdjust="spacing" textLength="21" x="301.5" y="164.9469">JWT</text></g><!--link platform__application__backend_service_1 to platform__application__backend_service_2--><g id="link_platform__application__backend_service_1_platform__application__backend_service_2"><path d="M226,139.06 C226,156.11 226,175.56 226,192.7 " fill="none" id="platform__application__backend_service_1-to-platform__application__backend_service_2" style="stroke:#181818;stroke-width:1.0;"/><polygon fill="#181818" points="226,198.7,230,189.7,226,193.7,222,189.7,226,198.7" style="stroke:#181818;stroke-width:1.0;"/><text fill="#000000" font-family="sans-serif" font-size="13" lengthAdjust="spacing" textLength="21" x="204" y="164.9469">JWT</text></g><!--link platform__application__frontend to platform__application__backend_service_1--><g id="link_platform__application__frontend_platform__application__backend_service_1"><path d="M274,43.06 C274,60.11 274,79.56 274,96.7 " fill="none" id="platform__application__frontend-to-platform__application__backend_service_1" style="stroke:#181818;stroke-width:1.0;"/><polygon fill="#181818" points="274,102.7,278,93.7,274,97.7,270,93.7,274,102.7" style="stroke:#181818;stroke-width:1.0;"/><text fill="#000000" font-family="sans-serif" font-size="13" lengthAdjust="spacing" textLength="21" x="252" y="68.9469">JWT</text></g><!--link platform__application__backend_service_2 to platform__external_service_2--><g id="link_platform__application__backend_service_2_platform__external_service_2"><path d="M129.5,235.06 C129.5,252.11 129.5,271.56 129.5,288.7 " fill="none" id="platform__application__backend_service_2-to-platform__external_service_2" style="stroke:#181818;stroke-width:1.0;"/><polygon fill="#181818" points="129.5,294.7,133.5,285.7,129.5,289.7,125.5,285.7,129.5,294.7" style="stroke:#181818;stroke-width:1.0;"/><text fill="#000000" font-family="sans-serif" font-size="13" lengthAdjust="spacing" textLength="21" x="107.5" y="260.9469">JWT</text></g><!--link platform__application__backend_service_2 to other_project__external_service_3--><g id="link_platform__application__backend_service_2_other_project__external_service_3"><path d="M227,235.06 C227,252.11 227,271.56 227,288.7 " fill="none" id="platform__application__backend_service_2-to-other_project__external_service_3" style="stroke:#181818;stroke-width:1.0;"/><polygon fill="#181818" points="227,294.7,231,285.7,227,289.7,223,285.7,227,294.7" style="stroke:#181818;stroke-width:1.0;"/><text fill="#000000" font-family="sans-serif" font-size="13" lengthAdjust="spacing" textLength="69" x="157" y="260.9469">Basic-Auth</text></g><!--link order_service to payment_service--><g id="link_order_service_payment_service"><path d="M504.25,43.06 C504.25,60.11 504.25,79.56 504.25,96.7 " fill="none" id="order_service-to-payment_service" style="stroke:#181818;stroke-width:1.0;"/><polygon fill="#181818" points="504.25,102.7,508.25,93.7,504.25,97.7,500.25,93.7,504.25,102.7" style="stroke:#181818;stroke-width:1.0;"/><text fill="#000000" font-family="sans-serif" font-size="13" lengthAdjust="spacing" textLength="21" x="482.25" y="68.9469">JWT</text></g><!--link order_service to inventory_service--><g id="link_order_service_inventory_service"><path d="M577.5,43.06 C577.5,60.11 577.5,79.56 577.5,96.7 " fill="none" id="order_service-to-inventory_service" style="stroke:#181818;stroke-width:1.0;"/><polygon fill="#181818" points="577.5,102.7,581.5,93.7,577.5,97.7,573.5,93.7,577.5,102.7" style="stroke:#181818;stroke-width:1.0;"/><text fill="#000000" font-family="sans-serif" font-size="13" lengthAdjust="spacing" textLength="21" x="555.5" y="68.9469">JWT</text></g><rect fill="none" height="79.1875" id="_legend" rx="7.5" ry="7.5" style="stroke:#FFFFFF;stroke-width:1.0;" width="159" x="12" y="348.2969"/><text fill="#000000" font-family="sans-serif" font-size="14" lengthAdjust="spacing" textLength="36" x="21" y="368.292">Color</text><text fill="#000000" font-family="sans-serif" font-size="14" lengthAdjust="spacing" textLength="91" x="65" y="368.292">Belongs to ...</text><rect fill="#ADD8E6" height="16.2969" style="stroke:none;stroke-width:1.0;" width="44" x="17" y="371.5938"/><text fill="#000000" font-family="sans-serif" font-size="14" lengthAdjust="spacing" textLength="4" x="17" y="384.5889">&#160;</text><text fill="#000000" font-family="sans-serif" font-size="14" lengthAdjust="spacing" textLength="101" x="65" y="384.5889">our application</text><rect fill="#FFE4B5" height="16.2969" style="stroke:none;stroke-width:1.0;" width="44" x="17" y="387.8906"/><text fill="#000000" font-family="sans-serif" font-size="14" lengthAdjust="spacing" textLength="4" x="17" y="400.8857">&#160;</text><text fill="#000000" font-family="sans-serif" font-size="14" lengthAdjust="spacing" textLength="98" x="65" y="400.8857">same platform</text><rect fill="#F08080" height="16.2969" style="stroke:none;stroke-width:1.0;" width="44" x="17" y="404.1875"/><text fill="#000000" font-family="sans-serif" font-size="14" lengthAdjust="spacing" textLength="4" x="17" y="417.1826">&#160;</text><text fill="#000000" font-family="sans-serif" font-size="14" lengthAdjust="spacing" textLength="89" x="65" y="417.1826">other project</text><line style="stroke:#000000;stroke-width:1.0;" x1="17" x2="166" y1="355.2969" y2="355.2969"/><line style="stroke:#000000;stroke-width:1.0;" x1="17" x2="166" y1="371.5938" y2="371.5938"/><line style="stroke:#000000;stroke-width:1.0;" x1="17" x2="166" y1="387.8906" y2="387.8906"/><line style="stroke:#000000;stroke-width:1.0;" x1="17" x2="166" y1="404.1875" y2="404.1875"/><line style="stroke:#000000;stroke-width:1.0;" x1="17" x2="166" y1="420.4844" y2="420.4844"/><line style="stroke:#000000;stroke-width:1.0;" x1="17" x2="17" y1="355.2969" y2="420.4844"/><line style="stroke:#000000;stroke-width:1.0;" x1="61" x2="61" y1="355.2969" y2="420.4844"/><line style="stroke:#000000;stroke-width:1.0;" x1="166" x2="166" y1="355.2969" y2="420.4844"/></g></svg>